<?xml version="1.0" standalone="no"?>
<!DOCTYPE svg PUBLIC "-//W3C//DTD SVG 20010904//EN"
 "http://www.w3.org/TR/2001/REC-SVG-20010904/DTD/svg10.dtd">
<svg version="1.0" xmlns="http://www.w3.org/2000/svg"
 width="512.000000pt" height="512.000000pt" viewBox="0 0 512.000000 512.000000"
 preserveAspectRatio="xMidYMid meet">

<g transform="translate(0.000000,512.000000) scale(0.100000,-0.100000)"
fill="#cc0000" stroke="none">
<path d="M1205 5104 c-405 -34 -616 -114 -826 -311 -189 -178 -290 -386 -336
-693 -17 -105 -18 -232 -18 -1530 0 -1531 -1 -1505 55 -1725 74 -296 271 -540
552 -685 108 -56 229 -92 398 -117 106 -17 233 -18 1545 -18 1312 0 1439 1
1545 18 289 44 474 128 651 294 186 175 290 387 334 678 22 149 22 2937 0
3095 -42 291 -147 506 -334 683 -174 164 -357 248 -641 294 -95 15 -241 17
-1495 18 -765 1 -1408 1 -1430 -1z m831 -1319 c168 -29 258 -69 346 -153 102
-97 146 -201 155 -366 11 -197 -40 -350 -157 -466 -76 -76 -150 -118 -275
-156 -87 -27 -99 -28 -367 -32 l-278 -4 0 -389 0 -389 -130 0 -130 0 0 985 0
985 374 0 c289 0 393 -3 462 -15z m1728 -25 c90 -23 234 -96 295 -149 l42 -36
-71 -77 -71 -77 -47 33 c-105 75 -224 116 -337 116 -71 0 -181 -26 -245 -57
-71 -34 -176 -140 -217 -218 -65 -124 -113 -322 -113 -468 l0 -58 55 45 c80
65 164 113 257 148 107 40 273 50 390 24 250 -56 395 -219 429 -485 26 -204
-40 -395 -184 -533 -227 -217 -616 -238 -872 -45 -163 123 -269 325 -306 586
-17 122 -6 449 19 566 47 216 126 372 256 500 104 103 187 151 321 184 112 27
294 28 399 1z m-2540 -2631 c65 -24 136 -96 154 -157 30 -101 0 -208 -79 -275
-69 -60 -119 -69 -342 -65 -191 3 -192 3 -246 33 -89 49 -135 125 -135 226 0
54 5 74 30 120 32 57 99 111 158 128 17 5 115 10 218 10 166 1 194 -1 242 -20z
m726 -1 c103 -52 131 -181 58 -264 -40 -45 -62 -57 -121 -64 l-49 -5 96 -79
c53 -43 96 -80 96 -82 0 -2 -33 -4 -73 -4 l-74 0 -146 126 c-81 70 -147 130
-147 135 0 5 70 9 155 9 142 0 157 2 175 20 30 30 27 83 -6 109 -25 19 -40 21
-200 21 l-174 0 0 -210 0 -210 -50 0 -50 0 0 260 0 260 233 0 c222 0 235 -1
277 -22z m522 5 c24 -27 318 -484 318 -494 0 -5 -26 -9 -57 -9 -58 0 -58 0
-86 45 l-29 45 -133 0 -133 0 -31 48 -30 47 129 5 129 5 -60 95 c-33 52 -63
96 -67 98 -5 1 -64 -85 -131 -193 l-123 -195 -60 0 c-50 0 -59 3 -54 15 7 19
269 427 303 473 20 26 31 32 62 32 23 0 44 -7 53 -17z m878 10 c0 -3 -11 -26
-25 -50 l-26 -43 -167 0 c-154 0 -170 -2 -206 -23 -107 -60 -107 -214 0 -274
37 -21 51 -23 237 -23 108 0 197 -3 197 -6 0 -4 -12 -26 -27 -50 l-28 -44
-172 0 c-210 0 -257 13 -326 90 -89 99 -91 237 -4 336 39 44 77 69 127 85 31
9 420 12 420 2z m160 -203 l0 -210 230 0 230 0 -31 -50 -31 -50 -234 0 c-221
0 -235 1 -254 20 -19 19 -20 33 -20 260 l0 240 55 0 55 0 0 -210z m1040 204
c0 -3 -12 -25 -26 -49 l-25 -44 -177 -3 c-167 -3 -179 -4 -210 -26 -18 -13
-39 -37 -47 -53 l-16 -29 236 0 c153 0 235 -4 235 -10 0 -6 -12 -28 -26 -50
l-27 -40 -209 0 -209 0 16 -29 c8 -16 29 -40 47 -53 32 -22 42 -23 241 -26
114 -2 207 -5 207 -7 0 -2 -12 -25 -27 -50 l-28 -45 -166 0 c-194 0 -249 12
-311 68 -107 96 -118 253 -25 358 41 47 81 72 132 85 35 8 415 12 415 3z m142
-11 c37 -33 11 -103 -39 -103 -12 0 -32 9 -43 20 -55 55 24 135 82 83z"/>
<path d="M1460 3204 l0 -386 248 4 c199 4 258 8 302 23 130 41 190 90 237 190
26 56 28 69 28 185 0 106 -3 132 -21 171 -32 68 -77 113 -143 143 -100 44
-189 56 -432 56 l-219 0 0 -386z"/>
<path d="M3395 2800 c-114 -24 -235 -91 -332 -183 l-55 -52 5 -60 c21 -211
128 -395 271 -465 79 -39 184 -54 274 -40 134 21 234 95 294 218 32 65 33 70
33 197 0 122 -2 134 -29 193 -36 78 -105 143 -184 172 -64 24 -210 35 -277 20z"/>
<path d="M780 1039 c-89 -36 -129 -153 -77 -229 49 -73 56 -75 280 -75 197 0
203 1 236 24 96 68 86 218 -18 271 -36 18 -58 20 -218 19 -98 0 -189 -5 -203
-10z"/>
<path d="M4615 1106 c-11 -25 6 -50 36 -54 20 -4 21 -2 9 13 -10 12 -15 13
-21 4 -4 -8 -9 1 -11 22 -3 28 -5 31 -13 15z"/>
<path d="M4677 1096 c-4 -10 -5 -21 -2 -24 9 -9 17 6 13 25 -3 17 -4 17 -11
-1z"/>
</g>
</svg>
