<svg width="625" height="483" viewBox="0 0 625 483" fill="none" xmlns="http://www.w3.org/2000/svg">
<path fill-rule="evenodd" clip-rule="evenodd" d="M314.274 104.629C360.621 108.992 445.408 51.4739 491.506 56.852C556.199 64.3994 595.993 100.403 620.731 140.382C645.12 179.796 557.877 195.653 539.176 236.386C519.837 278.505 556.049 350.66 509.626 382.375C461.299 415.389 380.158 496.162 314.274 481.162C248.436 466.173 252.046 339.819 197.526 311.319C147.359 285.094 57.7646 303.042 21.7339 268.209C-14.608 233.074 0.506714 183.392 24.3671 143.914C47.3516 105.885 68.1117 42.9093 129.124 34.6417C189.408 26.4727 253.343 98.8933 314.274 104.629Z" fill="#FAFAFA"/>
<g clip-path="url(#clip0_924_214981)">
<path d="M463.587 343.673C463 342.686 460.462 343.743 459.996 342.847C459.531 341.953 461.889 340.592 463.236 337.483C463.479 336.923 465.01 333.389 463.877 332.299C461.728 330.232 451.897 338.761 448.457 335.97C447.702 335.357 447.174 334.135 444.889 332.149C443.98 331.36 443.43 331.003 442.898 331.136C442.143 331.324 442.084 332.333 441.274 334.316C440.06 337.291 439.342 337.112 438.635 339.485C438.11 341.247 438.23 342.271 437.612 342.471C436.737 342.753 435.933 340.884 434.825 341.052C433.694 341.223 433.01 343.399 432.794 345.028C432.389 348.085 433.514 350.102 434.137 352.224C434.814 354.529 435.216 358.035 433.652 362.998L418.172 406.549C421.589 397.613 431.485 373.115 435.643 364.011C436.843 361.383 438.168 358.718 440.89 357.666C443.51 356.653 447.108 357.258 451.695 356.154C452.231 356.025 453.718 355.647 453.905 354.774C454.06 354.052 453.185 353.649 453.32 352.973C453.5 352.066 455.22 352.055 457.333 351.009C458.823 350.271 459.751 349.394 460.55 348.639C460.79 348.412 464.368 344.988 463.587 343.673Z" fill="#878A91"/>
<path d="M402.683 366.601C402.028 366.603 401.816 368.152 401.241 368.122C400.667 368.093 400.679 366.544 399.539 364.987C399.334 364.706 398.039 362.936 397.176 363.177C395.54 363.634 396.895 370.912 394.531 371.793C394.012 371.987 393.259 371.892 391.624 372.44C390.973 372.657 390.639 372.824 390.551 373.123C390.426 373.547 390.904 373.868 391.646 374.837C392.758 376.29 392.462 376.59 393.425 377.621C394.139 378.387 394.677 378.624 394.597 378.984C394.484 379.494 393.333 379.349 393.096 379.941C392.853 380.544 393.726 381.507 394.464 382.083C395.85 383.164 397.166 383.195 398.388 383.501C399.717 383.834 401.556 384.649 403.544 386.848L420.484 407C417.078 402.747 407.892 390.829 404.617 386.164C403.671 384.818 402.744 383.399 403.012 381.762C403.27 380.186 404.605 378.597 405.387 376.03C405.478 375.73 405.721 374.893 405.346 374.549C405.036 374.265 404.585 374.577 404.292 374.316C403.898 373.966 404.389 373.12 404.484 371.783C404.551 370.839 404.388 370.131 404.248 369.522C404.205 369.339 403.555 366.598 402.683 366.601Z" fill="#878A91"/>
<path d="M415.746 369.529L415.352 366.012L415.532 365.746C416.366 364.513 416.791 363.309 416.796 362.166C416.797 361.985 416.788 361.803 416.78 361.618C416.746 360.884 416.703 359.972 417.18 358.909C417.447 358.317 418.197 356.945 419.324 357.115C419.628 357.157 419.857 357.296 420.031 357.459C420.057 357.419 420.083 357.378 420.111 357.334C420.462 356.799 420.741 356.57 421.008 356.349C421.214 356.179 421.427 356.004 421.76 355.59C421.906 355.408 422.02 355.248 422.116 355.114C422.408 354.708 422.789 354.225 423.461 354.233C424.178 354.267 424.554 354.86 424.803 355.252C425.248 355.951 425.449 356.456 425.583 356.79C425.631 356.913 425.687 357.05 425.715 357.093C425.946 357.432 427.826 357.115 428.534 356.999C430.125 356.734 431.501 356.505 432.069 357.507C432.475 358.223 432.173 359.171 431.144 360.399C430.824 360.781 430.483 361.071 430.18 361.299C430.431 361.448 430.655 361.677 430.746 362.037C430.961 362.89 430.227 363.744 428.566 364.579C428.154 364.788 427.599 365.067 426.821 365.201C426.454 365.264 426.124 365.279 425.842 365.287C425.836 365.45 425.798 365.627 425.698 365.809C425.407 366.343 424.8 366.598 423.885 366.537C422.878 366.484 422.049 366.293 421.318 366.124C420.679 365.978 420.129 365.854 419.697 365.883C418.896 365.948 418.279 366.588 417.555 367.418L415.746 369.529Z" fill="#878A91"/>
<path d="M417.576 348.591L414.269 349.864L413.965 349.757C412.559 349.265 411.285 349.159 410.177 349.444C410.001 349.489 409.827 349.544 409.65 349.599C408.948 349.818 408.075 350.09 406.925 349.9C406.283 349.792 404.764 349.416 404.642 348.284C404.606 347.98 404.683 347.723 404.797 347.513C404.751 347.499 404.705 347.484 404.655 347.468C404.047 347.264 403.755 347.054 403.473 346.851C403.256 346.696 403.033 346.535 402.547 346.318C402.334 346.223 402.15 346.153 401.996 346.094C401.529 345.916 400.964 345.67 400.801 345.019C400.652 344.318 401.131 343.804 401.448 343.464C402.013 342.857 402.45 342.535 402.74 342.321C402.847 342.243 402.966 342.155 403 342.117C403.27 341.807 402.486 340.072 402.194 339.417C401.534 337.948 400.963 336.677 401.789 335.875C402.381 335.3 403.375 335.352 404.825 336.034C405.277 336.247 405.644 336.502 405.942 336.737C406.023 336.457 406.188 336.182 406.514 336.003C407.285 335.579 408.298 336.072 409.529 337.464C409.836 337.809 410.246 338.275 410.574 338.992C410.728 339.33 410.826 339.645 410.906 339.915C411.065 339.88 411.246 339.872 411.447 339.922C412.039 340.068 412.44 340.59 412.613 341.489C412.817 342.474 412.842 343.324 412.864 344.073C412.885 344.727 412.904 345.289 413.042 345.699C413.308 346.457 414.084 346.89 415.072 347.379L417.576 348.591Z" fill="#878A91"/>
<path d="M415.746 338.231L415.352 334.714L415.532 334.447C416.366 333.215 416.791 332.011 416.796 330.868C416.797 330.686 416.788 330.505 416.78 330.319C416.746 329.586 416.703 328.674 417.18 327.611C417.447 327.018 418.197 325.646 419.324 325.816C419.628 325.859 419.857 325.998 420.031 326.161C420.057 326.12 420.083 326.079 420.111 326.035C420.462 325.5 420.741 325.271 421.008 325.05C421.214 324.881 421.427 324.706 421.76 324.291C421.906 324.11 422.02 323.95 422.116 323.816C422.408 323.41 422.789 322.926 423.461 322.935C424.178 322.969 424.554 323.561 424.803 323.954C425.248 324.653 425.449 325.157 425.583 325.492C425.631 325.614 425.687 325.752 425.715 325.794C425.946 326.134 427.826 325.816 428.534 325.701C430.125 325.436 431.501 325.207 432.069 326.208C432.475 326.925 432.173 327.873 431.144 329.1C430.824 329.482 430.483 329.773 430.18 330C430.431 330.15 430.655 330.379 430.746 330.739C430.961 331.591 430.227 332.445 428.566 333.281C428.154 333.49 427.599 333.768 426.821 333.902C426.454 333.965 426.124 333.98 425.842 333.989C425.836 334.152 425.798 334.329 425.698 334.51C425.407 335.045 424.8 335.3 423.885 335.239C422.878 335.186 422.049 334.994 421.318 334.826C420.679 334.68 420.129 334.556 419.697 334.585C418.896 334.649 418.279 335.29 417.555 336.12L415.746 338.231Z" fill="#878A91"/>
<path d="M419.348 406.492L418.61 406.03L417.75 406.129C417.736 406.049 417.689 405.865 417.619 405.578C417.233 404.006 416.059 399.221 415.08 391.685C414.396 386.424 414.009 381.016 413.929 375.608C413.849 370.191 414.106 366.09 414.312 362.794C414.467 360.309 414.656 357.941 414.842 355.636C415.335 349.475 415.8 343.656 415.454 337.213C415.377 335.775 415.217 332.782 413.465 329.596C412.449 327.749 411.049 326.108 409.305 324.723L410.39 323.361C412.315 324.892 413.864 326.709 414.992 328.761C416.934 332.293 417.109 335.555 417.193 337.122C417.545 343.678 417.075 349.553 416.577 355.773C416.393 358.071 416.205 360.427 416.05 362.903C415.846 366.169 415.592 370.234 415.671 375.581C415.749 380.925 416.131 386.267 416.806 391.461C417.773 398.902 418.931 403.615 419.311 405.164C419.513 405.991 419.555 406.164 419.348 406.492Z" fill="#878A91"/>
<path d="M406.117 327.485C406.045 327.485 405.973 327.484 405.9 327.479C404.417 327.399 403.044 326.512 401.818 324.845C401.243 324.06 400.949 323.166 400.362 321.381C400.271 321.106 399.829 319.71 399.56 317.79C399.384 316.535 399.406 316.01 399.655 315.546C399.932 315.03 400.379 314.67 400.882 314.427C400.86 314.261 400.878 314.09 400.95 313.915C401.247 313.19 402.036 313.285 402.463 313.331C402.679 313.358 402.948 313.393 403.239 313.378C403.697 313.356 403.942 313.22 404.315 313.016C404.671 312.821 405.114 312.578 405.771 312.444C407.067 312.174 408.153 312.541 408.511 312.661C410.394 313.288 411.323 314.75 412.397 316.443C412.612 316.783 413.347 318.019 413.833 319.713C414.183 320.936 414.134 321.479 414.028 321.884C413.814 322.714 413.308 323.189 412.023 324.239C410.682 325.337 410.008 325.888 409.43 326.222C408.084 326.998 407.239 327.485 406.117 327.485Z" fill="#878A91"/>
<path d="M350.135 162.431C354.846 160.079 357.45 155.746 355.951 152.752C354.451 149.758 349.418 149.239 344.705 151.592C342.81 152.506 341.161 153.86 339.898 155.541L320.062 165.757L325.062 174.949L344.085 163.902C346.19 163.901 348.265 163.397 350.135 162.431Z" fill="#FFB6B6"/>
<path d="M237.752 400.067L247.194 400.066L251.685 363.701L237.75 363.702L237.752 400.067Z" fill="#FFB6B6"/>
<path d="M270.103 399.853C270.397 400.348 270.552 401.943 270.552 402.518C270.552 404.286 269.117 405.718 267.347 405.718H238.108C236.9 405.718 235.922 404.741 235.922 403.535V402.32C235.922 402.32 234.475 398.666 237.453 394.163C237.453 394.163 241.154 397.689 246.685 392.167L248.316 389.216L260.122 397.838L266.665 398.642C268.097 398.818 269.366 398.615 270.103 399.853Z" fill="#2F2E41"/>
<path d="M252.578 360.081L260.963 364.415L281.696 334.183L269.32 327.787L252.578 360.081Z" fill="#FFB6B6"/>
<path d="M281.404 374.742C281.438 375.316 280.841 376.805 280.576 377.315C279.762 378.884 277.829 379.498 276.257 378.686L250.291 365.262C249.219 364.707 248.799 363.39 249.355 362.32L249.914 361.24C249.914 361.24 250.312 357.332 255.03 354.7C255.03 354.7 256.693 359.53 264.148 357.165L266.954 355.294L273.469 368.37L278.909 372.089C280.1 372.902 281.321 373.304 281.404 374.742Z" fill="#2F2E41"/>
<path d="M228.165 111.426H252.926L252.386 119.487L268.533 170.881L271.56 205.143L241.285 210.181L227.156 146.695L230.184 117.472L228.165 111.426Z" fill="#112D57"/>
<path d="M229.676 117.976L203.438 131.076L219.584 185.492L216.557 240.916C216.557 240.916 257.934 254.017 255.915 216.731C253.897 179.446 253.897 173.4 253.897 173.4L229.676 117.976Z" fill="#2F2E41"/>
<path d="M271.562 124.764C271.562 124.764 278.122 119.991 281.15 127.045C284.177 134.099 303.856 169.873 303.856 169.873L334.637 156.269L339.683 167.354C339.683 167.354 314.453 191.539 299.315 188.515C284.177 185.492 272.067 159.292 272.067 159.292L271.562 124.764Z" fill="#2F2E41"/>
<path d="M219.588 230.839C219.588 230.839 218.579 246.963 220.597 260.063C222.616 273.163 236.24 384.516 236.24 384.516L253.396 383.508L254.91 253.009L279.13 291.302L257.937 348.742L272.57 355.292L303.351 292.31L282.158 220.762L276.103 202.624L230.689 207.662L219.588 230.839Z" fill="#2F2E41"/>
<path d="M287.204 234.87C287.204 234.87 259.956 242.932 253.901 173.4L252.531 117.336L278.121 124.022L275.094 174.408L287.204 234.87Z" fill="#2F2E41"/>
<path d="M240.783 104.875C250.815 104.875 258.948 96.7543 258.948 86.7365C258.948 76.7187 250.815 68.5977 240.783 68.5977C230.75 68.5977 222.617 76.7187 222.617 86.7365C222.617 96.7543 230.75 104.875 240.783 104.875Z" fill="#FFB6B6"/>
<path d="M229.175 104.372C229.175 104.372 221.102 95.3021 220.093 91.2712C219.084 87.2404 219.084 76.1556 220.093 75.1478C221.102 74.1401 232.203 64.063 236.24 65.0707C240.277 66.0784 248.278 71.117 255.414 71.117C257.433 71.117 258.442 81.1941 258.442 81.1941L250.368 82.2018C250.368 82.2018 240.277 77.1633 241.286 82.2018C242.295 87.2404 234.221 87.2404 234.221 87.2404L235.231 91.2712L232.203 92.279L230.185 88.2481C230.185 88.2481 231.194 97.3175 234.221 101.348C237.249 105.379 229.175 104.372 229.175 104.372Z" fill="#2F2E41"/>
<path d="M221.133 249.464C223.903 253.938 228.459 256.137 231.31 254.376C234.161 252.616 234.226 247.563 231.455 243.088C230.373 241.286 228.874 239.768 227.083 238.663L215.109 219.856L206.391 225.656L219.121 243.579C219.311 245.673 220.001 247.691 221.133 249.464Z" fill="#FFB6B6"/>
<path d="M207.476 131.076H202.43C202.43 131.076 182.246 176.423 183.255 185.492C183.255 185.492 183.255 193.554 188.301 199.6C193.347 205.647 214.54 239.909 214.54 239.909L223.623 232.855L205.457 190.531L216.559 146.192L207.476 131.076Z" fill="#2F2E41"/>
<path d="M480.438 405.702C480.438 406.023 480.177 406.284 479.855 406.284H183.584C183.261 406.284 183 406.023 183 405.702C183 405.38 183.261 405.119 183.584 405.119H479.855C480.177 405.119 480.438 405.38 480.438 405.702Z" fill="#A5A7AC"/>
<path d="M371.232 194.15C368.848 194.15 366.577 193.178 364.942 191.443C354.42 180.274 348.625 165.678 348.625 150.346C348.625 137.569 352.594 125.371 360.105 115.069C361.589 113.034 363.891 111.757 366.423 111.566C368.994 111.368 371.509 112.308 373.322 114.137L403.836 144.914C406.89 147.994 407.202 152.911 404.562 156.352L378.193 190.721C376.626 192.763 374.25 194.009 371.675 194.139C371.527 194.147 371.379 194.15 371.232 194.15Z" fill="#112D57"/>
<path d="M419.85 212.1C410.442 212.1 401.414 210.018 393.017 205.912C389.968 204.42 387.773 201.671 386.995 198.369C386.218 195.066 386.957 191.628 389.023 188.937L410.998 160.296C414.995 155.086 414.522 147.639 409.898 142.974L387.403 120.286C384.152 117.006 382.677 112.508 383.358 107.945C384.043 103.358 386.785 99.4623 390.882 97.2567C400.12 92.2834 410.587 89.7665 421.154 89.9928C453 90.6562 479.249 116.029 480.914 147.756C481.803 164.707 475.872 180.798 464.213 193.064C452.546 205.34 436.791 212.1 419.85 212.1ZM419.872 92.0608C410.087 92.0608 412.428 101.33 403.868 105.938C400.354 107.829 386.007 104.32 385.42 108.252C384.837 112.16 386.1 116.012 388.884 118.821L411.379 141.51C416.733 146.91 417.28 155.53 412.653 161.562L390.678 190.203C388.993 192.398 388.391 195.2 389.025 197.893C389.658 200.585 391.448 202.827 393.934 204.043C402.043 208.008 410.762 194.06 419.85 194.06C436.214 194.06 451.432 203.489 462.701 191.632C473.962 179.783 479.691 164.24 478.832 147.866C477.224 117.221 451.87 92.7147 421.111 92.0737C420.698 92.0652 420.285 92.0608 419.872 92.0608Z" fill="#A5A7AC"/>
<path d="M423.86 151.292C422.672 149.906 422.078 147.877 422.078 145.203C422.078 142.556 422.672 140.538 423.86 139.152C425.048 137.766 426.694 137.073 428.795 137.073C430.921 137.073 432.585 137.766 433.786 139.152C434.986 140.538 435.587 142.556 435.587 145.203C435.587 147.877 434.986 149.906 433.786 151.292C432.585 152.678 430.921 153.372 428.795 153.372C426.694 153.372 425.048 152.678 423.86 151.292ZM430.934 149.138C431.384 148.338 431.609 147.027 431.609 145.203C431.609 143.43 431.378 142.138 430.915 141.325C430.452 140.514 429.745 140.108 428.795 140.108C427.869 140.108 427.182 140.514 426.731 141.325C426.281 142.138 426.056 143.43 426.056 145.203C426.056 147.002 426.281 148.307 426.731 149.119C427.182 149.931 427.869 150.337 428.795 150.337C429.77 150.337 430.484 149.937 430.934 149.138ZM430.6 160.558L443.992 137.447C445.841 137.447 446.995 139.448 446.067 141.045L432.66 164.125C430.826 164.125 429.681 162.142 430.6 160.558ZM442.885 162.308C441.697 160.921 441.103 158.88 441.103 156.182C441.103 153.534 441.697 151.523 442.885 150.149C444.073 148.776 445.73 148.089 447.857 148.089C449.983 148.089 451.641 148.776 452.829 150.149C454.017 151.523 454.611 153.547 454.611 156.219C454.611 158.892 454.017 160.921 452.829 162.308C451.641 163.694 449.983 164.387 447.857 164.387C445.73 164.387 444.073 163.694 442.885 162.308ZM449.958 160.135C450.409 159.323 450.634 158.018 450.634 156.219C450.634 154.446 450.402 153.153 449.94 152.341C449.476 151.53 448.782 151.124 447.857 151.124C446.906 151.124 446.206 151.53 445.756 152.341C445.305 153.153 445.08 154.446 445.08 156.219C445.08 158.018 445.305 159.323 445.756 160.135C446.206 160.947 446.906 161.352 447.857 161.352C448.807 161.352 449.508 160.947 449.958 160.135Z" fill="black"/>
</g>
<path d="M159.608 10.276L158.033 6.195C157.986 6.07367 157.937 5.93367 157.886 5.775C157.835 5.61167 157.786 5.439 157.739 5.257C157.641 5.635 157.541 5.95 157.438 6.202L155.863 10.276H159.608ZM162.436 14H161.386C161.265 14 161.167 13.9697 161.092 13.909C161.017 13.8483 160.961 13.7713 160.924 13.678L159.986 11.256H155.485L154.547 13.678C154.519 13.762 154.465 13.8367 154.386 13.902C154.307 13.9673 154.209 14 154.092 14H153.042L157.053 3.969H158.425L162.436 14ZM167.592 8.078C167.536 8.18067 167.449 8.232 167.333 8.232C167.263 8.232 167.183 8.20633 167.095 8.155C167.006 8.10367 166.896 8.04767 166.766 7.987C166.64 7.92167 166.488 7.86333 166.311 7.812C166.133 7.756 165.923 7.728 165.681 7.728C165.471 7.728 165.282 7.756 165.114 7.812C164.946 7.86333 164.801 7.93567 164.68 8.029C164.563 8.12233 164.472 8.232 164.407 8.358C164.346 8.47933 164.316 8.61233 164.316 8.757C164.316 8.939 164.367 9.09067 164.47 9.212C164.577 9.33333 164.717 9.43833 164.89 9.527C165.062 9.61567 165.258 9.695 165.478 9.765C165.697 9.83033 165.921 9.90267 166.15 9.982C166.383 10.0567 166.609 10.1407 166.829 10.234C167.048 10.3273 167.244 10.444 167.417 10.584C167.589 10.724 167.727 10.8967 167.83 11.102C167.937 11.3027 167.991 11.5453 167.991 11.83C167.991 12.1567 167.932 12.46 167.816 12.74C167.699 13.0153 167.526 13.2557 167.298 13.461C167.069 13.6617 166.789 13.8203 166.458 13.937C166.126 14.0537 165.744 14.112 165.31 14.112C164.815 14.112 164.367 14.0327 163.966 13.874C163.564 13.7107 163.224 13.503 162.944 13.251L163.238 12.775C163.275 12.7143 163.319 12.6677 163.371 12.635C163.422 12.6023 163.487 12.586 163.567 12.586C163.651 12.586 163.739 12.6187 163.833 12.684C163.926 12.7493 164.038 12.8217 164.169 12.901C164.304 12.9803 164.467 13.0527 164.659 13.118C164.85 13.1833 165.088 13.216 165.373 13.216C165.615 13.216 165.828 13.1857 166.01 13.125C166.192 13.0597 166.343 12.9733 166.465 12.866C166.586 12.7587 166.675 12.635 166.731 12.495C166.791 12.355 166.822 12.2057 166.822 12.047C166.822 11.851 166.768 11.69 166.661 11.564C166.558 11.4333 166.42 11.3237 166.248 11.235C166.075 11.1417 165.877 11.0623 165.653 10.997C165.433 10.927 165.207 10.8547 164.974 10.78C164.745 10.7053 164.519 10.6213 164.295 10.528C164.075 10.43 163.879 10.3087 163.707 10.164C163.534 10.0193 163.394 9.842 163.287 9.632C163.184 9.41733 163.133 9.15833 163.133 8.855C163.133 8.58433 163.189 8.32533 163.301 8.078C163.413 7.826 163.576 7.60667 163.791 7.42C164.005 7.22867 164.269 7.077 164.582 6.965C164.894 6.853 165.251 6.797 165.653 6.797C166.119 6.797 166.537 6.87167 166.906 7.021C167.279 7.16567 167.601 7.36633 167.872 7.623L167.592 8.078ZM173.648 8.078C173.592 8.18067 173.506 8.232 173.389 8.232C173.319 8.232 173.24 8.20633 173.151 8.155C173.063 8.10367 172.953 8.04767 172.822 7.987C172.696 7.92167 172.545 7.86333 172.367 7.812C172.19 7.756 171.98 7.728 171.737 7.728C171.527 7.728 171.338 7.756 171.17 7.812C171.002 7.86333 170.858 7.93567 170.736 8.029C170.62 8.12233 170.529 8.232 170.463 8.358C170.403 8.47933 170.372 8.61233 170.372 8.757C170.372 8.939 170.424 9.09067 170.526 9.212C170.634 9.33333 170.774 9.43833 170.946 9.527C171.119 9.61567 171.315 9.695 171.534 9.765C171.754 9.83033 171.978 9.90267 172.206 9.982C172.44 10.0567 172.666 10.1407 172.885 10.234C173.105 10.3273 173.301 10.444 173.473 10.584C173.646 10.724 173.784 10.8967 173.886 11.102C173.994 11.3027 174.047 11.5453 174.047 11.83C174.047 12.1567 173.989 12.46 173.872 12.74C173.756 13.0153 173.583 13.2557 173.354 13.461C173.126 13.6617 172.846 13.8203 172.514 13.937C172.183 14.0537 171.8 14.112 171.366 14.112C170.872 14.112 170.424 14.0327 170.022 13.874C169.621 13.7107 169.28 13.503 169 13.251L169.294 12.775C169.332 12.7143 169.376 12.6677 169.427 12.635C169.479 12.6023 169.544 12.586 169.623 12.586C169.707 12.586 169.796 12.6187 169.889 12.684C169.983 12.7493 170.095 12.8217 170.225 12.901C170.361 12.9803 170.524 13.0527 170.715 13.118C170.907 13.1833 171.145 13.216 171.429 13.216C171.672 13.216 171.884 13.1857 172.066 13.125C172.248 13.0597 172.4 12.9733 172.521 12.866C172.643 12.7587 172.731 12.635 172.787 12.495C172.848 12.355 172.878 12.2057 172.878 12.047C172.878 11.851 172.825 11.69 172.717 11.564C172.615 11.4333 172.477 11.3237 172.304 11.235C172.132 11.1417 171.933 11.0623 171.709 10.997C171.49 10.927 171.264 10.8547 171.03 10.78C170.802 10.7053 170.575 10.6213 170.351 10.528C170.132 10.43 169.936 10.3087 169.763 10.164C169.591 10.0193 169.451 9.842 169.343 9.632C169.241 9.41733 169.189 9.15833 169.189 8.855C169.189 8.58433 169.245 8.32533 169.357 8.078C169.469 7.826 169.633 7.60667 169.847 7.42C170.062 7.22867 170.326 7.077 170.638 6.965C170.951 6.853 171.308 6.797 171.709 6.797C172.176 6.797 172.594 6.87167 172.962 7.021C173.336 7.16567 173.658 7.36633 173.928 7.623L173.648 8.078ZM176.891 6.909V14H175.645V6.909H176.891ZM177.157 4.683C177.157 4.80433 177.131 4.91867 177.08 5.026C177.033 5.12867 176.968 5.222 176.884 5.306C176.805 5.38533 176.709 5.44833 176.597 5.495C176.49 5.54167 176.375 5.565 176.254 5.565C176.133 5.565 176.018 5.54167 175.911 5.495C175.808 5.44833 175.717 5.38533 175.638 5.306C175.559 5.222 175.496 5.12867 175.449 5.026C175.402 4.91867 175.379 4.80433 175.379 4.683C175.379 4.56167 175.402 4.44733 175.449 4.34C175.496 4.228 175.559 4.13233 175.638 4.053C175.717 3.969 175.808 3.90367 175.911 3.857C176.018 3.81033 176.133 3.787 176.254 3.787C176.375 3.787 176.49 3.81033 176.597 3.857C176.709 3.90367 176.805 3.969 176.884 4.053C176.968 4.13233 177.033 4.228 177.08 4.34C177.131 4.44733 177.157 4.56167 177.157 4.683ZM181.409 10.535C181.661 10.535 181.883 10.5 182.074 10.43C182.266 10.36 182.427 10.262 182.557 10.136C182.688 10.01 182.786 9.86067 182.851 9.688C182.917 9.51067 182.949 9.317 182.949 9.107C182.949 8.673 182.816 8.32767 182.55 8.071C182.289 7.81433 181.909 7.686 181.409 7.686C180.905 7.686 180.52 7.81433 180.254 8.071C179.993 8.32767 179.862 8.673 179.862 9.107C179.862 9.317 179.895 9.51067 179.96 9.688C180.03 9.86067 180.131 10.01 180.261 10.136C180.392 10.262 180.553 10.36 180.744 10.43C180.936 10.5 181.157 10.535 181.409 10.535ZM183.656 14.385C183.656 14.2123 183.607 14.0723 183.509 13.965C183.411 13.8577 183.278 13.7737 183.11 13.713C182.947 13.6523 182.756 13.6103 182.536 13.587C182.317 13.559 182.084 13.538 181.836 13.524C181.594 13.51 181.346 13.496 181.094 13.482C180.842 13.468 180.6 13.4447 180.366 13.412C180.105 13.5333 179.89 13.6873 179.722 13.874C179.559 14.056 179.477 14.2707 179.477 14.518C179.477 14.6767 179.517 14.8237 179.596 14.959C179.68 15.099 179.806 15.218 179.974 15.316C180.142 15.4187 180.352 15.498 180.604 15.554C180.861 15.6147 181.162 15.645 181.507 15.645C181.843 15.645 182.144 15.6147 182.41 15.554C182.676 15.4933 182.9 15.407 183.082 15.295C183.269 15.183 183.411 15.05 183.509 14.896C183.607 14.742 183.656 14.5717 183.656 14.385ZM184.923 7.189V7.651C184.923 7.805 184.825 7.903 184.629 7.945L183.824 8.05C183.983 8.358 184.062 8.69867 184.062 9.072C184.062 9.41733 183.995 9.73233 183.859 10.017C183.729 10.297 183.547 10.5373 183.313 10.738C183.08 10.9387 182.8 11.0927 182.473 11.2C182.147 11.3073 181.792 11.361 181.409 11.361C181.078 11.361 180.765 11.3213 180.471 11.242C180.322 11.3353 180.208 11.4357 180.128 11.543C180.049 11.6457 180.009 11.7507 180.009 11.858C180.009 12.026 180.077 12.1543 180.212 12.243C180.352 12.327 180.534 12.3877 180.758 12.425C180.982 12.4623 181.237 12.4857 181.521 12.495C181.811 12.5043 182.105 12.5207 182.403 12.544C182.707 12.5627 183.001 12.5977 183.285 12.649C183.575 12.7003 183.831 12.7843 184.055 12.901C184.279 13.0177 184.459 13.1787 184.594 13.384C184.734 13.5893 184.804 13.8553 184.804 14.182C184.804 14.4853 184.727 14.7793 184.573 15.064C184.424 15.3487 184.207 15.6007 183.922 15.82C183.638 16.044 183.288 16.2213 182.872 16.352C182.462 16.4873 181.997 16.555 181.479 16.555C180.961 16.555 180.509 16.5037 180.121 16.401C179.734 16.2983 179.412 16.1607 179.155 15.988C178.899 15.8153 178.705 15.6147 178.574 15.386C178.448 15.162 178.385 14.9263 178.385 14.679C178.385 14.329 178.495 14.0327 178.714 13.79C178.934 13.5473 179.235 13.3537 179.617 13.209C179.407 13.1157 179.239 12.992 179.113 12.838C178.992 12.6793 178.931 12.467 178.931 12.201C178.931 12.0983 178.95 11.9933 178.987 11.886C179.025 11.774 179.081 11.6643 179.155 11.557C179.235 11.445 179.33 11.34 179.442 11.242C179.554 11.144 179.685 11.0577 179.834 10.983C179.484 10.787 179.211 10.528 179.015 10.206C178.819 9.87933 178.721 9.50133 178.721 9.072C178.721 8.72667 178.787 8.414 178.917 8.134C179.053 7.84933 179.239 7.609 179.477 7.413C179.715 7.21233 179.998 7.05833 180.324 6.951C180.656 6.84367 181.017 6.79 181.409 6.79C181.717 6.79 182.004 6.825 182.27 6.895C182.536 6.96033 182.779 7.05833 182.998 7.189H184.923ZM187.388 7.938C187.542 7.76533 187.705 7.609 187.878 7.469C188.05 7.329 188.232 7.21 188.424 7.112C188.62 7.00933 188.825 6.93233 189.04 6.881C189.259 6.825 189.495 6.797 189.747 6.797C190.134 6.797 190.475 6.86233 190.769 6.993C191.067 7.119 191.315 7.301 191.511 7.539C191.711 7.77233 191.863 8.05467 191.966 8.386C192.068 8.71733 192.12 9.08367 192.12 9.485V14H190.867V9.485C190.867 8.94833 190.743 8.533 190.496 8.239C190.253 7.94033 189.882 7.791 189.383 7.791C189.014 7.791 188.669 7.87967 188.347 8.057C188.029 8.23433 187.735 8.47467 187.465 8.778V14H186.212V6.909H186.961C187.138 6.909 187.248 6.99533 187.29 7.168L187.388 7.938ZM201.443 10.808C200.869 10.8267 200.379 10.8733 199.973 10.948C199.572 11.018 199.243 11.1113 198.986 11.228C198.734 11.3447 198.55 11.4823 198.433 11.641C198.321 11.7997 198.265 11.977 198.265 12.173C198.265 12.3597 198.296 12.5207 198.356 12.656C198.417 12.7913 198.499 12.9033 198.601 12.992C198.709 13.076 198.832 13.139 198.972 13.181C199.117 13.2183 199.271 13.237 199.434 13.237C199.654 13.237 199.854 13.216 200.036 13.174C200.218 13.1273 200.389 13.062 200.547 12.978C200.711 12.894 200.865 12.7937 201.009 12.677C201.159 12.5603 201.303 12.4273 201.443 12.278V10.808ZM197.418 7.91C197.81 7.532 198.233 7.24967 198.685 7.063C199.138 6.87633 199.64 6.783 200.19 6.783C200.587 6.783 200.939 6.84833 201.247 6.979C201.555 7.10967 201.814 7.29167 202.024 7.525C202.234 7.75833 202.393 8.04067 202.5 8.372C202.608 8.70333 202.661 9.06733 202.661 9.464V14H202.108C201.987 14 201.894 13.9813 201.828 13.944C201.763 13.902 201.712 13.8227 201.674 13.706L201.534 13.034C201.348 13.2067 201.166 13.3607 200.988 13.496C200.811 13.6267 200.624 13.7387 200.428 13.832C200.232 13.9207 200.022 13.9883 199.798 14.035C199.579 14.0863 199.334 14.112 199.063 14.112C198.788 14.112 198.529 14.0747 198.286 14C198.044 13.9207 197.831 13.804 197.649 13.65C197.472 13.496 197.33 13.3023 197.222 13.069C197.12 12.831 197.068 12.551 197.068 12.229C197.068 11.949 197.145 11.6807 197.299 11.424C197.453 11.1627 197.703 10.9317 198.048 10.731C198.394 10.5303 198.844 10.367 199.399 10.241C199.955 10.1103 200.636 10.0357 201.443 10.017V9.464C201.443 8.91333 201.324 8.498 201.086 8.218C200.848 7.93333 200.501 7.791 200.043 7.791C199.735 7.791 199.476 7.83067 199.266 7.91C199.061 7.98467 198.881 8.071 198.727 8.169C198.578 8.26233 198.447 8.34867 198.335 8.428C198.228 8.50267 198.121 8.54 198.013 8.54C197.929 8.54 197.857 8.519 197.796 8.477C197.736 8.43033 197.684 8.37433 197.642 8.309L197.418 7.91ZM209.494 8.169C209.457 8.22033 209.42 8.26 209.382 8.288C209.345 8.316 209.294 8.33 209.228 8.33C209.158 8.33 209.081 8.302 208.997 8.246C208.913 8.18533 208.808 8.12 208.682 8.05C208.561 7.98 208.409 7.917 208.227 7.861C208.05 7.80033 207.831 7.77 207.569 7.77C207.219 7.77 206.911 7.833 206.645 7.959C206.379 8.08033 206.155 8.25767 205.973 8.491C205.796 8.72433 205.661 9.00667 205.567 9.338C205.479 9.66933 205.434 10.0403 205.434 10.451C205.434 10.8803 205.483 11.263 205.581 11.599C205.679 11.9303 205.817 12.2103 205.994 12.439C206.176 12.663 206.393 12.8357 206.645 12.957C206.902 13.0737 207.189 13.132 207.506 13.132C207.81 13.132 208.059 13.097 208.255 13.027C208.451 12.9523 208.612 12.8707 208.738 12.782C208.869 12.6933 208.976 12.614 209.06 12.544C209.149 12.4693 209.235 12.432 209.319 12.432C209.422 12.432 209.501 12.4717 209.557 12.551L209.907 13.006C209.753 13.1973 209.578 13.3607 209.382 13.496C209.186 13.6313 208.974 13.7457 208.745 13.839C208.521 13.9277 208.286 13.993 208.038 14.035C207.791 14.077 207.539 14.098 207.282 14.098C206.839 14.098 206.426 14.0163 206.043 13.853C205.665 13.6897 205.336 13.454 205.056 13.146C204.776 12.8333 204.557 12.4507 204.398 11.998C204.24 11.5453 204.16 11.0297 204.16 10.451C204.16 9.92367 204.233 9.436 204.377 8.988C204.527 8.54 204.741 8.155 205.021 7.833C205.306 7.50633 205.654 7.252 206.064 7.07C206.48 6.888 206.956 6.797 207.492 6.797C207.992 6.797 208.43 6.87867 208.808 7.042C209.191 7.20067 209.529 7.427 209.823 7.721L209.494 8.169ZM217.825 14H216.579V7.952H212.925V12.208C212.925 12.5067 212.997 12.7283 213.142 12.873C213.286 13.0177 213.473 13.09 213.702 13.09C213.832 13.09 213.944 13.0737 214.038 13.041C214.136 13.0037 214.22 12.964 214.29 12.922C214.36 12.88 214.418 12.8427 214.465 12.81C214.516 12.7727 214.56 12.754 214.598 12.754C214.663 12.754 214.721 12.7937 214.773 12.873L215.137 13.468C214.922 13.6687 214.663 13.8273 214.36 13.944C214.056 14.056 213.744 14.112 213.422 14.112C212.862 14.112 212.43 13.9557 212.127 13.643C211.828 13.3303 211.679 12.88 211.679 12.292V7.952H210.825C210.75 7.952 210.687 7.931 210.636 7.889C210.584 7.84233 210.559 7.77233 210.559 7.679V7.182L211.721 7.028L212.008 4.844C212.022 4.774 212.052 4.718 212.099 4.676C212.15 4.62933 212.215 4.606 212.295 4.606H212.925V7.049H217.825V14ZM218.133 4.634C218.133 4.75533 218.107 4.86967 218.056 4.977C218.009 5.07967 217.944 5.17067 217.86 5.25C217.78 5.32933 217.687 5.39233 217.58 5.439C217.472 5.48567 217.358 5.509 217.237 5.509C217.115 5.509 217.001 5.48567 216.894 5.439C216.791 5.39233 216.7 5.32933 216.621 5.25C216.541 5.17067 216.478 5.07967 216.432 4.977C216.385 4.86967 216.362 4.75533 216.362 4.634C216.362 4.51267 216.385 4.39833 216.432 4.291C216.478 4.179 216.541 4.08333 216.621 4.004C216.7 3.92 216.791 3.85467 216.894 3.808C217.001 3.76133 217.115 3.738 217.237 3.738C217.358 3.738 217.472 3.76133 217.58 3.808C217.687 3.85467 217.78 3.92 217.86 4.004C217.944 4.08333 218.009 4.179 218.056 4.291C218.107 4.39833 218.133 4.51267 218.133 4.634ZM225.948 6.909L223.057 14H221.937L219.046 6.909H220.061C220.163 6.909 220.247 6.93467 220.313 6.986C220.378 7.03733 220.422 7.098 220.446 7.168L222.245 11.732C222.301 11.9047 222.35 12.0727 222.392 12.236C222.434 12.3993 222.473 12.5627 222.511 12.726C222.548 12.5627 222.588 12.3993 222.63 12.236C222.672 12.0727 222.723 11.9047 222.784 11.732L224.604 7.168C224.632 7.09333 224.678 7.03267 224.744 6.986C224.809 6.93467 224.886 6.909 224.975 6.909H225.948ZM228.407 6.909V14H227.161V6.909H228.407ZM228.673 4.683C228.673 4.80433 228.647 4.91867 228.596 5.026C228.549 5.12867 228.484 5.222 228.4 5.306C228.32 5.38533 228.225 5.44833 228.113 5.495C228.005 5.54167 227.891 5.565 227.77 5.565C227.648 5.565 227.534 5.54167 227.427 5.495C227.324 5.44833 227.233 5.38533 227.154 5.306C227.074 5.222 227.011 5.12867 226.965 5.026C226.918 4.91867 226.895 4.80433 226.895 4.683C226.895 4.56167 226.918 4.44733 226.965 4.34C227.011 4.228 227.074 4.13233 227.154 4.053C227.233 3.969 227.324 3.90367 227.427 3.857C227.534 3.81033 227.648 3.787 227.77 3.787C227.891 3.787 228.005 3.81033 228.113 3.857C228.225 3.90367 228.32 3.969 228.4 4.053C228.484 4.13233 228.549 4.228 228.596 4.34C228.647 4.44733 228.673 4.56167 228.673 4.683ZM232.631 14.112C232.071 14.112 231.639 13.9557 231.336 13.643C231.037 13.3303 230.888 12.88 230.888 12.292V7.952H230.034C229.959 7.952 229.896 7.931 229.845 7.889C229.793 7.84233 229.768 7.77233 229.768 7.679V7.182L230.93 7.035L231.217 4.844C231.231 4.774 231.261 4.718 231.308 4.676C231.359 4.62933 231.424 4.606 231.504 4.606H232.134V7.049H234.185V7.952H232.134V12.208C232.134 12.5067 232.206 12.7283 232.351 12.873C232.495 13.0177 232.682 13.09 232.911 13.09C233.041 13.09 233.153 13.0737 233.247 13.041C233.345 13.0037 233.429 12.964 233.499 12.922C233.569 12.88 233.627 12.8427 233.674 12.81C233.725 12.7727 233.769 12.754 233.807 12.754C233.872 12.754 233.93 12.7937 233.982 12.873L234.346 13.468C234.131 13.6687 233.872 13.8273 233.569 13.944C233.265 14.056 232.953 14.112 232.631 14.112ZM241.589 6.909L237.634 16.093C237.592 16.1863 237.539 16.261 237.473 16.317C237.413 16.373 237.317 16.401 237.186 16.401H236.262L237.557 13.587L234.631 6.909H235.709C235.817 6.909 235.901 6.937 235.961 6.993C236.027 7.04433 236.071 7.10267 236.094 7.168L237.991 11.634C238.066 11.83 238.129 12.0353 238.18 12.25C238.246 12.0307 238.316 11.823 238.39 11.627L240.231 7.168C240.259 7.09333 240.306 7.03267 240.371 6.986C240.441 6.93467 240.518 6.909 240.602 6.909H241.589ZM250.06 8.078C250.004 8.18067 249.918 8.232 249.801 8.232C249.731 8.232 249.652 8.20633 249.563 8.155C249.475 8.10367 249.365 8.04767 249.234 7.987C249.108 7.92167 248.957 7.86333 248.779 7.812C248.602 7.756 248.392 7.728 248.149 7.728C247.939 7.728 247.75 7.756 247.582 7.812C247.414 7.86333 247.27 7.93567 247.148 8.029C247.032 8.12233 246.941 8.232 246.875 8.358C246.815 8.47933 246.784 8.61233 246.784 8.757C246.784 8.939 246.836 9.09067 246.938 9.212C247.046 9.33333 247.186 9.43833 247.358 9.527C247.531 9.61567 247.727 9.695 247.946 9.765C248.166 9.83033 248.39 9.90267 248.618 9.982C248.852 10.0567 249.078 10.1407 249.297 10.234C249.517 10.3273 249.713 10.444 249.885 10.584C250.058 10.724 250.196 10.8967 250.298 11.102C250.406 11.3027 250.459 11.5453 250.459 11.83C250.459 12.1567 250.401 12.46 250.284 12.74C250.168 13.0153 249.995 13.2557 249.766 13.461C249.538 13.6617 249.258 13.8203 248.926 13.937C248.595 14.0537 248.212 14.112 247.778 14.112C247.284 14.112 246.836 14.0327 246.434 13.874C246.033 13.7107 245.692 13.503 245.412 13.251L245.706 12.775C245.744 12.7143 245.788 12.6677 245.839 12.635C245.891 12.6023 245.956 12.586 246.035 12.586C246.119 12.586 246.208 12.6187 246.301 12.684C246.395 12.7493 246.507 12.8217 246.637 12.901C246.773 12.9803 246.936 13.0527 247.127 13.118C247.319 13.1833 247.557 13.216 247.841 13.216C248.084 13.216 248.296 13.1857 248.478 13.125C248.66 13.0597 248.812 12.9733 248.933 12.866C249.055 12.7587 249.143 12.635 249.199 12.495C249.26 12.355 249.29 12.2057 249.29 12.047C249.29 11.851 249.237 11.69 249.129 11.564C249.027 11.4333 248.889 11.3237 248.716 11.235C248.544 11.1417 248.345 11.0623 248.121 10.997C247.902 10.927 247.676 10.8547 247.442 10.78C247.214 10.7053 246.987 10.6213 246.763 10.528C246.544 10.43 246.348 10.3087 246.175 10.164C246.003 10.0193 245.863 9.842 245.755 9.632C245.653 9.41733 245.601 9.15833 245.601 8.855C245.601 8.58433 245.657 8.32533 245.769 8.078C245.881 7.826 246.045 7.60667 246.259 7.42C246.474 7.22867 246.738 7.077 247.05 6.965C247.363 6.853 247.72 6.797 248.121 6.797C248.588 6.797 249.006 6.87167 249.374 7.021C249.748 7.16567 250.07 7.36633 250.34 7.623L250.06 8.078ZM256.733 9.681C256.733 9.39167 256.691 9.128 256.607 8.89C256.528 8.64733 256.409 8.43967 256.25 8.267C256.096 8.08967 255.907 7.95433 255.683 7.861C255.459 7.763 255.205 7.714 254.92 7.714C254.323 7.714 253.849 7.889 253.499 8.239C253.154 8.58433 252.939 9.065 252.855 9.681H256.733ZM257.741 13.006C257.587 13.1927 257.403 13.356 257.188 13.496C256.973 13.6313 256.742 13.7433 256.495 13.832C256.252 13.9207 256 13.986 255.739 14.028C255.478 14.0747 255.219 14.098 254.962 14.098C254.472 14.098 254.019 14.0163 253.604 13.853C253.193 13.685 252.836 13.4423 252.533 13.125C252.234 12.803 252.001 12.4063 251.833 11.935C251.665 11.4637 251.581 10.9223 251.581 10.311C251.581 9.81633 251.656 9.35433 251.805 8.925C251.959 8.49567 252.178 8.12467 252.463 7.812C252.748 7.49467 253.095 7.24733 253.506 7.07C253.917 6.888 254.379 6.797 254.892 6.797C255.317 6.797 255.709 6.86933 256.068 7.014C256.432 7.154 256.745 7.35933 257.006 7.63C257.272 7.896 257.48 8.22733 257.629 8.624C257.778 9.016 257.853 9.464 257.853 9.968C257.853 10.164 257.832 10.2947 257.79 10.36C257.748 10.4253 257.669 10.458 257.552 10.458H252.813C252.827 10.906 252.888 11.2957 252.995 11.627C253.107 11.9583 253.261 12.236 253.457 12.46C253.653 12.6793 253.886 12.845 254.157 12.957C254.428 13.0643 254.731 13.118 255.067 13.118C255.38 13.118 255.648 13.083 255.872 13.013C256.101 12.9383 256.297 12.859 256.46 12.775C256.623 12.691 256.759 12.614 256.866 12.544C256.978 12.4693 257.074 12.432 257.153 12.432C257.256 12.432 257.335 12.4717 257.391 12.551L257.741 13.006ZM264.003 8.589C263.779 8.29033 263.53 8.078 263.254 7.952C262.979 7.82133 262.673 7.756 262.337 7.756C261.679 7.756 261.173 7.99167 260.818 8.463C260.464 8.93433 260.286 9.60633 260.286 10.479C260.286 10.941 260.326 11.3377 260.405 11.669C260.485 11.9957 260.601 12.2663 260.755 12.481C260.909 12.691 261.098 12.845 261.322 12.943C261.546 13.041 261.801 13.09 262.085 13.09C262.496 13.09 262.853 12.9967 263.156 12.81C263.464 12.6233 263.747 12.3597 264.003 12.019V8.589ZM265.249 6.909V16.401H264.003V12.943C263.709 13.2883 263.371 13.5683 262.988 13.783C262.606 13.993 262.169 14.098 261.679 14.098C261.273 14.098 260.905 14.021 260.573 13.867C260.242 13.7083 259.96 13.4773 259.726 13.174C259.493 12.8707 259.313 12.4927 259.187 12.04C259.061 11.5873 258.998 11.067 258.998 10.479C258.998 9.95633 259.068 9.471 259.208 9.023C259.348 8.57033 259.549 8.17833 259.81 7.847C260.072 7.51567 260.391 7.25667 260.769 7.07C261.152 6.87867 261.581 6.783 262.057 6.783C262.519 6.783 262.911 6.86467 263.233 7.028C263.555 7.19133 263.84 7.42 264.087 7.714L264.171 7.168C264.218 6.99533 264.33 6.909 264.507 6.909H265.249ZM273.048 6.909V14H272.306C272.129 14 272.017 13.9137 271.97 13.741L271.872 12.978C271.564 13.3187 271.219 13.594 270.836 13.804C270.454 14.0093 270.015 14.112 269.52 14.112C269.133 14.112 268.79 14.049 268.491 13.923C268.197 13.7923 267.95 13.6103 267.749 13.377C267.549 13.1437 267.397 12.8613 267.294 12.53C267.196 12.1987 267.147 11.8323 267.147 11.431V6.909H268.393V11.431C268.393 11.9677 268.515 12.383 268.757 12.677C269.005 12.971 269.38 13.118 269.884 13.118C270.253 13.118 270.596 13.0317 270.913 12.859C271.235 12.6817 271.532 12.439 271.802 12.131V6.909H273.048ZM279.77 9.681C279.77 9.39167 279.728 9.128 279.644 8.89C279.565 8.64733 279.446 8.43967 279.287 8.267C279.133 8.08967 278.944 7.95433 278.72 7.861C278.496 7.763 278.242 7.714 277.957 7.714C277.36 7.714 276.886 7.889 276.536 8.239C276.191 8.58433 275.976 9.065 275.892 9.681H279.77ZM280.778 13.006C280.624 13.1927 280.44 13.356 280.225 13.496C280.01 13.6313 279.779 13.7433 279.532 13.832C279.289 13.9207 279.037 13.986 278.776 14.028C278.515 14.0747 278.256 14.098 277.999 14.098C277.509 14.098 277.056 14.0163 276.641 13.853C276.23 13.685 275.873 13.4423 275.57 13.125C275.271 12.803 275.038 12.4063 274.87 11.935C274.702 11.4637 274.618 10.9223 274.618 10.311C274.618 9.81633 274.693 9.35433 274.842 8.925C274.996 8.49567 275.215 8.12467 275.5 7.812C275.785 7.49467 276.132 7.24733 276.543 7.07C276.954 6.888 277.416 6.797 277.929 6.797C278.354 6.797 278.746 6.86933 279.105 7.014C279.469 7.154 279.782 7.35933 280.043 7.63C280.309 7.896 280.517 8.22733 280.666 8.624C280.815 9.016 280.89 9.464 280.89 9.968C280.89 10.164 280.869 10.2947 280.827 10.36C280.785 10.4253 280.706 10.458 280.589 10.458H275.85C275.864 10.906 275.925 11.2957 276.032 11.627C276.144 11.9583 276.298 12.236 276.494 12.46C276.69 12.6793 276.923 12.845 277.194 12.957C277.465 13.0643 277.768 13.118 278.104 13.118C278.417 13.118 278.685 13.083 278.909 13.013C279.138 12.9383 279.334 12.859 279.497 12.775C279.66 12.691 279.796 12.614 279.903 12.544C280.015 12.4693 280.111 12.432 280.19 12.432C280.293 12.432 280.372 12.4717 280.428 12.551L280.778 13.006ZM283.597 7.938C283.751 7.76533 283.914 7.609 284.087 7.469C284.259 7.329 284.441 7.21 284.633 7.112C284.829 7.00933 285.034 6.93233 285.249 6.881C285.468 6.825 285.704 6.797 285.956 6.797C286.343 6.797 286.684 6.86233 286.978 6.993C287.276 7.119 287.524 7.301 287.72 7.539C287.92 7.77233 288.072 8.05467 288.175 8.386C288.277 8.71733 288.329 9.08367 288.329 9.485V14H287.076V9.485C287.076 8.94833 286.952 8.533 286.705 8.239C286.462 7.94033 286.091 7.791 285.592 7.791C285.223 7.791 284.878 7.87967 284.556 8.057C284.238 8.23433 283.944 8.47467 283.674 8.778V14H282.421V6.909H283.17C283.347 6.909 283.457 6.99533 283.499 7.168L283.597 7.938ZM295.162 8.169C295.125 8.22033 295.088 8.26 295.05 8.288C295.013 8.316 294.962 8.33 294.896 8.33C294.826 8.33 294.749 8.302 294.665 8.246C294.581 8.18533 294.476 8.12 294.35 8.05C294.229 7.98 294.077 7.917 293.895 7.861C293.718 7.80033 293.499 7.77 293.237 7.77C292.887 7.77 292.579 7.833 292.313 7.959C292.047 8.08033 291.823 8.25767 291.641 8.491C291.464 8.72433 291.329 9.00667 291.235 9.338C291.147 9.66933 291.102 10.0403 291.102 10.451C291.102 10.8803 291.151 11.263 291.249 11.599C291.347 11.9303 291.485 12.2103 291.662 12.439C291.844 12.663 292.061 12.8357 292.313 12.957C292.57 13.0737 292.857 13.132 293.174 13.132C293.478 13.132 293.727 13.097 293.923 13.027C294.119 12.9523 294.28 12.8707 294.406 12.782C294.537 12.6933 294.644 12.614 294.728 12.544C294.817 12.4693 294.903 12.432 294.987 12.432C295.09 12.432 295.169 12.4717 295.225 12.551L295.575 13.006C295.421 13.1973 295.246 13.3607 295.05 13.496C294.854 13.6313 294.642 13.7457 294.413 13.839C294.189 13.9277 293.954 13.993 293.706 14.035C293.459 14.077 293.207 14.098 292.95 14.098C292.507 14.098 292.094 14.0163 291.711 13.853C291.333 13.6897 291.004 13.454 290.724 13.146C290.444 12.8333 290.225 12.4507 290.066 11.998C289.908 11.5453 289.828 11.0297 289.828 10.451C289.828 9.92367 289.901 9.436 290.045 8.988C290.195 8.54 290.409 8.155 290.689 7.833C290.974 7.50633 291.322 7.252 291.732 7.07C292.148 6.888 292.624 6.797 293.16 6.797C293.66 6.797 294.098 6.87867 294.476 7.042C294.859 7.20067 295.197 7.427 295.491 7.721L295.162 8.169ZM301.536 9.681C301.536 9.39167 301.494 9.128 301.41 8.89C301.33 8.64733 301.211 8.43967 301.053 8.267C300.899 8.08967 300.71 7.95433 300.486 7.861C300.262 7.763 300.007 7.714 299.723 7.714C299.125 7.714 298.652 7.889 298.302 8.239C297.956 8.58433 297.742 9.065 297.658 9.681H301.536ZM302.544 13.006C302.39 13.1927 302.205 13.356 301.991 13.496C301.776 13.6313 301.545 13.7433 301.298 13.832C301.055 13.9207 300.803 13.986 300.542 14.028C300.28 14.0747 300.021 14.098 299.765 14.098C299.275 14.098 298.822 14.0163 298.407 13.853C297.996 13.685 297.639 13.4423 297.336 13.125C297.037 12.803 296.804 12.4063 296.636 11.935C296.468 11.4637 296.384 10.9223 296.384 10.311C296.384 9.81633 296.458 9.35433 296.608 8.925C296.762 8.49567 296.981 8.12467 297.266 7.812C297.55 7.49467 297.898 7.24733 298.309 7.07C298.719 6.888 299.181 6.797 299.695 6.797C300.119 6.797 300.511 6.86933 300.871 7.014C301.235 7.154 301.547 7.35933 301.809 7.63C302.075 7.896 302.282 8.22733 302.432 8.624C302.581 9.016 302.656 9.464 302.656 9.968C302.656 10.164 302.635 10.2947 302.593 10.36C302.551 10.4253 302.471 10.458 302.355 10.458H297.616C297.63 10.906 297.69 11.2957 297.798 11.627C297.91 11.9583 298.064 12.236 298.26 12.46C298.456 12.6793 298.689 12.845 298.96 12.957C299.23 13.0643 299.534 13.118 299.87 13.118C300.182 13.118 300.451 13.083 300.675 13.013C300.903 12.9383 301.099 12.859 301.263 12.775C301.426 12.691 301.561 12.614 301.669 12.544C301.781 12.4693 301.876 12.432 301.956 12.432C302.058 12.432 302.138 12.4717 302.194 12.551L302.544 13.006ZM309.945 14.112C309.385 14.112 308.954 13.9557 308.65 13.643C308.352 13.3303 308.202 12.88 308.202 12.292V7.952H307.348C307.274 7.952 307.211 7.931 307.159 7.889C307.108 7.84233 307.082 7.77233 307.082 7.679V7.182L308.244 7.035L308.531 4.844C308.545 4.774 308.576 4.718 308.622 4.676C308.674 4.62933 308.739 4.606 308.818 4.606H309.448V7.049H311.499V7.952H309.448V12.208C309.448 12.5067 309.521 12.7283 309.665 12.873C309.81 13.0177 309.997 13.09 310.225 13.09C310.356 13.09 310.468 13.0737 310.561 13.041C310.659 13.0037 310.743 12.964 310.813 12.922C310.883 12.88 310.942 12.8427 310.988 12.81C311.04 12.7727 311.084 12.754 311.121 12.754C311.187 12.754 311.245 12.7937 311.296 12.873L311.66 13.468C311.446 13.6687 311.187 13.8273 310.883 13.944C310.58 14.056 310.267 14.112 309.945 14.112ZM317.491 9.681C317.491 9.39167 317.449 9.128 317.365 8.89C317.285 8.64733 317.166 8.43967 317.008 8.267C316.854 8.08967 316.665 7.95433 316.441 7.861C316.217 7.763 315.962 7.714 315.678 7.714C315.08 7.714 314.607 7.889 314.257 8.239C313.911 8.58433 313.697 9.065 313.613 9.681H317.491ZM318.499 13.006C318.345 13.1927 318.16 13.356 317.946 13.496C317.731 13.6313 317.5 13.7433 317.253 13.832C317.01 13.9207 316.758 13.986 316.497 14.028C316.235 14.0747 315.976 14.098 315.72 14.098C315.23 14.098 314.777 14.0163 314.362 13.853C313.951 13.685 313.594 13.4423 313.291 13.125C312.992 12.803 312.759 12.4063 312.591 11.935C312.423 11.4637 312.339 10.9223 312.339 10.311C312.339 9.81633 312.413 9.35433 312.563 8.925C312.717 8.49567 312.936 8.12467 313.221 7.812C313.505 7.49467 313.853 7.24733 314.264 7.07C314.674 6.888 315.136 6.797 315.65 6.797C316.074 6.797 316.466 6.86933 316.826 7.014C317.19 7.154 317.502 7.35933 317.764 7.63C318.03 7.896 318.237 8.22733 318.387 8.624C318.536 9.016 318.611 9.464 318.611 9.968C318.611 10.164 318.59 10.2947 318.548 10.36C318.506 10.4253 318.426 10.458 318.31 10.458H313.571C313.585 10.906 313.645 11.2957 313.753 11.627C313.865 11.9583 314.019 12.236 314.215 12.46C314.411 12.6793 314.644 12.845 314.915 12.957C315.185 13.0643 315.489 13.118 315.825 13.118C316.137 13.118 316.406 13.083 316.63 13.013C316.858 12.9383 317.054 12.859 317.218 12.775C317.381 12.691 317.516 12.614 317.624 12.544C317.736 12.4693 317.831 12.432 317.911 12.432C318.013 12.432 318.093 12.4717 318.149 12.551L318.499 13.006ZM320.141 14V6.909H320.89C321.068 6.909 321.177 6.99533 321.219 7.168L321.31 7.896C321.572 7.574 321.866 7.31033 322.192 7.105C322.519 6.89967 322.897 6.797 323.326 6.797C323.802 6.797 324.187 6.93 324.481 7.196C324.78 7.462 324.995 7.82133 325.125 8.274C325.228 8.01733 325.359 7.79567 325.517 7.609C325.681 7.42233 325.863 7.26833 326.063 7.147C326.264 7.02567 326.476 6.937 326.7 6.881C326.929 6.825 327.16 6.797 327.393 6.797C327.767 6.797 328.098 6.85767 328.387 6.979C328.681 7.09567 328.929 7.26833 329.129 7.497C329.335 7.72567 329.491 8.008 329.598 8.344C329.706 8.67533 329.759 9.05567 329.759 9.485V14H328.506V9.485C328.506 8.92967 328.385 8.50967 328.142 8.225C327.9 7.93567 327.55 7.791 327.092 7.791C326.887 7.791 326.691 7.82833 326.504 7.903C326.322 7.973 326.161 8.078 326.021 8.218C325.881 8.358 325.769 8.53533 325.685 8.75C325.606 8.96 325.566 9.205 325.566 9.485V14H324.313V9.485C324.313 8.91567 324.199 8.491 323.97 8.211C323.742 7.931 323.408 7.791 322.969 7.791C322.661 7.791 322.377 7.875 322.115 8.043C321.854 8.20633 321.614 8.43033 321.394 8.715V14H320.141ZM332.906 12.292C333.135 12.6 333.384 12.817 333.655 12.943C333.926 13.069 334.229 13.132 334.565 13.132C335.228 13.132 335.736 12.8963 336.091 12.425C336.446 11.9537 336.623 11.2817 336.623 10.409C336.623 9.947 336.581 9.55033 336.497 9.219C336.418 8.88767 336.301 8.617 336.147 8.407C335.993 8.19233 335.804 8.036 335.58 7.938C335.356 7.84 335.102 7.791 334.817 7.791C334.411 7.791 334.054 7.88433 333.746 8.071C333.443 8.25767 333.163 8.52133 332.906 8.862V12.292ZM332.843 8.008C333.142 7.63933 333.487 7.343 333.879 7.119C334.271 6.895 334.719 6.783 335.223 6.783C335.634 6.783 336.005 6.86233 336.336 7.021C336.667 7.175 336.95 7.406 337.183 7.714C337.416 8.01733 337.596 8.39533 337.722 8.848C337.848 9.30067 337.911 9.821 337.911 10.409C337.911 10.9317 337.841 11.4193 337.701 11.872C337.561 12.32 337.358 12.7097 337.092 13.041C336.831 13.3677 336.509 13.6267 336.126 13.818C335.748 14.0047 335.321 14.098 334.845 14.098C334.411 14.098 334.038 14.0257 333.725 13.881C333.417 13.7317 333.144 13.5263 332.906 13.265V16.401H331.653V6.909H332.402C332.579 6.909 332.689 6.99533 332.731 7.168L332.843 8.008ZM340.789 3.689V14H339.543V3.689H340.789ZM346.652 10.808C346.078 10.8267 345.588 10.8733 345.182 10.948C344.781 11.018 344.452 11.1113 344.195 11.228C343.943 11.3447 343.759 11.4823 343.642 11.641C343.53 11.7997 343.474 11.977 343.474 12.173C343.474 12.3597 343.505 12.5207 343.565 12.656C343.626 12.7913 343.708 12.9033 343.81 12.992C343.918 13.076 344.041 13.139 344.181 13.181C344.326 13.2183 344.48 13.237 344.643 13.237C344.863 13.237 345.063 13.216 345.245 13.174C345.427 13.1273 345.598 13.062 345.756 12.978C345.92 12.894 346.074 12.7937 346.218 12.677C346.368 12.5603 346.512 12.4273 346.652 12.278V10.808ZM342.627 7.91C343.019 7.532 343.442 7.24967 343.894 7.063C344.347 6.87633 344.849 6.783 345.399 6.783C345.796 6.783 346.148 6.84833 346.456 6.979C346.764 7.10967 347.023 7.29167 347.233 7.525C347.443 7.75833 347.602 8.04067 347.709 8.372C347.817 8.70333 347.87 9.06733 347.87 9.464V14H347.317C347.196 14 347.103 13.9813 347.037 13.944C346.972 13.902 346.921 13.8227 346.883 13.706L346.743 13.034C346.557 13.2067 346.375 13.3607 346.197 13.496C346.02 13.6267 345.833 13.7387 345.637 13.832C345.441 13.9207 345.231 13.9883 345.007 14.035C344.788 14.0863 344.543 14.112 344.272 14.112C343.997 14.112 343.738 14.0747 343.495 14C343.253 13.9207 343.04 13.804 342.858 13.65C342.681 13.496 342.539 13.3023 342.431 13.069C342.329 12.831 342.277 12.551 342.277 12.229C342.277 11.949 342.354 11.6807 342.508 11.424C342.662 11.1627 342.912 10.9317 343.257 10.731C343.603 10.5303 344.053 10.367 344.608 10.241C345.164 10.1103 345.845 10.0357 346.652 10.017V9.464C346.652 8.91333 346.533 8.498 346.295 8.218C346.057 7.93333 345.71 7.791 345.252 7.791C344.944 7.791 344.685 7.83067 344.475 7.91C344.27 7.98467 344.09 8.071 343.936 8.169C343.787 8.26233 343.656 8.34867 343.544 8.428C343.437 8.50267 343.33 8.54 343.222 8.54C343.138 8.54 343.066 8.519 343.005 8.477C342.945 8.43033 342.893 8.37433 342.851 8.309L342.627 7.91ZM351.85 14.112C351.29 14.112 350.858 13.9557 350.555 13.643C350.256 13.3303 350.107 12.88 350.107 12.292V7.952H349.253C349.178 7.952 349.115 7.931 349.064 7.889C349.012 7.84233 348.987 7.77233 348.987 7.679V7.182L350.149 7.035L350.436 4.844C350.45 4.774 350.48 4.718 350.527 4.676C350.578 4.62933 350.643 4.606 350.723 4.606H351.353V7.049H353.404V7.952H351.353V12.208C351.353 12.5067 351.425 12.7283 351.57 12.873C351.714 13.0177 351.901 13.09 352.13 13.09C352.26 13.09 352.372 13.0737 352.466 13.041C352.564 13.0037 352.648 12.964 352.718 12.922C352.788 12.88 352.846 12.8427 352.893 12.81C352.944 12.7727 352.988 12.754 353.026 12.754C353.091 12.754 353.149 12.7937 353.201 12.873L353.565 13.468C353.35 13.6687 353.091 13.8273 352.788 13.944C352.484 14.056 352.172 14.112 351.85 14.112ZM359.395 9.681C359.395 9.39167 359.353 9.128 359.269 8.89C359.19 8.64733 359.071 8.43967 358.912 8.267C358.758 8.08967 358.569 7.95433 358.345 7.861C358.121 7.763 357.867 7.714 357.582 7.714C356.985 7.714 356.511 7.889 356.161 8.239C355.816 8.58433 355.601 9.065 355.517 9.681H359.395ZM360.403 13.006C360.249 13.1927 360.065 13.356 359.85 13.496C359.635 13.6313 359.404 13.7433 359.157 13.832C358.914 13.9207 358.662 13.986 358.401 14.028C358.14 14.0747 357.881 14.098 357.624 14.098C357.134 14.098 356.681 14.0163 356.266 13.853C355.855 13.685 355.498 13.4423 355.195 13.125C354.896 12.803 354.663 12.4063 354.495 11.935C354.327 11.4637 354.243 10.9223 354.243 10.311C354.243 9.81633 354.318 9.35433 354.467 8.925C354.621 8.49567 354.84 8.12467 355.125 7.812C355.41 7.49467 355.757 7.24733 356.168 7.07C356.579 6.888 357.041 6.797 357.554 6.797C357.979 6.797 358.371 6.86933 358.73 7.014C359.094 7.154 359.407 7.35933 359.668 7.63C359.934 7.896 360.142 8.22733 360.291 8.624C360.44 9.016 360.515 9.464 360.515 9.968C360.515 10.164 360.494 10.2947 360.452 10.36C360.41 10.4253 360.331 10.458 360.214 10.458H355.475C355.489 10.906 355.55 11.2957 355.657 11.627C355.769 11.9583 355.923 12.236 356.119 12.46C356.315 12.6793 356.548 12.845 356.819 12.957C357.09 13.0643 357.393 13.118 357.729 13.118C358.042 13.118 358.31 13.083 358.534 13.013C358.763 12.9383 358.959 12.859 359.122 12.775C359.285 12.691 359.421 12.614 359.528 12.544C359.64 12.4693 359.736 12.432 359.815 12.432C359.918 12.432 359.997 12.4717 360.053 12.551L360.403 13.006ZM367.805 14.112C367.245 14.112 366.813 13.9557 366.51 13.643C366.211 13.3303 366.062 12.88 366.062 12.292V7.952H365.208C365.133 7.952 365.07 7.931 365.019 7.889C364.967 7.84233 364.942 7.77233 364.942 7.679V7.182L366.104 7.035L366.391 4.844C366.405 4.774 366.435 4.718 366.482 4.676C366.533 4.62933 366.598 4.606 366.678 4.606H367.308V7.049H369.359V7.952H367.308V12.208C367.308 12.5067 367.38 12.7283 367.525 12.873C367.669 13.0177 367.856 13.09 368.085 13.09C368.215 13.09 368.327 13.0737 368.421 13.041C368.519 13.0037 368.603 12.964 368.673 12.922C368.743 12.88 368.801 12.8427 368.848 12.81C368.899 12.7727 368.943 12.754 368.981 12.754C369.046 12.754 369.104 12.7937 369.156 12.873L369.52 13.468C369.305 13.6687 369.046 13.8273 368.743 13.944C368.439 14.056 368.127 14.112 367.805 14.112ZM373.593 6.797C374.111 6.797 374.578 6.88333 374.993 7.056C375.409 7.22867 375.763 7.47367 376.057 7.791C376.351 8.10833 376.575 8.49333 376.729 8.946C376.888 9.394 376.967 9.89567 376.967 10.451C376.967 11.011 376.888 11.515 376.729 11.963C376.575 12.411 376.351 12.7937 376.057 13.111C375.763 13.4283 375.409 13.6733 374.993 13.846C374.578 14.014 374.111 14.098 373.593 14.098C373.071 14.098 372.599 14.014 372.179 13.846C371.764 13.6733 371.409 13.4283 371.115 13.111C370.821 12.7937 370.595 12.411 370.436 11.963C370.282 11.515 370.205 11.011 370.205 10.451C370.205 9.89567 370.282 9.394 370.436 8.946C370.595 8.49333 370.821 8.10833 371.115 7.791C371.409 7.47367 371.764 7.22867 372.179 7.056C372.599 6.88333 373.071 6.797 373.593 6.797ZM373.593 13.125C374.293 13.125 374.816 12.8917 375.161 12.425C375.507 11.9537 375.679 11.298 375.679 10.458C375.679 9.61333 375.507 8.95533 375.161 8.484C374.816 8.01267 374.293 7.777 373.593 7.777C373.239 7.777 372.928 7.83767 372.662 7.959C372.401 8.08033 372.182 8.25533 372.004 8.484C371.832 8.71267 371.701 8.995 371.612 9.331C371.528 9.66233 371.486 10.038 371.486 10.458C371.486 11.298 371.659 11.9537 372.004 12.425C372.354 12.8917 372.884 13.125 373.593 13.125ZM385.973 10.808C385.399 10.8267 384.909 10.8733 384.503 10.948C384.101 11.018 383.772 11.1113 383.516 11.228C383.264 11.3447 383.079 11.4823 382.963 11.641C382.851 11.7997 382.795 11.977 382.795 12.173C382.795 12.3597 382.825 12.5207 382.886 12.656C382.946 12.7913 383.028 12.9033 383.131 12.992C383.238 13.076 383.362 13.139 383.502 13.181C383.646 13.2183 383.8 13.237 383.964 13.237C384.183 13.237 384.384 13.216 384.566 13.174C384.748 13.1273 384.918 13.062 385.077 12.978C385.24 12.894 385.394 12.7937 385.539 12.677C385.688 12.5603 385.833 12.4273 385.973 12.278V10.808ZM381.948 7.91C382.34 7.532 382.762 7.24967 383.215 7.063C383.667 6.87633 384.169 6.783 384.72 6.783C385.116 6.783 385.469 6.84833 385.777 6.979C386.085 7.10967 386.344 7.29167 386.554 7.525C386.764 7.75833 386.922 8.04067 387.03 8.372C387.137 8.70333 387.191 9.06733 387.191 9.464V14H386.638C386.516 14 386.423 13.9813 386.358 13.944C386.292 13.902 386.241 13.8227 386.204 13.706L386.064 13.034C385.877 13.2067 385.695 13.3607 385.518 13.496C385.34 13.6267 385.154 13.7387 384.958 13.832C384.762 13.9207 384.552 13.9883 384.328 14.035C384.108 14.0863 383.863 14.112 383.593 14.112C383.317 14.112 383.058 14.0747 382.816 14C382.573 13.9207 382.361 13.804 382.179 13.65C382.001 13.496 381.859 13.3023 381.752 13.069C381.649 12.831 381.598 12.551 381.598 12.229C381.598 11.949 381.675 11.6807 381.829 11.424C381.983 11.1627 382.232 10.9317 382.578 10.731C382.923 10.5303 383.373 10.367 383.929 10.241C384.484 10.1103 385.165 10.0357 385.973 10.017V9.464C385.973 8.91333 385.854 8.498 385.616 8.218C385.378 7.93333 385.03 7.791 384.573 7.791C384.265 7.791 384.006 7.83067 383.796 7.91C383.59 7.98467 383.411 8.071 383.257 8.169C383.107 8.26233 382.977 8.34867 382.865 8.428C382.757 8.50267 382.65 8.54 382.543 8.54C382.459 8.54 382.386 8.519 382.326 8.477C382.265 8.43033 382.214 8.37433 382.172 8.309L381.948 7.91ZM393.219 8.078C393.163 8.18067 393.076 8.232 392.96 8.232C392.89 8.232 392.81 8.20633 392.722 8.155C392.633 8.10367 392.523 8.04767 392.393 7.987C392.267 7.92167 392.115 7.86333 391.938 7.812C391.76 7.756 391.55 7.728 391.308 7.728C391.098 7.728 390.909 7.756 390.741 7.812C390.573 7.86333 390.428 7.93567 390.307 8.029C390.19 8.12233 390.099 8.232 390.034 8.358C389.973 8.47933 389.943 8.61233 389.943 8.757C389.943 8.939 389.994 9.09067 390.097 9.212C390.204 9.33333 390.344 9.43833 390.517 9.527C390.689 9.61567 390.885 9.695 391.105 9.765C391.324 9.83033 391.548 9.90267 391.777 9.982C392.01 10.0567 392.236 10.1407 392.456 10.234C392.675 10.3273 392.871 10.444 393.044 10.584C393.216 10.724 393.354 10.8967 393.457 11.102C393.564 11.3027 393.618 11.5453 393.618 11.83C393.618 12.1567 393.559 12.46 393.443 12.74C393.326 13.0153 393.153 13.2557 392.925 13.461C392.696 13.6617 392.416 13.8203 392.085 13.937C391.753 14.0537 391.371 14.112 390.937 14.112C390.442 14.112 389.994 14.0327 389.593 13.874C389.191 13.7107 388.851 13.503 388.571 13.251L388.865 12.775C388.902 12.7143 388.946 12.6677 388.998 12.635C389.049 12.6023 389.114 12.586 389.194 12.586C389.278 12.586 389.366 12.6187 389.46 12.684C389.553 12.7493 389.665 12.8217 389.796 12.901C389.931 12.9803 390.094 13.0527 390.286 13.118C390.477 13.1833 390.715 13.216 391 13.216C391.242 13.216 391.455 13.1857 391.637 13.125C391.819 13.0597 391.97 12.9733 392.092 12.866C392.213 12.7587 392.302 12.635 392.358 12.495C392.418 12.355 392.449 12.2057 392.449 12.047C392.449 11.851 392.395 11.69 392.288 11.564C392.185 11.4333 392.047 11.3237 391.875 11.235C391.702 11.1417 391.504 11.0623 391.28 10.997C391.06 10.927 390.834 10.8547 390.601 10.78C390.372 10.7053 390.146 10.6213 389.922 10.528C389.702 10.43 389.506 10.3087 389.334 10.164C389.161 10.0193 389.021 9.842 388.914 9.632C388.811 9.41733 388.76 9.15833 388.76 8.855C388.76 8.58433 388.816 8.32533 388.928 8.078C389.04 7.826 389.203 7.60667 389.418 7.42C389.632 7.22867 389.896 7.077 390.209 6.965C390.521 6.853 390.878 6.797 391.28 6.797C391.746 6.797 392.164 6.87167 392.533 7.021C392.906 7.16567 393.228 7.36633 393.499 7.623L393.219 8.078ZM399.275 8.078C399.219 8.18067 399.133 8.232 399.016 8.232C398.946 8.232 398.867 8.20633 398.778 8.155C398.69 8.10367 398.58 8.04767 398.449 7.987C398.323 7.92167 398.172 7.86333 397.994 7.812C397.817 7.756 397.607 7.728 397.364 7.728C397.154 7.728 396.965 7.756 396.797 7.812C396.629 7.86333 396.485 7.93567 396.363 8.029C396.247 8.12233 396.156 8.232 396.09 8.358C396.03 8.47933 395.999 8.61233 395.999 8.757C395.999 8.939 396.051 9.09067 396.153 9.212C396.261 9.33333 396.401 9.43833 396.573 9.527C396.746 9.61567 396.942 9.695 397.161 9.765C397.381 9.83033 397.605 9.90267 397.833 9.982C398.067 10.0567 398.293 10.1407 398.512 10.234C398.732 10.3273 398.928 10.444 399.1 10.584C399.273 10.724 399.411 10.8967 399.513 11.102C399.621 11.3027 399.674 11.5453 399.674 11.83C399.674 12.1567 399.616 12.46 399.499 12.74C399.383 13.0153 399.21 13.2557 398.981 13.461C398.753 13.6617 398.473 13.8203 398.141 13.937C397.81 14.0537 397.427 14.112 396.993 14.112C396.499 14.112 396.051 14.0327 395.649 13.874C395.248 13.7107 394.907 13.503 394.627 13.251L394.921 12.775C394.959 12.7143 395.003 12.6677 395.054 12.635C395.106 12.6023 395.171 12.586 395.25 12.586C395.334 12.586 395.423 12.6187 395.516 12.684C395.61 12.7493 395.722 12.8217 395.852 12.901C395.988 12.9803 396.151 13.0527 396.342 13.118C396.534 13.1833 396.772 13.216 397.056 13.216C397.299 13.216 397.511 13.1857 397.693 13.125C397.875 13.0597 398.027 12.9733 398.148 12.866C398.27 12.7587 398.358 12.635 398.414 12.495C398.475 12.355 398.505 12.2057 398.505 12.047C398.505 11.851 398.452 11.69 398.344 11.564C398.242 11.4333 398.104 11.3237 397.931 11.235C397.759 11.1417 397.56 11.0623 397.336 10.997C397.117 10.927 396.891 10.8547 396.657 10.78C396.429 10.7053 396.202 10.6213 395.978 10.528C395.759 10.43 395.563 10.3087 395.39 10.164C395.218 10.0193 395.078 9.842 394.97 9.632C394.868 9.41733 394.816 9.15833 394.816 8.855C394.816 8.58433 394.872 8.32533 394.984 8.078C395.096 7.826 395.26 7.60667 395.474 7.42C395.689 7.22867 395.953 7.077 396.265 6.965C396.578 6.853 396.935 6.797 397.336 6.797C397.803 6.797 398.221 6.87167 398.589 7.021C398.963 7.16567 399.285 7.36633 399.555 7.623L399.275 8.078ZM402.518 6.909V14H401.272V6.909H402.518ZM402.784 4.683C402.784 4.80433 402.758 4.91867 402.707 5.026C402.66 5.12867 402.595 5.222 402.511 5.306C402.432 5.38533 402.336 5.44833 402.224 5.495C402.117 5.54167 402.002 5.565 401.881 5.565C401.76 5.565 401.645 5.54167 401.538 5.495C401.435 5.44833 401.344 5.38533 401.265 5.306C401.186 5.222 401.123 5.12867 401.076 5.026C401.029 4.91867 401.006 4.80433 401.006 4.683C401.006 4.56167 401.029 4.44733 401.076 4.34C401.123 4.228 401.186 4.13233 401.265 4.053C401.344 3.969 401.435 3.90367 401.538 3.857C401.645 3.81033 401.76 3.787 401.881 3.787C402.002 3.787 402.117 3.81033 402.224 3.857C402.336 3.90367 402.432 3.969 402.511 4.053C402.595 4.13233 402.66 4.228 402.707 4.34C402.758 4.44733 402.784 4.56167 402.784 4.683ZM407.036 10.535C407.288 10.535 407.51 10.5 407.701 10.43C407.892 10.36 408.053 10.262 408.184 10.136C408.315 10.01 408.413 9.86067 408.478 9.688C408.543 9.51067 408.576 9.317 408.576 9.107C408.576 8.673 408.443 8.32767 408.177 8.071C407.916 7.81433 407.535 7.686 407.036 7.686C406.532 7.686 406.147 7.81433 405.881 8.071C405.62 8.32767 405.489 8.673 405.489 9.107C405.489 9.317 405.522 9.51067 405.587 9.688C405.657 9.86067 405.757 10.01 405.888 10.136C406.019 10.262 406.18 10.36 406.371 10.43C406.562 10.5 406.784 10.535 407.036 10.535ZM409.283 14.385C409.283 14.2123 409.234 14.0723 409.136 13.965C409.038 13.8577 408.905 13.7737 408.737 13.713C408.574 13.6523 408.382 13.6103 408.163 13.587C407.944 13.559 407.71 13.538 407.463 13.524C407.22 13.51 406.973 13.496 406.721 13.482C406.469 13.468 406.226 13.4447 405.993 13.412C405.732 13.5333 405.517 13.6873 405.349 13.874C405.186 14.056 405.104 14.2707 405.104 14.518C405.104 14.6767 405.144 14.8237 405.223 14.959C405.307 15.099 405.433 15.218 405.601 15.316C405.769 15.4187 405.979 15.498 406.231 15.554C406.488 15.6147 406.789 15.645 407.134 15.645C407.47 15.645 407.771 15.6147 408.037 15.554C408.303 15.4933 408.527 15.407 408.709 15.295C408.896 15.183 409.038 15.05 409.136 14.896C409.234 14.742 409.283 14.5717 409.283 14.385ZM410.55 7.189V7.651C410.55 7.805 410.452 7.903 410.256 7.945L409.451 8.05C409.61 8.358 409.689 8.69867 409.689 9.072C409.689 9.41733 409.621 9.73233 409.486 10.017C409.355 10.297 409.173 10.5373 408.94 10.738C408.707 10.9387 408.427 11.0927 408.1 11.2C407.773 11.3073 407.419 11.361 407.036 11.361C406.705 11.361 406.392 11.3213 406.098 11.242C405.949 11.3353 405.834 11.4357 405.755 11.543C405.676 11.6457 405.636 11.7507 405.636 11.858C405.636 12.026 405.704 12.1543 405.839 12.243C405.979 12.327 406.161 12.3877 406.385 12.425C406.609 12.4623 406.863 12.4857 407.148 12.495C407.437 12.5043 407.731 12.5207 408.03 12.544C408.333 12.5627 408.627 12.5977 408.912 12.649C409.201 12.7003 409.458 12.7843 409.682 12.901C409.906 13.0177 410.086 13.1787 410.221 13.384C410.361 13.5893 410.431 13.8553 410.431 14.182C410.431 14.4853 410.354 14.7793 410.2 15.064C410.051 15.3487 409.834 15.6007 409.549 15.82C409.264 16.044 408.914 16.2213 408.499 16.352C408.088 16.4873 407.624 16.555 407.106 16.555C406.588 16.555 406.135 16.5037 405.748 16.401C405.361 16.2983 405.039 16.1607 404.782 15.988C404.525 15.8153 404.332 15.6147 404.201 15.386C404.075 15.162 404.012 14.9263 404.012 14.679C404.012 14.329 404.122 14.0327 404.341 13.79C404.56 13.5473 404.861 13.3537 405.244 13.209C405.034 13.1157 404.866 12.992 404.74 12.838C404.619 12.6793 404.558 12.467 404.558 12.201C404.558 12.0983 404.577 11.9933 404.614 11.886C404.651 11.774 404.707 11.6643 404.782 11.557C404.861 11.445 404.957 11.34 405.069 11.242C405.181 11.144 405.312 11.0577 405.461 10.983C405.111 10.787 404.838 10.528 404.642 10.206C404.446 9.87933 404.348 9.50133 404.348 9.072C404.348 8.72667 404.413 8.414 404.544 8.134C404.679 7.84933 404.866 7.609 405.104 7.413C405.342 7.21233 405.624 7.05833 405.951 6.951C406.282 6.84367 406.644 6.79 407.036 6.79C407.344 6.79 407.631 6.825 407.897 6.895C408.163 6.96033 408.406 7.05833 408.625 7.189H410.55ZM413.015 7.938C413.169 7.76533 413.332 7.609 413.505 7.469C413.677 7.329 413.859 7.21 414.051 7.112C414.247 7.00933 414.452 6.93233 414.667 6.881C414.886 6.825 415.122 6.797 415.374 6.797C415.761 6.797 416.102 6.86233 416.396 6.993C416.694 7.119 416.942 7.301 417.138 7.539C417.338 7.77233 417.49 8.05467 417.593 8.386C417.695 8.71733 417.747 9.08367 417.747 9.485V14H416.494V9.485C416.494 8.94833 416.37 8.533 416.123 8.239C415.88 7.94033 415.509 7.791 415.01 7.791C414.641 7.791 414.296 7.87967 413.974 8.057C413.656 8.23433 413.362 8.47467 413.092 8.778V14H411.839V6.909H412.588C412.765 6.909 412.875 6.99533 412.917 7.168L413.015 7.938ZM423.227 14V6.909H423.976C424.154 6.909 424.263 6.99533 424.305 7.168L424.396 7.896C424.658 7.574 424.952 7.31033 425.278 7.105C425.605 6.89967 425.983 6.797 426.412 6.797C426.888 6.797 427.273 6.93 427.567 7.196C427.866 7.462 428.081 7.82133 428.211 8.274C428.314 8.01733 428.445 7.79567 428.603 7.609C428.767 7.42233 428.949 7.26833 429.149 7.147C429.35 7.02567 429.562 6.937 429.786 6.881C430.015 6.825 430.246 6.797 430.479 6.797C430.853 6.797 431.184 6.85767 431.473 6.979C431.767 7.09567 432.015 7.26833 432.215 7.497C432.421 7.72567 432.577 8.008 432.684 8.344C432.792 8.67533 432.845 9.05567 432.845 9.485V14H431.592V9.485C431.592 8.92967 431.471 8.50967 431.228 8.225C430.986 7.93567 430.636 7.791 430.178 7.791C429.973 7.791 429.777 7.82833 429.59 7.903C429.408 7.973 429.247 8.078 429.107 8.218C428.967 8.358 428.855 8.53533 428.771 8.75C428.692 8.96 428.652 9.205 428.652 9.485V14H427.399V9.485C427.399 8.91567 427.285 8.491 427.056 8.211C426.828 7.931 426.494 7.791 426.055 7.791C425.747 7.791 425.463 7.875 425.201 8.043C424.94 8.20633 424.7 8.43033 424.48 8.715V14H423.227ZM439.485 9.681C439.485 9.39167 439.443 9.128 439.359 8.89C439.28 8.64733 439.161 8.43967 439.002 8.267C438.848 8.08967 438.659 7.95433 438.435 7.861C438.211 7.763 437.957 7.714 437.672 7.714C437.075 7.714 436.601 7.889 436.251 8.239C435.906 8.58433 435.691 9.065 435.607 9.681H439.485ZM440.493 13.006C440.339 13.1927 440.155 13.356 439.94 13.496C439.725 13.6313 439.494 13.7433 439.247 13.832C439.004 13.9207 438.752 13.986 438.491 14.028C438.23 14.0747 437.971 14.098 437.714 14.098C437.224 14.098 436.771 14.0163 436.356 13.853C435.945 13.685 435.588 13.4423 435.285 13.125C434.986 12.803 434.753 12.4063 434.585 11.935C434.417 11.4637 434.333 10.9223 434.333 10.311C434.333 9.81633 434.408 9.35433 434.557 8.925C434.711 8.49567 434.93 8.12467 435.215 7.812C435.5 7.49467 435.847 7.24733 436.258 7.07C436.669 6.888 437.131 6.797 437.644 6.797C438.069 6.797 438.461 6.86933 438.82 7.014C439.184 7.154 439.497 7.35933 439.758 7.63C440.024 7.896 440.232 8.22733 440.381 8.624C440.53 9.016 440.605 9.464 440.605 9.968C440.605 10.164 440.584 10.2947 440.542 10.36C440.5 10.4253 440.421 10.458 440.304 10.458H435.565C435.579 10.906 435.64 11.2957 435.747 11.627C435.859 11.9583 436.013 12.236 436.209 12.46C436.405 12.6793 436.638 12.845 436.909 12.957C437.18 13.0643 437.483 13.118 437.819 13.118C438.132 13.118 438.4 13.083 438.624 13.013C438.853 12.9383 439.049 12.859 439.212 12.775C439.375 12.691 439.511 12.614 439.618 12.544C439.73 12.4693 439.826 12.432 439.905 12.432C440.008 12.432 440.087 12.4717 440.143 12.551L440.493 13.006ZM445.978 10.808C445.404 10.8267 444.914 10.8733 444.508 10.948C444.107 11.018 443.778 11.1113 443.521 11.228C443.269 11.3447 443.085 11.4823 442.968 11.641C442.856 11.7997 442.8 11.977 442.8 12.173C442.8 12.3597 442.831 12.5207 442.891 12.656C442.952 12.7913 443.034 12.9033 443.136 12.992C443.244 13.076 443.367 13.139 443.507 13.181C443.652 13.2183 443.806 13.237 443.969 13.237C444.189 13.237 444.389 13.216 444.571 13.174C444.753 13.1273 444.924 13.062 445.082 12.978C445.246 12.894 445.4 12.7937 445.544 12.677C445.694 12.5603 445.838 12.4273 445.978 12.278V10.808ZM441.953 7.91C442.345 7.532 442.768 7.24967 443.22 7.063C443.673 6.87633 444.175 6.783 444.725 6.783C445.122 6.783 445.474 6.84833 445.782 6.979C446.09 7.10967 446.349 7.29167 446.559 7.525C446.769 7.75833 446.928 8.04067 447.035 8.372C447.143 8.70333 447.196 9.06733 447.196 9.464V14H446.643C446.522 14 446.429 13.9813 446.363 13.944C446.298 13.902 446.247 13.8227 446.209 13.706L446.069 13.034C445.883 13.2067 445.701 13.3607 445.523 13.496C445.346 13.6267 445.159 13.7387 444.963 13.832C444.767 13.9207 444.557 13.9883 444.333 14.035C444.114 14.0863 443.869 14.112 443.598 14.112C443.323 14.112 443.064 14.0747 442.821 14C442.579 13.9207 442.366 13.804 442.184 13.65C442.007 13.496 441.865 13.3023 441.757 13.069C441.655 12.831 441.603 12.551 441.603 12.229C441.603 11.949 441.68 11.6807 441.834 11.424C441.988 11.1627 442.238 10.9317 442.583 10.731C442.929 10.5303 443.379 10.367 443.934 10.241C444.49 10.1103 445.171 10.0357 445.978 10.017V9.464C445.978 8.91333 445.859 8.498 445.621 8.218C445.383 7.93333 445.036 7.791 444.578 7.791C444.27 7.791 444.011 7.83067 443.801 7.91C443.596 7.98467 443.416 8.071 443.262 8.169C443.113 8.26233 442.982 8.34867 442.87 8.428C442.763 8.50267 442.656 8.54 442.548 8.54C442.464 8.54 442.392 8.519 442.331 8.477C442.271 8.43033 442.219 8.37433 442.177 8.309L441.953 7.91ZM453.224 8.078C453.168 8.18067 453.082 8.232 452.965 8.232C452.895 8.232 452.816 8.20633 452.727 8.155C452.639 8.10367 452.529 8.04767 452.398 7.987C452.272 7.92167 452.121 7.86333 451.943 7.812C451.766 7.756 451.556 7.728 451.313 7.728C451.103 7.728 450.914 7.756 450.746 7.812C450.578 7.86333 450.434 7.93567 450.312 8.029C450.196 8.12233 450.105 8.232 450.039 8.358C449.979 8.47933 449.948 8.61233 449.948 8.757C449.948 8.939 450 9.09067 450.102 9.212C450.21 9.33333 450.35 9.43833 450.522 9.527C450.695 9.61567 450.891 9.695 451.11 9.765C451.33 9.83033 451.554 9.90267 451.782 9.982C452.016 10.0567 452.242 10.1407 452.461 10.234C452.681 10.3273 452.877 10.444 453.049 10.584C453.222 10.724 453.36 10.8967 453.462 11.102C453.57 11.3027 453.623 11.5453 453.623 11.83C453.623 12.1567 453.565 12.46 453.448 12.74C453.332 13.0153 453.159 13.2557 452.93 13.461C452.702 13.6617 452.422 13.8203 452.09 13.937C451.759 14.0537 451.376 14.112 450.942 14.112C450.448 14.112 450 14.0327 449.598 13.874C449.197 13.7107 448.856 13.503 448.576 13.251L448.87 12.775C448.908 12.7143 448.952 12.6677 449.003 12.635C449.055 12.6023 449.12 12.586 449.199 12.586C449.283 12.586 449.372 12.6187 449.465 12.684C449.559 12.7493 449.671 12.8217 449.801 12.901C449.937 12.9803 450.1 13.0527 450.291 13.118C450.483 13.1833 450.721 13.216 451.005 13.216C451.248 13.216 451.46 13.1857 451.642 13.125C451.824 13.0597 451.976 12.9733 452.097 12.866C452.219 12.7587 452.307 12.635 452.363 12.495C452.424 12.355 452.454 12.2057 452.454 12.047C452.454 11.851 452.401 11.69 452.293 11.564C452.191 11.4333 452.053 11.3237 451.88 11.235C451.708 11.1417 451.509 11.0623 451.285 10.997C451.066 10.927 450.84 10.8547 450.606 10.78C450.378 10.7053 450.151 10.6213 449.927 10.528C449.708 10.43 449.512 10.3087 449.339 10.164C449.167 10.0193 449.027 9.842 448.919 9.632C448.817 9.41733 448.765 9.15833 448.765 8.855C448.765 8.58433 448.821 8.32533 448.933 8.078C449.045 7.826 449.209 7.60667 449.423 7.42C449.638 7.22867 449.902 7.077 450.214 6.965C450.527 6.853 450.884 6.797 451.285 6.797C451.752 6.797 452.17 6.87167 452.538 7.021C452.912 7.16567 453.234 7.36633 453.504 7.623L453.224 8.078ZM460.982 6.909V14H460.24C460.063 14 459.951 13.9137 459.904 13.741L459.806 12.978C459.498 13.3187 459.153 13.594 458.77 13.804C458.387 14.0093 457.949 14.112 457.454 14.112C457.067 14.112 456.724 14.049 456.425 13.923C456.131 13.7923 455.884 13.6103 455.683 13.377C455.482 13.1437 455.331 12.8613 455.228 12.53C455.13 12.1987 455.081 11.8323 455.081 11.431V6.909H456.327V11.431C456.327 11.9677 456.448 12.383 456.691 12.677C456.938 12.971 457.314 13.118 457.818 13.118C458.187 13.118 458.53 13.0317 458.847 12.859C459.169 12.6817 459.465 12.439 459.736 12.131V6.909H460.982ZM464.141 8.33C464.365 7.84467 464.64 7.46667 464.967 7.196C465.293 6.92067 465.692 6.783 466.164 6.783C466.313 6.783 466.455 6.79933 466.591 6.832C466.731 6.86467 466.854 6.916 466.962 6.986L466.871 7.917C466.843 8.03367 466.773 8.092 466.661 8.092C466.595 8.092 466.5 8.078 466.374 8.05C466.248 8.022 466.105 8.008 465.947 8.008C465.723 8.008 465.522 8.04067 465.345 8.106C465.172 8.17133 465.016 8.26933 464.876 8.4C464.74 8.526 464.617 8.68467 464.505 8.876C464.397 9.06267 464.299 9.27733 464.211 9.52V14H462.958V6.909H463.672C463.807 6.909 463.9 6.93467 463.952 6.986C464.003 7.03733 464.038 7.126 464.057 7.252L464.141 8.33ZM472.516 9.681C472.516 9.39167 472.474 9.128 472.39 8.89C472.311 8.64733 472.192 8.43967 472.033 8.267C471.879 8.08967 471.69 7.95433 471.466 7.861C471.242 7.763 470.988 7.714 470.703 7.714C470.106 7.714 469.632 7.889 469.282 8.239C468.937 8.58433 468.722 9.065 468.638 9.681H472.516ZM473.524 13.006C473.37 13.1927 473.186 13.356 472.971 13.496C472.757 13.6313 472.526 13.7433 472.278 13.832C472.036 13.9207 471.784 13.986 471.522 14.028C471.261 14.0747 471.002 14.098 470.745 14.098C470.255 14.098 469.803 14.0163 469.387 13.853C468.977 13.685 468.62 13.4423 468.316 13.125C468.018 12.803 467.784 12.4063 467.616 11.935C467.448 11.4637 467.364 10.9223 467.364 10.311C467.364 9.81633 467.439 9.35433 467.588 8.925C467.742 8.49567 467.962 8.12467 468.246 7.812C468.531 7.49467 468.879 7.24733 469.289 7.07C469.7 6.888 470.162 6.797 470.675 6.797C471.1 6.797 471.492 6.86933 471.851 7.014C472.215 7.154 472.528 7.35933 472.789 7.63C473.055 7.896 473.263 8.22733 473.412 8.624C473.562 9.016 473.636 9.464 473.636 9.968C473.636 10.164 473.615 10.2947 473.573 10.36C473.531 10.4253 473.452 10.458 473.335 10.458H468.596C468.61 10.906 468.671 11.2957 468.778 11.627C468.89 11.9583 469.044 12.236 469.24 12.46C469.436 12.6793 469.67 12.845 469.94 12.957C470.211 13.0643 470.514 13.118 470.85 13.118C471.163 13.118 471.431 13.083 471.655 13.013C471.884 12.9383 472.08 12.859 472.243 12.775C472.407 12.691 472.542 12.614 472.649 12.544C472.761 12.4693 472.857 12.432 472.936 12.432C473.039 12.432 473.118 12.4717 473.174 12.551L473.524 13.006ZM475.167 14V6.909H475.916C476.093 6.909 476.203 6.99533 476.245 7.168L476.336 7.896C476.597 7.574 476.891 7.31033 477.218 7.105C477.544 6.89967 477.922 6.797 478.352 6.797C478.828 6.797 479.213 6.93 479.507 7.196C479.805 7.462 480.02 7.82133 480.151 8.274C480.253 8.01733 480.384 7.79567 480.543 7.609C480.706 7.42233 480.888 7.26833 481.089 7.147C481.289 7.02567 481.502 6.937 481.726 6.881C481.954 6.825 482.185 6.797 482.419 6.797C482.792 6.797 483.123 6.85767 483.413 6.979C483.707 7.09567 483.954 7.26833 484.155 7.497C484.36 7.72567 484.516 8.008 484.624 8.344C484.731 8.67533 484.785 9.05567 484.785 9.485V14H483.532V9.485C483.532 8.92967 483.41 8.50967 483.168 8.225C482.925 7.93567 482.575 7.791 482.118 7.791C481.912 7.791 481.716 7.82833 481.53 7.903C481.348 7.973 481.187 8.078 481.047 8.218C480.907 8.358 480.795 8.53533 480.711 8.75C480.631 8.96 480.592 9.205 480.592 9.485V14H479.339V9.485C479.339 8.91567 479.224 8.491 478.996 8.211C478.767 7.931 478.433 7.791 477.995 7.791C477.687 7.791 477.402 7.875 477.141 8.043C476.879 8.20633 476.639 8.43033 476.42 8.715V14H475.167ZM491.424 9.681C491.424 9.39167 491.382 9.128 491.298 8.89C491.219 8.64733 491.1 8.43967 490.941 8.267C490.787 8.08967 490.598 7.95433 490.374 7.861C490.15 7.763 489.896 7.714 489.611 7.714C489.014 7.714 488.54 7.889 488.19 8.239C487.845 8.58433 487.63 9.065 487.546 9.681H491.424ZM492.432 13.006C492.278 13.1927 492.094 13.356 491.879 13.496C491.665 13.6313 491.434 13.7433 491.186 13.832C490.944 13.9207 490.692 13.986 490.43 14.028C490.169 14.0747 489.91 14.098 489.653 14.098C489.163 14.098 488.711 14.0163 488.295 13.853C487.885 13.685 487.528 13.4423 487.224 13.125C486.926 12.803 486.692 12.4063 486.524 11.935C486.356 11.4637 486.272 10.9223 486.272 10.311C486.272 9.81633 486.347 9.35433 486.496 8.925C486.65 8.49567 486.87 8.12467 487.154 7.812C487.439 7.49467 487.787 7.24733 488.197 7.07C488.608 6.888 489.07 6.797 489.583 6.797C490.008 6.797 490.4 6.86933 490.759 7.014C491.123 7.154 491.436 7.35933 491.697 7.63C491.963 7.896 492.171 8.22733 492.32 8.624C492.47 9.016 492.544 9.464 492.544 9.968C492.544 10.164 492.523 10.2947 492.481 10.36C492.439 10.4253 492.36 10.458 492.243 10.458H487.504C487.518 10.906 487.579 11.2957 487.686 11.627C487.798 11.9583 487.952 12.236 488.148 12.46C488.344 12.6793 488.578 12.845 488.848 12.957C489.119 13.0643 489.422 13.118 489.758 13.118C490.071 13.118 490.339 13.083 490.563 13.013C490.792 12.9383 490.988 12.859 491.151 12.775C491.315 12.691 491.45 12.614 491.557 12.544C491.669 12.4693 491.765 12.432 491.844 12.432C491.947 12.432 492.026 12.4717 492.082 12.551L492.432 13.006ZM495.251 7.938C495.405 7.76533 495.568 7.609 495.741 7.469C495.914 7.329 496.096 7.21 496.287 7.112C496.483 7.00933 496.688 6.93233 496.903 6.881C497.122 6.825 497.358 6.797 497.61 6.797C497.997 6.797 498.338 6.86233 498.632 6.993C498.931 7.119 499.178 7.301 499.374 7.539C499.575 7.77233 499.726 8.05467 499.829 8.386C499.932 8.71733 499.983 9.08367 499.983 9.485V14H498.73V9.485C498.73 8.94833 498.606 8.533 498.359 8.239C498.116 7.94033 497.745 7.791 497.246 7.791C496.877 7.791 496.532 7.87967 496.21 8.057C495.893 8.23433 495.599 8.47467 495.328 8.778V14H494.075V6.909H494.824C495.001 6.909 495.111 6.99533 495.153 7.168L495.251 7.938ZM503.963 14.112C503.403 14.112 502.971 13.9557 502.668 13.643C502.369 13.3303 502.22 12.88 502.22 12.292V7.952H501.366C501.291 7.952 501.228 7.931 501.177 7.889C501.125 7.84233 501.1 7.77233 501.1 7.679V7.182L502.262 7.035L502.549 4.844C502.563 4.774 502.593 4.718 502.64 4.676C502.691 4.62933 502.756 4.606 502.836 4.606H503.466V7.049H505.517V7.952H503.466V12.208C503.466 12.5067 503.538 12.7283 503.683 12.873C503.827 13.0177 504.014 13.09 504.243 13.09C504.373 13.09 504.485 13.0737 504.579 13.041C504.677 13.0037 504.761 12.964 504.831 12.922C504.901 12.88 504.959 12.8427 505.006 12.81C505.057 12.7727 505.101 12.754 505.139 12.754C505.204 12.754 505.262 12.7937 505.314 12.873L505.678 13.468C505.463 13.6687 505.204 13.8273 504.901 13.944C504.597 14.056 504.285 14.112 503.963 14.112ZM510.933 8.078C510.877 8.18067 510.791 8.232 510.674 8.232C510.604 8.232 510.525 8.20633 510.436 8.155C510.348 8.10367 510.238 8.04767 510.107 7.987C509.981 7.92167 509.83 7.86333 509.652 7.812C509.475 7.756 509.265 7.728 509.022 7.728C508.812 7.728 508.623 7.756 508.455 7.812C508.287 7.86333 508.143 7.93567 508.021 8.029C507.905 8.12233 507.814 8.232 507.748 8.358C507.688 8.47933 507.657 8.61233 507.657 8.757C507.657 8.939 507.709 9.09067 507.811 9.212C507.919 9.33333 508.059 9.43833 508.231 9.527C508.404 9.61567 508.6 9.695 508.819 9.765C509.039 9.83033 509.263 9.90267 509.491 9.982C509.725 10.0567 509.951 10.1407 510.17 10.234C510.39 10.3273 510.586 10.444 510.758 10.584C510.931 10.724 511.069 10.8967 511.171 11.102C511.279 11.3027 511.332 11.5453 511.332 11.83C511.332 12.1567 511.274 12.46 511.157 12.74C511.041 13.0153 510.868 13.2557 510.639 13.461C510.411 13.6617 510.131 13.8203 509.799 13.937C509.468 14.0537 509.085 14.112 508.651 14.112C508.157 14.112 507.709 14.0327 507.307 13.874C506.906 13.7107 506.565 13.503 506.285 13.251L506.579 12.775C506.617 12.7143 506.661 12.6677 506.712 12.635C506.764 12.6023 506.829 12.586 506.908 12.586C506.992 12.586 507.081 12.6187 507.174 12.684C507.268 12.7493 507.38 12.8217 507.51 12.901C507.646 12.9803 507.809 13.0527 508 13.118C508.192 13.1833 508.43 13.216 508.714 13.216C508.957 13.216 509.169 13.1857 509.351 13.125C509.533 13.0597 509.685 12.9733 509.806 12.866C509.928 12.7587 510.016 12.635 510.072 12.495C510.133 12.355 510.163 12.2057 510.163 12.047C510.163 11.851 510.11 11.69 510.002 11.564C509.9 11.4333 509.762 11.3237 509.589 11.235C509.417 11.1417 509.218 11.0623 508.994 10.997C508.775 10.927 508.549 10.8547 508.315 10.78C508.087 10.7053 507.86 10.6213 507.636 10.528C507.417 10.43 507.221 10.3087 507.048 10.164C506.876 10.0193 506.736 9.842 506.628 9.632C506.526 9.41733 506.474 9.15833 506.474 8.855C506.474 8.58433 506.53 8.32533 506.642 8.078C506.754 7.826 506.918 7.60667 507.132 7.42C507.347 7.22867 507.611 7.077 507.923 6.965C508.236 6.853 508.593 6.797 508.994 6.797C509.461 6.797 509.879 6.87167 510.247 7.021C510.621 7.16567 510.943 7.36633 511.213 7.623L510.933 8.078Z" fill="#395174"/>
<defs>
<clipPath id="clip0_924_214981">
<rect width="298" height="342" fill="white" transform="translate(183 65)"/>
</clipPath>
</defs>
</svg>
