<svg width="676" height="486" viewBox="0 0 676 486" fill="none" xmlns="http://www.w3.org/2000/svg">
<path fill-rule="evenodd" clip-rule="evenodd" d="M339.527 76.3205C389.597 81.0351 481.197 18.8818 531 24.6933C600.891 32.8489 643.882 71.754 670.608 114.954C696.957 157.544 602.704 174.679 582.5 218.693C561.608 264.207 600.729 342.176 550.576 376.446C498.366 412.121 410.705 499.402 339.527 483.193C268.398 466.996 272.299 330.461 213.398 299.664C159.199 271.326 62.4062 290.721 23.4803 253.081C-15.7818 215.115 0.54743 161.43 26.325 118.77C51.1565 77.6768 73.5847 9.62724 139.5 0.693359C204.628 -8.13378 273.7 70.1223 339.527 76.3205Z" fill="#E7EAEE"/>
<path d="M495.025 340.194C497.052 323.89 507.15 307.825 522.691 302.52C516.562 319.301 516.563 337.71 522.695 354.491C525.082 360.954 528.411 367.894 526.165 374.407C524.767 378.46 521.348 381.561 517.527 383.5C513.705 385.439 509.463 386.363 505.275 387.269L504.451 387.951C497.802 372.929 492.999 356.498 495.025 340.194Z" fill="#F0F0F0"/>
<path d="M522.845 302.828C513.795 312.974 508.17 325.715 506.769 339.242C506.416 342.148 506.523 345.092 507.086 347.966C507.725 350.747 509.097 353.306 511.058 355.378C512.849 357.346 514.908 359.152 516.189 361.521C516.827 362.744 517.199 364.087 517.281 365.464C517.364 366.841 517.154 368.219 516.667 369.509C515.536 372.755 513.307 375.401 511.037 377.912C508.517 380.7 505.855 383.557 504.783 387.253C504.654 387.701 503.967 387.474 504.096 387.026C505.96 380.595 512.2 376.941 515.176 371.149C516.564 368.445 517.147 365.307 515.845 362.454C514.707 359.959 512.585 358.095 510.755 356.118C508.812 354.125 507.386 351.686 506.601 349.015C505.894 346.18 505.674 343.245 505.95 340.335C506.469 333.776 508.015 327.339 510.532 321.26C513.367 314.306 517.369 307.888 522.366 302.285C522.675 301.938 523.152 302.483 522.845 302.828Z" fill="white"/>
<path d="M506.964 334.859C504.727 334.316 502.757 332.995 501.404 331.132C500.051 329.27 499.404 326.986 499.579 324.69C499.616 324.226 500.339 324.261 500.302 324.727C500.135 326.864 500.738 328.991 502.001 330.723C503.265 332.455 505.105 333.678 507.191 334.171C507.644 334.279 507.414 334.966 506.964 334.859Z" fill="white"/>
<path d="M510.018 354.499C514.057 352.086 517.039 348.238 518.369 343.723C518.5 343.276 519.187 343.503 519.056 343.95C517.663 348.646 514.552 352.644 510.344 355.145C509.942 355.384 509.619 354.736 510.018 354.499Z" fill="white"/>
<path d="M514.037 314.992C514.858 315.382 515.764 315.563 516.672 315.517C517.581 315.47 518.463 315.199 519.241 314.727C519.639 314.484 519.962 315.133 519.566 315.374C518.705 315.892 517.73 316.19 516.726 316.243C515.723 316.296 514.721 316.103 513.81 315.679C513.721 315.647 513.647 315.581 513.604 315.496C513.562 315.411 513.553 315.313 513.58 315.222C513.61 315.131 513.675 315.056 513.761 315.013C513.847 314.97 513.946 314.962 514.037 314.992Z" fill="white"/>
<path d="M570.059 331.64C569.815 331.799 569.571 331.958 569.326 332.123C566.053 334.276 562.961 336.692 560.079 339.346C559.853 339.548 559.627 339.756 559.407 339.963C552.532 346.433 546.918 354.123 542.849 362.643C541.233 366.035 539.877 369.545 538.793 373.142C537.296 378.111 536.069 383.617 533.106 387.681C532.802 388.109 532.472 388.517 532.117 388.903H505.346C505.285 388.873 505.224 388.848 505.163 388.818L504.094 388.867C504.137 388.677 504.185 388.482 504.228 388.292C504.253 388.182 504.283 388.072 504.308 387.962C504.326 387.889 504.344 387.816 504.356 387.748C504.362 387.724 504.369 387.7 504.375 387.681C504.387 387.614 504.405 387.553 504.418 387.492C504.686 386.398 504.963 385.304 505.248 384.21C505.248 384.204 505.248 384.204 505.254 384.198C507.447 375.868 510.354 367.648 514.416 360.131C514.538 359.905 514.66 359.673 514.795 359.447C516.644 356.068 518.767 352.847 521.141 349.815C522.446 348.159 523.835 346.57 525.301 345.054C529.096 341.145 533.482 337.858 538.298 335.313C547.9 330.24 559.016 328.297 569.278 331.395C569.54 331.475 569.797 331.554 570.059 331.64Z" fill="#F0F0F0"/>
<path d="M570 331.98C556.669 334.629 544.511 341.414 535.253 351.37C533.222 353.478 531.536 355.893 530.257 358.527C529.093 361.132 528.648 364.002 528.968 366.838C529.213 369.488 529.771 372.17 529.368 374.834C529.142 376.194 528.63 377.491 527.868 378.64C527.105 379.789 526.108 380.763 524.943 381.499C522.087 383.41 518.715 384.179 515.391 384.817C511.701 385.525 507.857 386.202 504.777 388.509C504.404 388.788 503.993 388.192 504.365 387.913C509.724 383.901 516.904 384.743 522.766 381.91C525.501 380.588 527.855 378.434 528.532 375.371C529.125 372.693 528.552 369.927 528.281 367.246C527.928 364.484 528.257 361.678 529.238 359.072C530.379 356.382 531.97 353.906 533.941 351.75C538.302 346.825 543.41 342.617 549.078 339.279C555.525 335.435 562.583 332.722 569.944 331.258C570.4 331.167 570.452 331.89 570 331.98Z" fill="white"/>
<path d="M538.046 347.989C536.587 346.208 535.808 343.967 535.849 341.664C535.89 339.362 536.747 337.15 538.268 335.421C538.577 335.073 539.133 335.537 538.823 335.886C537.404 337.492 536.606 339.554 536.572 341.698C536.539 343.841 537.272 345.927 538.641 347.577C538.937 347.936 538.341 348.346 538.046 347.989Z" fill="white"/>
<path d="M528.666 365.511C533.343 366.017 538.039 364.741 541.818 361.937C542.192 361.659 542.603 362.255 542.23 362.533C538.292 365.443 533.403 366.761 528.537 366.223C528.073 366.172 528.205 365.459 528.666 365.511Z" fill="white"/>
<path d="M555.647 336.388C556.068 337.194 556.682 337.884 557.435 338.394C558.189 338.905 559.056 339.22 559.961 339.312C560.425 339.357 560.293 340.07 559.832 340.024C558.833 339.918 557.875 339.569 557.041 339.007C556.208 338.445 555.525 337.687 555.052 336.8C555 336.72 554.981 336.624 554.998 336.53C555.015 336.436 555.067 336.353 555.144 336.296C555.223 336.242 555.32 336.221 555.414 336.238C555.508 336.255 555.592 336.309 555.647 336.388Z" fill="white"/>
<path d="M408.559 257.881C409.113 257.309 409.534 256.622 409.794 255.868C410.054 255.115 410.145 254.314 410.062 253.521C409.979 252.729 409.723 251.964 409.313 251.281C408.902 250.598 408.347 250.014 407.687 249.569L412.636 230.842L403.1 234.051L399.862 251.342C399.189 252.502 398.964 253.869 399.23 255.184C399.497 256.499 400.236 257.671 401.308 258.477C402.38 259.283 403.71 259.667 405.046 259.558C406.383 259.448 407.633 258.851 408.559 257.881Z" fill="#9E616A"/>
<path d="M452.676 383.668L446.035 383.667L442.875 358.034L452.678 358.035L452.676 383.668Z" fill="#9E616A"/>
<path d="M454.369 390.11L432.953 390.109V389.838C432.953 387.626 433.832 385.505 435.395 383.941C436.958 382.377 439.078 381.498 441.289 381.498L454.37 381.499L454.369 390.11Z" fill="#2F2E41"/>
<path d="M421.255 383.668L414.613 383.667L411.453 358.034L421.256 358.035L421.255 383.668Z" fill="#9E616A"/>
<path d="M422.947 390.11L401.531 390.109V389.838C401.531 387.626 402.41 385.505 403.973 383.941C405.536 382.377 407.656 381.498 409.867 381.498L422.948 381.499L422.947 390.11Z" fill="#2F2E41"/>
<path d="M417.561 229.223L415.012 229.927C415.012 229.927 408.351 273.13 407.81 295.897C407.268 318.663 409.435 376.122 409.435 376.122H423.521L434.898 278.55L440.315 376.122H455.484C455.484 376.122 466.32 248.195 461.444 237.896C456.568 227.596 417.561 229.223 417.561 229.223Z" fill="#2F2E41"/>
<path d="M437.88 152.991C444.909 152.991 450.607 147.289 450.607 140.256C450.607 133.223 444.909 127.521 437.88 127.521C430.851 127.521 425.152 133.223 425.152 140.256C425.152 147.289 430.851 152.991 437.88 152.991Z" fill="#9E616A"/>
<path d="M470.112 169.595L450.357 156.678L429.886 157.484L409.977 168.511L417.561 210.792L414.311 235.185C414.311 235.185 443.566 231.933 450.067 236.811C453.863 239.706 458.341 241.573 463.069 242.232L461.985 200.493L470.112 169.595Z" fill="#3F3D56"/>
<path d="M413.768 167.97L411.721 167.545L409.976 168.512C409.976 168.512 405.1 175.017 405.1 180.979C405.1 186.942 399.141 244.401 399.141 244.401L409.976 249.28L418.644 204.288L413.768 167.97Z" fill="#3F3D56"/>
<path d="M449.025 130.919C449.025 130.919 452.354 124.552 445.03 123.973C445.03 123.973 438.787 118.306 432.423 122.937C432.423 122.937 428.952 122.937 427.054 126.867C427.054 126.867 424.324 125.831 423.724 128.604C423.724 128.604 421.726 134.393 423.724 139.602C425.721 144.812 426.385 145.391 426.385 145.391C426.385 145.391 423.102 134.468 431.092 133.889C439.082 133.311 448.023 128.315 448.689 134.682C449.355 141.049 450.357 142.618 450.357 142.618C450.357 142.618 456.682 133.524 449.025 130.919Z" fill="#2F2E41"/>
<path d="M284.558 205.835H126.906V87.665H284.558V205.835Z" fill="white"/>
<path d="M284.558 205.835H126.906V87.665H284.558V205.835ZM128.532 89.2912V204.209H282.933V89.2912H128.532Z" fill="#E6E6E6"/>
<path d="M205.682 177.007C222.261 177.007 235.701 163.56 235.701 146.972C235.701 130.384 222.261 116.937 205.682 116.937C189.104 116.937 175.664 130.384 175.664 146.972C175.664 163.56 189.104 177.007 205.682 177.007Z" fill="#112D57"/>
<path d="M218.148 144.45H207.942V134.238C207.942 133.6 207.689 132.989 207.239 132.538C206.788 132.088 206.178 131.835 205.541 131.835C204.904 131.835 204.293 132.088 203.842 132.538C203.392 132.989 203.139 133.6 203.139 134.238V144.45H192.933C192.296 144.45 191.685 144.703 191.235 145.153C190.784 145.604 190.531 146.215 190.531 146.853C190.531 147.49 190.784 148.101 191.235 148.552C191.685 149.002 192.296 149.256 192.933 149.256H203.139V159.467C203.139 160.105 203.392 160.716 203.842 161.167C204.293 161.617 204.904 161.87 205.541 161.87C206.178 161.87 206.788 161.617 207.239 161.167C207.689 160.716 207.942 160.105 207.942 159.467V149.256H218.148C218.785 149.256 219.396 149.002 219.847 148.552C220.297 148.101 220.55 147.49 220.55 146.853C220.55 146.215 220.297 145.604 219.847 145.153C219.396 144.703 218.785 144.45 218.148 144.45Z" fill="white"/>
<path d="M139.91 87.1721H81V42.6934H139.91V87.1721Z" fill="white"/>
<path d="M139.91 87.1721H81V42.6934H139.91V87.1721ZM82.0835 86.0879H138.827V43.7775H82.0835V86.0879Z" fill="#E6E6E6"/>
<path d="M132.139 54.8076H88.7695V57.7006H132.139V54.8076Z" fill="#E4E4E4"/>
<path d="M132.139 63.4863H88.7695V66.3793H132.139V63.4863Z" fill="#E4E4E4"/>
<path d="M132.139 72.165H88.7695V75.058H132.139V72.165Z" fill="#E4E4E4"/>
<path d="M531.602 390.187H472.691V345.708H531.602V390.187Z" fill="white"/>
<path d="M531.602 390.187H472.691V345.708H531.602V390.187ZM473.775 389.103H530.518V346.792H473.775V389.103Z" fill="#E6E6E6"/>
<path d="M523.831 357.822H480.461V360.715H523.831V357.822Z" fill="#E4E4E4"/>
<path d="M523.831 366.5H480.461V369.393H523.831V366.5Z" fill="#E4E4E4"/>
<path d="M523.831 375.18H480.461V378.073H523.831V375.18Z" fill="#E4E4E4"/>
<path d="M495.825 310.377L451.822 271.186L481.379 237.963L525.381 277.154L495.825 310.377Z" fill="white"/>
<path d="M495.825 310.377L451.822 271.186L481.379 237.963L525.381 277.154L495.825 310.377ZM453.352 271.097L495.736 308.846L523.852 277.243L481.468 239.493L453.352 271.097Z" fill="#E6E6E6"/>
<path d="M479.133 252.181L477.211 254.342L509.606 283.195L511.528 281.034L479.133 252.181Z" fill="#E4E4E4"/>
<path d="M473.366 258.662L471.443 260.823L503.838 289.676L505.76 287.515L473.366 258.662Z" fill="#E4E4E4"/>
<path d="M467.598 265.146L465.676 267.307L498.07 296.159L499.993 293.999L467.598 265.146Z" fill="#E4E4E4"/>
<path d="M173.266 113.192H107.547V63.5723H173.266V113.192Z" fill="white"/>
<path d="M173.266 113.192H107.547V63.5723H173.266V113.192ZM108.756 111.982H172.057V64.7817H108.756V111.982Z" fill="#E6E6E6"/>
<path d="M164.597 77.0859H116.215V80.3133H164.597V77.0859Z" fill="#112D57"/>
<path d="M164.597 86.7676H116.215V89.9949H164.597V86.7676Z" fill="#112D57"/>
<path d="M164.597 96.4492H116.215V99.6766H164.597V96.4492Z" fill="#112D57"/>
<path d="M343.816 243.088H243.527V167.368H343.816V243.088Z" fill="white"/>
<path d="M343.816 243.088H243.527V167.368H343.816V243.088ZM245.372 241.243H341.971V169.214H245.372V241.243Z" fill="#E6E6E6"/>
<path d="M330.587 187.991H256.754V192.916H330.587V187.991Z" fill="#112D57"/>
<path d="M330.587 202.766H256.754V207.691H330.587V202.766Z" fill="#112D57"/>
<path d="M330.587 217.541H256.754V222.466H330.587V217.541Z" fill="#112D57"/>
<path d="M581.354 390.693H321.151C320.98 390.693 320.817 390.624 320.696 390.503C320.576 390.382 320.508 390.219 320.508 390.048C320.508 389.877 320.576 389.713 320.696 389.592C320.817 389.471 320.98 389.403 321.151 389.402H581.354C581.525 389.402 581.69 389.47 581.811 389.591C581.932 389.712 581.999 389.877 581.999 390.048C581.999 390.219 581.932 390.383 581.811 390.504C581.69 390.625 581.525 390.693 581.354 390.693Z" fill="#CACACA"/>
<path d="M463.376 257.473C462.988 256.777 462.757 256.004 462.7 255.209C462.642 254.415 462.76 253.617 463.044 252.872C463.328 252.128 463.772 251.455 464.344 250.901C464.917 250.346 465.603 249.924 466.356 249.665L466.389 230.294L474.778 235.85L473.461 253.393C473.813 254.687 473.679 256.066 473.084 257.268C472.488 258.47 471.473 259.412 470.23 259.915C468.986 260.418 467.602 260.447 466.339 259.997C465.076 259.547 464.021 258.649 463.376 257.473Z" fill="#9E616A"/>
<path d="M464.152 171.764L467.9 168.149L470.653 170.138C470.653 170.138 473.362 173.39 475.529 183.147C477.696 192.904 475.529 246.569 475.529 246.569L463.61 244.943L465.235 216.755L460.359 192.904L464.152 171.764Z" fill="#3F3D56"/>
<path d="M319.608 9.96936L318.033 5.88836C317.986 5.76703 317.937 5.62703 317.886 5.46836C317.835 5.30503 317.786 5.13236 317.739 4.95036C317.641 5.32836 317.541 5.64336 317.438 5.89536L315.863 9.96936H319.608ZM322.436 13.6934H321.386C321.265 13.6934 321.167 13.663 321.092 13.6024C321.017 13.5417 320.961 13.4647 320.924 13.3714L319.986 10.9494H315.485L314.547 13.3714C314.519 13.4554 314.465 13.53 314.386 13.5954C314.307 13.6607 314.209 13.6934 314.092 13.6934H313.042L317.053 3.66236H318.425L322.436 13.6934ZM327.931 8.28936C327.698 7.97669 327.446 7.75969 327.175 7.63836C326.905 7.51236 326.601 7.44936 326.265 7.44936C325.607 7.44936 325.101 7.68503 324.746 8.15636C324.392 8.62769 324.214 9.29969 324.214 10.1724C324.214 10.6344 324.254 11.031 324.333 11.3624C324.413 11.689 324.529 11.9597 324.683 12.1744C324.837 12.3844 325.026 12.5384 325.25 12.6364C325.474 12.7344 325.729 12.7834 326.013 12.7834C326.424 12.7834 326.781 12.69 327.084 12.5034C327.392 12.3167 327.675 12.053 327.931 11.7124V8.28936ZM329.177 3.38236V13.6934H328.435C328.258 13.6934 328.146 13.607 328.099 13.4344L327.987 12.5734C327.684 12.9374 327.339 13.2314 326.951 13.4554C326.564 13.6794 326.116 13.7914 325.607 13.7914C325.201 13.7914 324.833 13.7144 324.501 13.5604C324.17 13.4017 323.888 13.1707 323.654 12.8674C323.421 12.564 323.241 12.186 323.115 11.7334C322.989 11.2807 322.926 10.7604 322.926 10.1724C322.926 9.64969 322.996 9.16436 323.136 8.71636C323.276 8.26369 323.477 7.87169 323.738 7.54036C324 7.20903 324.319 6.95003 324.697 6.76336C325.08 6.57203 325.509 6.47636 325.985 6.47636C326.419 6.47636 326.79 6.55103 327.098 6.70036C327.411 6.84503 327.689 7.04803 327.931 7.30936V3.38236H329.177ZM335.765 8.28936C335.532 7.97669 335.28 7.75969 335.009 7.63836C334.739 7.51236 334.435 7.44936 334.099 7.44936C333.441 7.44936 332.935 7.68503 332.58 8.15636C332.226 8.62769 332.048 9.29969 332.048 10.1724C332.048 10.6344 332.088 11.031 332.167 11.3624C332.247 11.689 332.363 11.9597 332.517 12.1744C332.671 12.3844 332.86 12.5384 333.084 12.6364C333.308 12.7344 333.563 12.7834 333.847 12.7834C334.258 12.7834 334.615 12.69 334.918 12.5034C335.226 12.3167 335.509 12.053 335.765 11.7124V8.28936ZM337.011 3.38236V13.6934H336.269C336.092 13.6934 335.98 13.607 335.933 13.4344L335.821 12.5734C335.518 12.9374 335.173 13.2314 334.785 13.4554C334.398 13.6794 333.95 13.7914 333.441 13.7914C333.035 13.7914 332.667 13.7144 332.335 13.5604C332.004 13.4017 331.722 13.1707 331.488 12.8674C331.255 12.564 331.075 12.186 330.949 11.7334C330.823 11.2807 330.76 10.7604 330.76 10.1724C330.76 9.64969 330.83 9.16436 330.97 8.71636C331.11 8.26369 331.311 7.87169 331.572 7.54036C331.834 7.20903 332.153 6.95003 332.531 6.76336C332.914 6.57203 333.343 6.47636 333.819 6.47636C334.253 6.47636 334.624 6.55103 334.932 6.70036C335.245 6.84503 335.523 7.04803 335.765 7.30936V3.38236H337.011ZM342.561 13.6934V6.60236H343.31C343.488 6.60236 343.597 6.68869 343.639 6.86136L343.73 7.58936C343.992 7.26736 344.286 7.00369 344.612 6.79836C344.939 6.59303 345.317 6.49036 345.746 6.49036C346.222 6.49036 346.607 6.62336 346.901 6.88936C347.2 7.15536 347.415 7.51469 347.545 7.96736C347.648 7.71069 347.779 7.48903 347.937 7.30236C348.101 7.11569 348.283 6.96169 348.483 6.84036C348.684 6.71903 348.896 6.63036 349.12 6.57436C349.349 6.51836 349.58 6.49036 349.813 6.49036C350.187 6.49036 350.518 6.55103 350.807 6.67236C351.101 6.78903 351.349 6.96169 351.549 7.19036C351.755 7.41903 351.911 7.70136 352.018 8.03736C352.126 8.36869 352.179 8.74903 352.179 9.17836V13.6934H350.926V9.17836C350.926 8.62303 350.805 8.20303 350.562 7.91836C350.32 7.62903 349.97 7.48436 349.512 7.48436C349.307 7.48436 349.111 7.52169 348.924 7.59636C348.742 7.66636 348.581 7.77136 348.441 7.91136C348.301 8.05136 348.189 8.22869 348.105 8.44336C348.026 8.65336 347.986 8.89836 347.986 9.17836V13.6934H346.733V9.17836C346.733 8.60903 346.619 8.18436 346.39 7.90436C346.162 7.62436 345.828 7.48436 345.389 7.48436C345.081 7.48436 344.797 7.56836 344.535 7.73636C344.274 7.89969 344.034 8.12369 343.814 8.40836V13.6934H342.561ZM357.916 10.5014C357.342 10.52 356.852 10.5667 356.446 10.6414C356.045 10.7114 355.716 10.8047 355.459 10.9214C355.207 11.038 355.023 11.1757 354.906 11.3344C354.794 11.493 354.738 11.6704 354.738 11.8664C354.738 12.053 354.768 12.214 354.829 12.3494C354.89 12.4847 354.971 12.5967 355.074 12.6854C355.181 12.7694 355.305 12.8324 355.445 12.8744C355.59 12.9117 355.744 12.9304 355.907 12.9304C356.126 12.9304 356.327 12.9094 356.509 12.8674C356.691 12.8207 356.861 12.7554 357.02 12.6714C357.183 12.5874 357.337 12.487 357.482 12.3704C357.631 12.2537 357.776 12.1207 357.916 11.9714V10.5014ZM353.891 7.60336C354.283 7.22536 354.705 6.94303 355.158 6.75636C355.611 6.56969 356.112 6.47636 356.663 6.47636C357.06 6.47636 357.412 6.54169 357.72 6.67236C358.028 6.80303 358.287 6.98503 358.497 7.21836C358.707 7.45169 358.866 7.73403 358.973 8.06536C359.08 8.39669 359.134 8.76069 359.134 9.15736V13.6934H358.581C358.46 13.6934 358.366 13.6747 358.301 13.6374C358.236 13.5954 358.184 13.516 358.147 13.3994L358.007 12.7274C357.82 12.9 357.638 13.054 357.461 13.1894C357.284 13.32 357.097 13.432 356.901 13.5254C356.705 13.614 356.495 13.6817 356.271 13.7284C356.052 13.7797 355.807 13.8054 355.536 13.8054C355.261 13.8054 355.002 13.768 354.759 13.6934C354.516 13.614 354.304 13.4974 354.122 13.3434C353.945 13.1894 353.802 12.9957 353.695 12.7624C353.592 12.5244 353.541 12.2444 353.541 11.9224C353.541 11.6424 353.618 11.374 353.772 11.1174C353.926 10.856 354.176 10.625 354.521 10.4244C354.866 10.2237 355.317 10.0604 355.872 9.93436C356.427 9.80369 357.109 9.72903 357.916 9.71036V9.15736C357.916 8.60669 357.797 8.19136 357.559 7.91136C357.321 7.62669 356.973 7.48436 356.516 7.48436C356.208 7.48436 355.949 7.52403 355.739 7.60336C355.534 7.67803 355.354 7.76436 355.2 7.86236C355.051 7.95569 354.92 8.04203 354.808 8.12136C354.701 8.19603 354.593 8.23336 354.486 8.23336C354.402 8.23336 354.33 8.21236 354.269 8.17036C354.208 8.12369 354.157 8.06769 354.115 8.00236L353.891 7.60336ZM363.113 13.8054C362.553 13.8054 362.122 13.649 361.818 13.3364C361.52 13.0237 361.37 12.5734 361.37 11.9854V7.64536H360.516C360.442 7.64536 360.379 7.62436 360.327 7.58236C360.276 7.53569 360.25 7.46569 360.25 7.37236V6.87536L361.412 6.72836L361.699 4.53736C361.713 4.46736 361.744 4.41136 361.79 4.36936C361.842 4.32269 361.907 4.29936 361.986 4.29936H362.616V6.74236H364.667V7.64536H362.616V11.9014C362.616 12.2 362.689 12.4217 362.833 12.5664C362.978 12.711 363.165 12.7834 363.393 12.7834C363.524 12.7834 363.636 12.767 363.729 12.7344C363.827 12.697 363.911 12.6574 363.981 12.6154C364.051 12.5734 364.11 12.536 364.156 12.5034C364.208 12.466 364.252 12.4474 364.289 12.4474C364.355 12.4474 364.413 12.487 364.464 12.5664L364.828 13.1614C364.614 13.362 364.355 13.5207 364.051 13.6374C363.748 13.7494 363.435 13.8054 363.113 13.8054ZM370.659 9.37436C370.659 9.08503 370.617 8.82136 370.533 8.58336C370.453 8.34069 370.334 8.13303 370.176 7.96036C370.022 7.78303 369.833 7.64769 369.609 7.55436C369.385 7.45636 369.13 7.40736 368.846 7.40736C368.248 7.40736 367.775 7.58236 367.425 7.93236C367.079 8.27769 366.865 8.75836 366.781 9.37436H370.659ZM371.667 12.6994C371.513 12.886 371.328 13.0494 371.114 13.1894C370.899 13.3247 370.668 13.4367 370.421 13.5254C370.178 13.614 369.926 13.6794 369.665 13.7214C369.403 13.768 369.144 13.7914 368.888 13.7914C368.398 13.7914 367.945 13.7097 367.53 13.5464C367.119 13.3784 366.762 13.1357 366.459 12.8184C366.16 12.4964 365.927 12.0997 365.759 11.6284C365.591 11.157 365.507 10.6157 365.507 10.0044C365.507 9.50969 365.581 9.04769 365.731 8.61836C365.885 8.18903 366.104 7.81803 366.389 7.50536C366.673 7.18803 367.021 6.94069 367.432 6.76336C367.842 6.58136 368.304 6.49036 368.818 6.49036C369.242 6.49036 369.634 6.56269 369.994 6.70736C370.358 6.84736 370.67 7.05269 370.932 7.32336C371.198 7.58936 371.405 7.92069 371.555 8.31736C371.704 8.70936 371.779 9.15736 371.779 9.66136C371.779 9.85736 371.758 9.98803 371.716 10.0534C371.674 10.1187 371.594 10.1514 371.478 10.1514H366.739C366.753 10.5994 366.813 10.989 366.921 11.3204C367.033 11.6517 367.187 11.9294 367.383 12.1534C367.579 12.3727 367.812 12.5384 368.083 12.6504C368.353 12.7577 368.657 12.8114 368.993 12.8114C369.305 12.8114 369.574 12.7764 369.798 12.7064C370.026 12.6317 370.222 12.5524 370.386 12.4684C370.549 12.3844 370.684 12.3074 370.792 12.2374C370.904 12.1627 370.999 12.1254 371.079 12.1254C371.181 12.1254 371.261 12.165 371.317 12.2444L371.667 12.6994ZM374.492 8.02336C374.716 7.53803 374.992 7.16003 375.318 6.88936C375.645 6.61403 376.044 6.47636 376.515 6.47636C376.665 6.47636 376.807 6.49269 376.942 6.52536C377.082 6.55803 377.206 6.60936 377.313 6.67936L377.222 7.61036C377.194 7.72703 377.124 7.78536 377.012 7.78536C376.947 7.78536 376.851 7.77136 376.725 7.74336C376.599 7.71536 376.457 7.70136 376.298 7.70136C376.074 7.70136 375.874 7.73403 375.696 7.79936C375.524 7.86469 375.367 7.96269 375.227 8.09336C375.092 8.21936 374.968 8.37803 374.856 8.56936C374.749 8.75603 374.651 8.97069 374.562 9.21336V13.6934H373.309V6.60236H374.023C374.159 6.60236 374.252 6.62803 374.303 6.67936C374.355 6.73069 374.39 6.81936 374.408 6.94536L374.492 8.02336ZM379.725 6.60236V13.6934H378.479V6.60236H379.725ZM379.991 4.37636C379.991 4.49769 379.965 4.61203 379.914 4.71936C379.867 4.82203 379.802 4.91536 379.718 4.99936C379.639 5.07869 379.543 5.14169 379.431 5.18836C379.324 5.23503 379.209 5.25836 379.088 5.25836C378.967 5.25836 378.852 5.23503 378.745 5.18836C378.642 5.14169 378.551 5.07869 378.472 4.99936C378.393 4.91536 378.33 4.82203 378.283 4.71936C378.236 4.61203 378.213 4.49769 378.213 4.37636C378.213 4.25503 378.236 4.14069 378.283 4.03336C378.33 3.92136 378.393 3.82569 378.472 3.74636C378.551 3.66236 378.642 3.59703 378.745 3.55036C378.852 3.50369 378.967 3.48036 379.088 3.48036C379.209 3.48036 379.324 3.50369 379.431 3.55036C379.543 3.59703 379.639 3.66236 379.718 3.74636C379.802 3.82569 379.867 3.92136 379.914 4.03336C379.965 4.14069 379.991 4.25503 379.991 4.37636ZM385.615 10.5014C385.041 10.52 384.551 10.5667 384.145 10.6414C383.744 10.7114 383.415 10.8047 383.158 10.9214C382.906 11.038 382.722 11.1757 382.605 11.3344C382.493 11.493 382.437 11.6704 382.437 11.8664C382.437 12.053 382.467 12.214 382.528 12.3494C382.589 12.4847 382.67 12.5967 382.773 12.6854C382.88 12.7694 383.004 12.8324 383.144 12.8744C383.289 12.9117 383.443 12.9304 383.606 12.9304C383.825 12.9304 384.026 12.9094 384.208 12.8674C384.39 12.8207 384.56 12.7554 384.719 12.6714C384.882 12.5874 385.036 12.487 385.181 12.3704C385.33 12.2537 385.475 12.1207 385.615 11.9714V10.5014ZM381.59 7.60336C381.982 7.22536 382.404 6.94303 382.857 6.75636C383.31 6.56969 383.811 6.47636 384.362 6.47636C384.759 6.47636 385.111 6.54169 385.419 6.67236C385.727 6.80303 385.986 6.98503 386.196 7.21836C386.406 7.45169 386.565 7.73403 386.672 8.06536C386.779 8.39669 386.833 8.76069 386.833 9.15736V13.6934H386.28C386.159 13.6934 386.065 13.6747 386 13.6374C385.935 13.5954 385.883 13.516 385.846 13.3994L385.706 12.7274C385.519 12.9 385.337 13.054 385.16 13.1894C384.983 13.32 384.796 13.432 384.6 13.5254C384.404 13.614 384.194 13.6817 383.97 13.7284C383.751 13.7797 383.506 13.8054 383.235 13.8054C382.96 13.8054 382.701 13.768 382.458 13.6934C382.215 13.614 382.003 13.4974 381.821 13.3434C381.644 13.1894 381.501 12.9957 381.394 12.7624C381.291 12.5244 381.24 12.2444 381.24 11.9224C381.24 11.6424 381.317 11.374 381.471 11.1174C381.625 10.856 381.875 10.625 382.22 10.4244C382.565 10.2237 383.016 10.0604 383.571 9.93436C384.126 9.80369 384.808 9.72903 385.615 9.71036V9.15736C385.615 8.60669 385.496 8.19136 385.258 7.91136C385.02 7.62669 384.672 7.48436 384.215 7.48436C383.907 7.48436 383.648 7.52403 383.438 7.60336C383.233 7.67803 383.053 7.76436 382.899 7.86236C382.75 7.95569 382.619 8.04203 382.507 8.12136C382.4 8.19603 382.292 8.23336 382.185 8.23336C382.101 8.23336 382.029 8.21236 381.968 8.17036C381.907 8.12369 381.856 8.06769 381.814 8.00236L381.59 7.60336ZM390.019 3.38236V13.6934H388.773V3.38236H390.019Z" fill="#395174"/>
</svg>
