<svg width="544" height="400" viewBox="0 0 544 400" fill="none" xmlns="http://www.w3.org/2000/svg">
<path fill-rule="evenodd" clip-rule="evenodd" d="M273.229 52.6273C313.522 57.3419 349.387 25.5193 389.465 31.3307C445.708 39.4863 518.154 48.0609 539.661 91.261C560.865 133.85 498.319 173.304 482.06 217.318C465.247 262.832 483.427 318.483 443.067 352.752C401.052 388.427 330.508 410.845 273.229 394.636C215.989 378.439 219.128 306.768 171.728 275.971C128.113 247.633 50.2204 267.028 18.8954 229.387C-12.7002 191.422 0.440536 137.737 21.1846 95.0774C41.1673 53.9837 76.925 9.90183 129.969 0.967951C182.38 -7.85919 220.256 46.4291 273.229 52.6273Z" fill="#E7EAEE"/>
<g clip-path="url(#clip0_451_83364)">
<path d="M120.797 88.8944C122.109 88.8944 123.173 87.8313 123.173 86.5199C123.173 85.2086 122.109 84.1455 120.797 84.1455C119.485 84.1455 118.422 85.2086 118.422 86.5199C118.422 87.8313 119.485 88.8944 120.797 88.8944Z" fill="white"/>
<path d="M129.813 88.8944C131.125 88.8944 132.188 87.8313 132.188 86.5199C132.188 85.2086 131.125 84.1455 129.813 84.1455C128.501 84.1455 127.438 85.2086 127.438 86.5199C127.438 87.8313 128.501 88.8944 129.813 88.8944Z" fill="white"/>
<path d="M138.828 88.8944C140.14 88.8944 141.204 87.8313 141.204 86.5199C141.204 85.2086 140.14 84.1455 138.828 84.1455C137.517 84.1455 136.453 85.2086 136.453 86.5199C136.453 87.8313 137.517 88.8944 138.828 88.8944Z" fill="white"/>
<path d="M416.66 92.0977H115.023V93.7735H416.66V92.0977Z" fill="white"/>
<path d="M416.92 56.1963H70.1484V278.198H416.92V56.1963Z" fill="#E6E6E6"/>
<path d="M416.772 56H70V70.7264H416.772V56Z" fill="#112D57"/>
<path d="M407.292 82.6045H80.3516V167.233H407.292V82.6045Z" fill="white"/>
<path d="M407.495 181.141H80.5547V265.77H407.495V181.141Z" fill="white"/>
<path d="M367.69 101.326H190.75V109.209H367.69V101.326Z" fill="#E6E6E6"/>
<path d="M253.837 121.033H190.75V128.916H253.837V121.033Z" fill="#E6E6E6"/>
<path d="M316.432 140.74H190.75V148.623H316.432V140.74Z" fill="#E6E6E6"/>
<path d="M177.443 223.021C177.452 228.761 175.781 234.377 172.635 239.178C171.976 240.191 171.253 241.161 170.472 242.082C168.639 244.252 166.505 246.148 164.134 247.711C163.489 248.138 162.826 248.538 162.145 248.911C158.602 250.87 154.69 252.074 150.658 252.447C149.741 252.537 148.809 252.579 147.869 252.579C145.293 252.582 142.727 252.247 140.238 251.582C138.827 251.211 137.447 250.732 136.11 250.149C135.427 249.854 134.759 249.533 134.106 249.187C132.537 248.363 131.046 247.397 129.652 246.303C129.003 245.798 128.378 245.266 127.776 244.707C124.175 241.371 121.461 237.191 119.88 232.544C118.299 227.897 117.9 222.93 118.72 218.091C119.54 213.252 121.552 208.693 124.576 204.825C127.599 200.958 131.539 197.904 136.038 195.94C140.538 193.975 145.456 193.162 150.349 193.572C155.242 193.983 159.955 195.606 164.064 198.293C168.173 200.981 171.547 204.648 173.883 208.966C176.219 213.283 177.442 218.114 177.443 223.022V223.021Z" fill="#112D57"/>
<path d="M149.68 209.223H146.055V236.813H149.68V209.223Z" fill="white"/>
<path d="M161.671 221.206H134.07V224.83H161.671V221.206Z" fill="white"/>
<path d="M363.261 199.862H186.32V207.745H363.261V199.862Z" fill="#E6E6E6"/>
<path d="M249.408 219.569H186.32V227.452H249.408V219.569Z" fill="#E6E6E6"/>
<path d="M312.003 239.276H186.32V247.159H312.003V239.276Z" fill="#E6E6E6"/>
<path d="M92.937 65.7617C94.2829 65.7617 95.374 64.6711 95.374 63.3257C95.374 61.9803 94.2829 60.8896 92.937 60.8896C91.5911 60.8896 90.5 61.9803 90.5 63.3257C90.5 64.6711 91.5911 65.7617 92.937 65.7617Z" fill="white"/>
<path d="M102.187 65.7617C103.533 65.7617 104.624 64.6711 104.624 63.3257C104.624 61.9803 103.533 60.8896 102.187 60.8896C100.841 60.8896 99.75 61.9803 99.75 63.3257C99.75 64.6711 100.841 65.7617 102.187 65.7617Z" fill="white"/>
<path d="M83.6636 65.7617C85.0095 65.7617 86.1006 64.6711 86.1006 63.3257C86.1006 61.9803 85.0095 60.8896 83.6636 60.8896C82.3176 60.8896 81.2266 61.9803 81.2266 63.3257C81.2266 64.6711 82.3176 65.7617 83.6636 65.7617Z" fill="white"/>
<path d="M165.605 148.693C163.021 147.331 160.323 146.196 157.542 145.301L157.187 141.38L142.807 139.831L140.979 144.843L135.818 146.779C135.633 146.849 135.457 146.94 135.294 147.051H135.289C135.001 147.246 134.755 147.497 134.568 147.79C134.38 148.082 134.254 148.41 134.198 148.753C134.142 149.094 134.155 149.442 134.236 149.778L134.509 150.896C134.901 151.131 135.305 151.354 135.709 151.567L135.965 151.698C136.555 152.003 137.155 152.292 137.771 152.559C137.897 152.614 138.033 152.668 138.158 152.723C138.169 152.728 138.175 152.728 138.186 152.734C138.475 152.854 138.764 152.968 139.059 153.077C140.026 153.447 141.013 153.764 142.015 154.026C144.573 154.708 147.208 155.052 149.855 155.052C150.821 155.052 151.775 155.008 152.719 154.915C154.876 154.716 157.005 154.287 159.07 153.634C159.075 153.634 159.08 153.628 159.086 153.628C160.39 153.213 161.664 152.708 162.899 152.118C162.905 152.112 162.916 152.112 162.921 152.107C163.199 151.976 163.467 151.834 163.74 151.698L163.87 151.632C164.089 151.518 164.307 151.403 164.525 151.283C165.071 150.983 165.605 150.667 166.134 150.329C166.282 150.242 166.424 150.149 166.571 150.051C166.778 149.914 166.985 149.773 167.187 149.625C166.68 149.298 166.151 148.987 165.605 148.693Z" fill="#3F3D56"/>
<path d="M138.61 151.109L137.709 147.046H135.358C135.334 147.046 135.311 147.048 135.287 147.051H135.282C134.437 147.123 133.623 147.404 132.914 147.869C132.433 148.176 132.006 148.559 131.648 149.004C132.347 149.533 133.072 150.023 133.82 150.492L133.853 150.509C134.065 150.64 134.283 150.771 134.502 150.896C134.894 151.131 135.298 151.354 135.702 151.567L135.958 151.698C136.548 152.003 137.148 152.292 137.764 152.559C137.89 152.614 138.026 152.668 138.151 152.723C138.162 152.728 138.168 152.728 138.179 152.734C138.468 152.854 138.757 152.968 139.052 153.077L138.61 151.109Z" fill="#3F3D56"/>
<path d="M149.427 137.352C155.148 137.352 159.785 132.716 159.785 126.999C159.785 121.281 155.148 116.646 149.427 116.646C143.707 116.646 139.07 121.281 139.07 126.999C139.07 132.716 143.707 137.352 149.427 137.352Z" fill="#FFB8B8"/>
<path d="M142.473 121.956C143.545 123.224 145.359 123.582 147.033 123.728C150.946 123.945 154.87 123.624 158.697 122.776C158.934 125.073 158.287 127.55 159.641 129.44C160.275 127.152 160.644 124.799 160.74 122.427C160.841 121.41 160.709 120.382 160.352 119.424C160.161 118.943 159.839 118.526 159.423 118.22C159.007 117.913 158.513 117.729 157.998 117.689C158.769 117.104 159.673 116.718 160.63 116.564L157.341 114.912L158.185 114.046L152.232 113.681L153.956 112.586C151.361 112.23 148.735 112.147 146.122 112.339C144.909 112.428 143.64 112.599 142.657 113.302C141.674 114.004 141.106 115.401 141.716 116.433C140.952 116.558 140.233 116.877 139.626 117.358C139.02 117.839 138.546 118.467 138.25 119.182C137.876 120.319 137.786 121.53 137.987 122.71C138.212 124.602 138.652 126.463 139.299 128.256L142.473 121.956Z" fill="#2F2E41"/>
<path d="M178.557 115.776C177.103 111.603 174.757 107.797 171.681 104.624C168.605 101.45 164.874 98.9855 160.747 97.4016C156.621 95.8178 152.198 95.1528 147.788 95.453C143.378 95.7533 139.086 97.0116 135.213 99.1401C131.339 101.269 127.977 104.216 125.36 107.777C122.743 111.338 120.934 115.427 120.061 119.759C119.187 124.09 119.269 128.56 120.301 132.857C121.333 137.153 123.29 141.173 126.036 144.636C126.309 144.979 126.593 145.323 126.882 145.655C126.904 145.677 126.92 145.699 126.942 145.721C127.653 146.54 128.409 147.319 129.206 148.055C129.413 148.246 129.631 148.442 129.85 148.627C130.264 148.998 130.69 149.353 131.132 149.691C131.306 149.827 131.475 149.964 131.655 150.094C132.354 150.623 133.079 151.114 133.827 151.583L133.86 151.6C134.072 151.73 134.29 151.861 134.509 151.987C134.901 152.221 135.305 152.445 135.709 152.658L135.965 152.788C136.555 153.094 137.155 153.383 137.771 153.65C137.897 153.705 138.033 153.759 138.158 153.814C138.169 153.819 138.175 153.819 138.186 153.825C138.475 153.945 138.764 154.059 139.059 154.168C140.026 154.538 141.013 154.854 142.015 155.117C144.573 155.798 147.208 156.143 149.855 156.142C150.821 156.142 151.775 156.099 152.719 156.006C154.876 155.807 157.005 155.377 159.07 154.724C159.075 154.724 159.081 154.719 159.086 154.719C160.39 154.304 161.664 153.799 162.899 153.208C162.905 153.203 162.916 153.203 162.921 153.197C163.199 153.067 163.467 152.925 163.74 152.788L163.87 152.723C164.089 152.608 164.307 152.494 164.525 152.374C165.071 152.074 165.605 151.758 166.134 151.42C166.282 151.332 166.424 151.24 166.571 151.141C166.778 151.005 166.985 150.863 167.187 150.716C167.455 150.531 167.722 150.34 167.984 150.144C168.066 150.084 168.153 150.024 168.235 149.958C173.346 146.08 177.098 140.684 178.952 134.543C180.806 128.403 180.668 121.833 178.557 115.776ZM167.231 148.633C167.051 148.775 166.866 148.911 166.68 149.036C166.5 149.173 166.32 149.304 166.134 149.424C165.976 149.538 165.818 149.647 165.654 149.751L165.605 149.784C165.485 149.865 165.365 149.942 165.245 150.018C164.792 150.302 164.334 150.574 163.87 150.836C163.821 150.863 163.772 150.891 163.723 150.918C163.516 151.032 163.309 151.141 163.101 151.251C163.074 151.267 163.041 151.278 163.014 151.294L162.981 151.311C162.719 151.447 162.452 151.578 162.185 151.703C161.153 152.2 160.091 152.63 159.004 152.99C158.862 153.039 158.72 153.088 158.579 153.132C156.624 153.753 154.609 154.163 152.567 154.354C151.672 154.435 150.766 154.479 149.855 154.479C147.352 154.484 144.859 154.158 142.441 153.508C141.2 153.185 139.984 152.773 138.802 152.276C138.742 152.249 138.676 152.227 138.617 152.199C138.551 152.172 138.491 152.15 138.431 152.123C138.366 152.096 138.306 152.069 138.24 152.036C137.727 151.812 137.22 151.567 136.724 151.311L136.484 151.185C135.878 150.869 135.283 150.531 134.705 150.171C134.536 150.067 134.361 149.958 134.198 149.844C134.154 149.816 134.116 149.789 134.072 149.762C133.685 149.505 133.297 149.238 132.921 148.96C132.665 148.769 132.408 148.578 132.157 148.382C131.737 148.066 131.333 147.728 130.941 147.379C130.733 147.204 130.531 147.013 130.335 146.833C129.562 146.119 128.829 145.362 128.142 144.565C127.913 144.303 127.689 144.041 127.476 143.768C127.428 143.715 127.382 143.658 127.34 143.599C123.795 139.128 121.663 133.703 121.216 128.016C120.768 122.328 122.025 116.637 124.827 111.666C127.628 106.696 131.848 102.673 136.946 100.109C142.044 97.5454 147.791 96.5579 153.453 97.2723C159.116 97.9868 164.437 100.371 168.738 104.121C173.039 107.87 176.126 112.816 177.604 118.326C179.082 123.836 178.885 129.662 177.037 135.059C175.19 140.457 171.776 145.182 167.231 148.633Z" fill="#3F3D56"/>
<path d="M437.197 261.579C435.744 257.406 433.398 253.6 430.322 250.426C427.246 247.253 423.515 244.788 419.388 243.204C415.261 241.62 410.839 240.956 406.429 241.256C402.019 241.556 397.727 242.814 393.853 244.943C389.98 247.071 386.617 250.019 384 253.58C381.383 257.141 379.575 261.23 378.701 265.561C377.827 269.893 377.909 274.363 378.942 278.659C379.974 282.956 381.931 286.976 384.677 290.438C384.949 290.782 385.233 291.125 385.522 291.458C385.544 291.48 385.56 291.502 385.582 291.523C386.293 292.342 387.049 293.122 387.846 293.858C388.054 294.048 388.272 294.245 388.49 294.43C388.905 294.801 389.33 295.155 389.772 295.494C390.635 296.173 391.535 296.805 392.467 297.386L392.5 297.402C393.105 297.779 393.722 298.128 394.349 298.46L394.606 298.591C395.195 298.897 395.795 299.186 396.411 299.453C396.537 299.507 396.673 299.562 396.799 299.616C396.81 299.622 396.815 299.622 396.826 299.627C398.072 300.145 399.351 300.577 400.656 300.92C403.213 301.601 405.849 301.946 408.495 301.945C409.461 301.945 410.416 301.901 411.36 301.809C413.516 301.61 415.645 301.18 417.71 300.527C417.716 300.527 417.721 300.522 417.726 300.522C419.031 300.106 420.305 299.602 421.54 299.011C421.545 299.006 421.556 299.006 421.562 299C421.84 298.869 422.107 298.727 422.38 298.591L422.511 298.526C422.729 298.411 422.947 298.297 423.165 298.177C423.711 297.877 424.246 297.56 424.775 297.222C424.922 297.135 425.064 297.042 425.211 296.944C425.691 296.628 426.166 296.29 426.624 295.946C426.706 295.886 426.793 295.826 426.875 295.761C431.986 291.883 435.738 286.487 437.592 280.346C439.446 274.206 439.308 267.636 437.197 261.579Z" fill="white"/>
<path d="M418.524 284.088C421.039 284.088 423.078 282.049 423.078 279.535C423.078 277.02 421.039 274.981 418.524 274.981C416.008 274.981 413.969 277.02 413.969 279.535C413.969 282.049 416.008 284.088 418.524 284.088Z" fill="#2F2E41"/>
<path d="M419.79 275.106C420.579 275.106 421.354 275.311 422.039 275.7C422.725 276.089 423.298 276.649 423.702 277.325C424.106 278.002 424.327 278.772 424.345 279.56C424.362 280.348 424.174 281.127 423.8 281.82C424.195 281.326 424.482 280.756 424.644 280.145C424.806 279.533 424.839 278.895 424.741 278.271C424.643 277.646 424.415 277.049 424.073 276.517C423.731 275.986 423.282 275.531 422.755 275.182C422.227 274.833 421.633 274.598 421.009 274.492C420.386 274.385 419.747 274.41 419.134 274.564C418.52 274.718 417.946 274.998 417.447 275.386C416.947 275.774 416.535 276.262 416.234 276.818C416.66 276.284 417.201 275.852 417.817 275.556C418.433 275.259 419.107 275.106 419.791 275.106H419.79Z" fill="#2F2E41"/>
<path d="M410.013 279.525C417.403 279.525 423.393 273.536 423.393 266.149C423.393 258.763 417.403 252.774 410.013 252.774C402.623 252.774 396.633 258.763 396.633 266.149C396.633 273.536 402.623 279.525 410.013 279.525Z" fill="#2F2E41"/>
<path d="M399.51 257.851C401.816 255.259 405.038 253.664 408.498 253.402C411.958 253.141 415.384 254.233 418.054 256.448C417.944 256.344 417.835 256.239 417.722 256.139C415.079 253.772 411.604 252.551 408.06 252.746C404.517 252.94 401.196 254.534 398.828 257.176C396.46 259.818 395.24 263.292 395.434 266.834C395.629 270.376 397.223 273.696 399.866 276.063C399.892 276.086 399.917 276.108 399.943 276.131C400.056 276.232 400.173 276.327 400.289 276.424C397.775 274.033 396.289 270.76 396.144 267.295C395.999 263.829 397.205 260.443 399.51 257.851Z" fill="#2F2E41"/>
<path d="M409.899 279.411C414.658 279.411 418.516 275.554 418.516 270.797C418.516 266.039 414.658 262.183 409.899 262.183C405.139 262.183 401.281 266.039 401.281 270.797C401.281 275.554 405.139 279.411 409.899 279.411Z" fill="#A0616A"/>
<path d="M425.318 293.241V296.131C424.789 296.47 424.254 296.786 423.708 297.086C423.49 297.206 423.272 297.32 423.054 297.435L422.923 297.5C422.65 297.637 422.383 297.778 422.104 297.909C422.099 297.915 422.088 297.915 422.083 297.92C420.848 298.511 419.573 299.015 418.269 299.431C418.264 299.431 418.258 299.436 418.253 299.436C416.188 300.089 414.059 300.519 411.903 300.718C410.959 300.81 410.004 300.854 409.038 300.854C406.392 300.855 403.756 300.51 401.199 299.829C399.894 299.486 398.615 299.054 397.369 298.536C397.358 298.531 397.353 298.531 397.342 298.525C397.216 298.471 397.08 298.416 396.954 298.362C396.338 298.095 395.738 297.806 395.149 297.5L394.892 297.369C394.265 297.037 393.648 296.688 393.043 296.311L393.01 296.295C392.078 295.714 391.178 295.083 390.315 294.403C389.873 294.065 389.448 293.71 389.033 293.339C388.815 293.154 388.597 292.958 388.389 292.767C387.592 292.031 386.836 291.252 386.125 290.433C386.219 289.865 386.358 289.305 386.54 288.758L386.545 288.753C386.578 288.66 386.616 288.569 386.66 288.48C386.69 288.402 386.724 288.326 386.763 288.251C387.74 286.424 389.508 285.972 391.701 285.874C392.939 285.819 394.308 285.879 395.754 285.863C396.518 285.857 397.309 285.83 398.1 285.759C403.092 285.306 402.186 282.362 402.41 280.775C402.634 279.237 404.019 280.567 404.112 280.655L404.117 280.66C406.942 281.982 410.068 282.529 413.174 282.247C413.708 282.182 414.243 282.143 414.778 282.127C416.185 282.111 415.88 282.514 415.394 282.847C415.159 283.002 414.913 283.14 414.658 283.261C414.658 283.261 414.434 284.625 414.205 286.664C413.987 288.617 417.729 289.533 418.04 289.604C418.046 289.608 418.054 289.61 418.062 289.609C419.429 289.255 420.867 289.293 422.214 289.718H422.219C422.988 290.001 423.675 290.471 424.216 291.087C424.757 291.702 425.136 292.442 425.318 293.241Z" fill="#112D57"/>
<path d="M397.428 296.748C397.428 297.151 397.418 297.539 397.401 297.904C397.396 298.122 397.385 298.335 397.374 298.537C397.363 298.531 397.358 298.531 397.347 298.526C397.221 298.471 397.085 298.417 396.959 298.362C396.343 298.095 395.743 297.806 395.154 297.5L394.897 297.37C394.27 297.037 393.653 296.688 393.048 296.312C393.064 296.121 393.091 295.93 393.119 295.739C393.179 295.319 393.228 294.894 393.261 294.474C393.475 291.524 392.94 288.567 391.706 285.879V285.874C391.597 285.656 391.531 285.536 391.531 285.536C391.531 285.536 393.119 284.172 395.383 285.536C395.527 285.621 395.655 285.731 395.759 285.863C397.123 287.472 397.494 292.881 397.428 296.748Z" fill="#2F2E41"/>
<path d="M422.199 296.006C422.177 296.617 422.144 297.255 422.106 297.904V297.909C422.101 297.914 422.089 297.914 422.084 297.92C420.849 298.51 419.575 299.015 418.271 299.43C418.265 299.43 418.26 299.436 418.254 299.436L418.194 297.904L418.189 297.702L417.9 290.241C417.892 290.073 417.919 289.904 417.978 289.746C418.037 289.587 418.128 289.443 418.245 289.32C418.361 289.198 418.502 289.101 418.657 289.034C418.813 288.967 418.98 288.933 419.149 288.933H421.915C422.051 288.933 422.15 289.211 422.215 289.712V289.718C422.349 291.812 422.344 293.912 422.199 296.006Z" fill="#2F2E41"/>
<path d="M402.531 260.028V268.645H404.527L407.066 265.925L406.727 268.645H415.548L415.003 265.925L416.094 268.645H417.5V260.028H402.531Z" fill="#2F2E41"/>
<path d="M401.165 270.23C401.54 270.23 401.845 269.671 401.845 268.983C401.845 268.294 401.54 267.736 401.165 267.736C400.789 267.736 400.484 268.294 400.484 268.983C400.484 269.671 400.789 270.23 401.165 270.23Z" fill="#A0616A"/>
<path d="M418.633 270.23C419.009 270.23 419.314 269.671 419.314 268.983C419.314 268.294 419.009 267.736 418.633 267.736C418.258 267.736 417.953 268.294 417.953 268.983C417.953 269.671 418.258 270.23 418.633 270.23Z" fill="#A0616A"/>
<path d="M427.168 294.855C426.71 295.199 426.235 295.537 425.755 295.853C425.608 295.951 425.466 296.044 425.319 296.131C424.789 296.469 424.255 296.786 423.709 297.085C423.491 297.205 423.273 297.32 423.055 297.434V291.425C423.055 291.425 423.927 292.123 425.319 293.284C425.493 293.432 425.673 293.584 425.864 293.748C426.268 294.086 426.704 294.457 427.168 294.855Z" fill="#112D57"/>
<path d="M437.197 261.579C435.744 257.406 433.398 253.6 430.322 250.426C427.246 247.253 423.515 244.788 419.388 243.204C415.261 241.62 410.839 240.956 406.429 241.256C402.019 241.556 397.727 242.814 393.853 244.943C389.98 247.071 386.617 250.019 384 253.58C381.383 257.141 379.575 261.23 378.701 265.561C377.827 269.893 377.909 274.363 378.942 278.659C379.974 282.956 381.931 286.976 384.677 290.438C384.949 290.782 385.233 291.125 385.522 291.458C385.544 291.48 385.56 291.502 385.582 291.523C386.293 292.342 387.049 293.122 387.846 293.858C388.054 294.048 388.272 294.245 388.49 294.43C388.905 294.801 389.33 295.155 389.772 295.494C390.635 296.173 391.535 296.805 392.467 297.386L392.5 297.402C393.105 297.779 393.722 298.128 394.349 298.46L394.606 298.591C395.195 298.897 395.795 299.186 396.411 299.453C396.537 299.507 396.673 299.562 396.799 299.616C396.81 299.622 396.815 299.622 396.826 299.627C398.072 300.145 399.351 300.577 400.656 300.92C403.213 301.601 405.849 301.946 408.495 301.945C409.461 301.945 410.416 301.901 411.36 301.809C413.516 301.61 415.645 301.18 417.71 300.527C417.716 300.527 417.721 300.522 417.726 300.522C419.031 300.106 420.305 299.602 421.54 299.011C421.545 299.006 421.556 299.006 421.562 299C421.84 298.869 422.107 298.727 422.38 298.591L422.511 298.526C422.729 298.411 422.947 298.297 423.165 298.177C423.711 297.877 424.246 297.56 424.775 297.222C424.922 297.135 425.064 297.042 425.211 296.944C425.691 296.628 426.166 296.29 426.624 295.946C426.706 295.886 426.793 295.826 426.875 295.761C431.986 291.883 435.738 286.487 437.592 280.346C439.446 274.206 439.308 267.636 437.197 261.579ZM425.871 294.436C425.691 294.577 425.506 294.714 425.32 294.839C425.14 294.975 424.96 295.106 424.775 295.226C424.617 295.341 424.458 295.45 424.295 295.554C424.158 295.646 424.022 295.734 423.885 295.821C423.433 296.104 422.975 296.377 422.511 296.639C422.462 296.666 422.413 296.693 422.363 296.721C422.156 296.835 421.949 296.944 421.742 297.053C421.714 297.07 421.681 297.081 421.654 297.097L421.621 297.113C421.36 297.25 421.092 297.38 420.825 297.506C419.793 298.003 418.731 298.432 417.644 298.793C417.503 298.842 417.361 298.891 417.219 298.935C415.264 299.556 413.249 299.966 411.207 300.156C410.312 300.238 409.406 300.282 408.495 300.282C405.992 300.287 403.499 299.96 401.081 299.311C399.841 298.987 398.625 298.575 397.443 298.078C397.317 298.029 397.192 297.975 397.071 297.926C397.006 297.899 396.946 297.871 396.88 297.839C396.368 297.615 395.861 297.37 395.364 297.113L395.124 296.988C394.518 296.672 393.924 296.333 393.345 295.973C393.133 295.843 392.92 295.706 392.713 295.564C392.058 295.134 391.42 294.67 390.798 294.185C390.378 293.868 389.974 293.53 389.581 293.181C389.374 293.007 389.172 292.816 388.976 292.636C388.202 291.922 387.47 291.165 386.782 290.367C386.553 290.106 386.33 289.844 386.117 289.571C386.068 289.517 386.023 289.461 385.98 289.402C382.436 284.931 380.304 279.506 379.856 273.818C379.408 268.131 380.666 262.439 383.467 257.469C386.269 252.499 390.488 248.475 395.586 245.912C400.685 243.348 406.432 242.361 412.094 243.075C417.756 243.79 423.077 246.174 427.378 249.923C431.679 253.673 434.766 258.618 436.244 264.129C437.722 269.639 437.525 275.464 435.678 280.862C433.83 286.26 430.416 290.985 425.871 294.436Z" fill="#3F3D56"/>
<path d="M435.484 259.196C436.238 258.923 436.923 258.488 437.49 257.921C438.058 257.355 438.494 256.671 438.769 255.918C439.043 255.164 439.149 254.36 439.079 253.561C439.009 252.763 438.764 251.989 438.363 251.295L451.106 236.547L441.06 235.24L430.499 249.445C429.378 250.197 428.571 251.334 428.232 252.64C427.892 253.947 428.044 255.332 428.659 256.534C429.273 257.736 430.307 258.671 431.565 259.162C432.823 259.652 434.218 259.665 435.484 259.196Z" fill="#FFB8B8"/>
<path d="M507.311 262.312C507.84 261.71 508.23 260.998 508.454 260.228C508.678 259.459 508.731 258.649 508.608 257.857C508.485 257.065 508.19 256.309 507.743 255.643C507.296 254.977 506.709 254.417 506.023 254.003L510.073 234.94L500.642 238.637L498.241 256.172C497.621 257.371 497.462 258.756 497.795 260.064C498.128 261.372 498.93 262.513 500.048 263.27C501.166 264.026 502.523 264.347 503.862 264.171C505.2 263.994 506.428 263.333 507.311 262.312Z" fill="#FFB8B8"/>
<path d="M461.667 361.659L454.979 361.658L451.797 335.87L461.668 335.871L461.667 361.659Z" fill="#FFB8B8"/>
<path d="M463.379 368.14L441.813 368.139V367.866C441.812 366.764 442.03 365.673 442.451 364.655C442.873 363.637 443.492 362.712 444.271 361.933C445.051 361.154 445.976 360.536 446.994 360.114C448.013 359.693 449.104 359.476 450.207 359.476L463.379 359.476L463.379 368.14Z" fill="#2F2E41"/>
<path d="M494.401 361.659L487.713 361.658L484.531 335.87L494.403 335.871L494.401 361.659Z" fill="#FFB8B8"/>
<path d="M496.113 368.14L474.547 368.139V367.866C474.547 366.764 474.764 365.673 475.186 364.655C475.608 363.637 476.226 362.712 477.005 361.933C477.785 361.154 478.71 360.536 479.729 360.114C480.747 359.693 481.839 359.476 482.941 359.476L496.113 359.476L496.113 368.14Z" fill="#2F2E41"/>
<path d="M462.371 348.193L452.903 347.815C452.258 347.787 451.649 347.506 451.208 347.034C450.767 346.561 450.53 345.934 450.548 345.288L453.215 257.826L453.389 257.764C469.983 251.763 483.711 252.217 495.357 259.149L495.487 259.226L497.085 344.41C497.091 344.736 497.032 345.06 496.912 345.363C496.791 345.667 496.611 345.943 496.383 346.175C496.154 346.408 495.882 346.593 495.581 346.719C495.28 346.846 494.957 346.911 494.63 346.911H486.647C486.078 346.91 485.527 346.712 485.088 346.351C484.649 345.989 484.348 345.487 484.238 344.93L473.362 289.627C473.324 289.436 473.22 289.265 473.067 289.144C472.915 289.023 472.724 288.96 472.529 288.967C472.334 288.975 472.148 289.051 472.005 289.183C471.862 289.315 471.77 289.493 471.747 289.687L464.907 346.037C464.831 346.631 464.542 347.178 464.094 347.575C463.645 347.972 463.068 348.192 462.468 348.195C462.436 348.195 462.404 348.195 462.371 348.193Z" fill="#2F2E41"/>
<path d="M471.579 181.125C478.979 181.125 484.978 175.128 484.978 167.731C484.978 160.334 478.979 154.337 471.579 154.337C464.179 154.337 458.18 160.334 458.18 167.731C458.18 175.128 464.179 181.125 471.579 181.125Z" fill="#FFB8B8"/>
<path d="M440.009 248.55C439.544 248.367 439.146 248.046 438.868 247.631L436.279 243.758C436 243.338 435.856 242.843 435.868 242.339C435.879 241.834 436.046 241.346 436.344 240.939L446.782 226.778L453.321 195.415C453.697 194.446 454.26 193.562 454.979 192.811C455.697 192.061 456.556 191.459 457.508 191.041C458.459 190.622 459.483 190.395 460.522 190.373C461.561 190.351 462.594 190.533 463.562 190.91C464.531 191.287 465.415 191.851 466.165 192.57C466.916 193.288 467.517 194.148 467.934 195.099C468.352 196.05 468.578 197.074 468.6 198.113C468.621 199.151 468.438 200.184 468.06 201.152L464.969 221.112C464.032 227.17 460.926 232.682 456.227 236.622L442.488 248.147C442.223 248.369 441.915 248.532 441.584 248.627C441.252 248.722 440.904 248.746 440.563 248.697C440.373 248.67 440.187 248.621 440.009 248.55Z" fill="#3F3D56"/>
<path d="M506.746 249.971C506.276 250.141 505.765 250.163 505.282 250.035L500.779 248.838C500.292 248.707 499.856 248.43 499.532 248.044C499.207 247.657 499.009 247.181 498.964 246.679L497.439 229.155L481.617 201.294C481.259 200.319 481.097 199.283 481.14 198.244C481.183 197.206 481.43 196.187 481.867 195.245C482.305 194.302 482.924 193.455 483.689 192.752C484.454 192.049 485.35 191.503 486.326 191.147C487.302 190.79 488.339 190.629 489.378 190.673C490.416 190.717 491.436 190.966 492.378 191.404C493.32 191.842 494.167 192.462 494.869 193.227C495.572 193.993 496.117 194.89 496.472 195.866L507.346 212.89C510.647 218.056 511.958 224.245 511.036 230.306L508.34 248.032C508.288 248.373 508.165 248.699 507.979 248.989C507.793 249.279 507.547 249.526 507.259 249.716C507.099 249.821 506.926 249.907 506.746 249.971Z" fill="#3F3D56"/>
<path d="M456.923 191.517C459.224 188.994 462.063 187.02 465.23 185.74C468.396 184.46 471.81 183.907 475.219 184.122C475.443 184.136 475.666 184.152 475.888 184.169C479.119 184.425 482.259 185.367 485.096 186.932C487.934 188.498 490.404 190.651 492.342 193.247C494.313 195.88 495.699 198.903 496.407 202.114C497.114 205.326 497.128 208.651 496.448 211.868C493.85 224.162 494.507 236.921 498.355 248.883L501.95 260.041C502.065 260.398 502.097 260.777 502.042 261.149C501.988 261.521 501.849 261.875 501.636 262.184C501.422 262.494 501.141 262.75 500.813 262.933C500.486 263.117 500.12 263.223 499.745 263.243L481.368 264.231L476.665 256.111V264.483L454.329 265.684C454.285 265.686 454.241 265.687 454.197 265.687C453.858 265.687 453.523 265.617 453.212 265.481C452.902 265.345 452.623 265.146 452.393 264.897C452.163 264.648 451.987 264.354 451.877 264.034C451.766 263.714 451.723 263.374 451.751 263.036L454.275 231.744L451.109 210.49C450.596 207.094 450.852 203.627 451.859 200.343C452.865 197.059 454.595 194.043 456.923 191.517Z" fill="#3F3D56"/>
<path d="M480.892 180.518C479.651 181.231 474.748 181.705 474.398 180.317L474.391 180.287C474.148 179.27 474.35 178.208 474.419 177.166C474.489 176.123 474.387 174.977 473.677 174.21C472.352 172.781 469.995 173.538 468.08 173.177C466.958 172.927 465.966 172.276 465.289 171.347C464.612 170.419 464.297 169.275 464.403 168.131C464.43 167.914 464.473 167.697 464.521 167.48C464.641 166.931 464.631 166.361 464.494 165.816C464.356 165.27 464.094 164.764 463.728 164.337C463.362 163.91 462.902 163.574 462.384 163.355C461.865 163.135 461.304 163.039 460.742 163.073C458.806 163.184 456.717 163.77 455.115 162.337C453.877 161.229 453.575 158.344 454.119 156.774C455.033 154.135 460.891 152.754 463.449 151.995C466.612 151.081 469.939 150.883 473.188 151.416C476.438 151.949 479.527 153.199 482.233 155.075C483.848 156.214 485.357 157.644 486.045 159.496C486.734 161.348 486.402 163.684 484.849 164.907C486.053 166.181 486.9 167.748 487.307 169.452C487.713 171.157 487.665 172.938 487.166 174.617C486.399 177.088 482.739 179.456 480.892 180.518Z" fill="#2F2E41"/>
<path d="M520.452 369H404.249C404.104 369 403.965 368.942 403.863 368.84C403.761 368.738 403.703 368.599 403.703 368.455C403.703 368.31 403.761 368.171 403.863 368.069C403.965 367.967 404.104 367.909 404.249 367.909H520.452C520.597 367.909 520.735 367.967 520.838 368.069C520.94 368.171 520.997 368.31 520.997 368.455C520.997 368.599 520.94 368.738 520.838 368.84C520.735 368.942 520.597 369 520.452 369Z" fill="#CCCCCC"/>
</g>
<defs>
<clipPath id="clip0_451_83364">
<rect width="451" height="313" fill="white" transform="translate(70 56)"/>
</clipPath>
</defs>
</svg>
