<svg width="625" height="456" viewBox="0 0 625 456" fill="none" xmlns="http://www.w3.org/2000/svg">
<path fill-rule="evenodd" clip-rule="evenodd" d="M314.274 77.6294C360.621 81.9924 445.408 24.4739 491.506 29.852C556.199 37.3994 595.993 73.4034 620.731 113.382C645.12 152.796 557.877 168.653 539.176 209.386C519.837 251.505 556.049 323.66 509.626 355.375C461.299 388.389 380.158 469.162 314.274 454.162C248.436 439.173 252.046 312.819 197.526 284.319C147.359 258.094 57.7646 276.042 21.7339 241.209C-14.608 206.074 0.506714 156.392 24.3671 116.914C47.3516 78.8845 68.1117 15.9093 129.124 7.64166C189.408 -0.527253 253.343 71.8933 314.274 77.6294Z" fill="#FAFAFA"/>
<g clip-path="url(#clip0_924_214863)">
<path d="M206.541 348.058C206.512 347.93 203.704 335.101 209.438 324.445C215.172 313.79 227.411 309.091 227.534 309.044L228.094 308.834L228.226 309.418C228.255 309.547 231.063 322.376 225.329 333.032C219.595 343.687 207.355 348.386 207.232 348.432L206.673 348.643L206.541 348.058ZM227.327 310.26C224.875 311.317 215.199 315.942 210.356 324.941C205.513 333.941 206.974 344.585 207.44 347.217C209.891 346.163 219.563 341.545 224.411 332.536C229.254 323.536 227.793 312.893 227.327 310.26Z" fill="#96999E"/>
<path d="M220.952 329.294C210.648 335.506 206.68 347.845 206.68 347.845C206.68 347.845 219.418 350.112 229.722 343.9C240.026 337.688 243.994 325.349 243.994 325.349C243.994 325.349 231.256 323.082 220.952 329.294Z" fill="#96999E"/>
<path d="M192.977 250.764H222.088V235.996H192.977V250.764Z" fill="#112D57"/>
<path d="M199.06 237.46C199.134 236.858 199.075 236.247 198.887 235.671C198.7 235.094 198.389 234.566 197.976 234.123C197.562 233.68 197.057 233.334 196.496 233.107C195.935 232.881 195.331 232.781 194.726 232.814L190.631 224.272L184.844 225.5L190.796 237.482C190.919 238.495 191.408 239.428 192.172 240.104C192.935 240.78 193.919 241.152 194.938 241.149C195.957 241.146 196.939 240.769 197.699 240.089C198.458 239.409 198.943 238.474 199.06 237.46Z" fill="#FFB7B7"/>
<path d="M110.148 336.639L114.965 339.109L126.765 321.667L119.656 318.021L110.148 336.639Z" fill="#FFB7B7"/>
<path d="M109.725 334.433L119.211 339.297C120.815 340.12 122.027 341.547 122.58 343.264C123.134 344.981 122.984 346.849 122.163 348.455L122.063 348.652L106.531 340.688L109.725 334.433Z" fill="#2F2E41"/>
<path d="M165.782 343.396L171.193 343.396L173.767 322.482H165.781L165.782 343.396Z" fill="#FFB7B7"/>
<path d="M164.406 341.626L175.062 341.626C176.863 341.626 178.591 342.343 179.864 343.619C181.138 344.895 181.853 346.626 181.854 348.43V348.652L164.407 348.652L164.406 341.626Z" fill="#2F2E41"/>
<path d="M140.477 172.808C140.477 172.808 136.853 170.026 136.853 176.821L136.281 199.275L142.67 220.487L146.389 213.608L144.863 198.702L140.477 172.808Z" fill="#2F2E41"/>
<path d="M179.231 234.224C179.231 234.224 183.433 254.728 178.111 271.556L175.169 336.255L164.385 335.413L160.604 287.415L156.962 263.556L149.399 285.31L124.469 331.343L112.984 322.361C112.984 322.361 125.711 287.563 135.113 280.257L139.829 226.44L179.231 234.224Z" fill="#2F2E41"/>
<path d="M166.453 145.393C173.244 145.393 178.749 139.877 178.749 133.072C178.749 126.266 173.244 120.75 166.453 120.75C159.662 120.75 154.156 126.266 154.156 133.072C154.156 139.877 159.662 145.393 166.453 145.393Z" fill="#FFB8B8"/>
<path d="M165.584 135.685C167.058 135.877 168.17 134.366 168.685 132.969C169.201 131.572 169.594 129.946 170.876 129.191C172.626 128.16 174.867 129.4 176.869 129.06C179.13 128.676 180.6 126.274 180.715 123.979C180.831 121.684 179.919 119.476 179.025 117.36L178.713 119.99C178.754 119.099 178.567 118.212 178.169 117.413C177.771 116.615 177.175 115.933 176.438 115.431L176.841 119.29C176.755 118.758 176.565 118.248 176.282 117.789C175.999 117.33 175.629 116.932 175.192 116.617C174.755 116.302 174.26 116.077 173.736 115.954C173.212 115.831 172.669 115.813 172.138 115.901L172.202 118.201C169.59 117.89 166.956 117.578 164.336 117.815C161.717 118.052 159.079 118.882 157.094 120.611C154.124 123.197 153.04 127.455 153.404 131.38C153.768 135.305 155.385 138.993 157.07 142.555C157.494 143.451 158.081 144.463 159.064 144.577C159.51 144.583 159.945 144.441 160.301 144.172C160.657 143.903 160.914 143.523 161.03 143.092C161.242 142.222 161.234 141.313 161.007 140.447C160.758 139.124 160.445 137.772 160.679 136.446C160.912 135.12 161.864 133.81 163.198 133.648C164.531 133.485 165.896 135.013 165.255 136.196L165.584 135.685Z" fill="#2F2E41"/>
<path d="M179.991 239.707L138.945 237.054L142.034 224.229L179.549 232.631L179.991 239.707Z" fill="#CBCBCB"/>
<path d="M154.678 149.876L157.252 146.294C157.252 146.294 160.13 147.274 167.837 151.118L168.381 154.474L181.758 236.922L157.443 235.871L150.822 235.73L148.655 230.862L145.983 235.626L139.517 235.488L132.938 231.667L139.421 211.792L141.519 193.638L138.277 176.534C138.277 176.534 134.198 160.829 149.91 152.36L154.678 149.876Z" fill="#2F2E41"/>
<path d="M188.383 233.073L189.266 236.169L195.444 232.137L193.113 229.462L188.383 233.073Z" fill="#CBCBCB"/>
<path d="M159.281 159.841C159.281 159.841 168.859 147.588 174.648 161.245L176.474 175.556C176.474 175.556 183.487 193.346 183.698 200.543C183.698 200.543 188.452 209.936 188.409 214.87L195.442 230.827L188.228 235.315L168.263 204.639L159.281 159.841Z" fill="#2F2E41"/>
<path d="M254.193 349H55.5214C55.3832 349 55.2505 348.945 55.1527 348.847C55.0549 348.749 55 348.616 55 348.477C55 348.339 55.0549 348.206 55.1527 348.108C55.2505 348.01 55.3832 347.955 55.5214 347.955H254.193C254.332 347.955 254.464 348.01 254.562 348.108C254.66 348.206 254.715 348.339 254.715 348.477C254.715 348.616 254.66 348.749 254.562 348.847C254.464 348.945 254.332 349 254.193 349Z" fill="#CBCBCB"/>
<path d="M294.125 188.681H534.024V66.9832H294.125V188.681Z" fill="white"/>
<path d="M535.997 190.665H292.141V65H535.997V190.665ZM296.099 186.698H532.039V68.9661H296.099V186.698Z" fill="#9DA9BA"/>
<path d="M485.995 89.1462H440.797V166.52H485.995V89.1462Z" fill="#9DA9BA"/>
<path d="M433.315 89.1449H342.148V110.443H433.315V89.1449Z" fill="#112D57"/>
<path d="M433.315 116.374H342.148V139.289H433.315V116.374Z" fill="#9DA9BA"/>
<path d="M433.315 145.22H342.148V166.518H433.315V145.22Z" fill="#9DA9BA"/>
</g>
<path d="M225.323 11.928C225.398 11.928 225.463 11.9583 225.519 12.019L226.058 12.6C225.647 13.076 225.148 13.447 224.56 13.713C223.977 13.979 223.27 14.112 222.439 14.112C221.72 14.112 221.067 13.9883 220.479 13.741C219.891 13.489 219.389 13.139 218.974 12.691C218.559 12.2383 218.237 11.697 218.008 11.067C217.779 10.437 217.665 9.744 217.665 8.988C217.665 8.232 217.784 7.539 218.022 6.909C218.26 6.279 218.594 5.73767 219.023 5.285C219.457 4.83233 219.975 4.48233 220.577 4.235C221.179 3.983 221.844 3.857 222.572 3.857C223.286 3.857 223.916 3.97133 224.462 4.2C225.008 4.42867 225.489 4.739 225.904 5.131L225.456 5.754C225.428 5.80067 225.391 5.84033 225.344 5.873C225.302 5.901 225.244 5.915 225.169 5.915C225.085 5.915 224.982 5.87067 224.861 5.782C224.74 5.68867 224.581 5.586 224.385 5.474C224.189 5.362 223.944 5.26167 223.65 5.173C223.356 5.07967 222.994 5.033 222.565 5.033C222.047 5.033 221.573 5.124 221.144 5.306C220.715 5.48333 220.344 5.74233 220.031 6.083C219.723 6.42367 219.483 6.839 219.31 7.329C219.137 7.819 219.051 8.372 219.051 8.988C219.051 9.61333 219.14 10.171 219.317 10.661C219.499 11.151 219.744 11.5663 220.052 11.907C220.365 12.243 220.731 12.4997 221.151 12.677C221.576 12.8543 222.033 12.943 222.523 12.943C222.822 12.943 223.09 12.9267 223.328 12.894C223.571 12.8567 223.792 12.8007 223.993 12.726C224.198 12.6513 224.387 12.558 224.56 12.446C224.737 12.3293 224.912 12.1917 225.085 12.033C225.164 11.963 225.244 11.928 225.323 11.928ZM228.481 8.33C228.705 7.84467 228.98 7.46667 229.307 7.196C229.633 6.92067 230.032 6.783 230.504 6.783C230.653 6.783 230.795 6.79933 230.931 6.832C231.071 6.86467 231.194 6.916 231.302 6.986L231.211 7.917C231.183 8.03367 231.113 8.092 231.001 8.092C230.935 8.092 230.84 8.078 230.714 8.05C230.588 8.022 230.445 8.008 230.287 8.008C230.063 8.008 229.862 8.04067 229.685 8.106C229.512 8.17133 229.356 8.26933 229.216 8.4C229.08 8.526 228.957 8.68467 228.845 8.876C228.737 9.06267 228.639 9.27733 228.551 9.52V14H227.298V6.909H228.012C228.147 6.909 228.24 6.93467 228.292 6.986C228.343 7.03733 228.378 7.126 228.397 7.252L228.481 8.33ZM236.856 9.681C236.856 9.39167 236.814 9.128 236.73 8.89C236.651 8.64733 236.532 8.43967 236.373 8.267C236.219 8.08967 236.03 7.95433 235.806 7.861C235.582 7.763 235.328 7.714 235.043 7.714C234.446 7.714 233.972 7.889 233.622 8.239C233.277 8.58433 233.062 9.065 232.978 9.681H236.856ZM237.864 13.006C237.71 13.1927 237.526 13.356 237.311 13.496C237.096 13.6313 236.865 13.7433 236.618 13.832C236.375 13.9207 236.123 13.986 235.862 14.028C235.601 14.0747 235.342 14.098 235.085 14.098C234.595 14.098 234.142 14.0163 233.727 13.853C233.316 13.685 232.959 13.4423 232.656 13.125C232.357 12.803 232.124 12.4063 231.956 11.935C231.788 11.4637 231.704 10.9223 231.704 10.311C231.704 9.81633 231.779 9.35433 231.928 8.925C232.082 8.49567 232.301 8.12467 232.586 7.812C232.871 7.49467 233.218 7.24733 233.629 7.07C234.04 6.888 234.502 6.797 235.015 6.797C235.44 6.797 235.832 6.86933 236.191 7.014C236.555 7.154 236.868 7.35933 237.129 7.63C237.395 7.896 237.603 8.22733 237.752 8.624C237.901 9.016 237.976 9.464 237.976 9.968C237.976 10.164 237.955 10.2947 237.913 10.36C237.871 10.4253 237.792 10.458 237.675 10.458H232.936C232.95 10.906 233.011 11.2957 233.118 11.627C233.23 11.9583 233.384 12.236 233.58 12.46C233.776 12.6793 234.009 12.845 234.28 12.957C234.551 13.0643 234.854 13.118 235.19 13.118C235.503 13.118 235.771 13.083 235.995 13.013C236.224 12.9383 236.42 12.859 236.583 12.775C236.746 12.691 236.882 12.614 236.989 12.544C237.101 12.4693 237.197 12.432 237.276 12.432C237.379 12.432 237.458 12.4717 237.514 12.551L237.864 13.006ZM243.35 10.808C242.776 10.8267 242.286 10.8733 241.88 10.948C241.478 11.018 241.149 11.1113 240.893 11.228C240.641 11.3447 240.456 11.4823 240.34 11.641C240.228 11.7997 240.172 11.977 240.172 12.173C240.172 12.3597 240.202 12.5207 240.263 12.656C240.323 12.7913 240.405 12.9033 240.508 12.992C240.615 13.076 240.739 13.139 240.879 13.181C241.023 13.2183 241.177 13.237 241.341 13.237C241.56 13.237 241.761 13.216 241.943 13.174C242.125 13.1273 242.295 13.062 242.454 12.978C242.617 12.894 242.771 12.7937 242.916 12.677C243.065 12.5603 243.21 12.4273 243.35 12.278V10.808ZM239.325 7.91C239.717 7.532 240.139 7.24967 240.592 7.063C241.044 6.87633 241.546 6.783 242.097 6.783C242.493 6.783 242.846 6.84833 243.154 6.979C243.462 7.10967 243.721 7.29167 243.931 7.525C244.141 7.75833 244.299 8.04067 244.407 8.372C244.514 8.70333 244.568 9.06733 244.568 9.464V14H244.015C243.893 14 243.8 13.9813 243.735 13.944C243.669 13.902 243.618 13.8227 243.581 13.706L243.441 13.034C243.254 13.2067 243.072 13.3607 242.895 13.496C242.717 13.6267 242.531 13.7387 242.335 13.832C242.139 13.9207 241.929 13.9883 241.705 14.035C241.485 14.0863 241.24 14.112 240.97 14.112C240.694 14.112 240.435 14.0747 240.193 14C239.95 13.9207 239.738 13.804 239.556 13.65C239.378 13.496 239.236 13.3023 239.129 13.069C239.026 12.831 238.975 12.551 238.975 12.229C238.975 11.949 239.052 11.6807 239.206 11.424C239.36 11.1627 239.609 10.9317 239.955 10.731C240.3 10.5303 240.75 10.367 241.306 10.241C241.861 10.1103 242.542 10.0357 243.35 10.017V9.464C243.35 8.91333 243.231 8.498 242.993 8.218C242.755 7.93333 242.407 7.791 241.95 7.791C241.642 7.791 241.383 7.83067 241.173 7.91C240.967 7.98467 240.788 8.071 240.634 8.169C240.484 8.26233 240.354 8.34867 240.242 8.428C240.134 8.50267 240.027 8.54 239.92 8.54C239.836 8.54 239.763 8.519 239.703 8.477C239.642 8.43033 239.591 8.37433 239.549 8.309L239.325 7.91ZM248.547 14.112C247.987 14.112 247.555 13.9557 247.252 13.643C246.953 13.3303 246.804 12.88 246.804 12.292V7.952H245.95C245.875 7.952 245.812 7.931 245.761 7.889C245.709 7.84233 245.684 7.77233 245.684 7.679V7.182L246.846 7.035L247.133 4.844C247.147 4.774 247.177 4.718 247.224 4.676C247.275 4.62933 247.34 4.606 247.42 4.606H248.05V7.049H250.101V7.952H248.05V12.208C248.05 12.5067 248.122 12.7283 248.267 12.873C248.411 13.0177 248.598 13.09 248.827 13.09C248.957 13.09 249.069 13.0737 249.163 13.041C249.261 13.0037 249.345 12.964 249.415 12.922C249.485 12.88 249.543 12.8427 249.59 12.81C249.641 12.7727 249.685 12.754 249.723 12.754C249.788 12.754 249.846 12.7937 249.898 12.873L250.262 13.468C250.047 13.6687 249.788 13.8273 249.485 13.944C249.181 14.056 248.869 14.112 248.547 14.112ZM256.092 9.681C256.092 9.39167 256.05 9.128 255.966 8.89C255.887 8.64733 255.768 8.43967 255.609 8.267C255.455 8.08967 255.266 7.95433 255.042 7.861C254.818 7.763 254.564 7.714 254.279 7.714C253.682 7.714 253.208 7.889 252.858 8.239C252.513 8.58433 252.298 9.065 252.214 9.681H256.092ZM257.1 13.006C256.946 13.1927 256.762 13.356 256.547 13.496C256.333 13.6313 256.102 13.7433 255.854 13.832C255.612 13.9207 255.36 13.986 255.098 14.028C254.837 14.0747 254.578 14.098 254.321 14.098C253.831 14.098 253.379 14.0163 252.963 13.853C252.553 13.685 252.196 13.4423 251.892 13.125C251.594 12.803 251.36 12.4063 251.192 11.935C251.024 11.4637 250.94 10.9223 250.94 10.311C250.94 9.81633 251.015 9.35433 251.164 8.925C251.318 8.49567 251.538 8.12467 251.822 7.812C252.107 7.49467 252.455 7.24733 252.865 7.07C253.276 6.888 253.738 6.797 254.251 6.797C254.676 6.797 255.068 6.86933 255.427 7.014C255.791 7.154 256.104 7.35933 256.365 7.63C256.631 7.896 256.839 8.22733 256.988 8.624C257.138 9.016 257.212 9.464 257.212 9.968C257.212 10.164 257.191 10.2947 257.149 10.36C257.107 10.4253 257.028 10.458 256.911 10.458H252.172C252.186 10.906 252.247 11.2957 252.354 11.627C252.466 11.9583 252.62 12.236 252.816 12.46C253.012 12.6793 253.246 12.845 253.516 12.957C253.787 13.0643 254.09 13.118 254.426 13.118C254.739 13.118 255.007 13.083 255.231 13.013C255.46 12.9383 255.656 12.859 255.819 12.775C255.983 12.691 256.118 12.614 256.225 12.544C256.337 12.4693 256.433 12.432 256.512 12.432C256.615 12.432 256.694 12.4717 256.75 12.551L257.1 13.006ZM263.613 3.689V14H262.367V3.689H263.613ZM270.379 9.681C270.379 9.39167 270.337 9.128 270.253 8.89C270.174 8.64733 270.055 8.43967 269.896 8.267C269.742 8.08967 269.553 7.95433 269.329 7.861C269.105 7.763 268.851 7.714 268.566 7.714C267.969 7.714 267.495 7.889 267.145 8.239C266.8 8.58433 266.585 9.065 266.501 9.681H270.379ZM271.387 13.006C271.233 13.1927 271.049 13.356 270.834 13.496C270.62 13.6313 270.389 13.7433 270.141 13.832C269.899 13.9207 269.647 13.986 269.385 14.028C269.124 14.0747 268.865 14.098 268.608 14.098C268.118 14.098 267.666 14.0163 267.25 13.853C266.84 13.685 266.483 13.4423 266.179 13.125C265.881 12.803 265.647 12.4063 265.479 11.935C265.311 11.4637 265.227 10.9223 265.227 10.311C265.227 9.81633 265.302 9.35433 265.451 8.925C265.605 8.49567 265.825 8.12467 266.109 7.812C266.394 7.49467 266.742 7.24733 267.152 7.07C267.563 6.888 268.025 6.797 268.538 6.797C268.963 6.797 269.355 6.86933 269.714 7.014C270.078 7.154 270.391 7.35933 270.652 7.63C270.918 7.896 271.126 8.22733 271.275 8.624C271.425 9.016 271.499 9.464 271.499 9.968C271.499 10.164 271.478 10.2947 271.436 10.36C271.394 10.4253 271.315 10.458 271.198 10.458H266.459C266.473 10.906 266.534 11.2957 266.641 11.627C266.753 11.9583 266.907 12.236 267.103 12.46C267.299 12.6793 267.533 12.845 267.803 12.957C268.074 13.0643 268.377 13.118 268.713 13.118C269.026 13.118 269.294 13.083 269.518 13.013C269.747 12.9383 269.943 12.859 270.106 12.775C270.27 12.691 270.405 12.614 270.512 12.544C270.624 12.4693 270.72 12.432 270.799 12.432C270.902 12.432 270.981 12.4717 271.037 12.551L271.387 13.006ZM278.956 6.909L276.065 14H274.945L272.054 6.909H273.069C273.171 6.909 273.255 6.93467 273.321 6.986C273.386 7.03733 273.43 7.098 273.454 7.168L275.253 11.732C275.309 11.9047 275.358 12.0727 275.4 12.236C275.442 12.3993 275.481 12.5627 275.519 12.726C275.556 12.5627 275.596 12.3993 275.638 12.236C275.68 12.0727 275.731 11.9047 275.792 11.732L277.612 7.168C277.64 7.09333 277.686 7.03267 277.752 6.986C277.817 6.93467 277.894 6.909 277.983 6.909H278.956ZM284.653 9.681C284.653 9.39167 284.611 9.128 284.527 8.89C284.448 8.64733 284.329 8.43967 284.17 8.267C284.016 8.08967 283.827 7.95433 283.603 7.861C283.379 7.763 283.125 7.714 282.84 7.714C282.243 7.714 281.769 7.889 281.419 8.239C281.074 8.58433 280.859 9.065 280.775 9.681H284.653ZM285.661 13.006C285.507 13.1927 285.323 13.356 285.108 13.496C284.893 13.6313 284.662 13.7433 284.415 13.832C284.172 13.9207 283.92 13.986 283.659 14.028C283.398 14.0747 283.139 14.098 282.882 14.098C282.392 14.098 281.939 14.0163 281.524 13.853C281.113 13.685 280.756 13.4423 280.453 13.125C280.154 12.803 279.921 12.4063 279.753 11.935C279.585 11.4637 279.501 10.9223 279.501 10.311C279.501 9.81633 279.576 9.35433 279.725 8.925C279.879 8.49567 280.098 8.12467 280.383 7.812C280.668 7.49467 281.015 7.24733 281.426 7.07C281.837 6.888 282.299 6.797 282.812 6.797C283.237 6.797 283.629 6.86933 283.988 7.014C284.352 7.154 284.665 7.35933 284.926 7.63C285.192 7.896 285.4 8.22733 285.549 8.624C285.698 9.016 285.773 9.464 285.773 9.968C285.773 10.164 285.752 10.2947 285.71 10.36C285.668 10.4253 285.589 10.458 285.472 10.458H280.733C280.747 10.906 280.808 11.2957 280.915 11.627C281.027 11.9583 281.181 12.236 281.377 12.46C281.573 12.6793 281.806 12.845 282.077 12.957C282.348 13.0643 282.651 13.118 282.987 13.118C283.3 13.118 283.568 13.083 283.792 13.013C284.021 12.9383 284.217 12.859 284.38 12.775C284.543 12.691 284.679 12.614 284.786 12.544C284.898 12.4693 284.994 12.432 285.073 12.432C285.176 12.432 285.255 12.4717 285.311 12.551L285.661 13.006ZM288.591 3.689V14H287.345V3.689H288.591ZM294.742 8.078C294.686 8.18067 294.6 8.232 294.483 8.232C294.413 8.232 294.334 8.20633 294.245 8.155C294.156 8.10367 294.047 8.04767 293.916 7.987C293.79 7.92167 293.638 7.86333 293.461 7.812C293.284 7.756 293.074 7.728 292.831 7.728C292.621 7.728 292.432 7.756 292.264 7.812C292.096 7.86333 291.951 7.93567 291.83 8.029C291.713 8.12233 291.622 8.232 291.557 8.358C291.496 8.47933 291.466 8.61233 291.466 8.757C291.466 8.939 291.517 9.09067 291.62 9.212C291.727 9.33333 291.867 9.43833 292.04 9.527C292.213 9.61567 292.409 9.695 292.628 9.765C292.847 9.83033 293.071 9.90267 293.3 9.982C293.533 10.0567 293.76 10.1407 293.979 10.234C294.198 10.3273 294.394 10.444 294.567 10.584C294.74 10.724 294.877 10.8967 294.98 11.102C295.087 11.3027 295.141 11.5453 295.141 11.83C295.141 12.1567 295.083 12.46 294.966 12.74C294.849 13.0153 294.677 13.2557 294.448 13.461C294.219 13.6617 293.939 13.8203 293.608 13.937C293.277 14.0537 292.894 14.112 292.46 14.112C291.965 14.112 291.517 14.0327 291.116 13.874C290.715 13.7107 290.374 13.503 290.094 13.251L290.388 12.775C290.425 12.7143 290.47 12.6677 290.521 12.635C290.572 12.6023 290.638 12.586 290.717 12.586C290.801 12.586 290.89 12.6187 290.983 12.684C291.076 12.7493 291.188 12.8217 291.319 12.901C291.454 12.9803 291.618 13.0527 291.809 13.118C292 13.1833 292.238 13.216 292.523 13.216C292.766 13.216 292.978 13.1857 293.16 13.125C293.342 13.0597 293.494 12.9733 293.615 12.866C293.736 12.7587 293.825 12.635 293.881 12.495C293.942 12.355 293.972 12.2057 293.972 12.047C293.972 11.851 293.918 11.69 293.811 11.564C293.708 11.4333 293.571 11.3237 293.398 11.235C293.225 11.1417 293.027 11.0623 292.803 10.997C292.584 10.927 292.357 10.8547 292.124 10.78C291.895 10.7053 291.669 10.6213 291.445 10.528C291.226 10.43 291.03 10.3087 290.857 10.164C290.684 10.0193 290.544 9.842 290.437 9.632C290.334 9.41733 290.283 9.15833 290.283 8.855C290.283 8.58433 290.339 8.32533 290.451 8.078C290.563 7.826 290.726 7.60667 290.941 7.42C291.156 7.22867 291.419 7.077 291.732 6.965C292.045 6.853 292.402 6.797 292.803 6.797C293.27 6.797 293.687 6.87167 294.056 7.021C294.429 7.16567 294.751 7.36633 295.022 7.623L294.742 8.078ZM300.713 14V7.973L299.929 7.882C299.831 7.85867 299.749 7.82367 299.684 7.777C299.623 7.72567 299.593 7.65333 299.593 7.56V7.049H300.713V6.363C300.713 5.957 300.769 5.59767 300.881 5.285C300.997 4.96767 301.161 4.70167 301.371 4.487C301.585 4.26767 301.842 4.102 302.141 3.99C302.439 3.878 302.775 3.822 303.149 3.822C303.466 3.822 303.758 3.86867 304.024 3.962L303.996 4.585C303.986 4.697 303.923 4.75767 303.807 4.767C303.695 4.77633 303.543 4.781 303.352 4.781C303.137 4.781 302.941 4.809 302.764 4.865C302.591 4.921 302.442 5.012 302.316 5.138C302.19 5.264 302.092 5.42967 302.022 5.635C301.956 5.84033 301.924 6.09467 301.924 6.398V7.049H303.968V7.952H301.966V14H300.713ZM307.915 6.797C308.433 6.797 308.9 6.88333 309.315 7.056C309.731 7.22867 310.085 7.47367 310.379 7.791C310.673 8.10833 310.897 8.49333 311.051 8.946C311.21 9.394 311.289 9.89567 311.289 10.451C311.289 11.011 311.21 11.515 311.051 11.963C310.897 12.411 310.673 12.7937 310.379 13.111C310.085 13.4283 309.731 13.6733 309.315 13.846C308.9 14.014 308.433 14.098 307.915 14.098C307.393 14.098 306.921 14.014 306.501 13.846C306.086 13.6733 305.731 13.4283 305.437 13.111C305.143 12.7937 304.917 12.411 304.758 11.963C304.604 11.515 304.527 11.011 304.527 10.451C304.527 9.89567 304.604 9.394 304.758 8.946C304.917 8.49333 305.143 8.10833 305.437 7.791C305.731 7.47367 306.086 7.22867 306.501 7.056C306.921 6.88333 307.393 6.797 307.915 6.797ZM307.915 13.125C308.615 13.125 309.138 12.8917 309.483 12.425C309.829 11.9537 310.001 11.298 310.001 10.458C310.001 9.61333 309.829 8.95533 309.483 8.484C309.138 8.01267 308.615 7.777 307.915 7.777C307.561 7.777 307.25 7.83767 306.984 7.959C306.723 8.08033 306.504 8.25533 306.326 8.484C306.154 8.71267 306.023 8.995 305.934 9.331C305.85 9.66233 305.808 10.038 305.808 10.458C305.808 11.298 305.981 11.9537 306.326 12.425C306.676 12.8917 307.206 13.125 307.915 13.125ZM314.053 8.33C314.277 7.84467 314.552 7.46667 314.879 7.196C315.205 6.92067 315.604 6.783 316.076 6.783C316.225 6.783 316.367 6.79933 316.503 6.832C316.643 6.86467 316.766 6.916 316.874 6.986L316.783 7.917C316.755 8.03367 316.685 8.092 316.573 8.092C316.507 8.092 316.412 8.078 316.286 8.05C316.16 8.022 316.017 8.008 315.859 8.008C315.635 8.008 315.434 8.04067 315.257 8.106C315.084 8.17133 314.928 8.26933 314.788 8.4C314.652 8.526 314.529 8.68467 314.417 8.876C314.309 9.06267 314.211 9.27733 314.123 9.52V14H312.87V6.909H313.584C313.719 6.909 313.812 6.93467 313.864 6.986C313.915 7.03733 313.95 7.126 313.969 7.252L314.053 8.33ZM325.094 10.808C324.52 10.8267 324.03 10.8733 323.624 10.948C323.222 11.018 322.893 11.1113 322.637 11.228C322.385 11.3447 322.2 11.4823 322.084 11.641C321.972 11.7997 321.916 11.977 321.916 12.173C321.916 12.3597 321.946 12.5207 322.007 12.656C322.067 12.7913 322.149 12.9033 322.252 12.992C322.359 13.076 322.483 13.139 322.623 13.181C322.767 13.2183 322.921 13.237 323.085 13.237C323.304 13.237 323.505 13.216 323.687 13.174C323.869 13.1273 324.039 13.062 324.198 12.978C324.361 12.894 324.515 12.7937 324.66 12.677C324.809 12.5603 324.954 12.4273 325.094 12.278V10.808ZM321.069 7.91C321.461 7.532 321.883 7.24967 322.336 7.063C322.788 6.87633 323.29 6.783 323.841 6.783C324.237 6.783 324.59 6.84833 324.898 6.979C325.206 7.10967 325.465 7.29167 325.675 7.525C325.885 7.75833 326.043 8.04067 326.151 8.372C326.258 8.70333 326.312 9.06733 326.312 9.464V14H325.759C325.637 14 325.544 13.9813 325.479 13.944C325.413 13.902 325.362 13.8227 325.325 13.706L325.185 13.034C324.998 13.2067 324.816 13.3607 324.639 13.496C324.461 13.6267 324.275 13.7387 324.079 13.832C323.883 13.9207 323.673 13.9883 323.449 14.035C323.229 14.0863 322.984 14.112 322.714 14.112C322.438 14.112 322.179 14.0747 321.937 14C321.694 13.9207 321.482 13.804 321.3 13.65C321.122 13.496 320.98 13.3023 320.873 13.069C320.77 12.831 320.719 12.551 320.719 12.229C320.719 11.949 320.796 11.6807 320.95 11.424C321.104 11.1627 321.353 10.9317 321.699 10.731C322.044 10.5303 322.494 10.367 323.05 10.241C323.605 10.1103 324.286 10.0357 325.094 10.017V9.464C325.094 8.91333 324.975 8.498 324.737 8.218C324.499 7.93333 324.151 7.791 323.694 7.791C323.386 7.791 323.127 7.83067 322.917 7.91C322.711 7.98467 322.532 8.071 322.378 8.169C322.228 8.26233 322.098 8.34867 321.986 8.428C321.878 8.50267 321.771 8.54 321.664 8.54C321.58 8.54 321.507 8.519 321.447 8.477C321.386 8.43033 321.335 8.37433 321.293 8.309L321.069 7.91ZM329.463 12.292C329.691 12.6 329.941 12.817 330.212 12.943C330.482 13.069 330.786 13.132 331.122 13.132C331.784 13.132 332.293 12.8963 332.648 12.425C333.002 11.9537 333.18 11.2817 333.18 10.409C333.18 9.947 333.138 9.55033 333.054 9.219C332.974 8.88767 332.858 8.617 332.704 8.407C332.55 8.19233 332.361 8.036 332.137 7.938C331.913 7.84 331.658 7.791 331.374 7.791C330.968 7.791 330.611 7.88433 330.303 8.071C329.999 8.25767 329.719 8.52133 329.463 8.862V12.292ZM329.4 8.008C329.698 7.63933 330.044 7.343 330.436 7.119C330.828 6.895 331.276 6.783 331.78 6.783C332.19 6.783 332.561 6.86233 332.893 7.021C333.224 7.175 333.506 7.406 333.74 7.714C333.973 8.01733 334.153 8.39533 334.279 8.848C334.405 9.30067 334.468 9.821 334.468 10.409C334.468 10.9317 334.398 11.4193 334.258 11.872C334.118 12.32 333.915 12.7097 333.649 13.041C333.387 13.3677 333.065 13.6267 332.683 13.818C332.305 14.0047 331.878 14.098 331.402 14.098C330.968 14.098 330.594 14.0257 330.282 13.881C329.974 13.7317 329.701 13.5263 329.463 13.265V16.401H328.21V6.909H328.959C329.136 6.909 329.246 6.99533 329.288 7.168L329.4 8.008ZM337.31 12.292C337.539 12.6 337.789 12.817 338.059 12.943C338.33 13.069 338.633 13.132 338.969 13.132C339.632 13.132 340.141 12.8963 340.495 12.425C340.85 11.9537 341.027 11.2817 341.027 10.409C341.027 9.947 340.985 9.55033 340.901 9.219C340.822 8.88767 340.705 8.617 340.551 8.407C340.397 8.19233 340.208 8.036 339.984 7.938C339.76 7.84 339.506 7.791 339.221 7.791C338.815 7.791 338.458 7.88433 338.15 8.071C337.847 8.25767 337.567 8.52133 337.31 8.862V12.292ZM337.247 8.008C337.546 7.63933 337.891 7.343 338.283 7.119C338.675 6.895 339.123 6.783 339.627 6.783C340.038 6.783 340.409 6.86233 340.74 7.021C341.072 7.175 341.354 7.406 341.587 7.714C341.821 8.01733 342 8.39533 342.126 8.848C342.252 9.30067 342.315 9.821 342.315 10.409C342.315 10.9317 342.245 11.4193 342.105 11.872C341.965 12.32 341.762 12.7097 341.496 13.041C341.235 13.3677 340.913 13.6267 340.53 13.818C340.152 14.0047 339.725 14.098 339.249 14.098C338.815 14.098 338.442 14.0257 338.129 13.881C337.821 13.7317 337.548 13.5263 337.31 13.265V16.401H336.057V6.909H336.806C336.984 6.909 337.093 6.99533 337.135 7.168L337.247 8.008ZM345.088 8.33C345.312 7.84467 345.587 7.46667 345.914 7.196C346.241 6.92067 346.64 6.783 347.111 6.783C347.26 6.783 347.403 6.79933 347.538 6.832C347.678 6.86467 347.802 6.916 347.909 6.986L347.818 7.917C347.79 8.03367 347.72 8.092 347.608 8.092C347.543 8.092 347.447 8.078 347.321 8.05C347.195 8.022 347.053 8.008 346.894 8.008C346.67 8.008 346.469 8.04067 346.292 8.106C346.119 8.17133 345.963 8.26933 345.823 8.4C345.688 8.526 345.564 8.68467 345.452 8.876C345.345 9.06267 345.247 9.27733 345.158 9.52V14H343.905V6.909H344.619C344.754 6.909 344.848 6.93467 344.899 6.986C344.95 7.03733 344.985 7.126 345.004 7.252L345.088 8.33ZM351.706 6.797C352.224 6.797 352.691 6.88333 353.106 7.056C353.522 7.22867 353.876 7.47367 354.17 7.791C354.464 8.10833 354.688 8.49333 354.842 8.946C355.001 9.394 355.08 9.89567 355.08 10.451C355.08 11.011 355.001 11.515 354.842 11.963C354.688 12.411 354.464 12.7937 354.17 13.111C353.876 13.4283 353.522 13.6733 353.106 13.846C352.691 14.014 352.224 14.098 351.706 14.098C351.184 14.098 350.712 14.014 350.292 13.846C349.877 13.6733 349.522 13.4283 349.228 13.111C348.934 12.7937 348.708 12.411 348.549 11.963C348.395 11.515 348.318 11.011 348.318 10.451C348.318 9.89567 348.395 9.394 348.549 8.946C348.708 8.49333 348.934 8.10833 349.228 7.791C349.522 7.47367 349.877 7.22867 350.292 7.056C350.712 6.88333 351.184 6.797 351.706 6.797ZM351.706 13.125C352.406 13.125 352.929 12.8917 353.274 12.425C353.62 11.9537 353.792 11.298 353.792 10.458C353.792 9.61333 353.62 8.95533 353.274 8.484C352.929 8.01267 352.406 7.777 351.706 7.777C351.352 7.777 351.041 7.83767 350.775 7.959C350.514 8.08033 350.295 8.25533 350.117 8.484C349.945 8.71267 349.814 8.995 349.725 9.331C349.641 9.66233 349.599 10.038 349.599 10.458C349.599 11.298 349.772 11.9537 350.117 12.425C350.467 12.8917 350.997 13.125 351.706 13.125ZM362.545 6.909L359.654 14H358.534L355.643 6.909H356.658C356.761 6.909 356.845 6.93467 356.91 6.986C356.976 7.03733 357.02 7.098 357.043 7.168L358.842 11.732C358.898 11.9047 358.947 12.0727 358.989 12.236C359.031 12.3993 359.071 12.5627 359.108 12.726C359.146 12.5627 359.185 12.3993 359.227 12.236C359.269 12.0727 359.321 11.9047 359.381 11.732L361.201 7.168C361.229 7.09333 361.276 7.03267 361.341 6.986C361.407 6.93467 361.484 6.909 361.572 6.909H362.545ZM367.381 10.808C366.807 10.8267 366.317 10.8733 365.911 10.948C365.509 11.018 365.18 11.1113 364.924 11.228C364.672 11.3447 364.487 11.4823 364.371 11.641C364.259 11.7997 364.203 11.977 364.203 12.173C364.203 12.3597 364.233 12.5207 364.294 12.656C364.354 12.7913 364.436 12.9033 364.539 12.992C364.646 13.076 364.77 13.139 364.91 13.181C365.054 13.2183 365.208 13.237 365.372 13.237C365.591 13.237 365.792 13.216 365.974 13.174C366.156 13.1273 366.326 13.062 366.485 12.978C366.648 12.894 366.802 12.7937 366.947 12.677C367.096 12.5603 367.241 12.4273 367.381 12.278V10.808ZM363.356 7.91C363.748 7.532 364.17 7.24967 364.623 7.063C365.075 6.87633 365.577 6.783 366.128 6.783C366.524 6.783 366.877 6.84833 367.185 6.979C367.493 7.10967 367.752 7.29167 367.962 7.525C368.172 7.75833 368.33 8.04067 368.438 8.372C368.545 8.70333 368.599 9.06733 368.599 9.464V14H368.046C367.924 14 367.831 13.9813 367.766 13.944C367.7 13.902 367.649 13.8227 367.612 13.706L367.472 13.034C367.285 13.2067 367.103 13.3607 366.926 13.496C366.748 13.6267 366.562 13.7387 366.366 13.832C366.17 13.9207 365.96 13.9883 365.736 14.035C365.516 14.0863 365.271 14.112 365.001 14.112C364.725 14.112 364.466 14.0747 364.224 14C363.981 13.9207 363.769 13.804 363.587 13.65C363.409 13.496 363.267 13.3023 363.16 13.069C363.057 12.831 363.006 12.551 363.006 12.229C363.006 11.949 363.083 11.6807 363.237 11.424C363.391 11.1627 363.64 10.9317 363.986 10.731C364.331 10.5303 364.781 10.367 365.337 10.241C365.892 10.1103 366.573 10.0357 367.381 10.017V9.464C367.381 8.91333 367.262 8.498 367.024 8.218C366.786 7.93333 366.438 7.791 365.981 7.791C365.673 7.791 365.414 7.83067 365.204 7.91C364.998 7.98467 364.819 8.071 364.665 8.169C364.515 8.26233 364.385 8.34867 364.273 8.428C364.165 8.50267 364.058 8.54 363.951 8.54C363.867 8.54 363.794 8.519 363.734 8.477C363.673 8.43033 363.622 8.37433 363.58 8.309L363.356 7.91ZM371.785 3.689V14H370.539V3.689H371.785ZM386.879 6.909L384.583 14H383.596C383.475 14 383.391 13.9207 383.344 13.762L381.776 8.953C381.739 8.84567 381.709 8.73833 381.685 8.631C381.662 8.519 381.639 8.40933 381.615 8.302C381.592 8.40933 381.569 8.519 381.545 8.631C381.522 8.73833 381.492 8.848 381.454 8.96L379.858 13.762C379.816 13.9207 379.723 14 379.578 14H378.64L376.344 6.909H377.324C377.422 6.909 377.504 6.93467 377.569 6.986C377.639 7.03733 377.686 7.098 377.709 7.168L379.067 11.732C379.147 12.068 379.21 12.3853 379.256 12.684C379.298 12.53 379.34 12.3737 379.382 12.215C379.429 12.0563 379.478 11.8953 379.529 11.732L381.027 7.14C381.051 7.07 381.09 7.01167 381.146 6.965C381.207 6.91833 381.279 6.895 381.363 6.895H381.909C382.003 6.895 382.08 6.91833 382.14 6.965C382.201 7.01167 382.243 7.07 382.266 7.14L383.729 11.732C383.781 11.8953 383.827 12.0563 383.869 12.215C383.911 12.3737 383.951 12.53 383.988 12.684C384.012 12.53 384.04 12.376 384.072 12.222C384.11 12.0633 384.149 11.9 384.191 11.732L385.577 7.168C385.601 7.09333 385.645 7.03267 385.71 6.986C385.776 6.93467 385.853 6.909 385.941 6.909H386.879ZM390.986 6.797C391.504 6.797 391.97 6.88333 392.386 7.056C392.801 7.22867 393.156 7.47367 393.45 7.791C393.744 8.10833 393.968 8.49333 394.122 8.946C394.28 9.394 394.36 9.89567 394.36 10.451C394.36 11.011 394.28 11.515 394.122 11.963C393.968 12.411 393.744 12.7937 393.45 13.111C393.156 13.4283 392.801 13.6733 392.386 13.846C391.97 14.014 391.504 14.098 390.986 14.098C390.463 14.098 389.992 14.014 389.572 13.846C389.156 13.6733 388.802 13.4283 388.508 13.111C388.214 12.7937 387.987 12.411 387.829 11.963C387.675 11.515 387.598 11.011 387.598 10.451C387.598 9.89567 387.675 9.394 387.829 8.946C387.987 8.49333 388.214 8.10833 388.508 7.791C388.802 7.47367 389.156 7.22867 389.572 7.056C389.992 6.88333 390.463 6.797 390.986 6.797ZM390.986 13.125C391.686 13.125 392.208 12.8917 392.554 12.425C392.899 11.9537 393.072 11.298 393.072 10.458C393.072 9.61333 392.899 8.95533 392.554 8.484C392.208 8.01267 391.686 7.777 390.986 7.777C390.631 7.777 390.321 7.83767 390.055 7.959C389.793 8.08033 389.574 8.25533 389.397 8.484C389.224 8.71267 389.093 8.995 389.005 9.331C388.921 9.66233 388.879 10.038 388.879 10.458C388.879 11.298 389.051 11.9537 389.397 12.425C389.747 12.8917 390.276 13.125 390.986 13.125ZM397.123 8.33C397.347 7.84467 397.622 7.46667 397.949 7.196C398.276 6.92067 398.675 6.783 399.146 6.783C399.295 6.783 399.438 6.79933 399.573 6.832C399.713 6.86467 399.837 6.916 399.944 6.986L399.853 7.917C399.825 8.03367 399.755 8.092 399.643 8.092C399.578 8.092 399.482 8.078 399.356 8.05C399.23 8.022 399.088 8.008 398.929 8.008C398.705 8.008 398.504 8.04067 398.327 8.106C398.154 8.17133 397.998 8.26933 397.858 8.4C397.723 8.526 397.599 8.68467 397.487 8.876C397.38 9.06267 397.282 9.27733 397.193 9.52V14H395.94V6.909H396.654C396.789 6.909 396.883 6.93467 396.934 6.986C396.985 7.03733 397.02 7.126 397.039 7.252L397.123 8.33ZM402.293 3.689V9.758H402.615C402.708 9.758 402.785 9.74633 402.846 9.723C402.911 9.695 402.979 9.64133 403.049 9.562L405.289 7.161C405.354 7.08167 405.422 7.021 405.492 6.979C405.566 6.93233 405.664 6.909 405.786 6.909H406.913L404.302 9.688C404.176 9.84667 404.04 9.97033 403.896 10.059C403.98 10.115 404.054 10.1803 404.12 10.255C404.19 10.325 404.255 10.4067 404.316 10.5L407.088 14H405.975C405.867 14 405.774 13.9837 405.695 13.951C405.62 13.9137 405.555 13.8483 405.499 13.755L403.168 10.85C403.098 10.752 403.028 10.689 402.958 10.661C402.892 10.6283 402.79 10.612 402.65 10.612H402.293V14H401.04V3.689H402.293ZM408.625 14V7.973L407.841 7.882C407.738 7.85867 407.657 7.82367 407.596 7.777C407.535 7.72567 407.505 7.65333 407.505 7.56V7.049H408.625V6.671C408.625 6.279 408.683 5.908 408.8 5.558C408.921 5.20333 409.103 4.89533 409.346 4.634C409.589 4.37267 409.892 4.165 410.256 4.011C410.62 3.857 411.045 3.78 411.53 3.78C411.889 3.78 412.235 3.794 412.566 3.822C412.902 3.85 413.226 3.86633 413.539 3.871H414.386V14H413.147V4.746C412.895 4.73667 412.641 4.725 412.384 4.711C412.132 4.697 411.91 4.69 411.719 4.69C411.112 4.69 410.646 4.865 410.319 5.215C409.997 5.56033 409.836 6.04567 409.836 6.671V7.049H411.677V7.952H409.871V14H408.625ZM419.396 6.797C419.914 6.797 420.381 6.88333 420.796 7.056C421.211 7.22867 421.566 7.47367 421.86 7.791C422.154 8.10833 422.378 8.49333 422.532 8.946C422.691 9.394 422.77 9.89567 422.77 10.451C422.77 11.011 422.691 11.515 422.532 11.963C422.378 12.411 422.154 12.7937 421.86 13.111C421.566 13.4283 421.211 13.6733 420.796 13.846C420.381 14.014 419.914 14.098 419.396 14.098C418.873 14.098 418.402 14.014 417.982 13.846C417.567 13.6733 417.212 13.4283 416.918 13.111C416.624 12.7937 416.398 12.411 416.239 11.963C416.085 11.515 416.008 11.011 416.008 10.451C416.008 9.89567 416.085 9.394 416.239 8.946C416.398 8.49333 416.624 8.10833 416.918 7.791C417.212 7.47367 417.567 7.22867 417.982 7.056C418.402 6.88333 418.873 6.797 419.396 6.797ZM419.396 13.125C420.096 13.125 420.619 12.8917 420.964 12.425C421.309 11.9537 421.482 11.298 421.482 10.458C421.482 9.61333 421.309 8.95533 420.964 8.484C420.619 8.01267 420.096 7.777 419.396 7.777C419.041 7.777 418.731 7.83767 418.465 7.959C418.204 8.08033 417.984 8.25533 417.807 8.484C417.634 8.71267 417.504 8.995 417.415 9.331C417.331 9.66233 417.289 10.038 417.289 10.458C417.289 11.298 417.462 11.9537 417.807 12.425C418.157 12.8917 418.687 13.125 419.396 13.125ZM434.02 6.909L431.724 14H430.737C430.616 14 430.532 13.9207 430.485 13.762L428.917 8.953C428.88 8.84567 428.849 8.73833 428.826 8.631C428.803 8.519 428.779 8.40933 428.756 8.302C428.733 8.40933 428.709 8.519 428.686 8.631C428.663 8.73833 428.632 8.848 428.595 8.96L426.999 13.762C426.957 13.9207 426.864 14 426.719 14H425.781L423.485 6.909H424.465C424.563 6.909 424.645 6.93467 424.71 6.986C424.78 7.03733 424.827 7.098 424.85 7.168L426.208 11.732C426.287 12.068 426.35 12.3853 426.397 12.684C426.439 12.53 426.481 12.3737 426.523 12.215C426.57 12.0563 426.619 11.8953 426.67 11.732L428.168 7.14C428.191 7.07 428.231 7.01167 428.287 6.965C428.348 6.91833 428.42 6.895 428.504 6.895H429.05C429.143 6.895 429.22 6.91833 429.281 6.965C429.342 7.01167 429.384 7.07 429.407 7.14L430.87 11.732C430.921 11.8953 430.968 12.0563 431.01 12.215C431.052 12.3737 431.092 12.53 431.129 12.684C431.152 12.53 431.18 12.376 431.213 12.222C431.25 12.0633 431.29 11.9 431.332 11.732L432.718 7.168C432.741 7.09333 432.786 7.03267 432.851 6.986C432.916 6.93467 432.993 6.909 433.082 6.909H434.02Z" fill="#395174"/>
<defs>
<clipPath id="clip0_924_214863">
<rect width="481" height="284" fill="white" transform="translate(55 65)"/>
</clipPath>
</defs>
</svg>
