<svg xmlns="http://www.w3.org/2000/svg" xmlns:xlink="http://www.w3.org/1999/xlink" viewBox="0 0 2690.1 2102.64"><defs><style>.cls-1,.cls-13{fill:none;}.cls-2{isolation:isolate;}.cls-3{clip-path:url(#clip-path);}.cls-16,.cls-4{fill:#ebebeb;}.cls-5{fill:#e6e6e6;}.cls-6{fill:#f0f0f0;}.cls-7{fill:#f5f5f5;}.cls-8{fill:#e0e0e0;}.cls-9{fill:#f7e7c6;}.cls-10{fill:#fff;}.cls-11{fill:#fafafa;}.cls-12{fill:#dbdbdb;}.cls-13,.cls-16{stroke:#c7c7c7;stroke-miterlimit:10;}.cls-14{fill:#c7c7c7;}.cls-15{fill:#a6a6a6;}.cls-17{fill:#263238;}.cls-18{fill:#455a64;}.cls-19{fill:#efaca3;}.cls-20{fill:#ffc727;}.cls-21{opacity:0.1;}.cls-22{fill:#37474f;}.cls-23,.cls-25,.cls-29,.cls-30{mix-blend-mode:multiply;}.cls-23{opacity:0.56;}.cls-24{fill:#fbb03b;}.cls-25{opacity:0.14;}.cls-26{fill:url(#linear-gradient);}.cls-27{fill:#e7ad47;}.cls-28{fill:#de912f;}.cls-29,.cls-30{opacity:0.3;}.cls-29{fill:url(#linear-gradient-2);}.cls-30{fill:url(#linear-gradient-3);}</style><clipPath id="clip-path" transform="translate(0.52 -295.13)"><rect class="cls-1" width="2689.06" height="2689.06"/></clipPath><linearGradient id="linear-gradient" x1="598.9" y1="657.11" x2="620.26" y2="760.73" gradientTransform="matrix(0.99, -0.13, 0.13, 0.99, -12.05, 16.34)" gradientUnits="userSpaceOnUse"><stop offset="0" stop-color="#c1ac85"/><stop offset="1" stop-color="#a97b49"/></linearGradient><linearGradient id="linear-gradient-2" x1="555.23" y1="478.6" x2="585.8" y2="626.87" xlink:href="#linear-gradient"/><linearGradient id="linear-gradient-3" x1="582.48" y1="585.74" x2="596.4" y2="653.22" xlink:href="#linear-gradient"/></defs><g class="cls-2"><g id="Layer_2" data-name="Layer 2"><g id="Character"><g class="cls-3"><rect class="cls-4" y="1761.72" width="2690.1" height="1.35"/><rect class="cls-4" x="2242.35" y="1848.32" width="178.2" height="1.35"/><rect class="cls-4" x="1400.65" y="1831.46" width="69.34" height="1.35"/><rect class="cls-4" x="1735.26" y="1837.14" width="146.02" height="1.35"/><rect class="cls-4" x="1935.08" y="1798.36" width="301.89" height="1.35"/><rect class="cls-4" x="282.24" y="1860.61" width="142.72" height="1.35"/><rect class="cls-4" x="472.86" y="1860.61" width="123.74" height="1.35"/><rect class="cls-4" x="704.8" y="1830.79" width="327.19" height="1.35"/><path class="cls-4" d="M1274.66,1816.91H235.75A30.75,30.75,0,0,1,205,1786.2V325.84a30.75,30.75,0,0,1,30.71-30.71H1274.66a30.74,30.74,0,0,1,30.7,30.71V1786.2A30.74,30.74,0,0,1,1274.66,1816.91ZM235.75,296.48a29.39,29.39,0,0,0-29.36,29.36V1786.2a29.39,29.39,0,0,0,29.36,29.36H1274.66A29.39,29.39,0,0,0,1304,1786.2V325.84a29.39,29.39,0,0,0-29.36-29.36Z" transform="translate(0.52 -295.13)"/><path class="cls-4" d="M2438.38,1816.91H1399.47a30.74,30.74,0,0,1-30.7-30.71V325.84a30.74,30.74,0,0,1,30.7-30.71H2438.38a30.75,30.75,0,0,1,30.71,30.71V1786.2A30.75,30.75,0,0,1,2438.38,1816.91ZM1399.47,296.48a29.39,29.39,0,0,0-29.36,29.36V1786.2a29.39,29.39,0,0,0,29.36,29.36H2438.38a29.39,29.39,0,0,0,29.36-29.36V325.84a29.39,29.39,0,0,0-29.36-29.36Z" transform="translate(0.52 -295.13)"/><path class="cls-5" d="M1424.72,1594.12c-10.78-30.93-95.74,11.13-130.23,62.4-23,34.14-37,70.59-43.54,119.54.78-55.86,1.67-115.87,2.55-172.51,7-14.13,22.89-46.68,34.35-72.48,38.21-86.09,129.08-118.14,160.47-172.49,41.14-71.22,40.9-178,5.88-216.59-30.43-33.5-131.2,193-142.55,218.32-39,87-50.38,151.64-57.7,214.22.83-53.2,1.63-102,2.28-139.73,2.14-122.91,4.8-162.45,6-174.61,4.21-6,9.18-12.87,12.06-16.59,24.39-31.39,78.5-68.76,105.54-114.4,39.48-66.64,33.1-146.39,5.41-176.09-29-31.05-80.15,42.34-107.33,115.05s-15.56,142.32-23.18,202.71c-1.6,11.84-3.24,56.83-4.77,119.23-8.25-67.14-24.67-112.12-55.11-154-37.43-51.56-69.75-114.34-100.59-106.23S1080,1221,1104.44,1279.34c21.73,51.94,128.93,103.74,144.73,145.5-1.86,84.58-3.52,191.74-4.7,291.52-8.46-51.54-2.64-55.86-37.28-134.77-20.59-46.9-105-104.75-115.06-72.52-9.88,31.63,5.23,93.14,37.1,135.81,25.7,34.41,82.74,34.37,95.94,55.73,3.08,5,13.26,24.08,19.07,35.06-1.37,121.81-2,229.33-1.31,266l5.53.37c-.26-9.46.41-71.43,1.49-153.43,13.85-43.63,107.09-69.1,135.89-114.47C1416,1686.64,1437.65,1631.23,1424.72,1594.12Z" transform="translate(0.52 -295.13)"/><path class="cls-6" d="M1337.05,2056.86h-179a20.56,20.56,0,0,1-20.15-16.48l-12.7-62.63H1369.9l-12.71,62.63A20.55,20.55,0,0,1,1337.05,2056.86Z" transform="translate(0.52 -295.13)"/><path class="cls-6" d="M1375,2002h-254.9a12,12,0,0,1-11.92-10.65l-5.22-46.31a12,12,0,0,1,11.93-13.34h265.32a12,12,0,0,1,11.92,13.34l-5.21,46.31A12,12,0,0,1,1375,2002Z" transform="translate(0.52 -295.13)"/><rect class="cls-6" x="2155.66" y="1303.22" width="171.36" height="731.22" transform="translate(4483.2 3042.52) rotate(180)"/><rect class="cls-6" x="1427.67" y="2034.44" width="887.81" height="22.42" transform="translate(3743.67 3796.16) rotate(180)"/><rect class="cls-7" x="1416.65" y="1008.09" width="739.53" height="731.22"/><rect class="cls-6" x="1484.02" y="1296.28" width="604.79" height="154.83"/><rect class="cls-6" x="1484.02" y="1495.56" width="604.79" height="154.83"/><rect class="cls-7" x="1701.29" y="1584.7" width="169.21" height="33.43" rx="16.71" transform="translate(3572.31 2907.7) rotate(-180)"/><rect class="cls-6" x="1484.02" y="1097" width="604.79" height="154.83"/><path class="cls-7" d="M1718,1418.84h135.79a16.76,16.76,0,0,0,16.71-16.71h0a16.76,16.76,0,0,0-16.71-16.71H1718a16.76,16.76,0,0,0-16.71,16.71h0A16.76,16.76,0,0,0,1718,1418.84Z" transform="translate(0.52 -295.13)"/><path class="cls-7" d="M1718,1817.41h135.79a16.76,16.76,0,0,0,16.71-16.71h0a16.76,16.76,0,0,0-16.71-16.71H1718a16.76,16.76,0,0,0-16.71,16.71h0A16.76,16.76,0,0,0,1718,1817.41Z" transform="translate(0.52 -295.13)"/><rect class="cls-6" x="1400.92" y="1282.36" width="754.74" height="20.86" transform="translate(3557.1 2290.45) rotate(180)"/><rect class="cls-5" x="2156.18" y="987.23" width="187.68" height="20.86"/><rect class="cls-8" x="792.62" y="961.85" width="169.3" height="1095.01" transform="translate(1755.06 2723.57) rotate(180)"/><polygon class="cls-5" points="361.61 1761.72 928.53 1761.72 988.08 413.91 421.16 413.91 361.61 1761.72"/><polygon class="cls-9" points="278.91 1761.72 906 1761.72 965.55 413.91 338.46 413.91 278.91 1761.72"/><polygon class="cls-10" points="844.61 1695.65 894.78 479.99 399.84 479.99 349.68 1695.65 844.61 1695.65"/><polygon class="cls-11" points="631.95 1695.65 800.18 479.99 747.4 479.99 579.17 1695.65 631.95 1695.65"/><polygon class="cls-11" points="556.8 1695.65 725.03 479.99 635.03 479.99 466.8 1695.65 556.8 1695.65"/><rect class="cls-5" x="1578.37" y="434.31" width="686.14" height="641.84" transform="translate(3843.41 1215.33) rotate(180)"/><rect class="cls-7" x="1557.08" y="434.31" width="697.49" height="641.84" transform="translate(3812.16 1215.33) rotate(180)"/><rect class="cls-5" x="1578.37" y="1076.15" width="686.14" height="26.27" transform="translate(3843.41 1883.43) rotate(180)"/><rect class="cls-7" x="1537.97" y="1076.15" width="650.89" height="26.27" transform="translate(3727.35 1883.43) rotate(180)"/><rect class="cls-11" x="1624.68" y="436.3" width="562.29" height="637.86" transform="translate(2661.57 -1445.73) rotate(90)"/><rect class="cls-5" x="1307.87" y="753.11" width="562.29" height="4.25" transform="translate(2344.76 -1128.92) rotate(90)"/><polygon class="cls-10" points="2119.49 741.24 2009.2 178.95 1864.63 178.95 1974.92 741.24 2119.49 741.24"/><polygon class="cls-10" points="1951.52 741.24 1841.23 178.95 1775.93 178.95 1886.22 741.24 1951.52 741.24"/><rect class="cls-4" x="1899.92" y="705.64" width="600.2" height="6.83" rx="3.28" transform="translate(2909.59 -1786.11) rotate(90)"/><rect class="cls-9" x="1541.44" y="408.95" width="734.65" height="98.24" transform="translate(3818.05 620.99) rotate(180)"/><rect class="cls-8" x="1541.44" y="408.95" width="734.65" height="12.21" transform="translate(3818.05 534.96) rotate(180)"/><rect class="cls-4" x="1537.97" y="403.59" width="741.6" height="10.71" rx="4.68" transform="translate(3818.05 522.76) rotate(180)"/><path class="cls-10" d="M1540.53,509.74H2277a2.56,2.56,0,0,0,2.56-2.56h0a2.56,2.56,0,0,0-2.56-2.56H1540.53a2.56,2.56,0,0,0-2.56,2.56h0A2.56,2.56,0,0,0,1540.53,509.74Z" transform="translate(0.52 -295.13)"/><rect class="cls-4" x="85.65" y="1037.95" width="391.18" height="727.53"/><rect class="cls-12" x="66.7" y="1017.86" width="429.08" height="20.09"/><rect class="cls-4" x="495.78" y="1017.86" width="134.94" height="20.09"/><rect class="cls-12" x="476.83" y="1037.95" width="132.53" height="727.53"/><rect class="cls-13" x="128.26" y="1115.5" width="305.97" height="172.5"/><rect class="cls-14" x="238.41" y="1165.72" width="59.76" height="34.34"/><rect class="cls-13" x="256.07" y="1168.31" width="59.76" height="29.16"/><rect class="cls-13" x="128.26" y="1333.44" width="305.97" height="172.5"/><rect class="cls-14" x="238.41" y="1383.66" width="59.76" height="34.34"/><rect class="cls-13" x="256.07" y="1386.25" width="59.76" height="29.16"/><rect class="cls-13" x="128.26" y="1551.38" width="305.97" height="172.5"/><rect class="cls-14" x="238.41" y="1601.6" width="59.76" height="34.34"/><rect class="cls-13" x="256.07" y="1604.19" width="59.76" height="29.16"/><rect class="cls-4" x="2083.87" y="1249.96" width="391.18" height="515.51"/><rect class="cls-12" x="2064.92" y="1229.88" width="429.08" height="20.09"/><rect class="cls-4" x="2494" y="1229.88" width="134.94" height="20.09"/><rect class="cls-12" x="2475.05" y="1249.96" width="132.53" height="515.51"/><rect class="cls-15" x="2126.48" y="1327.52" width="305.97" height="172.5"/><rect class="cls-14" x="2169.73" y="1283.34" width="232.92" height="168.84"/><polygon class="cls-14" points="2252.02 1265.86 2169.73 1265.86 2169.73 1283.34 2256.75 1283.34 2252.02 1265.86"/><polygon class="cls-15" points="2402.03 1452.18 2169.11 1452.18 2151.15 1297.35 2384.07 1297.35 2402.03 1452.18"/><polygon class="cls-15" points="2231.59 1281.32 2149.29 1281.32 2151.15 1297.35 2238.18 1297.35 2231.59 1281.32"/><rect class="cls-16" x="1979.08" y="1327.52" width="305.97" height="172.5"/><rect class="cls-14" x="2089.22" y="1377.74" width="59.76" height="34.34"/><rect class="cls-13" x="2106.89" y="1380.33" width="59.76" height="29.16"/><rect class="cls-12" x="2285.79" y="1353.37" width="146.65" height="146.65"/><rect class="cls-13" x="2126.48" y="1545.45" width="305.97" height="172.5"/><rect class="cls-14" x="2236.62" y="1595.67" width="59.76" height="34.34"/><rect class="cls-13" x="2254.29" y="1598.26" width="59.76" height="29.16"/><ellipse class="cls-4" cx="1385.46" cy="1976.95" rx="1147.05" ry="125.69"/><path class="cls-9" d="M2544.79,1775.34c-3.27,13.9-6.72,27.58-7.39,41.84.37.7.3,3.29-.12,2.58-.08,2.3-3.58,1.88-3.58-.38,0-1.48.07-3,.14-4.39-8.17-10.16-20-16.59-29.64-25.41a55.4,55.4,0,0,1-16.24-25.85c-8-27.43-.5-56.49-10.08-83.85-8.25-23.59-23.05-44.1-35.58-65.47-13.21-22.6-23-46.35-24-72.83-.77-20.27,1.64-47.28,17.08-62.47,16.37-16.11,36.65-4,49.19,10.34,36.33,41.69,53.14,94.39,59.94,148.26,3.74,29.82,7.64,59.82,6.74,89.92A242.54,242.54,0,0,1,2544.79,1775.34Z" transform="translate(0.52 -295.13)"/><path class="cls-17" d="M2537.55,1828.13a513.54,513.54,0,0,0-1-84.48c0-.1.13-.17.14-.3.45-22.84,2.27-45.58,1.37-68.44a406.59,406.59,0,0,0-10.05-73.42.23.23,0,0,0-.45.08,478,478,0,0,1,7.95,71.79q.69,19.35-.31,38.7c-.22,4.19-.61,8.42-.89,12.65v0c-9.21-64.26-32.93-125.23-67.94-179.79-.48-.74-1.79.06-1.33.82a469.63,469.63,0,0,1,55.3,133.3c-17.47-32.37-43.86-59-63.44-90.09-.1-.17-.39,0-.29.18,17.58,34.63,46.64,61.94,65.16,96.05,3.21,13.91,5.84,27.94,7.8,42.06a472.42,472.42,0,0,1,4.22,58.43c-10.64-19.89-21.69-38.92-30.4-60-.23-.56-1-.18-.85.38,7.41,21.85,17.37,45.39,31.3,64,.08,13.83-.33,27.67-1.14,41.48-2.18,36.88-8.48,73.27-11.39,110a.85.85,0,0,0,1.69.19C2530.67,1904.68,2535,1865.91,2537.55,1828.13Z" transform="translate(0.52 -295.13)"/><path class="cls-17" d="M2498.39,1543.7c-.11-.27-.51-.08-.41.19,6.74,18.62,10.54,37.5,15.41,56.59a.7.7,0,0,0,1.39-.22C2512.8,1580.88,2505.88,1561.56,2498.39,1543.7Z" transform="translate(0.52 -295.13)"/><path class="cls-9" d="M2669.45,1621.77A279.92,279.92,0,0,1,2654,1653.6c-12.13,22-24.79,42.22-27.08,67.87-1,11.45-1.38,23-4.87,34-3,9.55-7.91,18.37-13.55,26.61-13.15,19.15-29.58,35.66-41.76,55.53a233.61,233.61,0,0,0-27.75,66.91c-.31,1.29-2.34.94-2-.34a1.11,1.11,0,0,0,.08-.3.49.49,0,0,1-.12-.27c-1.93-55,2.46-110.43,19.24-163.12a563,563,0,0,1,26.65-67.85c9-19.1,20.19-37.47,36-51.74,10.24-9.22,32.44-26.7,47-17.45C2672.73,1607.89,2672.21,1614.91,2669.45,1621.77Z" transform="translate(0.52 -295.13)"/><path class="cls-9" d="M2614.18,1746.46c-9.44,16.12-20.62,31.13-32,45.94-5.32,6.95-10.72,13.85-16,20.81-2.51,3.29-5.32,6.56-7.63,10.1,1.45-5.79,2.87-11.58,4.34-17.36,7.1-27.79,13.92-55.82,24.49-82.54,10.33-26.11,24.07-50.64,38.19-74.86.37-.64-.66-1.1-1-.48-11.62,19.11-23.42,38.2-33.19,58.35a305,305,0,0,0-14.08,34.62c4.75-25.26,10.44-49.52,18.75-74,.07-.22-.24-.38-.33-.16-10.14,24-17.43,50.95-19.46,76.95,0,.05,0,.08,0,.12-2.38,7.14-4.57,14.35-6.62,21.62-8.66,30.77-16.27,61.86-23.32,93.06.12-20.6,1.41-40.83,5.31-61.16.09-.46-.61-.57-.72-.12-5.12,20.94-7.43,43-5.32,64.47q-4,17.81-7.79,35.63c-5.41,25.35-12.05,51.15-15.21,76.9a.52.52,0,0,0,1,.17c3.77-13.88,6.05-28.26,9.13-42.31s6.28-28.16,9.56-42.21c4.78-20.47,9.79-40.87,14.88-61.26,3.41-7.47,10-14.11,14.93-20.38,5.41-6.88,10.83-13.76,16.1-20.75a309.61,309.61,0,0,0,26.46-41C2614.83,1746.38,2614.35,1746.16,2614.18,1746.46Z" transform="translate(0.52 -295.13)"/><path class="cls-9" d="M2616.52,1722.94a286.89,286.89,0,0,0-31.28,49.7c-.1.22.24.45.38.24,10.53-16.5,20.88-33.12,31.39-49.64C2617.18,1723,2616.72,1722.68,2616.52,1722.94Z" transform="translate(0.52 -295.13)"/><path class="cls-9" d="M2669.45,1621.77A279.92,279.92,0,0,1,2654,1653.6c-12.13,22-24.79,42.22-27.08,67.87-1,11.45-1.38,23-4.87,34-3,9.55-7.91,18.37-13.55,26.61-13.15,19.15-29.58,35.66-41.76,55.53a233.61,233.61,0,0,0-27.75,66.91c-.31,1.29-2.34.94-2-.34a1.11,1.11,0,0,0,.08-.3.49.49,0,0,1-.12-.27c-1.93-55,2.46-110.43,19.24-163.12a563,563,0,0,1,26.65-67.85c9-19.1,20.19-37.47,36-51.74,10.24-9.22,32.44-26.7,47-17.45C2672.73,1607.89,2672.21,1614.91,2669.45,1621.77Z" transform="translate(0.52 -295.13)"/><path class="cls-17" d="M2614.18,1746.46c-9.44,16.12-20.62,31.13-32,45.94-5.32,6.95-10.72,13.85-16,20.81-2.51,3.29-5.32,6.56-7.63,10.1,1.45-5.79,2.87-11.58,4.34-17.36,7.1-27.79,13.92-55.82,24.49-82.54,10.33-26.11,24.07-50.64,38.19-74.86.37-.64-.66-1.1-1-.48-11.62,19.11-23.42,38.2-33.19,58.35a305,305,0,0,0-14.08,34.62c4.75-25.26,10.44-49.52,18.75-74,.07-.22-.24-.38-.33-.16-10.14,24-17.43,50.95-19.46,76.95,0,.05,0,.08,0,.12-2.38,7.14-4.57,14.35-6.62,21.62-8.66,30.77-16.27,61.86-23.32,93.06.12-20.6,1.41-40.83,5.31-61.16.09-.46-.61-.57-.72-.12-5.12,20.94-7.43,43-5.32,64.47q-4,17.81-7.79,35.63c-5.41,25.35-12.05,51.15-15.21,76.9a.52.52,0,0,0,1,.17c3.77-13.88,6.05-28.26,9.13-42.31s6.28-28.16,9.56-42.21c4.78-20.47,9.79-40.87,14.88-61.26,3.41-7.47,10-14.11,14.93-20.38,5.41-6.88,10.83-13.76,16.1-20.75a309.61,309.61,0,0,0,26.46-41C2614.83,1746.38,2614.35,1746.16,2614.18,1746.46Z" transform="translate(0.52 -295.13)"/><path class="cls-17" d="M2616.52,1722.94a286.89,286.89,0,0,0-31.28,49.7c-.1.22.24.45.38.24,10.53-16.5,20.88-33.12,31.39-49.64C2617.18,1723,2616.72,1722.68,2616.52,1722.94Z" transform="translate(0.52 -295.13)"/><path class="cls-9" d="M2382.4,1673.92c7.12,12.28,15.26,27,12.2,41.76-1.94,9.33-8.77,16.9-10,26.42-2.76,21,18.17,34.89,33.32,44.81,37.77,24.78,89.56,46.87,96.43,97.48.26,1.79,3.36,1.34,3.13-.41a1.28,1.28,0,0,0-.07-.34c.07-.11.18-.15.18-.3a193.74,193.74,0,0,0-.71-77.28c-5.63-26.09-17-49.52-30.45-72.43-22.72-38.78-46.79-78.48-81.16-108.18-9.52-8.21-29-23-36.57-4.45C2361.35,1639,2373.66,1659,2382.4,1673.92Z" transform="translate(0.52 -295.13)"/><path class="cls-17" d="M2417,1756.13c25,27.1,64.85,42.3,86.4,72.66-12.77-46.54-33.91-88.38-66.4-124.73a1,1,0,0,1,1.38-1.38c23.79,22.86,41.41,49.59,54.26,78.59-5.78-20.71-13.87-40.29-23.37-59.76-.35-.73.69-1.37,1.11-.65,12.11,20.64,20.15,43.81,25.19,67.18,28.4,68.75,31,149.38,25.08,221.84-.09,1-1.67,1.07-1.64,0,1.64-57.1.71-115.21-13-171-.29-1.16-.61-2.31-.9-3.47-23.45-32.68-63.09-47.83-88.57-78.87C2416.28,1756.26,2416.69,1755.83,2417,1756.13Z" transform="translate(0.52 -295.13)"/><path class="cls-17" d="M2411.16,1732.85c13.14,12.05,26.08,24.39,39.25,36.44.13.12,0,.35-.2.25a192.26,192.26,0,0,1-39.84-35.91A.56.56,0,0,1,2411.16,1732.85Z" transform="translate(0.52 -295.13)"/><path class="cls-17" d="M2409.08,1680.6c11.94,19.13,24.46,37.08,39.33,54.09.19.23-.12.54-.33.33-16-15.37-30.14-34-39.7-54A.41.41,0,0,1,2409.08,1680.6Z" transform="translate(0.52 -295.13)"/><polygon class="cls-18" points="2468.78 1765.86 2583.91 1765.86 2568.39 1610.95 2486.51 1610.95 2468.78 1765.86"/><polygon class="cls-17" points="2483.62 1636.13 2570.93 1636.13 2568.4 1610.95 2486.5 1610.95 2483.62 1636.13"/><rect class="cls-18" x="2471.86" y="1888.93" width="107.92" height="24.73" transform="translate(5052.17 3507.45) rotate(180)"/><path class="cls-19" d="M964.9,2318.89c-11.59,3.74-341.81-.54-354.27-8.7-4.78-3-7-51.17-7.93-109.43,0-.61,0-1.21,0-1.82-.23-12-.38-24.37-.4-36.9,0-1.73,0-3.45-.07-5.17-.46-84.08.87-171.31.87-171.31l220.9,2.21-6.64,169.7-.26,6.72-1.33,35.13-.13,3.62s125.67,58.17,138.43,68.58S976.48,2315.2,964.9,2318.89Z" transform="translate(0.52 -295.13)"/><path class="cls-20" d="M865.67,2225.52c-.86-.25-1.31-.5-1.36-.76C864.31,2224.76,864.81,2225,865.67,2225.52Z" transform="translate(0.52 -295.13)"/><path class="cls-20" d="M964.88,2318.87c-11.57,3.74-341.78-.5-354.26-8.68-4.25-2.68-6.47-41-7.58-90.43,60.52,12.63,295,60.07,301.42,40,2.53-7.88-17.52-21.52-30.2-29.2,34.65,16.52,73,35.41,79.81,41C966.7,2281.9,976.5,2315.19,964.88,2318.87Z" transform="translate(0.52 -295.13)"/><path class="cls-21" d="M757.47,2318.37c-74.31-1.77-141.35-4.6-146.85-8.18-4.25-2.68-6.47-41-7.58-90.43,8.59,1.77,20.71,4.3,35.16,7.18Z" transform="translate(0.52 -295.13)"/><path class="cls-22" d="M535.32,1034.34s49.58,558,57.66,600.57c1.87,9.7,3,62.44,3.79,130.23,1.72,147.91.69,414.69.69,414.69H830.24s-6.91-462.22-17.22-547.29-76.17-598.2-76.17-598.2Z" transform="translate(0.52 -295.13)"/><path class="cls-17" d="M819.72,2139.27c-36.32-.75-25.89-1.05-62.22-1.4-17.77-.17-134.59-1.19-151.2,1.56a.39.39,0,0,0,0,.74c16.61,2.75,133.43,1.73,151.2,1.56,36.33-.35,25.9-.64,62.22-1.4A.53.53,0,0,0,819.72,2139.27Z" transform="translate(0.52 -295.13)"/><path class="cls-17" d="M641.69,1875q-.39-50.64-.76-101.29c-.23-32.7-.19-65.43-1.74-98.1-3.15-66.15-16.57-131.18-26.12-196.59s-17.5-131.1-24.71-196.84c-8.09-73.74-15.24-147.59-22.82-221.39,0-.5-.83-.49-.79,0,11,131.77,23.21,263.51,41.45,394.5q6.81,48.87,14.88,97.54c5.43,32.85,10.83,65.72,13.42,98.94,2.53,32.52,3,65.15,3.28,97.75q.53,50.61,1,101.22c.72,74.94,1.45,190.3,2.18,265.25a1.13,1.13,0,0,0,2.25-.06C642.71,2049.14,642.2,1941.89,641.69,1875Z" transform="translate(0.52 -295.13)"/><path class="cls-17" d="M486.24,1034.34s98.66,558,106.74,600.57c1.87,9.7,3,62.44,3.79,130.23l.05.2,110.93-731Z" transform="translate(0.52 -295.13)"/><path class="cls-19" d="M694.59,2338.57c-11.82,2.91-340.91-24.75-352.76-33.77-4.56-3.35-3.33-51.53-.16-109.71l.12-1.82c.62-12,1.34-24.34,2.21-36.84.12-1.72.24-3.44.3-5.16,5.5-83.9,13-170.82,13-170.82l220.19,17.85-18.65,168.81-.73,6.68-3.81,34.95-.39,3.6s121.23,66.93,133.23,78.22S706.41,2335.72,694.59,2338.57Z" transform="translate(0.52 -295.13)"/><path class="cls-20" d="M694.57,2338.58c-11.82,2.93-340.87-24.76-352.74-33.8-3.89-2.83-3.59-38.44-1.42-85,51,13,296.63,74.82,304.15,54.51,1.57-4.29-3.63-10.66-10.7-16.87,25.45,14.75,48.39,28.49,53.29,33.08C699,2301.8,706.39,2335.7,694.57,2338.58Z" transform="translate(0.52 -295.13)"/><path class="cls-22" d="M563.78,2192.41l-232.55-9.86s63.47-510.33,64.65-541.69c1.75-46.63,24.11-239.09,42.89-394.91,0,0-35.61-84.36,31-211.8H737.05s-17.91,121.27-48.57,198.16c0,0-23.35,7.24-59.42,27.12,0,0-26.6,347.42-27.6,390.76C599.49,1735.85,563.78,2192.41,563.78,2192.41Z" transform="translate(0.52 -295.13)"/><path class="cls-17" d="M557.6,2149.78c-36.26-2.29-25.82-2.15-62.1-4-17.76-.93-134.43-6.89-151.14-4.85a.39.39,0,0,0,0,.74c16.48,3.45,133.24,7.38,151,8,36.31,1.18,25.9.45,62.22,1.23A.53.53,0,0,0,557.6,2149.78Z" transform="translate(0.52 -295.13)"/><path class="cls-17" d="M487.45,1045.53c-13.78,29.88-26.65,61.21-31.47,94-2.28,15.52-3.38,60.65,11.5,104.06,0,0-2,27.51-4,45.1s-4.15,35.31-6.18,53q-6.17,53.54-12.34,107.05-12.29,106.53-24.44,213.06t-24.15,213.14c-7.89,70.84-16.35,141.65-23.37,212.58q-1.31,13.25-2.6,26.49c-.08.88,1.46,1.06,1.57.17,9.44-70.79,17.53-141.76,26-212.68q12.58-105.92,24.87-211.87,12.48-106.49,24.65-213c8.05-70,17.08-140,24-210.12a158.27,158.27,0,0,0,.6-24.39s-14.86-49.83-13.1-82c1.84-33.65,9.87-59.23,21.93-90.24,3-7.76,6.12-15.48,9.14-23.24C490.6,1045.07,488.11,1044.09,487.45,1045.53Z" transform="translate(0.52 -295.13)"/><path class="cls-17" d="M698.62,1227c-24.09,8.29-47.34,20.06-69.56,32.39a.79.79,0,0,0,.64,1.44c23.44-10.07,47.33-19.7,70.18-31A1.53,1.53,0,0,0,698.62,1227Z" transform="translate(0.52 -295.13)"/><path class="cls-17" d="M665.86,1188.33c2.33-14,4.19-28,5.39-42.08,2.24-26.33,2.35-52.66-.85-78.91a.68.68,0,0,0-1.35.08c0,36.45-.92,72.83-6.37,108.93-2.62,17.35-11.36,43.47,6.79,46.14,18.48,2.72,30.44-41,32.69-53,6.3-33.4,6.55-69.45,3.91-103.25-.07-.81-1.49-1-1.48-.11.19,27.82-1.59,52.29-3.93,78.29-1.09,12.08-10.8,78.78-31.73,73.92-3.51-.82-5.29-4.27-5.84-9.55-.67-6.35,1.72-14.14,2.77-20.46" transform="translate(0.52 -295.13)"/><path class="cls-17" d="M669.48,1220.13a112,112,0,0,0-4.7,13.83c-1,3.64-2.37,7.57-2,11.36.08.74,1.06.81,1.45.31,2.46-3.11,3.49-7.37,4.86-11.06,1.59-4.27,3.28-8.52,4.75-12.84C674.85,1218.87,670.65,1217.37,669.48,1220.13Z" transform="translate(0.52 -295.13)"/><path class="cls-17" d="M593.71,549.41c-43.31,37.13-31.25,91.27-49.34,120.64-11.06,18-47.08,36.93-54.25,57.62-11.76,34,17.06,46.22,10.62,64.7-9.14,26.18-44.2,24.15-50.51,67s40.82,88.4,152.67,100.74,173.31-28.61,177.32-65S747,846.7,744.48,819.56c-1.62-17.34,21.36-29.42,22.52-61.34s-29.94-42.29-34.39-69.4,9.89-93-29.94-126.6S615.08,531.09,593.71,549.41Z" transform="translate(0.52 -295.13)"/><path class="cls-17" d="M598.73,550.38A92.31,92.31,0,0,0,570,583.55c-7.29,13.85-12.11,28.86-16,44-2.3,8.93-4.4,18.1-8.69,26.33-3.71,7.13-9.09,13.16-15,18.53-12.09,10.94-26.54,19.26-37.4,31.55-10.3,11.65-18.3,27.23-14.19,43.11,2.23,8.63,7.92,15.67,11.46,23.73,3.35,7.63,4.7,17.12-1.85,23.46-5.6,5.42-13.7,7.9-20.05,12.34a70.72,70.72,0,0,0-16.33,15.83c-9.21,12.48-13.19,27.68-10.29,43,6.58,34.8,39.23,54.59,69.36,67.05,4.21,1.74,8.43,3.43,12.66,5.11.65.26,1.2-.68.54-1-30.25-13.53-65.35-29.42-77-63.24a51,51,0,0,1,5.21-44.89,64.58,64.58,0,0,1,16-16.82c6.08-4.5,13.11-7.25,19.3-11.52s9.87-10.66,9.51-18.38c-.39-8.16-4.38-15.3-8.33-22.23-4.18-7.35-7.73-14.77-7.14-23.43.56-8.13,4.32-15.8,8.95-22.36,9.41-13.33,23.36-22.08,35.85-32.17s22.64-21.88,27.22-37.66c2.32-8,3.76-16.18,5.77-24.24a210.6,210.6,0,0,1,6.67-22.11c5.25-14.31,12.74-28.17,23.64-39a61.67,61.67,0,0,1,9.24-7.59C599.47,550.73,599.09,550.12,598.73,550.38Z" transform="translate(0.52 -295.13)"/><path class="cls-17" d="M785.19,868.48a41.89,41.89,0,0,0-7.74-16.28c-3.89-4.93-8.6-9.09-12.91-13.64-4.08-4.3-7.95-9.14-9.14-15.1-1.43-7.15,1.57-14,4.92-20.16,3.52-6.45,7.44-12.57,10-19.49A71.47,71.47,0,0,0,774.6,763c.82-14.87-3.56-29-11.26-41.6-3.81-6.24-8.11-12.18-12-18.4a89.59,89.59,0,0,1-9.91-21.72c-5-16.85-6.13-34.61-10.25-51.68a266.52,266.52,0,0,0-18.16-50.73c-.19-.41-.79,0-.6.37A232.1,232.1,0,0,1,728.34,625c3.55,15,4.92,30.22,7.57,45.35a113.75,113.75,0,0,0,5.67,21.79,116.75,116.75,0,0,0,9.71,18.7c7.56,12.33,15.37,24.49,17.45,39.1a68.36,68.36,0,0,1-7.21,41.87c-5.88,11.12-14.12,23.38-9,36.4,4.36,11,14.87,17.63,21.85,26.77,7.69,10.07,9.93,23,7.56,35.35-6,31.32-37.4,46.86-66.79,48.41a.72.72,0,0,0,0,1.43c25.55-.31,53.35-11.54,65.33-35.45C786.08,893.65,788.05,880.62,785.19,868.48Z" transform="translate(0.52 -295.13)"/><path class="cls-19" d="M658.27,817.49c15.92,42,90.55,195.09,146.56,207.08C867.44,1038,988.67,989.94,1067,956.11c28-12.11-40.4-108.92-71.23-120.24-18.52-6.8-147.31,59.57-175.82,59.57-16.09,0-52.31-59.14-123.94-115C656.75,749.83,636.85,761,658.27,817.49Z" transform="translate(0.52 -295.13)"/><path class="cls-19" d="M1047.19,961.92c16.78-4.87,111.4-32.24,130.44-45s71.14-53.46,62.84-69S1216,843,1216,843s19.28-20.67,9.51-35.58S1191,810,1191,810s18.26-22.67,7.44-36.85-32.67,7.54-32.67,7.54,17.65-19.94,3.83-27.87c-16.63-9.54-45,30.91-67.09,43.43-5,2.84-105.68,50.35-105.68,50.35Z" transform="translate(0.52 -295.13)"/><path class="cls-17" d="M1167.71,778.87c-21,29.7-35.26,39.07-68.31,52.78-.64.27-.39,1.29.31,1.07,33.59-10.48,53.22-19.64,69.49-52.91C1170,778.18,1168.71,777.46,1167.71,778.87Z" transform="translate(0.52 -295.13)"/><path class="cls-17" d="M1192.66,807.61c-24.46,28.94-39.89,39.24-73.44,56.15-.48.24-.13,1.07.38.87,34.3-13.83,53.69-23.43,74.32-55.56C1194.86,807.62,1193.78,806.28,1192.66,807.61Z" transform="translate(0.52 -295.13)"/><path class="cls-17" d="M1214.24,843.82c-25.71,26.32-42.13,38.34-76.82,50.58a.67.67,0,0,0,.38,1.29c36.58-9,57.19-23.88,77.15-51C1216.31,842.84,1215.85,842.17,1214.24,843.82Z" transform="translate(0.52 -295.13)"/><path class="cls-19" d="M967.54,844.08S995,802.74,1011,789.87s93-38.93,99.6-22.6c8.49,21.08-33,44.89-54.91,53.9,0,0,19.69,48.74-6.42,72.28S967.54,844.08,967.54,844.08Z" transform="translate(0.52 -295.13)"/><path class="cls-19" d="M967.54,844.08S995,802.74,1011,789.87s93-38.93,99.6-22.6c8.49,21.08-33,44.89-54.91,53.9,0,0,19.69,48.74-6.42,72.28S967.54,844.08,967.54,844.08Z" transform="translate(0.52 -295.13)"/><path class="cls-17" d="M1111,773.83c-6.12,24.81-35.59,34.77-56.14,45.1a2.1,2.1,0,0,0-.65,3.39c6.89,21,10.49,52.59-3.53,71.21a.53.53,0,0,0,.79.71c17.75-17.93,16.75-49.27,7.73-71.77,21.25-10.25,50.36-21.55,52-48.59A.12.12,0,0,0,1111,773.83Z" transform="translate(0.52 -295.13)"/><path class="cls-20" d="M774,1036.09l33.81-152.86S754.51,823.47,699.53,776s-81.15-42.44-48.24,42.16S732.64,1000.74,774,1036.09Z" transform="translate(0.52 -295.13)"/><path class="cls-20" d="M774,1036.09l33.81-152.86S754.51,823.47,699.53,776s-81.15-42.44-48.24,42.16S732.64,1000.74,774,1036.09Z" transform="translate(0.52 -295.13)"/><path class="cls-17" d="M788.72,880c-5.83,20.89-10.88,41.85-15.23,63.09q-3.29,16-6.13,32.08c-1.93,10.92-3.14,22-4.8,32.92-.08.54.74.61.84.08,4-21.42,8.7-42.76,13-64.11s8.69-42.59,13-63.89C789.54,879.71,788.84,879.54,788.72,880Z" transform="translate(0.52 -295.13)"/><path class="cls-10" d="M663,842.17a40.74,40.74,0,0,1,2.91,10.53c0,.61.16,1.21.16,1.82-1.09-2.75-2.25-5.44-3.4-8.18A22.1,22.1,0,0,1,663,842.17Zm90.93-9.39a38.45,38.45,0,0,0,.12,10.88,38.05,38.05,0,0,0,2.92,10.48,42.14,42.14,0,0,0-3-21.36ZM723.13,942.22a38.44,38.44,0,0,0,.13,10.88,37.75,37.75,0,0,0,2.91,10.49,37.71,37.71,0,0,0-.13-10.88A38.45,38.45,0,0,0,723.13,942.22Zm28.74-34a38.51,38.51,0,0,0,10.89-.13,37.78,37.78,0,0,0,10.48-2.91,37.72,37.72,0,0,0-10.88.13A38.54,38.54,0,0,0,751.87,908.23ZM640.12,765.18a42.19,42.19,0,0,0,21.37-3,38.15,38.15,0,0,0-10.89.12A38.86,38.86,0,0,0,640.12,765.18Zm49.78,141.9c0,.11.06.17.17.28a3.06,3.06,0,0,0,.27-.66A1.61,1.61,0,0,0,689.9,907.08Zm92.59,54.23a38.64,38.64,0,0,0-7.61,7.78,38.13,38.13,0,0,0-5.35,9.48,38.11,38.11,0,0,0,7.6-7.79A38.6,38.6,0,0,0,782.49,961.31ZM726,881a41.89,41.89,0,0,0-17.26-13,38.11,38.11,0,0,0,7.79,7.6A38.6,38.6,0,0,0,726,881Zm-20.66-80.69a38.38,38.38,0,0,0-7.63,7.76,37.78,37.78,0,0,0-5.38,9.46,37.82,37.82,0,0,0,7.62-7.76A38.44,38.44,0,0,0,705.31,800.27Z" transform="translate(0.52 -295.13)"/><path class="cls-17" d="M651.3,818.14c32.93,84.57,81.34,182.61,122.71,217.95l14-62.94L639.46,750.63C633.83,759.54,636.94,781.28,651.3,818.14Z" transform="translate(0.52 -295.13)"/><path class="cls-20" d="M746.36,1073.32s-105.64,25-305.78,7.74c0,0,78.26-249.81,141.29-317.16,28.68-30.64,56.71-26,80.47-6.24,5.93,4.92,79.41,98.19,85.64,130.7,5.5,28.73-17.85,60.62-17.85,60.62Z" transform="translate(0.52 -295.13)"/><path class="cls-10" d="M665.85,852.68a37.72,37.72,0,0,1,.13,10.88,37.75,37.75,0,0,1-2.91-10.49,38.44,38.44,0,0,1-.13-10.88A38.45,38.45,0,0,1,665.85,852.68Zm1.89,168.73a42.19,42.19,0,0,0,3,21.37,38.08,38.08,0,0,0-.12-10.88A38.83,38.83,0,0,0,667.74,1021.41Zm51.84,32.35a42.19,42.19,0,0,0,3,21.37,38.07,38.07,0,0,0-.12-10.88A38.83,38.83,0,0,0,719.58,1053.76Zm-168-148a38.82,38.82,0,0,0,.13,10.88,38,38,0,0,0,2.91,10.48,38.08,38.08,0,0,0-.12-10.88A38.5,38.5,0,0,0,551.55,905.78Zm171.58,36.44a38.44,38.44,0,0,0,.13,10.88,37.75,37.75,0,0,0,2.91,10.49,37.71,37.71,0,0,0-.13-10.88A38.45,38.45,0,0,0,723.13,942.22Zm-123.76-66a38.08,38.08,0,0,0,10.88-.13,37.68,37.68,0,0,0,10.48-2.91,42.14,42.14,0,0,0-21.36,3ZM537.1,982a38.45,38.45,0,0,0,10.88-.13A37.68,37.68,0,0,0,558.46,979a37.72,37.72,0,0,0-10.88.13A38.38,38.38,0,0,0,537.1,982Zm103.72-8.69a38.45,38.45,0,0,0,10.88-.13,38,38,0,0,0,10.48-2.91,38.08,38.08,0,0,0-10.88.12A38.86,38.86,0,0,0,640.82,973.32Zm-188.18,97.15a38.51,38.51,0,0,0,10.89-.12,38.05,38.05,0,0,0,10.48-2.92,38.08,38.08,0,0,0-10.88.13A38.54,38.54,0,0,0,452.64,1070.47ZM640.12,765.18a42.19,42.19,0,0,0,21.37-3,38.15,38.15,0,0,0-10.89.12A38.86,38.86,0,0,0,640.12,765.18Zm-35.23,19.15a38.64,38.64,0,0,0-7.61,7.78,38.13,38.13,0,0,0-5.35,9.48,38.16,38.16,0,0,0,7.61-7.79A38.89,38.89,0,0,0,604.89,784.33Zm-94.33,135a41.89,41.89,0,0,0-13,17.26,38.16,38.16,0,0,0,7.61-7.79A38.56,38.56,0,0,0,510.56,919.29Zm179.78-12.58a38.33,38.33,0,0,0-7.6,7.78,37.75,37.75,0,0,0-5.35,9.47,37.81,37.81,0,0,0,7.6-7.78A38.56,38.56,0,0,0,690.34,906.71Zm-89.87,100.6a38.58,38.58,0,0,0-7.6,7.78,38.16,38.16,0,0,0-5.36,9.48,37.9,37.9,0,0,0,7.61-7.79A38.56,38.56,0,0,0,600.47,1007.31Zm99.38-201.95c-.76.86-1.46,1.72-2.16,2.64a37,37,0,0,0-5.39,9.49,37.25,37.25,0,0,0,7.6-7.82c.49-.7,1-1.4,1.51-2.1C700.87,806.81,700.33,806.06,699.85,805.36ZM726,881a41.89,41.89,0,0,0-17.26-13,38.11,38.11,0,0,0,7.79,7.6A38.6,38.6,0,0,0,726,881Zm-228.7,125.39a38.64,38.64,0,0,0-7.78-7.61,38.13,38.13,0,0,0-9.48-5.35,42.3,42.3,0,0,0,17.26,13ZM731,1010.29a38.58,38.58,0,0,0-7.78-7.6,37.81,37.81,0,0,0-9.48-5.35,37.86,37.86,0,0,0,7.79,7.6A38.56,38.56,0,0,0,731,1010.29ZM569.56,854.14a38.63,38.63,0,0,0-7.79-7.6,37.75,37.75,0,0,0-9.47-5.35,37.81,37.81,0,0,0,7.78,7.6A38.45,38.45,0,0,0,569.56,854.14ZM635.92,1078a38.64,38.64,0,0,0-7.78-7.61,38.13,38.13,0,0,0-9.48-5.35,38.11,38.11,0,0,0,7.79,7.6A38.6,38.6,0,0,0,635.92,1078ZM616.2,940.38a42.06,42.06,0,0,0-17.26-13,41.89,41.89,0,0,0,17.26,13Zm-75.07,110.55a41.89,41.89,0,0,0-17.26-13,37.85,37.85,0,0,0,7.79,7.6A38.27,38.27,0,0,0,541.13,1050.93Z" transform="translate(0.52 -295.13)"/><path class="cls-17" d="M709.67,819.6a312.76,312.76,0,0,1,17.84,26.92c-2.25-5.23-4.37-10.51-6.23-15.93a.21.21,0,0,1,.38-.15c1.92,3.83,3.89,7.65,5.5,11.63,1.45,3.57,2.86,7.14,4.19,10.75,0,.07.08.13.11.19,6.21,10.92,13.48,22,16.59,34.26a66.81,66.81,0,0,1-.7,33.64,82.84,82.84,0,0,1-6.55,16.32c-2.33,4.5-4.95,9.23-8.6,12.85,2,11.51,3.35,23.21,4.86,34.8,1.47,11.24,3.5,22.76,3.55,34.11a.63.63,0,0,1-1.23.13c-.23-.81-.48-1.62-.74-2.43a.35.35,0,0,1,.11-.38c-2.48-10.46-3.55-21.4-5-32-1.49-11-4.28-34-4.29-34.12-.05-.53,5.25-9.63,7.32-14a99.22,99.22,0,0,0,6.06-16.62c2.92-10.83,3.69-22.13.67-33-3.21-11.61-9.68-22.72-15.52-33.18-6.22-11.14-12.64-22.2-19.07-33.23C708.68,819.69,709.35,819.17,709.67,819.6Z" transform="translate(0.52 -295.13)"/><path class="cls-19" d="M607.8,755.89c1.2,5.4,26.52,40.66,51.16,39.79,8-.31,8.34-44.18,8.34-44.18l.77-3.23L678.72,703l-52.92-34.8-7.65-4.62s-2.1,12.58-4.56,28.27c-.11.72-.23,1.45-.35,2.23s-.32,1.72-.44,2.55c-.39,2.33-.79,4.72-1.13,7.11-.27,1.82-.54,3.59-.76,5.5s-.48,3.79-.74,5.71C608,733.93,607.32,753.6,607.8,755.89Z" transform="translate(0.52 -295.13)"/><path class="cls-17" d="M613.59,691.86c12.6,36.26,41.29,51.3,54.48,56.41L678.72,703l-52.92-34.8-7.65-4.62S616.05,676.17,613.59,691.86Z" transform="translate(0.52 -295.13)"/><path class="cls-19" d="M744.11,631.41c10.49,80.94-36.8,96.36-54.26,98.61-15.84,2-70.06,7-88.86-72.46S616.51,547.67,652.5,541.1,733.61,550.47,744.11,631.41Z" transform="translate(0.52 -295.13)"/><path class="cls-17" d="M730.88,618.92a52.51,52.51,0,0,1-5.61-.57c-2.15-.24-3.89-.21-5.61-1.67a2.9,2.9,0,0,1-.37-3.52c1.57-2.26,4.27-2.62,6.87-2.43a10.53,10.53,0,0,1,7,3C735.16,615.61,733.42,618.94,730.88,618.92Z" transform="translate(0.52 -295.13)"/><path class="cls-17" d="M675.21,624.71a52.36,52.36,0,0,0,5.36-1.74c2-.69,3.75-1,5.13-2.82a2.9,2.9,0,0,0-.39-3.53c-2-1.87-4.73-1.65-7.23-.91a10.58,10.58,0,0,0-6.2,4.42C670.33,622.39,672.73,625.27,675.21,624.71Z" transform="translate(0.52 -295.13)"/><path class="cls-17" d="M690.21,643.25c-.07-.2-.4.32-.36.54.89,5.49,1,11.93-3.75,14.41-.14.07-.09.35.09.3C692.16,656.85,691.94,648.31,690.21,643.25Z" transform="translate(0.52 -295.13)"/><path class="cls-17" d="M684.53,638.14c-8.95.49-7.31,18.35,1,17.9S692,637.73,684.53,638.14Z" transform="translate(0.52 -295.13)"/><path class="cls-17" d="M681.11,639.41c-1.46,1.15-2.83,3.07-4.69,3.43-2.16.42-4-1.3-5.56-3-.17-.18-.31,0-.29.23.26,3.43,1.9,6.82,5.62,7,3.39.16,5.51-3.09,6-6.61C682.34,639.83,681.7,638.94,681.11,639.41Z" transform="translate(0.52 -295.13)"/><path class="cls-17" d="M720.86,639.27c0-.21.46.23.47.46.29,5.55,1.55,11.86,6.71,13.28.16,0,.17.32,0,.31C721.84,653,720.25,644.58,720.86,639.27Z" transform="translate(0.52 -295.13)"/><path class="cls-17" d="M725.32,633.08c8.85-1.43,11,16.38,2.85,17.69S717.9,634.27,725.32,633.08Z" transform="translate(0.52 -295.13)"/><path class="cls-17" d="M729.18,633.79c1.52.77,3.13,2.31,4.82,2.22,2-.12,3.17-2.22,4.19-4.22.1-.21.26-.07.29.16.52,3.39-.17,7.08-3.36,8.13-2.91,1-5.46-1.69-6.69-5C728.2,634.49,728.57,633.48,729.18,633.79Z" transform="translate(0.52 -295.13)"/><path class="cls-17" d="M693.73,688.74c1.39,1.23,2.79,3,4.82,3s4.16-.9,5.9-1.67a.19.19,0,0,1,.25.27,7.47,7.47,0,0,1-6.9,3.34c-2.54-.32-3.88-2.44-4.59-4.71C693.1,688.69,693.52,688.55,693.73,688.74Z" transform="translate(0.52 -295.13)"/><path class="cls-17" d="M714.77,666.37s2,8.14,2.4,12c0,.36-.89.63-2.2.85-.06,0-.1,0-.15,0-6.77,1.78-13.94.12-18.7-5.06-.31-.35.15-.8.53-.6,5.52,3.24,11.29,3.63,17.4,3.1.16-1.11-3.88-13.82-3.27-13.93,2.11-.41,6.46.61,9.05,1.09-3.66-17.08-10-33.42-13.42-50.48a.53.53,0,0,1,1-.35c7.89,16.66,12.53,36.21,16.77,53.74C724.72,669,716.4,666.87,714.77,666.37Z" transform="translate(0.52 -295.13)"/><path class="cls-17" d="M608.7,659.64c13.14-.46,13-28.1,13-28.1s26.47-2.91,30.91-41.95c0,0,1.43,17.78-8.16,32.79,0,0,46.11-10.21,61.35-51.48,0,0-5.59,20.78-12.15,28.68,0,0,19-7.67,26.72-24.63,0,0,10.71,21.62,17.7,27.13,0,0-11.13-81.44-85.8-64.22,0,0-47,8.48-59.8,47.89S608.7,659.64,608.7,659.64Z" transform="translate(0.52 -295.13)"/><path class="cls-20" d="M678.41,674.73a25.34,25.34,0,1,1,24.3-31.8h0a25.38,25.38,0,0,1-18.05,31A25.05,25.05,0,0,1,678.41,674.73Zm-.39-47.3a22,22,0,1,0,21.41,16.36A21.94,21.94,0,0,0,678,627.43Z" transform="translate(0.52 -295.13)"/><path class="cls-20" d="M736.07,667.17c-9.69.08-18.57-9.78-20.22-22.9A30.18,30.18,0,0,1,719,626c2.92-5.32,7.35-8.61,12.45-9.25s10.21,1.44,14.36,5.88a30.26,30.26,0,0,1,7.52,16.91c1.75,13.86-5.23,26.2-15.55,27.5A15.25,15.25,0,0,1,736.07,667.17Zm-3-47.12a10.86,10.86,0,0,0-1.28.08c-4,.51-7.52,3.18-9.92,7.53a27,27,0,0,0-2.71,16.19c1.52,12,9.61,20.92,18.11,19.84S751.43,652,749.92,640a26.87,26.87,0,0,0-6.63-15C740.26,621.73,736.69,620,733.11,620.05Z" transform="translate(0.52 -295.13)"/><path class="cls-20" d="M702.23,646l-2.49-2.31c3.41-3.68,11.69-9.09,18.66-3.29l-2.17,2.6C710,637.74,702.54,645.62,702.23,646Z" transform="translate(0.52 -295.13)"/><path class="cls-20" d="M596.09,666.81l-3.18-1.17c.55-1.48,5.54-14.55,12.89-16.71,6.88-2,47.39-3.75,49.32-3.81l.11,3.39c-13.08.4-43.16,2.1-48.47,3.67C601.9,653.6,597.42,663.22,596.09,666.81Z" transform="translate(0.52 -295.13)"/><path class="cls-19" d="M604.71,687.41a16.85,16.85,0,0,0,3.82.82,12.61,12.61,0,0,0,3.85-.06,11.45,11.45,0,0,0,4.64-1.72,13.73,13.73,0,0,0,3-2.51,15.73,15.73,0,0,0,2.9-4.71l-5.43-21.59s-18.9-24.7-30.15-17.85S590.93,683,604.71,687.41Z" transform="translate(0.52 -295.13)"/><path class="cls-17" d="M591.82,650.08c-.21,0-.24.29-.05.36,9.67,3.45,15.05,12,18.94,21-3-3.39-6.91-5.16-11.48-1.59-.24.18,0,.56.28.5,3.86-1,6.7-.45,9.46,2.56a40.78,40.78,0,0,1,4.79,7.36c.48.83,2,.31,1.63-.65,0-.07-.06-.15-.08-.22C615,667.31,604.89,650.75,591.82,650.08Z" transform="translate(0.52 -295.13)"/><path class="cls-10" d="M605.7,683.93a3.78,3.78,0,1,0,2.77-4.57A3.78,3.78,0,0,0,605.7,683.93Z" transform="translate(0.52 -295.13)"/><path class="cls-10" d="M597.69,678.56a2.68,2.68,0,1,0,2-3.23A2.68,2.68,0,0,0,597.69,678.56Z" transform="translate(0.52 -295.13)"/><path class="cls-4" d="M667.42,755l-12.18,37-47.79-42.79-11.77,15.47s48.55,69.74,48.61,66.45l12.88-32.08L680,819.35l-5.24-54.23Z" transform="translate(0.52 -295.13)"/><path class="cls-17" d="M679,792.4c-1.16-8.93-2.09-17.95-3.66-26.81-.06-.32-.56-.43-.62-.05-1.24,8.77,3.4,42.88,3.89,51.1l-.1-.09c-1-.88-21.13-17.77-21.3-17.47-2.91,5.15-12.37,28.51-13,30.62-7.68-11.08-37-51.27-45.88-61.64a.31.31,0,0,0-.52.34c6.91,11.78,45.74,66,46.27,65.75.39.27,12.16-28.52,13.44-33.89,3.47,3.74,24,22.94,24,21.6A279.3,279.3,0,0,0,679,792.4Z" transform="translate(0.52 -295.13)"/><g class="cls-23"><circle cx="1452.34" cy="1243.31" r="590.97" transform="translate(-453.25 1095.99) rotate(-45)"/></g><circle class="cls-24" cx="1448.34" cy="1232.31" r="590.97" transform="translate(-446.65 1089.93) rotate(-45)"/><circle class="cls-10" cx="1448.34" cy="1232.31" r="471.31" transform="translate(-446.65 1089.93) rotate(-45)"/><polygon class="cls-24" points="1733.3 862.13 1523.91 862.13 1523.91 652.75 1373.81 652.75 1373.82 862.13 1164.43 862.13 1164.43 1012.23 1373.82 1012.23 1373.82 1221.62 1523.91 1221.61 1523.91 1012.23 1733.3 1012.23 1733.3 862.13"/><path class="cls-19" d="M565.19,781c-52.26,70.71-152,238.06-118.54,274.92,55.05,60.6,187.46,111.86,228.69,123.11,17.8,4.85,77.38-125.35,60.46-135.48C715.5,1031.35,573.69,988,574.09,975.9c.22-6.84,15-64.23,27.14-137.88C615.34,752.59,590.1,747.27,565.19,781Z" transform="translate(0.52 -295.13)"/><g class="cls-25"><path d="M682.78,1042.86s32-10.37,65.41-25.53c18.67-8.46,52-20.1,68.52-20,24.76.09,128.26,16.29,124.87,41.46-3.06,22.8-90.22-2.41-90.22-2.41s90.2,17.66,81.46,44.43S829.4,1066,829.4,1066s92.26,20.22,78.89,46.4c-10.11,19.78-98-13-98-13S889.48,1117.25,880,1138c-10.51,23-93.53-2.23-93.53-2.23-33.09,48.78-84.28,67.77-120.4,51.2C660.2,1184.34,682.78,1042.86,682.78,1042.86Z" transform="translate(0.52 -295.13)"/><path d="M820.56,1028.24c10.67,1.69,21.48,3.33,32,6s20.88,5.64,31.07,9.23c25,8.83,39.26,18.26,38.32,17.77-22.35-11.51-59.73-21.51-70.22-24.15s-20.79-5.78-31.25-8.42C820.18,1028.57,820.31,1028.2,820.56,1028.24Z" transform="translate(0.52 -295.13)"/><path d="M810.37,1065.92c13.53,2.75,27.06,5,40.47,8.33s25.72,7.65,38.81,11.89c1,.33.5.77-.53.48-13.24-3.72-25.77-6.13-39-9.69s-26.44-7.63-39.79-10.7C810.07,1066.19,810.16,1065.88,810.37,1065.92Z" transform="translate(0.52 -295.13)"/><path d="M795.8,1096.68c20.89,3.14,41.18,10.14,60.92,17.47,1,.37.27.85-.76.54-20.14-6.19-35.9-11.19-60.27-17.28C795.31,1097.31,795.36,1096.62,795.8,1096.68Z" transform="translate(0.52 -295.13)"/><path d="M682.78,1042.86s32-10.37,65.41-25.53c18.67-8.46,52-20.1,68.52-20,24.76.09,128.26,16.29,124.87,41.46-3.06,22.8-90.22-2.41-90.22-2.41s90.2,17.66,81.46,44.43S829.4,1066,829.4,1066s92.26,20.22,78.89,46.4c-10.11,19.78-98-13-98-13S889.48,1117.25,880,1138c-10.51,23-93.53-2.23-93.53-2.23-33.09,48.78-84.28,67.77-120.4,51.2C660.2,1184.34,682.78,1042.86,682.78,1042.86Z" transform="translate(0.52 -295.13)"/><path d="M820.56,1028.24c10.67,1.69,21.48,3.33,32,6s20.88,5.64,31.07,9.23c25,8.83,39.26,18.26,38.32,17.77-22.35-11.51-59.73-21.51-70.22-24.15s-20.79-5.78-31.25-8.42C820.18,1028.57,820.31,1028.2,820.56,1028.24Z" transform="translate(0.52 -295.13)"/><path d="M810.37,1065.92c13.53,2.75,27.06,5,40.47,8.33s25.72,7.65,38.81,11.89c1,.33.5.77-.53.48-13.24-3.72-25.77-6.13-39-9.69s-26.44-7.63-39.79-10.7C810.07,1066.19,810.16,1065.88,810.37,1065.92Z" transform="translate(0.52 -295.13)"/><path d="M795.8,1096.68c20.89,3.14,41.18,10.14,60.92,17.47,1,.37.27.85-.76.54-20.14-6.19-35.9-11.19-60.27-17.28C795.31,1097.31,795.36,1096.62,795.8,1096.68Z" transform="translate(0.52 -295.13)"/><path d="M682.78,1042.86s32-10.37,65.41-25.53c18.67-8.46,52-20.1,68.52-20,24.76.09,128.26,16.29,124.87,41.46-3.06,22.8-90.22-2.41-90.22-2.41s90.2,17.66,81.46,44.43S829.4,1066,829.4,1066s92.26,20.22,78.89,46.4c-10.11,19.78-98-13-98-13S889.48,1117.25,880,1138c-10.51,23-93.53-2.23-93.53-2.23-33.09,48.78-84.28,67.77-120.4,51.2C660.2,1184.34,682.78,1042.86,682.78,1042.86Z" transform="translate(0.52 -295.13)"/><path d="M820.56,1028.24c10.67,1.69,21.48,3.33,32,6s20.88,5.64,31.07,9.23c25,8.83,39.26,18.26,38.32,17.77-22.35-11.51-59.73-21.51-70.22-24.15s-20.79-5.78-31.25-8.42C820.18,1028.57,820.31,1028.2,820.56,1028.24Z" transform="translate(0.52 -295.13)"/><path d="M810.37,1065.92c13.53,2.75,27.06,5,40.47,8.33s25.72,7.65,38.81,11.89c1,.33.5.77-.53.48-13.24-3.72-25.77-6.13-39-9.69s-26.44-7.63-39.79-10.7C810.07,1066.19,810.16,1065.88,810.37,1065.92Z" transform="translate(0.52 -295.13)"/><path d="M795.8,1096.68c20.89,3.14,41.18,10.14,60.92,17.47,1,.37.27.85-.76.54-20.14-6.19-35.9-11.19-60.27-17.28C795.31,1097.31,795.36,1096.62,795.8,1096.68Z" transform="translate(0.52 -295.13)"/><path d="M768,1009c5.13-3.34,11.08-5.7,16.69-8a119.77,119.77,0,0,1,16.48-5.5,90.28,90.28,0,0,1,37.21-1.51c41.06,6.73,62.62,16.4,86,25.76.47.19.28,1-.23.92-23.31-6.28-48.71-16.23-84.27-21.58-12.38-1.86-24.53-2.32-36.77.33a188.5,188.5,0,0,0-18.42,5.28c-5.4,1.75-10.74,4.15-16.28,5.37A.59.59,0,0,1,768,1009Z" transform="translate(0.52 -295.13)"/><path d="M682.78,1042.86s32-10.37,65.41-25.53c18.67-8.46,52-20.1,68.52-20,24.76.09,128.26,16.29,124.87,41.46-3.06,22.8-90.22-2.41-90.22-2.41s90.2,17.66,81.46,44.43S829.4,1066,829.4,1066s92.26,20.22,78.89,46.4c-10.11,19.78-98-13-98-13S889.48,1117.25,880,1138c-10.51,23-93.53-2.23-93.53-2.23-33.09,48.78-84.28,67.77-120.4,51.2C660.2,1184.34,682.78,1042.86,682.78,1042.86Z" transform="translate(0.52 -295.13)"/><path d="M820.56,1028.24c10.67,1.69,21.48,3.33,32,6s20.88,5.64,31.07,9.23c25,8.83,39.26,18.26,38.32,17.77-22.35-11.51-59.73-21.51-70.22-24.15s-20.79-5.78-31.25-8.42C820.18,1028.57,820.31,1028.2,820.56,1028.24Z" transform="translate(0.52 -295.13)"/><path d="M810.37,1065.92c13.53,2.75,27.06,5,40.47,8.33s25.72,7.65,38.81,11.89c1,.33.5.77-.53.48-13.24-3.72-25.77-6.13-39-9.69s-26.44-7.63-39.79-10.7C810.07,1066.19,810.16,1065.88,810.37,1065.92Z" transform="translate(0.52 -295.13)"/><path d="M795.8,1096.68c20.89,3.14,41.18,10.14,60.92,17.47,1,.37.27.85-.76.54-20.14-6.19-35.9-11.19-60.27-17.28C795.31,1097.31,795.36,1096.62,795.8,1096.68Z" transform="translate(0.52 -295.13)"/><path d="M682.78,1042.86s32-10.37,65.41-25.53c18.67-8.46,52-20.1,68.52-20,24.76.09,128.26,16.29,124.87,41.46-3.06,22.8-90.22-2.41-90.22-2.41s90.2,17.66,81.46,44.43S829.4,1066,829.4,1066s92.26,20.22,78.89,46.4c-10.11,19.78-98-13-98-13S889.48,1117.25,880,1138c-10.51,23-93.53-2.23-93.53-2.23-33.09,48.78-84.28,67.77-120.4,51.2C660.2,1184.34,682.78,1042.86,682.78,1042.86Z" transform="translate(0.52 -295.13)"/><path d="M820.56,1028.24c10.67,1.69,21.48,3.33,32,6s20.88,5.64,31.07,9.23c25,8.83,39.26,18.26,38.32,17.77-22.35-11.51-59.73-21.51-70.22-24.15s-20.79-5.78-31.25-8.42C820.18,1028.57,820.31,1028.2,820.56,1028.24Z" transform="translate(0.52 -295.13)"/><path d="M810.37,1065.92c13.53,2.75,27.06,5,40.47,8.33s25.72,7.65,38.81,11.89c1,.33.5.77-.53.48-13.24-3.72-25.77-6.13-39-9.69s-26.44-7.63-39.79-10.7C810.07,1066.19,810.16,1065.88,810.37,1065.92Z" transform="translate(0.52 -295.13)"/><path d="M795.8,1096.68c20.89,3.14,41.18,10.14,60.92,17.47,1,.37.27.85-.76.54-20.14-6.19-35.9-11.19-60.27-17.28C795.31,1097.31,795.36,1096.62,795.8,1096.68Z" transform="translate(0.52 -295.13)"/><path d="M768,1009c5.13-3.34,11.08-5.7,16.69-8a119.77,119.77,0,0,1,16.48-5.5,90.28,90.28,0,0,1,37.21-1.51c41.06,6.73,62.62,16.4,86,25.76.47.19.28,1-.23.92-23.31-6.28-48.71-16.23-84.27-21.58-12.38-1.86-24.53-2.32-36.77.33a188.5,188.5,0,0,0-18.42,5.28c-5.4,1.75-10.74,4.15-16.28,5.37A.59.59,0,0,1,768,1009Z" transform="translate(0.52 -295.13)"/></g><path class="cls-19" d="M682.78,1032.1s32-10.38,65.41-25.53c18.67-8.46,52-20.1,68.52-20,24.76.09,128.26,16.29,124.87,41.46-3.06,22.8-90.22-2.41-90.22-2.41s90.2,17.66,81.46,44.42-103.42-14.8-103.42-14.8,92.26,20.22,78.89,46.4c-10.11,19.78-98-13-98-13s79.18,17.93,69.66,38.72c-10.51,23-93.53-2.23-93.53-2.23-33.09,48.78-84.28,67.77-120.4,51.2C660.2,1173.58,682.78,1032.1,682.78,1032.1Z" transform="translate(0.52 -295.13)"/><path class="cls-19" d="M820.56,1017.48c10.67,1.69,21.48,3.33,32,6s20.88,5.64,31.07,9.23c25,8.83,39.26,18.26,38.32,17.77-22.35-11.51-59.73-21.51-70.22-24.15s-20.79-5.78-31.25-8.42C820.18,1017.81,820.31,1017.44,820.56,1017.48Z" transform="translate(0.52 -295.13)"/><path class="cls-19" d="M810.37,1055.16c13.53,2.75,27.06,5,40.47,8.33s25.72,7.65,38.81,11.89c1,.33.5.77-.53.48-13.24-3.72-25.77-6.13-39-9.69s-26.44-7.64-39.79-10.7C810.07,1055.43,810.16,1055.12,810.37,1055.16Z" transform="translate(0.52 -295.13)"/><path class="cls-19" d="M795.8,1085.92c20.89,3.14,41.18,10.14,60.92,17.47,1,.37.27.85-.76.54-20.14-6.19-35.9-11.19-60.27-17.28C795.31,1086.55,795.36,1085.86,795.8,1085.92Z" transform="translate(0.52 -295.13)"/><path class="cls-19" d="M682.78,1032.1s32-10.38,65.41-25.53c18.67-8.46,52-20.1,68.52-20,24.76.09,128.26,16.29,124.87,41.46-3.06,22.8-90.22-2.41-90.22-2.41s90.2,17.66,81.46,44.42-103.42-14.8-103.42-14.8,92.26,20.22,78.89,46.4c-10.11,19.78-98-13-98-13s79.18,17.93,69.66,38.72c-10.51,23-93.53-2.23-93.53-2.23-33.09,48.78-84.28,67.77-120.4,51.2C660.2,1173.58,682.78,1032.1,682.78,1032.1Z" transform="translate(0.52 -295.13)"/><path class="cls-19" d="M820.56,1017.48c10.67,1.69,21.48,3.33,32,6s20.88,5.64,31.07,9.23c25,8.83,39.26,18.26,38.32,17.77-22.35-11.51-59.73-21.51-70.22-24.15s-20.79-5.78-31.25-8.42C820.18,1017.81,820.31,1017.44,820.56,1017.48Z" transform="translate(0.52 -295.13)"/><path class="cls-19" d="M810.37,1055.16c13.53,2.75,27.06,5,40.47,8.33s25.72,7.65,38.81,11.89c1,.33.5.77-.53.48-13.24-3.72-25.77-6.13-39-9.69s-26.44-7.64-39.79-10.7C810.07,1055.43,810.16,1055.12,810.37,1055.16Z" transform="translate(0.52 -295.13)"/><path class="cls-19" d="M795.8,1085.92c20.89,3.14,41.18,10.14,60.92,17.47,1,.37.27.85-.76.54-20.14-6.19-35.9-11.19-60.27-17.28C795.31,1086.55,795.36,1085.86,795.8,1085.92Z" transform="translate(0.52 -295.13)"/><path class="cls-19" d="M682.78,1032.1s32-10.38,65.41-25.53c18.67-8.46,52-20.1,68.52-20,24.76.09,128.26,16.29,124.87,41.46-3.06,22.8-90.22-2.41-90.22-2.41s90.2,17.66,81.46,44.42-103.42-14.8-103.42-14.8,92.26,20.22,78.89,46.4c-10.11,19.78-98-13-98-13s79.18,17.93,69.66,38.72c-10.51,23-93.53-2.23-93.53-2.23-33.09,48.78-84.28,67.77-120.4,51.2C660.2,1173.58,682.78,1032.1,682.78,1032.1Z" transform="translate(0.52 -295.13)"/><path class="cls-19" d="M820.56,1017.48c10.67,1.69,21.48,3.33,32,6s20.88,5.64,31.07,9.23c25,8.83,39.26,18.26,38.32,17.77-22.35-11.51-59.73-21.51-70.22-24.15s-20.79-5.78-31.25-8.42C820.18,1017.81,820.31,1017.44,820.56,1017.48Z" transform="translate(0.52 -295.13)"/><path class="cls-19" d="M810.37,1055.16c13.53,2.75,27.06,5,40.47,8.33s25.72,7.65,38.81,11.89c1,.33.5.77-.53.48-13.24-3.72-25.77-6.13-39-9.69s-26.44-7.64-39.79-10.7C810.07,1055.43,810.16,1055.12,810.37,1055.16Z" transform="translate(0.52 -295.13)"/><path class="cls-19" d="M795.8,1085.92c20.89,3.14,41.18,10.14,60.92,17.47,1,.37.27.85-.76.54-20.14-6.19-35.9-11.19-60.27-17.28C795.31,1086.55,795.36,1085.86,795.8,1085.92Z" transform="translate(0.52 -295.13)"/><path class="cls-19" d="M768,998.22c5.13-3.34,11.08-5.7,16.69-8a119.77,119.77,0,0,1,16.48-5.5,90.28,90.28,0,0,1,37.21-1.51c41.06,6.73,62.62,16.4,86,25.76.47.19.28,1.05-.23.92-23.31-6.28-48.71-16.23-84.27-21.58-12.38-1.86-24.53-2.32-36.77.33a188.5,188.5,0,0,0-18.42,5.28c-5.4,1.75-10.74,4.15-16.28,5.37A.59.59,0,0,1,768,998.22Z" transform="translate(0.52 -295.13)"/><path class="cls-19" d="M682.78,1032.1s32-10.38,65.41-25.53c18.67-8.46,52-20.1,68.52-20,24.76.09,128.26,16.29,124.87,41.46-3.06,22.8-90.22-2.41-90.22-2.41s90.2,17.66,81.46,44.42-103.42-14.8-103.42-14.8,92.26,20.22,78.89,46.4c-10.11,19.78-98-13-98-13s79.18,17.93,69.66,38.72c-10.51,23-93.53-2.23-93.53-2.23-33.09,48.78-84.28,67.77-120.4,51.2C660.2,1173.58,682.78,1032.1,682.78,1032.1Z" transform="translate(0.52 -295.13)"/><path class="cls-19" d="M820.56,1017.48c10.67,1.69,21.48,3.33,32,6s20.88,5.64,31.07,9.23c25,8.83,39.26,18.26,38.32,17.77-22.35-11.51-59.73-21.51-70.22-24.15s-20.79-5.78-31.25-8.42C820.18,1017.81,820.31,1017.44,820.56,1017.48Z" transform="translate(0.52 -295.13)"/><path class="cls-19" d="M810.37,1055.16c13.53,2.75,27.06,5,40.47,8.33s25.72,7.65,38.81,11.89c1,.33.5.77-.53.48-13.24-3.72-25.77-6.13-39-9.69s-26.44-7.64-39.79-10.7C810.07,1055.43,810.16,1055.12,810.37,1055.16Z" transform="translate(0.52 -295.13)"/><path class="cls-19" d="M795.8,1085.92c20.89,3.14,41.18,10.14,60.92,17.47,1,.37.27.85-.76.54-20.14-6.19-35.9-11.19-60.27-17.28C795.31,1086.55,795.36,1085.86,795.8,1085.92Z" transform="translate(0.52 -295.13)"/><path class="cls-19" d="M682.78,1032.1s32-10.38,65.41-25.53c18.67-8.46,52-20.1,68.52-20,24.76.09,128.26,16.29,124.87,41.46-3.06,22.8-90.22-2.41-90.22-2.41s90.2,17.66,81.46,44.42-103.42-14.8-103.42-14.8,92.26,20.22,78.89,46.4c-10.11,19.78-98-13-98-13s79.18,17.93,69.66,38.72c-10.51,23-93.53-2.23-93.53-2.23-33.09,48.78-84.28,67.77-120.4,51.2C660.2,1173.58,682.78,1032.1,682.78,1032.1Z" transform="translate(0.52 -295.13)"/><path class="cls-17" d="M820.56,1017.48c10.67,1.69,21.48,3.33,32,6s20.88,5.64,31.07,9.23c25,8.83,39.26,18.26,38.32,17.77-22.35-11.51-59.73-21.51-70.22-24.15s-20.79-5.78-31.25-8.42C820.18,1017.81,820.31,1017.44,820.56,1017.48Z" transform="translate(0.52 -295.13)"/><path class="cls-17" d="M810.37,1055.16c13.53,2.75,27.06,5,40.47,8.33s25.72,7.65,38.81,11.89c1,.33.5.77-.53.48-13.24-3.72-25.77-6.13-39-9.69s-26.44-7.64-39.79-10.7C810.07,1055.43,810.16,1055.12,810.37,1055.16Z" transform="translate(0.52 -295.13)"/><path class="cls-17" d="M795.8,1085.92c20.89,3.14,41.18,10.14,60.92,17.47,1,.37.27.85-.76.54-20.14-6.19-35.9-11.19-60.27-17.28C795.31,1086.55,795.36,1085.86,795.8,1085.92Z" transform="translate(0.52 -295.13)"/><path class="cls-17" d="M768,998.22c5.13-3.34,11.08-5.7,16.69-8a119.77,119.77,0,0,1,16.48-5.5,90.28,90.28,0,0,1,37.21-1.51c41.06,6.73,62.62,16.4,86,25.76.47.19.28,1.05-.23.92-23.31-6.28-48.71-16.23-84.27-21.58-12.38-1.86-24.53-2.32-36.77.33a188.5,188.5,0,0,0-18.42,5.28c-5.4,1.75-10.74,4.15-16.28,5.37A.59.59,0,0,1,768,998.22Z" transform="translate(0.52 -295.13)"/><path class="cls-20" d="M433.7,1031.9l145-59s18.92-77.84,26.81-150.07S594.4,732,543.45,807.1,439.3,977.75,433.7,1031.9Z" transform="translate(0.52 -295.13)"/><path class="cls-10" d="M550.68,804a29.7,29.7,0,0,1-1.73-4.85c.65-.92,1.3-1.84,1.95-2.7A29.93,29.93,0,0,1,550.68,804Zm.87,101.77a38.82,38.82,0,0,0,.13,10.88,38,38,0,0,0,2.91,10.48,38.08,38.08,0,0,0-.12-10.88A38.5,38.5,0,0,0,551.55,905.78ZM537.1,982a38.45,38.45,0,0,0,10.88-.13A37.68,37.68,0,0,0,558.46,979a37.72,37.72,0,0,0-10.88.13A38.38,38.38,0,0,0,537.1,982ZM505.87,865.86c-.6,1-1.19,2-1.78,3l1.61-.16a36.86,36.86,0,0,0,10.47-2.91A34.82,34.82,0,0,0,505.87,865.86Zm99-81.53a38.64,38.64,0,0,0-7.61,7.78,38.13,38.13,0,0,0-5.35,9.48,38.16,38.16,0,0,0,7.61-7.79A38.89,38.89,0,0,0,604.89,784.33Zm-94.33,135a41.89,41.89,0,0,0-13,17.26,38.16,38.16,0,0,0,7.61-7.79A38.56,38.56,0,0,0,510.56,919.29Zm-13.29,87.06a38.64,38.64,0,0,0-7.78-7.61,38.13,38.13,0,0,0-9.48-5.35,42.3,42.3,0,0,0,17.26,13Zm72.29-152.21a38.63,38.63,0,0,0-7.79-7.6,37.75,37.75,0,0,0-9.47-5.35,37.81,37.81,0,0,0,7.78,7.6A38.45,38.45,0,0,0,569.56,854.14Z" transform="translate(0.52 -295.13)"/><path class="cls-17" d="M604.15,867.64c-2.27,4-3.76,8.66-5.25,13-.51,1.5-1,3-1.5,4.52Q599.28,872.62,601,860c.07-.56-.75-.79-.86-.22-3.67,19-20.54,107.9-21.31,112.51-.4.05-4.9,2.61-5.18,2.59s.11.93.32.71,5.81-2.6,5.83-2.65C581.66,968.9,595,901,596.23,892.8a11.2,11.2,0,0,0,.53-1.12l1.32-3.52c.81-2.17,1.55-4.38,2.31-6.57,1.55-4.49,3.36-9.09,4.23-13.77A.25.25,0,0,0,604.15,867.64Z" transform="translate(0.52 -295.13)"/><path class="cls-17" d="M576,956.6c-5.72,1-11.42,3.33-17,5.06s-11.3,3.42-16.91,5.26c-10.81,3.55-21.51,7.38-32.17,11.34-21.39,8-42.72,16.29-63.2,26.38-.43.21-.11.92.34.76,21.87-7.62,43.36-16.29,65.06-24.4,10.66-4,21.34-7.91,32-11.88,5.34-2,10.63-4.1,16-6.06s11-3.48,16.1-6C576.57,957,576.32,956.55,576,956.6Z" transform="translate(0.52 -295.13)"/><path class="cls-26" d="M558,589.73s42.51,22.68,107,3.13,85.91-23.47,84.76-31.84c5.08,6.78,16.57,15.24,20.63,24.27a23.34,23.34,0,0,1,1.23,5.66c1.23,8.34-5.54,16.1-28.72,22.83-52.82,15.33-110.46,18.74-131.4,9.87S554.77,600.54,558,589.73Z" transform="translate(0.52 -295.13)"/><path class="cls-27" d="M750.38,561.2s-126.83,62.33-192.8,25.14c0,0-7.76-34.66,10.38-64.7h0a79.59,79.59,0,0,1,9.32-13c9.22-9.89,22.19-18.72,40.48-24.35C695.41,460.53,744.31,533.23,750.38,561.2Z" transform="translate(0.52 -295.13)"/><path class="cls-28" d="M742.42,609.9C689.58,625.21,632,628.61,611,619.76,592.6,611.94,562.73,600,558,589.92l-.06-.07a2.76,2.76,0,0,1-.18-.53,5.2,5.2,0,0,1-.21-3.46l.51.25c4.91,2.42,46,21.16,106.49,2.86,64.39-19.52,85.82-23.48,84.76-31.78,2.86,3.79,7.47,8.23,11.68,13C772.51,583.2,781.1,598.66,742.42,609.9Z" transform="translate(0.52 -295.13)"/><path class="cls-28" d="M725.74,570.73c-33,9.84-54.1,16.06-56.58,16.81l-.27.08s6.3-111.8-77.56-91.3a18.32,18.32,0,0,1-1.15-7.1c.19-5.09,2.73-11.52,13.53-14.4C622.86,469.76,699.34,460.53,725.74,570.73Z" transform="translate(0.52 -295.13)"/><path class="cls-29" d="M680.79,583.44l-11.63,4.1-.27.08s6.3-111.8-77.56-91.3a18.32,18.32,0,0,1-1.15-7.1s53.93-10,70.57,17.35S680.79,583.44,680.79,583.44Z" transform="translate(0.52 -295.13)"/><path class="cls-28" d="M639.41,544.87c-2.95,7.21-12,4.45-16.73.94-12.21-9.13-49.89-26.93-54.81-25.15a76.77,76.77,0,0,1,9.37-12.48c1-1.11,10.81.95,12.28,1.17a130.37,130.37,0,0,1,17.14,3.78c12,3.48,23.39,9.93,30.15,20.72,1.73,2.77,4,6.65,2.94,10A8.48,8.48,0,0,1,639.41,544.87Z" transform="translate(0.52 -295.13)"/><path class="cls-30" d="M761,570.19c-1.51,3-5,5.78-12,7.19-21.73,4.44-56.57,14.71-102.37,30-44.37,14.74-86.06-15.57-88.67-17.45l-.06-.07-.08-.07a.93.93,0,0,1-.1-.46,4.11,4.11,0,0,1,.3-3.21c4.91,2.42,46,21.16,106.49,2.86,64.39-19.52,85.82-23.48,84.76-31.78C752.13,561,756.74,565.42,761,570.19Z" transform="translate(0.52 -295.13)"/></g></g></g></g></svg>