<svg width="676" height="486" viewBox="0 0 676 486" fill="none" xmlns="http://www.w3.org/2000/svg">
<path fill-rule="evenodd" clip-rule="evenodd" d="M339.527 76.3205C389.597 81.0351 481.197 18.8818 531 24.6933C600.891 32.8489 643.882 71.754 670.608 114.954C696.957 157.544 602.704 174.679 582.5 218.693C561.608 264.207 600.729 342.176 550.576 376.446C498.366 412.121 410.705 499.402 339.527 483.193C268.398 466.996 272.299 330.461 213.398 299.664C159.199 271.326 62.4062 290.721 23.4803 253.081C-15.7818 215.115 0.54743 161.43 26.325 118.77C51.1565 77.6768 73.5847 9.62724 139.5 0.693359C204.628 -8.13378 273.7 70.1223 339.527 76.3205Z" fill="#E7EAEE"/>
<path d="M325.323 18.6214C325.398 18.6214 325.463 18.6517 325.519 18.7124L326.058 19.2934C325.647 19.7694 325.148 20.1404 324.56 20.4064C323.977 20.6724 323.27 20.8054 322.439 20.8054C321.72 20.8054 321.067 20.6817 320.479 20.4344C319.891 20.1824 319.389 19.8324 318.974 19.3844C318.559 18.9317 318.237 18.3904 318.008 17.7604C317.779 17.1304 317.665 16.4374 317.665 15.6814C317.665 14.9254 317.784 14.2324 318.022 13.6024C318.26 12.9724 318.594 12.431 319.023 11.9784C319.457 11.5257 319.975 11.1757 320.577 10.9284C321.179 10.6764 321.844 10.5504 322.572 10.5504C323.286 10.5504 323.916 10.6647 324.462 10.8934C325.008 11.122 325.489 11.4324 325.904 11.8244L325.456 12.4474C325.428 12.494 325.391 12.5337 325.344 12.5664C325.302 12.5944 325.244 12.6084 325.169 12.6084C325.085 12.6084 324.982 12.564 324.861 12.4754C324.74 12.382 324.581 12.2794 324.385 12.1674C324.189 12.0554 323.944 11.955 323.65 11.8664C323.356 11.773 322.994 11.7264 322.565 11.7264C322.047 11.7264 321.573 11.8174 321.144 11.9994C320.715 12.1767 320.344 12.4357 320.031 12.7764C319.723 13.117 319.483 13.5324 319.31 14.0224C319.137 14.5124 319.051 15.0654 319.051 15.6814C319.051 16.3067 319.14 16.8644 319.317 17.3544C319.499 17.8444 319.744 18.2597 320.052 18.6004C320.365 18.9364 320.731 19.193 321.151 19.3704C321.576 19.5477 322.033 19.6364 322.523 19.6364C322.822 19.6364 323.09 19.62 323.328 19.5874C323.571 19.55 323.792 19.494 323.993 19.4194C324.198 19.3447 324.387 19.2514 324.56 19.1394C324.737 19.0227 324.912 18.885 325.085 18.7264C325.164 18.6564 325.244 18.6214 325.323 18.6214ZM328.481 15.0234C328.705 14.538 328.98 14.16 329.307 13.8894C329.633 13.614 330.032 13.4764 330.504 13.4764C330.653 13.4764 330.795 13.4927 330.931 13.5254C331.071 13.558 331.194 13.6094 331.302 13.6794L331.211 14.6104C331.183 14.727 331.113 14.7854 331.001 14.7854C330.935 14.7854 330.84 14.7714 330.714 14.7434C330.588 14.7154 330.445 14.7014 330.287 14.7014C330.063 14.7014 329.862 14.734 329.685 14.7994C329.512 14.8647 329.356 14.9627 329.216 15.0934C329.08 15.2194 328.957 15.378 328.845 15.5694C328.737 15.756 328.639 15.9707 328.551 16.2134V20.6934H327.298V13.6024H328.012C328.147 13.6024 328.24 13.628 328.292 13.6794C328.343 13.7307 328.378 13.8194 328.397 13.9454L328.481 15.0234ZM336.856 16.3744C336.856 16.085 336.814 15.8214 336.73 15.5834C336.651 15.3407 336.532 15.133 336.373 14.9604C336.219 14.783 336.03 14.6477 335.806 14.5544C335.582 14.4564 335.328 14.4074 335.043 14.4074C334.446 14.4074 333.972 14.5824 333.622 14.9324C333.277 15.2777 333.062 15.7584 332.978 16.3744H336.856ZM337.864 19.6994C337.71 19.886 337.526 20.0494 337.311 20.1894C337.096 20.3247 336.865 20.4367 336.618 20.5254C336.375 20.614 336.123 20.6794 335.862 20.7214C335.601 20.768 335.342 20.7914 335.085 20.7914C334.595 20.7914 334.142 20.7097 333.727 20.5464C333.316 20.3784 332.959 20.1357 332.656 19.8184C332.357 19.4964 332.124 19.0997 331.956 18.6284C331.788 18.157 331.704 17.6157 331.704 17.0044C331.704 16.5097 331.779 16.0477 331.928 15.6184C332.082 15.189 332.301 14.818 332.586 14.5054C332.871 14.188 333.218 13.9407 333.629 13.7634C334.04 13.5814 334.502 13.4904 335.015 13.4904C335.44 13.4904 335.832 13.5627 336.191 13.7074C336.555 13.8474 336.868 14.0527 337.129 14.3234C337.395 14.5894 337.603 14.9207 337.752 15.3174C337.901 15.7094 337.976 16.1574 337.976 16.6614C337.976 16.8574 337.955 16.988 337.913 17.0534C337.871 17.1187 337.792 17.1514 337.675 17.1514H332.936C332.95 17.5994 333.011 17.989 333.118 18.3204C333.23 18.6517 333.384 18.9294 333.58 19.1534C333.776 19.3727 334.009 19.5384 334.28 19.6504C334.551 19.7577 334.854 19.8114 335.19 19.8114C335.503 19.8114 335.771 19.7764 335.995 19.7064C336.224 19.6317 336.42 19.5524 336.583 19.4684C336.746 19.3844 336.882 19.3074 336.989 19.2374C337.101 19.1627 337.197 19.1254 337.276 19.1254C337.379 19.1254 337.458 19.165 337.514 19.2444L337.864 19.6994ZM343.35 17.5014C342.776 17.52 342.286 17.5667 341.88 17.6414C341.478 17.7114 341.149 17.8047 340.893 17.9214C340.641 18.038 340.456 18.1757 340.34 18.3344C340.228 18.493 340.172 18.6704 340.172 18.8664C340.172 19.053 340.202 19.214 340.263 19.3494C340.323 19.4847 340.405 19.5967 340.508 19.6854C340.615 19.7694 340.739 19.8324 340.879 19.8744C341.023 19.9117 341.177 19.9304 341.341 19.9304C341.56 19.9304 341.761 19.9094 341.943 19.8674C342.125 19.8207 342.295 19.7554 342.454 19.6714C342.617 19.5874 342.771 19.487 342.916 19.3704C343.065 19.2537 343.21 19.1207 343.35 18.9714V17.5014ZM339.325 14.6034C339.717 14.2254 340.139 13.943 340.592 13.7564C341.044 13.5697 341.546 13.4764 342.097 13.4764C342.493 13.4764 342.846 13.5417 343.154 13.6724C343.462 13.803 343.721 13.985 343.931 14.2184C344.141 14.4517 344.299 14.734 344.407 15.0654C344.514 15.3967 344.568 15.7607 344.568 16.1574V20.6934H344.015C343.893 20.6934 343.8 20.6747 343.735 20.6374C343.669 20.5954 343.618 20.516 343.581 20.3994L343.441 19.7274C343.254 19.9 343.072 20.054 342.895 20.1894C342.717 20.32 342.531 20.432 342.335 20.5254C342.139 20.614 341.929 20.6817 341.705 20.7284C341.485 20.7797 341.24 20.8054 340.97 20.8054C340.694 20.8054 340.435 20.768 340.193 20.6934C339.95 20.614 339.738 20.4974 339.556 20.3434C339.378 20.1894 339.236 19.9957 339.129 19.7624C339.026 19.5244 338.975 19.2444 338.975 18.9224C338.975 18.6424 339.052 18.374 339.206 18.1174C339.36 17.856 339.609 17.625 339.955 17.4244C340.3 17.2237 340.75 17.0604 341.306 16.9344C341.861 16.8037 342.542 16.729 343.35 16.7104V16.1574C343.35 15.6067 343.231 15.1914 342.993 14.9114C342.755 14.6267 342.407 14.4844 341.95 14.4844C341.642 14.4844 341.383 14.524 341.173 14.6034C340.967 14.678 340.788 14.7644 340.634 14.8624C340.484 14.9557 340.354 15.042 340.242 15.1214C340.134 15.196 340.027 15.2334 339.92 15.2334C339.836 15.2334 339.763 15.2124 339.703 15.1704C339.642 15.1237 339.591 15.0677 339.549 15.0024L339.325 14.6034ZM348.547 20.8054C347.987 20.8054 347.555 20.649 347.252 20.3364C346.953 20.0237 346.804 19.5734 346.804 18.9854V14.6454H345.95C345.875 14.6454 345.812 14.6244 345.761 14.5824C345.709 14.5357 345.684 14.4657 345.684 14.3724V13.8754L346.846 13.7284L347.133 11.5374C347.147 11.4674 347.177 11.4114 347.224 11.3694C347.275 11.3227 347.34 11.2994 347.42 11.2994H348.05V13.7424H350.101V14.6454H348.05V18.9014C348.05 19.2 348.122 19.4217 348.267 19.5664C348.411 19.711 348.598 19.7834 348.827 19.7834C348.957 19.7834 349.069 19.767 349.163 19.7344C349.261 19.697 349.345 19.6574 349.415 19.6154C349.485 19.5734 349.543 19.536 349.59 19.5034C349.641 19.466 349.685 19.4474 349.723 19.4474C349.788 19.4474 349.846 19.487 349.898 19.5664L350.262 20.1614C350.047 20.362 349.788 20.5207 349.485 20.6374C349.181 20.7494 348.869 20.8054 348.547 20.8054ZM356.092 16.3744C356.092 16.085 356.05 15.8214 355.966 15.5834C355.887 15.3407 355.768 15.133 355.609 14.9604C355.455 14.783 355.266 14.6477 355.042 14.5544C354.818 14.4564 354.564 14.4074 354.279 14.4074C353.682 14.4074 353.208 14.5824 352.858 14.9324C352.513 15.2777 352.298 15.7584 352.214 16.3744H356.092ZM357.1 19.6994C356.946 19.886 356.762 20.0494 356.547 20.1894C356.333 20.3247 356.102 20.4367 355.854 20.5254C355.612 20.614 355.36 20.6794 355.098 20.7214C354.837 20.768 354.578 20.7914 354.321 20.7914C353.831 20.7914 353.379 20.7097 352.963 20.5464C352.553 20.3784 352.196 20.1357 351.892 19.8184C351.594 19.4964 351.36 19.0997 351.192 18.6284C351.024 18.157 350.94 17.6157 350.94 17.0044C350.94 16.5097 351.015 16.0477 351.164 15.6184C351.318 15.189 351.538 14.818 351.822 14.5054C352.107 14.188 352.455 13.9407 352.865 13.7634C353.276 13.5814 353.738 13.4904 354.251 13.4904C354.676 13.4904 355.068 13.5627 355.427 13.7074C355.791 13.8474 356.104 14.0527 356.365 14.3234C356.631 14.5894 356.839 14.9207 356.988 15.3174C357.138 15.7094 357.212 16.1574 357.212 16.6614C357.212 16.8574 357.191 16.988 357.149 17.0534C357.107 17.1187 357.028 17.1514 356.911 17.1514H352.172C352.186 17.5994 352.247 17.989 352.354 18.3204C352.466 18.6517 352.62 18.9294 352.816 19.1534C353.012 19.3727 353.246 19.5384 353.516 19.6504C353.787 19.7577 354.09 19.8114 354.426 19.8114C354.739 19.8114 355.007 19.7764 355.231 19.7064C355.46 19.6317 355.656 19.5524 355.819 19.4684C355.983 19.3844 356.118 19.3074 356.225 19.2374C356.337 19.1627 356.433 19.1254 356.512 19.1254C356.615 19.1254 356.694 19.165 356.75 19.2444L357.1 19.6994Z" fill="#395174"/>
<path d="M495.023 340.194C497.05 323.89 507.148 307.825 522.689 302.52C516.56 319.301 516.561 337.71 522.693 354.491C525.081 360.954 528.409 367.894 526.163 374.407C524.765 378.46 521.346 381.561 517.525 383.5C513.703 385.439 509.461 386.363 505.273 387.269L504.449 387.951C497.8 372.929 492.997 356.498 495.023 340.194Z" fill="#F0F0F0"/>
<path d="M522.843 302.828C513.793 312.974 508.168 325.715 506.767 339.241C506.414 342.148 506.521 345.092 507.084 347.965C507.723 350.747 509.095 353.306 511.057 355.377C512.847 357.346 514.906 359.152 516.187 361.521C516.825 362.744 517.197 364.087 517.279 365.464C517.362 366.84 517.152 368.219 516.665 369.509C515.534 372.755 513.305 375.4 511.035 377.912C508.515 380.7 505.853 383.556 504.782 387.253C504.652 387.701 503.965 387.473 504.094 387.026C505.958 380.595 512.198 376.941 515.174 371.148C516.562 368.445 517.145 365.307 515.843 362.454C514.705 359.959 512.583 358.095 510.753 356.117C508.81 354.125 507.384 351.686 506.599 349.015C505.892 346.18 505.672 343.244 505.949 340.335C506.467 333.776 508.013 327.338 510.53 321.259C513.365 314.306 517.367 307.888 522.364 302.285C522.674 301.938 523.15 302.483 522.843 302.828Z" fill="white"/>
<path d="M506.96 334.859C504.723 334.316 502.753 332.995 501.4 331.132C500.047 329.27 499.4 326.987 499.575 324.691C499.612 324.226 500.335 324.262 500.298 324.727C500.131 326.864 500.734 328.991 501.998 330.723C503.261 332.455 505.101 333.678 507.187 334.172C507.64 334.279 507.41 334.966 506.96 334.859Z" fill="white"/>
<path d="M510.018 354.499C514.057 352.086 517.039 348.239 518.369 343.724C518.5 343.276 519.187 343.504 519.056 343.951C517.663 348.646 514.552 352.644 510.344 355.146C509.942 355.384 509.619 354.736 510.018 354.499Z" fill="white"/>
<path d="M514.035 314.992C514.856 315.382 515.762 315.562 516.67 315.516C517.579 315.47 518.461 315.199 519.239 314.727C519.637 314.484 519.96 315.132 519.565 315.374C518.703 315.891 517.728 316.19 516.724 316.243C515.721 316.296 514.719 316.102 513.808 315.679C513.719 315.646 513.645 315.581 513.602 315.496C513.56 315.411 513.551 315.313 513.578 315.222C513.608 315.131 513.673 315.056 513.759 315.013C513.845 314.97 513.944 314.962 514.035 314.992Z" fill="white"/>
<path d="M570.059 331.64C569.815 331.799 569.571 331.958 569.326 332.123C566.053 334.276 562.961 336.692 560.079 339.347C559.853 339.548 559.627 339.756 559.407 339.964C552.532 346.433 546.918 354.123 542.849 362.643C541.233 366.035 539.877 369.545 538.793 373.143C537.296 378.111 536.069 383.618 533.106 387.682C532.802 388.109 532.472 388.517 532.117 388.904H505.346C505.285 388.873 505.224 388.849 505.163 388.818L504.094 388.867C504.137 388.678 504.185 388.482 504.228 388.293C504.253 388.183 504.283 388.073 504.308 387.963C504.326 387.889 504.344 387.816 504.356 387.749C504.362 387.724 504.369 387.7 504.375 387.682C504.387 387.614 504.405 387.553 504.418 387.492C504.686 386.398 504.963 385.304 505.248 384.21C505.248 384.204 505.248 384.204 505.254 384.198C507.447 375.868 510.354 367.649 514.416 360.132C514.538 359.905 514.66 359.673 514.795 359.447C516.644 356.069 518.767 352.848 521.141 349.816C522.446 348.159 523.835 346.57 525.301 345.055C529.096 341.146 533.482 337.858 538.298 335.313C547.9 330.241 559.016 328.297 569.278 331.396C569.54 331.475 569.797 331.555 570.059 331.64Z" fill="#F0F0F0"/>
<path d="M570 331.98C556.669 334.63 544.511 341.414 535.253 351.371C533.222 353.479 531.536 355.894 530.257 358.527C529.093 361.133 528.648 364.002 528.968 366.838C529.213 369.488 529.771 372.171 529.368 374.834C529.142 376.194 528.63 377.492 527.868 378.64C527.105 379.789 526.108 380.764 524.943 381.5C522.087 383.41 518.715 384.18 515.391 384.817C511.701 385.526 507.857 386.203 504.777 388.509C504.404 388.788 503.993 388.193 504.365 387.914C509.724 383.901 516.904 384.743 522.766 381.911C525.501 380.589 527.855 378.434 528.532 375.372C529.125 372.694 528.552 369.927 528.281 367.246C527.928 364.485 528.257 361.678 529.238 359.073C530.379 356.383 531.97 353.907 533.941 351.751C538.302 346.826 543.41 342.617 549.078 339.28C555.525 335.435 562.583 332.722 569.944 331.258C570.4 331.168 570.452 331.891 570 331.98Z" fill="white"/>
<path d="M538.042 347.989C536.583 346.208 535.805 343.967 535.845 341.664C535.886 339.362 536.743 337.15 538.264 335.421C538.573 335.073 539.129 335.537 538.82 335.886C537.4 337.492 536.602 339.554 536.569 341.698C536.535 343.841 537.268 345.927 538.637 347.577C538.933 347.936 538.337 348.346 538.042 347.989Z" fill="white"/>
<path d="M528.668 365.511C533.345 366.017 538.041 364.742 541.82 361.938C542.194 361.66 542.605 362.255 542.232 362.533C538.294 365.443 533.405 366.761 528.539 366.223C528.075 366.172 528.207 365.46 528.668 365.511Z" fill="white"/>
<path d="M555.647 336.387C556.068 337.194 556.682 337.883 557.435 338.394C558.189 338.904 559.056 339.219 559.961 339.311C560.425 339.357 560.293 340.069 559.832 340.024C558.833 339.918 557.875 339.568 557.041 339.006C556.208 338.444 555.525 337.687 555.052 336.799C555 336.72 554.981 336.623 554.998 336.529C555.015 336.436 555.067 336.352 555.144 336.296C555.223 336.241 555.32 336.221 555.414 336.238C555.508 336.255 555.592 336.309 555.647 336.387Z" fill="white"/>
<path d="M408.563 257.881C409.117 257.308 409.538 256.621 409.798 255.868C410.058 255.114 410.149 254.313 410.066 253.521C409.983 252.728 409.727 251.964 409.317 251.281C408.906 250.598 408.351 250.013 407.69 249.568L412.64 230.841L403.104 234.05L399.866 251.342C399.193 252.502 398.968 253.869 399.234 255.184C399.501 256.499 400.24 257.67 401.312 258.476C402.384 259.282 403.714 259.667 405.05 259.557C406.387 259.447 407.636 258.851 408.563 257.881Z" fill="#9E616A"/>
<path d="M452.676 383.668L446.035 383.667L442.875 358.034L452.678 358.035L452.676 383.668Z" fill="#9E616A"/>
<path d="M454.369 390.11L432.953 390.109V389.838C432.953 387.626 433.832 385.505 435.395 383.94C436.958 382.376 439.078 381.498 441.289 381.498L454.37 381.498L454.369 390.11Z" fill="#2F2E41"/>
<path d="M421.255 383.668L414.613 383.667L411.453 358.034L421.256 358.035L421.255 383.668Z" fill="#9E616A"/>
<path d="M422.947 390.11L401.531 390.109V389.838C401.531 387.626 402.41 385.505 403.973 383.94C405.536 382.376 407.656 381.498 409.867 381.498L422.948 381.498L422.947 390.11Z" fill="#2F2E41"/>
<path d="M417.557 229.223L415.008 229.928C415.008 229.928 408.347 273.13 407.806 295.897C407.264 318.664 409.431 376.123 409.431 376.123H423.517L434.894 278.551L440.311 376.123H455.48C455.48 376.123 466.316 248.195 461.44 237.896C456.564 227.597 417.557 229.223 417.557 229.223Z" fill="#2F2E41"/>
<path d="M437.884 152.991C444.913 152.991 450.611 147.289 450.611 140.256C450.611 133.223 444.913 127.521 437.884 127.521C430.855 127.521 425.156 133.223 425.156 140.256C425.156 147.289 430.855 152.991 437.884 152.991Z" fill="#9E616A"/>
<path d="M470.112 169.596L450.357 156.678L429.886 157.485L409.977 168.511L417.561 210.793L414.311 235.185C414.311 235.185 443.566 231.933 450.067 236.812C453.863 239.706 458.341 241.573 463.069 242.232L461.985 200.493L470.112 169.596Z" fill="#3F3D56"/>
<path d="M413.768 167.969L411.721 167.544L409.976 168.511C409.976 168.511 405.1 175.016 405.1 180.979C405.1 186.942 399.141 244.401 399.141 244.401L409.976 249.279L418.644 204.288L413.768 167.969Z" fill="#3F3D56"/>
<path d="M449.025 130.919C449.025 130.919 452.354 124.552 445.03 123.973C445.03 123.973 438.787 118.306 432.423 122.937C432.423 122.937 428.952 122.937 427.054 126.867C427.054 126.867 424.324 125.831 423.724 128.604C423.724 128.604 421.726 134.393 423.724 139.602C425.721 144.812 426.385 145.391 426.385 145.391C426.385 145.391 423.102 134.468 431.092 133.889C439.082 133.311 448.023 128.315 448.689 134.682C449.355 141.049 450.357 142.618 450.357 142.618C450.357 142.618 456.682 133.524 449.025 130.919Z" fill="#2F2E41"/>
<path d="M284.558 205.835H126.906V87.6653H284.558V205.835Z" fill="white"/>
<path d="M284.558 205.835H126.906V87.6653H284.558V205.835ZM128.532 89.2915V204.209H282.933V89.2915H128.532Z" fill="#E6E6E6"/>
<path d="M205.682 177.007C222.261 177.007 235.701 163.56 235.701 146.972C235.701 130.384 222.261 116.937 205.682 116.937C189.104 116.937 175.664 130.384 175.664 146.972C175.664 163.56 189.104 177.007 205.682 177.007Z" fill="#112D57"/>
<path d="M218.148 144.45H207.941V134.238C207.941 133.601 207.688 132.989 207.238 132.539C206.788 132.088 206.177 131.835 205.54 131.835C204.903 131.835 204.292 132.088 203.841 132.539C203.391 132.989 203.138 133.601 203.138 134.238V144.45H192.932C192.295 144.45 191.684 144.703 191.234 145.154C190.783 145.604 190.53 146.215 190.53 146.853C190.53 147.49 190.783 148.101 191.234 148.552C191.684 149.003 192.295 149.256 192.932 149.256H203.138V159.468C203.138 160.105 203.391 160.716 203.841 161.167C204.292 161.618 204.903 161.871 205.54 161.871C206.177 161.871 206.788 161.618 207.238 161.167C207.688 160.716 207.941 160.105 207.941 159.468V149.256H218.148C218.784 149.256 219.395 149.003 219.846 148.552C220.296 148.101 220.549 147.49 220.549 146.853C220.549 146.215 220.296 145.604 219.846 145.154C219.395 144.703 218.784 144.45 218.148 144.45Z" fill="white"/>
<path d="M139.91 87.1721H81V42.6934H139.91V87.1721Z" fill="white"/>
<path d="M139.91 87.1721H81V42.6934H139.91V87.1721ZM82.0835 86.0879H138.827V43.7775H82.0835V86.0879Z" fill="#E6E6E6"/>
<path d="M132.143 54.8074H88.7734V57.7004H132.143V54.8074Z" fill="#E4E4E4"/>
<path d="M132.143 63.4858H88.7734V66.3788H132.143V63.4858Z" fill="#E4E4E4"/>
<path d="M132.143 72.165H88.7734V75.058H132.143V72.165Z" fill="#E4E4E4"/>
<path d="M531.598 390.186H472.688V345.708H531.598V390.186Z" fill="white"/>
<path d="M531.598 390.186H472.688V345.708H531.598V390.186ZM473.771 389.102H530.514V346.792H473.771V389.102Z" fill="#E6E6E6"/>
<path d="M523.831 357.822H480.461V360.715H523.831V357.822Z" fill="#E4E4E4"/>
<path d="M523.831 366.5H480.461V369.393H523.831V366.5Z" fill="#E4E4E4"/>
<path d="M523.831 375.179H480.461V378.072H523.831V375.179Z" fill="#E4E4E4"/>
<path d="M495.823 310.377L451.82 271.186L481.377 237.963L525.38 277.154L495.823 310.377Z" fill="white"/>
<path d="M495.823 310.377L451.82 271.186L481.377 237.963L525.38 277.154L495.823 310.377ZM453.35 271.097L495.734 308.846L523.85 277.243L481.466 239.493L453.35 271.097Z" fill="#E6E6E6"/>
<path d="M479.133 252.18L477.211 254.341L509.606 283.194L511.528 281.033L479.133 252.18Z" fill="#E4E4E4"/>
<path d="M473.368 258.663L471.445 260.823L503.84 289.676L505.762 287.515L473.368 258.663Z" fill="#E4E4E4"/>
<path d="M467.602 265.145L465.68 267.306L498.074 296.159L499.997 293.998L467.602 265.145Z" fill="#E4E4E4"/>
<path d="M173.266 113.191H107.547V63.5718H173.266V113.191Z" fill="white"/>
<path d="M173.266 113.191H107.547V63.5718H173.266V113.191ZM108.756 111.982H172.057V64.7812H108.756V111.982Z" fill="#E6E6E6"/>
<path d="M164.593 77.0859H116.211V80.3133H164.593V77.0859Z" fill="#112D57"/>
<path d="M164.593 86.7676H116.211V89.9949H164.593V86.7676Z" fill="#112D57"/>
<path d="M164.593 96.4497H116.211V99.6771H164.593V96.4497Z" fill="#112D57"/>
<path d="M343.82 243.089H243.531V167.368H343.82V243.089Z" fill="white"/>
<path d="M343.82 243.089H243.531V167.368H343.82V243.089ZM245.376 241.243H341.975V169.214H245.376V241.243Z" fill="#E6E6E6"/>
<path d="M330.59 187.991H256.758V192.916H330.59V187.991Z" fill="#112D57"/>
<path d="M330.59 202.765H256.758V207.69H330.59V202.765Z" fill="#112D57"/>
<path d="M330.59 217.541H256.758V222.466H330.59V217.541Z" fill="#112D57"/>
<path d="M581.354 390.693H321.151C320.98 390.693 320.817 390.625 320.696 390.504C320.576 390.383 320.508 390.219 320.508 390.048C320.508 389.877 320.576 389.713 320.696 389.592C320.817 389.471 320.98 389.403 321.151 389.403H581.354C581.525 389.403 581.69 389.471 581.811 389.592C581.932 389.713 581.999 389.877 581.999 390.048C581.999 390.219 581.932 390.383 581.811 390.504C581.69 390.625 581.525 390.693 581.354 390.693Z" fill="#CACACA"/>
<path d="M463.378 257.472C462.99 256.777 462.759 256.004 462.702 255.209C462.644 254.414 462.762 253.617 463.046 252.872C463.33 252.128 463.774 251.455 464.346 250.9C464.919 250.346 465.605 249.924 466.358 249.664L466.391 230.294L474.78 235.849L473.463 253.392C473.815 254.687 473.681 256.066 473.086 257.268C472.49 258.47 471.475 259.411 470.231 259.914C468.988 260.417 467.604 260.446 466.341 259.996C465.078 259.546 464.023 258.648 463.378 257.472Z" fill="#9E616A"/>
<path d="M464.152 171.764L467.9 168.149L470.653 170.138C470.653 170.138 473.362 173.39 475.529 183.147C477.696 192.904 475.529 246.569 475.529 246.569L463.61 244.943L465.235 216.755L460.359 192.904L464.152 171.764Z" fill="#3F3D56"/>
</svg>
