<svg width="149" height="14" viewBox="0 0 149 14" fill="none" xmlns="http://www.w3.org/2000/svg">
<path d="M8.323 8.928C8.39767 8.928 8.463 8.95833 8.519 9.019L9.058 9.6C8.64733 10.076 8.148 10.447 7.56 10.713C6.97667 10.979 6.26967 11.112 5.439 11.112C4.72033 11.112 4.067 10.9883 3.479 10.741C2.891 10.489 2.38933 10.139 1.974 9.691C1.55867 9.23833 1.23667 8.697 1.008 8.067C0.779333 7.437 0.665 6.744 0.665 5.988C0.665 5.232 0.784 4.539 1.022 3.909C1.26 3.279 1.59367 2.73767 2.023 2.285C2.457 1.83233 2.975 1.48233 3.577 1.235C4.179 0.982999 4.844 0.856999 5.572 0.856999C6.286 0.856999 6.916 0.971333 7.462 1.2C8.008 1.42867 8.48867 1.739 8.904 2.131L8.456 2.754C8.428 2.80067 8.39067 2.84033 8.344 2.873C8.302 2.901 8.24367 2.915 8.169 2.915C8.085 2.915 7.98233 2.87067 7.861 2.782C7.73967 2.68867 7.581 2.586 7.385 2.474C7.189 2.362 6.944 2.26167 6.65 2.173C6.356 2.07967 5.99433 2.033 5.565 2.033C5.047 2.033 4.57333 2.124 4.144 2.306C3.71467 2.48333 3.34367 2.74233 3.031 3.083C2.723 3.42367 2.48267 3.839 2.31 4.329C2.13733 4.819 2.051 5.372 2.051 5.988C2.051 6.61333 2.13967 7.171 2.317 7.661C2.499 8.151 2.744 8.56633 3.052 8.907C3.36467 9.243 3.731 9.49967 4.151 9.677C4.57567 9.85433 5.033 9.943 5.523 9.943C5.82167 9.943 6.09 9.92667 6.328 9.894C6.57067 9.85667 6.79233 9.80067 6.993 9.726C7.19833 9.65133 7.38733 9.558 7.56 9.446C7.73733 9.32933 7.91233 9.19167 8.085 9.033C8.16433 8.963 8.24367 8.928 8.323 8.928ZM11.4805 5.33C11.7045 4.84467 11.9799 4.46667 12.3065 4.196C12.6332 3.92067 13.0322 3.783 13.5035 3.783C13.6529 3.783 13.7952 3.79933 13.9305 3.832C14.0705 3.86467 14.1942 3.916 14.3015 3.986L14.2105 4.917C14.1825 5.03367 14.1125 5.092 14.0005 5.092C13.9352 5.092 13.8395 5.078 13.7135 5.05C13.5875 5.022 13.4452 5.008 13.2865 5.008C13.0625 5.008 12.8619 5.04067 12.6845 5.106C12.5119 5.17133 12.3555 5.26933 12.2155 5.4C12.0802 5.526 11.9565 5.68467 11.8445 5.876C11.7372 6.06267 11.6392 6.27733 11.5505 6.52V11H10.2975V3.909H11.0115C11.1469 3.909 11.2402 3.93467 11.2915 3.986C11.3429 4.03733 11.3779 4.126 11.3965 4.252L11.4805 5.33ZM19.856 6.681C19.856 6.39167 19.814 6.128 19.73 5.89C19.6507 5.64733 19.5317 5.43967 19.373 5.267C19.219 5.08967 19.03 4.95433 18.806 4.861C18.582 4.763 18.3277 4.714 18.043 4.714C17.4457 4.714 16.972 4.889 16.622 5.239C16.2767 5.58433 16.062 6.065 15.978 6.681H19.856ZM20.864 10.006C20.71 10.1927 20.5257 10.356 20.311 10.496C20.0964 10.6313 19.8654 10.7433 19.618 10.832C19.3754 10.9207 19.1234 10.986 18.862 11.028C18.6007 11.0747 18.3417 11.098 18.085 11.098C17.595 11.098 17.1424 11.0163 16.727 10.853C16.3164 10.685 15.9594 10.4423 15.656 10.125C15.3574 9.803 15.124 9.40633 14.956 8.935C14.788 8.46367 14.704 7.92233 14.704 7.311C14.704 6.81633 14.7787 6.35433 14.928 5.925C15.082 5.49567 15.3014 5.12467 15.586 4.812C15.8707 4.49467 16.2184 4.24733 16.629 4.07C17.0397 3.888 17.5017 3.797 18.015 3.797C18.4397 3.797 18.8317 3.86933 19.191 4.014C19.555 4.154 19.8677 4.35933 20.129 4.63C20.395 4.896 20.6027 5.22733 20.752 5.624C20.9014 6.016 20.976 6.464 20.976 6.968C20.976 7.164 20.955 7.29467 20.913 7.36C20.871 7.42533 20.7917 7.458 20.675 7.458H15.936C15.95 7.906 16.0107 8.29567 16.118 8.627C16.23 8.95833 16.384 9.236 16.58 9.46C16.776 9.67933 17.0094 9.845 17.28 9.957C17.5507 10.0643 17.854 10.118 18.19 10.118C18.5027 10.118 18.771 10.083 18.995 10.013C19.2237 9.93833 19.4197 9.859 19.583 9.775C19.7464 9.691 19.8817 9.614 19.989 9.544C20.101 9.46933 20.1967 9.432 20.276 9.432C20.3787 9.432 20.458 9.47167 20.514 9.551L20.864 10.006ZM26.3495 7.808C25.7755 7.82667 25.2855 7.87333 24.8795 7.948C24.4782 8.018 24.1492 8.11133 23.8925 8.228C23.6405 8.34467 23.4562 8.48233 23.3395 8.641C23.2275 8.79967 23.1715 8.977 23.1715 9.173C23.1715 9.35967 23.2019 9.52067 23.2625 9.656C23.3232 9.79133 23.4049 9.90333 23.5075 9.992C23.6149 10.076 23.7385 10.139 23.8785 10.181C24.0232 10.2183 24.1772 10.237 24.3405 10.237C24.5599 10.237 24.7605 10.216 24.9425 10.174C25.1245 10.1273 25.2949 10.062 25.4535 9.978C25.6169 9.894 25.7709 9.79367 25.9155 9.677C26.0649 9.56033 26.2095 9.42733 26.3495 9.278V7.808ZM22.3245 4.91C22.7165 4.532 23.1389 4.24967 23.5915 4.063C24.0442 3.87633 24.5459 3.783 25.0965 3.783C25.4932 3.783 25.8455 3.84833 26.1535 3.979C26.4615 4.10967 26.7205 4.29167 26.9305 4.525C27.1405 4.75833 27.2992 5.04067 27.4065 5.372C27.5139 5.70333 27.5675 6.06733 27.5675 6.464V11H27.0145C26.8932 11 26.7999 10.9813 26.7345 10.944C26.6692 10.902 26.6179 10.8227 26.5805 10.706L26.4405 10.034C26.2539 10.2067 26.0719 10.3607 25.8945 10.496C25.7172 10.6267 25.5305 10.7387 25.3345 10.832C25.1385 10.9207 24.9285 10.9883 24.7045 11.035C24.4852 11.0863 24.2402 11.112 23.9695 11.112C23.6942 11.112 23.4352 11.0747 23.1925 11C22.9499 10.9207 22.7375 10.804 22.5555 10.65C22.3782 10.496 22.2359 10.3023 22.1285 10.069C22.0259 9.831 21.9745 9.551 21.9745 9.229C21.9745 8.949 22.0515 8.68067 22.2055 8.424C22.3595 8.16267 22.6092 7.93167 22.9545 7.731C23.2999 7.53033 23.7502 7.367 24.3055 7.241C24.8609 7.11033 25.5422 7.03567 26.3495 7.017V6.464C26.3495 5.91333 26.2305 5.498 25.9925 5.218C25.7545 4.93333 25.4069 4.791 24.9495 4.791C24.6415 4.791 24.3825 4.83067 24.1725 4.91C23.9672 4.98467 23.7875 5.071 23.6335 5.169C23.4842 5.26233 23.3535 5.34867 23.2415 5.428C23.1342 5.50267 23.0269 5.54 22.9195 5.54C22.8355 5.54 22.7632 5.519 22.7025 5.477C22.6419 5.43033 22.5905 5.37433 22.5485 5.309L22.3245 4.91ZM31.5468 11.112C30.9868 11.112 30.5551 10.9557 30.2518 10.643C29.9531 10.3303 29.8038 9.88 29.8038 9.292V4.952H28.9498C28.8751 4.952 28.8121 4.931 28.7608 4.889C28.7095 4.84233 28.6838 4.77233 28.6838 4.679V4.182L29.8458 4.035L30.1328 1.844C30.1468 1.774 30.1771 1.718 30.2238 1.676C30.2751 1.62933 30.3405 1.606 30.4198 1.606H31.0498V4.049H33.1008V4.952H31.0498V9.208C31.0498 9.50667 31.1221 9.72833 31.2668 9.873C31.4115 10.0177 31.5981 10.09 31.8268 10.09C31.9575 10.09 32.0695 10.0737 32.1628 10.041C32.2608 10.0037 32.3448 9.964 32.4148 9.922C32.4848 9.88 32.5431 9.84267 32.5898 9.81C32.6411 9.77267 32.6855 9.754 32.7228 9.754C32.7881 9.754 32.8465 9.79367 32.8978 9.873L33.2618 10.468C33.0471 10.6687 32.7881 10.8273 32.4848 10.944C32.1815 11.056 31.8688 11.112 31.5468 11.112ZM39.0924 6.681C39.0924 6.39167 39.0504 6.128 38.9664 5.89C38.887 5.64733 38.768 5.43967 38.6094 5.267C38.4554 5.08967 38.2664 4.95433 38.0424 4.861C37.8184 4.763 37.564 4.714 37.2794 4.714C36.682 4.714 36.2084 4.889 35.8584 5.239C35.513 5.58433 35.2984 6.065 35.2144 6.681H39.0924ZM40.1004 10.006C39.9464 10.1927 39.762 10.356 39.5474 10.496C39.3327 10.6313 39.1017 10.7433 38.8544 10.832C38.6117 10.9207 38.3597 10.986 38.0984 11.028C37.837 11.0747 37.578 11.098 37.3214 11.098C36.8314 11.098 36.3787 11.0163 35.9634 10.853C35.5527 10.685 35.1957 10.4423 34.8924 10.125C34.5937 9.803 34.3604 9.40633 34.1924 8.935C34.0244 8.46367 33.9404 7.92233 33.9404 7.311C33.9404 6.81633 34.015 6.35433 34.1644 5.925C34.3184 5.49567 34.5377 5.12467 34.8224 4.812C35.107 4.49467 35.4547 4.24733 35.8654 4.07C36.276 3.888 36.738 3.797 37.2514 3.797C37.676 3.797 38.068 3.86933 38.4274 4.014C38.7914 4.154 39.104 4.35933 39.3654 4.63C39.6314 4.896 39.839 5.22733 39.9884 5.624C40.1377 6.016 40.2124 6.464 40.2124 6.968C40.2124 7.164 40.1914 7.29467 40.1494 7.36C40.1074 7.42533 40.028 7.458 39.9114 7.458H35.1724C35.1864 7.906 35.247 8.29567 35.3544 8.627C35.4664 8.95833 35.6204 9.236 35.8164 9.46C36.0124 9.67933 36.2457 9.845 36.5164 9.957C36.787 10.0643 37.0904 10.118 37.4264 10.118C37.739 10.118 38.0074 10.083 38.2314 10.013C38.46 9.93833 38.656 9.859 38.8194 9.775C38.9827 9.691 39.118 9.614 39.2254 9.544C39.3374 9.46933 39.433 9.432 39.5124 9.432C39.615 9.432 39.6944 9.47167 39.7504 9.551L40.1004 10.006ZM47.5019 11.112C46.9419 11.112 46.5102 10.9557 46.2069 10.643C45.9082 10.3303 45.7589 9.88 45.7589 9.292V4.952H44.9049C44.8302 4.952 44.7672 4.931 44.7159 4.889C44.6646 4.84233 44.6389 4.77233 44.6389 4.679V4.182L45.8009 4.035L46.0879 1.844C46.1019 1.774 46.1322 1.718 46.1789 1.676C46.2302 1.62933 46.2956 1.606 46.3749 1.606H47.0049V4.049H49.0559V4.952H47.0049V9.208C47.0049 9.50667 47.0772 9.72833 47.2219 9.873C47.3666 10.0177 47.5532 10.09 47.7819 10.09C47.9126 10.09 48.0246 10.0737 48.1179 10.041C48.2159 10.0037 48.2999 9.964 48.3699 9.922C48.4399 9.88 48.4982 9.84267 48.5449 9.81C48.5962 9.77267 48.6406 9.754 48.6779 9.754C48.7432 9.754 48.8016 9.79367 48.8529 9.873L49.2169 10.468C49.0022 10.6687 48.7432 10.8273 48.4399 10.944C48.1366 11.056 47.8239 11.112 47.5019 11.112ZM51.5255 5.33C51.7495 4.84467 52.0248 4.46667 52.3515 4.196C52.6781 3.92067 53.0771 3.783 53.5485 3.783C53.6978 3.783 53.8401 3.79933 53.9755 3.832C54.1155 3.86467 54.2391 3.916 54.3465 3.986L54.2555 4.917C54.2275 5.03367 54.1575 5.092 54.0455 5.092C53.9801 5.092 53.8845 5.078 53.7585 5.05C53.6325 5.022 53.4901 5.008 53.3315 5.008C53.1075 5.008 52.9068 5.04067 52.7295 5.106C52.5568 5.17133 52.4005 5.26933 52.2605 5.4C52.1251 5.526 52.0015 5.68467 51.8895 5.876C51.7821 6.06267 51.6841 6.27733 51.5955 6.52V11H50.3425V3.909H51.0565C51.1918 3.909 51.2851 3.93467 51.3365 3.986C51.3878 4.03733 51.4228 4.126 51.4415 4.252L51.5255 5.33ZM59.1757 7.808C58.6017 7.82667 58.1117 7.87333 57.7057 7.948C57.3044 8.018 56.9754 8.11133 56.7187 8.228C56.4667 8.34467 56.2824 8.48233 56.1657 8.641C56.0537 8.79967 55.9977 8.977 55.9977 9.173C55.9977 9.35967 56.028 9.52067 56.0887 9.656C56.1494 9.79133 56.231 9.90333 56.3337 9.992C56.441 10.076 56.5647 10.139 56.7047 10.181C56.8494 10.2183 57.0034 10.237 57.1667 10.237C57.386 10.237 57.5867 10.216 57.7687 10.174C57.9507 10.1273 58.121 10.062 58.2797 9.978C58.443 9.894 58.597 9.79367 58.7417 9.677C58.891 9.56033 59.0357 9.42733 59.1757 9.278V7.808ZM55.1507 4.91C55.5427 4.532 55.965 4.24967 56.4177 4.063C56.8704 3.87633 57.372 3.783 57.9227 3.783C58.3194 3.783 58.6717 3.84833 58.9797 3.979C59.2877 4.10967 59.5467 4.29167 59.7567 4.525C59.9667 4.75833 60.1254 5.04067 60.2327 5.372C60.34 5.70333 60.3937 6.06733 60.3937 6.464V11H59.8407C59.7194 11 59.626 10.9813 59.5607 10.944C59.4954 10.902 59.444 10.8227 59.4067 10.706L59.2667 10.034C59.08 10.2067 58.898 10.3607 58.7207 10.496C58.5434 10.6267 58.3567 10.7387 58.1607 10.832C57.9647 10.9207 57.7547 10.9883 57.5307 11.035C57.3114 11.0863 57.0664 11.112 56.7957 11.112C56.5204 11.112 56.2614 11.0747 56.0187 11C55.776 10.9207 55.5637 10.804 55.3817 10.65C55.2044 10.496 55.062 10.3023 54.9547 10.069C54.852 9.831 54.8007 9.551 54.8007 9.229C54.8007 8.949 54.8777 8.68067 55.0317 8.424C55.1857 8.16267 55.4354 7.93167 55.7807 7.731C56.126 7.53033 56.5764 7.367 57.1317 7.241C57.687 7.11033 58.3684 7.03567 59.1757 7.017V6.464C59.1757 5.91333 59.0567 5.498 58.8187 5.218C58.5807 4.93333 58.233 4.791 57.7757 4.791C57.4677 4.791 57.2087 4.83067 56.9987 4.91C56.7934 4.98467 56.6137 5.071 56.4597 5.169C56.3104 5.26233 56.1797 5.34867 56.0677 5.428C55.9604 5.50267 55.853 5.54 55.7457 5.54C55.6617 5.54 55.5894 5.519 55.5287 5.477C55.468 5.43033 55.4167 5.37433 55.3747 5.309L55.1507 4.91ZM63.6077 3.909V11H62.3617V3.909H63.6077ZM63.8737 1.683C63.8737 1.80433 63.848 1.91867 63.7967 2.026C63.75 2.12867 63.6847 2.222 63.6007 2.306C63.5214 2.38533 63.4257 2.44833 63.3137 2.495C63.2064 2.54167 63.092 2.565 62.9707 2.565C62.8494 2.565 62.735 2.54167 62.6277 2.495C62.525 2.44833 62.434 2.38533 62.3547 2.306C62.2754 2.222 62.2124 2.12867 62.1657 2.026C62.119 1.91867 62.0957 1.80433 62.0957 1.683C62.0957 1.56167 62.119 1.44733 62.1657 1.34C62.2124 1.228 62.2754 1.13233 62.3547 1.053C62.434 0.969 62.525 0.903666 62.6277 0.856999C62.735 0.810333 62.8494 0.786999 62.9707 0.786999C63.092 0.786999 63.2064 0.810333 63.3137 0.856999C63.4257 0.903666 63.5214 0.969 63.6007 1.053C63.6847 1.13233 63.75 1.228 63.7967 1.34C63.848 1.44733 63.8737 1.56167 63.8737 1.683ZM66.831 4.938C66.985 4.76533 67.1483 4.609 67.321 4.469C67.4936 4.329 67.6756 4.21 67.867 4.112C68.063 4.00933 68.2683 3.93233 68.483 3.881C68.7023 3.825 68.938 3.797 69.19 3.797C69.5773 3.797 69.918 3.86233 70.212 3.993C70.5106 4.119 70.758 4.301 70.954 4.539C71.1546 4.77233 71.3063 5.05467 71.409 5.386C71.5116 5.71733 71.563 6.08367 71.563 6.485V11H70.31V6.485C70.31 5.94833 70.1863 5.533 69.939 5.239C69.6963 4.94033 69.3253 4.791 68.826 4.791C68.4573 4.791 68.112 4.87967 67.79 5.057C67.4726 5.23433 67.1786 5.47467 66.908 5.778V11H65.655V3.909H66.404C66.5813 3.909 66.691 3.99533 66.733 4.168L66.831 4.938ZM74.7776 3.909V11H73.5316V3.909H74.7776ZM75.0436 1.683C75.0436 1.80433 75.0179 1.91867 74.9666 2.026C74.9199 2.12867 74.8546 2.222 74.7706 2.306C74.6913 2.38533 74.5956 2.44833 74.4836 2.495C74.3763 2.54167 74.2619 2.565 74.1406 2.565C74.0193 2.565 73.9049 2.54167 73.7976 2.495C73.6949 2.44833 73.6039 2.38533 73.5246 2.306C73.4453 2.222 73.3823 2.12867 73.3356 2.026C73.2889 1.91867 73.2656 1.80433 73.2656 1.683C73.2656 1.56167 73.2889 1.44733 73.3356 1.34C73.3823 1.228 73.4453 1.13233 73.5246 1.053C73.6039 0.969 73.6949 0.903666 73.7976 0.856999C73.9049 0.810333 74.0193 0.786999 74.1406 0.786999C74.2619 0.786999 74.3763 0.810333 74.4836 0.856999C74.5956 0.903666 74.6913 0.969 74.7706 1.053C74.8546 1.13233 74.9199 1.228 74.9666 1.34C75.0179 1.44733 75.0436 1.56167 75.0436 1.683ZM78.0009 4.938C78.1549 4.76533 78.3182 4.609 78.4909 4.469C78.6636 4.329 78.8456 4.21 79.0369 4.112C79.2329 4.00933 79.4382 3.93233 79.6529 3.881C79.8722 3.825 80.1079 3.797 80.3599 3.797C80.7472 3.797 81.0879 3.86233 81.3819 3.993C81.6806 4.119 81.9279 4.301 82.1239 4.539C82.3246 4.77233 82.4762 5.05467 82.5789 5.386C82.6816 5.71733 82.7329 6.08367 82.7329 6.485V11H81.4799V6.485C81.4799 5.94833 81.3562 5.533 81.1089 5.239C80.8662 4.94033 80.4952 4.791 79.9959 4.791C79.6272 4.791 79.2819 4.87967 78.9599 5.057C78.6426 5.23433 78.3486 5.47467 78.0779 5.778V11H76.8249V3.909H77.5739C77.7512 3.909 77.8609 3.99533 77.9029 4.168L78.0009 4.938ZM87.1025 7.535C87.3545 7.535 87.5762 7.5 87.7675 7.43C87.9589 7.36 88.1199 7.262 88.2505 7.136C88.3812 7.01 88.4792 6.86067 88.5445 6.688C88.6099 6.51067 88.6425 6.317 88.6425 6.107C88.6425 5.673 88.5095 5.32767 88.2435 5.071C87.9822 4.81433 87.6019 4.686 87.1025 4.686C86.5985 4.686 86.2135 4.81433 85.9475 5.071C85.6862 5.32767 85.5555 5.673 85.5555 6.107C85.5555 6.317 85.5882 6.51067 85.6535 6.688C85.7235 6.86067 85.8239 7.01 85.9545 7.136C86.0852 7.262 86.2462 7.36 86.4375 7.43C86.6289 7.5 86.8505 7.535 87.1025 7.535ZM89.3495 11.385C89.3495 11.2123 89.3005 11.0723 89.2025 10.965C89.1045 10.8577 88.9715 10.7737 88.8035 10.713C88.6402 10.6523 88.4489 10.6103 88.2295 10.587C88.0102 10.559 87.7769 10.538 87.5295 10.524C87.2869 10.51 87.0395 10.496 86.7875 10.482C86.5355 10.468 86.2929 10.4447 86.0595 10.412C85.7982 10.5333 85.5835 10.6873 85.4155 10.874C85.2522 11.056 85.1705 11.2707 85.1705 11.518C85.1705 11.6767 85.2102 11.8237 85.2895 11.959C85.3735 12.099 85.4995 12.218 85.6675 12.316C85.8355 12.4187 86.0455 12.498 86.2975 12.554C86.5542 12.6147 86.8552 12.645 87.2005 12.645C87.5365 12.645 87.8375 12.6147 88.1035 12.554C88.3695 12.4933 88.5935 12.407 88.7755 12.295C88.9622 12.183 89.1045 12.05 89.2025 11.896C89.3005 11.742 89.3495 11.5717 89.3495 11.385ZM90.6165 4.189V4.651C90.6165 4.805 90.5185 4.903 90.3225 4.945L89.5175 5.05C89.6762 5.358 89.7555 5.69867 89.7555 6.072C89.7555 6.41733 89.6879 6.73233 89.5525 7.017C89.4219 7.297 89.2399 7.53733 89.0065 7.738C88.7732 7.93867 88.4932 8.09267 88.1665 8.2C87.8399 8.30733 87.4852 8.361 87.1025 8.361C86.7712 8.361 86.4585 8.32133 86.1645 8.242C86.0152 8.33533 85.9009 8.43567 85.8215 8.543C85.7422 8.64567 85.7025 8.75067 85.7025 8.858C85.7025 9.026 85.7702 9.15433 85.9055 9.243C86.0455 9.327 86.2275 9.38767 86.4515 9.425C86.6755 9.46233 86.9299 9.48567 87.2145 9.495C87.5039 9.50433 87.7979 9.52067 88.0965 9.544C88.3999 9.56267 88.6939 9.59767 88.9785 9.649C89.2679 9.70033 89.5245 9.78433 89.7485 9.901C89.9725 10.0177 90.1522 10.1787 90.2875 10.384C90.4275 10.5893 90.4975 10.8553 90.4975 11.182C90.4975 11.4853 90.4205 11.7793 90.2665 12.064C90.1172 12.3487 89.9002 12.6007 89.6155 12.82C89.3309 13.044 88.9809 13.2213 88.5655 13.352C88.1549 13.4873 87.6905 13.555 87.1725 13.555C86.6545 13.555 86.2019 13.5037 85.8145 13.401C85.4272 13.2983 85.1052 13.1607 84.8485 12.988C84.5919 12.8153 84.3982 12.6147 84.2675 12.386C84.1415 12.162 84.0785 11.9263 84.0785 11.679C84.0785 11.329 84.1882 11.0327 84.4075 10.79C84.6269 10.5473 84.9279 10.3537 85.3105 10.209C85.1005 10.1157 84.9325 9.992 84.8065 9.838C84.6852 9.67933 84.6245 9.467 84.6245 9.201C84.6245 9.09833 84.6432 8.99333 84.6805 8.886C84.7179 8.774 84.7739 8.66433 84.8485 8.557C84.9279 8.445 85.0235 8.34 85.1355 8.242C85.2475 8.144 85.3782 8.05767 85.5275 7.983C85.1775 7.787 84.9045 7.528 84.7085 7.206C84.5125 6.87933 84.4145 6.50133 84.4145 6.072C84.4145 5.72667 84.4799 5.414 84.6105 5.134C84.7459 4.84933 84.9325 4.609 85.1705 4.413C85.4085 4.21233 85.6909 4.05833 86.0175 3.951C86.3489 3.84367 86.7105 3.79 87.1025 3.79C87.4105 3.79 87.6975 3.825 87.9635 3.895C88.2295 3.96033 88.4722 4.05833 88.6915 4.189H90.6165ZM97.664 11.112C97.104 11.112 96.6723 10.9557 96.369 10.643C96.0703 10.3303 95.921 9.88 95.921 9.292V4.952H95.067C94.9923 4.952 94.9293 4.931 94.878 4.889C94.8267 4.84233 94.801 4.77233 94.801 4.679V4.182L95.963 4.035L96.25 1.844C96.264 1.774 96.2943 1.718 96.341 1.676C96.3923 1.62933 96.4577 1.606 96.537 1.606H97.167V4.049H99.218V4.952H97.167V9.208C97.167 9.50667 97.2393 9.72833 97.384 9.873C97.5287 10.0177 97.7153 10.09 97.944 10.09C98.0747 10.09 98.1867 10.0737 98.28 10.041C98.378 10.0037 98.462 9.964 98.532 9.922C98.602 9.88 98.6603 9.84267 98.707 9.81C98.7583 9.77267 98.8027 9.754 98.84 9.754C98.9053 9.754 98.9637 9.79367 99.015 9.873L99.379 10.468C99.1643 10.6687 98.9053 10.8273 98.602 10.944C98.2987 11.056 97.986 11.112 97.664 11.112ZM105.21 6.681C105.21 6.39167 105.168 6.128 105.084 5.89C105.004 5.64733 104.885 5.43967 104.727 5.267C104.573 5.08967 104.384 4.95433 104.16 4.861C103.936 4.763 103.681 4.714 103.397 4.714C102.799 4.714 102.326 4.889 101.976 5.239C101.63 5.58433 101.416 6.065 101.332 6.681H105.21ZM106.218 10.006C106.064 10.1927 105.879 10.356 105.665 10.496C105.45 10.6313 105.219 10.7433 104.972 10.832C104.729 10.9207 104.477 10.986 104.216 11.028C103.954 11.0747 103.695 11.098 103.439 11.098C102.949 11.098 102.496 11.0163 102.081 10.853C101.67 10.685 101.313 10.4423 101.01 10.125C100.711 9.803 100.478 9.40633 100.31 8.935C100.142 8.46367 100.058 7.92233 100.058 7.311C100.058 6.81633 100.132 6.35433 100.282 5.925C100.436 5.49567 100.655 5.12467 100.94 4.812C101.224 4.49467 101.572 4.24733 101.983 4.07C102.393 3.888 102.855 3.797 103.369 3.797C103.793 3.797 104.185 3.86933 104.545 4.014C104.909 4.154 105.221 4.35933 105.483 4.63C105.749 4.896 105.956 5.22733 106.106 5.624C106.255 6.016 106.33 6.464 106.33 6.968C106.33 7.164 106.309 7.29467 106.267 7.36C106.225 7.42533 106.145 7.458 106.029 7.458H101.29C101.304 7.906 101.364 8.29567 101.472 8.627C101.584 8.95833 101.738 9.236 101.934 9.46C102.13 9.67933 102.363 9.845 102.634 9.957C102.904 10.0643 103.208 10.118 103.544 10.118C103.856 10.118 104.125 10.083 104.349 10.013C104.577 9.93833 104.773 9.859 104.937 9.775C105.1 9.691 105.235 9.614 105.343 9.544C105.455 9.46933 105.55 9.432 105.63 9.432C105.732 9.432 105.812 9.47167 105.868 9.551L106.218 10.006ZM107.86 11V3.909H108.609C108.786 3.909 108.896 3.99533 108.938 4.168L109.029 4.896C109.29 4.574 109.584 4.31033 109.911 4.105C110.238 3.89967 110.616 3.797 111.045 3.797C111.521 3.797 111.906 3.93 112.2 4.196C112.499 4.462 112.713 4.82133 112.844 5.274C112.947 5.01733 113.077 4.79567 113.236 4.609C113.399 4.42233 113.581 4.26833 113.782 4.147C113.983 4.02567 114.195 3.937 114.419 3.881C114.648 3.825 114.879 3.797 115.112 3.797C115.485 3.797 115.817 3.85767 116.106 3.979C116.4 4.09567 116.647 4.26833 116.848 4.497C117.053 4.72567 117.21 5.008 117.317 5.344C117.424 5.67533 117.478 6.05567 117.478 6.485V11H116.225V6.485C116.225 5.92967 116.104 5.50967 115.861 5.225C115.618 4.93567 115.268 4.791 114.811 4.791C114.606 4.791 114.41 4.82833 114.223 4.903C114.041 4.973 113.88 5.078 113.74 5.218C113.6 5.358 113.488 5.53533 113.404 5.75C113.325 5.96 113.285 6.205 113.285 6.485V11H112.032V6.485C112.032 5.91567 111.918 5.491 111.689 5.211C111.46 4.931 111.127 4.791 110.688 4.791C110.38 4.791 110.095 4.875 109.834 5.043C109.573 5.20633 109.332 5.43033 109.113 5.715V11H107.86ZM120.625 9.292C120.853 9.6 121.103 9.817 121.374 9.943C121.644 10.069 121.948 10.132 122.284 10.132C122.946 10.132 123.455 9.89633 123.81 9.425C124.164 8.95367 124.342 8.28167 124.342 7.409C124.342 6.947 124.3 6.55033 124.216 6.219C124.136 5.88767 124.02 5.617 123.866 5.407C123.712 5.19233 123.523 5.036 123.299 4.938C123.075 4.84 122.82 4.791 122.536 4.791C122.13 4.791 121.773 4.88433 121.465 5.071C121.161 5.25767 120.881 5.52133 120.625 5.862V9.292ZM120.562 5.008C120.86 4.63933 121.206 4.343 121.598 4.119C121.99 3.895 122.438 3.783 122.942 3.783C123.352 3.783 123.723 3.86233 124.055 4.021C124.386 4.175 124.668 4.406 124.902 4.714C125.135 5.01733 125.315 5.39533 125.441 5.848C125.567 6.30067 125.63 6.821 125.63 7.409C125.63 7.93167 125.56 8.41933 125.42 8.872C125.28 9.32 125.077 9.70967 124.811 10.041C124.549 10.3677 124.227 10.6267 123.845 10.818C123.467 11.0047 123.04 11.098 122.564 11.098C122.13 11.098 121.756 11.0257 121.444 10.881C121.136 10.7317 120.863 10.5263 120.625 10.265V13.401H119.372V3.909H120.121C120.298 3.909 120.408 3.99533 120.45 4.168L120.562 5.008ZM128.507 0.689V11H127.261V0.689H128.507ZM134.371 7.808C133.797 7.82667 133.307 7.87333 132.901 7.948C132.5 8.018 132.171 8.11133 131.914 8.228C131.662 8.34467 131.478 8.48233 131.361 8.641C131.249 8.79967 131.193 8.977 131.193 9.173C131.193 9.35967 131.223 9.52067 131.284 9.656C131.345 9.79133 131.426 9.90333 131.529 9.992C131.636 10.076 131.76 10.139 131.9 10.181C132.045 10.2183 132.199 10.237 132.362 10.237C132.581 10.237 132.782 10.216 132.964 10.174C133.146 10.1273 133.316 10.062 133.475 9.978C133.638 9.894 133.792 9.79367 133.937 9.677C134.086 9.56033 134.231 9.42733 134.371 9.278V7.808ZM130.346 4.91C130.738 4.532 131.16 4.24967 131.613 4.063C132.066 3.87633 132.567 3.783 133.118 3.783C133.515 3.783 133.867 3.84833 134.175 3.979C134.483 4.10967 134.742 4.29167 134.952 4.525C135.162 4.75833 135.321 5.04067 135.428 5.372C135.535 5.70333 135.589 6.06733 135.589 6.464V11H135.036C134.915 11 134.821 10.9813 134.756 10.944C134.691 10.902 134.639 10.8227 134.602 10.706L134.462 10.034C134.275 10.2067 134.093 10.3607 133.916 10.496C133.739 10.6267 133.552 10.7387 133.356 10.832C133.16 10.9207 132.95 10.9883 132.726 11.035C132.507 11.0863 132.262 11.112 131.991 11.112C131.716 11.112 131.457 11.0747 131.214 11C130.971 10.9207 130.759 10.804 130.577 10.65C130.4 10.496 130.257 10.3023 130.15 10.069C130.047 9.831 129.996 9.551 129.996 9.229C129.996 8.949 130.073 8.68067 130.227 8.424C130.381 8.16267 130.631 7.93167 130.976 7.731C131.321 7.53033 131.772 7.367 132.327 7.241C132.882 7.11033 133.564 7.03567 134.371 7.017V6.464C134.371 5.91333 134.252 5.498 134.014 5.218C133.776 4.93333 133.428 4.791 132.971 4.791C132.663 4.791 132.404 4.83067 132.194 4.91C131.989 4.98467 131.809 5.071 131.655 5.169C131.506 5.26233 131.375 5.34867 131.263 5.428C131.156 5.50267 131.048 5.54 130.941 5.54C130.857 5.54 130.785 5.519 130.724 5.477C130.663 5.43033 130.612 5.37433 130.57 5.309L130.346 4.91ZM139.568 11.112C139.008 11.112 138.577 10.9557 138.273 10.643C137.975 10.3303 137.825 9.88 137.825 9.292V4.952H136.971C136.897 4.952 136.834 4.931 136.782 4.889C136.731 4.84233 136.705 4.77233 136.705 4.679V4.182L137.867 4.035L138.154 1.844C138.168 1.774 138.199 1.718 138.245 1.676C138.297 1.62933 138.362 1.606 138.441 1.606H139.071V4.049H141.122V4.952H139.071V9.208C139.071 9.50667 139.144 9.72833 139.288 9.873C139.433 10.0177 139.62 10.09 139.848 10.09C139.979 10.09 140.091 10.0737 140.184 10.041C140.282 10.0037 140.366 9.964 140.436 9.922C140.506 9.88 140.565 9.84267 140.611 9.81C140.663 9.77267 140.707 9.754 140.744 9.754C140.81 9.754 140.868 9.79367 140.919 9.873L141.283 10.468C141.069 10.6687 140.81 10.8273 140.506 10.944C140.203 11.056 139.89 11.112 139.568 11.112ZM147.114 6.681C147.114 6.39167 147.072 6.128 146.988 5.89C146.909 5.64733 146.79 5.43967 146.631 5.267C146.477 5.08967 146.288 4.95433 146.064 4.861C145.84 4.763 145.586 4.714 145.301 4.714C144.704 4.714 144.23 4.889 143.88 5.239C143.535 5.58433 143.32 6.065 143.236 6.681H147.114ZM148.122 10.006C147.968 10.1927 147.784 10.356 147.569 10.496C147.354 10.6313 147.123 10.7433 146.876 10.832C146.633 10.9207 146.381 10.986 146.12 11.028C145.859 11.0747 145.6 11.098 145.343 11.098C144.853 11.098 144.4 11.0163 143.985 10.853C143.574 10.685 143.217 10.4423 142.914 10.125C142.615 9.803 142.382 9.40633 142.214 8.935C142.046 8.46367 141.962 7.92233 141.962 7.311C141.962 6.81633 142.037 6.35433 142.186 5.925C142.34 5.49567 142.559 5.12467 142.844 4.812C143.129 4.49467 143.476 4.24733 143.887 4.07C144.298 3.888 144.76 3.797 145.273 3.797C145.698 3.797 146.09 3.86933 146.449 4.014C146.813 4.154 147.126 4.35933 147.387 4.63C147.653 4.896 147.861 5.22733 148.01 5.624C148.159 6.016 148.234 6.464 148.234 6.968C148.234 7.164 148.213 7.29467 148.171 7.36C148.129 7.42533 148.05 7.458 147.933 7.458H143.194C143.208 7.906 143.269 8.29567 143.376 8.627C143.488 8.95833 143.642 9.236 143.838 9.46C144.034 9.67933 144.267 9.845 144.538 9.957C144.809 10.0643 145.112 10.118 145.448 10.118C145.761 10.118 146.029 10.083 146.253 10.013C146.482 9.93833 146.678 9.859 146.841 9.775C147.004 9.691 147.14 9.614 147.247 9.544C147.359 9.46933 147.455 9.432 147.534 9.432C147.637 9.432 147.716 9.47167 147.772 9.551L148.122 10.006Z" fill="#395174"/>
</svg>
