<svg width="676" height="486" viewBox="0 0 676 486" fill="none" xmlns="http://www.w3.org/2000/svg">
<path fill-rule="evenodd" clip-rule="evenodd" d="M339.527 76.3205C389.597 81.0351 481.197 18.8818 531 24.6933C600.891 32.8489 643.882 71.754 670.608 114.954C696.957 157.544 602.704 174.679 582.5 218.693C561.608 264.207 600.729 342.176 550.576 376.446C498.366 412.121 410.705 499.402 339.527 483.193C268.398 466.996 272.299 330.461 213.398 299.664C159.199 271.326 62.4062 290.721 23.4803 253.081C-15.7818 215.115 0.54743 161.43 26.325 118.77C51.1565 77.6768 73.5847 9.62724 139.5 0.693359C204.628 -8.13378 273.7 70.1223 339.527 76.3205Z" fill="#E7EAEE"/>
<path d="M311.608 16.9694L310.033 12.8884C309.986 12.767 309.937 12.627 309.886 12.4684C309.835 12.305 309.786 12.1324 309.739 11.9504C309.641 12.3284 309.541 12.6434 309.438 12.8954L307.863 16.9694H311.608ZM314.436 20.6934H313.386C313.265 20.6934 313.167 20.663 313.092 20.6024C313.017 20.5417 312.961 20.4647 312.924 20.3714L311.986 17.9494H307.485L306.547 20.3714C306.519 20.4554 306.465 20.53 306.386 20.5954C306.307 20.6607 306.209 20.6934 306.092 20.6934H305.042L309.053 10.6624H310.425L314.436 20.6934ZM319.931 15.2894C319.698 14.9767 319.446 14.7597 319.175 14.6384C318.905 14.5124 318.601 14.4494 318.265 14.4494C317.607 14.4494 317.101 14.685 316.746 15.1564C316.392 15.6277 316.214 16.2997 316.214 17.1724C316.214 17.6344 316.254 18.031 316.333 18.3624C316.413 18.689 316.529 18.9597 316.683 19.1744C316.837 19.3844 317.026 19.5384 317.25 19.6364C317.474 19.7344 317.729 19.7834 318.013 19.7834C318.424 19.7834 318.781 19.69 319.084 19.5034C319.392 19.3167 319.675 19.053 319.931 18.7124V15.2894ZM321.177 10.3824V20.6934H320.435C320.258 20.6934 320.146 20.607 320.099 20.4344L319.987 19.5734C319.684 19.9374 319.339 20.2314 318.951 20.4554C318.564 20.6794 318.116 20.7914 317.607 20.7914C317.201 20.7914 316.833 20.7144 316.501 20.5604C316.17 20.4017 315.888 20.1707 315.654 19.8674C315.421 19.564 315.241 19.186 315.115 18.7334C314.989 18.2807 314.926 17.7604 314.926 17.1724C314.926 16.6497 314.996 16.1644 315.136 15.7164C315.276 15.2637 315.477 14.8717 315.738 14.5404C316 14.209 316.319 13.95 316.697 13.7634C317.08 13.572 317.509 13.4764 317.985 13.4764C318.419 13.4764 318.79 13.551 319.098 13.7004C319.411 13.845 319.689 14.048 319.931 14.3094V10.3824H321.177ZM327.765 15.2894C327.532 14.9767 327.28 14.7597 327.009 14.6384C326.739 14.5124 326.435 14.4494 326.099 14.4494C325.441 14.4494 324.935 14.685 324.58 15.1564C324.226 15.6277 324.048 16.2997 324.048 17.1724C324.048 17.6344 324.088 18.031 324.167 18.3624C324.247 18.689 324.363 18.9597 324.517 19.1744C324.671 19.3844 324.86 19.5384 325.084 19.6364C325.308 19.7344 325.563 19.7834 325.847 19.7834C326.258 19.7834 326.615 19.69 326.918 19.5034C327.226 19.3167 327.509 19.053 327.765 18.7124V15.2894ZM329.011 10.3824V20.6934H328.269C328.092 20.6934 327.98 20.607 327.933 20.4344L327.821 19.5734C327.518 19.9374 327.173 20.2314 326.785 20.4554C326.398 20.6794 325.95 20.7914 325.441 20.7914C325.035 20.7914 324.667 20.7144 324.335 20.5604C324.004 20.4017 323.722 20.1707 323.488 19.8674C323.255 19.564 323.075 19.186 322.949 18.7334C322.823 18.2807 322.76 17.7604 322.76 17.1724C322.76 16.6497 322.83 16.1644 322.97 15.7164C323.11 15.2637 323.311 14.8717 323.572 14.5404C323.834 14.209 324.153 13.95 324.531 13.7634C324.914 13.572 325.343 13.4764 325.819 13.4764C326.253 13.4764 326.624 13.551 326.932 13.7004C327.245 13.845 327.523 14.048 327.765 14.3094V10.3824H329.011ZM335.877 13.6024V20.6934H334.631V13.6024H335.877ZM336.143 11.3764C336.143 11.4977 336.118 11.612 336.066 11.7194C336.02 11.822 335.954 11.9154 335.87 11.9994C335.791 12.0787 335.695 12.1417 335.583 12.1884C335.476 12.235 335.362 12.2584 335.24 12.2584C335.119 12.2584 335.005 12.235 334.897 12.1884C334.795 12.1417 334.704 12.0787 334.624 11.9994C334.545 11.9154 334.482 11.822 334.435 11.7194C334.389 11.612 334.365 11.4977 334.365 11.3764C334.365 11.255 334.389 11.1407 334.435 11.0334C334.482 10.9214 334.545 10.8257 334.624 10.7464C334.704 10.6624 334.795 10.597 334.897 10.5504C335.005 10.5037 335.119 10.4804 335.24 10.4804C335.362 10.4804 335.476 10.5037 335.583 10.5504C335.695 10.597 335.791 10.6624 335.87 10.7464C335.954 10.8257 336.02 10.9214 336.066 11.0334C336.118 11.1407 336.143 11.255 336.143 11.3764ZM340.102 20.8054C339.542 20.8054 339.11 20.649 338.807 20.3364C338.508 20.0237 338.359 19.5734 338.359 18.9854V14.6454H337.505C337.43 14.6454 337.367 14.6244 337.316 14.5824C337.264 14.5357 337.239 14.4657 337.239 14.3724V13.8754L338.401 13.7284L338.688 11.5374C338.702 11.4674 338.732 11.4114 338.779 11.3694C338.83 11.3227 338.895 11.2994 338.975 11.2994H339.605V13.7424H341.656V14.6454H339.605V18.9014C339.605 19.2 339.677 19.4217 339.822 19.5664C339.966 19.711 340.153 19.7834 340.382 19.7834C340.512 19.7834 340.624 19.767 340.718 19.7344C340.816 19.697 340.9 19.6574 340.97 19.6154C341.04 19.5734 341.098 19.536 341.145 19.5034C341.196 19.466 341.24 19.4474 341.278 19.4474C341.343 19.4474 341.401 19.487 341.453 19.5664L341.817 20.1614C341.602 20.362 341.343 20.5207 341.04 20.6374C340.736 20.7494 340.424 20.8054 340.102 20.8054ZM347.647 16.3744C347.647 16.085 347.605 15.8214 347.521 15.5834C347.442 15.3407 347.323 15.133 347.164 14.9604C347.01 14.783 346.821 14.6477 346.597 14.5544C346.373 14.4564 346.119 14.4074 345.834 14.4074C345.237 14.4074 344.763 14.5824 344.413 14.9324C344.068 15.2777 343.853 15.7584 343.769 16.3744H347.647ZM348.655 19.6994C348.501 19.886 348.317 20.0494 348.102 20.1894C347.887 20.3247 347.656 20.4367 347.409 20.5254C347.166 20.614 346.914 20.6794 346.653 20.7214C346.392 20.768 346.133 20.7914 345.876 20.7914C345.386 20.7914 344.933 20.7097 344.518 20.5464C344.107 20.3784 343.75 20.1357 343.447 19.8184C343.148 19.4964 342.915 19.0997 342.747 18.6284C342.579 18.157 342.495 17.6157 342.495 17.0044C342.495 16.5097 342.57 16.0477 342.719 15.6184C342.873 15.189 343.092 14.818 343.377 14.5054C343.662 14.188 344.009 13.9407 344.42 13.7634C344.831 13.5814 345.293 13.4904 345.806 13.4904C346.231 13.4904 346.623 13.5627 346.982 13.7074C347.346 13.8474 347.659 14.0527 347.92 14.3234C348.186 14.5894 348.394 14.9207 348.543 15.3174C348.692 15.7094 348.767 16.1574 348.767 16.6614C348.767 16.8574 348.746 16.988 348.704 17.0534C348.662 17.1187 348.583 17.1514 348.466 17.1514H343.727C343.741 17.5994 343.802 17.989 343.909 18.3204C344.021 18.6517 344.175 18.9294 344.371 19.1534C344.567 19.3727 344.8 19.5384 345.071 19.6504C345.342 19.7577 345.645 19.8114 345.981 19.8114C346.294 19.8114 346.562 19.7764 346.786 19.7064C347.015 19.6317 347.211 19.5524 347.374 19.4684C347.537 19.3844 347.673 19.3074 347.78 19.2374C347.892 19.1627 347.988 19.1254 348.067 19.1254C348.17 19.1254 348.249 19.165 348.305 19.2444L348.655 19.6994ZM350.298 20.6934V13.6024H351.047C351.224 13.6024 351.334 13.6887 351.376 13.8614L351.467 14.5894C351.728 14.2674 352.022 14.0037 352.349 13.7984C352.675 13.593 353.053 13.4904 353.483 13.4904C353.959 13.4904 354.344 13.6234 354.638 13.8894C354.936 14.1554 355.151 14.5147 355.282 14.9674C355.384 14.7107 355.515 14.489 355.674 14.3024C355.837 14.1157 356.019 13.9617 356.22 13.8404C356.42 13.719 356.633 13.6304 356.857 13.5744C357.085 13.5184 357.316 13.4904 357.55 13.4904C357.923 13.4904 358.254 13.551 358.544 13.6724C358.838 13.789 359.085 13.9617 359.286 14.1904C359.491 14.419 359.647 14.7014 359.755 15.0374C359.862 15.3687 359.916 15.749 359.916 16.1784V20.6934H358.663V16.1784C358.663 15.623 358.541 15.203 358.299 14.9184C358.056 14.629 357.706 14.4844 357.249 14.4844C357.043 14.4844 356.847 14.5217 356.661 14.5964C356.479 14.6664 356.318 14.7714 356.178 14.9114C356.038 15.0514 355.926 15.2287 355.842 15.4434C355.762 15.6534 355.723 15.8984 355.723 16.1784V20.6934H354.47V16.1784C354.47 15.609 354.355 15.1844 354.127 14.9044C353.898 14.6244 353.564 14.4844 353.126 14.4844C352.818 14.4844 352.533 14.5684 352.272 14.7364C352.01 14.8997 351.77 15.1237 351.551 15.4084V20.6934H350.298ZM365.939 14.7714C365.883 14.874 365.797 14.9254 365.68 14.9254C365.61 14.9254 365.531 14.8997 365.442 14.8484C365.354 14.797 365.244 14.741 365.113 14.6804C364.987 14.615 364.836 14.5567 364.658 14.5054C364.481 14.4494 364.271 14.4214 364.028 14.4214C363.818 14.4214 363.629 14.4494 363.461 14.5054C363.293 14.5567 363.149 14.629 363.027 14.7224C362.911 14.8157 362.82 14.9254 362.754 15.0514C362.694 15.1727 362.663 15.3057 362.663 15.4504C362.663 15.6324 362.715 15.784 362.817 15.9054C362.925 16.0267 363.065 16.1317 363.237 16.2204C363.41 16.309 363.606 16.3884 363.825 16.4584C364.045 16.5237 364.269 16.596 364.497 16.6754C364.731 16.75 364.957 16.834 365.176 16.9274C365.396 17.0207 365.592 17.1374 365.764 17.2774C365.937 17.4174 366.075 17.59 366.177 17.7954C366.285 17.996 366.338 18.2387 366.338 18.5234C366.338 18.85 366.28 19.1534 366.163 19.4334C366.047 19.7087 365.874 19.949 365.645 20.1544C365.417 20.355 365.137 20.5137 364.805 20.6304C364.474 20.747 364.091 20.8054 363.657 20.8054C363.163 20.8054 362.715 20.726 362.313 20.5674C361.912 20.404 361.571 20.1964 361.291 19.9444L361.585 19.4684C361.623 19.4077 361.667 19.361 361.718 19.3284C361.77 19.2957 361.835 19.2794 361.914 19.2794C361.998 19.2794 362.087 19.312 362.18 19.3774C362.274 19.4427 362.386 19.515 362.516 19.5944C362.652 19.6737 362.815 19.746 363.006 19.8114C363.198 19.8767 363.436 19.9094 363.72 19.9094C363.963 19.9094 364.175 19.879 364.357 19.8184C364.539 19.753 364.691 19.6667 364.812 19.5594C364.934 19.452 365.022 19.3284 365.078 19.1884C365.139 19.0484 365.169 18.899 365.169 18.7404C365.169 18.5444 365.116 18.3834 365.008 18.2574C364.906 18.1267 364.768 18.017 364.595 17.9284C364.423 17.835 364.224 17.7557 364 17.6904C363.781 17.6204 363.555 17.548 363.321 17.4734C363.093 17.3987 362.866 17.3147 362.642 17.2214C362.423 17.1234 362.227 17.002 362.054 16.8574C361.882 16.7127 361.742 16.5354 361.634 16.3254C361.532 16.1107 361.48 15.8517 361.48 15.5484C361.48 15.2777 361.536 15.0187 361.648 14.7714C361.76 14.5194 361.924 14.3 362.138 14.1134C362.353 13.922 362.617 13.7704 362.929 13.6584C363.242 13.5464 363.599 13.4904 364 13.4904C364.467 13.4904 364.885 13.565 365.253 13.7144C365.627 13.859 365.949 14.0597 366.219 14.3164L365.939 14.7714Z" fill="#395174"/>
<path d="M495.023 340.194C497.05 323.89 507.148 307.825 522.689 302.52C516.56 319.301 516.561 337.71 522.693 354.491C525.081 360.954 528.409 367.894 526.163 374.407C524.765 378.46 521.346 381.561 517.525 383.5C513.703 385.439 509.461 386.363 505.273 387.269L504.449 387.951C497.8 372.929 492.997 356.498 495.023 340.194Z" fill="#F0F0F0"/>
<path d="M522.843 302.828C513.793 312.974 508.168 325.715 506.767 339.242C506.414 342.148 506.521 345.092 507.084 347.966C507.723 350.747 509.095 353.306 511.057 355.378C512.847 357.346 514.906 359.152 516.187 361.521C516.825 362.744 517.197 364.087 517.279 365.464C517.362 366.841 517.152 368.219 516.665 369.509C515.534 372.755 513.305 375.401 511.035 377.912C508.515 380.7 505.853 383.557 504.782 387.253C504.652 387.701 503.965 387.474 504.094 387.026C505.958 380.595 512.198 376.941 515.174 371.149C516.562 368.445 517.145 365.307 515.843 362.454C514.705 359.959 512.583 358.095 510.753 356.118C508.81 354.125 507.384 351.686 506.599 349.015C505.892 346.18 505.672 343.245 505.949 340.335C506.467 333.776 508.013 327.339 510.53 321.26C513.365 314.306 517.367 307.888 522.364 302.285C522.674 301.938 523.15 302.483 522.843 302.828Z" fill="white"/>
<path d="M506.96 334.859C504.723 334.316 502.753 332.995 501.4 331.132C500.047 329.27 499.4 326.986 499.575 324.69C499.612 324.226 500.335 324.261 500.298 324.727C500.131 326.864 500.734 328.991 501.998 330.723C503.261 332.455 505.101 333.678 507.187 334.171C507.64 334.279 507.41 334.966 506.96 334.859Z" fill="white"/>
<path d="M510.018 354.499C514.057 352.086 517.039 348.238 518.369 343.723C518.5 343.276 519.187 343.503 519.056 343.95C517.663 348.646 514.552 352.644 510.344 355.145C509.942 355.384 509.619 354.736 510.018 354.499Z" fill="white"/>
<path d="M514.035 314.992C514.856 315.382 515.762 315.563 516.67 315.517C517.579 315.47 518.461 315.199 519.239 314.727C519.637 314.484 519.96 315.133 519.565 315.374C518.703 315.892 517.728 316.19 516.724 316.243C515.721 316.296 514.719 316.103 513.808 315.679C513.719 315.647 513.645 315.581 513.602 315.496C513.56 315.411 513.551 315.313 513.578 315.222C513.608 315.131 513.673 315.056 513.759 315.013C513.845 314.97 513.944 314.962 514.035 314.992Z" fill="white"/>
<path d="M570.059 331.64C569.815 331.799 569.571 331.958 569.326 332.123C566.053 334.276 562.961 336.692 560.079 339.346C559.853 339.548 559.627 339.756 559.407 339.963C552.532 346.433 546.918 354.123 542.849 362.643C541.233 366.035 539.877 369.545 538.793 373.142C537.296 378.111 536.069 383.617 533.106 387.681C532.802 388.109 532.472 388.517 532.117 388.903H505.346C505.285 388.873 505.224 388.848 505.163 388.818L504.094 388.867C504.137 388.677 504.185 388.482 504.228 388.292C504.253 388.182 504.283 388.072 504.308 387.962C504.326 387.889 504.344 387.816 504.356 387.748C504.362 387.724 504.369 387.7 504.375 387.681C504.387 387.614 504.405 387.553 504.418 387.492C504.686 386.398 504.963 385.304 505.248 384.21C505.248 384.204 505.248 384.204 505.254 384.198C507.447 375.868 510.354 367.648 514.416 360.131C514.538 359.905 514.66 359.673 514.795 359.447C516.644 356.068 518.767 352.847 521.141 349.815C522.446 348.159 523.835 346.57 525.301 345.054C529.096 341.145 533.482 337.858 538.298 335.313C547.9 330.24 559.016 328.297 569.278 331.395C569.54 331.475 569.797 331.554 570.059 331.64Z" fill="#F0F0F0"/>
<path d="M570 331.98C556.669 334.629 544.511 341.414 535.253 351.37C533.222 353.478 531.536 355.893 530.257 358.527C529.093 361.132 528.648 364.002 528.968 366.838C529.213 369.488 529.771 372.17 529.368 374.834C529.142 376.194 528.63 377.491 527.868 378.64C527.105 379.789 526.108 380.763 524.943 381.499C522.087 383.41 518.715 384.179 515.391 384.817C511.701 385.525 507.857 386.202 504.777 388.509C504.404 388.788 503.993 388.192 504.365 387.913C509.724 383.901 516.904 384.743 522.766 381.91C525.501 380.588 527.855 378.434 528.532 375.371C529.125 372.693 528.552 369.927 528.281 367.246C527.928 364.484 528.257 361.678 529.238 359.072C530.379 356.382 531.97 353.906 533.941 351.75C538.302 346.825 543.41 342.617 549.078 339.279C555.525 335.435 562.583 332.722 569.944 331.258C570.4 331.167 570.452 331.89 570 331.98Z" fill="white"/>
<path d="M538.042 347.988C536.583 346.207 535.805 343.966 535.845 341.664C535.886 339.361 536.743 337.149 538.264 335.42C538.573 335.072 539.129 335.536 538.82 335.885C537.4 337.491 536.602 339.553 536.569 341.697C536.535 343.84 537.268 345.926 538.637 347.576C538.933 347.935 538.337 348.345 538.042 347.988Z" fill="white"/>
<path d="M528.668 365.511C533.345 366.017 538.041 364.741 541.82 361.937C542.194 361.659 542.605 362.255 542.232 362.533C538.294 365.443 533.405 366.761 528.539 366.223C528.075 366.172 528.207 365.459 528.668 365.511Z" fill="white"/>
<path d="M555.647 336.388C556.068 337.194 556.682 337.884 557.435 338.394C558.189 338.905 559.056 339.22 559.961 339.312C560.425 339.357 560.293 340.07 559.832 340.024C558.833 339.918 557.875 339.569 557.041 339.007C556.208 338.445 555.525 337.687 555.052 336.8C555 336.72 554.981 336.624 554.998 336.53C555.015 336.436 555.067 336.353 555.144 336.296C555.223 336.242 555.32 336.221 555.414 336.238C555.508 336.255 555.592 336.309 555.647 336.388Z" fill="white"/>
<path d="M408.563 257.881C409.117 257.309 409.538 256.622 409.798 255.868C410.058 255.115 410.149 254.314 410.066 253.521C409.983 252.729 409.727 251.964 409.317 251.281C408.906 250.598 408.351 250.014 407.69 249.569L412.64 230.842L403.104 234.051L399.866 251.342C399.193 252.502 398.968 253.869 399.234 255.184C399.501 256.499 400.24 257.671 401.312 258.477C402.384 259.283 403.714 259.667 405.05 259.558C406.387 259.448 407.636 258.851 408.563 257.881Z" fill="#9E616A"/>
<path d="M452.676 383.669L446.035 383.668L442.875 358.035L452.678 358.036L452.676 383.669Z" fill="#9E616A"/>
<path d="M454.369 390.11L432.953 390.109V389.838C432.953 387.626 433.832 385.505 435.395 383.941C436.958 382.377 439.078 381.498 441.289 381.498L454.37 381.499L454.369 390.11Z" fill="#2F2E41"/>
<path d="M421.255 383.669L414.613 383.668L411.453 358.035L421.256 358.036L421.255 383.669Z" fill="#9E616A"/>
<path d="M422.947 390.11L401.531 390.109V389.838C401.531 387.626 402.41 385.505 403.973 383.941C405.536 382.377 407.656 381.498 409.867 381.498L422.948 381.499L422.947 390.11Z" fill="#2F2E41"/>
<path d="M417.557 229.223L415.008 229.927C415.008 229.927 408.347 273.13 407.806 295.897C407.264 318.663 409.431 376.122 409.431 376.122H423.517L434.894 278.55L440.311 376.122H455.48C455.48 376.122 466.316 248.195 461.44 237.896C456.564 227.596 417.557 229.223 417.557 229.223Z" fill="#2F2E41"/>
<path d="M437.884 152.991C444.913 152.991 450.611 147.289 450.611 140.256C450.611 133.223 444.913 127.521 437.884 127.521C430.855 127.521 425.156 133.223 425.156 140.256C425.156 147.289 430.855 152.991 437.884 152.991Z" fill="#9E616A"/>
<path d="M470.112 169.595L450.357 156.678L429.886 157.484L409.977 168.511L417.561 210.792L414.311 235.185C414.311 235.185 443.566 231.933 450.067 236.811C453.863 239.706 458.341 241.573 463.069 242.232L461.985 200.493L470.112 169.595Z" fill="#3F3D56"/>
<path d="M413.768 167.97L411.721 167.545L409.976 168.512C409.976 168.512 405.1 175.017 405.1 180.979C405.1 186.942 399.141 244.401 399.141 244.401L409.976 249.28L418.644 204.288L413.768 167.97Z" fill="#3F3D56"/>
<path d="M449.025 130.919C449.025 130.919 452.354 124.552 445.03 123.973C445.03 123.973 438.787 118.306 432.423 122.937C432.423 122.937 428.952 122.937 427.054 126.867C427.054 126.867 424.324 125.831 423.724 128.604C423.724 128.604 421.726 134.393 423.724 139.602C425.721 144.812 426.385 145.391 426.385 145.391C426.385 145.391 423.102 134.468 431.092 133.889C439.082 133.311 448.023 128.315 448.689 134.682C449.355 141.049 450.357 142.618 450.357 142.618C450.357 142.618 456.682 133.524 449.025 130.919Z" fill="#2F2E41"/>
<path d="M284.558 205.834H126.906V87.6641H284.558V205.834Z" fill="white"/>
<path d="M284.558 205.834H126.906V87.6641H284.558V205.834ZM128.532 89.2903V204.208H282.933V89.2903H128.532Z" fill="#E6E6E6"/>
<path d="M205.682 177.008C222.261 177.008 235.701 163.561 235.701 146.973C235.701 130.385 222.261 116.938 205.682 116.938C189.104 116.938 175.664 130.385 175.664 146.973C175.664 163.561 189.104 177.008 205.682 177.008Z" fill="#112D57"/>
<path d="M218.148 144.451H207.942V134.239C207.942 133.602 207.689 132.99 207.239 132.54C206.788 132.089 206.178 131.836 205.541 131.836C204.904 131.836 204.293 132.089 203.842 132.54C203.392 132.99 203.139 133.602 203.139 134.239V144.451H192.933C192.296 144.451 191.685 144.704 191.235 145.155C190.784 145.605 190.531 146.217 190.531 146.854C190.531 147.491 190.784 148.102 191.235 148.553C191.685 149.004 192.296 149.257 192.933 149.257H203.139V159.469C203.139 160.106 203.392 160.717 203.842 161.168C204.293 161.619 204.904 161.872 205.541 161.872C206.178 161.872 206.788 161.619 207.239 161.168C207.689 160.717 207.942 160.106 207.942 159.469V149.257H218.148C218.785 149.257 219.396 149.004 219.847 148.553C220.297 148.102 220.55 147.491 220.55 146.854C220.55 146.217 220.297 145.605 219.847 145.155C219.396 144.704 218.785 144.451 218.148 144.451Z" fill="white"/>
<path d="M139.91 87.1721H81V42.6934H139.91V87.1721Z" fill="white"/>
<path d="M139.91 87.1721H81V42.6934H139.91V87.1721ZM82.0835 86.0879H138.827V43.7775H82.0835V86.0879Z" fill="#E6E6E6"/>
<path d="M132.143 54.8086H88.7734V57.7016H132.143V54.8086Z" fill="#E4E4E4"/>
<path d="M132.143 63.4863H88.7734V66.3793H132.143V63.4863Z" fill="#E4E4E4"/>
<path d="M132.143 72.1641H88.7734V75.0571H132.143V72.1641Z" fill="#E4E4E4"/>
<path d="M531.598 390.186H472.688V345.707H531.598V390.186Z" fill="white"/>
<path d="M531.598 390.186H472.688V345.707H531.598V390.186ZM473.771 389.102H530.514V346.791H473.771V389.102Z" fill="#E6E6E6"/>
<path d="M523.831 357.822H480.461V360.715H523.831V357.822Z" fill="#E4E4E4"/>
<path d="M523.831 366.5H480.461V369.393H523.831V366.5Z" fill="#E4E4E4"/>
<path d="M523.831 375.18H480.461V378.073H523.831V375.18Z" fill="#E4E4E4"/>
<path d="M495.823 310.377L451.82 271.186L481.377 237.963L525.38 277.154L495.823 310.377Z" fill="white"/>
<path d="M495.823 310.377L451.82 271.186L481.377 237.963L525.38 277.154L495.823 310.377ZM453.35 271.097L495.734 308.846L523.85 277.243L481.466 239.493L453.35 271.097Z" fill="#E6E6E6"/>
<path d="M479.133 252.181L477.211 254.342L509.606 283.195L511.528 281.034L479.133 252.181Z" fill="#E4E4E4"/>
<path d="M473.368 258.663L471.445 260.824L503.84 289.677L505.762 287.516L473.368 258.663Z" fill="#E4E4E4"/>
<path d="M467.602 265.146L465.68 267.307L498.074 296.159L499.997 293.999L467.602 265.146Z" fill="#E4E4E4"/>
<path d="M173.266 113.192H107.547V63.5723H173.266V113.192Z" fill="white"/>
<path d="M173.266 113.192H107.547V63.5723H173.266V113.192ZM108.756 111.982H172.057V64.7817H108.756V111.982Z" fill="#E6E6E6"/>
<path d="M164.593 77.0859H116.211V80.3133H164.593V77.0859Z" fill="#112D57"/>
<path d="M164.593 86.7676H116.211V89.9949H164.593V86.7676Z" fill="#112D57"/>
<path d="M164.593 96.4492H116.211V99.6766H164.593V96.4492Z" fill="#112D57"/>
<path d="M343.82 243.087H243.531V167.367H343.82V243.087Z" fill="white"/>
<path d="M343.82 243.087H243.531V167.367H343.82V243.087ZM245.376 241.242H341.975V169.213H245.376V241.242Z" fill="#E6E6E6"/>
<path d="M330.59 187.992H256.758V192.917H330.59V187.992Z" fill="#112D57"/>
<path d="M330.59 202.766H256.758V207.691H330.59V202.766Z" fill="#112D57"/>
<path d="M330.59 217.541H256.758V222.466H330.59V217.541Z" fill="#112D57"/>
<path d="M581.354 390.693H321.151C320.98 390.693 320.817 390.624 320.696 390.503C320.576 390.382 320.508 390.219 320.508 390.048C320.508 389.877 320.576 389.713 320.696 389.592C320.817 389.471 320.98 389.403 321.151 389.402H581.354C581.525 389.402 581.69 389.47 581.811 389.591C581.932 389.712 581.999 389.877 581.999 390.048C581.999 390.219 581.932 390.383 581.811 390.504C581.69 390.625 581.525 390.693 581.354 390.693Z" fill="#CACACA"/>
<path d="M463.378 257.472C462.99 256.776 462.759 256.003 462.702 255.208C462.644 254.414 462.762 253.616 463.046 252.871C463.33 252.127 463.774 251.454 464.346 250.9C464.919 250.345 465.605 249.923 466.358 249.664L466.391 230.293L474.78 235.849L473.463 253.392C473.815 254.686 473.681 256.065 473.086 257.267C472.49 258.469 471.475 259.411 470.231 259.914C468.988 260.417 467.604 260.446 466.341 259.996C465.078 259.546 464.023 258.648 463.378 257.472Z" fill="#9E616A"/>
<path d="M464.152 171.763L467.9 168.148L470.653 170.137C470.653 170.137 473.362 173.389 475.529 183.146C477.696 192.903 475.529 246.568 475.529 246.568L463.61 244.942L465.235 216.754L460.359 192.903L464.152 171.763Z" fill="#3F3D56"/>
</svg>
