<svg xmlns="http://www.w3.org/2000/svg" width="733" height="527" viewBox="0 0 733 527" fill="none">
<path fill-rule="evenodd" clip-rule="evenodd" d="M368.581 82.899C422.936 88.0201 522.374 20.5094 576.438 26.8218C652.31 35.6803 698.98 77.939 727.993 124.863C756.596 171.123 654.278 189.735 632.345 237.544C609.665 286.981 652.134 371.67 597.689 408.894C541.012 447.644 445.85 542.449 368.581 524.843C291.365 507.25 295.6 358.946 231.658 325.494C172.822 294.713 67.7464 315.78 25.4895 274.895C-17.1323 233.657 0.594274 175.345 28.5777 129.008C55.534 84.3723 79.8814 10.4571 151.437 0.753125C222.138 -8.83488 297.121 76.1666 368.581 82.899Z" fill="#FAFAFA"/>
<g clip-path="url(#clip0_927_215155)">
<path d="M532.413 449.86C522.898 450.699 513.514 447.197 506.873 440.329C502.586 435.806 499.644 429.985 496.798 424.356C495.97 422.718 495.114 421.024 494.243 419.401C492.256 415.78 492.671 411.313 495.291 408.121C497.802 404.929 502.002 403.587 505.897 404.731L506.312 404.851L510.049 419.438C510.606 417.263 511.803 412.36 512.559 407.557L512.622 407.155L512.994 407.32C516.896 409.048 520.565 411.259 523.914 413.904C535.924 423.541 543.088 437.975 543.503 453.372L543.513 453.825L532.413 449.86Z" fill="#96999E"/>
<path d="M654.224 454.8L472.888 455C472.46 454.998 472.115 454.649 472.117 454.221C472.119 453.796 472.463 453.452 472.888 453.45L654.224 453.25C654.652 453.249 655 453.595 655.001 454.023C655.002 454.451 654.657 454.799 654.229 454.8H654.224Z" fill="#878A91"/>
<path d="M173.367 130.57H166.592C165.244 130.57 164.152 131.663 164.152 133.011C164.152 134.359 163.06 135.452 161.712 135.452H139.124C137.776 135.452 136.684 134.359 136.684 133.011L136.237 130.537L132.143 125.314C131.871 124.962 131.45 124.757 131.005 124.761H123.326C122.528 124.762 121.881 125.409 121.88 126.208L121.722 130.537H118.819C116.254 130.537 114.176 132.616 114.176 135.182V165.434C114.176 167.711 116.02 169.556 118.296 169.556H173.367C175.641 169.553 177.484 167.709 177.486 165.434V134.691C177.486 132.415 175.642 130.57 173.367 130.57Z" fill="#96999E"/>
<path d="M136.24 130.425H121.881V126.096C121.882 125.298 122.529 124.651 123.327 124.65H131.006C131.45 124.646 131.872 124.85 132.143 125.203L136.24 130.425Z" fill="#96999E"/>
<path d="M143.593 166.227H119.617C118.036 166.226 116.756 164.944 116.754 163.363V156.803C116.756 155.222 118.036 153.941 119.617 153.94H148.394C149.974 153.941 151.255 155.222 151.256 156.803V158.56C151.252 162.793 147.823 166.223 143.593 166.227Z" fill="white"/>
<path d="M126.517 158.888H120.599C119.797 158.89 119.145 158.242 119.143 157.44C119.14 156.638 119.788 155.986 120.59 155.983H126.517C127.318 155.981 127.97 156.629 127.973 157.431C127.975 158.233 127.328 158.885 126.526 158.888H126.517Z" fill="#96999E"/>
<path d="M146.615 163.468H120.599C119.797 163.47 119.145 162.822 119.143 162.02C119.14 161.218 119.788 160.566 120.59 160.563H146.615C147.417 160.561 148.069 161.209 148.071 162.011C148.074 162.813 147.426 163.465 146.625 163.468H146.615Z" fill="#96999E"/>
<path d="M173.367 225.59H166.592C165.244 225.59 164.152 226.683 164.152 228.031C164.152 229.379 163.06 230.472 161.712 230.472H139.124C137.776 230.472 136.684 229.379 136.684 228.031L136.237 225.557L132.143 220.334C131.871 219.982 131.45 219.777 131.005 219.781H123.326C122.528 219.782 121.881 220.429 121.88 221.228L121.722 225.557H118.819C116.254 225.557 114.176 227.636 114.176 230.202V260.454C114.176 262.731 116.02 264.576 118.296 264.576H173.367C175.641 264.573 177.484 262.729 177.486 260.454V229.711C177.486 227.435 175.642 225.59 173.367 225.59Z" fill="#96999E"/>
<path d="M136.24 225.445H121.881V221.116C121.882 220.318 122.529 219.671 123.327 219.67H131.006C131.45 219.666 131.872 219.87 132.143 220.223L136.24 225.445Z" fill="#96999E"/>
<path d="M143.593 261.247H119.617C118.036 261.246 116.756 259.964 116.754 258.383V251.823C116.756 250.242 118.036 248.961 119.617 248.959H148.394C149.974 248.961 151.255 250.242 151.256 251.823V253.58C151.252 257.813 147.823 261.243 143.593 261.247Z" fill="white"/>
<path d="M126.517 253.908H120.599C119.797 253.91 119.145 253.262 119.143 252.46C119.14 251.658 119.788 251.006 120.59 251.003H126.517C127.318 251.001 127.97 251.649 127.973 252.451C127.975 253.253 127.328 253.905 126.526 253.908H126.517Z" fill="#96999E"/>
<path d="M146.615 258.488H120.599C119.797 258.49 119.145 257.842 119.143 257.04C119.14 256.238 119.788 255.586 120.59 255.583H146.615C147.417 255.581 148.069 256.229 148.071 257.031C148.074 257.833 147.426 258.485 146.625 258.488H146.615Z" fill="#96999E"/>
<path d="M173.367 320.61H166.592C165.244 320.61 164.152 321.703 164.152 323.051C164.152 324.399 163.06 325.492 161.712 325.492H139.124C137.776 325.492 136.684 324.399 136.684 323.051L136.237 320.577L132.143 315.354C131.871 315.002 131.45 314.797 131.005 314.801H123.326C122.528 314.802 121.881 315.449 121.88 316.248L121.722 320.577H118.819C116.254 320.577 114.176 322.656 114.176 325.222V355.474C114.176 357.751 116.02 359.596 118.296 359.596H173.367C175.641 359.593 177.484 357.749 177.486 355.474V324.731C177.486 322.455 175.642 320.61 173.367 320.61Z" fill="#96999E"/>
<path d="M136.24 320.465H121.881V316.136C121.882 315.338 122.529 314.69 123.327 314.69H131.006C131.45 314.686 131.872 314.89 132.143 315.242L136.24 320.465Z" fill="#96999E"/>
<path d="M143.593 356.267H119.617C118.036 356.265 116.756 354.984 116.754 353.403V346.843C116.756 345.262 118.036 343.981 119.617 343.979H148.394C149.974 343.981 151.255 345.262 151.256 346.843V348.6C151.252 352.833 147.823 356.262 143.593 356.267Z" fill="white"/>
<path d="M126.518 348.928H120.6C119.798 348.928 119.148 348.278 119.148 347.476C119.148 346.674 119.798 346.023 120.6 346.023H126.518C127.32 346.023 127.969 346.674 127.969 347.476C127.969 348.278 127.32 348.928 126.518 348.928Z" fill="#96999E"/>
<path d="M146.616 353.508H120.6C119.798 353.508 119.148 352.858 119.148 352.056C119.148 351.253 119.798 350.603 120.6 350.603H146.616C147.418 350.603 148.068 351.254 148.068 352.056C148.068 352.858 147.418 353.508 146.616 353.508Z" fill="#96999E"/>
<path d="M295.993 146.778C293.782 146.78 291.991 148.573 291.988 150.785V221.002C291.991 223.214 293.782 225.007 295.993 225.009H395.27C397.481 225.007 399.273 223.214 399.275 221.002V150.785C399.273 148.573 397.481 146.78 395.27 146.778H295.993Z" fill="#96999E"/>
<path d="M359.565 221.592H298.797C296.417 221.589 294.489 219.66 294.486 217.279V153.593C294.489 151.212 296.417 149.283 298.797 149.28H392.464C394.844 149.283 396.772 151.212 396.775 153.593V184.365C396.751 204.916 380.106 221.569 359.565 221.592Z" fill="white"/>
<path d="M335.761 166.905H321.32C320.559 166.905 319.941 166.287 319.941 165.525C319.941 164.763 320.559 164.145 321.32 164.145H335.761C336.522 164.145 337.14 164.763 337.14 165.525C337.14 166.287 336.522 166.905 335.761 166.905Z" fill="#112D57"/>
<path d="M368.132 172.547H321.32C320.559 172.547 319.941 171.93 319.941 171.168C319.941 170.406 320.559 169.788 321.32 169.788H368.132C368.893 169.788 369.511 170.406 369.511 171.168C369.511 171.93 368.893 172.547 368.132 172.547Z" fill="#96999E"/>
<path d="M368.132 179.024H321.32C320.559 179.024 319.941 178.407 319.941 177.645C319.941 176.883 320.559 176.265 321.32 176.265H368.132C368.893 176.265 369.511 176.883 369.511 177.645C369.511 178.407 368.893 179.024 368.132 179.024Z" fill="#96999E"/>
<path d="M368.132 185.501H321.32C320.559 185.501 319.941 184.884 319.941 184.122C319.941 183.36 320.559 182.742 321.32 182.742H368.132C368.893 182.742 369.511 183.36 369.511 184.122C369.511 184.884 368.893 185.501 368.132 185.501Z" fill="#96999E"/>
<path d="M368.132 191.978H321.32C320.559 191.978 319.941 191.361 319.941 190.599C319.941 189.837 320.559 189.219 321.32 189.219H368.132C368.893 189.219 369.511 189.837 369.511 190.599C369.511 191.361 368.893 191.978 368.132 191.978Z" fill="#96999E"/>
<path d="M405.666 195.802H386.069C382.172 195.802 379.013 198.963 379.013 202.862C379.013 206.76 375.854 209.921 371.956 209.921H306.624C302.726 209.921 299.567 206.76 299.567 202.862L298.275 195.705L286.433 180.6C285.646 179.581 284.429 178.99 283.142 179.001H260.933C258.624 179.004 256.753 180.876 256.75 183.185L256.292 195.705H247.896C240.479 195.705 234.467 201.72 234.467 209.14V296.639C234.467 303.224 239.802 308.562 246.384 308.562H405.666C412.243 308.553 417.573 303.22 417.579 296.639V207.721C417.579 201.138 412.246 195.802 405.666 195.802Z" fill="#96999E"/>
<path d="M298.281 195.382H256.75V182.862C256.753 180.552 258.624 178.681 260.932 178.678H283.142C284.428 178.666 285.646 179.258 286.432 180.277L298.281 195.382Z" fill="#CCCCCC"/>
<path d="M319.546 298.933H250.2C245.629 298.928 241.925 295.223 241.92 290.65V271.676C241.925 267.104 245.629 263.398 250.2 263.393H333.432C338.002 263.398 341.706 267.104 341.711 271.676V276.758C341.698 288.999 331.782 298.919 319.546 298.933Z" fill="white"/>
<path d="M270.162 277.705H253.046C250.727 277.705 248.848 275.825 248.848 273.505C248.848 271.185 250.727 269.305 253.046 269.305H270.162C272.481 269.302 274.363 271.18 274.366 273.499C274.369 275.819 272.492 277.702 270.173 277.705H270.162Z" fill="#112D57"/>
<path d="M328.293 290.952H253.046C250.727 290.952 248.848 289.071 248.848 286.752C248.848 284.432 250.727 282.551 253.046 282.551H328.293C330.612 282.548 332.494 284.427 332.497 286.746C332.5 289.066 330.623 290.949 328.304 290.952L328.293 290.952Z" fill="#112D57"/>
<path d="M467.844 85.8346H98.1504C97.5013 85.8207 96.9864 85.283 97.0003 84.6337C97.0137 84.0039 97.5209 83.4965 98.1504 83.483H467.844C468.493 83.4969 469.008 84.0346 468.994 84.6839C468.98 85.3137 468.473 85.8211 467.844 85.8346Z" fill="#878A91"/>
<path d="M611.25 446.487H605.147L602.244 422.937L611.251 422.937L611.25 446.487Z" fill="#9E616A"/>
<path d="M611.464 452.857L592.697 452.856V452.619C592.698 448.583 595.968 445.311 600.002 445.311L603.43 442.709L609.826 445.311L611.465 445.311L611.464 452.857Z" fill="#2F2E41"/>
<path d="M592.404 425.323L586.561 427.085L576.986 405.375L585.61 402.775L592.404 425.323Z" fill="#9E616A"/>
<path d="M594.447 431.359L576.479 436.778L576.41 436.551C575.246 432.687 577.433 428.61 581.296 427.445L583.828 423.964L590.702 424.608L592.271 424.135L594.447 431.359Z" fill="#2F2E41"/>
<path d="M584.022 297.276C584.022 297.276 577.493 307.247 575.183 314.031C569.523 330.655 566.816 326.667 560.297 367.087C569.142 396.944 577.901 416.626 577.901 416.626C577.901 416.626 591.064 412.923 591.064 410.453C591.064 407.984 582.665 377.874 581.431 374.375C580.197 370.877 578.141 369.643 579.992 366.762C581.843 363.881 597.048 338.697 597.048 338.697C597.048 338.697 596.637 381.623 597.048 382.446C597.459 383.269 599.437 432.7 599.437 432.7C599.437 432.7 612.975 439.633 613.795 432.245C614.001 430.393 614.26 381.408 614.26 380.585C614.26 379.762 626.792 303.067 620.828 299.981C614.863 296.894 584.022 297.276 584.022 297.276Z" fill="#2F2E41"/>
<path d="M556.666 304.382C557.015 301.241 559.842 298.977 562.982 299.326C563.316 299.363 563.647 299.429 563.97 299.525L575.797 282.987L579.585 292.851L567.773 307.043C566.675 310.024 563.369 311.55 560.389 310.451C557.895 309.532 556.356 307.022 556.666 304.382Z" fill="#9E616A"/>
<path d="M572.977 301.819L565.113 295.853L581.621 270.423L594.881 219.319L605.379 229.099C607.196 229.659 608.699 230.949 609.529 232.661C610.373 234.386 612.167 231.498 611.496 233.297L596.729 273.187L596.708 273.215L572.977 301.819Z" fill="#3F3D56"/>
<path d="M600.77 217.225L589.586 221.573L584.99 227.925L573.847 285.103L574.29 287.033L573.18 288.521L572.745 290.757L573.825 292.617L571.928 294.949C571.928 294.949 572.429 296.806 574.29 312.63C575.438 322.394 594.014 316.38 594.014 316.38L602.447 229.665L600.77 217.225Z" fill="#3F3D56"/>
<path d="M624.643 224.613L614.994 215.978L600.726 216.838L592.512 226.832L576.58 309.377L610.075 312.169L624.643 224.613Z" fill="#96999E"/>
<path d="M616.185 217.367L624.961 224.107L628.327 229.021C634.227 232.395 636.954 239.445 634.863 245.913L624.204 283.505L623.955 284.273C623.701 285.017 624.915 290.912 624.311 297.261C624.154 298.915 626.072 300.758 625.928 302.391C625.815 303.668 623.636 304.755 623.54 305.928C623.453 306.987 624.6 307.994 624.532 308.907C624.359 310.686 623.875 312.42 623.1 314.031C614.019 317.788 596.484 315.062 596.484 315.062L612.374 229.401L616.185 217.367Z" fill="#3F3D56"/>
<path d="M606.375 212.655C615.098 212.655 622.17 205.581 622.17 196.853C622.17 188.126 615.098 181.051 606.375 181.051C597.652 181.051 590.58 188.126 590.58 196.853C590.58 205.581 597.652 212.655 606.375 212.655Z" fill="#9E616A"/>
<path d="M626.853 197.529C625.937 202.723 622.229 207.861 617.052 208.848L616.954 208.717C617.242 206.466 617.368 204.197 617.331 201.927C617.311 200.472 616.116 199.309 614.662 199.329C613.577 199.343 612.613 200.022 612.232 201.038C612.325 199.06 611.488 197.04 610.948 195.132C610.408 193.229 610.041 191.423 608.162 190.799C606.594 190.283 604.886 190.641 603.277 191.009C601.053 191.511 599.923 191.395 599.723 190.832C598.9 191.133 598.077 191.434 597.254 191.734C596.615 191.966 595.899 191.746 595.501 191.195L595.494 191.185C594.057 191.558 592.619 191.927 591.182 192.293C590.909 191.372 590.687 190.437 590.516 189.491C591.748 188.486 592.629 187.115 593.033 185.577C592.171 186.073 591.237 186.431 590.265 186.638C590.197 184.434 591.156 182.322 592.861 180.923C596.262 178.191 599.672 176.516 604.026 176.735C609.292 177 610.869 182.668 615.656 180.458C621.704 177.665 627.77 192.335 626.853 197.529Z" fill="#2F2E41"/>
<path d="M538.307 207.163C536.924 206.05 534.902 206.267 533.786 207.648L498.426 251.532C497.313 252.916 497.53 254.939 498.911 256.055L560.955 306.093C562.338 307.206 564.361 306.989 565.476 305.608L600.837 261.724C601.949 260.341 601.732 258.317 600.352 257.201L538.307 207.163Z" fill="#CCCCCC"/>
<path d="M540.362 285.962L502.385 255.333C500.899 254.132 500.665 251.954 501.863 250.465L533.934 210.663C535.135 209.176 537.312 208.943 538.8 210.14L597.339 257.351C598.825 258.552 599.058 260.73 597.861 262.219L582.364 281.451C572.001 294.283 553.212 296.301 540.362 285.962Z" fill="white"/>
<path d="M553.026 239.786L544.002 232.508C543.524 232.126 543.447 231.429 543.828 230.951C544.21 230.474 544.907 230.396 545.384 230.778L545.391 230.783L554.416 238.062C554.89 238.448 554.962 239.145 554.577 239.62C554.193 240.092 553.501 240.166 553.026 239.786Z" fill="#112D57"/>
<path d="M570.415 259.629L541.16 236.034C540.682 235.652 540.605 234.955 540.987 234.478C541.368 234 542.065 233.922 542.542 234.304L542.549 234.31L571.805 257.904C572.279 258.29 572.351 258.987 571.966 259.462C571.582 259.934 570.89 260.008 570.415 259.629Z" fill="#96999E"/>
<path d="M567.153 263.677L537.898 240.082C537.421 239.7 537.343 239.003 537.725 238.526C538.107 238.048 538.803 237.97 539.281 238.352L539.288 238.358L568.543 261.952C569.017 262.338 569.089 263.035 568.704 263.51C568.32 263.982 567.628 264.056 567.153 263.677Z" fill="#96999E"/>
<path d="M563.892 267.724L534.636 244.13C534.159 243.748 534.081 243.051 534.463 242.573C534.845 242.096 535.542 242.018 536.019 242.4L536.026 242.406L565.281 266C565.756 266.386 565.828 267.083 565.442 267.558C565.059 268.03 564.367 268.104 563.892 267.724Z" fill="#96999E"/>
<path d="M560.63 271.772L531.375 248.178C530.897 247.796 530.82 247.099 531.201 246.621C531.583 246.144 532.28 246.066 532.757 246.448L532.764 246.454L562.02 270.048C562.494 270.434 562.566 271.131 562.18 271.606C561.797 272.078 561.105 272.152 560.63 271.772Z" fill="#96999E"/>
<path d="M554.26 270.992C556.289 268.57 559.896 268.252 562.317 270.282C562.575 270.498 562.814 270.737 563.03 270.996L582.033 263.781L579.725 274.092L562.033 279.363C559.468 281.236 555.871 280.674 553.998 278.108C552.432 275.96 552.54 273.018 554.26 270.992Z" fill="#9E616A"/>
<path d="M569.257 278.362L566.014 269.038L593.838 257.013L628.412 231.315L632.777 236.705C635.182 239.676 634.725 244.036 631.755 246.442C631.658 246.521 631.559 246.597 631.458 246.67L604.886 267.687L604.853 267.699L596.605 270.17L594.758 270.278L592.788 271.313L591.037 270.743L588.613 272.564L585.83 273.397L569.257 278.362Z" fill="#3F3D56"/>
<path d="M411.114 319.033C401.714 319.033 394.094 311.41 394.094 302.005C394.094 292.601 401.714 284.977 411.114 284.977C420.514 284.977 428.135 292.601 428.135 302.005C428.135 311.41 420.514 319.033 411.114 319.033Z" fill="#112D57"/>
<path d="M417.831 300.326H412.794V295.286C412.794 294.359 412.043 293.607 411.116 293.607C410.188 293.607 409.437 294.359 409.437 295.286V300.326H404.4C403.472 300.326 402.721 301.078 402.721 302.005C402.721 302.933 403.472 303.685 404.4 303.685H409.437V308.724C409.437 309.652 410.188 310.404 411.116 310.404C412.043 310.404 412.794 309.652 412.794 308.724V303.685H417.831C418.759 303.685 419.51 302.933 419.51 302.005C419.51 301.078 418.759 300.326 417.831 300.326Z" fill="white"/>
<path d="M175.978 177.38C171.484 177.38 167.84 173.734 167.84 169.238C167.84 164.741 171.484 161.096 175.978 161.096C180.473 161.096 184.117 164.741 184.117 169.238C184.117 173.734 180.473 177.38 175.978 177.38Z" fill="#96999E"/>
<path d="M179.19 168.435H172.767C172.324 168.435 171.965 168.794 171.965 169.238C171.965 169.681 172.324 170.041 172.767 170.041H179.19C179.633 170.041 179.993 169.682 179.993 169.238C179.993 168.794 179.634 168.435 179.19 168.435H179.19Z" fill="white"/>
<path d="M175.978 271.098C171.484 271.098 167.84 267.453 167.84 262.956C167.84 258.459 171.484 254.814 175.978 254.814C180.473 254.814 184.117 258.459 184.117 262.956C184.117 267.453 180.473 271.098 175.978 271.098Z" fill="#96999E"/>
<path d="M179.19 262.153H172.767C172.324 262.153 171.965 262.513 171.965 262.956C171.965 263.4 172.324 263.759 172.767 263.759H179.19C179.633 263.759 179.993 263.4 179.993 262.956C179.993 262.513 179.634 262.153 179.19 262.153H179.19Z" fill="white"/>
<path d="M175.978 364.816C171.484 364.816 167.84 361.171 167.84 356.674C167.84 352.178 171.484 348.532 175.978 348.532C180.473 348.532 184.117 352.178 184.117 356.674C184.117 361.171 180.473 364.816 175.978 364.816Z" fill="#96999E"/>
<path d="M179.19 355.871H172.767C172.324 355.871 171.965 356.231 171.965 356.675C171.965 357.118 172.324 357.477 172.767 357.477H179.19C179.633 357.478 179.993 357.118 179.993 356.675C179.993 356.231 179.634 355.871 179.19 355.871H179.19Z" fill="white"/>
<path d="M147.009 69.2528C150.047 69.2528 152.51 66.7338 152.51 63.6264C152.51 60.519 150.047 58 147.009 58C143.971 58 141.508 60.519 141.508 63.6264C141.508 66.7338 143.971 69.2528 147.009 69.2528Z" fill="#3F3D56"/>
<path d="M166.013 69.2528C169.051 69.2528 171.514 66.7338 171.514 63.6264C171.514 60.519 169.051 58 166.013 58C162.975 58 160.512 60.519 160.512 63.6264C160.512 66.7338 162.975 69.2528 166.013 69.2528Z" fill="#3F3D56"/>
<path d="M185.019 69.2528C188.057 69.2528 190.52 66.7338 190.52 63.6264C190.52 60.519 188.057 58 185.019 58C181.981 58 179.518 60.519 179.518 63.6264C179.518 66.7338 181.981 69.2528 185.019 69.2528Z" fill="#3F3D56"/>
<path d="M206.689 68.0733C206.52 68.0733 206.351 68.0078 206.224 67.8776L202.512 64.0813C202.264 63.8284 202.264 63.4241 202.512 63.1712L206.224 59.3752C206.476 59.1185 206.888 59.1143 207.144 59.3651C207.401 59.6164 207.405 60.0286 207.154 60.2854L203.887 63.6262L207.154 66.9674C207.405 67.2242 207.401 67.6364 207.144 67.8877C207.017 68.0117 206.853 68.0733 206.689 68.0733Z" fill="#3F3D56"/>
<path d="M212.926 68.0733C212.762 68.0733 212.598 68.0116 212.471 67.8877C212.214 67.6363 212.21 67.2245 212.461 66.9674L215.728 63.6262L212.461 60.2854C212.21 60.0286 212.214 59.6164 212.471 59.3651C212.727 59.1134 213.14 59.1182 213.391 59.3752L217.103 63.1712C217.35 63.4241 217.35 63.8283 217.103 64.0813L213.391 67.8775C213.264 68.0078 213.095 68.0733 212.926 68.0733Z" fill="#3F3D56"/>
<path d="M407.116 58.6514H400.214C399.427 58.6514 398.789 59.2892 398.789 60.0767V66.9885C398.789 67.776 399.427 68.4138 400.214 68.4138H407.116C407.903 68.4138 408.547 67.776 408.547 66.9885V60.0767C408.547 59.2892 407.903 58.6514 407.116 58.6514Z" fill="#3F3D56"/>
<path d="M390.202 58.6514H383.3C382.512 58.6514 381.875 59.2892 381.875 60.0767V66.9885C381.875 67.776 382.512 68.4138 383.3 68.4138H390.202C390.989 68.4138 391.633 67.776 391.633 66.9885V60.0767C391.633 59.2892 390.989 58.6514 390.202 58.6514Z" fill="#3F3D56"/>
<path d="M423.055 58.9768H416.153C415.366 58.9768 414.729 59.6146 414.729 60.4021V67.3138C414.729 68.1013 415.366 68.7391 416.153 68.7391H423.055C423.842 68.7391 424.487 68.1013 424.487 67.3138V60.4021C424.487 59.6146 423.842 58.9768 423.055 58.9768Z" fill="#3F3D56"/>
<path d="M319.02 61.6061H263.848C262.885 61.6061 262.111 62.3871 262.111 63.3439C262.111 64.3006 262.885 65.0815 263.848 65.0815H319.02C319.976 65.0815 320.757 64.3005 320.757 63.3439C320.757 62.3872 319.976 61.6061 319.02 61.6061Z" fill="#3F3D56"/>
</g>
<defs>
<clipPath id="clip0_927_215155">
<rect width="558" height="397" fill="white" transform="translate(97 58)"/>
</clipPath>
</defs>
</svg>