<svg width="432" height="120" viewBox="0 0 432 120" fill="none" xmlns="http://www.w3.org/2000/svg">
<rect width="432" height="119.804" fill="white"/>
<g clip-path="url(#clip0_217_8299)">
<path d="M236.321 34.6584H234.325C234.261 34.6586 234.199 34.6349 234.152 34.5919C234.105 34.5489 234.075 34.4897 234.069 34.4259L233.669 30.3313H236.977L236.577 34.4259C236.571 34.4896 236.542 34.5488 236.494 34.5919C236.447 34.6349 236.385 34.6586 236.321 34.6584Z" fill="#E6E6E6"/>
<path d="M236.972 30.8464H233.675C233.607 30.8463 233.541 30.8192 233.493 30.7709C233.445 30.7226 233.418 30.6572 233.417 30.5889V29.9707C233.418 29.9024 233.445 29.8369 233.493 29.7887C233.541 29.7404 233.607 29.7132 233.675 29.7131H236.972C237.04 29.7132 237.106 29.7404 237.154 29.7887C237.202 29.8369 237.229 29.9024 237.229 29.9707V30.5889C237.229 30.6572 237.202 30.7226 237.154 30.7709C237.106 30.8192 237.04 30.8463 236.972 30.8464Z" fill="#CCCCCC"/>
<path d="M212.971 30.2597H205.065V27.8596C207.563 26.1209 209.777 26.272 212.689 28.0008L212.971 30.2597Z" fill="#FAB133"/>
<path d="M203.234 72.8916L201.503 72.8915L201.245 66.2151L203.235 66.2152L203.234 72.8916Z" fill="#FFB8B8"/>
<path d="M203.676 74.5694L198.095 74.5692V74.4986C198.095 74.2134 198.151 73.9309 198.26 73.6673C198.369 73.4038 198.529 73.1643 198.731 72.9626C198.933 72.7608 199.172 72.6008 199.436 72.4917C199.699 72.3825 199.982 72.3263 200.267 72.3263L203.676 72.3265L203.676 74.5694Z" fill="#2F2E41"/>
<path d="M212.984 72.8916L214.715 72.8915L214.973 66.2151L212.983 66.2152L212.984 72.8916Z" fill="#FFB8B8"/>
<path d="M212.542 72.3265L215.951 72.3263C216.236 72.3263 216.519 72.3825 216.782 72.4917C217.046 72.6008 217.285 72.7608 217.487 72.9626C217.689 73.1643 217.849 73.4037 217.958 73.6673C218.067 73.9309 218.123 74.2134 218.123 74.4986V74.5692L212.542 74.5694L212.542 72.3265Z" fill="#2F2E41"/>
<path d="M213.029 72.0359C212.885 72.0354 212.745 71.986 212.632 71.8956C212.519 71.8053 212.441 71.6794 212.409 71.5386L208.119 52.826C208.109 52.7785 208.083 52.7358 208.045 52.7054C208.008 52.6751 207.96 52.6591 207.912 52.6603H207.911C207.862 52.6594 207.815 52.6757 207.777 52.7064C207.739 52.7372 207.714 52.7802 207.705 52.8281L203.765 71.4145C203.734 71.5567 203.656 71.6841 203.543 71.7757C203.43 71.8672 203.289 71.9174 203.143 71.918H201.267C201.18 71.918 201.094 71.9003 201.015 71.866C200.935 71.8317 200.864 71.7815 200.804 71.7184C200.745 71.6554 200.699 71.5809 200.67 71.4996C200.64 71.4182 200.627 71.3316 200.632 71.2452L202.03 47.6876L202.593 47.5212L202.603 47.5213L213.652 47.618L216.005 71.1496C216.014 71.2335 216.005 71.3183 215.98 71.3988C215.955 71.4794 215.915 71.5542 215.861 71.6189C215.806 71.6836 215.74 71.7369 215.665 71.7756C215.59 71.8143 215.508 71.8378 215.424 71.8445L213.08 72.0338C213.063 72.0352 213.046 72.0359 213.029 72.0359Z" fill="#395174"/>
<path d="M208.466 25.9581C210.381 25.9581 211.934 24.4056 211.934 22.4904C211.934 20.5753 210.381 19.0228 208.466 19.0228C206.551 19.0228 204.999 20.5753 204.999 22.4904C204.999 24.4056 206.551 25.9581 208.466 25.9581Z" fill="#FFB8B8"/>
<path d="M206.342 50.2705C205.734 50.278 205.128 50.1928 204.545 50.0176C204.027 49.8613 203.546 49.6007 203.133 49.2516C202.719 48.9026 202.381 48.4726 202.14 47.9881C202.063 47.8423 202.046 47.6725 202.092 47.5145C202.475 46.2092 204.323 39.4245 203.144 34.0309C202.977 33.2816 202.963 32.5065 203.103 31.7518C203.243 30.997 203.533 30.2782 203.956 29.638C204.37 29.0029 204.907 28.4575 205.536 28.0345C206.165 27.6115 206.873 27.3195 207.617 27.1759L207.617 27.1758C207.812 27.1376 208.009 27.1063 208.201 27.0826C209.024 26.9813 209.859 27.0632 210.646 27.3222C211.433 27.5812 212.154 28.0111 212.756 28.581C213.375 29.1621 213.859 29.8731 214.172 30.6629C214.484 31.4528 214.619 32.302 214.565 33.1498L213.659 47.6925C213.652 47.8015 213.618 47.907 213.559 47.9987C213.499 48.0903 213.417 48.165 213.32 48.2153C212.276 48.7623 209.141 50.2705 206.342 50.2705Z" fill="#112D57"/>
<path d="M212.384 19.9379C212.023 19.0326 211.364 18.2783 210.514 17.8008C209.665 17.3233 208.678 17.1515 207.717 17.3142L208.81 18.1977C207.452 18.2434 206.022 18.1462 205.052 19.0983C205.361 19.0898 205.766 19.7502 206.074 19.7417C205.497 19.7531 204.974 20.1587 204.719 20.6768C204.482 21.209 204.427 21.804 204.561 22.3706C204.675 22.9366 205.545 24.2627 205.779 24.7905C205.739 23.4111 208.455 20.1209 209.781 20.4643C209.107 20.7142 208.522 21.1581 208.101 21.7399C209.003 21.2846 210.023 21.1177 211.023 21.2617C211.252 21.3141 211.487 21.3273 211.72 21.3007C211.863 21.2725 211.996 21.2082 212.106 21.1139C212.217 21.0196 212.302 20.8985 212.352 20.7621C212.403 20.6257 212.418 20.4787 212.395 20.335C212.373 20.1913 212.314 20.0558 212.224 19.9413L212.384 19.9379Z" fill="#2F2E41"/>
<path d="M206.103 49.3972C206.016 49.397 205.929 49.3787 205.849 49.3435L199.27 46.4717C199.13 46.4118 199.016 46.3034 198.95 46.1666C198.884 46.0297 198.869 45.8735 198.909 45.7267L203.265 29.2731C203.346 28.967 203.487 28.68 203.68 28.4291C203.873 28.1782 204.115 27.9684 204.39 27.8119C204.665 27.6554 204.969 27.5554 205.283 27.5177C205.598 27.4801 205.917 27.5055 206.221 27.5925L207.963 28.0896L206.737 48.7987C206.73 48.9009 206.7 49.0001 206.647 49.0878C206.594 49.1755 206.521 49.2493 206.434 49.3027C206.335 49.3642 206.22 49.3969 206.103 49.3972Z" fill="#FAB133"/>
<path d="M218.28 45.7266L217.99 44.6353L217.571 43.0483L217.369 42.2873L216.95 40.7047L213.924 29.2729C213.844 28.9666 213.703 28.6795 213.509 28.4285C213.316 28.1775 213.075 27.9675 212.799 27.811C212.524 27.6545 212.22 27.5546 211.906 27.5171C211.591 27.4797 211.272 27.5054 210.968 27.5928L209.227 28.0898L210.09 42.6558L210.179 44.1764L210.235 45.135V45.1365L210.325 46.6486L210.453 48.7988C210.463 48.9603 210.534 49.1118 210.652 49.2229C210.769 49.3339 210.925 49.3963 211.086 49.3974C211.174 49.3969 211.26 49.3787 211.341 49.3438L217.92 46.4721C218.06 46.4122 218.173 46.3037 218.239 46.1667C218.305 46.0297 218.32 45.8734 218.28 45.7266Z" fill="#FAB133"/>
<path d="M217.369 42.2873L210.179 44.1764L210.09 42.6558L216.95 40.7046L217.369 42.2873Z" fill="#CCCCCC"/>
<path d="M217.991 44.6352L210.326 46.6485L210.235 45.1364V45.135L217.571 43.0483L217.991 44.6352Z" fill="#CCCCCC"/>
<path d="M207.011 42.9833L206.922 44.4757L199.87 42.3748L200.283 40.8133L207.011 42.9833Z" fill="#CCCCCC"/>
<path d="M206.864 45.4584L199.668 43.1359L199.254 44.7016L206.776 46.9422L206.864 45.4584Z" fill="#CCCCCC"/>
<path d="M199.793 47.019C200.008 46.963 200.207 46.8606 200.378 46.7191C200.549 46.5776 200.686 46.4004 200.781 46.1999C200.876 45.9995 200.926 45.7807 200.927 45.559C200.928 45.3372 200.88 45.118 200.788 44.9166L204.171 34.2958L201.772 33.7934L198.67 44.2063C198.342 44.3846 198.091 44.6771 197.964 45.0282C197.837 45.3793 197.844 45.7648 197.982 46.1115C198.121 46.4582 198.382 46.742 198.715 46.9093C199.049 47.0765 199.433 47.1156 199.793 47.019Z" fill="#FFB8B8"/>
<path d="M204.265 29.0746C204.953 29.1449 205.341 29.9194 205.17 30.8838L204.348 35.5116C204.286 35.8585 204.001 36.1332 203.763 36.0739L200.983 35.379C200.77 35.3255 200.691 35.0216 200.812 34.7175L202.481 30.5308C202.843 29.6216 203.597 29.0065 204.265 29.0746Z" fill="#112D57"/>
<path d="M208.453 16C209.627 16.0002 210.755 16.4571 211.597 17.274C212.44 18.0909 212.931 19.2037 212.968 20.3768H213.819C213.893 20.3768 213.965 20.4065 214.018 20.4595C214.071 20.5124 214.101 20.5843 214.101 20.6591V21.7886C214.101 21.8635 214.071 21.9353 214.018 21.9883C213.965 22.0412 213.893 22.071 213.819 22.071H204.218C204.143 22.071 204.071 22.0412 204.018 21.9883C203.965 21.9353 203.936 21.8635 203.936 21.7886V20.518C203.936 19.9246 204.052 19.3372 204.279 18.789C204.506 18.2409 204.839 17.7428 205.259 17.3233C205.678 16.9038 206.176 16.571 206.725 16.3439C207.273 16.1169 207.86 16 208.453 16Z" fill="#FAB133"/>
<path d="M208.993 43.9272H206.998C206.934 43.9274 206.872 43.9036 206.824 43.8606C206.777 43.8176 206.747 43.7584 206.741 43.6947L206.342 39.6H209.649L209.25 43.6946C209.244 43.7584 209.214 43.8176 209.167 43.8606C209.119 43.9036 209.057 43.9274 208.993 43.9272Z" fill="#E6E6E6"/>
<path d="M209.644 40.1151H206.347C206.279 40.1151 206.213 40.0879 206.165 40.0396C206.117 39.9913 206.089 39.9259 206.089 39.8576V39.2394C206.089 39.1711 206.117 39.1057 206.165 39.0574C206.213 39.0091 206.279 38.9819 206.347 38.9818H209.644C209.712 38.9819 209.778 39.0091 209.826 39.0574C209.874 39.1057 209.901 39.1711 209.901 39.2394V39.8576C209.901 39.9259 209.874 39.9913 209.826 40.0396C209.778 40.0879 209.712 40.1151 209.644 40.1151Z" fill="#CCCCCC"/>
<path d="M208.038 41.7313C208.116 41.7402 208.193 41.7553 208.268 41.7763L213.583 37.2183L213.272 35.5459L215.735 34.7471L216.573 37.6543C216.64 37.8892 216.63 38.1397 216.543 38.3681C216.456 38.5966 216.298 38.7908 216.091 38.9215L209.36 43.1811C209.365 43.482 209.278 43.7773 209.111 44.0276C208.943 44.2779 208.704 44.4713 208.424 44.5823C208.145 44.6932 207.838 44.7164 207.544 44.6486C207.251 44.5809 206.986 44.4255 206.783 44.203C206.58 43.9806 206.45 43.7018 206.409 43.4035C206.369 43.1053 206.42 42.8018 206.557 42.5335C206.693 42.2652 206.908 42.0447 207.172 41.9014C207.437 41.7581 207.739 41.6987 208.038 41.7313Z" fill="#FFB8B8"/>
<path d="M213.597 29.4568C214.333 29.2508 215.068 29.8109 215.314 30.765L216.496 35.3437C216.585 35.6869 216.413 36.0517 216.144 36.0903L212.995 36.5433C212.752 36.5782 212.539 36.3297 212.53 36.0024L212.408 31.4967C212.381 30.5182 212.884 29.6565 213.597 29.4568Z" fill="#112D57"/>
<path d="M255.929 58.7044C254.479 56.7756 253.332 54.6363 252.53 52.3607C252.483 52.2245 252.486 52.0763 252.539 51.9424C252.592 51.8085 252.69 51.6976 252.817 51.6294L257.779 48.9707C257.859 48.9273 257.948 48.9029 258.039 48.8992C258.13 48.8955 258.221 48.9126 258.305 48.9493C258.39 48.9863 258.465 49.0422 258.525 49.1127C258.586 49.1833 258.629 49.2667 258.652 49.3565C259.23 51.5493 260.315 53.5754 261.821 55.2709C261.883 55.3399 261.928 55.4221 261.954 55.5113C261.979 55.6005 261.984 55.6944 261.968 55.7857C261.952 55.8755 261.916 55.9606 261.862 56.0345C261.809 56.1083 261.739 56.169 261.659 56.2118L256.697 58.8705C256.57 58.9382 256.423 58.9587 256.282 58.9282C256.142 58.8978 256.016 58.8185 255.929 58.7044Z" fill="#CCCCCC"/>
<path d="M256.267 58.4499C256.294 58.4832 256.332 58.5061 256.373 58.5148C256.415 58.5234 256.459 58.5172 256.496 58.4971L261.458 55.8384C261.482 55.8258 261.503 55.8078 261.519 55.7858C261.535 55.7639 261.546 55.7385 261.551 55.7117C261.556 55.6834 261.554 55.6543 261.546 55.6267C261.538 55.5991 261.524 55.5737 261.505 55.5525C259.954 53.8071 258.837 51.7213 258.242 49.4638C258.235 49.436 258.222 49.41 258.204 49.3881C258.185 49.3662 258.162 49.3489 258.135 49.3375C258.11 49.3264 258.083 49.3212 258.056 49.3223C258.029 49.3234 258.002 49.3308 257.979 49.344L253.017 52.0027C252.979 52.023 252.95 52.0558 252.934 52.0954C252.918 52.1351 252.916 52.179 252.929 52.2197C253.717 54.4546 254.843 56.5556 256.267 58.4499Z" fill="white"/>
<path d="M258.104 52.7649L255.402 53.9579C255.299 54.0031 255.182 54.0057 255.078 53.9652C254.973 53.9246 254.888 53.8441 254.843 53.7414L254.776 53.59C254.731 53.4872 254.728 53.3707 254.769 53.266C254.809 53.1613 254.89 53.077 254.993 53.0315L257.695 51.8385C257.798 51.7933 257.914 51.7907 258.019 51.8313C258.124 51.8718 258.208 51.9523 258.254 52.055L258.32 52.2064C258.366 52.3092 258.368 52.4257 258.328 52.5304C258.287 52.6351 258.207 52.7195 258.104 52.7649Z" fill="#CCCCCC"/>
<path d="M259.092 54.6003L256.39 55.7933C256.287 55.8385 256.17 55.8412 256.066 55.8006C255.961 55.76 255.877 55.6796 255.831 55.5769L255.764 55.4254C255.719 55.3227 255.717 55.2061 255.757 55.1014C255.798 54.9967 255.878 54.9124 255.981 54.8669L258.683 53.674C258.786 53.6287 258.903 53.6261 259.007 53.6667C259.112 53.7073 259.196 53.7877 259.242 53.8904L259.309 54.0418C259.354 54.1446 259.357 54.2611 259.316 54.3658C259.275 54.4706 259.195 54.5549 259.092 54.6003Z" fill="#CCCCCC"/>
<path d="M252.754 53.071C252.568 52.9511 252.41 52.7917 252.291 52.6041C252.173 52.4165 252.098 52.2053 252.07 51.9853C252.042 51.7653 252.063 51.5419 252.131 51.3308C252.199 51.1198 252.312 50.9262 252.463 50.7636L251.323 34.5898L254.606 34.9081L254.696 50.7472C254.953 51.0187 255.1 51.3748 255.112 51.7479C255.123 52.1211 254.997 52.4854 254.757 52.7718C254.518 53.0583 254.182 53.2469 253.813 53.3021C253.443 53.3572 253.067 53.275 252.754 53.071Z" fill="#A0616A"/>
<path d="M252.067 40.0243C251.99 39.969 251.926 39.8972 251.881 39.8141C251.835 39.731 251.809 39.6388 251.804 39.5442L251.564 35.185C251.54 34.7531 251.677 34.3277 251.948 33.9908C252.219 33.6539 252.606 33.4293 253.033 33.3604C253.46 33.2916 253.897 33.3832 254.261 33.6178C254.624 33.8523 254.888 34.2131 255.001 34.6305L256.058 38.5279C256.102 38.6906 256.079 38.864 255.995 39.0101C255.912 39.1562 255.773 39.2631 255.611 39.3074L252.605 40.1224C252.514 40.1473 252.418 40.1515 252.325 40.1345C252.231 40.1175 252.143 40.0799 252.067 40.0243Z" fill="#112D57"/>
<path d="M246.471 72.9553H244.74L243.917 66.2789H246.472L246.471 72.9553Z" fill="#A0616A"/>
<path d="M243.504 72.4607H246.842V74.5625H241.402C241.402 74.2865 241.456 74.0132 241.562 73.7582C241.667 73.5032 241.822 73.2715 242.017 73.0763C242.213 72.8811 242.444 72.7263 242.699 72.6207C242.954 72.5151 243.228 72.4607 243.504 72.4607Z" fill="#2F2E41"/>
<path d="M252.966 72.9553H251.235L250.412 66.2789H252.966L252.966 72.9553Z" fill="#A0616A"/>
<path d="M249.998 72.4607H253.336V74.5625H247.896C247.896 74.2865 247.951 74.0132 248.056 73.7582C248.162 73.5032 248.317 73.2715 248.512 73.0763C248.707 72.8811 248.939 72.7263 249.194 72.6207C249.449 72.5151 249.722 72.4607 249.998 72.4607Z" fill="#2F2E41"/>
<path d="M246.389 69.5919L244.484 69.5011C244.321 69.4934 244.168 69.4238 244.056 69.3066C243.943 69.1894 243.88 69.0335 243.879 68.871C243.376 61.1172 242.681 52.8031 243.746 49.5912C243.745 49.4997 243.764 49.4091 243.802 49.3257C243.839 49.2422 243.895 49.1679 243.964 49.1078C244.033 49.0476 244.114 49.0031 244.202 48.9773C244.289 48.9514 244.382 48.9448 244.472 48.9579L252.095 50.0645C252.246 50.0856 252.384 50.1603 252.484 50.275C252.584 50.3896 252.639 50.5365 252.64 50.6885C253.613 54.4916 253.657 61.3878 253.62 68.5533C253.621 68.6371 253.605 68.7203 253.573 68.7979C253.541 68.8756 253.495 68.9462 253.436 69.0057C253.376 69.0652 253.306 69.1124 253.229 69.1446C253.151 69.1769 253.068 69.1935 252.985 69.1935H250.93C250.779 69.1941 250.632 69.1402 250.517 69.0417C250.402 68.9433 250.326 68.8067 250.303 68.6569L249.035 60.5998C249.017 60.4819 248.956 60.3747 248.865 60.298C248.773 60.2213 248.657 60.1802 248.538 60.1824C248.419 60.1846 248.304 60.2299 248.216 60.3099C248.127 60.39 248.071 60.4993 248.057 60.6178L247.05 69.0328C247.031 69.187 246.957 69.3289 246.841 69.432C246.725 69.5351 246.575 69.5923 246.419 69.5928C246.409 69.5928 246.399 69.5925 246.389 69.5919Z" fill="#395174"/>
<path d="M247.731 50.6893C246.051 49.7559 244.738 49.5106 244.105 49.4475C244.021 49.4393 243.939 49.4142 243.865 49.3736C243.791 49.333 243.726 49.2778 243.674 49.2113C243.621 49.1443 243.582 49.0672 243.559 48.9846C243.536 48.9021 243.531 48.8158 243.543 48.731L245.369 35.1701C245.474 34.3767 245.781 33.6235 246.259 32.982C246.738 32.3406 247.373 31.8322 248.103 31.5053C248.81 31.1803 249.589 31.0416 250.365 31.1024C251.14 31.1632 251.888 31.4215 252.536 31.8528C252.598 31.8944 252.66 31.9369 252.72 31.9803C253.466 32.5269 254.033 33.2822 254.351 34.1508C254.668 35.0195 254.722 35.9627 254.504 36.8616C253.384 41.4437 252.999 48.9558 252.933 50.4152C252.928 50.5396 252.886 50.6597 252.813 50.7603C252.74 50.8609 252.638 50.9376 252.521 50.9806C251.832 51.2311 251.105 51.3606 250.372 51.3634C249.448 51.369 248.539 51.1368 247.731 50.6893Z" fill="#112D57"/>
<path d="M249.259 29.664C251.174 29.664 252.726 28.1115 252.726 26.1964C252.726 24.2813 251.174 22.7287 249.259 22.7287C247.344 22.7287 245.791 24.2813 245.791 26.1964C245.791 28.1115 247.344 29.664 249.259 29.664Z" fill="#A0616A"/>
<path d="M251.713 28.9398C251.066 29.6289 249.864 29.259 249.78 28.3176C249.774 28.2445 249.774 28.171 249.782 28.098C249.825 27.681 250.066 27.3024 250.008 26.8621C249.995 26.7525 249.954 26.6481 249.89 26.5587C249.374 25.8684 248.164 26.8674 247.678 26.2425C247.379 25.8594 247.73 25.2561 247.501 24.8278C247.199 24.2625 246.304 24.5414 245.743 24.2318C245.118 23.8874 245.156 22.9293 245.567 22.3466C246.068 21.6359 246.947 21.2567 247.815 21.2021C248.683 21.1474 249.545 21.3821 250.355 21.6978C251.276 22.0566 252.189 22.5525 252.755 23.3621C253.444 24.3466 253.511 25.6702 253.166 26.8214C252.956 27.5216 252.241 28.3771 251.713 28.9398Z" fill="#2F2E41"/>
<path d="M254.459 32.3112C254.398 32.026 253.877 31.6363 253.132 31.3186C251.933 30.8333 250.637 30.6379 249.349 30.7483C248.061 30.8587 246.817 31.2718 245.719 31.954C245.643 31.9581 245.57 31.9873 245.511 32.037C245.453 32.0868 245.412 32.1543 245.396 32.2293L242.889 43.3194L242.562 44.7637L242.346 45.7195L242.02 47.1596L241.847 47.9291C241.835 47.9783 241.835 48.0293 241.845 48.0787C241.855 48.128 241.876 48.1747 241.906 48.2155C241.935 48.2562 241.973 48.2902 242.017 48.3151C242.061 48.3399 242.11 48.3552 242.16 48.3597L252.988 49.2943C252.997 49.2943 253.009 49.2958 253.019 49.2958C253.108 49.2952 253.194 49.2608 253.259 49.1995C253.324 49.1382 253.363 49.0545 253.369 48.9654L253.472 47.3968L253.582 45.7195L253.63 44.9924L253.739 43.3194L254.46 32.3295V32.3196L254.459 32.3112Z" fill="#FAB133"/>
<path d="M236.693 33.0093C236.71 33.0854 236.721 33.1629 236.726 33.2408L242.791 36.7397L244.266 35.891L245.837 37.9484L242.683 40.1961L235.764 34.7375C235.482 34.842 235.175 34.858 234.883 34.7835C234.592 34.7091 234.33 34.5476 234.132 34.3206C233.935 34.0936 233.811 33.8119 233.777 33.5128C233.744 33.2138 233.802 32.9116 233.944 32.6465C234.087 32.3815 234.307 32.166 234.574 32.0289C234.842 31.8917 235.145 31.8393 235.444 31.8787C235.742 31.9181 236.021 32.0473 236.244 32.2493C236.468 32.4512 236.624 32.7163 236.693 33.0093Z" fill="#A0616A"/>
<path d="M243.008 36.4421C242.998 36.348 243.009 36.2527 243.041 36.1635C243.072 36.0742 243.123 35.9931 243.191 35.9263L246.277 32.8388C246.583 32.5329 246.991 32.3511 247.423 32.3284C247.855 32.3057 248.28 32.4438 248.617 32.7159C248.953 32.9881 249.176 33.3751 249.244 33.8023C249.312 34.2295 249.219 34.6666 248.984 35.0295L246.785 38.4168C246.694 38.558 246.549 38.657 246.385 38.6921C246.22 38.7271 246.048 38.6954 245.907 38.6039L243.294 36.9085C243.215 36.8571 243.148 36.7885 243.098 36.7078C243.049 36.6271 243.018 36.5363 243.008 36.4421Z" fill="#112D57"/>
<path d="M253.739 43.3194L253.63 44.9924L242.562 44.7637L242.889 43.3194H253.739Z" fill="#CCCCCC"/>
<path d="M253.582 45.7195L253.472 47.3968L242.02 47.1596L242.346 45.7195H253.582Z" fill="#CCCCCC"/>
<path d="M249.327 19.4591C248.153 19.4592 247.026 19.9161 246.183 20.733C245.34 21.55 244.849 22.6628 244.812 23.8358H243.962C243.887 23.8358 243.815 23.8656 243.762 23.9185C243.709 23.9715 243.679 24.0433 243.679 24.1182V25.2477C243.679 25.3226 243.709 25.3944 243.762 25.4473C243.815 25.5003 243.887 25.53 243.962 25.53H253.562C253.637 25.53 253.709 25.5003 253.762 25.4473C253.815 25.3944 253.845 25.3226 253.845 25.2477V23.977C253.845 23.3837 253.728 22.7962 253.501 22.2481C253.274 21.6999 252.941 21.2019 252.521 20.7823C252.102 20.3628 251.604 20.03 251.056 19.803C250.507 19.5759 249.92 19.4591 249.327 19.4591Z" fill="#FAB133"/>
<path d="M178.764 64.4345C177.871 64.7486 176.911 64.8272 175.978 64.6629C175.046 64.4986 174.171 64.0968 173.439 63.4963C171.573 61.9307 170.988 59.3513 170.512 56.963L169.105 49.8987L172.052 51.9277C174.171 53.3869 176.338 54.8928 177.805 57.0063C179.272 59.1198 179.913 62.005 178.734 64.2919" fill="#E6E6E6"/>
<path d="M178.512 72.9873C178.811 70.8148 179.117 68.6145 178.908 66.4187C178.722 64.4686 178.127 62.5639 176.916 61.0022C176.273 60.1748 175.491 59.4659 174.604 58.9074C174.373 58.7615 174.16 59.1278 174.391 59.2731C175.924 60.2426 177.111 61.6741 177.779 63.3613C178.517 65.2376 178.635 67.2829 178.508 69.2761C178.431 70.4814 178.268 71.6788 178.104 72.8747C178.091 72.9288 178.099 72.9858 178.126 73.0341C178.154 73.0825 178.199 73.1186 178.252 73.1352C178.306 73.1498 178.364 73.1425 178.412 73.1148C178.461 73.0871 178.497 73.0413 178.512 72.9873Z" fill="#F2F2F2"/>
<path d="M175.64 69.143C175.256 69.7255 174.73 70.1994 174.11 70.5192C173.49 70.839 172.799 70.9938 172.102 70.9688C170.312 70.8838 168.819 69.634 167.475 68.4475L163.5 64.938L166.131 64.8121C168.023 64.7216 169.963 64.6371 171.765 65.2205C173.567 65.8039 175.229 67.208 175.558 69.0731" fill="#E6E6E6"/>
<path d="M179.355 74.2361C177.92 71.696 176.254 68.873 173.279 67.9707C172.452 67.7207 171.584 67.6311 170.724 67.7069C170.452 67.7303 170.52 68.1485 170.791 68.1252C172.234 68.0053 173.674 68.3864 174.869 69.2041C176.019 69.9869 176.914 71.0751 177.672 72.2291C178.136 72.9359 178.552 73.6728 178.968 74.4086C179.101 74.6438 179.49 74.474 179.355 74.2361Z" fill="#F2F2F2"/>
<path d="M268.359 74.8037H167.835C167.798 74.8037 167.762 74.7888 167.735 74.7623C167.709 74.7359 167.694 74.7 167.694 74.6625C167.694 74.6251 167.709 74.5892 167.735 74.5627C167.762 74.5362 167.798 74.5213 167.835 74.5213H268.359C268.396 74.5213 268.432 74.5362 268.459 74.5627C268.485 74.5892 268.5 74.6251 268.5 74.6625C268.5 74.7 268.485 74.7359 268.459 74.7623C268.432 74.7888 268.396 74.8037 268.359 74.8037Z" fill="#CCCCCC"/>
</g>
<path d="M186.914 94.8186H184.362V101.804H183.3V94.8186H180.743V93.9221H186.914V94.8186ZM188.74 96.9746C188.978 96.7216 189.242 96.52 189.532 96.3696C189.822 96.2193 190.155 96.1441 190.533 96.1441C190.837 96.1441 191.105 96.1955 191.336 96.2981C191.571 96.3971 191.765 96.5401 191.919 96.7271C192.077 96.9105 192.196 97.1323 192.276 97.3926C192.357 97.653 192.397 97.9408 192.397 98.2561V101.804H191.413V98.2561C191.413 97.8345 191.316 97.5081 191.121 97.2771C190.931 97.0425 190.639 96.9251 190.247 96.9251C189.957 96.9251 189.686 96.9948 189.433 97.1341C189.184 97.2735 188.953 97.4623 188.74 97.7006V101.804H187.755V93.7021H188.74V96.9746ZM196.909 99.2956C196.458 99.3103 196.073 99.347 195.754 99.4056C195.438 99.4606 195.18 99.534 194.978 99.6256C194.78 99.7173 194.635 99.8255 194.544 99.9501C194.456 100.075 194.412 100.214 194.412 100.368C194.412 100.515 194.436 100.641 194.483 100.748C194.531 100.854 194.595 100.942 194.676 101.012C194.76 101.078 194.857 101.127 194.967 101.16C195.081 101.189 195.202 101.204 195.33 101.204C195.503 101.204 195.66 101.188 195.803 101.155C195.946 101.118 196.08 101.067 196.205 101.001C196.333 100.935 196.454 100.856 196.568 100.764C196.685 100.672 196.799 100.568 196.909 100.451V99.2956ZM193.746 97.0186C194.054 96.7216 194.386 96.4998 194.742 96.3531C195.097 96.2065 195.492 96.1331 195.924 96.1331C196.236 96.1331 196.513 96.1845 196.755 96.2871C196.997 96.3898 197.2 96.5328 197.365 96.7161C197.53 96.8995 197.655 97.1213 197.739 97.3816C197.824 97.642 197.866 97.928 197.866 98.2396V101.804H197.431C197.336 101.804 197.263 101.789 197.211 101.76C197.16 101.727 197.12 101.664 197.09 101.573L196.98 101.045C196.834 101.18 196.691 101.301 196.551 101.408C196.412 101.51 196.265 101.598 196.111 101.672C195.957 101.741 195.792 101.794 195.616 101.831C195.444 101.871 195.251 101.892 195.039 101.892C194.822 101.892 194.619 101.862 194.428 101.804C194.238 101.741 194.071 101.65 193.928 101.529C193.788 101.408 193.677 101.255 193.592 101.072C193.512 100.885 193.471 100.665 193.471 100.412C193.471 100.192 193.532 99.9813 193.653 99.7796C193.774 99.5743 193.97 99.3928 194.241 99.2351C194.513 99.0775 194.866 98.9491 195.303 98.8501C195.739 98.7475 196.274 98.6888 196.909 98.6741V98.2396C196.909 97.807 196.815 97.4806 196.628 97.2606C196.441 97.037 196.168 96.9251 195.809 96.9251C195.567 96.9251 195.363 96.9563 195.198 97.0186C195.037 97.0773 194.896 97.1451 194.775 97.2221C194.657 97.2955 194.555 97.3633 194.467 97.4256C194.382 97.4843 194.298 97.5136 194.214 97.5136C194.148 97.5136 194.091 97.4971 194.043 97.4641C193.996 97.4275 193.955 97.3835 193.922 97.3321L193.746 97.0186ZM200.992 101.892C200.552 101.892 200.213 101.769 199.975 101.523C199.74 101.277 199.623 100.924 199.623 100.462V97.0516H198.952C198.893 97.0516 198.844 97.0351 198.803 97.0021C198.763 96.9655 198.743 96.9105 198.743 96.8371V96.4466L199.656 96.3311L199.881 94.6096C199.892 94.5546 199.916 94.5106 199.953 94.4776C199.993 94.441 200.045 94.4226 200.107 94.4226H200.602V96.3421H202.213V97.0516H200.602V100.396C200.602 100.63 200.659 100.804 200.772 100.918C200.886 101.032 201.033 101.089 201.212 101.089C201.315 101.089 201.403 101.076 201.476 101.05C201.553 101.021 201.619 100.99 201.674 100.957C201.729 100.924 201.775 100.894 201.812 100.869C201.852 100.839 201.887 100.825 201.916 100.825C201.968 100.825 202.014 100.856 202.054 100.918L202.34 101.386C202.171 101.543 201.968 101.668 201.729 101.76C201.491 101.848 201.245 101.892 200.992 101.892ZM203.901 93.3941C204.055 93.6545 204.159 93.9295 204.214 94.2191C204.269 94.5088 204.275 94.7948 204.231 95.0771C204.187 95.3595 204.095 95.6308 203.956 95.8911C203.816 96.1515 203.631 96.3825 203.4 96.5841L203.103 96.3916C203.048 96.3586 203.023 96.3165 203.026 96.2651C203.034 96.2101 203.052 96.1661 203.081 96.1331C203.177 96.0158 203.257 95.8746 203.323 95.7096C203.393 95.541 203.437 95.3613 203.455 95.1706C203.477 94.9763 203.468 94.7765 203.428 94.5711C203.391 94.3658 203.316 94.1678 203.202 93.9771C203.155 93.9001 203.14 93.8323 203.158 93.7736C203.18 93.7113 203.226 93.6655 203.296 93.6361L203.901 93.3941ZM208.575 97.1506C208.531 97.2313 208.463 97.2716 208.371 97.2716C208.316 97.2716 208.254 97.2515 208.184 97.2111C208.115 97.1708 208.028 97.1268 207.926 97.0791C207.827 97.0278 207.708 96.982 207.568 96.9416C207.429 96.8976 207.264 96.8756 207.073 96.8756C206.908 96.8756 206.76 96.8976 206.628 96.9416C206.496 96.982 206.382 97.0388 206.287 97.1121C206.195 97.1855 206.124 97.2716 206.072 97.3706C206.025 97.466 206.001 97.5705 206.001 97.6841C206.001 97.8271 206.041 97.9463 206.122 98.0416C206.206 98.137 206.316 98.2195 206.452 98.2891C206.587 98.3588 206.741 98.4211 206.914 98.4761C207.086 98.5275 207.262 98.5843 207.442 98.6466C207.625 98.7053 207.803 98.7713 207.975 98.8446C208.148 98.918 208.302 99.0096 208.437 99.1196C208.573 99.2296 208.681 99.3653 208.762 99.5266C208.846 99.6843 208.888 99.875 208.888 100.099C208.888 100.355 208.842 100.594 208.751 100.814C208.659 101.03 208.523 101.219 208.344 101.38C208.164 101.538 207.944 101.662 207.684 101.754C207.423 101.846 207.123 101.892 206.782 101.892C206.393 101.892 206.041 101.829 205.726 101.705C205.41 101.576 205.143 101.413 204.923 101.215L205.154 100.841C205.183 100.793 205.218 100.757 205.258 100.731C205.299 100.705 205.35 100.693 205.412 100.693C205.478 100.693 205.548 100.718 205.621 100.77C205.695 100.821 205.783 100.878 205.885 100.94C205.992 101.002 206.12 101.059 206.27 101.111C206.421 101.162 206.608 101.188 206.831 101.188C207.022 101.188 207.189 101.164 207.332 101.116C207.475 101.065 207.594 100.997 207.689 100.913C207.785 100.828 207.854 100.731 207.898 100.621C207.946 100.511 207.97 100.394 207.97 100.269C207.97 100.115 207.928 99.9886 207.843 99.8896C207.763 99.787 207.654 99.7008 207.519 99.6311C207.383 99.5578 207.227 99.4955 207.051 99.4441C206.879 99.3891 206.701 99.3323 206.518 99.2736C206.338 99.215 206.16 99.149 205.984 99.0756C205.812 98.9986 205.658 98.9033 205.522 98.7896C205.387 98.676 205.277 98.5366 205.192 98.3716C205.112 98.203 205.071 97.9995 205.071 97.7611C205.071 97.5485 205.115 97.345 205.203 97.1506C205.291 96.9526 205.42 96.7803 205.588 96.6336C205.757 96.4833 205.964 96.3641 206.21 96.2761C206.455 96.1881 206.736 96.1441 207.051 96.1441C207.418 96.1441 207.746 96.2028 208.036 96.3201C208.329 96.4338 208.582 96.5915 208.795 96.7931L208.575 97.1506ZM215.922 99.2956C215.471 99.3103 215.086 99.347 214.767 99.4056C214.452 99.4606 214.194 99.534 213.992 99.6256C213.794 99.7173 213.649 99.8255 213.557 99.9501C213.469 100.075 213.425 100.214 213.425 100.368C213.425 100.515 213.449 100.641 213.497 100.748C213.545 100.854 213.609 100.942 213.689 101.012C213.774 101.078 213.871 101.127 213.981 101.16C214.095 101.189 214.216 101.204 214.344 101.204C214.516 101.204 214.674 101.188 214.817 101.155C214.96 101.118 215.094 101.067 215.218 101.001C215.347 100.935 215.468 100.856 215.581 100.764C215.699 100.672 215.812 100.568 215.922 100.451V99.2956ZM212.76 97.0186C213.068 96.7216 213.4 96.4998 213.755 96.3531C214.111 96.2065 214.505 96.1331 214.938 96.1331C215.25 96.1331 215.526 96.1845 215.768 96.2871C216.01 96.3898 216.214 96.5328 216.379 96.7161C216.544 96.8995 216.669 97.1213 216.753 97.3816C216.837 97.642 216.879 97.928 216.879 98.2396V101.804H216.445C216.35 101.804 216.276 101.789 216.225 101.76C216.174 101.727 216.133 101.664 216.104 101.573L215.994 101.045C215.847 101.18 215.704 101.301 215.565 101.408C215.426 101.51 215.279 101.598 215.125 101.672C214.971 101.741 214.806 101.794 214.63 101.831C214.458 101.871 214.265 101.892 214.052 101.892C213.836 101.892 213.633 101.862 213.442 101.804C213.251 101.741 213.084 101.65 212.941 101.529C212.802 101.408 212.69 101.255 212.606 101.072C212.525 100.885 212.485 100.665 212.485 100.412C212.485 100.192 212.545 99.9813 212.666 99.7796C212.787 99.5743 212.984 99.3928 213.255 99.2351C213.526 99.0775 213.88 98.9491 214.316 98.8501C214.753 98.7475 215.288 98.6888 215.922 98.6741V98.2396C215.922 97.807 215.829 97.4806 215.642 97.2606C215.455 97.037 215.182 96.9251 214.822 96.9251C214.58 96.9251 214.377 96.9563 214.212 97.0186C214.051 97.0773 213.909 97.1451 213.788 97.2221C213.671 97.2955 213.568 97.3633 213.48 97.4256C213.396 97.4843 213.312 97.5136 213.227 97.5136C213.161 97.5136 213.105 97.4971 213.057 97.4641C213.009 97.4275 212.969 97.3835 212.936 97.3321L212.76 97.0186ZM219.383 93.7021V101.804H218.404V93.7021H219.383ZM221.982 93.7021V101.804H221.003V93.7021H221.982ZM226.747 101.804V97.0681L226.131 96.9966C226.054 96.9783 225.99 96.9508 225.939 96.9141C225.891 96.8738 225.867 96.817 225.867 96.7436V96.3421H226.747V95.8031C226.747 95.4841 226.791 95.2018 226.879 94.9561C226.971 94.7068 227.099 94.4978 227.264 94.3291C227.433 94.1568 227.635 94.0266 227.869 93.9386C228.104 93.8506 228.368 93.8066 228.661 93.8066C228.911 93.8066 229.14 93.8433 229.349 93.9166L229.327 94.4061C229.32 94.4941 229.27 94.5418 229.178 94.5491C229.09 94.5565 228.971 94.5601 228.821 94.5601C228.652 94.5601 228.498 94.5821 228.359 94.6261C228.223 94.6701 228.106 94.7416 228.007 94.8406C227.908 94.9396 227.831 95.0698 227.776 95.2311C227.725 95.3925 227.699 95.5923 227.699 95.8306V96.3421H229.305V97.0516H227.732V101.804H226.747ZM232.407 96.1441C232.814 96.1441 233.18 96.212 233.507 96.3476C233.833 96.4833 234.112 96.6758 234.343 96.9251C234.574 97.1745 234.75 97.477 234.871 97.8326C234.995 98.1846 235.058 98.5788 235.058 99.0151C235.058 99.4551 234.995 99.8511 234.871 100.203C234.75 100.555 234.574 100.856 234.343 101.105C234.112 101.354 233.833 101.547 233.507 101.683C233.18 101.815 232.814 101.881 232.407 101.881C231.996 101.881 231.626 101.815 231.296 101.683C230.969 101.547 230.691 101.354 230.46 101.105C230.229 100.856 230.051 100.555 229.926 100.203C229.805 99.8511 229.745 99.4551 229.745 99.0151C229.745 98.5788 229.805 98.1846 229.926 97.8326C230.051 97.477 230.229 97.1745 230.46 96.9251C230.691 96.6758 230.969 96.4833 231.296 96.3476C231.626 96.212 231.996 96.1441 232.407 96.1441ZM232.407 101.116C232.957 101.116 233.367 100.933 233.639 100.566C233.91 100.196 234.046 99.6806 234.046 99.0206C234.046 98.357 233.91 97.84 233.639 97.4696C233.367 97.0993 232.957 96.9141 232.407 96.9141C232.128 96.9141 231.884 96.9618 231.675 97.0571C231.47 97.1525 231.298 97.29 231.158 97.4696C231.023 97.6493 230.92 97.8711 230.85 98.1351C230.784 98.3955 230.751 98.6906 230.751 99.0206C230.751 99.6806 230.887 100.196 231.158 100.566C231.433 100.933 231.849 101.116 232.407 101.116ZM237.311 93.7021V101.804H236.332V93.7021H237.311ZM239.884 93.7021V98.4706H240.137C240.21 98.4706 240.27 98.4615 240.318 98.4431C240.369 98.4211 240.423 98.379 240.478 98.3166L242.238 96.4301C242.289 96.3678 242.342 96.3201 242.397 96.2871C242.456 96.2505 242.533 96.2321 242.628 96.2321H243.514L241.462 98.4156C241.363 98.5403 241.257 98.6375 241.143 98.7071C241.209 98.7511 241.268 98.8025 241.319 98.8611C241.374 98.9161 241.425 98.9803 241.473 99.0536L243.651 101.804H242.777C242.692 101.804 242.619 101.791 242.557 101.765C242.498 101.736 242.447 101.684 242.403 101.611L240.571 99.3286C240.516 99.2516 240.461 99.2021 240.406 99.1801C240.355 99.1545 240.274 99.1416 240.164 99.1416H239.884V101.804H238.899V93.7021H239.884ZM247.73 97.1506C247.686 97.2313 247.618 97.2716 247.526 97.2716C247.471 97.2716 247.409 97.2515 247.339 97.2111C247.27 97.1708 247.184 97.1268 247.081 97.0791C246.982 97.0278 246.863 96.982 246.723 96.9416C246.584 96.8976 246.419 96.8756 246.228 96.8756C246.063 96.8756 245.915 96.8976 245.783 96.9416C245.651 96.982 245.537 97.0388 245.442 97.1121C245.35 97.1855 245.279 97.2716 245.227 97.3706C245.18 97.466 245.156 97.5705 245.156 97.6841C245.156 97.8271 245.196 97.9463 245.277 98.0416C245.361 98.137 245.471 98.2195 245.607 98.2891C245.743 98.3588 245.897 98.4211 246.069 98.4761C246.241 98.5275 246.417 98.5843 246.597 98.6466C246.78 98.7053 246.958 98.7713 247.13 98.8446C247.303 98.918 247.457 99.0096 247.592 99.1196C247.728 99.2296 247.836 99.3653 247.917 99.5266C248.001 99.6843 248.043 99.875 248.043 100.099C248.043 100.355 247.998 100.594 247.906 100.814C247.814 101.03 247.679 101.219 247.499 101.38C247.319 101.538 247.099 101.662 246.839 101.754C246.579 101.846 246.278 101.892 245.937 101.892C245.548 101.892 245.196 101.829 244.881 101.705C244.566 101.576 244.298 101.413 244.078 101.215L244.309 100.841C244.338 100.793 244.373 100.757 244.413 100.731C244.454 100.705 244.505 100.693 244.567 100.693C244.633 100.693 244.703 100.718 244.776 100.77C244.85 100.821 244.938 100.878 245.04 100.94C245.147 101.002 245.275 101.059 245.425 101.111C245.576 101.162 245.763 101.188 245.986 101.188C246.177 101.188 246.344 101.164 246.487 101.116C246.63 101.065 246.749 100.997 246.844 100.913C246.94 100.828 247.009 100.731 247.053 100.621C247.101 100.511 247.125 100.394 247.125 100.269C247.125 100.115 247.083 99.9886 246.998 99.8896C246.918 99.787 246.81 99.7008 246.674 99.6311C246.538 99.5578 246.382 99.4955 246.206 99.4441C246.034 99.3891 245.856 99.3323 245.673 99.2736C245.493 99.215 245.315 99.149 245.139 99.0756C244.967 98.9986 244.813 98.9033 244.677 98.7896C244.542 98.676 244.432 98.5366 244.347 98.3716C244.267 98.203 244.226 97.9995 244.226 97.7611C244.226 97.5485 244.27 97.345 244.358 97.1506C244.446 96.9526 244.575 96.7803 244.743 96.6336C244.912 96.4833 245.119 96.3641 245.365 96.2761C245.611 96.1881 245.891 96.1441 246.206 96.1441C246.573 96.1441 246.901 96.2028 247.191 96.3201C247.484 96.4338 247.737 96.5915 247.95 96.7931L247.73 97.1506ZM250.421 93.9221V97.0681C250.421 97.2331 250.417 97.3945 250.41 97.5521C250.402 97.7098 250.393 97.8693 250.382 98.0306C250.371 98.1883 250.357 98.3515 250.338 98.5201C250.324 98.6851 250.305 98.863 250.283 99.0536H249.623C249.601 98.863 249.581 98.6851 249.563 98.5201C249.548 98.3515 249.535 98.1883 249.524 98.0306C249.513 97.8693 249.504 97.7098 249.497 97.5521C249.489 97.3945 249.486 97.2331 249.486 97.0681V93.9221H250.421ZM249.249 101.199C249.249 101.103 249.266 101.013 249.299 100.929C249.335 100.845 249.385 100.771 249.447 100.709C249.51 100.647 249.581 100.597 249.662 100.561C249.746 100.524 249.838 100.506 249.937 100.506C250.032 100.506 250.12 100.524 250.201 100.561C250.285 100.597 250.358 100.647 250.421 100.709C250.483 100.771 250.533 100.845 250.569 100.929C250.606 101.013 250.624 101.103 250.624 101.199C250.624 101.298 250.606 101.389 250.569 101.474C250.533 101.554 250.483 101.626 250.421 101.688C250.358 101.75 250.285 101.798 250.201 101.831C250.12 101.868 250.032 101.886 249.937 101.886C249.838 101.886 249.746 101.868 249.662 101.831C249.581 101.798 249.51 101.75 249.447 101.688C249.385 101.626 249.335 101.554 249.299 101.474C249.266 101.389 249.249 101.298 249.249 101.199Z" fill="#60728E"/>
<defs>
<clipPath id="clip0_217_8299">
<rect width="105" height="58.8037" fill="white" transform="translate(163.5 16)"/>
</clipPath>
</defs>
</svg>
