<svg width="676" height="486" viewBox="0 0 676 486" fill="none" xmlns="http://www.w3.org/2000/svg">
<path fill-rule="evenodd" clip-rule="evenodd" d="M339.527 76.6271C389.597 81.3417 481.197 19.1885 531 24.9999C600.891 33.1555 643.882 72.0607 670.608 115.261C696.957 157.85 602.704 174.985 582.5 219C561.608 264.514 600.729 342.483 550.576 376.752C498.366 412.427 410.705 499.708 339.527 483.5C268.398 467.303 272.299 330.768 213.398 299.971C159.199 271.633 62.4062 291.027 23.4803 253.387C-15.7818 215.422 0.54743 161.737 26.325 119.077C51.1565 77.9834 73.5847 9.93388 139.5 1C204.628 -7.82714 273.7 70.4289 339.527 76.6271Z" fill="#E7EAEE"/>
<path d="M251.323 18.928C251.398 18.928 251.463 18.9583 251.519 19.019L252.058 19.6C251.647 20.076 251.148 20.447 250.56 20.713C249.977 20.979 249.27 21.112 248.439 21.112C247.72 21.112 247.067 20.9883 246.479 20.741C245.891 20.489 245.389 20.139 244.974 19.691C244.559 19.2383 244.237 18.697 244.008 18.067C243.779 17.437 243.665 16.744 243.665 15.988C243.665 15.232 243.784 14.539 244.022 13.909C244.26 13.279 244.594 12.7377 245.023 12.285C245.457 11.8323 245.975 11.4823 246.577 11.235C247.179 10.983 247.844 10.857 248.572 10.857C249.286 10.857 249.916 10.9713 250.462 11.2C251.008 11.4287 251.489 11.739 251.904 12.131L251.456 12.754C251.428 12.8007 251.391 12.8403 251.344 12.873C251.302 12.901 251.244 12.915 251.169 12.915C251.085 12.915 250.982 12.8707 250.861 12.782C250.74 12.6887 250.581 12.586 250.385 12.474C250.189 12.362 249.944 12.2617 249.65 12.173C249.356 12.0797 248.994 12.033 248.565 12.033C248.047 12.033 247.573 12.124 247.144 12.306C246.715 12.4833 246.344 12.7423 246.031 13.083C245.723 13.4237 245.483 13.839 245.31 14.329C245.137 14.819 245.051 15.372 245.051 15.988C245.051 16.6133 245.14 17.171 245.317 17.661C245.499 18.151 245.744 18.5663 246.052 18.907C246.365 19.243 246.731 19.4997 247.151 19.677C247.576 19.8543 248.033 19.943 248.523 19.943C248.822 19.943 249.09 19.9267 249.328 19.894C249.571 19.8567 249.792 19.8007 249.993 19.726C250.198 19.6513 250.387 19.558 250.56 19.446C250.737 19.3293 250.912 19.1917 251.085 19.033C251.164 18.963 251.244 18.928 251.323 18.928ZM254.481 15.33C254.705 14.8447 254.98 14.4667 255.307 14.196C255.633 13.9207 256.032 13.783 256.504 13.783C256.653 13.783 256.795 13.7993 256.931 13.832C257.071 13.8647 257.194 13.916 257.302 13.986L257.211 14.917C257.183 15.0337 257.113 15.092 257.001 15.092C256.935 15.092 256.84 15.078 256.714 15.05C256.588 15.022 256.445 15.008 256.287 15.008C256.063 15.008 255.862 15.0407 255.685 15.106C255.512 15.1713 255.356 15.2693 255.216 15.4C255.08 15.526 254.957 15.6847 254.845 15.876C254.737 16.0627 254.639 16.2773 254.551 16.52V21H253.298V13.909H254.012C254.147 13.909 254.24 13.9347 254.292 13.986C254.343 14.0373 254.378 14.126 254.397 14.252L254.481 15.33ZM262.856 16.681C262.856 16.3917 262.814 16.128 262.73 15.89C262.651 15.6473 262.532 15.4397 262.373 15.267C262.219 15.0897 262.03 14.9543 261.806 14.861C261.582 14.763 261.328 14.714 261.043 14.714C260.446 14.714 259.972 14.889 259.622 15.239C259.277 15.5843 259.062 16.065 258.978 16.681H262.856ZM263.864 20.006C263.71 20.1927 263.526 20.356 263.311 20.496C263.096 20.6313 262.865 20.7433 262.618 20.832C262.375 20.9207 262.123 20.986 261.862 21.028C261.601 21.0747 261.342 21.098 261.085 21.098C260.595 21.098 260.142 21.0163 259.727 20.853C259.316 20.685 258.959 20.4423 258.656 20.125C258.357 19.803 258.124 19.4063 257.956 18.935C257.788 18.4637 257.704 17.9223 257.704 17.311C257.704 16.8163 257.779 16.3543 257.928 15.925C258.082 15.4957 258.301 15.1247 258.586 14.812C258.871 14.4947 259.218 14.2473 259.629 14.07C260.04 13.888 260.502 13.797 261.015 13.797C261.44 13.797 261.832 13.8693 262.191 14.014C262.555 14.154 262.868 14.3593 263.129 14.63C263.395 14.896 263.603 15.2273 263.752 15.624C263.901 16.016 263.976 16.464 263.976 16.968C263.976 17.164 263.955 17.2947 263.913 17.36C263.871 17.4253 263.792 17.458 263.675 17.458H258.936C258.95 17.906 259.011 18.2957 259.118 18.627C259.23 18.9583 259.384 19.236 259.58 19.46C259.776 19.6793 260.009 19.845 260.28 19.957C260.551 20.0643 260.854 20.118 261.19 20.118C261.503 20.118 261.771 20.083 261.995 20.013C262.224 19.9383 262.42 19.859 262.583 19.775C262.746 19.691 262.882 19.614 262.989 19.544C263.101 19.4693 263.197 19.432 263.276 19.432C263.379 19.432 263.458 19.4717 263.514 19.551L263.864 20.006ZM269.35 17.808C268.776 17.8267 268.286 17.8733 267.88 17.948C267.478 18.018 267.149 18.1113 266.893 18.228C266.641 18.3447 266.456 18.4823 266.34 18.641C266.228 18.7997 266.172 18.977 266.172 19.173C266.172 19.3597 266.202 19.5207 266.263 19.656C266.323 19.7913 266.405 19.9033 266.508 19.992C266.615 20.076 266.739 20.139 266.879 20.181C267.023 20.2183 267.177 20.237 267.341 20.237C267.56 20.237 267.761 20.216 267.943 20.174C268.125 20.1273 268.295 20.062 268.454 19.978C268.617 19.894 268.771 19.7937 268.916 19.677C269.065 19.5603 269.21 19.4273 269.35 19.278V17.808ZM265.325 14.91C265.717 14.532 266.139 14.2497 266.592 14.063C267.044 13.8763 267.546 13.783 268.097 13.783C268.493 13.783 268.846 13.8483 269.154 13.979C269.462 14.1097 269.721 14.2917 269.931 14.525C270.141 14.7583 270.299 15.0407 270.407 15.372C270.514 15.7033 270.568 16.0673 270.568 16.464V21H270.015C269.893 21 269.8 20.9813 269.735 20.944C269.669 20.902 269.618 20.8227 269.581 20.706L269.441 20.034C269.254 20.2067 269.072 20.3607 268.895 20.496C268.717 20.6267 268.531 20.7387 268.335 20.832C268.139 20.9207 267.929 20.9883 267.705 21.035C267.485 21.0863 267.24 21.112 266.97 21.112C266.694 21.112 266.435 21.0747 266.193 21C265.95 20.9207 265.738 20.804 265.556 20.65C265.378 20.496 265.236 20.3023 265.129 20.069C265.026 19.831 264.975 19.551 264.975 19.229C264.975 18.949 265.052 18.6807 265.206 18.424C265.36 18.1627 265.609 17.9317 265.955 17.731C266.3 17.5303 266.75 17.367 267.306 17.241C267.861 17.1103 268.542 17.0357 269.35 17.017V16.464C269.35 15.9133 269.231 15.498 268.993 15.218C268.755 14.9333 268.407 14.791 267.95 14.791C267.642 14.791 267.383 14.8307 267.173 14.91C266.967 14.9847 266.788 15.071 266.634 15.169C266.484 15.2623 266.354 15.3487 266.242 15.428C266.134 15.5027 266.027 15.54 265.92 15.54C265.836 15.54 265.763 15.519 265.703 15.477C265.642 15.4303 265.591 15.3743 265.549 15.309L265.325 14.91ZM274.547 21.112C273.987 21.112 273.555 20.9557 273.252 20.643C272.953 20.3303 272.804 19.88 272.804 19.292V14.952H271.95C271.875 14.952 271.812 14.931 271.761 14.889C271.709 14.8423 271.684 14.7723 271.684 14.679V14.182L272.846 14.035L273.133 11.844C273.147 11.774 273.177 11.718 273.224 11.676C273.275 11.6293 273.34 11.606 273.42 11.606H274.05V14.049H276.101V14.952H274.05V19.208C274.05 19.5067 274.122 19.7283 274.267 19.873C274.411 20.0177 274.598 20.09 274.827 20.09C274.957 20.09 275.069 20.0737 275.163 20.041C275.261 20.0037 275.345 19.964 275.415 19.922C275.485 19.88 275.543 19.8427 275.59 19.81C275.641 19.7727 275.685 19.754 275.723 19.754C275.788 19.754 275.846 19.7937 275.898 19.873L276.262 20.468C276.047 20.6687 275.788 20.8273 275.485 20.944C275.181 21.056 274.869 21.112 274.547 21.112ZM282.092 16.681C282.092 16.3917 282.05 16.128 281.966 15.89C281.887 15.6473 281.768 15.4397 281.609 15.267C281.455 15.0897 281.266 14.9543 281.042 14.861C280.818 14.763 280.564 14.714 280.279 14.714C279.682 14.714 279.208 14.889 278.858 15.239C278.513 15.5843 278.298 16.065 278.214 16.681H282.092ZM283.1 20.006C282.946 20.1927 282.762 20.356 282.547 20.496C282.333 20.6313 282.102 20.7433 281.854 20.832C281.612 20.9207 281.36 20.986 281.098 21.028C280.837 21.0747 280.578 21.098 280.321 21.098C279.831 21.098 279.379 21.0163 278.963 20.853C278.553 20.685 278.196 20.4423 277.892 20.125C277.594 19.803 277.36 19.4063 277.192 18.935C277.024 18.4637 276.94 17.9223 276.94 17.311C276.94 16.8163 277.015 16.3543 277.164 15.925C277.318 15.4957 277.538 15.1247 277.822 14.812C278.107 14.4947 278.455 14.2473 278.865 14.07C279.276 13.888 279.738 13.797 280.251 13.797C280.676 13.797 281.068 13.8693 281.427 14.014C281.791 14.154 282.104 14.3593 282.365 14.63C282.631 14.896 282.839 15.2273 282.988 15.624C283.138 16.016 283.212 16.464 283.212 16.968C283.212 17.164 283.191 17.2947 283.149 17.36C283.107 17.4253 283.028 17.458 282.911 17.458H278.172C278.186 17.906 278.247 18.2957 278.354 18.627C278.466 18.9583 278.62 19.236 278.816 19.46C279.012 19.6793 279.246 19.845 279.516 19.957C279.787 20.0643 280.09 20.118 280.426 20.118C280.739 20.118 281.007 20.083 281.231 20.013C281.46 19.9383 281.656 19.859 281.819 19.775C281.983 19.691 282.118 19.614 282.225 19.544C282.337 19.4693 282.433 19.432 282.512 19.432C282.615 19.432 282.694 19.4717 282.75 19.551L283.1 20.006ZM292.168 17.808C291.594 17.8267 291.104 17.8733 290.698 17.948C290.297 18.018 289.968 18.1113 289.711 18.228C289.459 18.3447 289.275 18.4823 289.158 18.641C289.046 18.7997 288.99 18.977 288.99 19.173C288.99 19.3597 289.02 19.5207 289.081 19.656C289.142 19.7913 289.223 19.9033 289.326 19.992C289.433 20.076 289.557 20.139 289.697 20.181C289.842 20.2183 289.996 20.237 290.159 20.237C290.378 20.237 290.579 20.216 290.761 20.174C290.943 20.1273 291.113 20.062 291.272 19.978C291.435 19.894 291.589 19.7937 291.734 19.677C291.883 19.5603 292.028 19.4273 292.168 19.278V17.808ZM288.143 14.91C288.535 14.532 288.957 14.2497 289.41 14.063C289.863 13.8763 290.364 13.783 290.915 13.783C291.312 13.783 291.664 13.8483 291.972 13.979C292.28 14.1097 292.539 14.2917 292.749 14.525C292.959 14.7583 293.118 15.0407 293.225 15.372C293.332 15.7033 293.386 16.0673 293.386 16.464V21H292.833C292.712 21 292.618 20.9813 292.553 20.944C292.488 20.902 292.436 20.8227 292.399 20.706L292.259 20.034C292.072 20.2067 291.89 20.3607 291.713 20.496C291.536 20.6267 291.349 20.7387 291.153 20.832C290.957 20.9207 290.747 20.9883 290.523 21.035C290.304 21.0863 290.059 21.112 289.788 21.112C289.513 21.112 289.254 21.0747 289.011 21C288.768 20.9207 288.556 20.804 288.374 20.65C288.197 20.496 288.054 20.3023 287.947 20.069C287.844 19.831 287.793 19.551 287.793 19.229C287.793 18.949 287.87 18.6807 288.024 18.424C288.178 18.1627 288.428 17.9317 288.773 17.731C289.118 17.5303 289.569 17.367 290.124 17.241C290.679 17.1103 291.361 17.0357 292.168 17.017V16.464C292.168 15.9133 292.049 15.498 291.811 15.218C291.573 14.9333 291.225 14.791 290.768 14.791C290.46 14.791 290.201 14.8307 289.991 14.91C289.786 14.9847 289.606 15.071 289.452 15.169C289.303 15.2623 289.172 15.3487 289.06 15.428C288.953 15.5027 288.845 15.54 288.738 15.54C288.654 15.54 288.582 15.519 288.521 15.477C288.46 15.4303 288.409 15.3743 288.367 15.309L288.143 14.91ZM296.46 14.938C296.614 14.7653 296.777 14.609 296.95 14.469C297.123 14.329 297.305 14.21 297.496 14.112C297.692 14.0093 297.897 13.9323 298.112 13.881C298.331 13.825 298.567 13.797 298.819 13.797C299.206 13.797 299.547 13.8623 299.841 13.993C300.14 14.119 300.387 14.301 300.583 14.539C300.784 14.7723 300.935 15.0547 301.038 15.386C301.141 15.7173 301.192 16.0837 301.192 16.485V21H299.939V16.485C299.939 15.9483 299.815 15.533 299.568 15.239C299.325 14.9403 298.954 14.791 298.455 14.791C298.086 14.791 297.741 14.8797 297.419 15.057C297.102 15.2343 296.808 15.4747 296.537 15.778V21H295.284V13.909H296.033C296.21 13.909 296.32 13.9953 296.362 14.168L296.46 14.938ZM313.155 19.894L313.148 21H306.967V10.969H313.148V12.075H308.325V15.407H312.231V16.471H308.325V19.894H313.155ZM315.737 14.938C315.891 14.7653 316.055 14.609 316.227 14.469C316.4 14.329 316.582 14.21 316.773 14.112C316.969 14.0093 317.175 13.9323 317.389 13.881C317.609 13.825 317.844 13.797 318.096 13.797C318.484 13.797 318.824 13.8623 319.118 13.993C319.417 14.119 319.664 14.301 319.86 14.539C320.061 14.7723 320.213 15.0547 320.315 15.386C320.418 15.7173 320.469 16.0837 320.469 16.485V21H319.216V16.485C319.216 15.9483 319.093 15.533 318.845 15.239C318.603 14.9403 318.232 14.791 317.732 14.791C317.364 14.791 317.018 14.8797 316.696 15.057C316.379 15.2343 316.085 15.4747 315.814 15.778V21H314.561V13.909H315.31C315.488 13.909 315.597 13.9953 315.639 14.168L315.737 14.938ZM324.839 17.535C325.091 17.535 325.313 17.5 325.504 17.43C325.695 17.36 325.856 17.262 325.987 17.136C326.118 17.01 326.216 16.8607 326.281 16.688C326.346 16.5107 326.379 16.317 326.379 16.107C326.379 15.673 326.246 15.3277 325.98 15.071C325.719 14.8143 325.338 14.686 324.839 14.686C324.335 14.686 323.95 14.8143 323.684 15.071C323.423 15.3277 323.292 15.673 323.292 16.107C323.292 16.317 323.325 16.5107 323.39 16.688C323.46 16.8607 323.56 17.01 323.691 17.136C323.822 17.262 323.983 17.36 324.174 17.43C324.365 17.5 324.587 17.535 324.839 17.535ZM327.086 21.385C327.086 21.2123 327.037 21.0723 326.939 20.965C326.841 20.8577 326.708 20.7737 326.54 20.713C326.377 20.6523 326.185 20.6103 325.966 20.587C325.747 20.559 325.513 20.538 325.266 20.524C325.023 20.51 324.776 20.496 324.524 20.482C324.272 20.468 324.029 20.4447 323.796 20.412C323.535 20.5333 323.32 20.6873 323.152 20.874C322.989 21.056 322.907 21.2707 322.907 21.518C322.907 21.6767 322.947 21.8237 323.026 21.959C323.11 22.099 323.236 22.218 323.404 22.316C323.572 22.4187 323.782 22.498 324.034 22.554C324.291 22.6147 324.592 22.645 324.937 22.645C325.273 22.645 325.574 22.6147 325.84 22.554C326.106 22.4933 326.33 22.407 326.512 22.295C326.699 22.183 326.841 22.05 326.939 21.896C327.037 21.742 327.086 21.5717 327.086 21.385ZM328.353 14.189V14.651C328.353 14.805 328.255 14.903 328.059 14.945L327.254 15.05C327.413 15.358 327.492 15.6987 327.492 16.072C327.492 16.4173 327.424 16.7323 327.289 17.017C327.158 17.297 326.976 17.5373 326.743 17.738C326.51 17.9387 326.23 18.0927 325.903 18.2C325.576 18.3073 325.222 18.361 324.839 18.361C324.508 18.361 324.195 18.3213 323.901 18.242C323.752 18.3353 323.637 18.4357 323.558 18.543C323.479 18.6457 323.439 18.7507 323.439 18.858C323.439 19.026 323.507 19.1543 323.642 19.243C323.782 19.327 323.964 19.3877 324.188 19.425C324.412 19.4623 324.666 19.4857 324.951 19.495C325.24 19.5043 325.534 19.5207 325.833 19.544C326.136 19.5627 326.43 19.5977 326.715 19.649C327.004 19.7003 327.261 19.7843 327.485 19.901C327.709 20.0177 327.889 20.1787 328.024 20.384C328.164 20.5893 328.234 20.8553 328.234 21.182C328.234 21.4853 328.157 21.7793 328.003 22.064C327.854 22.3487 327.637 22.6007 327.352 22.82C327.067 23.044 326.717 23.2213 326.302 23.352C325.891 23.4873 325.427 23.555 324.909 23.555C324.391 23.555 323.938 23.5037 323.551 23.401C323.164 23.2983 322.842 23.1607 322.585 22.988C322.328 22.8153 322.135 22.6147 322.004 22.386C321.878 22.162 321.815 21.9263 321.815 21.679C321.815 21.329 321.925 21.0327 322.144 20.79C322.363 20.5473 322.664 20.3537 323.047 20.209C322.837 20.1157 322.669 19.992 322.543 19.838C322.422 19.6793 322.361 19.467 322.361 19.201C322.361 19.0983 322.38 18.9933 322.417 18.886C322.454 18.774 322.51 18.6643 322.585 18.557C322.664 18.445 322.76 18.34 322.872 18.242C322.984 18.144 323.115 18.0577 323.264 17.983C322.914 17.787 322.641 17.528 322.445 17.206C322.249 16.8793 322.151 16.5013 322.151 16.072C322.151 15.7267 322.216 15.414 322.347 15.134C322.482 14.8493 322.669 14.609 322.907 14.413C323.145 14.2123 323.427 14.0583 323.754 13.951C324.085 13.8437 324.447 13.79 324.839 13.79C325.147 13.79 325.434 13.825 325.7 13.895C325.966 13.9603 326.209 14.0583 326.428 14.189H328.353ZM330.957 13.909V21H329.711V13.909H330.957ZM331.223 11.683C331.223 11.8043 331.198 11.9187 331.146 12.026C331.1 12.1287 331.034 12.222 330.95 12.306C330.871 12.3853 330.775 12.4483 330.663 12.495C330.556 12.5417 330.442 12.565 330.32 12.565C330.199 12.565 330.085 12.5417 329.977 12.495C329.875 12.4483 329.784 12.3853 329.704 12.306C329.625 12.222 329.562 12.1287 329.515 12.026C329.469 11.9187 329.445 11.8043 329.445 11.683C329.445 11.5617 329.469 11.4473 329.515 11.34C329.562 11.228 329.625 11.1323 329.704 11.053C329.784 10.969 329.875 10.9037 329.977 10.857C330.085 10.8103 330.199 10.787 330.32 10.787C330.442 10.787 330.556 10.8103 330.663 10.857C330.775 10.9037 330.871 10.969 330.95 11.053C331.034 11.1323 331.1 11.228 331.146 11.34C331.198 11.4473 331.223 11.5617 331.223 11.683ZM334.181 14.938C334.335 14.7653 334.498 14.609 334.671 14.469C334.843 14.329 335.025 14.21 335.217 14.112C335.413 14.0093 335.618 13.9323 335.833 13.881C336.052 13.825 336.288 13.797 336.54 13.797C336.927 13.797 337.268 13.8623 337.562 13.993C337.86 14.119 338.108 14.301 338.304 14.539C338.504 14.7723 338.656 15.0547 338.759 15.386C338.861 15.7173 338.913 16.0837 338.913 16.485V21H337.66V16.485C337.66 15.9483 337.536 15.533 337.289 15.239C337.046 14.9403 336.675 14.791 336.176 14.791C335.807 14.791 335.462 14.8797 335.14 15.057C334.822 15.2343 334.528 15.4747 334.258 15.778V21H333.005V13.909H333.754C333.931 13.909 334.041 13.9953 334.083 14.168L334.181 14.938ZM345.557 16.681C345.557 16.3917 345.515 16.128 345.431 15.89C345.352 15.6473 345.233 15.4397 345.074 15.267C344.92 15.0897 344.731 14.9543 344.507 14.861C344.283 14.763 344.029 14.714 343.744 14.714C343.147 14.714 342.673 14.889 342.323 15.239C341.978 15.5843 341.763 16.065 341.679 16.681H345.557ZM346.565 20.006C346.411 20.1927 346.227 20.356 346.012 20.496C345.798 20.6313 345.567 20.7433 345.319 20.832C345.077 20.9207 344.825 20.986 344.563 21.028C344.302 21.0747 344.043 21.098 343.786 21.098C343.296 21.098 342.844 21.0163 342.428 20.853C342.018 20.685 341.661 20.4423 341.357 20.125C341.059 19.803 340.825 19.4063 340.657 18.935C340.489 18.4637 340.405 17.9223 340.405 17.311C340.405 16.8163 340.48 16.3543 340.629 15.925C340.783 15.4957 341.003 15.1247 341.287 14.812C341.572 14.4947 341.92 14.2473 342.33 14.07C342.741 13.888 343.203 13.797 343.716 13.797C344.141 13.797 344.533 13.8693 344.892 14.014C345.256 14.154 345.569 14.3593 345.83 14.63C346.096 14.896 346.304 15.2273 346.453 15.624C346.603 16.016 346.677 16.464 346.677 16.968C346.677 17.164 346.656 17.2947 346.614 17.36C346.572 17.4253 346.493 17.458 346.376 17.458H341.637C341.651 17.906 341.712 18.2957 341.819 18.627C341.931 18.9583 342.085 19.236 342.281 19.46C342.477 19.6793 342.711 19.845 342.981 19.957C343.252 20.0643 343.555 20.118 343.891 20.118C344.204 20.118 344.472 20.083 344.696 20.013C344.925 19.9383 345.121 19.859 345.284 19.775C345.448 19.691 345.583 19.614 345.69 19.544C345.802 19.4693 345.898 19.432 345.977 19.432C346.08 19.432 346.159 19.4717 346.215 19.551L346.565 20.006ZM352.954 16.681C352.954 16.3917 352.912 16.128 352.828 15.89C352.748 15.6473 352.629 15.4397 352.471 15.267C352.317 15.0897 352.128 14.9543 351.904 14.861C351.68 14.763 351.425 14.714 351.141 14.714C350.543 14.714 350.07 14.889 349.72 15.239C349.374 15.5843 349.16 16.065 349.076 16.681H352.954ZM353.962 20.006C353.808 20.1927 353.623 20.356 353.409 20.496C353.194 20.6313 352.963 20.7433 352.716 20.832C352.473 20.9207 352.221 20.986 351.96 21.028C351.698 21.0747 351.439 21.098 351.183 21.098C350.693 21.098 350.24 21.0163 349.825 20.853C349.414 20.685 349.057 20.4423 348.754 20.125C348.455 19.803 348.222 19.4063 348.054 18.935C347.886 18.4637 347.802 17.9223 347.802 17.311C347.802 16.8163 347.876 16.3543 348.026 15.925C348.18 15.4957 348.399 15.1247 348.684 14.812C348.968 14.4947 349.316 14.2473 349.727 14.07C350.137 13.888 350.599 13.797 351.113 13.797C351.537 13.797 351.929 13.8693 352.289 14.014C352.653 14.154 352.965 14.3593 353.227 14.63C353.493 14.896 353.7 15.2273 353.85 15.624C353.999 16.016 354.074 16.464 354.074 16.968C354.074 17.164 354.053 17.2947 354.011 17.36C353.969 17.4253 353.889 17.458 353.773 17.458H349.034C349.048 17.906 349.108 18.2957 349.216 18.627C349.328 18.9583 349.482 19.236 349.678 19.46C349.874 19.6793 350.107 19.845 350.378 19.957C350.648 20.0643 350.952 20.118 351.288 20.118C351.6 20.118 351.869 20.083 352.093 20.013C352.321 19.9383 352.517 19.859 352.681 19.775C352.844 19.691 352.979 19.614 353.087 19.544C353.199 19.4693 353.294 19.432 353.374 19.432C353.476 19.432 353.556 19.4717 353.612 19.551L353.962 20.006ZM356.787 15.33C357.011 14.8447 357.287 14.4667 357.613 14.196C357.94 13.9207 358.339 13.783 358.81 13.783C358.96 13.783 359.102 13.7993 359.237 13.832C359.377 13.8647 359.501 13.916 359.608 13.986L359.517 14.917C359.489 15.0337 359.419 15.092 359.307 15.092C359.242 15.092 359.146 15.078 359.02 15.05C358.894 15.022 358.752 15.008 358.593 15.008C358.369 15.008 358.169 15.0407 357.991 15.106C357.819 15.1713 357.662 15.2693 357.522 15.4C357.387 15.526 357.263 15.6847 357.151 15.876C357.044 16.0627 356.946 16.2773 356.857 16.52V21H355.604V13.909H356.318C356.454 13.909 356.547 13.9347 356.598 13.986C356.65 14.0373 356.685 14.126 356.703 14.252L356.787 15.33ZM377.087 10.969L373.958 21H372.74L370.199 13.349C370.175 13.2743 370.152 13.195 370.129 13.111C370.11 13.027 370.089 12.9383 370.066 12.845C370.042 12.9383 370.019 13.027 369.996 13.111C369.972 13.195 369.949 13.2743 369.926 13.349L367.371 21H366.153L363.024 10.969H364.151C364.272 10.969 364.372 10.9993 364.452 11.06C364.536 11.1207 364.589 11.1977 364.613 11.291L366.685 18.263C366.717 18.389 366.748 18.5243 366.776 18.669C366.808 18.8137 366.839 18.9677 366.867 19.131C366.899 18.9677 366.932 18.8137 366.965 18.669C367.002 18.5197 367.042 18.3843 367.084 18.263L369.443 11.291C369.471 11.2117 369.524 11.1393 369.604 11.074C369.688 11.004 369.788 10.969 369.905 10.969H370.297C370.418 10.969 370.516 10.9993 370.591 11.06C370.665 11.1207 370.721 11.1977 370.759 11.291L373.111 18.263C373.153 18.3843 373.19 18.515 373.223 18.655C373.26 18.795 373.295 18.942 373.328 19.096C373.351 18.942 373.377 18.795 373.405 18.655C373.433 18.515 373.463 18.3843 373.496 18.263L375.575 11.291C375.598 11.207 375.649 11.1323 375.729 11.067C375.813 11.0017 375.913 10.969 376.03 10.969H377.087ZM380.482 13.797C381 13.797 381.467 13.8833 381.882 14.056C382.297 14.2287 382.652 14.4737 382.946 14.791C383.24 15.1083 383.464 15.4933 383.618 15.946C383.777 16.394 383.856 16.8957 383.856 17.451C383.856 18.011 383.777 18.515 383.618 18.963C383.464 19.411 383.24 19.7937 382.946 20.111C382.652 20.4283 382.297 20.6733 381.882 20.846C381.467 21.014 381 21.098 380.482 21.098C379.959 21.098 379.488 21.014 379.068 20.846C378.653 20.6733 378.298 20.4283 378.004 20.111C377.71 19.7937 377.484 19.411 377.325 18.963C377.171 18.515 377.094 18.011 377.094 17.451C377.094 16.8957 377.171 16.394 377.325 15.946C377.484 15.4933 377.71 15.1083 378.004 14.791C378.298 14.4737 378.653 14.2287 379.068 14.056C379.488 13.8833 379.959 13.797 380.482 13.797ZM380.482 20.125C381.182 20.125 381.705 19.8917 382.05 19.425C382.395 18.9537 382.568 18.298 382.568 17.458C382.568 16.6133 382.395 15.9553 382.05 15.484C381.705 15.0127 381.182 14.777 380.482 14.777C380.127 14.777 379.817 14.8377 379.551 14.959C379.29 15.0803 379.07 15.2553 378.893 15.484C378.72 15.7127 378.59 15.995 378.501 16.331C378.417 16.6623 378.375 17.038 378.375 17.458C378.375 18.298 378.548 18.9537 378.893 19.425C379.243 19.8917 379.773 20.125 380.482 20.125ZM386.619 15.33C386.843 14.8447 387.119 14.4667 387.445 14.196C387.772 13.9207 388.171 13.783 388.642 13.783C388.792 13.783 388.934 13.7993 389.069 13.832C389.209 13.8647 389.333 13.916 389.44 13.986L389.349 14.917C389.321 15.0337 389.251 15.092 389.139 15.092C389.074 15.092 388.978 15.078 388.852 15.05C388.726 15.022 388.584 15.008 388.425 15.008C388.201 15.008 388.001 15.0407 387.823 15.106C387.651 15.1713 387.494 15.2693 387.354 15.4C387.219 15.526 387.095 15.6847 386.983 15.876C386.876 16.0627 386.778 16.2773 386.689 16.52V21H385.436V13.909H386.15C386.286 13.909 386.379 13.9347 386.43 13.986C386.482 14.0373 386.517 14.126 386.535 14.252L386.619 15.33ZM391.789 10.689V16.758H392.111C392.204 16.758 392.281 16.7463 392.342 16.723C392.407 16.695 392.475 16.6413 392.545 16.562L394.785 14.161C394.85 14.0817 394.918 14.021 394.988 13.979C395.062 13.9323 395.16 13.909 395.282 13.909H396.409L393.798 16.688C393.672 16.8467 393.536 16.9703 393.392 17.059C393.476 17.115 393.55 17.1803 393.616 17.255C393.686 17.325 393.751 17.4067 393.812 17.5L396.584 21H395.471C395.363 21 395.27 20.9837 395.191 20.951C395.116 20.9137 395.051 20.8483 394.995 20.755L392.664 17.85C392.594 17.752 392.524 17.689 392.454 17.661C392.388 17.6283 392.286 17.612 392.146 17.612H391.789V21H390.536V10.689H391.789ZM404.482 16.17C404.87 16.17 405.21 16.1187 405.504 16.016C405.803 15.9133 406.053 15.771 406.253 15.589C406.459 15.4023 406.613 15.1807 406.715 14.924C406.818 14.6673 406.869 14.385 406.869 14.077C406.869 13.4377 406.671 12.9383 406.274 12.579C405.882 12.2197 405.285 12.04 404.482 12.04H402.872V16.17H404.482ZM404.482 10.969C405.117 10.969 405.668 11.0437 406.134 11.193C406.606 11.3377 406.995 11.5453 407.303 11.816C407.611 12.0867 407.84 12.4133 407.989 12.796C408.143 13.1787 408.22 13.6057 408.22 14.077C408.22 14.5437 408.139 14.9707 407.975 15.358C407.812 15.7453 407.572 16.079 407.254 16.359C406.942 16.639 406.552 16.8583 406.085 17.017C405.623 17.171 405.089 17.248 404.482 17.248H402.872V21H401.521V10.969H404.482ZM413.26 17.808C412.686 17.8267 412.196 17.8733 411.79 17.948C411.388 18.018 411.059 18.1113 410.803 18.228C410.551 18.3447 410.366 18.4823 410.25 18.641C410.138 18.7997 410.082 18.977 410.082 19.173C410.082 19.3597 410.112 19.5207 410.173 19.656C410.233 19.7913 410.315 19.9033 410.418 19.992C410.525 20.076 410.649 20.139 410.789 20.181C410.933 20.2183 411.087 20.237 411.251 20.237C411.47 20.237 411.671 20.216 411.853 20.174C412.035 20.1273 412.205 20.062 412.364 19.978C412.527 19.894 412.681 19.7937 412.826 19.677C412.975 19.5603 413.12 19.4273 413.26 19.278V17.808ZM409.235 14.91C409.627 14.532 410.049 14.2497 410.502 14.063C410.954 13.8763 411.456 13.783 412.007 13.783C412.403 13.783 412.756 13.8483 413.064 13.979C413.372 14.1097 413.631 14.2917 413.841 14.525C414.051 14.7583 414.209 15.0407 414.317 15.372C414.424 15.7033 414.478 16.0673 414.478 16.464V21H413.925C413.803 21 413.71 20.9813 413.645 20.944C413.579 20.902 413.528 20.8227 413.491 20.706L413.351 20.034C413.164 20.2067 412.982 20.3607 412.805 20.496C412.627 20.6267 412.441 20.7387 412.245 20.832C412.049 20.9207 411.839 20.9883 411.615 21.035C411.395 21.0863 411.15 21.112 410.88 21.112C410.604 21.112 410.345 21.0747 410.103 21C409.86 20.9207 409.648 20.804 409.466 20.65C409.288 20.496 409.146 20.3023 409.039 20.069C408.936 19.831 408.885 19.551 408.885 19.229C408.885 18.949 408.962 18.6807 409.116 18.424C409.27 18.1627 409.519 17.9317 409.865 17.731C410.21 17.5303 410.66 17.367 411.216 17.241C411.771 17.1103 412.452 17.0357 413.26 17.017V16.464C413.26 15.9133 413.141 15.498 412.903 15.218C412.665 14.9333 412.317 14.791 411.86 14.791C411.552 14.791 411.293 14.8307 411.083 14.91C410.877 14.9847 410.698 15.071 410.544 15.169C410.394 15.2623 410.264 15.3487 410.152 15.428C410.044 15.5027 409.937 15.54 409.83 15.54C409.746 15.54 409.673 15.519 409.613 15.477C409.552 15.4303 409.501 15.3743 409.459 15.309L409.235 14.91ZM421.311 15.169C421.273 15.2203 421.236 15.26 421.199 15.288C421.161 15.316 421.11 15.33 421.045 15.33C420.975 15.33 420.898 15.302 420.814 15.246C420.73 15.1853 420.625 15.12 420.499 15.05C420.377 14.98 420.226 14.917 420.044 14.861C419.866 14.8003 419.647 14.77 419.386 14.77C419.036 14.77 418.728 14.833 418.462 14.959C418.196 15.0803 417.972 15.2577 417.79 15.491C417.612 15.7243 417.477 16.0067 417.384 16.338C417.295 16.6693 417.251 17.0403 417.251 17.451C417.251 17.8803 417.3 18.263 417.398 18.599C417.496 18.9303 417.633 19.2103 417.811 19.439C417.993 19.663 418.21 19.8357 418.462 19.957C418.718 20.0737 419.005 20.132 419.323 20.132C419.626 20.132 419.876 20.097 420.072 20.027C420.268 19.9523 420.429 19.8707 420.555 19.782C420.685 19.6933 420.793 19.614 420.877 19.544C420.965 19.4693 421.052 19.432 421.136 19.432C421.238 19.432 421.318 19.4717 421.374 19.551L421.724 20.006C421.57 20.1973 421.395 20.3607 421.199 20.496C421.003 20.6313 420.79 20.7457 420.562 20.839C420.338 20.9277 420.102 20.993 419.855 21.035C419.607 21.077 419.355 21.098 419.099 21.098C418.655 21.098 418.242 21.0163 417.86 20.853C417.482 20.6897 417.153 20.454 416.873 20.146C416.593 19.8333 416.373 19.4507 416.215 18.998C416.056 18.5453 415.977 18.0297 415.977 17.451C415.977 16.9237 416.049 16.436 416.194 15.988C416.343 15.54 416.558 15.155 416.838 14.833C417.122 14.5063 417.47 14.252 417.881 14.07C418.296 13.888 418.772 13.797 419.309 13.797C419.808 13.797 420.247 13.8787 420.625 14.042C421.007 14.2007 421.346 14.427 421.64 14.721L421.311 15.169ZM424.314 10.689V16.758H424.636C424.73 16.758 424.807 16.7463 424.867 16.723C424.933 16.695 425 16.6413 425.07 16.562L427.31 14.161C427.376 14.0817 427.443 14.021 427.513 13.979C427.588 13.9323 427.686 13.909 427.807 13.909H428.934L426.323 16.688C426.197 16.8467 426.062 16.9703 425.917 17.059C426.001 17.115 426.076 17.1803 426.141 17.255C426.211 17.325 426.277 17.4067 426.337 17.5L429.109 21H427.996C427.889 21 427.796 20.9837 427.716 20.951C427.642 20.9137 427.576 20.8483 427.52 20.755L425.189 17.85C425.119 17.752 425.049 17.689 424.979 17.661C424.914 17.6283 424.811 17.612 424.671 17.612H424.314V21H423.061V10.689H424.314ZM434.014 17.808C433.44 17.8267 432.95 17.8733 432.544 17.948C432.142 18.018 431.813 18.1113 431.557 18.228C431.305 18.3447 431.12 18.4823 431.004 18.641C430.892 18.7997 430.836 18.977 430.836 19.173C430.836 19.3597 430.866 19.5207 430.927 19.656C430.987 19.7913 431.069 19.9033 431.172 19.992C431.279 20.076 431.403 20.139 431.543 20.181C431.687 20.2183 431.841 20.237 432.005 20.237C432.224 20.237 432.425 20.216 432.607 20.174C432.789 20.1273 432.959 20.062 433.118 19.978C433.281 19.894 433.435 19.7937 433.58 19.677C433.729 19.5603 433.874 19.4273 434.014 19.278V17.808ZM429.989 14.91C430.381 14.532 430.803 14.2497 431.256 14.063C431.708 13.8763 432.21 13.783 432.761 13.783C433.157 13.783 433.51 13.8483 433.818 13.979C434.126 14.1097 434.385 14.2917 434.595 14.525C434.805 14.7583 434.963 15.0407 435.071 15.372C435.178 15.7033 435.232 16.0673 435.232 16.464V21H434.679C434.557 21 434.464 20.9813 434.399 20.944C434.333 20.902 434.282 20.8227 434.245 20.706L434.105 20.034C433.918 20.2067 433.736 20.3607 433.559 20.496C433.381 20.6267 433.195 20.7387 432.999 20.832C432.803 20.9207 432.593 20.9883 432.369 21.035C432.149 21.0863 431.904 21.112 431.634 21.112C431.358 21.112 431.099 21.0747 430.857 21C430.614 20.9207 430.402 20.804 430.22 20.65C430.042 20.496 429.9 20.3023 429.793 20.069C429.69 19.831 429.639 19.551 429.639 19.229C429.639 18.949 429.716 18.6807 429.87 18.424C430.024 18.1627 430.273 17.9317 430.619 17.731C430.964 17.5303 431.414 17.367 431.97 17.241C432.525 17.1103 433.206 17.0357 434.014 17.017V16.464C434.014 15.9133 433.895 15.498 433.657 15.218C433.419 14.9333 433.071 14.791 432.614 14.791C432.306 14.791 432.047 14.8307 431.837 14.91C431.631 14.9847 431.452 15.071 431.298 15.169C431.148 15.2623 431.018 15.3487 430.906 15.428C430.798 15.5027 430.691 15.54 430.584 15.54C430.5 15.54 430.427 15.519 430.367 15.477C430.306 15.4303 430.255 15.3743 430.213 15.309L429.989 14.91ZM439.601 17.535C439.853 17.535 440.074 17.5 440.266 17.43C440.457 17.36 440.618 17.262 440.749 17.136C440.879 17.01 440.977 16.8607 441.043 16.688C441.108 16.5107 441.141 16.317 441.141 16.107C441.141 15.673 441.008 15.3277 440.742 15.071C440.48 14.8143 440.1 14.686 439.601 14.686C439.097 14.686 438.712 14.8143 438.446 15.071C438.184 15.3277 438.054 15.673 438.054 16.107C438.054 16.317 438.086 16.5107 438.152 16.688C438.222 16.8607 438.322 17.01 438.453 17.136C438.583 17.262 438.744 17.36 438.936 17.43C439.127 17.5 439.349 17.535 439.601 17.535ZM441.848 21.385C441.848 21.2123 441.799 21.0723 441.701 20.965C441.603 20.8577 441.47 20.7737 441.302 20.713C441.138 20.6523 440.947 20.6103 440.728 20.587C440.508 20.559 440.275 20.538 440.028 20.524C439.785 20.51 439.538 20.496 439.286 20.482C439.034 20.468 438.791 20.4447 438.558 20.412C438.296 20.5333 438.082 20.6873 437.914 20.874C437.75 21.056 437.669 21.2707 437.669 21.518C437.669 21.6767 437.708 21.8237 437.788 21.959C437.872 22.099 437.998 22.218 438.166 22.316C438.334 22.4187 438.544 22.498 438.796 22.554C439.052 22.6147 439.353 22.645 439.699 22.645C440.035 22.645 440.336 22.6147 440.602 22.554C440.868 22.4933 441.092 22.407 441.274 22.295C441.46 22.183 441.603 22.05 441.701 21.896C441.799 21.742 441.848 21.5717 441.848 21.385ZM443.115 14.189V14.651C443.115 14.805 443.017 14.903 442.821 14.945L442.016 15.05C442.174 15.358 442.254 15.6987 442.254 16.072C442.254 16.4173 442.186 16.7323 442.051 17.017C441.92 17.297 441.738 17.5373 441.505 17.738C441.271 17.9387 440.991 18.0927 440.665 18.2C440.338 18.3073 439.983 18.361 439.601 18.361C439.269 18.361 438.957 18.3213 438.663 18.242C438.513 18.3353 438.399 18.4357 438.32 18.543C438.24 18.6457 438.201 18.7507 438.201 18.858C438.201 19.026 438.268 19.1543 438.404 19.243C438.544 19.327 438.726 19.3877 438.95 19.425C439.174 19.4623 439.428 19.4857 439.713 19.495C440.002 19.5043 440.296 19.5207 440.595 19.544C440.898 19.5627 441.192 19.5977 441.477 19.649C441.766 19.7003 442.023 19.7843 442.247 19.901C442.471 20.0177 442.65 20.1787 442.786 20.384C442.926 20.5893 442.996 20.8553 442.996 21.182C442.996 21.4853 442.919 21.7793 442.765 22.064C442.615 22.3487 442.398 22.6007 442.114 22.82C441.829 23.044 441.479 23.2213 441.064 23.352C440.653 23.4873 440.189 23.555 439.671 23.555C439.153 23.555 438.7 23.5037 438.313 23.401C437.925 23.2983 437.603 23.1607 437.347 22.988C437.09 22.8153 436.896 22.6147 436.766 22.386C436.64 22.162 436.577 21.9263 436.577 21.679C436.577 21.329 436.686 21.0327 436.906 20.79C437.125 20.5473 437.426 20.3537 437.809 20.209C437.599 20.1157 437.431 19.992 437.305 19.838C437.183 19.6793 437.123 19.467 437.123 19.201C437.123 19.0983 437.141 18.9933 437.179 18.886C437.216 18.774 437.272 18.6643 437.347 18.557C437.426 18.445 437.522 18.34 437.634 18.242C437.746 18.144 437.876 18.0577 438.026 17.983C437.676 17.787 437.403 17.528 437.207 17.206C437.011 16.8793 436.913 16.5013 436.913 16.072C436.913 15.7267 436.978 15.414 437.109 15.134C437.244 14.8493 437.431 14.609 437.669 14.413C437.907 14.2123 438.189 14.0583 438.516 13.951C438.847 13.8437 439.209 13.79 439.601 13.79C439.909 13.79 440.196 13.825 440.462 13.895C440.728 13.9603 440.97 14.0583 441.19 14.189H443.115ZM449.04 16.681C449.04 16.3917 448.998 16.128 448.914 15.89C448.834 15.6473 448.715 15.4397 448.557 15.267C448.403 15.0897 448.214 14.9543 447.99 14.861C447.766 14.763 447.511 14.714 447.227 14.714C446.629 14.714 446.156 14.889 445.806 15.239C445.46 15.5843 445.246 16.065 445.162 16.681H449.04ZM450.048 20.006C449.894 20.1927 449.709 20.356 449.495 20.496C449.28 20.6313 449.049 20.7433 448.802 20.832C448.559 20.9207 448.307 20.986 448.046 21.028C447.784 21.0747 447.525 21.098 447.269 21.098C446.779 21.098 446.326 21.0163 445.911 20.853C445.5 20.685 445.143 20.4423 444.84 20.125C444.541 19.803 444.308 19.4063 444.14 18.935C443.972 18.4637 443.888 17.9223 443.888 17.311C443.888 16.8163 443.962 16.3543 444.112 15.925C444.266 15.4957 444.485 15.1247 444.77 14.812C445.054 14.4947 445.402 14.2473 445.813 14.07C446.223 13.888 446.685 13.797 447.199 13.797C447.623 13.797 448.015 13.8693 448.375 14.014C448.739 14.154 449.051 14.3593 449.313 14.63C449.579 14.896 449.786 15.2273 449.936 15.624C450.085 16.016 450.16 16.464 450.16 16.968C450.16 17.164 450.139 17.2947 450.097 17.36C450.055 17.4253 449.975 17.458 449.859 17.458H445.12C445.134 17.906 445.194 18.2957 445.302 18.627C445.414 18.9583 445.568 19.236 445.764 19.46C445.96 19.6793 446.193 19.845 446.464 19.957C446.734 20.0643 447.038 20.118 447.374 20.118C447.686 20.118 447.955 20.083 448.179 20.013C448.407 19.9383 448.603 19.859 448.767 19.775C448.93 19.691 449.065 19.614 449.173 19.544C449.285 19.4693 449.38 19.432 449.46 19.432C449.562 19.432 449.642 19.4717 449.698 19.551L450.048 20.006Z" fill="#395174"/>
<path d="M495.023 340.5C497.05 324.196 507.148 308.132 522.689 302.826C516.56 319.608 516.561 338.017 522.693 354.798C525.081 361.261 528.409 368.2 526.163 374.714C524.765 378.767 521.346 381.868 517.525 383.807C513.703 385.746 509.461 386.67 505.273 387.575L504.449 388.258C497.8 373.235 492.997 356.804 495.023 340.5Z" fill="#F0F0F0"/>
<path d="M522.843 303.134C513.793 313.28 508.168 326.021 506.767 339.548C506.414 342.455 506.521 345.399 507.084 348.272C507.723 351.053 509.095 353.613 511.057 355.684C512.847 357.652 514.906 359.458 516.187 361.828C516.825 363.05 517.197 364.394 517.279 365.77C517.362 367.147 517.152 368.526 516.665 369.816C515.534 373.061 513.305 375.707 511.035 378.218C508.515 381.007 505.853 383.863 504.782 387.56C504.652 388.008 503.965 387.78 504.094 387.333C505.958 380.901 512.198 377.248 515.174 371.455C516.562 368.752 517.145 365.614 515.843 362.76C514.705 360.265 512.583 358.401 510.753 356.424C508.81 354.431 507.384 351.993 506.599 349.321C505.892 346.486 505.672 343.551 505.949 340.642C506.467 334.082 508.013 327.645 510.53 321.566C513.365 314.612 517.367 308.195 522.364 302.591C522.674 302.245 523.15 302.79 522.843 303.134Z" fill="white"/>
<path d="M506.96 335.166C504.723 334.623 502.753 333.302 501.4 331.439C500.047 329.576 499.4 327.293 499.575 324.997C499.612 324.533 500.335 324.568 500.298 325.033C500.131 327.171 500.734 329.298 501.998 331.03C503.261 332.762 505.101 333.985 507.187 334.478C507.64 334.586 507.41 335.273 506.96 335.166Z" fill="white"/>
<path d="M510.018 354.806C514.057 352.393 517.039 348.545 518.369 344.03C518.5 343.583 519.187 343.81 519.056 344.257C517.663 348.953 514.552 352.951 510.344 355.453C509.942 355.691 509.619 355.043 510.018 354.806Z" fill="white"/>
<path d="M514.035 315.298C514.856 315.689 515.762 315.869 516.67 315.823C517.579 315.777 518.461 315.506 519.239 315.034C519.637 314.791 519.96 315.439 519.565 315.681C518.703 316.198 517.728 316.496 516.724 316.549C515.721 316.603 514.719 316.409 513.808 315.986C513.719 315.953 513.645 315.888 513.602 315.803C513.56 315.718 513.551 315.62 513.578 315.528C513.608 315.438 513.673 315.362 513.759 315.319C513.845 315.276 513.944 315.269 514.035 315.298Z" fill="white"/>
<path d="M570.059 331.947C569.815 332.106 569.571 332.265 569.326 332.43C566.053 334.583 562.961 336.999 560.079 339.653C559.853 339.855 559.627 340.063 559.407 340.271C552.532 346.74 546.918 354.43 542.849 362.95C541.233 366.342 539.877 369.852 538.793 373.449C537.296 378.418 536.069 383.924 533.106 387.988C532.802 388.416 532.472 388.824 532.117 389.211H505.346C505.285 389.18 505.224 389.156 505.163 389.125L504.094 389.174C504.137 388.984 504.185 388.789 504.228 388.599C504.253 388.489 504.283 388.379 504.308 388.269C504.326 388.196 504.344 388.123 504.356 388.056C504.362 388.031 504.369 388.007 504.375 387.988C504.387 387.921 504.405 387.86 504.418 387.799C504.686 386.705 504.963 385.611 505.248 384.517C505.248 384.511 505.248 384.511 505.254 384.505C507.447 376.175 510.354 367.955 514.416 360.438C514.538 360.212 514.66 359.98 514.795 359.754C516.644 356.376 518.767 353.154 521.141 350.122C522.446 348.466 523.835 346.877 525.301 345.361C529.096 341.452 533.482 338.165 538.298 335.62C547.9 330.547 559.016 328.604 569.278 331.702C569.54 331.782 569.797 331.861 570.059 331.947Z" fill="#F0F0F0"/>
<path d="M570 332.287C556.669 334.936 544.511 341.721 535.253 351.677C533.222 353.785 531.536 356.2 530.257 358.834C529.093 361.439 528.648 364.309 528.968 367.145C529.213 369.795 529.771 372.477 529.368 375.141C529.142 376.501 528.63 377.798 527.868 378.947C527.105 380.096 526.108 381.07 524.943 381.806C522.087 383.717 518.715 384.486 515.391 385.124C511.701 385.832 507.857 386.509 504.777 388.816C504.404 389.095 503.993 388.499 504.365 388.22C509.724 384.208 516.904 385.05 522.766 382.217C525.501 380.896 527.855 378.741 528.532 375.679C529.125 373.001 528.552 370.234 528.281 367.553C527.928 364.791 528.257 361.985 529.238 359.38C530.379 356.69 531.97 354.213 533.941 352.057C538.302 347.132 543.41 342.924 549.078 339.587C555.525 335.742 562.583 333.029 569.944 331.565C570.4 331.475 570.452 332.197 570 332.287Z" fill="white"/>
<path d="M538.042 348.296C536.583 346.515 535.805 344.273 535.845 341.971C535.886 339.669 536.743 337.456 538.264 335.728C538.573 335.379 539.129 335.843 538.82 336.192C537.4 337.799 536.602 339.86 536.569 342.004C536.535 344.148 537.268 346.233 538.637 347.884C538.933 348.243 538.337 348.653 538.042 348.296Z" fill="white"/>
<path d="M528.668 365.818C533.345 366.324 538.041 365.048 541.82 362.244C542.194 361.966 542.605 362.562 542.232 362.84C538.294 365.75 533.405 367.068 528.539 366.53C528.075 366.479 528.207 365.766 528.668 365.818Z" fill="white"/>
<path d="M555.647 336.694C556.068 337.501 556.682 338.19 557.435 338.7C558.189 339.211 559.056 339.526 559.961 339.618C560.425 339.663 560.293 340.376 559.832 340.33C558.833 340.224 557.875 339.875 557.041 339.313C556.208 338.751 555.525 337.993 555.052 337.106C555 337.026 554.981 336.93 554.998 336.836C555.015 336.743 555.067 336.659 555.144 336.602C555.223 336.548 555.32 336.527 555.414 336.544C555.508 336.562 555.592 336.615 555.647 336.694Z" fill="white"/>
<path d="M408.563 258.187C409.117 257.615 409.538 256.928 409.798 256.174C410.058 255.421 410.149 254.62 410.066 253.827C409.983 253.035 409.727 252.27 409.317 251.587C408.906 250.904 408.351 250.32 407.69 249.875L412.64 231.148L403.104 234.357L399.866 251.648C399.193 252.809 398.968 254.176 399.234 255.49C399.501 256.805 400.24 257.977 401.312 258.783C402.384 259.589 403.714 259.973 405.05 259.864C406.387 259.754 407.636 259.158 408.563 258.187Z" fill="#9E616A"/>
<path d="M452.676 383.975L446.035 383.974L442.875 358.341L452.678 358.341L452.676 383.975Z" fill="#9E616A"/>
<path d="M454.369 390.416L432.953 390.416V390.145C432.953 387.933 433.832 385.811 435.395 384.247C436.958 382.683 439.078 381.804 441.289 381.804L454.37 381.805L454.369 390.416Z" fill="#2F2E41"/>
<path d="M421.255 383.975L414.613 383.974L411.453 358.341L421.256 358.341L421.255 383.975Z" fill="#9E616A"/>
<path d="M422.947 390.416L401.531 390.416V390.145C401.531 387.933 402.41 385.811 403.973 384.247C405.536 382.683 407.656 381.804 409.867 381.804L422.948 381.805L422.947 390.416Z" fill="#2F2E41"/>
<path d="M417.557 229.53L415.008 230.234C415.008 230.234 408.347 273.437 407.806 296.204C407.264 318.97 409.431 376.429 409.431 376.429H423.517L434.894 278.858L440.311 376.429H455.48C455.48 376.429 466.316 248.502 461.44 238.203C456.564 227.904 417.557 229.53 417.557 229.53Z" fill="#2F2E41"/>
<path d="M437.884 153.298C444.913 153.298 450.611 147.596 450.611 140.563C450.611 133.53 444.913 127.828 437.884 127.828C430.855 127.828 425.156 133.53 425.156 140.563C425.156 147.596 430.855 153.298 437.884 153.298Z" fill="#9E616A"/>
<path d="M470.112 169.902L450.357 156.985L429.886 157.791L409.977 168.818L417.561 211.099L414.311 235.492C414.311 235.492 443.566 232.24 450.067 237.118C453.863 240.013 458.341 241.88 463.069 242.539L461.985 200.8L470.112 169.902Z" fill="#3F3D56"/>
<path d="M413.768 168.276L411.721 167.851L409.976 168.818C409.976 168.818 405.1 175.323 405.1 181.286C405.1 187.248 399.141 244.707 399.141 244.707L409.976 249.586L418.644 204.594L413.768 168.276Z" fill="#3F3D56"/>
<path d="M449.025 131.226C449.025 131.226 452.354 124.859 445.03 124.28C445.03 124.28 438.787 118.613 432.423 123.244C432.423 123.244 428.952 123.244 427.054 127.174C427.054 127.174 424.324 126.138 423.724 128.911C423.724 128.911 421.726 134.699 423.724 139.909C425.721 145.118 426.385 145.697 426.385 145.697C426.385 145.697 423.102 134.775 431.092 134.196C439.082 133.617 448.023 128.621 448.689 134.989C449.355 141.356 450.357 142.925 450.357 142.925C450.357 142.925 456.682 133.831 449.025 131.226Z" fill="#2F2E41"/>
<path d="M284.558 206.142H126.906V87.9719H284.558V206.142Z" fill="white"/>
<path d="M284.558 206.142H126.906V87.9719H284.558V206.142ZM128.532 89.5981V204.516H282.933V89.5981H128.532Z" fill="#E6E6E6"/>
<path d="M205.682 177.314C222.261 177.314 235.701 163.867 235.701 147.279C235.701 130.691 222.261 117.243 205.682 117.243C189.104 117.243 175.664 130.691 175.664 147.279C175.664 163.867 189.104 177.314 205.682 177.314Z" fill="#112D57"/>
<path d="M218.148 144.757H207.942V134.545C207.942 133.907 207.689 133.296 207.239 132.845C206.788 132.395 206.178 132.142 205.541 132.142C204.904 132.142 204.293 132.395 203.842 132.845C203.392 133.296 203.139 133.907 203.139 134.545V144.757H192.933C192.296 144.757 191.685 145.01 191.235 145.46C190.784 145.911 190.531 146.522 190.531 147.16C190.531 147.797 190.784 148.408 191.235 148.859C191.685 149.309 192.296 149.562 192.933 149.562H203.139V159.774C203.139 160.412 203.392 161.023 203.842 161.474C204.293 161.924 204.904 162.177 205.541 162.177C206.178 162.177 206.788 161.924 207.239 161.474C207.689 161.023 207.942 160.412 207.942 159.774V149.562H218.148C218.785 149.562 219.396 149.309 219.847 148.859C220.297 148.408 220.55 147.797 220.55 147.16C220.55 146.522 220.297 145.911 219.847 145.46C219.396 145.01 218.785 144.757 218.148 144.757Z" fill="white"/>
<path d="M139.91 87.4787H81V43H139.91V87.4787Z" fill="white"/>
<path d="M139.91 87.4787H81V43H139.91V87.4787ZM82.0835 86.3946H138.827V44.0841H82.0835V86.3946Z" fill="#E6E6E6"/>
<path d="M132.143 55.114H88.7734V58.007H132.143V55.114Z" fill="#E4E4E4"/>
<path d="M132.143 63.7925H88.7734V66.6855H132.143V63.7925Z" fill="#E4E4E4"/>
<path d="M132.143 72.4717H88.7734V75.3647H132.143V72.4717Z" fill="#E4E4E4"/>
<path d="M531.598 390.493H472.688V346.014H531.598V390.493Z" fill="white"/>
<path d="M531.598 390.493H472.688V346.014H531.598V390.493ZM473.771 389.409H530.514V347.099H473.771V389.409Z" fill="#E6E6E6"/>
<path d="M523.831 358.128H480.461V361.021H523.831V358.128Z" fill="#E4E4E4"/>
<path d="M523.831 366.807H480.461V369.7H523.831V366.807Z" fill="#E4E4E4"/>
<path d="M523.831 375.486H480.461V378.379H523.831V375.486Z" fill="#E4E4E4"/>
<path d="M495.823 310.684L451.82 271.492L481.377 238.27L525.38 277.461L495.823 310.684Z" fill="white"/>
<path d="M495.823 310.684L451.82 271.492L481.377 238.27L525.38 277.461L495.823 310.684ZM453.35 271.403L495.734 309.153L523.85 277.55L481.466 239.8L453.35 271.403Z" fill="#E6E6E6"/>
<path d="M479.133 252.487L477.211 254.648L509.606 283.501L511.528 281.34L479.133 252.487Z" fill="#E4E4E4"/>
<path d="M473.368 258.969L471.445 261.13L503.84 289.983L505.762 287.822L473.368 258.969Z" fill="#E4E4E4"/>
<path d="M467.602 265.452L465.68 267.613L498.074 296.466L499.997 294.305L467.602 265.452Z" fill="#E4E4E4"/>
<path d="M173.266 113.498H107.547V63.8784H173.266V113.498Z" fill="white"/>
<path d="M173.266 113.498H107.547V63.8784H173.266V113.498ZM108.756 112.288H172.057V65.0878H108.756V112.288Z" fill="#E6E6E6"/>
<path d="M164.593 77.3926H116.211V80.6199H164.593V77.3926Z" fill="#112D57"/>
<path d="M164.593 87.0742H116.211V90.3016H164.593V87.0742Z" fill="#112D57"/>
<path d="M164.593 96.7563H116.211V99.9837H164.593V96.7563Z" fill="#112D57"/>
<path d="M343.82 243.395H243.531V167.675H343.82V243.395Z" fill="white"/>
<path d="M343.82 243.395H243.531V167.675H343.82V243.395ZM245.376 241.55H341.975V169.521H245.376V241.55Z" fill="#E6E6E6"/>
<path d="M330.59 188.298H256.758V193.223H330.59V188.298Z" fill="#112D57"/>
<path d="M330.59 203.072H256.758V207.997H330.59V203.072Z" fill="#112D57"/>
<path d="M330.59 217.847H256.758V222.772H330.59V217.847Z" fill="#112D57"/>
<path d="M581.354 391H321.151C320.98 391 320.817 390.931 320.696 390.81C320.576 390.689 320.508 390.526 320.508 390.355C320.508 390.184 320.576 390.02 320.696 389.899C320.817 389.778 320.98 389.71 321.151 389.709H581.354C581.525 389.709 581.69 389.777 581.811 389.898C581.932 390.019 581.999 390.183 581.999 390.355C581.999 390.526 581.932 390.69 581.811 390.811C581.69 390.932 581.525 391 581.354 391Z" fill="#CACACA"/>
<path d="M463.378 257.779C462.99 257.083 462.759 256.311 462.702 255.516C462.644 254.721 462.762 253.923 463.046 253.179C463.33 252.434 463.774 251.761 464.346 251.207C464.919 250.653 465.605 250.231 466.358 249.971L466.391 230.6L474.78 236.156L473.463 253.699C473.815 254.993 473.681 256.372 473.086 257.574C472.49 258.776 471.475 259.718 470.231 260.221C468.988 260.724 467.604 260.753 466.341 260.303C465.078 259.853 464.023 258.955 463.378 257.779Z" fill="#9E616A"/>
<path d="M464.152 172.071L467.9 168.456L470.653 170.444C470.653 170.444 473.362 173.697 475.529 183.454C477.696 193.211 475.529 246.876 475.529 246.876L463.61 245.249L465.235 217.062L460.359 193.211L464.152 172.071Z" fill="#3F3D56"/>
</svg>
