<svg width="158" height="92" viewBox="0 0 158 92" fill="none" xmlns="http://www.w3.org/2000/svg">
<g clip-path="url(#clip0_20094_277408)">
<path d="M20.7067 83.8962H133.933C146.695 70.8348 149.925 51.72 142.425 37.1903C133.088 19.1004 108.477 10.7454 87.23 21.0554C85.8417 18.3757 81.7526 11.4142 73.3597 7.75073C62.4893 3.01074 49.055 5.82629 42.7182 13.0943C37.8781 18.6401 34.7581 29.5558 35.1426 28.6984C30.9008 29.5136 23.0113 31.7646 17.4729 38.5565C8.449 49.6207 9.21794 68.3732 20.7067 83.8962Z" fill="#ADD9FF"/>
<path d="M79.0007 86.5876C114.341 86.5876 142.99 85.4067 142.99 83.9501C142.99 82.4934 114.341 81.3125 79.0007 81.3125C43.6606 81.3125 15.0117 82.4934 15.0117 83.9501C15.0117 85.4067 43.6606 86.5876 79.0007 86.5876Z" fill="#ADD9FF"/>
<path d="M152.124 44.2266C152.069 44.3393 148.479 51.6115 141.669 59.0375L140.325 58.4171L137.692 57.2015L139.904 58.811L141.082 59.6674C136.897 64.1135 131.563 68.5459 125.142 71.4647L124.967 71.5437L121.938 68.6555L124.205 71.8755C117.708 74.631 110.138 75.8086 101.559 73.9284C101.645 73.8147 109.341 63.8954 125.137 54.9358C125.559 54.697 125.987 54.4579 126.424 54.2185L128.023 57.3005L126.894 53.9615C134.859 49.663 143.336 46.3919 152.124 44.2266Z" fill="#84C96C"/>
<path d="M139.907 58.8148L141.085 59.6712C136.9 64.1173 131.566 68.5497 125.145 71.4685V54.9375C126.807 61.347 134.709 63.6444 139.56 59.1392L139.907 58.8148Z" fill="#77B75F"/>
<path d="M101.564 74.3353C101.469 74.3353 101.376 74.3019 101.303 74.2408C101.23 74.1797 101.18 74.0948 101.163 74.001C101.146 73.9071 101.162 73.8102 101.209 73.7271C101.256 73.644 101.33 73.5801 101.42 73.5463C101.481 73.5231 107.578 71.2069 115.421 67.3474C122.651 63.7903 132.887 58.1571 140.595 51.5232C140.635 51.4823 140.682 51.45 140.735 51.4286C140.788 51.4071 140.844 51.3969 140.901 51.3986C140.958 51.4003 141.014 51.4139 141.065 51.4385C141.116 51.4632 141.162 51.4982 141.199 51.5415C141.236 51.5848 141.263 51.6353 141.28 51.6898C141.296 51.7443 141.3 51.8016 141.293 51.858C141.286 51.9144 141.267 51.9687 141.237 52.0174C141.208 52.066 141.169 52.1079 141.122 52.1405C133.352 58.8323 123.048 64.5034 115.772 68.0827C107.896 71.9579 101.769 74.2858 101.708 74.3079C101.662 74.3256 101.613 74.3349 101.564 74.3353Z" fill="#5B9941"/>
<path d="M156.946 69.5954C156.831 69.6944 150.665 74.9422 141.487 79.0639L140.244 77.6798L138.559 75.8027L139.746 77.8041L140.694 79.4104C136.682 81.1495 132.133 82.6494 127.283 83.4131C125.269 83.7316 123.235 83.9076 121.196 83.9397L119.557 80.0898L120.367 83.9439C113.31 83.9039 105.89 81.9921 98.7578 76.874C98.8853 76.8023 110.47 70.4086 129.391 68.6064L129.639 72.0708L129.924 68.5568C138.939 67.7596 148.019 68.1086 156.946 69.5954Z" fill="#84C96C"/>
<path d="M139.744 77.8097L140.692 79.4161C136.68 81.1551 132.131 82.6551 127.281 83.4187L127.929 70.7387C128.625 73.2023 130.235 75.3068 132.432 76.6214C134.629 77.9359 137.244 78.3611 139.744 77.8097ZM156.945 69.5938C156.83 69.6928 150.664 74.9405 141.486 79.0622L140.244 77.6781C140.726 77.5445 141.197 77.3752 141.654 77.1714C149.264 73.7913 156.826 69.6612 156.945 69.5938Z" fill="#77B75F"/>
<path d="M104.271 77.3781C100.876 77.3781 98.7793 77.2864 98.7424 77.2854C98.6881 77.2842 98.6346 77.2721 98.585 77.25C98.5354 77.2278 98.4907 77.1959 98.4536 77.1562C98.4165 77.1165 98.3877 77.0698 98.3689 77.0189C98.3501 76.9679 98.3417 76.9137 98.3442 76.8594C98.3466 76.8051 98.3599 76.7519 98.3832 76.7028C98.4066 76.6538 98.4395 76.6099 98.48 76.5737C98.5205 76.5375 98.5679 76.5098 98.6193 76.4922C98.6707 76.4746 98.7251 76.4674 98.7793 76.4712C98.8435 76.4712 105.359 76.7577 114.089 76.3153C122.138 75.9087 133.767 74.7837 143.466 71.7375C143.569 71.7051 143.681 71.715 143.777 71.7651C143.873 71.8151 143.945 71.9013 143.977 72.0045C144.01 72.1077 144 72.2196 143.95 72.3155C143.9 72.4114 143.813 72.4835 143.71 72.5159C133.926 75.5874 122.222 76.7208 114.122 77.1305C110.299 77.3233 106.897 77.3781 104.271 77.3781Z" fill="#5B9941"/>
<path d="M152.123 44.2266C152.068 44.3393 148.478 51.6115 141.668 59.0375L140.324 58.4171C144.592 54.3744 149.103 49.4163 152.123 44.2266Z" fill="#77B75F"/>
<path d="M5.875 44.2266C5.92977 44.3393 9.51953 51.6115 16.3293 59.0375L17.6734 58.4171L20.3067 57.2015L18.0947 58.811L16.9171 59.6674C21.102 64.1135 26.4361 68.5459 32.8572 71.4647L33.032 71.5437L36.0604 68.6555L33.7936 71.8755C40.2905 74.631 47.8608 75.8086 56.4402 73.9284C56.3539 73.8147 48.6582 63.8954 32.8614 54.9358C32.4401 54.697 32.0113 54.4579 31.5753 54.2185L29.9763 57.3005L31.1044 53.9615C23.14 49.663 14.6625 46.3919 5.875 44.2266Z" fill="#84C96C"/>
<path d="M18.0917 58.8148L16.9141 59.6712C21.099 64.1173 26.433 68.5497 32.8541 71.4685V54.9375C31.192 61.347 23.2899 63.6444 18.4382 59.1392L18.0917 58.8148Z" fill="#77B75F"/>
<path d="M56.4364 74.3339C56.387 74.3335 56.3381 74.3242 56.2921 74.3065C56.231 74.2844 50.1048 71.9565 42.228 68.0813C34.9526 64.5 24.6489 58.8309 16.8784 52.1391C16.8359 52.1048 16.8006 52.0623 16.7748 52.0141C16.749 51.9659 16.7332 51.913 16.7282 51.8586C16.7233 51.8042 16.7293 51.7493 16.746 51.6972C16.7627 51.6452 16.7897 51.597 16.8254 51.5556C16.8611 51.5142 16.9047 51.4804 16.9538 51.4562C17.0028 51.432 17.0562 51.4179 17.1107 51.4147C17.1653 51.4116 17.22 51.4195 17.2714 51.4379C17.3229 51.4563 17.3702 51.4848 17.4104 51.5219C25.1134 58.1579 35.3497 63.789 42.585 67.3461C50.4282 71.2055 56.5248 73.5218 56.5859 73.5449C56.6752 73.5787 56.7498 73.6427 56.7967 73.7257C56.8437 73.8088 56.86 73.9057 56.8428 73.9996C56.8256 74.0935 56.7761 74.1783 56.7028 74.2394C56.6295 74.3005 56.5371 74.3339 56.4416 74.3339H56.4364Z" fill="#5B9941"/>
<path d="M1.05469 69.5951C1.1695 69.6941 7.33572 74.9419 16.5134 79.0636L17.7564 77.6795L19.4417 75.8024L18.2546 77.8038L17.3013 79.4101C21.3135 81.1492 25.8628 82.6491 30.7124 83.4128C32.7265 83.7313 34.7607 83.9073 36.7996 83.9394L38.4386 80.0895L37.6286 83.9436C44.6859 83.9036 52.1056 81.9918 59.2377 76.8737C59.1103 76.802 47.5257 70.4083 28.6046 68.606L28.3561 72.0705L28.0717 68.5565C19.0583 67.7598 9.98028 68.1087 1.05469 69.5951Z" fill="#84C96C"/>
<path d="M18.2556 77.8097L17.3023 79.4161C21.3145 81.1551 25.8638 82.6551 30.7134 83.4187L30.0656 70.7387C29.3701 73.2012 27.76 75.3048 25.5646 76.6193C23.3693 77.9337 20.7546 78.3596 18.2556 77.8097ZM1.05469 69.5938C1.1695 69.6928 7.33571 74.9405 16.5134 79.0622L17.7563 77.6781C17.2742 77.5445 16.8028 77.3752 16.3459 77.1714C8.73559 73.7913 1.17371 69.6612 1.05469 69.5938Z" fill="#77B75F"/>
<path d="M53.7285 77.3781C51.1026 77.3781 47.7014 77.3233 43.8778 77.1305C35.7797 76.7208 24.0751 75.5874 14.2897 72.5159C14.1864 72.4835 14.1003 72.4114 14.0502 72.3155C14.0002 72.2196 13.9902 72.1077 14.0226 72.0045C14.055 71.9013 14.1271 71.8151 14.223 71.7651C14.3189 71.715 14.4308 71.7051 14.534 71.7375C24.2331 74.7837 35.8619 75.9087 43.9104 76.3153C52.6404 76.7577 59.1563 76.4743 59.2206 76.4712C59.2748 76.4674 59.3292 76.4746 59.3806 76.4922C59.432 76.5098 59.4793 76.5375 59.5199 76.5737C59.5604 76.6099 59.5933 76.6538 59.6166 76.7028C59.64 76.7519 59.6532 76.8051 59.6557 76.8594C59.6582 76.9137 59.6497 76.9679 59.6309 77.0189C59.6121 77.0698 59.5834 77.1165 59.5463 77.1562C59.5092 77.1959 59.4645 77.2278 59.4149 77.25C59.3653 77.2721 59.3118 77.2842 59.2575 77.2854C59.2206 77.2843 57.1224 77.3781 53.7285 77.3781Z" fill="#5B9941"/>
<path d="M5.875 44.2266C5.92977 44.3393 9.51953 51.6115 16.3293 59.0375L17.6734 58.4171C13.4053 54.3744 8.89491 49.4163 5.875 44.2266Z" fill="#77B75F"/>
<path d="M44.9072 83.9518H130.429L121.761 34.8906H36.2383L44.9072 83.9518Z" fill="#2584D8"/>
<path d="M113.093 83.9518H27.5703L36.2392 34.8906H121.761L113.093 83.9518Z" fill="#4B98E6"/>
<path d="M112.189 83.0554H28.793L37.147 35.7734H120.544L112.189 83.0554Z" fill="white"/>
<path d="M54.4206 38.7291C54.4206 38.7291 56.286 47.6908 54.588 53.8339C54.4352 54.3795 54.0987 54.8556 53.6354 55.1819C53.1722 55.5081 52.6105 55.6645 52.0453 55.6245L34.896 54.4659L54.4206 38.7291ZM120.545 35.7734C115.138 62.4912 91.894 81.8673 64.6442 82.3802L28.793 83.0554H112.19L120.545 35.7734Z" fill="#E8E8E8"/>
<path d="M47.1385 47.9782H41.3978C40.63 47.9782 40.1064 47.4189 40.2286 46.729L40.5762 44.7614C40.6984 44.0714 41.4189 43.5121 42.1878 43.5121H47.9285C48.6964 43.5121 49.2199 44.0714 49.0977 44.7614L48.7501 46.729C48.6279 47.4189 47.9074 47.9782 47.1385 47.9782ZM48.8849 41.95H41.7844C41.3915 41.95 41.125 41.6646 41.1872 41.3117C41.2493 40.9599 41.618 40.6797 42.0098 40.6797H49.1103C49.5022 40.6797 49.7697 40.9651 49.7076 41.3117C49.6454 41.6646 49.2768 41.95 48.8849 41.95ZM57.9457 47.9782H52.2061C51.4382 47.9782 50.9147 47.4189 51.0369 46.729L51.3845 44.7614C51.5067 44.0714 52.2272 43.5121 52.9961 43.5121H58.7357C59.5036 43.5121 60.0271 44.0714 59.9049 44.7614L59.5573 46.729C59.4351 47.4189 58.7136 47.9782 57.9457 47.9782ZM59.6921 41.95H52.5916C52.1987 41.95 51.9312 41.6646 51.9944 41.3117C52.0565 40.9599 52.4241 40.6797 52.817 40.6797H59.9176C60.3094 40.6797 60.5769 40.9651 60.5148 41.3117C60.4526 41.6646 60.084 41.95 59.6921 41.95ZM68.7529 47.9782H63.0133C62.2454 47.9782 61.7219 47.4189 61.8441 46.729L62.1917 44.7614C62.3139 44.0714 63.0344 43.5121 63.8033 43.5121H69.5429C70.3108 43.5121 70.8343 44.0714 70.7121 44.7614L70.3645 46.729C70.2423 47.4189 69.5218 47.9782 68.7529 47.9782ZM70.4993 41.95H63.3988C63.0059 41.95 62.7384 41.6646 62.8016 41.3117C62.8637 40.9599 63.2313 40.6797 63.6242 40.6797H70.7248C71.1166 40.6797 71.3841 40.9651 71.322 41.3117C71.2599 41.6646 70.8912 41.95 70.4993 41.95ZM79.5601 47.9782H73.8205C73.0526 47.9782 72.5291 47.4189 72.6513 46.729L72.9989 44.7614C73.1211 44.0714 73.8416 43.5121 74.6094 43.5121H80.3491C81.118 43.5121 81.6415 44.0714 81.5193 44.7614L81.1717 46.729C81.0495 47.4189 80.328 47.9782 79.5601 47.9782ZM81.3055 41.95H74.205C73.8131 41.95 73.5456 41.6646 73.6077 41.3117C73.6709 40.9599 74.0385 40.6797 74.4314 40.6797H81.5299C81.9217 40.6797 82.1892 40.9651 82.1271 41.3117C82.066 41.6646 81.6984 41.95 81.3055 41.95ZM90.3673 47.9782H84.6277C83.8598 47.9782 83.3363 47.4189 83.4585 46.729L83.8061 44.7614C83.9272 44.0714 84.6488 43.5121 85.4167 43.5121H91.1563C91.9242 43.5121 92.4487 44.0714 92.3265 44.7614L91.9789 46.729C91.8525 47.4189 91.1352 47.9782 90.3673 47.9782ZM92.1127 41.95H85.0122C84.6203 41.95 84.3528 41.6646 84.4149 41.3117C84.4771 40.9599 84.8457 40.6797 85.2376 40.6797H92.3381C92.731 40.6797 92.9986 40.9651 92.9364 41.3117C92.8732 41.6646 92.5056 41.95 92.1127 41.95Z" fill="#ADD9FF"/>
<path d="M101.174 47.9782H95.433C94.6651 47.9782 94.1416 47.4189 94.2638 46.729L94.6114 44.7614C94.7325 44.0714 95.4541 43.5121 96.2219 43.5121H101.964C102.732 43.5121 103.256 44.0714 103.134 44.7614L102.786 46.729C102.663 47.4189 101.942 47.9782 101.174 47.9782ZM102.919 41.95H95.8185C95.4267 41.95 95.1591 41.6646 95.2213 41.3117C95.2834 40.9599 95.6521 40.6797 96.0439 40.6797H103.144C103.537 40.6797 103.805 40.9651 103.742 41.3117C103.68 41.6646 103.312 41.95 102.919 41.95ZM111.981 47.9782H106.241C105.473 47.9782 104.95 47.4189 105.071 46.729L105.419 44.7614C105.541 44.0714 106.261 43.5121 107.03 43.5121H112.77C113.538 43.5121 114.061 44.0714 113.94 44.7614L113.592 46.729C113.47 47.4189 112.749 47.9782 111.981 47.9782Z" fill="#FFB5D6"/>
<path d="M45.8023 55.5219H40.0627C39.2948 55.5219 38.7713 54.9625 38.8924 54.2726L39.24 52.305C39.3622 51.6151 40.0827 51.0547 40.8516 51.0547H46.5912C47.3591 51.0547 47.8826 51.6151 47.7615 52.305L47.4139 54.2726C47.2928 54.9625 46.5702 55.5219 45.8023 55.5219ZM56.6095 55.5219H50.8741C50.1062 55.5219 49.5816 54.9625 49.7038 54.2726L50.0514 52.305C50.1736 51.6151 50.8941 51.0547 51.663 51.0547H57.4026C58.1705 51.0547 58.694 51.6151 58.5719 52.305L58.2243 54.2726C58.0989 54.9625 57.3774 55.5219 56.6095 55.5219ZM67.4167 55.5219H61.6771C60.9092 55.5219 60.3846 54.9625 60.5068 54.2726L60.8544 52.305C60.9766 51.6151 61.6971 51.0547 62.466 51.0547H68.2056C68.9735 51.0547 69.497 51.6151 69.3748 52.305L69.0272 54.2726C68.9061 54.9625 68.1846 55.5219 67.4167 55.5219ZM78.2239 55.5219H72.4843C71.7153 55.5219 71.1918 54.9625 71.314 54.2726L71.6616 52.305C71.7838 51.6151 72.5043 51.0547 73.2732 51.0547H79.0128C79.7807 51.0547 80.3042 51.6151 80.182 52.305L79.8344 54.2726C79.7123 54.9625 78.9918 55.5219 78.2239 55.5219ZM89.03 55.5219H83.2904C82.5225 55.5219 81.999 54.9625 82.1212 54.2726L82.4688 52.305C82.591 51.6151 83.3115 51.0547 84.0804 51.0547H89.82C90.5879 51.0547 91.1114 51.6151 90.9892 52.305L90.6416 54.2726C90.5195 54.9625 89.799 55.5219 89.03 55.5219Z" fill="#ADD9FF"/>
<path d="M99.8406 55.5219H94.101C93.3331 55.5219 92.8096 54.9625 92.9318 54.2726L93.2794 52.305C93.4015 51.6151 94.122 51.0547 94.891 51.0547H100.631C101.398 51.0547 101.922 51.6151 101.8 52.305L101.452 54.2726C101.332 54.9625 100.608 55.5219 99.8406 55.5219ZM110.648 55.5219H104.913C104.146 55.5219 103.622 54.9625 103.744 54.2726L104.092 52.305C104.214 51.6151 104.934 51.0547 105.703 51.0547H111.443C112.211 51.0547 112.734 51.6151 112.612 52.305L112.265 54.2726C112.137 54.9625 111.416 55.5219 110.648 55.5219Z" fill="#FFB5D6"/>
<path d="M44.4695 63.0677H38.7299C37.962 63.0677 37.4385 62.5084 37.5607 61.8184L37.9083 59.8508C38.0305 59.1609 38.7509 58.6016 39.5188 58.6016H45.2584C46.0274 58.6016 46.5509 59.1609 46.4287 59.8508L46.0811 61.8184C45.9589 62.5084 45.2374 63.0677 44.4695 63.0677ZM55.2767 63.0677H49.5371C48.7692 63.0677 48.2457 62.5084 48.3679 61.8184L48.7155 59.8508C48.8366 59.1609 49.5581 58.6016 50.326 58.6016H56.0656C56.8335 58.6016 57.3581 59.1609 57.2359 59.8508L56.8883 61.8184C56.7661 62.5084 56.0446 63.0677 55.2767 63.0677ZM66.0839 63.0677H60.3443C59.5764 63.0677 59.0529 62.5084 59.1751 61.8184L59.5227 59.8508C59.6438 59.1609 60.3653 58.6016 61.1332 58.6016H66.8728C67.6407 58.6016 68.1653 59.1609 68.0431 59.8508L67.6955 61.8184C67.5733 62.5084 66.8518 63.0677 66.0839 63.0677ZM76.8921 63.0677H71.1515C70.3836 63.0677 69.8601 62.5084 69.9812 61.8184L70.3288 59.8508C70.451 59.1609 71.1715 58.6016 71.9404 58.6016H77.68C78.4479 58.6016 78.9714 59.1609 78.8503 59.8508L78.5027 61.8184C78.3805 62.5084 77.659 63.0677 76.8921 63.0677ZM87.6983 63.0677H81.9587C81.1908 63.0677 80.6673 62.5084 80.7884 61.8184L81.136 59.8508C81.2582 59.1609 81.9787 58.6016 82.7476 58.6016H88.4872C89.2551 58.6016 89.7786 59.1609 89.6575 59.8508L89.3099 61.8184C89.1877 62.5084 88.4662 63.0677 87.6983 63.0677Z" fill="#ADD9FF"/>
<path d="M98.5057 63.0677H92.766C91.9982 63.0677 91.4736 62.5084 91.5958 61.8184L91.9434 59.8508C92.0656 59.1609 92.7861 58.6016 93.555 58.6016H99.2946C100.062 58.6016 100.586 59.1609 100.464 59.8508L100.116 61.8184C99.9951 62.5084 99.2735 63.0677 98.5057 63.0677ZM109.313 63.0677H103.573C102.805 63.0677 102.281 62.5084 102.403 61.8184L102.751 59.8508C102.873 59.1609 103.593 58.6016 104.362 58.6016H110.102C110.87 58.6016 111.393 59.1609 111.271 59.8508L110.923 61.8184C110.802 62.5084 110.081 63.0677 109.313 63.0677Z" fill="#FFB5D6"/>
<path d="M43.1385 70.6146H37.3989C36.63 70.6146 36.1064 70.0552 36.2286 69.3653L36.5762 67.3977C36.6984 66.7078 37.4189 66.1484 38.1878 66.1484H43.9243C44.6922 66.1484 45.2157 66.7078 45.0935 67.3977L44.7459 69.3653C44.6269 70.0552 43.9064 70.6146 43.1385 70.6146ZM53.9447 70.6146H48.205C47.4372 70.6146 46.9137 70.0552 47.0358 69.3653L47.3834 67.3977C47.5056 66.7078 48.2261 66.1484 48.995 66.1484H54.7347C55.5025 66.1484 56.026 66.7078 55.9039 67.3977L55.5563 69.3653C55.4341 70.0552 54.7125 70.6146 53.9447 70.6146ZM64.7519 70.6146H59.0123C58.2444 70.6146 57.7209 70.0552 57.8431 69.3653L58.1907 67.3977C58.3128 66.7078 59.0333 66.1484 59.8023 66.1484H65.5419C66.3098 66.1484 66.8333 66.7078 66.7111 67.3977L66.3603 69.3653C66.2413 70.0552 65.5176 70.6146 64.7519 70.6146ZM75.5591 70.6146H69.8195C69.0516 70.6146 68.5281 70.0552 68.6503 69.3653L68.9979 67.3977C69.12 66.7078 69.8405 66.1484 70.6095 66.1484H76.3491C77.117 66.1484 77.6405 66.7078 77.5183 67.3977L77.1707 69.3653C77.0485 70.0552 76.327 70.6146 75.5591 70.6146ZM86.3663 70.6146H80.6267C79.8588 70.6146 79.3353 70.0552 79.4575 69.3653L79.8051 67.3977C79.9262 66.7078 80.6477 66.1484 81.4156 66.1484H87.1552C87.9231 66.1484 88.4477 66.7078 88.3255 67.3977L87.9779 69.3653C87.8557 70.0552 87.1342 70.6146 86.3663 70.6146Z" fill="#ADD9FF"/>
<path d="M97.1729 70.6146H91.4291C90.6612 70.6146 90.1377 70.0552 90.2599 69.3653L90.6075 67.3977C90.7286 66.7078 91.4501 66.1484 92.218 66.1484H97.9598C98.7276 66.1484 99.2522 66.7078 99.13 67.3977L98.7824 69.3653C98.6623 70.0552 97.9408 70.6146 97.1729 70.6146ZM107.98 70.6146H102.241C101.473 70.6146 100.949 70.0552 101.07 69.3653L101.419 67.3977C101.54 66.7078 102.262 66.1484 103.029 66.1484H108.769C109.537 66.1484 110.06 66.7078 109.939 67.3977L109.592 69.3653C109.47 70.0552 108.748 70.6146 107.98 70.6146Z" fill="#FFB5D6"/>
<path d="M41.8062 78.1625H36.0666C35.2987 78.1625 34.7752 77.6032 34.8963 76.9122L35.2439 74.9456C35.3661 74.2546 36.0866 73.6953 36.8555 73.6953H42.5951C43.363 73.6953 43.8865 74.2546 43.7654 74.9456L43.4178 76.9122C43.2935 77.6032 42.5741 78.1625 41.8062 78.1625ZM52.6134 78.1625H46.8748C46.107 78.1625 45.5834 77.6032 45.7046 76.9122L46.0522 74.9456C46.1744 74.2546 46.8948 73.6953 47.6638 73.6953H53.4055C54.1734 73.6953 54.6969 74.2546 54.5757 74.9456L54.2271 76.9122C54.1028 77.6032 53.3813 78.1625 52.6134 78.1625ZM63.4206 78.1625H57.681C56.9131 78.1625 56.3885 77.6032 56.5107 76.9122L56.8583 74.9456C56.9805 74.2546 57.701 73.6953 58.4699 73.6953H64.2095C64.9774 73.6953 65.5009 74.2546 65.3787 74.9456L65.0311 76.9122C64.91 77.6032 64.1885 78.1625 63.4206 78.1625ZM74.2278 78.1625H68.4882C67.7203 78.1625 67.1957 77.6032 67.3179 76.9122L67.6655 74.9456C67.7877 74.2546 68.5082 73.6953 69.2771 73.6953H75.0167C75.7846 73.6953 76.3081 74.2546 76.1859 74.9456L75.8383 76.9122C75.7172 77.6032 74.9988 78.1625 74.2278 78.1625ZM85.0339 78.1625H79.2954C78.5264 78.1625 78.0029 77.6032 78.1251 76.9122L78.4727 74.9456C78.5949 74.2546 79.3154 73.6953 80.0843 73.6953H85.8239C86.5918 73.6953 87.1153 74.2546 86.9931 74.9456L86.6455 76.9122C86.5233 77.6032 85.8029 78.1625 85.0339 78.1625Z" fill="#ADD9FF"/>
<path d="M95.8406 78.1573H90.101C89.3331 78.1573 88.8096 77.598 88.9318 76.907L89.2794 74.9404C89.4015 74.2495 90.122 73.6901 90.891 73.6901H96.6306C97.3985 73.6901 97.922 74.2495 97.7998 74.9404L97.4522 76.907C97.3289 77.598 96.6085 78.1573 95.8406 78.1573ZM106.648 78.1573H100.91C100.142 78.1573 99.6189 77.598 99.7411 76.907L100.089 74.9404C100.211 74.2495 100.931 73.6901 101.7 73.6901H107.441C108.209 73.6901 108.732 74.2495 108.61 74.9404L108.263 76.907C108.137 77.598 107.416 78.1573 106.648 78.1573ZM113.726 41.95H106.626C106.234 41.95 105.966 41.6646 106.028 41.3117C106.091 40.9599 106.459 40.6797 106.851 40.6797H113.952C114.344 40.6797 114.611 40.9651 114.549 41.3117C114.487 41.6646 114.118 41.95 113.726 41.95Z" fill="#FFB5D6"/>
<path d="M42.9346 22.6953H115.064C115.944 22.6949 116.815 22.8678 117.628 23.2043C118.441 23.5407 119.18 24.034 119.802 24.656C120.424 25.2781 120.918 26.0166 121.255 26.8295C121.592 27.6423 121.765 28.5136 121.765 29.3935V34.8898H36.2344V29.3935C36.2344 28.5137 36.4077 27.6425 36.7444 26.8297C37.0812 26.0169 37.5748 25.2784 38.197 24.6564C38.8192 24.0344 39.5578 23.5411 40.3707 23.2046C41.1836 22.8681 42.0548 22.695 42.9346 22.6953Z" fill="#4B98E6"/>
<path d="M116.459 22.8407V28.9384C116.459 31.656 114.563 33.867 112.24 33.867C111.015 33.867 109.911 33.255 109.139 32.2785C108.402 31.3222 108.008 30.1458 108.02 28.9384V22.6953H108.986V28.9384C108.979 29.8551 109.275 30.7483 109.828 31.4791C110.423 32.2522 111.287 32.7431 112.246 32.7431C114.036 32.7431 115.498 31.0377 115.498 28.9426V22.709C115.741 22.7245 115.983 22.7529 116.223 22.7943C116.299 22.808 116.379 22.8291 116.459 22.8407Z" fill="#81B4D3"/>
<path d="M59.6558 25.8846V29.7419C59.6586 30.0272 59.6445 30.3125 59.6137 30.5961C59.5819 30.8416 59.5167 31.0815 59.4199 31.3092C59.2576 31.7092 58.9657 32.0431 58.5909 32.2572C58.1613 32.4949 57.6754 32.612 57.1847 32.5964C56.7552 32.6104 56.3279 32.5295 55.9333 32.3594C55.5921 32.1944 55.3106 31.9276 55.1275 31.5957C55.0132 31.3918 54.9254 31.1741 54.8663 30.9479C54.7999 30.721 54.7645 30.486 54.761 30.2496C54.7516 30.1544 54.7631 30.0583 54.7945 29.968C54.8259 29.8777 54.8766 29.7953 54.943 29.7265C55.0094 29.6577 55.09 29.6041 55.1791 29.5695C55.2683 29.5348 55.3639 29.52 55.4593 29.5259C55.5419 29.52 55.6247 29.5321 55.7021 29.5616C55.7794 29.5911 55.8494 29.6372 55.907 29.6966C56.0282 29.8523 56.1096 30.0352 56.144 30.2296C56.1872 30.4388 56.2442 30.645 56.3146 30.8468C56.3726 31.0026 56.4716 31.1398 56.6011 31.2439C56.7665 31.3646 56.9689 31.4234 57.1731 31.4104C57.8332 31.4104 58.1632 30.9262 58.1632 29.9578V25.8846C58.1632 25.5833 58.2292 25.3572 58.3613 25.2062C58.429 25.131 58.5126 25.0717 58.6061 25.0327C58.6995 24.9938 58.8005 24.976 58.9016 24.9808C59.0042 24.976 59.1065 24.9937 59.2015 25.0326C59.2965 25.0716 59.3818 25.1308 59.4515 25.2062C59.5884 25.3565 59.6565 25.5826 59.6558 25.8846ZM65.7293 31.6358L65.3786 30.712H62.3829L62.0321 31.66C61.9463 31.9222 61.8281 32.1727 61.6803 32.4058C61.5834 32.5357 61.4244 32.6003 61.2032 32.5996C61.1104 32.5993 61.0187 32.5806 60.9333 32.5444C60.8479 32.5082 60.7707 32.4553 60.706 32.3889C60.6403 32.3301 60.5876 32.2582 60.5513 32.1779C60.515 32.0975 60.4959 32.0104 60.4953 31.9223C60.4959 31.8151 60.5126 31.7085 60.5448 31.6063C60.5785 31.5009 60.6344 31.3503 60.7112 31.1597L62.5946 26.3775L62.7884 25.8825C62.8511 25.7146 62.9316 25.5539 63.0286 25.4032C63.1153 25.2754 63.2308 25.1697 63.3657 25.0946C63.527 25.0169 63.7038 24.9766 63.8828 24.9766C64.0619 24.9766 64.2387 25.0169 64.4 25.0946C64.5339 25.1688 64.6492 25.2725 64.7371 25.3979C64.8228 25.5231 64.8952 25.6569 64.953 25.7971C65.011 25.9404 65.0857 26.13 65.1763 26.368L67.0987 31.1238C67.2493 31.4851 67.3251 31.7485 67.3251 31.9117C67.3237 32.0002 67.3044 32.0875 67.2681 32.1683C67.2319 32.2491 67.1796 32.3216 67.1145 32.3815C67.0476 32.4498 66.9676 32.5037 66.8792 32.5399C66.7908 32.5761 66.696 32.5939 66.6004 32.5922C66.4961 32.5951 66.3926 32.5734 66.2981 32.529C66.2159 32.4888 66.1438 32.4305 66.0875 32.3584C66.0131 32.2556 65.9515 32.1442 65.9042 32.0265C65.8347 31.8833 65.7757 31.7495 65.7293 31.6358ZM62.78 29.5912H64.9804L63.8649 26.5524L62.78 29.5912ZM70.364 25.8793L73.2322 30.219V25.834C73.2322 25.5496 73.2933 25.3368 73.4155 25.1936C73.4768 25.1234 73.5532 25.068 73.6389 25.0316C73.7247 24.9951 73.8175 24.9785 73.9106 24.9829C74.0054 24.9777 74.1002 24.9939 74.188 25.0304C74.2757 25.0669 74.354 25.1226 74.4172 25.1936C74.5415 25.3368 74.6037 25.5496 74.6037 25.834V31.6273C74.6037 32.2734 74.3358 32.5964 73.8 32.5964C73.6767 32.5983 73.5541 32.5787 73.4376 32.5385C73.3262 32.4977 73.2238 32.4354 73.1364 32.3552C73.0387 32.2672 72.9511 32.1686 72.8752 32.0613C72.7951 31.9497 72.715 31.8348 72.6339 31.7169L69.8373 27.4266V31.7453C69.8373 32.0262 69.772 32.239 69.6414 32.3836C69.578 32.4532 69.5002 32.5081 69.4135 32.5445C69.3267 32.5808 69.233 32.5978 69.139 32.5943C69.0436 32.598 68.9486 32.5803 68.861 32.5426C68.7733 32.5049 68.6952 32.4481 68.6323 32.3763C68.4945 32.1955 68.4268 31.971 68.4417 31.7443V26.0605C68.4342 25.868 68.4613 25.6757 68.5217 25.4927C68.5864 25.3401 68.6968 25.2113 68.8377 25.1241C68.9791 25.0302 69.1452 24.9803 69.3149 24.9808C69.4255 24.9764 69.5358 24.9957 69.6384 25.0373C69.7411 25.0789 69.8336 25.1418 69.91 25.222C69.9934 25.3093 70.0675 25.4049 70.1312 25.5075C70.2018 25.6254 70.2797 25.7476 70.364 25.8793ZM76.2416 29.4259V25.8846C76.2416 25.5833 76.3094 25.3572 76.4449 25.2062C76.5122 25.1318 76.595 25.073 76.6874 25.0341C76.7799 24.9951 76.8797 24.9769 76.98 24.9808C77.0825 24.976 77.1849 24.9937 77.2799 25.0326C77.3749 25.0716 77.4602 25.1308 77.5298 25.2062C77.6661 25.3565 77.7338 25.5826 77.7331 25.8846V29.5059C77.7245 29.8551 77.7711 30.2035 77.8711 30.5382C77.9551 30.8029 78.1281 31.0303 78.3609 31.1818C78.5958 31.3335 78.9234 31.4104 79.3458 31.4104C79.9279 31.4104 80.3398 31.2552 80.5813 30.9448C80.8229 30.6344 80.9433 30.165 80.9426 29.5365V25.8846C80.9426 25.5801 81.0101 25.3579 81.1438 25.2041C81.2116 25.1299 81.2948 25.0714 81.3877 25.0329C81.4805 24.9943 81.5806 24.9765 81.681 24.9808C81.7826 24.977 81.8839 24.995 81.978 25.0335C82.0721 25.072 82.1568 25.1302 82.2267 25.2041C82.3657 25.3526 82.4373 25.5801 82.4373 25.8846V29.4259C82.448 29.912 82.3913 30.3973 82.2688 30.8679C82.1539 31.257 81.9354 31.6076 81.6368 31.8822C81.3691 32.1297 81.0501 32.3149 80.7025 32.4247C80.2984 32.5455 79.8781 32.603 79.4564 32.5954C78.9612 32.6047 78.4674 32.5422 77.9901 32.41C77.6148 32.307 77.2712 32.1118 76.9905 31.8422C76.7212 31.5671 76.5259 31.2283 76.4228 30.8574C76.2932 30.3915 76.2321 29.9093 76.2416 29.4259ZM88.2465 31.6358L87.8946 30.712H84.9L84.5482 31.66C84.463 31.9223 84.3452 32.1729 84.1974 32.4058C84.1393 32.4739 84.0655 32.5271 83.9825 32.5608C83.8995 32.5946 83.8095 32.6079 83.7203 32.5996C83.6274 32.5993 83.5355 32.5806 83.4499 32.5444C83.3644 32.5083 83.2869 32.4554 83.2221 32.3889C83.1554 32.3306 83.1017 32.2589 83.0645 32.1785C83.0273 32.0981 83.0074 32.0108 83.0061 31.9223C83.0066 31.815 83.0236 31.7084 83.0567 31.6063C83.0904 31.5009 83.1452 31.3503 83.2221 31.1597L85.1107 26.3817C85.1633 26.2448 85.2287 26.0794 85.3034 25.8867C85.3668 25.7189 85.4477 25.5583 85.5447 25.4074C85.6311 25.2794 85.7466 25.1737 85.8817 25.0988C86.0398 25.0153 86.217 24.9746 86.3957 24.9808C86.5765 24.9743 86.7558 25.0149 86.9161 25.0988C87.0497 25.173 87.1646 25.2768 87.2521 25.4021C87.3386 25.5268 87.411 25.6607 87.468 25.8014C87.527 25.9446 87.6018 26.1342 87.6924 26.3723L89.6158 31.1238C89.7664 31.4851 89.8423 31.7485 89.8423 31.9117C89.8409 32.0002 89.8215 32.0875 89.7853 32.1683C89.749 32.2491 89.6968 32.3216 89.6316 32.3815C89.5646 32.4499 89.4844 32.5038 89.3958 32.54C89.3072 32.5763 89.2122 32.594 89.1165 32.5922C89.0125 32.5949 88.9094 32.5733 88.8153 32.529C88.733 32.4888 88.661 32.4305 88.6046 32.3584C88.5302 32.2556 88.4686 32.1442 88.4213 32.0265C88.3497 31.8833 88.2928 31.7495 88.2465 31.6358ZM85.2971 29.5912H87.4975L86.3873 26.5524L85.2971 29.5912ZM92.938 29.3205H92.4113V31.6863C92.4113 31.9974 92.3411 32.2267 92.2007 32.3741C92.1322 32.4474 92.0488 32.505 91.9561 32.5432C91.8634 32.5813 91.7636 32.5991 91.6635 32.5954C91.56 32.6013 91.4565 32.5836 91.3609 32.5436C91.2653 32.5036 91.18 32.4424 91.1115 32.3647C90.9809 32.2098 90.9156 31.9844 90.9156 31.6863V26.0204C90.9156 25.6988 90.9858 25.466 91.1263 25.3221C91.2667 25.1781 91.4995 25.1061 91.8246 25.1061H94.2473C94.534 25.104 94.8206 25.1181 95.1058 25.1483C95.3279 25.173 95.545 25.2316 95.7494 25.3221C95.9797 25.4197 96.1879 25.563 96.3613 25.7434C96.5389 25.9235 96.6767 26.1388 96.7658 26.3754C96.8588 26.6185 96.9056 26.8767 96.9038 27.137C96.9038 27.6861 96.749 28.1247 96.4393 28.4526C96.1296 28.7805 95.6658 29.0112 95.0478 29.1446C95.3361 29.3047 95.5931 29.5156 95.8062 29.7671C96.0461 30.0403 96.2621 30.3335 96.4519 30.6435C96.6193 30.9133 96.7668 31.1949 96.8933 31.4862C96.9734 31.6478 97.0268 31.8214 97.0513 32.0002C97.0495 32.1038 97.0173 32.2045 96.9586 32.2899C96.8954 32.3861 96.8078 32.4639 96.7047 32.5153C96.5894 32.573 96.4618 32.6015 96.3329 32.5985C96.1836 32.6039 96.0364 32.5626 95.9116 32.4805C95.7959 32.3999 95.6962 32.2985 95.6177 32.1814C95.5355 32.0613 95.4239 31.8833 95.2838 31.6547L94.6855 30.6593C94.5202 30.3642 94.3277 30.0853 94.1104 29.8261C93.9714 29.6578 93.7955 29.5237 93.5963 29.4343C93.3861 29.3549 93.1627 29.3163 92.938 29.3205ZM93.7923 26.2258H92.4155V28.2503H93.748C94.0523 28.2564 94.3561 28.2253 94.6528 28.1577C94.8676 28.1131 95.0632 28.0027 95.2122 27.8417C95.3501 27.6674 95.4191 27.4484 95.406 27.2265C95.4106 27.036 95.3567 26.8487 95.2517 26.6897C95.1466 26.5308 94.9953 26.4078 94.8182 26.3375C94.6462 26.2631 94.3042 26.2258 93.7923 26.2258ZM99.5835 31.6863V29.3553L97.7854 26.5682C97.6625 26.3791 97.551 26.1828 97.4515 25.9804C97.3927 25.8668 97.3593 25.7417 97.3536 25.6139C97.3531 25.5303 97.3705 25.4475 97.4047 25.3712C97.4388 25.2949 97.4889 25.2268 97.5516 25.1715C97.6842 25.0477 97.8601 24.9811 98.0414 24.9861C98.1267 24.9801 98.2122 24.9924 98.2924 25.0222C98.3725 25.052 98.4453 25.0986 98.5059 25.1588C98.6822 25.3763 98.841 25.6074 98.981 25.8498L100.357 28.085L101.753 25.8445L101.964 25.498C102.02 25.4055 102.083 25.3174 102.153 25.2347C102.215 25.1572 102.293 25.0931 102.381 25.0461C102.508 24.9878 102.649 24.9679 102.787 24.9888C102.925 25.0098 103.054 25.0707 103.157 25.1641C103.216 25.2175 103.263 25.2825 103.296 25.355C103.328 25.4275 103.345 25.506 103.346 25.5854C103.344 25.7216 103.312 25.8556 103.25 25.9773C103.153 26.1646 103.044 26.3458 102.924 26.5197L101.075 29.3553V31.6916C101.075 31.9957 101.005 32.2232 100.864 32.3741C100.794 32.4454 100.71 32.502 100.618 32.5406C100.526 32.5792 100.427 32.5991 100.327 32.5991C100.227 32.5991 100.127 32.5792 100.035 32.5406C99.9429 32.502 99.8591 32.4454 99.7889 32.3741C99.652 32.2232 99.5835 31.9939 99.5835 31.6863Z" fill="white"/>
<path d="M121.767 34.8906L113.098 83.9518H130.431C121.914 83.4735 115.65 75.7779 116.912 67.3407L121.767 34.8906Z" fill="#1073AF"/>
<path d="M108.396 77.0401L114.797 74.8047L113.488 71.0556L107.086 73.2911L108.396 77.0401Z" fill="#003366"/>
<path d="M91.5884 79.9576L92.115 81.4691C92.2808 81.9436 92.5425 82.3789 92.8838 82.748C93.225 83.117 93.6386 83.4119 94.0987 83.6142C94.5588 83.8166 95.0556 83.922 95.5583 83.9241C96.0609 83.9262 96.5586 83.8248 97.0204 83.6263L107.534 79.1075C108.19 78.8249 108.75 78.3565 109.144 77.7599C109.538 77.1632 109.749 76.4644 109.751 75.7495C109.752 75.1855 109.623 74.6288 109.374 74.1229C109.124 73.617 108.762 73.1754 108.314 72.8326C107.866 72.4898 107.345 72.255 106.791 72.1466C106.238 72.0381 105.667 72.0588 105.123 72.2071L94.0848 75.2155C93.5996 75.3469 93.1466 75.5769 92.7543 75.8911C92.3619 76.2053 92.0385 76.597 91.8043 77.0418C91.57 77.4866 91.43 77.9748 91.3928 78.4761C91.3557 78.9774 91.4222 79.481 91.5884 79.9555V79.9576Z" fill="#D0195C"/>
<path d="M92.8343 77.2136L93.361 78.7252C93.5269 79.1997 93.7887 79.6351 94.13 80.0041C94.4714 80.3731 94.8851 80.6679 95.3453 80.8701C95.8056 81.0724 96.3025 81.1778 96.8052 81.1797C97.3079 81.1816 97.8056 81.0801 98.2674 80.8813L108.781 76.3625C109.134 76.2107 109.461 76.0038 109.75 75.7495C109.751 75.1855 109.622 74.6288 109.372 74.1229C109.123 73.617 108.76 73.1754 108.312 72.8326C107.865 72.4898 107.344 72.255 106.79 72.1466C106.237 72.0381 105.666 72.0588 105.121 72.2071L94.0836 75.2155C93.5456 75.3609 93.048 75.6275 92.6289 75.9949C92.6278 76.4099 92.6973 76.822 92.8343 77.2136Z" fill="#F24272"/>
<path d="M127.38 83.7829C135.925 83.7829 142.853 76.8552 142.853 68.3094C142.853 59.7637 135.925 52.8359 127.38 52.8359C118.834 52.8359 111.906 59.7637 111.906 68.3094C111.906 76.8552 118.834 83.7829 127.38 83.7829Z" fill="#003366"/>
<path d="M115.856 72.333C116.71 74.7694 118.315 76.8717 120.44 78.3372C122.566 79.8027 125.101 80.5557 127.682 80.4877C130.263 80.4197 132.755 79.5342 134.801 77.9588C136.846 76.3834 138.338 74.1994 139.062 71.7215C139.787 69.2436 139.706 66.5997 138.831 64.1707C137.957 61.7417 136.334 59.6531 134.196 58.2057C132.058 56.7583 129.516 56.0268 126.936 56.1168C124.356 56.2067 121.871 57.1133 119.839 58.7061C117.837 60.2782 116.376 62.4371 115.662 64.8807C114.948 67.3242 115.016 69.9299 115.856 72.333Z" fill="#81B4D3"/>
<path d="M119.511 67.5895C120.151 69.4234 121.22 71.078 122.628 72.416C124.037 73.754 125.744 74.7367 127.608 75.2826C129.472 75.8285 131.44 75.9218 133.347 75.5547C135.255 75.1877 137.047 74.3709 138.576 73.1722C139.655 70.681 139.873 67.9012 139.196 65.2721C138.519 62.6431 136.984 60.3148 134.835 58.6554C132.687 56.996 130.046 56.1001 127.331 56.1094C124.616 56.1187 121.982 57.0327 119.845 58.7068C118.616 61.5194 118.497 64.6926 119.511 67.5895Z" fill="#ADD9FF"/>
<path d="M51.5333 54.4558H34.8906C38.1149 49.8738 37.7768 41.0469 37.7768 41.0469H54.4194V41.0743C54.4374 41.6167 54.6533 50.0223 51.5333 54.4558Z" fill="#FFC258"/>
<path d="M51.5333 54.4597H34.8906L41.8426 54.3154C48.8589 54.1689 54.4984 48.4167 54.4258 41.4015C54.4258 41.2962 54.4258 41.1908 54.4205 41.0781C54.4373 41.6206 54.6533 50.0262 51.5333 54.4597Z" fill="#EFAC4B"/>
<path d="M54.4183 38.7266H37.7461V41.046H54.4183V38.7266Z" fill="#EFAC4B"/>
<path d="M52.5847 43.8144H39.4928C39.4648 43.8164 39.4367 43.8127 39.4102 43.8033C39.3837 43.794 39.3595 43.7793 39.3389 43.7602C39.3184 43.7411 39.302 43.7179 39.2908 43.6922C39.2796 43.6664 39.2738 43.6387 39.2738 43.6106C39.2738 43.5825 39.2796 43.5548 39.2908 43.529C39.302 43.5033 39.3184 43.4801 39.3389 43.461C39.3595 43.4419 39.3837 43.4272 39.4102 43.4179C39.4367 43.4085 39.4648 43.4048 39.4928 43.4068H52.5847C52.6127 43.4048 52.6408 43.4085 52.6673 43.4179C52.6937 43.4272 52.718 43.4419 52.7386 43.461C52.7591 43.4801 52.7755 43.5033 52.7867 43.529C52.7979 43.5548 52.8037 43.5825 52.8037 43.6106C52.8037 43.6387 52.7979 43.6664 52.7867 43.6922C52.7755 43.7179 52.7591 43.7411 52.7386 43.7602C52.718 43.7793 52.6937 43.794 52.6673 43.8033C52.6408 43.8127 52.6127 43.8164 52.5847 43.8144ZM52.3055 46.5541H39.2126C39.1611 46.5504 39.1129 46.5273 39.0777 46.4895C39.0425 46.4517 39.0229 46.402 39.0229 46.3503C39.0229 46.2987 39.0425 46.2489 39.0777 46.2111C39.1129 46.1733 39.1611 46.1502 39.2126 46.1465H52.3055C52.3335 46.1445 52.3617 46.1483 52.3881 46.1576C52.4146 46.1669 52.4389 46.1816 52.4594 46.2007C52.48 46.2199 52.4964 46.243 52.5076 46.2687C52.5188 46.2945 52.5245 46.3222 52.5245 46.3503C52.5245 46.3784 52.5188 46.4062 52.5076 46.4319C52.4964 46.4576 52.48 46.4808 52.4594 46.4999C52.4389 46.519 52.4146 46.5337 52.3881 46.543C52.3617 46.5524 52.3335 46.5562 52.3055 46.5541ZM51.9695 49.2928H38.8776C38.8496 49.2948 38.8215 49.291 38.7951 49.2817C38.7686 49.2724 38.7443 49.2577 38.7238 49.2386C38.7032 49.2195 38.6868 49.1963 38.6756 49.1706C38.6644 49.1448 38.6586 49.1171 38.6586 49.089C38.6586 49.0609 38.6644 49.0331 38.6756 49.0074C38.6868 48.9817 38.7032 48.9585 38.7238 48.9394C38.7443 48.9203 38.7686 48.9056 38.7951 48.8963C38.8215 48.8869 38.8496 48.8832 38.8776 48.8852H51.9695C51.9975 48.8832 52.0256 48.8869 52.0521 48.8963C52.0786 48.9056 52.1029 48.9203 52.1234 48.9394C52.144 48.9585 52.1603 48.9817 52.1715 49.0074C52.1828 49.0331 52.1885 49.0609 52.1885 49.089C52.1885 49.1171 52.1828 49.1448 52.1715 49.1706C52.1603 49.1963 52.144 49.2195 52.1234 49.2386C52.1029 49.2577 52.0786 49.2724 52.0521 49.2817C52.0256 49.291 51.9975 49.2948 51.9695 49.2928ZM51.0173 52.0315H37.9202C37.8686 52.0278 37.8204 52.0047 37.7852 51.9669C37.75 51.9291 37.7305 51.8793 37.7305 51.8277C37.7305 51.776 37.75 51.7263 37.7852 51.6884C37.8204 51.6506 37.8686 51.6275 37.9202 51.6238H51.0131C51.0411 51.6218 51.0692 51.6256 51.0957 51.6349C51.1222 51.6443 51.1464 51.6589 51.167 51.6781C51.1875 51.6972 51.2039 51.7203 51.2151 51.7461C51.2263 51.7718 51.2321 51.7996 51.2321 51.8277C51.2321 51.8557 51.2263 51.8835 51.2151 51.9092C51.2039 51.935 51.1875 51.9581 51.167 51.9772C51.1464 51.9964 51.1222 52.0111 51.0957 52.0204C51.0692 52.0297 51.0411 52.0335 51.0131 52.0315H51.0173Z" fill="#003366"/>
<path d="M116.461 19.9153V28.934C116.461 31.6516 114.565 33.8625 112.243 33.8625C111.018 33.8625 109.913 33.2505 109.142 32.2741C108.405 31.3178 108.01 30.1414 108.022 28.934V20.1713C108.022 18.2532 109.358 16.6953 111.001 16.6953C111.374 16.7 111.741 16.7808 112.082 16.9325C112.422 17.0843 112.728 17.3039 112.98 17.578C113.633 18.2832 113.99 19.2123 113.978 20.1734V22.693H113.012V20.1713C113.021 19.5015 112.763 18.8556 112.297 18.3754C111.955 18.0262 111.489 17.8269 111.001 17.8213C109.891 17.8213 108.988 18.8746 108.988 20.1713V28.934C108.981 29.8506 109.277 30.7439 109.831 31.4746C110.426 32.2478 111.29 32.7386 112.248 32.7386C114.039 32.7386 115.501 31.0333 115.501 28.9382V19.9217C115.501 18.4312 114.956 17.0871 114.086 16.1455C113.299 15.2954 112.248 14.7761 111.096 14.7761C108.666 14.7761 106.689 17.085 106.689 19.9227V22.6982H105.723V19.9153C105.723 18.2384 106.282 16.6637 107.296 15.4787C108.311 14.2937 109.66 13.6406 111.096 13.6406C112.472 13.6406 113.771 14.2421 114.771 15.3397C114.812 15.3853 114.853 15.4316 114.894 15.4787C115.902 16.6637 116.461 18.2384 116.461 19.9153Z" fill="#D0195C"/>
<path d="M116.218 19.633V28.6496C116.218 31.3682 114.322 33.5792 111.998 33.5792C110.896 33.5792 109.891 33.083 109.139 32.272C108.403 31.3162 108.008 30.1407 108.02 28.934V20.1713C108.02 18.2532 109.355 16.6953 110.998 16.6953C111.371 16.7 111.739 16.7808 112.079 16.9325C112.419 17.0843 112.725 17.3039 112.978 17.578C113.476 18.2469 113.742 19.0609 113.734 19.8953V22.6972H113.009V20.1713C113.018 19.5015 112.761 18.8556 112.294 18.3754C111.923 17.8645 111.372 17.539 110.756 17.539C109.647 17.539 108.744 18.5923 108.744 19.889V28.6496C108.731 29.6937 109.116 30.7035 109.823 31.4725C110.418 32.2456 111.282 32.7365 112.24 32.7365C114.031 32.7365 115.493 31.0312 115.493 28.9361V19.9195C115.493 18.4291 114.948 17.085 114.078 16.1433C113.273 15.1279 112.121 14.4907 110.846 14.4907C108.416 14.4907 106.44 16.7996 106.44 19.6372V22.6919H105.715V19.9153C105.715 18.2384 106.274 16.6637 107.289 15.4787C108.303 14.2937 109.652 13.6406 111.088 13.6406C112.465 13.6406 113.763 14.2421 114.763 15.3397C115.703 16.5046 116.218 18.0235 116.218 19.633Z" fill="#F24272"/>
</g>
<defs>
<clipPath id="clip0_20094_277408">
<rect width="158" height="92" fill="white"/>
</clipPath>
</defs>
</svg>
