<svg xmlns="http://www.w3.org/2000/svg" width="228" height="179" viewBox="0 0 228 179" fill="none">
<mask id="mask0_10019_147629" style="mask-type:luminance" maskUnits="userSpaceOnUse" x="0" y="0" width="228" height="179">
<path d="M227.345 0H0.648438V178.771H227.345V0Z" fill="white"/>
</mask>
<g mask="url(#mask0_10019_147629)">
<path d="M41.981 21.0854C41.5551 21.1324 41.1446 21.2722 40.7786 21.495C40.4125 21.7178 40.0998 22.0182 39.8624 22.3749C39.6249 22.7316 39.4686 23.1361 39.4044 23.5598C39.3402 23.9835 39.3697 24.4161 39.4908 24.8272L31.0156 30.8834L36.0675 32.8275L43.3411 26.7783C44.0182 26.5292 44.5804 26.0403 44.9211 25.4043C45.2618 24.7683 45.3574 24.0295 45.1897 23.3278C45.0221 22.626 44.6028 22.0102 44.0115 21.5969C43.4201 21.1836 42.6976 21.0016 41.981 21.0854Z" fill="#FFB8B8"/>
<path d="M41.1956 30.2076L30.6829 40.7853C29.2422 42.2256 27.3424 43.1155 25.3137 43.3006L12.3236 44.4859C11.8473 44.5313 11.3668 44.4809 10.9105 44.3375C10.4541 44.1941 10.0311 43.9605 9.66638 43.6509C9.16198 43.2286 8.78688 42.6728 8.58418 42.0469C8.38148 41.4211 8.35948 40.7508 8.52058 40.113C8.68168 39.4752 9.01948 38.8958 9.49518 38.4414C9.97078 37.9869 10.565 37.6759 11.2094 37.5439L24.4803 34.7182L36.5624 25.8121C36.7304 25.7175 36.9202 25.6686 37.1129 25.67C37.3056 25.6714 37.4946 25.7232 37.6612 25.8203L40.9469 28.5119C41.1446 28.6202 41.3034 28.7877 41.401 28.9909C41.4987 29.1941 41.5303 29.4227 41.4913 29.6447C41.453 29.8583 41.3497 30.0549 41.1956 30.2076Z" fill="#FAB133"/>
<path d="M167.231 35.8922C167.309 35.1702 167.163 34.4415 166.813 33.8053C166.463 33.1691 165.925 32.6562 165.273 32.3363L99.849 0.359808C99.433 0.156263 98.981 0.036656 98.518 0.00781922C98.056 -0.0210176 97.593 0.0414784 97.154 0.19174C96.716 0.342002 96.312 0.577087 95.965 0.883571C95.618 1.19006 95.334 1.56193 95.131 1.97798L95.129 1.98044L70.5911 52.1861C70.1815 53.0271 70.1221 53.9961 70.4259 54.8808C70.7297 55.7654 71.3719 56.4935 72.2117 56.9054L137.636 88.8819C138.477 89.2914 139.446 89.3508 140.331 89.047C141.215 88.7432 141.943 88.101 142.355 87.2613L166.894 37.0556C167.073 36.6903 167.187 36.2967 167.231 35.8922Z" fill="#F2F2F2"/>
<path d="M128.907 147.324H44.0155C42.9468 147.323 41.9221 146.898 41.1664 146.142C40.4107 145.386 39.9856 144.362 39.9844 143.293V28.0498C39.9856 26.981 40.4107 25.9564 41.1664 25.2007C41.9221 24.4449 42.9468 24.0199 44.0155 24.0186H128.907C129.976 24.0199 131 24.4449 131.756 25.2007C132.512 25.9564 132.937 26.981 132.938 28.0498V143.293C132.937 144.362 132.512 145.386 131.756 146.142C131 146.898 129.976 147.323 128.907 147.324Z" fill="white"/>
<path d="M66.5306 58.3826C69.5894 58.3826 72.0691 55.9029 72.0691 52.8441C72.0691 49.7853 69.5894 47.3057 66.5306 47.3057C63.4718 47.3057 60.9922 49.7853 60.9922 52.8441C60.9922 55.9029 63.4718 58.3826 66.5306 58.3826Z" fill="#E6E6E6"/>
<path d="M58.0859 67.9815C58.8685 68.4264 59.6876 68.8038 60.5342 69.1098L60.6838 69.1616C62.3891 69.7603 64.1836 70.0651 65.991 70.063C66.3546 70.063 66.7049 70.0503 67.0322 70.0255C67.8286 69.9767 68.6201 69.8676 69.4 69.699C69.828 69.6055 70.2547 69.4936 70.6675 69.367C70.7674 69.3375 70.8598 69.3086 70.961 69.2769C72.6434 68.7314 74.2243 67.9122 75.6401 66.8522C75.5265 66.6373 75.402 66.4282 75.2673 66.2258C74.5393 65.1135 73.5455 64.2003 72.3757 63.5689C71.2059 62.9374 69.8971 62.6077 68.5678 62.6094H65.6528C64.1153 62.6097 62.6102 63.0519 61.3169 63.8833C60.0236 64.7147 58.9965 65.9004 58.3579 67.299C58.2558 67.5218 58.1651 67.7496 58.0859 67.9815Z" fill="#E6E6E6"/>
<path d="M68.4095 69.5613C68.2235 69.5751 68.0445 69.6379 67.8906 69.7434C68.6722 69.6947 69.4489 69.5869 70.2141 69.4209L68.4095 69.5613Z" fill="#2F2E41"/>
<path d="M66.8675 37.8145C63.3004 37.8148 59.8332 38.9927 57.0041 41.1652C54.175 43.3378 52.1421 46.3835 51.2211 49.8296C50.3001 53.2758 50.5424 56.9295 51.9105 60.2239C53.2786 63.5182 55.6959 66.2686 58.7871 68.0485C59.6078 68.5237 60.4692 68.9247 61.3611 69.2467L61.5127 69.2991C63.2333 69.9032 65.044 70.2107 66.8675 70.2086C67.2202 70.2086 67.5729 70.1969 67.9198 70.1707C68.7227 70.1214 69.5208 70.0112 70.3072 69.8413C70.7474 69.7451 71.1788 69.6314 71.5869 69.5061C71.6859 69.4769 71.7792 69.4478 71.8812 69.4157C75.5473 68.2216 78.6673 65.7589 80.6803 62.4704C82.6933 59.1819 83.4673 55.2831 82.8631 51.4751C82.2589 47.667 80.3162 44.1993 77.3842 41.6953C74.4523 39.1913 70.7232 37.8152 66.8675 37.8145ZM76.2653 66.1451C74.868 67.2234 73.2952 68.0527 71.616 68.5966C71.5257 68.6258 71.4323 68.6549 71.3391 68.6841C70.9513 68.8036 70.5433 68.9085 70.1235 68.9989C69.3796 69.1612 68.6244 69.2665 67.8644 69.3137C67.5351 69.337 67.1997 69.3487 66.8675 69.3487C65.1414 69.3497 63.4275 69.059 61.7983 68.4887L61.6556 68.4392C60.7684 68.1204 59.9134 67.7182 59.102 67.2382C56.2761 65.5746 54.0584 63.0484 52.7746 60.0308C51.4909 57.0133 51.2089 53.6636 51.97 50.4739C52.7311 47.2843 54.4953 44.4228 57.0032 42.3101C59.5111 40.1973 62.6306 38.9447 65.9032 38.7363C69.1758 38.5279 72.429 39.3746 75.1847 41.1521C77.9404 42.9296 80.0533 45.5441 81.2129 48.6115C82.3726 51.6788 82.5178 55.0372 81.6272 58.1932C80.7367 61.3492 78.8573 64.1364 76.2653 66.1451Z" fill="#CCCCCC"/>
<path d="M128.907 147.324H44.0155C42.9468 147.323 41.9221 146.898 41.1664 146.142C40.4107 145.386 39.9856 144.362 39.9844 143.293V28.0498C39.9856 26.981 40.4107 25.9564 41.1664 25.2007C41.9221 24.4449 42.9468 24.0199 44.0155 24.0186H128.907C129.976 24.0199 131 24.4449 131.756 25.2007C132.512 25.9564 132.937 26.981 132.938 28.0498V143.293C132.937 144.362 132.512 145.386 131.756 146.142C131 146.898 129.976 147.323 128.907 147.324ZM44.0155 24.4929C43.0725 24.494 42.1684 24.8691 41.5016 25.5359C40.8348 26.2027 40.4597 27.1068 40.4586 28.0498V143.293C40.4597 144.236 40.8348 145.14 41.5016 145.807C42.1684 146.474 43.0725 146.849 44.0155 146.85H128.907C129.85 146.849 130.754 146.474 131.421 145.807C132.088 145.14 132.463 144.236 132.464 143.293V28.0498C132.463 27.1068 132.088 26.2027 131.421 25.5359C130.754 24.8691 129.85 24.494 128.907 24.4929H44.0155Z" fill="#CCCCCC"/>
<path d="M112.469 53.9491H88.4472C87.9432 53.9491 87.4599 53.7489 87.1035 53.3925C86.7471 53.0361 86.5469 52.5528 86.5469 52.0488C86.5469 51.5447 86.7471 51.0614 87.1035 50.705C87.4599 50.3486 87.9432 50.1484 88.4472 50.1484H112.469C112.973 50.1484 113.456 50.3486 113.812 50.705C114.169 51.0614 114.369 51.5447 114.369 52.0488C114.369 52.5528 114.169 53.0361 113.812 53.3925C113.456 53.7489 112.973 53.9491 112.469 53.9491Z" fill="#E6E6E6"/>
<path d="M120.308 60.3632H88.4472C87.9432 60.3632 87.4599 60.163 87.1035 59.8066C86.7471 59.4503 86.5469 58.9669 86.5469 58.4629C86.5469 57.9589 86.7471 57.4755 87.1035 57.1191C87.4599 56.7627 87.9432 56.5625 88.4472 56.5625H120.308C120.812 56.5625 121.295 56.7627 121.651 57.1191C122.008 57.4755 122.208 57.9589 122.208 58.4629C122.208 58.9669 122.008 59.4503 121.651 59.8066C121.295 60.163 120.812 60.3632 120.308 60.3632Z" fill="#E6E6E6"/>
<path d="M112.431 84.9618H52.6035C52.0995 84.9618 51.6161 84.7616 51.2597 84.4052C50.9033 84.0488 50.7031 83.5655 50.7031 83.0615C50.7031 82.5574 50.9033 82.0741 51.2597 81.7177C51.6161 81.3613 52.0995 81.1611 52.6035 81.1611H112.431C112.935 81.1611 113.418 81.3613 113.775 81.7177C114.131 82.0741 114.331 82.5574 114.331 83.0615C114.331 83.5655 114.131 84.0488 113.775 84.4052C113.418 84.7616 112.935 84.9618 112.431 84.9618Z" fill="#E6E6E6"/>
<path d="M120.27 91.3759H52.6035C52.0995 91.3759 51.6161 91.1757 51.2597 90.8193C50.9033 90.4629 50.7031 89.9796 50.7031 89.4756C50.7031 88.9715 50.9033 88.4882 51.2597 88.1318C51.6161 87.7754 52.0995 87.5752 52.6035 87.5752H120.27C120.774 87.5752 121.257 87.7754 121.614 88.1318C121.97 88.4882 122.17 88.9715 122.17 89.4756C122.17 89.9796 121.97 90.4629 121.614 90.8193C121.257 91.1757 120.774 91.3759 120.27 91.3759Z" fill="#E6E6E6"/>
<path d="M112.431 106.117H52.6035C52.0995 106.117 51.6161 105.917 51.2597 105.56C50.9033 105.204 50.7031 104.721 50.7031 104.217C50.7031 103.713 50.9033 103.229 51.2597 102.873C51.6161 102.516 52.0995 102.316 52.6035 102.316H112.431C112.935 102.316 113.418 102.516 113.775 102.873C114.131 103.229 114.331 103.713 114.331 104.217C114.331 104.721 114.131 105.204 113.775 105.56C113.418 105.917 112.935 106.117 112.431 106.117Z" fill="#E6E6E6"/>
<path d="M120.27 112.531H52.6035C52.0995 112.531 51.6161 112.33 51.2597 111.974C50.9033 111.618 50.7031 111.134 50.7031 110.63C50.7031 110.126 50.9033 109.643 51.2597 109.287C51.6161 108.93 52.0995 108.73 52.6035 108.73H120.27C120.774 108.73 121.257 108.93 121.614 109.287C121.97 109.643 122.17 110.126 122.17 110.63C122.17 111.134 121.97 111.618 121.614 111.974C121.257 112.33 120.774 112.531 120.27 112.531Z" fill="#E6E6E6"/>
<path d="M112.431 127.272H52.6035C52.0995 127.272 51.6161 127.072 51.2597 126.716C50.9033 126.359 50.7031 125.876 50.7031 125.372C50.7031 124.868 50.9033 124.384 51.2597 124.028C51.6161 123.672 52.0995 123.471 52.6035 123.471H112.431C112.935 123.471 113.418 123.672 113.775 124.028C114.131 124.384 114.331 124.868 114.331 125.372C114.331 125.876 114.131 126.359 113.775 126.716C113.418 127.072 112.935 127.272 112.431 127.272Z" fill="#E6E6E6"/>
<path d="M120.27 133.686H52.6035C52.0995 133.686 51.6161 133.486 51.2597 133.129C50.9033 132.773 50.7031 132.289 50.7031 131.785C50.7031 131.281 50.9033 130.798 51.2597 130.442C51.6161 130.085 52.0995 129.885 52.6035 129.885H120.27C120.773 129.886 121.256 130.086 121.612 130.443C121.968 130.799 122.168 131.282 122.168 131.785C122.168 132.289 121.968 132.772 121.612 133.128C121.256 133.485 120.773 133.685 120.27 133.686Z" fill="#E6E6E6"/>
<path d="M164.317 68.8317C164.395 68.1097 164.249 67.381 163.899 66.7448C163.549 66.1086 163.011 65.5957 162.359 65.2758L96.935 33.2993C96.519 33.0958 96.067 32.9762 95.604 32.9473C95.142 32.9185 94.679 32.981 94.24 33.1312C93.8023 33.2815 93.3981 33.5166 93.0508 33.8231C92.7036 34.1296 92.42 34.5014 92.2165 34.9175L92.2153 34.9199L67.677 85.1256C67.2675 85.9666 67.2081 86.9356 67.5119 87.8203C67.8157 88.7049 68.4578 89.433 69.2976 89.8449L134.722 121.821C135.563 122.231 136.532 122.29 137.416 121.986C138.301 121.682 139.029 121.04 139.441 120.2L163.979 69.9951C164.159 69.6299 164.273 69.2362 164.317 68.8317Z" fill="white"/>
<path d="M164.317 68.8317C164.395 68.1097 164.249 67.381 163.899 66.7448C163.549 66.1086 163.011 65.5957 162.359 65.2758L96.935 33.2993C96.519 33.0958 96.067 32.9762 95.604 32.9473C95.142 32.9185 94.679 32.981 94.24 33.1312C93.8023 33.2815 93.3981 33.5166 93.0508 33.8231C92.7036 34.1296 92.42 34.5014 92.2165 34.9175L92.2153 34.9199L67.677 85.1256C67.2675 85.9666 67.2081 86.9356 67.5119 87.8203C67.8157 88.7049 68.4578 89.433 69.2976 89.8449L134.722 121.821C135.563 122.231 136.532 122.29 137.416 121.986C138.301 121.682 139.029 121.04 139.441 120.2L163.979 69.9951C164.159 69.6299 164.273 69.2362 164.317 68.8317ZM139.068 120.018C138.705 120.759 138.062 121.326 137.282 121.594C136.501 121.862 135.646 121.81 134.904 121.448L69.4799 89.472C68.7388 89.1087 68.1721 88.4662 67.904 87.6856C67.6359 86.905 67.6884 86.0499 68.0499 85.3079L92.5883 35.1022C92.9516 34.3611 93.594 33.7944 94.375 33.5263C95.155 33.2582 96.01 33.3107 96.752 33.6723L162.177 65.6487C162.918 66.012 163.484 66.6545 163.752 67.4351C164.021 68.2157 163.968 69.0708 163.607 69.8128L139.068 120.018Z" fill="#3F3D56"/>
<path d="M157.183 71.1147L140.048 106.172C139.934 106.406 139.732 106.585 139.485 106.669C139.239 106.754 138.969 106.737 138.735 106.623L79.2228 77.5364C79.1803 77.5161 79.1395 77.4921 79.1011 77.4648C78.9059 77.332 78.7652 77.1332 78.7047 76.9051C78.6442 76.6769 78.6679 76.4345 78.7716 76.2225L95.906 41.1654C95.962 41.0495 96.041 40.9459 96.138 40.8605C96.235 40.7751 96.347 40.7095 96.469 40.6676C96.591 40.6257 96.72 40.6082 96.849 40.6161C96.978 40.6241 97.103 40.6573 97.219 40.7139L156.731 69.8008C156.966 69.9151 157.145 70.1176 157.229 70.3639C157.314 70.6102 157.297 70.8806 157.183 71.1147Z" fill="#E6E6E6"/>
<path d="M104.939 69.3339C109.699 69.3339 113.558 65.4753 113.558 60.7153C113.558 55.9554 109.699 52.0967 104.939 52.0967C100.179 52.0967 96.3203 55.9554 96.3203 60.7153C96.3203 65.4753 100.179 69.3339 104.939 69.3339Z" fill="#FAB133"/>
<path d="M117.552 96.4452L79.5661 77.8793C79.5183 77.8567 79.4726 77.8297 79.4297 77.7987L112.605 55.4604C112.809 55.3202 113.047 55.2368 113.294 55.2186C113.542 55.2004 113.789 55.2482 114.012 55.357C114.235 55.4659 114.424 55.6319 114.562 55.8381C114.699 56.0442 114.78 56.2833 114.795 56.5306L116.645 83.307L116.734 84.5886L117.552 96.4452Z" fill="#B5BECB"/>
<path opacity="0.2" d="M117.555 96.4447L104.586 90.1058L115.472 83.9697L116.256 83.5278L116.648 83.3066L116.737 84.588L117.555 96.4447Z" fill="black"/>
<path d="M138.706 106.782L105.852 90.7243L116.738 84.5882L117.522 84.146L131.708 76.1493C132.638 75.6252 133.971 76.2156 134.273 77.2182C134.293 77.2862 134.309 77.3555 134.32 77.4255L138.706 106.782Z" fill="#B5BECB"/>
<path d="M37.329 109.842H40.9025L42.6028 96.0576L37.3281 96.0579L37.329 109.842Z" fill="#FFB8B8"/>
<path d="M36.4219 108.676L43.4597 108.675C44.0487 108.675 44.6323 108.791 45.1764 109.017C45.7206 109.242 46.215 109.572 46.6315 109.989C47.048 110.405 47.3784 110.9 47.6037 111.444C47.8291 111.988 47.9452 112.571 47.9451 113.16V113.306L36.4221 113.307L36.4219 108.676Z" fill="#2F2E41"/>
<path d="M9.55469 107.567L13.2573 108.291L17.8128 94.3541L12.3484 93.2852L9.55469 107.567Z" fill="#FFB8B8"/>
<path d="M8.84475 106.173L16.1364 107.6C16.7466 107.719 17.3276 107.957 17.8457 108.301C18.3638 108.645 18.8092 109.088 19.1562 109.604C19.5033 110.119 19.7453 110.699 19.8685 111.308C19.9918 111.918 19.9937 112.545 19.8743 113.156L19.8449 113.307L7.90625 110.971L8.84475 106.173Z" fill="#2F2E41"/>
<path d="M42.5349 62.2925C42.4139 61.8814 42.2042 61.5018 41.9207 61.1805C41.6371 60.8592 41.2865 60.604 40.8937 60.4328C40.5008 60.2617 40.0752 60.1787 39.6468 60.1899C39.2185 60.201 38.7977 60.3059 38.4143 60.4972L30.9653 53.2158L29.9375 58.5304L37.1688 64.6301C37.5328 65.253 38.1128 65.7207 38.7986 65.9445C39.4845 66.1684 40.2287 66.1329 40.8901 65.8448C41.5516 65.5566 42.0843 65.0358 42.3875 64.3811C42.6906 63.7264 42.743 62.9833 42.5349 62.2925Z" fill="#FFB8B8"/>
<path d="M14.8939 24.815C18.8479 24.815 22.0533 21.6096 22.0533 17.6555C22.0533 13.7015 18.8479 10.4961 14.8939 10.4961C10.9398 10.4961 7.73438 13.7015 7.73438 17.6555C7.73438 21.6096 10.9398 24.815 14.8939 24.815Z" fill="#FFB8B8"/>
<path d="M13.3884 24.9237C13.7687 25.0901 14.5477 22.059 14.1988 21.4528C13.6798 20.5512 13.7105 20.5577 13.366 19.9612C13.0215 19.3647 12.9445 18.5483 13.3906 18.0234C13.8367 17.4986 14.869 17.5682 15.0726 18.2263C14.9417 16.9764 16.178 15.9717 17.4026 15.6893C18.6272 15.407 19.9189 15.5823 21.1503 15.331C22.5793 15.0394 24.0662 13.8416 23.496 12.2701C23.3982 12.0085 23.2517 11.7677 23.0643 11.5606C22.4055 10.8199 21.484 10.5036 20.5831 10.1978C18.7087 9.56164 16.7831 8.91747 14.8049 8.98769C13.1751 9.07292 11.6054 9.63142 10.288 10.5949C8.97061 11.5583 7.96261 12.8849 7.38741 14.4122C7.25111 14.7943 7.14551 15.1867 7.07161 15.5856C6.39261 19.2364 8.51271 22.8375 11.956 24.2277L13.3884 24.9237Z" fill="#2F2E41"/>
<path d="M11.6302 64.2537C11.4476 64.1433 11.3012 63.9819 11.2092 63.7894C11.1171 63.5969 11.0833 63.3817 11.1119 63.1702L7.88133 47.1666L4.60653 34.8844C4.24703 33.5386 4.35563 32.1105 4.91453 30.8345C5.47333 29.5585 6.44933 28.5104 7.68223 27.862L9.84723 25.8135L14.5701 27.8483L16.8144 30.1302C18.424 30.914 19.8519 32.0259 21.0062 33.3944C22.1605 34.763 23.0157 36.3579 23.5168 38.0767L27.1163 50.3939L35.4291 62.7611C35.5679 62.9672 35.6328 63.2143 35.6132 63.462C35.5937 63.7097 35.4908 63.9435 35.3214 64.1253C34.165 65.3693 11.6302 64.2537 11.6302 64.2537Z" fill="#FAB133"/>
<path d="M33.4089 63.1173L21.1512 54.6232C19.4805 53.4575 18.271 51.7433 17.7328 49.7785L14.2873 37.1977C14.159 36.7368 14.1245 36.2549 14.1856 35.7804C14.2467 35.306 14.4024 34.8486 14.6433 34.4353C14.9705 33.8646 15.452 33.3978 16.0326 33.0884C16.6131 32.7791 17.2692 32.6398 17.9254 32.6866C18.5815 32.7333 19.2112 32.9643 19.742 33.3528C20.2729 33.7413 20.6833 34.2717 20.9263 34.8831L26.0361 47.4525L36.9236 57.785C37.0461 57.9338 37.1276 58.112 37.16 58.302C37.1924 58.492 37.1746 58.6872 37.1083 58.8681L35.0347 62.5751C34.9628 62.7887 34.8257 62.9744 34.6428 63.1062C34.4599 63.2379 34.2404 63.3091 34.0149 63.3098C33.7979 63.3095 33.5863 63.2423 33.4089 63.1173Z" fill="#FAB133"/>
<path d="M7.94631 105.434C7.84611 105.29 7.78191 105.124 7.75921 104.951C7.73651 104.777 7.75591 104.6 7.81581 104.436L13.4865 83.8214L13.9057 63.6221L32.9948 62.3129L33.0875 62.3066L38.837 72.7274C40.6371 75.9854 41.7391 79.5826 42.0727 83.2899L43.9675 104.053C43.9961 104.335 43.9129 104.617 43.7357 104.839C43.5585 105.061 43.3015 105.204 43.0199 105.238L37.2641 105.785C36.9868 105.819 36.7072 105.743 36.4851 105.574C36.263 105.404 36.1159 105.155 36.0751 104.878L33.7379 83.7789L25.3283 69.5699L22.5054 84.529L16.6571 105.187C16.5807 105.393 16.4433 105.571 16.2632 105.698C16.0832 105.824 15.869 105.893 15.6491 105.894L8.82801 105.897C8.65431 105.898 8.48311 105.856 8.32941 105.775C8.17561 105.694 8.04411 105.577 7.94631 105.434Z" fill="#112D57"/>
<path d="M154.112 173.233H10.2679C7.7175 173.23 5.2725 172.215 3.46908 170.412C1.66572 168.609 0.651318 166.164 0.648438 163.613V84.6175C0.651318 82.0671 1.66572 79.6221 3.46908 77.8187C5.2725 76.0153 7.7175 75.0009 10.2679 74.9981H27.9043C30.2972 74.996 32.6047 75.8879 34.3741 77.499L53.4997 91.1559C54.7466 92.2953 56.375 92.9266 58.0642 92.9252H155.005C156.28 92.9252 157.542 93.1786 158.718 93.6708C159.895 94.1631 160.961 94.8844 161.856 95.7925C162.751 96.7007 163.457 97.7777 163.932 98.961C164.407 100.144 164.642 101.41 164.623 102.685L163.73 163.754C163.683 166.277 162.65 168.682 160.852 170.453C159.055 172.225 156.635 173.222 154.112 173.233Z" fill="white"/>
<path d="M152.832 168.569H11.117C9.88666 168.567 8.70716 168.078 7.83726 167.208C6.96726 166.338 6.47796 165.159 6.47656 163.928V83.6405C6.47796 82.4101 6.96726 81.2306 7.83726 80.3607C8.70716 79.4907 9.88666 79.0014 11.117 79C12.2052 79.0012 13.2485 79.434 14.018 80.2035C14.7874 80.9729 15.2203 82.0162 15.2215 83.1044V158.39C15.2228 159.543 15.6814 160.648 16.4967 161.464C17.312 162.279 18.4175 162.738 19.5705 162.739H152.353C153.013 162.732 153.656 162.945 154.18 163.346C154.704 163.747 155.078 164.312 155.244 164.951C155.429 165.556 155.406 166.206 155.178 166.797C154.951 167.388 154.532 167.886 153.988 168.211C153.643 168.435 153.243 168.559 152.832 168.569Z" fill="#F2F2F2"/>
<path d="M83.2651 130.012L82.892 129.639C82.8147 129.566 82.7693 129.466 82.7658 129.36C82.7624 129.254 82.8011 129.152 82.8735 129.074C82.8794 129.068 82.8856 129.062 82.892 129.056L86.1655 125.779C86.2014 125.741 86.2444 125.71 86.2922 125.688C86.3399 125.667 86.3915 125.655 86.4439 125.653C86.4963 125.651 86.5486 125.66 86.5977 125.678C86.6467 125.697 86.6917 125.725 86.73 125.761C86.7364 125.767 86.7425 125.773 86.7485 125.779L90.022 129.053C90.0603 129.09 90.0909 129.134 90.1122 129.183C90.1334 129.231 90.1448 129.284 90.1457 129.337C90.1467 129.39 90.1371 129.443 90.1176 129.493C90.0981 129.542 90.0691 129.587 90.0321 129.626L90.022 129.636L89.6489 130.009C89.612 130.047 89.5678 130.078 89.519 130.099C89.4702 130.12 89.4177 130.132 89.3645 130.133C89.3113 130.133 89.2585 130.124 89.209 130.104C89.1595 130.085 89.1143 130.056 89.076 130.019L89.0659 130.009L87.1304 127.968V132.81C87.1308 132.863 87.1207 132.915 87.1009 132.964C87.081 133.013 87.0517 133.058 87.0146 133.095C86.9775 133.133 86.9334 133.163 86.8848 133.184C86.8361 133.204 86.7839 133.215 86.731 133.215H86.7281H86.1888C86.0814 133.215 85.9783 133.173 85.9023 133.097C85.8264 133.021 85.7837 132.918 85.7837 132.81V127.974L83.8481 130.015C83.7731 130.092 83.6706 130.136 83.5631 130.137C83.4557 130.138 83.3521 130.097 83.2752 130.022L83.2651 130.012Z" fill="#FAB133"/>
<path d="M86.4474 122.803C87.7613 122.803 89.0457 123.193 90.1382 123.923C91.2307 124.653 92.0821 125.69 92.585 126.904C93.0878 128.118 93.2193 129.454 92.963 130.742C92.7067 132.031 92.074 133.215 91.1449 134.144C90.2158 135.073 89.0321 135.705 87.7435 135.962C86.4548 136.218 85.1191 136.087 83.9052 135.584C82.6913 135.081 81.6537 134.229 80.9238 133.137C80.1938 132.044 79.8042 130.76 79.8042 129.446C79.8057 127.685 80.5061 125.996 81.7516 124.75C82.9972 123.505 84.686 122.805 86.4474 122.803ZM86.4474 121.928C84.9606 121.928 83.5071 122.369 82.2708 123.195C81.0345 124.021 80.0709 125.196 79.5019 126.569C78.9329 127.943 78.7841 129.455 79.0741 130.913C79.3642 132.371 80.0802 133.711 81.1316 134.762C82.183 135.813 83.5225 136.529 84.9808 136.819C86.4391 137.11 87.9506 136.961 89.3243 136.392C90.698 135.823 91.8721 134.859 92.6982 133.623C93.5242 132.387 93.9651 130.933 93.9651 129.446C93.9651 127.452 93.1731 125.54 91.7633 124.13C90.3534 122.721 88.4412 121.928 86.4474 121.928Z" fill="#112D57"/>
<path d="M154.112 173.233H10.2679C7.7175 173.23 5.2725 172.215 3.46908 170.412C1.66572 168.609 0.651318 166.164 0.648438 163.613V84.6175C0.651318 82.0671 1.66572 79.6221 3.46908 77.8187C5.2725 76.0153 7.7175 75.0009 10.2679 74.9981H27.9043C30.2972 74.996 32.6047 75.8879 34.3741 77.499L53.4997 91.1559C54.7466 92.2953 56.375 92.9266 58.0642 92.9252H155.005C156.28 92.9252 157.542 93.1786 158.718 93.6708C159.895 94.1631 160.961 94.8844 161.856 95.7925C162.751 96.7007 163.457 97.7777 163.932 98.961C164.407 100.144 164.642 101.41 164.623 102.685L163.73 163.754C163.683 166.277 162.65 168.682 160.852 170.453C159.055 172.225 156.635 173.222 154.112 173.233ZM10.2679 75.581C7.8721 75.5838 5.5752 76.5366 3.88115 78.2307C2.18708 79.9247 1.23416 82.2217 1.23143 84.6175V163.613C1.23416 166.009 2.18708 168.306 3.88115 170C5.5752 171.694 7.8721 172.647 10.2679 172.65H154.112C156.482 172.64 158.755 171.703 160.444 170.039C162.132 168.375 163.103 166.116 163.147 163.745L164.04 102.677C164.058 101.479 163.837 100.29 163.391 99.1782C162.945 98.0666 162.282 97.0548 161.441 96.2016C160.6 95.3485 159.598 94.6711 158.493 94.2087C157.388 93.7463 156.203 93.5082 155.005 93.5082H58.0642C56.2357 93.5097 54.4725 92.8287 53.1197 91.5985L33.9942 77.9414C32.3305 76.4211 30.1579 75.5791 27.9043 75.581H10.2679Z" fill="#3F3D56"/>
<path d="M166.3 174.771H162.726L161.609 160.986L166.301 160.987L166.3 174.771Z" fill="#FFB8B8"/>
<path d="M167.211 178.235H155.688V178.089C155.687 177.5 155.803 176.917 156.029 176.373C156.254 175.828 156.585 175.334 157.001 174.917C157.418 174.501 157.911 174.171 158.455 173.945C158.999 173.72 159.584 173.604 160.173 173.604H167.211V178.235Z" fill="#2F2E41"/>
<path d="M206.235 174.771H202.661L200.961 160.986L206.235 160.987V174.771Z" fill="#FFB8B8"/>
<path d="M207.148 178.235H195.625V178.089C195.625 177.5 195.741 176.917 195.966 176.373C196.192 175.828 196.522 175.334 196.939 174.917C197.355 174.501 197.85 174.171 198.394 173.945C198.938 173.72 199.521 173.604 200.11 173.604H207.148V178.235Z" fill="#2F2E41"/>
<path d="M194.483 132.158C194.976 131.58 195.254 130.849 195.27 130.089C195.285 129.329 195.037 128.587 194.568 127.989C194.473 127.875 194.369 127.769 194.256 127.671L196.948 117.734L192.461 119.222L190.593 128.431C190.283 128.999 190.146 129.645 190.199 130.29C190.251 130.935 190.491 131.55 190.89 132.06C191.098 132.335 191.365 132.56 191.672 132.718C191.979 132.876 192.318 132.963 192.663 132.972C193.008 132.982 193.351 132.913 193.666 132.773C193.981 132.632 194.26 132.422 194.483 132.158Z" fill="#FFB8B8"/>
<path d="M194.318 126.045C194.262 126.045 194.206 126.041 194.15 126.032L191.812 125.68C191.631 125.649 191.458 125.578 191.306 125.473C191.154 125.368 191.027 125.231 190.934 125.071C190.732 124.732 190.659 124.331 190.729 123.943L193.646 107.653L191.668 97.1879C191.286 95.1739 192.27 93.1398 193.956 92.4563C194.457 92.2518 195.001 92.1803 195.537 92.249C196.074 92.3177 196.583 92.5241 197.015 92.8482C197.482 93.2016 197.869 93.6491 198.151 94.1618C198.433 94.6744 198.605 95.2408 198.654 95.8239L200.054 109.168L200.037 109.226L195.531 125.039C195.466 125.316 195.313 125.564 195.094 125.746C194.875 125.928 194.602 126.033 194.318 126.045Z" fill="#FAB133"/>
<path d="M193.62 86.6891C197.574 86.6891 200.78 83.4837 200.78 79.5296C200.78 75.5756 197.574 72.3701 193.62 72.3701C189.666 72.3701 186.461 75.5756 186.461 79.5296C186.461 83.4837 189.666 86.6891 193.62 86.6891Z" fill="#FFB8B8"/>
<path d="M189.96 112.81C189.782 112.81 189.605 112.777 189.438 112.713L178.122 108.361C177.816 108.244 177.558 108.027 177.391 107.745C177.224 107.463 177.157 107.133 177.201 106.808L177.655 103.399C177.386 102.191 177.41 100.936 177.727 99.7387C178.045 98.542 178.645 97.4389 179.477 96.5226L179.753 96.2194L183.101 90.1144C183.327 89.7007 183.634 89.3361 184.002 89.0415C184.371 88.7469 184.794 88.5281 185.247 88.3978C185.701 88.2675 186.175 88.2283 186.644 88.2824C187.112 88.3365 187.566 88.4828 187.977 88.7129L193.89 92.0168C194.668 92.451 195.255 93.1607 195.537 94.0063C196.332 96.4001 196.273 98.9958 195.37 101.351L191.322 111.876C191.215 112.151 191.028 112.386 190.785 112.553C190.542 112.72 190.254 112.809 189.96 112.81Z" fill="#FAB133"/>
<path d="M160.307 171.386L160.292 171.383C160.099 171.346 159.915 171.27 159.752 171.161C159.589 171.051 159.45 170.909 159.343 170.744C159.237 170.579 159.164 170.394 159.131 170.2C159.097 170.007 159.103 169.808 159.148 169.617L167.82 131.711C169.24 125.702 171.201 119.834 173.68 114.178L177.369 105.767L191.135 112.052L193.101 115.646C194.633 119.65 195.421 123.9 195.426 128.187L209.414 169.181C209.482 169.381 209.506 169.594 209.484 169.804C209.462 170.015 209.394 170.218 209.286 170.399C209.177 170.581 209.031 170.737 208.856 170.856C208.681 170.975 208.483 171.055 208.274 171.09L200.617 171.003C200.545 171.016 200.471 171.022 200.398 171.021C200.108 171.022 199.824 170.935 199.584 170.772C199.344 170.609 199.158 170.378 199.051 170.108L183.061 128.661C183.038 128.606 182.999 128.559 182.949 128.527C182.899 128.494 182.84 128.478 182.781 128.48C182.722 128.481 182.666 128.5 182.619 128.534C182.572 128.569 182.536 128.617 182.517 128.672L167.346 170.325C167.229 170.649 167.002 170.921 166.703 171.092C166.405 171.263 166.055 171.323 165.717 171.261L160.307 171.386Z" fill="#112D57"/>
<path d="M170.773 124.771C171.177 124.628 171.544 124.397 171.849 124.096C172.154 123.795 172.39 123.431 172.539 123.029C172.688 122.628 172.747 122.198 172.712 121.771C172.677 121.344 172.549 120.93 172.337 120.557L179.194 112.716L173.83 111.985L168.141 119.543C167.54 119.941 167.105 120.546 166.919 121.243C166.734 121.941 166.811 122.682 167.135 123.326C167.459 123.971 168.009 124.474 168.679 124.74C169.35 125.006 170.095 125.017 170.773 124.771Z" fill="#FFB8B8"/>
<path d="M174.002 119.247C173.763 119.247 173.528 119.188 173.317 119.076L170.904 117.79C170.727 117.695 170.572 117.565 170.447 117.408C170.323 117.25 170.232 117.069 170.181 116.875C170.13 116.681 170.119 116.478 170.15 116.28C170.181 116.082 170.252 115.892 170.36 115.722L179.272 101.679L180.817 91.0814C180.897 90.5337 181.088 90.0079 181.377 89.5358C181.666 89.0637 182.047 88.6552 182.499 88.335C182.951 88.0148 183.462 87.7896 184.003 87.673C184.545 87.5563 185.104 87.5507 185.647 87.6564C186.19 87.7622 186.707 87.9771 187.165 88.2881C187.622 88.5992 188.012 88.9999 188.311 89.4661C188.609 89.9323 188.81 90.4541 188.901 91.0002C188.992 91.5462 188.971 92.105 188.84 92.6427L185.649 105.705L175.137 118.707C175 118.876 174.827 119.013 174.631 119.106C174.434 119.2 174.219 119.248 174.002 119.247Z" fill="#FAB133"/>
<path d="M187.18 73.6226C188.008 70.9069 192.793 69.6953 196.77 70.8221C200.747 71.9488 203.604 74.9031 204.269 77.7914C205.741 84.1875 198.06 89.3786 199.452 95.7755C200.373 100.008 205.7 104.009 211.701 104.976C205.088 106.359 197.017 105.143 190.885 101.839C187.068 99.7831 183.866 96.6802 183.915 93.5504C183.944 91.6554 185.149 89.9797 186.624 88.532C188.098 87.0844 189.862 85.7974 191.215 84.2863C192.568 82.7752 193.505 80.9659 193.111 79.0476C192.716 77.1294 190.71 75.1289 188.011 74.5708L187.18 73.6226Z" fill="#2F2E41"/>
<path d="M227.055 178.771H115.995C115.917 178.771 115.843 178.741 115.788 178.686C115.734 178.631 115.703 178.557 115.703 178.48C115.703 178.403 115.734 178.328 115.788 178.274C115.843 178.219 115.917 178.188 115.995 178.188H227.055C227.133 178.188 227.207 178.219 227.261 178.274C227.316 178.328 227.347 178.403 227.347 178.48C227.347 178.557 227.316 178.631 227.261 178.686C227.207 178.741 227.133 178.771 227.055 178.771Z" fill="#CCCCCC"/>
</g>
</svg>