<svg width="306" height="265" viewBox="0 0 306 265" fill="none" xmlns="http://www.w3.org/2000/svg">
<g clip-path="url(#clip0_20981_299824)">
<g clip-path="url(#clip1_20981_299824)">
<path opacity="0.7" d="M160.438 72.8407C128.908 79.5033 133.605 116.341 79.3081 137.013C21.1209 159.163 56.3653 242.746 122.571 247.491C188.464 252.235 227.965 222.514 234.729 166.049C239.819 123.6 207.306 62.9384 160.438 72.8407Z" fill="url(#paint0_radial_20981_299824)"/>
<path opacity="0.7" d="M86.9382 127.964C101.083 123.105 122.522 100.392 114.768 74.9486C107.014 49.5048 45.1871 142.333 86.9382 127.964Z" fill="url(#paint1_radial_20981_299824)"/>
<path d="M48.2969 246.641H225.875V247.989H48.2969V246.641Z" fill="#131313"/>
<path d="M55.7411 227.462C55.6675 227.645 55.5413 227.802 55.3784 227.913C55.2155 228.024 55.0232 228.085 54.826 228.086C54.6288 228.088 54.4355 228.032 54.2705 227.923C54.1056 227.815 53.9764 227.661 53.8994 227.479C53.8224 227.297 53.801 227.097 53.838 226.903C53.8749 226.71 53.9685 226.531 54.107 226.391C54.2454 226.25 54.4224 226.154 54.6156 226.114C54.8087 226.074 55.0094 226.093 55.1921 226.167C55.4362 226.266 55.631 226.458 55.7339 226.701C55.8368 226.944 55.8394 227.217 55.7411 227.462Z" fill="url(#paint2_linear_20981_299824)"/>
<path d="M151.585 134.305C151.511 134.488 151.385 134.646 151.222 134.757C151.059 134.868 150.867 134.928 150.67 134.93C150.473 134.932 150.279 134.875 150.114 134.767C149.949 134.659 149.82 134.504 149.743 134.323C149.666 134.141 149.645 133.941 149.682 133.747C149.719 133.553 149.812 133.375 149.951 133.235C150.089 133.094 150.266 132.998 150.459 132.958C150.652 132.918 150.853 132.937 151.036 133.011C151.157 133.059 151.268 133.131 151.361 133.223C151.455 133.314 151.529 133.423 151.58 133.544C151.631 133.664 151.658 133.793 151.659 133.924C151.66 134.055 151.634 134.185 151.585 134.305Z" fill="url(#paint3_linear_20981_299824)"/>
<path d="M94.3678 88.9668C94.2374 89.2918 94.0135 89.5708 93.7244 89.7684C93.4353 89.9661 93.094 90.0735 92.7438 90.077C92.3936 90.0805 92.0503 89.98 91.7573 89.7882C91.4642 89.5964 91.2348 89.322 91.0978 88.9997C90.9609 88.6774 90.9228 88.3217 90.9882 87.9776C91.0536 87.6336 91.2196 87.3167 91.4653 87.0671C91.711 86.8175 92.0252 86.6465 92.3681 86.5756C92.7111 86.5048 93.0674 86.5373 93.3918 86.6691C93.607 86.7556 93.803 86.8837 93.9686 87.046C94.1342 87.2084 94.2661 87.4019 94.3568 87.6153C94.4475 87.8288 94.4951 88.0581 94.497 88.29C94.4989 88.5219 94.455 88.7519 94.3678 88.9668Z" fill="url(#paint4_linear_20981_299824)"/>
<path d="M74.2248 176.309C74.0934 176.633 73.8688 176.911 73.5795 177.107C73.2901 177.304 72.9489 177.41 72.5991 177.413C72.2493 177.416 71.9065 177.315 71.6142 177.123C71.3218 176.93 71.0929 176.656 70.9565 176.334C70.82 176.012 70.7822 175.656 70.8477 175.313C70.9132 174.969 71.0791 174.653 71.3244 174.403C71.5698 174.154 71.8836 173.983 72.2261 173.912C72.5686 173.841 72.9245 173.873 73.2488 174.004C73.6828 174.182 74.0289 174.523 74.2118 174.955C74.3946 175.387 74.3993 175.873 74.2248 176.309Z" fill="url(#paint5_linear_20981_299824)"/>
<path d="M256.573 122.002C256.443 122.326 256.219 122.604 255.93 122.801C255.641 122.998 255.3 123.105 254.95 123.108C254.601 123.112 254.258 123.011 253.965 122.82C253.672 122.629 253.443 122.355 253.306 122.033C253.169 121.712 253.13 121.357 253.194 121.013C253.259 120.669 253.424 120.352 253.668 120.102C253.913 119.852 254.226 119.681 254.568 119.608C254.91 119.536 255.266 119.567 255.591 119.697C256.026 119.873 256.374 120.215 256.558 120.646C256.742 121.078 256.748 121.566 256.573 122.002Z" fill="url(#paint6_linear_20981_299824)"/>
<path d="M176.288 59.4312C176.157 59.7555 175.933 60.0336 175.644 60.2306C175.356 60.4276 175.015 60.5345 174.665 60.5379C174.315 60.5413 173.973 60.441 173.68 60.2497C173.387 60.0584 173.158 59.7846 173.021 59.463C172.884 59.1413 172.845 58.7862 172.909 58.4426C172.974 58.0989 173.139 57.7821 173.383 57.5321C173.628 57.2821 173.941 57.1102 174.283 57.0381C174.625 56.9659 174.981 56.9968 175.306 57.1268C175.522 57.2133 175.718 57.3416 175.885 57.5043C176.051 57.667 176.184 57.861 176.275 58.075C176.366 58.2891 176.415 58.5191 176.417 58.7518C176.419 58.9845 176.375 59.2154 176.288 59.4312Z" fill="url(#paint7_linear_20981_299824)"/>
<mask id="mask0_20981_299824" style="mask-type:luminance" maskUnits="userSpaceOnUse" x="67" y="124" width="119" height="123">
<path d="M67.7773 124.172H185.751V246.619H67.7773V124.172Z" fill="white"/>
</mask>
<g mask="url(#mask0_20981_299824)">
<path d="M153.662 179.005C153.662 179.005 170.762 184.014 173.765 185.6C180.4 189.104 183.308 204.144 176.564 206.442C169.82 208.74 154.828 207.838 143.353 202.924C131.878 198.01 138.805 175.65 153.662 179.005Z" fill="#FFB099"/>
<path d="M184.514 143.927C183.158 142.612 182.785 140.505 180.793 139.942C179.522 139.548 178.348 138.89 177.35 138.01C178.949 136.113 181.125 132.825 181.986 130.196C182.704 128.013 181.308 127.817 180.569 128.711C178.888 130.745 174.435 134.872 172.802 137.577C172.788 137.6 172.776 137.625 172.768 137.651C171.358 139.359 169.101 146.937 169.081 148.496C169.047 150.793 170.274 151.166 170.057 156.947C170.735 166.802 161.103 193.547 161.3 197.289C161.937 209.272 181.179 209.821 183.714 198.522C185.747 189.515 181.145 166.409 178.251 157.646C176.74 153.091 182.175 152.562 183.673 150.258C185.171 147.953 185.869 145.235 184.514 143.927Z" fill="#FFB099"/>
<path d="M165.38 183.187L153.539 179.717L153.709 179.141L165.38 182.597V183.187Z" fill="#1A120E"/>
<path d="M113.774 179.707C111.991 183.353 111.246 188.281 118.599 194.848C125.953 201.416 143.508 208.275 157.856 210.857C157.856 210.857 170.158 192.239 161.97 178.9C161.97 178.9 137.198 173.6 129.064 172.624C120.931 171.648 115.732 175.688 113.774 179.707Z" fill="url(#paint8_linear_20981_299824)"/>
<path d="M162.664 202.375C161.56 205.43 160.126 208.355 158.387 211.098L158.299 211.227H158.143C157.947 211.227 138.393 211.62 125.129 202.592L125.468 202.09C137.946 210.583 156.09 210.637 158.001 210.623C158.638 209.634 162.61 203.263 163.803 195.875L164.406 195.97C164.024 198.154 163.441 200.298 162.664 202.375Z" fill="#1A120E"/>
<path d="M145.883 190.554C149.394 203.466 146.398 243.502 150.478 249.365C150.478 249.365 145.645 259.66 132.727 256.373C112.597 251.249 95.4493 293.454 79.3182 285.24C72.7505 241.421 82.0293 185.721 96.6422 177.005C111.499 168.147 139.518 167.11 145.883 190.554Z" fill="url(#paint9_linear_20981_299824)"/>
<path d="M148.363 238.709L148.946 238.648C148.946 238.56 148.445 230.149 148.621 223.025C148.797 215.902 146.262 193.454 146.235 193.203L145.652 193.271C145.652 193.495 148.208 215.848 148.038 222.985C147.869 230.122 148.357 238.628 148.363 238.709Z" fill="#1A120E"/>
<path d="M123.448 159.612L124.404 172.259C124.065 173.438 122.187 178.63 109.913 173.35L109.188 156.25C113.869 157.657 118.631 158.779 123.448 159.612Z" fill="#FFB099"/>
<path d="M124.273 170.288C124.273 170.288 119.982 175.08 109.863 162.832C109.863 162.832 109.802 161.66 109.863 161.68C118.972 165.55 124.645 163.022 124.273 170.288Z" fill="#FF7761"/>
<path d="M124.485 166.997C121.015 168.698 112.36 167.14 109.385 164.679C108.327 163.798 107.026 160.707 106.762 159.04C105.928 153.794 105.026 149.117 107.921 146.115C109.147 144.861 113.106 143.444 114.61 143.045C119.572 141.743 122.262 144.908 124.58 149.483C127.183 154.614 130.599 164.022 124.485 166.997Z" fill="#FFB099"/>
<path d="M122.941 158.151C123.218 157.9 124.628 156.592 124.499 155.697C124.478 155.565 124.423 155.44 124.34 155.334C124.257 155.229 124.149 155.146 124.025 155.094C121.992 154.138 121.172 151.84 121.043 151.413C121.193 150.909 121.49 150.461 121.895 150.125C122.301 149.79 122.797 149.582 123.32 149.529L123.239 148.953C122.588 149.029 121.975 149.298 121.478 149.726C120.982 150.154 120.625 150.72 120.453 151.352V151.495C120.487 151.61 121.266 154.45 123.774 155.622C123.889 155.677 123.91 155.731 123.917 155.785C123.984 156.212 123.137 157.188 122.561 157.717L122.941 158.151Z" fill="#1A120E"/>
<path d="M109.518 158.19C109.835 158.828 109.956 159.546 109.866 160.253C109.776 160.96 109.477 161.625 109.009 162.163C108.542 162.7 107.925 163.087 107.237 163.275C106.549 163.462 105.821 163.441 105.145 163.215C104.469 162.989 103.875 162.567 103.438 162.003C103.002 161.44 102.742 160.759 102.692 160.048C102.643 159.337 102.805 158.627 103.158 158.008C103.512 157.389 104.041 156.888 104.678 156.57C105.102 156.357 105.564 156.23 106.037 156.197C106.51 156.163 106.985 156.223 107.435 156.374C107.885 156.524 108.3 156.762 108.658 157.074C109.015 157.385 109.307 157.765 109.518 158.19Z" fill="#FFB099"/>
<path d="M107.086 162.27C107.261 162.171 107.401 162.019 107.486 161.836C107.737 161.307 107.289 160.948 106.964 160.684C106.639 160.42 106.456 160.23 106.53 160.006C106.585 159.878 106.649 159.753 106.72 159.633C106.847 159.478 106.937 159.296 106.985 159.102C107.033 158.907 107.038 158.705 106.998 158.508C106.935 158.37 106.841 158.248 106.724 158.151C106.606 158.055 106.468 157.987 106.32 157.952C105.959 157.835 105.571 157.824 105.204 157.92C104.836 158.016 104.504 158.215 104.246 158.495L104.68 158.881C104.86 158.688 105.092 158.551 105.347 158.485C105.603 158.418 105.872 158.427 106.124 158.508C106.3 158.569 106.408 158.637 106.435 158.712C106.462 158.786 106.327 159.125 106.198 159.349C106.113 159.496 106.036 159.647 105.968 159.803C105.73 160.481 106.246 160.86 106.584 161.158C106.923 161.457 106.984 161.517 106.944 161.612C106.734 162.053 105.832 161.836 105.825 161.829L105.676 162.399C106.146 162.53 106.648 162.484 107.086 162.27ZM124.247 159.789C124.812 159.464 125.343 159.085 125.833 158.657L125.447 158.223C125.447 158.223 123.156 160.257 120.567 160.399L120.601 160.982C121.893 160.873 123.141 160.465 124.247 159.789ZM115.775 155.296C115.775 155.343 115.809 155.39 115.829 155.431C115.943 155.658 116.142 155.832 116.382 155.912C116.623 155.993 116.886 155.975 117.114 155.861C117.341 155.748 117.514 155.549 117.595 155.308C117.676 155.068 117.657 154.804 117.544 154.577C117.449 154.383 117.288 154.229 117.09 154.143C116.706 154.585 116.263 154.973 115.775 155.296ZM121.997 152.191C122.012 152.24 122.03 152.287 122.051 152.334C122.118 152.473 122.218 152.595 122.342 152.688C122.466 152.781 122.611 152.842 122.763 152.867C122.916 152.893 123.073 152.88 123.22 152.832C123.367 152.783 123.501 152.7 123.609 152.589C123.717 152.478 123.797 152.343 123.841 152.194C123.886 152.046 123.894 151.889 123.865 151.737C123.835 151.585 123.77 151.442 123.674 151.32C123.578 151.199 123.453 151.102 123.312 151.039C122.928 151.481 122.485 151.868 121.997 152.191ZM114.135 154.53C116.107 151.819 117.429 152.571 117.442 152.578L117.754 152.083C117.68 152.035 115.985 151.005 113.688 154.184L114.135 154.53ZM125.84 183.315C130.341 182.854 132.177 178.53 132.252 178.347L131.71 178.123C131.71 178.164 129.927 182.305 125.779 182.732L125.84 183.315ZM132.842 246.619V246.036C132.713 246.036 119.659 245.237 115.823 234.013L115.274 234.202C119.286 245.806 132.72 246.612 132.842 246.619Z" fill="#1A120E"/>
<path d="M108.712 154.073L109.715 158.255C109.322 158.5 108.895 158.685 108.448 158.804C106.529 154.968 103.703 157.279 103.703 157.279C98.5724 154.249 98.9587 144.842 102.429 143.439C102.429 143.439 102.869 137.576 110.982 136.058C119.095 134.54 120.58 139.277 120.58 139.277C120.58 139.277 122.972 139.115 124.396 142.666C125.819 146.218 125.284 150.949 125.284 150.949L123.799 147.953C123.799 147.953 116.452 150.467 110.657 147.953C111.599 152.175 108.712 154.073 108.712 154.073Z" fill="#1A120E"/>
<path d="M117.708 154.83C117.767 155.024 117.768 155.231 117.71 155.425C117.652 155.619 117.538 155.792 117.382 155.921C117.225 156.05 117.034 156.13 116.833 156.15C116.631 156.171 116.428 156.131 116.249 156.036C116.07 155.94 115.923 155.794 115.828 155.616C115.732 155.437 115.691 155.234 115.711 155.032C115.731 154.831 115.81 154.639 115.939 154.483C116.067 154.326 116.239 154.211 116.433 154.152C116.692 154.074 116.972 154.102 117.21 154.229C117.449 154.356 117.628 154.572 117.708 154.83ZM123.875 151.59C123.933 151.783 123.933 151.988 123.875 152.18C123.816 152.372 123.702 152.542 123.547 152.67C123.392 152.797 123.202 152.876 123.003 152.896C122.803 152.915 122.602 152.876 122.424 152.781C122.247 152.687 122.102 152.543 122.007 152.366C121.912 152.189 121.871 151.988 121.89 151.788C121.909 151.588 121.986 151.399 122.113 151.243C122.239 151.087 122.409 150.972 122.601 150.913C122.729 150.873 122.864 150.859 122.998 150.872C123.131 150.884 123.261 150.923 123.379 150.986C123.498 151.049 123.603 151.135 123.688 151.239C123.773 151.343 123.837 151.462 123.875 151.59ZM77.5628 243.877H77.0273C77.556 214.949 82.5173 198.466 86.584 189.722C91.0167 180.233 95.2799 177.604 95.4629 177.522L95.734 177.983C95.5646 178.044 78.5727 188.828 77.5628 243.877Z" fill="#1A120E"/>
<path d="M136.513 239.535C133.517 235.251 132.162 233.604 125.79 235.183C123.587 235.745 121.456 236.559 119.44 237.61L118.247 237.095C118.177 237.058 118.105 237.029 118.03 237.007C113.889 235.238 108.399 233.062 103.688 231.246C102.143 230.568 100.597 229.856 99.0656 229.212C101.099 223.621 103.234 217.046 103.234 217.046C106.989 202.609 85.3135 195.127 80.1421 206.202C74.9707 217.277 73.6219 231.957 75.6552 238.606C75.8656 239.294 76.2348 239.924 76.7329 240.443C77.8715 242.266 80.0811 243.757 83.7343 244.51C93.9959 246.59 115.664 246.021 118.348 245.94C118.775 245.98 119.175 246.028 119.541 246.075C119.693 246.106 119.85 246.106 120.002 246.075C120.122 246.085 120.243 246.067 120.355 246.021C121.846 245.377 122.666 245.14 123.201 245.167C124.244 245.236 125.285 245.008 126.203 244.509C127.12 244.01 127.878 243.26 128.386 242.348C128.603 243.013 128.773 243.692 128.895 244.381C129.166 246.353 130.596 248.156 131.518 248.176C132.439 248.197 131.945 244.869 131.945 244.869C131.945 244.869 132.921 249.688 134.5 247.797C136.079 245.906 133.585 241.439 132.406 239.718C132.27 239.514 132.134 239.331 131.999 239.162C133.124 239.969 134.242 241.243 134.873 241.676C135.937 242.361 139.522 243.825 136.513 239.535Z" fill="#FFB099"/>
<path d="M103.792 177.944C100.281 176.087 95.482 175.233 88.8194 182.194C82.1569 189.155 74.8911 206.153 71.875 220.149C71.875 220.149 89.7209 232.776 103.053 225.172C103.053 225.172 109.017 201.097 110.23 193.167C111.444 185.237 107.668 179.991 103.792 177.944Z" fill="url(#paint10_linear_20981_299824)"/>
<path d="M84.4954 211.231C82.6938 209.076 81.6062 206.415 81.3828 203.615C81.1594 200.815 81.8112 198.015 83.2483 195.602L83.7634 195.893C82.3939 198.195 81.7708 200.864 81.9795 203.534C82.1883 206.204 83.2187 208.743 84.9291 210.804L84.4954 211.231ZM204.55 265.555C206.238 274.298 208.014 289.867 208.759 301.687C209.505 313.508 210.833 330.296 210.833 330.296C210.833 330.296 186.772 337.854 168.58 326.135C168.58 326.135 169.482 281.828 169.855 271.12C170.566 250.603 201.527 249.898 204.55 265.555Z" fill="#1A120E"/>
</g>
<path d="M163.228 246.433C163.228 246.511 163.197 246.585 163.142 246.639C163.088 246.694 163.014 246.725 162.936 246.725L112.747 246.786C112.593 246.784 112.446 246.722 112.337 246.613C112.228 246.504 112.166 246.357 112.164 246.203V244.807L163.221 244.739L163.228 246.433ZM118.718 244.203V244.793H116.929V244H118.528C118.554 244.001 118.58 244.007 118.603 244.018C118.627 244.028 118.648 244.043 118.665 244.062C118.683 244.081 118.697 244.103 118.706 244.128C118.715 244.152 118.719 244.178 118.718 244.203ZM120.799 244.203V244.793H119.01V244H120.602C120.629 244 120.655 244.005 120.679 244.016C120.704 244.026 120.725 244.041 120.744 244.06C120.762 244.079 120.777 244.101 120.786 244.126C120.795 244.151 120.8 244.177 120.799 244.203Z" fill="#1A120E"/>
<path d="M122.882 244.196V244.793H121.086V244H122.679C122.705 243.999 122.731 244.003 122.756 244.013C122.781 244.022 122.803 244.036 122.822 244.055C122.841 244.073 122.856 244.095 122.866 244.119C122.877 244.144 122.882 244.17 122.882 244.196ZM131.537 244.189V244.779H129.741V244H131.341C131.366 243.999 131.392 244.003 131.415 244.012C131.439 244.021 131.461 244.035 131.479 244.053C131.498 244.071 131.512 244.092 131.522 244.115C131.532 244.139 131.537 244.164 131.537 244.189ZM133.618 244.189V244.779H131.829V244H133.422C133.472 244 133.521 244.019 133.558 244.055C133.595 244.09 133.616 244.138 133.618 244.189ZM158.018 244.156V244.745H156.229V244H157.828C157.873 244 157.916 244.016 157.951 244.044C157.985 244.073 158.009 244.112 158.018 244.156ZM160.099 244.156V244.745H158.303V243.959H159.902C159.954 243.959 160.004 243.98 160.041 244.017C160.078 244.053 160.099 244.103 160.099 244.156ZM129.402 244.189V244.779H123.241V244H129.206C129.257 244 129.306 244.019 129.342 244.055C129.379 244.09 129.401 244.138 129.402 244.189ZM166.843 244.142V244.732H160.682V243.945H166.646C166.672 243.944 166.698 243.949 166.722 243.958C166.747 243.968 166.769 243.982 166.787 244.001C166.806 244.019 166.82 244.041 166.83 244.066C166.839 244.09 166.844 244.116 166.843 244.142ZM155.741 244.156V244.745H134.35V244H155.544C155.591 243.996 155.637 244.01 155.673 244.039C155.71 244.068 155.734 244.109 155.741 244.156Z" fill="#1A120E"/>
<path d="M166.353 243.953H170.691C170.808 243.953 170.921 243.999 171.005 244.082C171.088 244.164 171.136 244.276 171.138 244.394V244.739H166.156V244.15C166.156 244.098 166.177 244.048 166.214 244.011C166.251 243.974 166.301 243.953 166.353 243.953Z" fill="url(#paint11_linear_20981_299824)"/>
<path d="M172.353 243.938H176.691C176.749 243.937 176.807 243.947 176.861 243.969C176.915 243.991 176.965 244.023 177.006 244.064C177.048 244.105 177.081 244.154 177.104 244.208C177.126 244.262 177.138 244.32 177.138 244.378V244.717H172.156V244.127C172.158 244.076 172.179 244.028 172.216 243.993C172.253 243.957 172.302 243.938 172.353 243.938Z" fill="url(#paint12_linear_20981_299824)"/>
<path d="M178.35 243.93H182.688C182.746 243.929 182.804 243.94 182.858 243.961C182.913 243.983 182.962 244.015 183.004 244.056C183.045 244.097 183.078 244.146 183.101 244.2C183.123 244.254 183.135 244.312 183.135 244.37V244.709H178.16V244.12C178.162 244.07 178.182 244.022 178.218 243.987C178.253 243.952 178.3 243.931 178.35 243.93Z" fill="url(#paint13_linear_20981_299824)"/>
<path d="M184.354 243.93H188.698C188.816 243.931 188.928 243.979 189.01 244.063C189.093 244.147 189.139 244.26 189.139 244.377V244.716H184.164V244.126C184.164 244.075 184.184 244.026 184.219 243.99C184.255 243.953 184.303 243.931 184.354 243.93Z" fill="url(#paint14_linear_20981_299824)"/>
<path d="M191.409 243.914H193.686C193.803 243.916 193.915 243.964 193.998 244.047C194.08 244.131 194.127 244.244 194.127 244.361V244.7H191.219V244.111C191.218 244.085 191.222 244.06 191.231 244.036C191.24 244.012 191.254 243.99 191.272 243.972C191.29 243.954 191.311 243.939 191.334 243.929C191.358 243.919 191.383 243.914 191.409 243.914Z" fill="url(#paint15_linear_20981_299824)"/>
<path d="M194.95 243.914H197.234C197.351 243.914 197.464 243.96 197.548 244.043C197.631 244.125 197.679 244.237 197.681 244.355V244.68H194.773V244.09C194.778 244.045 194.798 244.003 194.83 243.971C194.862 243.939 194.904 243.919 194.95 243.914Z" fill="url(#paint16_linear_20981_299824)"/>
<path d="M198.276 243.914H200.553C200.671 243.916 200.783 243.964 200.865 244.047C200.948 244.131 200.994 244.244 200.994 244.361V244.7H198.086V244.111C198.085 244.085 198.089 244.06 198.099 244.036C198.108 244.012 198.121 243.99 198.139 243.972C198.157 243.954 198.178 243.939 198.202 243.929C198.225 243.919 198.25 243.914 198.276 243.914Z" fill="url(#paint17_linear_20981_299824)"/>
<path d="M159.021 207.267C159.229 206.476 159.688 205.774 160.331 205.268C160.973 204.762 161.762 204.478 162.58 204.461L151.057 246.483C150.505 246.29 150.047 245.892 149.778 245.371C149.51 244.85 149.451 244.247 149.614 243.684C150.048 241.915 156.805 215.827 159.021 207.267Z" fill="#1A120E"/>
<path d="M162.47 204.083L215.919 204.016C216.094 204.016 216.265 204.055 216.422 204.132C216.578 204.208 216.715 204.319 216.822 204.456C216.93 204.593 217.004 204.753 217.04 204.923C217.076 205.094 217.073 205.27 217.031 205.439L207.244 244.316L150.988 244.391L160.877 205.31C160.966 204.956 161.171 204.642 161.46 204.42C161.749 204.197 162.105 204.079 162.47 204.083Z" fill="url(#paint18_linear_20981_299824)"/>
<path d="M160.635 205.248C160.738 204.839 160.974 204.476 161.307 204.217C161.64 203.958 162.05 203.817 162.472 203.818L215.921 203.75C216.135 203.753 216.346 203.804 216.537 203.9C216.728 203.995 216.896 204.133 217.026 204.303C217.156 204.472 217.247 204.669 217.29 204.879C217.334 205.088 217.329 205.305 217.277 205.512L207.49 244.39L207.436 244.593L150.645 244.667L160.635 205.248ZM216.769 205.377C216.803 205.249 216.806 205.115 216.779 204.985C216.752 204.856 216.695 204.735 216.613 204.631C216.533 204.527 216.43 204.442 216.313 204.384C216.195 204.325 216.066 204.294 215.935 204.292L162.485 204.36C162.186 204.361 161.895 204.461 161.658 204.645C161.421 204.829 161.252 205.086 161.177 205.377L151.377 244.125L207.049 244.051L216.769 205.377Z" fill="#1A120E"/>
<path d="M207.494 246.373C207.494 246.451 207.463 246.526 207.409 246.581C207.354 246.637 207.28 246.669 207.202 246.671L152.052 246.739C151.975 246.74 151.899 246.725 151.828 246.696C151.756 246.667 151.692 246.625 151.637 246.57C151.583 246.516 151.54 246.451 151.511 246.38C151.482 246.309 151.468 246.233 151.469 246.156V244.38L207.494 244.312V246.373Z" fill="#131313"/>
<path d="M112.797 244.484L152.094 244.436L152.095 245.101L112.798 245.149L112.797 244.484Z" fill="#131313"/>
<path d="M161.621 244.422L207.473 244.366L207.474 245.03L161.622 245.086L161.621 244.422Z" fill="#1A120E"/>
<path d="M72.7384 127.702L74.0261 128.19C73.3125 128.853 72.4098 129.277 71.4438 129.403C70.157 129.558 68.8521 129.378 67.655 128.881C66.4615 128.465 65.374 127.792 64.4695 126.909C63.7015 126.156 63.2076 125.169 63.0665 124.103C62.9269 123.047 63.0551 121.972 63.4392 120.978C63.8607 119.868 64.561 118.886 65.4726 118.125C66.3232 117.379 67.379 116.906 68.5022 116.769C69.6782 116.641 70.8677 116.804 71.9657 117.244C72.9075 117.58 73.7572 118.132 74.4464 118.857C75.0649 119.51 75.4733 120.334 75.6189 121.222C75.7603 122.106 75.6644 123.011 75.341 123.845C74.9564 124.859 74.2396 125.712 73.3077 126.265C72.7811 126.626 72.1739 126.853 71.5394 126.925C70.9048 126.997 70.2622 126.912 69.668 126.678C69.4 126.598 69.1632 126.437 68.9902 126.217C68.863 126.031 68.812 125.803 68.8479 125.58C68.5506 125.717 68.2293 125.793 67.9024 125.804C67.5755 125.816 67.2496 125.763 66.9434 125.648C66.6274 125.533 66.3392 125.353 66.0974 125.12C65.8557 124.886 65.6659 124.604 65.5404 124.293C65.2662 123.624 65.2662 122.874 65.5404 122.205C65.9011 121.294 66.5297 120.514 67.3432 119.968C67.7599 119.634 68.2561 119.413 68.7836 119.327C69.311 119.242 69.8516 119.295 70.3526 119.48C70.6749 119.58 70.9643 119.764 71.1898 120.015C71.4154 120.266 71.5688 120.573 71.6336 120.904L72.0335 120.294L73.6262 120.897L71.0778 124.875C70.974 125.037 70.8789 125.205 70.7931 125.377C70.7636 125.458 70.7636 125.547 70.7931 125.628C70.8177 125.691 70.8665 125.742 70.9287 125.77C71.2227 125.834 71.529 125.811 71.8098 125.702C72.3599 125.541 72.8624 125.248 73.2738 124.848C73.7085 124.444 74.0446 123.946 74.2566 123.391C74.443 122.927 74.5273 122.429 74.5039 121.929C74.4805 121.43 74.3499 120.941 74.121 120.497C73.5569 119.475 72.6196 118.71 71.5048 118.362C70.5444 117.95 69.4914 117.803 68.4548 117.935C67.5398 118.087 66.6931 118.515 66.0284 119.162C65.3532 119.805 64.8319 120.593 64.5034 121.466C64.1834 122.281 64.1011 123.169 64.2661 124.028C64.4264 124.876 64.8568 125.649 65.4929 126.231C66.913 127.474 68.7172 128.192 70.6034 128.264C71.3528 128.274 72.0907 128.079 72.7384 127.702ZM67.1535 122.747C66.9679 123.136 66.927 123.578 67.0382 123.994C67.0846 124.148 67.1655 124.289 67.2747 124.406C67.384 124.524 67.5187 124.615 67.6686 124.672C67.8857 124.749 68.1177 124.775 68.3464 124.747C68.5557 124.711 68.7575 124.64 68.9428 124.537C69.3152 124.313 69.64 124.018 69.8985 123.669C70.2047 123.301 70.4516 122.887 70.6305 122.442C70.795 122.076 70.8238 121.662 70.7118 121.276C70.6583 121.119 70.5694 120.976 70.4519 120.859C70.3343 120.741 70.1914 120.652 70.034 120.599C69.6718 120.47 69.2743 120.485 68.9225 120.639C68.4823 120.833 68.1028 121.142 67.8245 121.534C67.5449 121.905 67.319 122.313 67.1535 122.747Z" fill="url(#paint19_linear_20981_299824)"/>
<path d="M241.498 217.772L242.325 216.681C242.76 217.552 242.914 218.538 242.766 219.5C242.547 220.777 242.006 221.976 241.193 222.984C240.453 224.011 239.498 224.865 238.394 225.485C237.455 226.006 236.37 226.199 235.31 226.034C234.258 225.871 233.265 225.444 232.423 224.794C231.476 224.092 230.727 223.158 230.247 222.083C229.768 221.055 229.61 219.907 229.793 218.789C230 217.625 230.491 216.531 231.223 215.603C231.813 214.796 232.584 214.137 233.473 213.678C234.275 213.267 235.182 213.109 236.076 213.224C236.961 213.337 237.801 213.683 238.509 214.227C239.37 214.873 239.988 215.79 240.265 216.83C240.462 217.438 240.507 218.085 240.397 218.714C240.287 219.344 240.025 219.937 239.634 220.443C239.479 220.679 239.258 220.863 238.997 220.971C238.887 221.01 238.77 221.026 238.654 221.019C238.538 221.012 238.424 220.982 238.319 220.931C238.366 221.254 238.348 221.583 238.266 221.9C238.185 222.216 238.042 222.513 237.845 222.774C237.651 223.044 237.402 223.27 237.115 223.437C236.827 223.604 236.508 223.708 236.178 223.743C235.821 223.776 235.461 223.738 235.119 223.631C234.777 223.524 234.459 223.35 234.185 223.12C233.391 222.531 232.801 221.708 232.497 220.768C232.293 220.274 232.22 219.736 232.287 219.206C232.353 218.676 232.557 218.173 232.877 217.745C233.062 217.463 233.322 217.237 233.626 217.091C233.931 216.946 234.269 216.886 234.605 216.918L234.131 216.356L235.161 215L238.258 218.572C238.382 218.719 238.515 218.857 238.658 218.985C238.69 219.015 238.727 219.038 238.768 219.053C238.809 219.069 238.852 219.075 238.895 219.073C238.929 219.071 238.961 219.061 238.991 219.045C239.02 219.028 239.045 219.006 239.065 218.979C239.217 218.719 239.281 218.417 239.248 218.118C239.248 217.545 239.111 216.98 238.848 216.471C238.583 215.94 238.201 215.476 237.73 215.115C237.336 214.809 236.881 214.59 236.396 214.473C235.911 214.356 235.407 214.344 234.917 214.437C233.777 214.693 232.779 215.377 232.131 216.349C231.481 217.157 231.058 218.123 230.904 219.148C230.793 220.068 230.965 221 231.399 221.818C231.824 222.65 232.431 223.375 233.175 223.94C233.867 224.475 234.697 224.804 235.568 224.889C236.426 224.973 237.289 224.778 238.028 224.333C239.618 223.317 240.813 221.789 241.417 220.002C241.648 219.28 241.676 218.509 241.498 217.772ZM235.188 221.73C235.509 222.02 235.922 222.186 236.354 222.198C236.51 222.193 236.663 222.152 236.802 222.08C236.94 222.007 237.061 221.904 237.154 221.778C237.304 221.58 237.4 221.346 237.431 221.1C237.471 220.892 237.471 220.678 237.431 220.47C237.32 220.05 237.131 219.655 236.876 219.304C236.598 218.899 236.257 218.542 235.866 218.247C235.564 217.978 235.172 217.833 234.768 217.84C234.605 217.847 234.446 217.891 234.303 217.969C234.16 218.046 234.036 218.155 233.941 218.287C233.715 218.596 233.616 218.979 233.663 219.358C233.725 219.836 233.914 220.288 234.212 220.666C234.482 221.068 234.811 221.426 235.188 221.73Z" fill="url(#paint20_linear_20981_299824)"/>
<path d="M162.517 92.5041C164.835 82.3439 158.477 72.2285 148.317 69.9108C138.157 67.5931 128.042 73.9508 125.724 84.1111C123.406 94.2713 129.764 104.387 139.924 106.704C150.084 109.022 160.2 102.664 162.517 92.5041Z" fill="url(#paint21_linear_20981_299824)"/>
<path d="M150.464 83.9236C150.501 84.8011 150.364 85.6772 150.059 86.501C149.754 87.3247 149.289 88.0796 148.689 88.7217C148.09 89.3638 147.369 89.8803 146.569 90.2412C145.768 90.602 144.903 90.7999 144.025 90.8234C142.264 90.7789 140.591 90.0429 139.368 88.7745C138.146 87.5061 137.471 85.8073 137.491 84.0456C137.459 83.1725 137.599 82.3016 137.905 81.4831C138.21 80.6646 138.675 79.9147 139.271 79.2764C139.868 78.6382 140.585 78.1244 141.381 77.7645C142.177 77.4047 143.037 77.2059 143.91 77.1797C145.669 77.2188 147.342 77.9478 148.568 79.2095C149.794 80.4711 150.475 82.1643 150.464 83.9236ZM135.438 99.5057C135.397 94.4359 139.281 94.0835 144.073 94.0835C148.865 94.0835 152.762 94.3885 152.802 99.4515L135.438 99.5057Z" fill="white"/>
<path d="M165.756 95.3047H147.24C147.004 95.3047 146.812 95.4959 146.812 95.7317V107.498C146.812 107.734 147.004 107.925 147.24 107.925H165.756C165.992 107.925 166.183 107.734 166.183 107.498V95.7317C166.183 95.4959 165.992 95.3047 165.756 95.3047Z" fill="#1A120E"/>
<path d="M155.706 103.221C155.943 103.421 156.246 103.525 156.556 103.513C156.866 103.5 157.16 103.372 157.38 103.153L165.96 95.9825C166.021 95.9346 166.066 95.8693 166.089 95.7953C166.112 95.7212 166.111 95.6419 166.088 95.5682C166.064 95.4944 166.018 95.4296 165.957 95.3825C165.895 95.3354 165.821 95.3082 165.744 95.3047H147.254C147.178 95.3115 147.106 95.3405 147.047 95.388C146.988 95.4355 146.944 95.4994 146.921 95.5717C146.898 95.644 146.896 95.7215 146.917 95.7946C146.938 95.8676 146.979 95.933 147.037 95.9825L155.706 103.221Z" fill="url(#paint22_linear_20981_299824)"/>
<path d="M152.9 102.142C152.942 102.107 152.977 102.064 153 102.015C153.024 101.965 153.036 101.911 153.036 101.857C153.036 101.802 153.024 101.748 153 101.699C152.977 101.65 152.942 101.606 152.9 101.572L147.444 97.0107C147.389 96.9646 147.322 96.935 147.251 96.9253C147.18 96.9157 147.107 96.9264 147.042 96.9562C146.977 96.986 146.921 97.0336 146.882 97.0937C146.843 97.1537 146.821 97.2237 146.82 97.2954V106.567C146.821 106.639 146.843 106.709 146.882 106.769C146.921 106.829 146.977 106.877 147.042 106.907C147.107 106.936 147.18 106.947 147.251 106.937C147.322 106.928 147.389 106.898 147.444 106.852L152.9 102.142Z" fill="url(#paint23_linear_20981_299824)"/>
<path d="M165.698 107.556L159.727 102.419C159.633 102.335 159.513 102.289 159.388 102.289C159.263 102.289 159.142 102.335 159.049 102.419L157.632 103.598C157.31 103.865 156.905 104.01 156.487 104.01C156.069 104.01 155.664 103.865 155.341 103.598L153.986 102.466C153.891 102.385 153.771 102.341 153.647 102.341C153.523 102.341 153.403 102.385 153.308 102.466L147.405 107.556L147.317 107.631C147.242 107.712 147.208 107.78 147.228 107.834C147.249 107.888 147.31 107.915 147.398 107.929H165.698C165.786 107.929 165.854 107.881 165.867 107.834C165.881 107.787 165.867 107.712 165.779 107.631L165.698 107.556Z" fill="url(#paint24_linear_20981_299824)"/>
<path d="M165.566 97.0087L160.144 101.516C160.103 101.552 160.069 101.596 160.046 101.645C160.024 101.695 160.012 101.749 160.012 101.804C160.012 101.859 160.024 101.913 160.046 101.963C160.069 102.012 160.103 102.056 160.144 102.092L165.566 106.748C165.621 106.797 165.689 106.828 165.761 106.839C165.833 106.85 165.907 106.839 165.973 106.809C166.04 106.779 166.096 106.731 166.136 106.669C166.176 106.608 166.197 106.537 166.197 106.464V97.2934C166.197 97.2204 166.176 97.149 166.136 97.0876C166.096 97.0263 166.04 96.9777 165.973 96.9477C165.907 96.9177 165.833 96.9074 165.761 96.9183C165.689 96.9291 165.621 96.9605 165.566 97.0087Z" fill="url(#paint25_linear_20981_299824)"/>
<path d="M169.22 106.841C169.221 107.504 169.026 108.152 168.659 108.703C168.292 109.255 167.769 109.685 167.158 109.94C166.546 110.194 165.873 110.261 165.223 110.133C164.573 110.005 163.975 109.686 163.507 109.218C163.038 108.75 162.718 108.154 162.588 107.504C162.459 106.854 162.524 106.181 162.778 105.568C163.031 104.956 163.46 104.433 164.011 104.065C164.562 103.697 165.209 103.5 165.872 103.5C166.758 103.5 167.609 103.852 168.237 104.478C168.865 105.105 169.218 105.955 169.22 106.841Z" fill="url(#paint26_linear_20981_299824)"/>
<path d="M166.387 108.363H165.777V106.066C165.548 106.273 165.278 106.43 164.984 106.526V105.971C165.174 105.902 165.351 105.801 165.506 105.672C165.684 105.546 165.819 105.369 165.893 105.164H166.387V108.363Z" fill="white"/>
<path d="M244.746 158.307C244.746 162.039 243.64 165.687 241.566 168.79C239.493 171.893 236.546 174.312 233.098 175.74C229.65 177.168 225.856 177.542 222.196 176.814C218.536 176.086 215.173 174.288 212.535 171.649C209.896 169.011 208.098 165.648 207.37 161.988C206.642 158.328 207.016 154.534 208.444 151.086C209.872 147.638 212.291 144.691 215.394 142.618C218.497 140.544 222.145 139.437 225.877 139.438C230.882 139.438 235.681 141.426 239.22 144.964C242.758 148.503 244.746 153.302 244.746 158.307Z" fill="url(#paint27_linear_20981_299824)"/>
<path d="M232.202 153.921C232.233 154.794 232.092 155.664 231.786 156.482C231.481 157.301 231.016 158.05 230.42 158.688C229.823 159.326 229.106 159.84 228.311 160.2C227.515 160.56 226.656 160.76 225.783 160.787C224.015 160.742 222.336 160.001 221.112 158.724C219.888 157.446 219.218 155.737 219.249 153.968C219.218 153.093 219.36 152.22 219.668 151.4C219.976 150.581 220.444 149.83 221.044 149.192C221.644 148.554 222.364 148.041 223.164 147.684C223.964 147.327 224.826 147.131 225.702 147.109C227.463 147.163 229.132 147.907 230.349 149.182C231.565 150.457 232.231 152.159 232.202 153.921ZM217.196 169.496C217.155 164.433 221.039 164.074 225.831 164.074C230.622 164.074 234.52 164.372 234.56 169.442L217.196 169.496Z" fill="white"/>
<path d="M247.729 166.43H229.212C228.976 166.43 228.785 166.621 228.785 166.857V178.623C228.785 178.859 228.976 179.05 229.212 179.05H247.729C247.965 179.05 248.156 178.859 248.156 178.623V166.857C248.156 166.621 247.965 166.43 247.729 166.43Z" fill="#1A120E"/>
<path d="M237.677 174.346C237.914 174.546 238.218 174.65 238.528 174.638C238.837 174.625 239.131 174.497 239.351 174.278L247.932 167.107C247.993 167.06 248.038 166.995 248.061 166.922C248.083 166.848 248.084 166.77 248.061 166.696C248.038 166.623 247.993 166.558 247.933 166.51C247.872 166.463 247.799 166.435 247.722 166.43H229.225C229.148 166.433 229.074 166.46 229.012 166.507C228.951 166.555 228.905 166.619 228.881 166.693C228.858 166.767 228.857 166.846 228.88 166.92C228.903 166.994 228.948 167.06 229.009 167.107L237.677 174.346Z" fill="url(#paint28_linear_20981_299824)"/>
<path d="M234.87 173.265C234.913 173.231 234.947 173.187 234.97 173.137C234.994 173.087 235.006 173.033 235.006 172.977C235.006 172.922 234.994 172.868 234.97 172.818C234.947 172.768 234.913 172.724 234.87 172.689L229.448 168.128C229.393 168.082 229.326 168.052 229.255 168.043C229.184 168.033 229.111 168.044 229.046 168.073C228.981 168.103 228.925 168.151 228.886 168.211C228.847 168.271 228.825 168.341 228.824 168.413V177.685C228.825 177.756 228.847 177.826 228.886 177.886C228.925 177.946 228.981 177.994 229.046 178.024C229.111 178.054 229.184 178.064 229.255 178.055C229.326 178.045 229.393 178.015 229.448 177.969L234.87 173.265Z" fill="url(#paint29_linear_20981_299824)"/>
<path d="M247.667 178.677L241.695 173.512C241.602 173.429 241.482 173.383 241.357 173.383C241.232 173.383 241.111 173.429 241.018 173.512L239.601 174.692C239.279 174.958 238.874 175.104 238.456 175.104C238.037 175.104 237.632 174.958 237.31 174.692L235.955 173.56C235.86 173.479 235.74 173.435 235.616 173.435C235.492 173.435 235.371 173.479 235.277 173.56L229.373 178.65C229.341 178.673 229.311 178.701 229.285 178.731C229.211 178.806 229.177 178.873 229.197 178.928C229.218 178.982 229.279 179.009 229.367 179.023H247.667C247.755 179.023 247.823 178.975 247.836 178.928C247.85 178.88 247.836 178.806 247.748 178.731C247.722 178.712 247.695 178.694 247.667 178.677Z" fill="url(#paint30_linear_20981_299824)"/>
<path d="M247.539 168.134L242.117 172.641C242.075 172.677 242.042 172.721 242.019 172.77C241.996 172.82 241.984 172.874 241.984 172.929C241.984 172.984 241.996 173.038 242.019 173.087C242.042 173.137 242.075 173.181 242.117 173.217L247.539 177.873C247.594 177.922 247.661 177.953 247.734 177.964C247.806 177.975 247.879 177.964 247.946 177.934C248.013 177.904 248.069 177.856 248.109 177.794C248.148 177.733 248.169 177.662 248.169 177.589V168.418C248.169 168.345 248.148 168.274 248.109 168.213C248.069 168.151 248.013 168.103 247.946 168.073C247.879 168.043 247.806 168.032 247.734 168.043C247.661 168.054 247.594 168.085 247.539 168.134Z" fill="url(#paint31_linear_20981_299824)"/>
<path d="M251.189 177.959C251.19 178.621 250.995 179.269 250.628 179.821C250.261 180.372 249.738 180.802 249.126 181.057C248.515 181.311 247.841 181.379 247.191 181.25C246.541 181.122 245.944 180.803 245.475 180.335C245.006 179.867 244.687 179.271 244.557 178.621C244.427 177.971 244.493 177.298 244.746 176.686C245 176.073 245.429 175.55 245.98 175.182C246.53 174.814 247.178 174.617 247.84 174.617C248.727 174.617 249.578 174.969 250.206 175.595C250.833 176.222 251.187 177.072 251.189 177.959Z" fill="url(#paint32_linear_20981_299824)"/>
<path d="M246.773 178.644L247.363 178.569C247.376 178.699 247.43 178.82 247.519 178.915C247.559 178.957 247.607 178.99 247.66 179.012C247.713 179.035 247.77 179.047 247.827 179.047C247.885 179.047 247.942 179.035 247.995 179.012C248.048 178.99 248.096 178.957 248.136 178.915C248.226 178.805 248.272 178.664 248.265 178.522C248.27 178.389 248.227 178.259 248.143 178.156C248.104 178.114 248.057 178.08 248.004 178.058C247.952 178.036 247.895 178.025 247.838 178.027C247.744 178.03 247.65 178.043 247.56 178.068L247.627 177.573C247.763 177.583 247.897 177.544 248.007 177.465C248.049 177.426 248.082 177.379 248.104 177.326C248.127 177.273 248.137 177.217 248.136 177.16C248.14 177.112 248.134 177.065 248.117 177.02C248.101 176.975 248.075 176.935 248.042 176.901C248.008 176.868 247.968 176.842 247.923 176.826C247.878 176.809 247.831 176.803 247.783 176.807C247.685 176.808 247.59 176.847 247.519 176.916C247.438 177.003 247.391 177.116 247.383 177.234L246.821 177.139C246.844 176.974 246.905 176.817 246.997 176.678C247.079 176.557 247.194 176.463 247.329 176.407C247.477 176.337 247.64 176.303 247.804 176.306C247.937 176.3 248.07 176.322 248.193 176.371C248.317 176.42 248.429 176.495 248.522 176.59C248.663 176.733 248.744 176.925 248.746 177.126C248.743 177.27 248.699 177.411 248.619 177.532C248.538 177.652 248.425 177.746 248.292 177.804C248.464 177.83 248.619 177.923 248.725 178.061C248.839 178.201 248.899 178.376 248.895 178.556C248.897 178.691 248.871 178.825 248.817 178.949C248.763 179.073 248.684 179.184 248.583 179.274C248.483 179.372 248.364 179.449 248.234 179.5C248.103 179.551 247.964 179.576 247.824 179.573C247.562 179.58 247.306 179.491 247.106 179.322C247.008 179.236 246.929 179.132 246.872 179.016C246.815 178.9 246.781 178.773 246.773 178.644Z" fill="white"/>
<path d="M234.457 95.8047C234.457 101.139 232.875 106.353 229.912 110.788C226.948 115.224 222.736 118.68 217.807 120.721C212.879 122.762 207.456 123.296 202.224 122.255C196.993 121.214 192.188 118.644 188.416 114.872C184.645 111.1 182.077 106.294 181.037 101.062C179.997 95.83 180.532 90.4073 182.574 85.4795C184.617 80.5517 188.074 76.3403 192.51 73.3777C196.946 70.4152 202.161 68.8346 207.495 68.8359C211.036 68.8359 214.543 69.5336 217.815 70.8889C221.086 72.2443 224.059 74.231 226.563 76.7353C229.066 79.2397 231.052 82.2128 232.407 85.4847C233.761 88.7567 234.458 92.2634 234.457 95.8047Z" fill="url(#paint33_linear_20981_299824)"/>
<path d="M216.531 89.5444C216.572 94.9666 212.465 99.3383 207.354 99.3519C202.244 99.3654 198.062 95.0141 198.021 89.6122C197.981 84.2103 202.088 79.8251 207.192 79.8048C212.295 79.7844 216.484 84.1425 216.531 89.5444ZM195.086 111.837C195.025 104.598 200.576 104.096 207.429 104.069C214.281 104.042 219.846 104.503 219.907 111.742L195.086 111.837Z" fill="white"/>
<path d="M237.051 105.969H210.327C209.982 105.969 209.703 106.248 209.703 106.592V123.564C209.703 123.908 209.982 124.187 210.327 124.187H237.051C237.396 124.187 237.675 123.908 237.675 123.564V106.592C237.675 106.248 237.396 105.969 237.051 105.969Z" fill="#1A120E"/>
<path d="M222.54 117.389C222.881 117.68 223.319 117.831 223.766 117.812C224.214 117.793 224.637 117.606 224.953 117.288L237.349 106.938C237.433 106.868 237.494 106.774 237.525 106.669C237.555 106.564 237.554 106.452 237.52 106.348C237.487 106.244 237.423 106.152 237.337 106.085C237.251 106.017 237.147 105.977 237.037 105.969H210.34C210.23 105.975 210.125 106.015 210.038 106.082C209.951 106.149 209.886 106.241 209.852 106.345C209.817 106.45 209.815 106.562 209.845 106.668C209.876 106.773 209.937 106.867 210.021 106.938L222.54 117.389Z" fill="url(#paint34_linear_20981_299824)"/>
<path d="M218.487 115.83C218.547 115.78 218.595 115.716 218.628 115.645C218.661 115.573 218.679 115.496 218.679 115.417C218.679 115.338 218.661 115.261 218.628 115.189C218.595 115.118 218.547 115.054 218.487 115.004L210.598 108.443C210.519 108.375 210.422 108.332 210.32 108.318C210.217 108.303 210.112 108.319 210.018 108.363C209.924 108.406 209.844 108.476 209.788 108.563C209.732 108.651 209.703 108.752 209.703 108.856V122.242C209.702 122.347 209.731 122.45 209.787 122.539C209.843 122.628 209.924 122.699 210.019 122.742C210.115 122.786 210.221 122.801 210.325 122.786C210.429 122.771 210.526 122.725 210.605 122.656L218.487 115.83Z" fill="url(#paint35_linear_20981_299824)"/>
<path d="M236.959 123.655L228.344 116.2C228.21 116.086 228.039 116.023 227.863 116.023C227.687 116.023 227.516 116.086 227.382 116.2L225.348 117.901C224.885 118.29 224.3 118.504 223.695 118.504C223.09 118.504 222.504 118.29 222.041 117.901L220.089 116.274C219.955 116.159 219.784 116.096 219.608 116.096C219.431 116.096 219.26 116.159 219.126 116.274L210.586 123.655C210.543 123.688 210.502 123.724 210.464 123.764C210.356 123.872 210.308 123.974 210.336 124.055C210.363 124.136 210.451 124.17 210.586 124.191H236.965C237.094 124.191 237.189 124.123 237.216 124.055C237.243 123.987 237.216 123.872 237.087 123.764L236.959 123.655Z" fill="url(#paint36_linear_20981_299824)"/>
<path d="M236.782 108.449L228.98 114.962C228.92 115.013 228.872 115.077 228.839 115.148C228.806 115.219 228.789 115.297 228.789 115.376C228.789 115.454 228.806 115.532 228.839 115.604C228.872 115.675 228.92 115.738 228.98 115.789L236.782 122.513C236.86 122.582 236.958 122.628 237.061 122.643C237.165 122.658 237.272 122.643 237.367 122.6C237.463 122.556 237.543 122.485 237.599 122.396C237.655 122.308 237.685 122.204 237.683 122.099V108.835C237.679 108.732 237.647 108.633 237.588 108.548C237.53 108.463 237.449 108.397 237.355 108.356C237.26 108.316 237.156 108.303 237.055 108.319C236.953 108.336 236.859 108.381 236.782 108.449Z" fill="url(#paint37_linear_20981_299824)"/>
<path d="M242.056 122.614C242.056 123.57 241.772 124.504 241.241 125.299C240.71 126.093 239.956 126.713 239.073 127.079C238.19 127.444 237.218 127.54 236.28 127.354C235.343 127.167 234.482 126.707 233.806 126.031C233.13 125.355 232.67 124.494 232.483 123.557C232.297 122.619 232.393 121.648 232.758 120.764C233.124 119.881 233.744 119.127 234.538 118.596C235.333 118.065 236.267 117.781 237.223 117.781C238.505 117.781 239.734 118.29 240.64 119.197C241.547 120.103 242.056 121.332 242.056 122.614Z" fill="url(#paint38_linear_20981_299824)"/>
<path d="M235.715 123.635L236.596 123.54C236.6 123.63 236.622 123.719 236.66 123.8C236.698 123.882 236.753 123.955 236.82 124.015C236.876 124.071 236.942 124.115 237.016 124.145C237.089 124.176 237.167 124.191 237.247 124.191C237.336 124.191 237.425 124.171 237.506 124.133C237.587 124.094 237.658 124.037 237.714 123.967C237.856 123.771 237.923 123.531 237.904 123.29C237.923 123.061 237.855 122.834 237.714 122.652C237.652 122.583 237.576 122.528 237.49 122.492C237.405 122.456 237.312 122.439 237.22 122.442C237.089 122.446 236.961 122.477 236.844 122.535C236.728 122.592 236.624 122.674 236.542 122.774L235.83 122.673L236.284 120.273H238.616V121.1H236.948L236.813 121.887C236.999 121.789 237.206 121.738 237.416 121.737C237.603 121.736 237.787 121.774 237.959 121.847C238.13 121.92 238.285 122.029 238.412 122.164C238.689 122.467 238.836 122.866 238.819 123.276C238.825 123.64 238.708 123.996 238.487 124.286C238.346 124.483 238.158 124.642 237.941 124.749C237.723 124.855 237.482 124.906 237.24 124.896C236.865 124.911 236.497 124.791 236.203 124.557C235.928 124.323 235.754 123.994 235.715 123.635Z" fill="white"/>
</g>
</g>
<defs>
<radialGradient id="paint0_radial_20981_299824" cx="0" cy="0" r="1" gradientUnits="userSpaceOnUse" gradientTransform="translate(142.558 159.881) scale(90.4359 90.4359)">
<stop stop-color="#A3D6FF"/>
<stop offset="1" stop-color="#E1F1FF" stop-opacity="0.5"/>
</radialGradient>
<radialGradient id="paint1_radial_20981_299824" cx="0" cy="0" r="1" gradientUnits="userSpaceOnUse" gradientTransform="translate(94.4954 99.9925) scale(25.9792)">
<stop stop-color="#A3D6FF"/>
<stop offset="1" stop-color="#E1F1FF" stop-opacity="0.5"/>
</radialGradient>
<linearGradient id="paint2_linear_20981_299824" x1="53.9005" y1="226.72" x2="55.7487" y2="227.465" gradientUnits="userSpaceOnUse">
<stop stop-color="#FFA223"/>
<stop offset="1" stop-color="#FFB445"/>
</linearGradient>
<linearGradient id="paint3_linear_20981_299824" x1="149.742" y1="133.567" x2="151.591" y2="134.312" gradientUnits="userSpaceOnUse">
<stop stop-color="#007D90"/>
<stop offset="1" stop-color="#00BDD2"/>
</linearGradient>
<linearGradient id="paint4_linear_20981_299824" x1="91.0932" y1="87.6546" x2="94.3747" y2="88.9771" gradientUnits="userSpaceOnUse">
<stop stop-color="#001B8D"/>
<stop offset="1" stop-color="#0073D5"/>
</linearGradient>
<linearGradient id="paint5_linear_20981_299824" x1="70.9448" y1="174.988" x2="74.2326" y2="176.313" gradientUnits="userSpaceOnUse">
<stop stop-color="#FF4428"/>
<stop offset="1" stop-color="#FF7E3B"/>
</linearGradient>
<linearGradient id="paint6_linear_20981_299824" x1="253.297" y1="120.711" x2="256.579" y2="122.033" gradientUnits="userSpaceOnUse">
<stop stop-color="#FF4428"/>
<stop offset="1" stop-color="#FF7E3B"/>
</linearGradient>
<linearGradient id="paint7_linear_20981_299824" x1="173.008" y1="58.1113" x2="176.29" y2="59.4338" gradientUnits="userSpaceOnUse">
<stop stop-color="#FF4428"/>
<stop offset="1" stop-color="#FF7E3B"/>
</linearGradient>
<linearGradient id="paint8_linear_20981_299824" x1="139.671" y1="172.224" x2="132.44" y2="281.428" gradientUnits="userSpaceOnUse">
<stop stop-color="#00BDD2"/>
<stop offset="1" stop-color="#007D90"/>
</linearGradient>
<linearGradient id="paint9_linear_20981_299824" x1="118.934" y1="170.858" x2="111.702" y2="280.055" gradientUnits="userSpaceOnUse">
<stop stop-color="#00BDD2"/>
<stop offset="1" stop-color="#007D90"/>
</linearGradient>
<linearGradient id="paint10_linear_20981_299824" x1="93.5978" y1="169.174" x2="86.3659" y2="278.377" gradientUnits="userSpaceOnUse">
<stop stop-color="#00BDD2"/>
<stop offset="1" stop-color="#007D90"/>
</linearGradient>
<linearGradient id="paint11_linear_20981_299824" x1="171.057" y1="240.903" x2="166.075" y2="240.903" gradientUnits="userSpaceOnUse">
<stop stop-color="#99CEFF"/>
<stop offset="1" stop-color="#D5E9FF"/>
</linearGradient>
<linearGradient id="paint12_linear_20981_299824" x1="177.057" y1="240.901" x2="172.075" y2="240.901" gradientUnits="userSpaceOnUse">
<stop stop-color="#99CEFF"/>
<stop offset="1" stop-color="#D5E9FF"/>
</linearGradient>
<linearGradient id="paint13_linear_20981_299824" x1="183.054" y1="240.9" x2="178.072" y2="240.9" gradientUnits="userSpaceOnUse">
<stop stop-color="#99CEFF"/>
<stop offset="1" stop-color="#D5E9FF"/>
</linearGradient>
<linearGradient id="paint14_linear_20981_299824" x1="189.051" y1="240.907" x2="184.069" y2="240.907" gradientUnits="userSpaceOnUse">
<stop stop-color="#99CEFF"/>
<stop offset="1" stop-color="#D5E9FF"/>
</linearGradient>
<linearGradient id="paint15_linear_20981_299824" x1="194.045" y1="240.898" x2="191.138" y2="240.898" gradientUnits="userSpaceOnUse">
<stop stop-color="#99CEFF"/>
<stop offset="1" stop-color="#D5E9FF"/>
</linearGradient>
<linearGradient id="paint16_linear_20981_299824" x1="197.586" y1="240.905" x2="194.672" y2="240.905" gradientUnits="userSpaceOnUse">
<stop stop-color="#99CEFF"/>
<stop offset="1" stop-color="#D5E9FF"/>
</linearGradient>
<linearGradient id="paint17_linear_20981_299824" x1="200.912" y1="240.905" x2="198.005" y2="240.905" gradientUnits="userSpaceOnUse">
<stop stop-color="#99CEFF"/>
<stop offset="1" stop-color="#D5E9FF"/>
</linearGradient>
<linearGradient id="paint18_linear_20981_299824" x1="217.072" y1="224.2" x2="151.015" y2="224.2" gradientUnits="userSpaceOnUse">
<stop stop-color="#EBEAE5"/>
<stop offset="1" stop-color="#AAB0B9"/>
</linearGradient>
<linearGradient id="paint19_linear_20981_299824" x1="184.622" y1="-153.725" x2="196.34" y2="-149.003" gradientUnits="userSpaceOnUse">
<stop stop-color="#001B8D"/>
<stop offset="1" stop-color="#0073D5"/>
</linearGradient>
<linearGradient id="paint20_linear_20981_299824" x1="232.194" y1="225.377" x2="235.74" y2="213.251" gradientUnits="userSpaceOnUse">
<stop stop-color="#FFA223"/>
<stop offset="1" stop-color="#FFB445"/>
</linearGradient>
<linearGradient id="paint21_linear_20981_299824" x1="125.25" y1="88.3139" x2="162.982" y2="88.3139" gradientUnits="userSpaceOnUse">
<stop stop-color="#FF4428"/>
<stop offset="1" stop-color="#FF7E3B"/>
</linearGradient>
<linearGradient id="paint22_linear_20981_299824" x1="271.277" y1="-144.326" x2="289.086" y2="-137.149" gradientUnits="userSpaceOnUse">
<stop stop-color="#FFA223"/>
<stop offset="1" stop-color="#FFB445"/>
</linearGradient>
<linearGradient id="paint23_linear_20981_299824" x1="270.255" y1="-142.022" x2="276.02" y2="-139.699" gradientUnits="userSpaceOnUse">
<stop stop-color="#FFA223"/>
<stop offset="1" stop-color="#FFB445"/>
</linearGradient>
<linearGradient id="paint24_linear_20981_299824" x1="269.471" y1="-138.913" x2="286.746" y2="-131.951" gradientUnits="userSpaceOnUse">
<stop stop-color="#FFA223"/>
<stop offset="1" stop-color="#FFB445"/>
</linearGradient>
<linearGradient id="paint25_linear_20981_299824" x1="282.533" y1="-137.134" x2="288.247" y2="-134.831" gradientUnits="userSpaceOnUse">
<stop stop-color="#FFA223"/>
<stop offset="1" stop-color="#FFB445"/>
</linearGradient>
<linearGradient id="paint26_linear_20981_299824" x1="282.992" y1="-131.595" x2="289.203" y2="-129.092" gradientUnits="userSpaceOnUse">
<stop stop-color="#FF4428"/>
<stop offset="1" stop-color="#FF7E3B"/>
</linearGradient>
<linearGradient id="paint27_linear_20981_299824" x1="305.019" y1="-67.2306" x2="340.015" y2="-53.1266" gradientUnits="userSpaceOnUse">
<stop stop-color="#001B8D"/>
<stop offset="1" stop-color="#0073D5"/>
</linearGradient>
<linearGradient id="paint28_linear_20981_299824" x1="320.722" y1="-47.7161" x2="338.532" y2="-40.5386" gradientUnits="userSpaceOnUse">
<stop stop-color="#FFA223"/>
<stop offset="1" stop-color="#FFB445"/>
</linearGradient>
<linearGradient id="paint29_linear_20981_299824" x1="319.699" y1="-45.4199" x2="325.464" y2="-43.0967" gradientUnits="userSpaceOnUse">
<stop stop-color="#FFA223"/>
<stop offset="1" stop-color="#FFB445"/>
</linearGradient>
<linearGradient id="paint30_linear_20981_299824" x1="318.914" y1="-42.3066" x2="336.189" y2="-35.3445" gradientUnits="userSpaceOnUse">
<stop stop-color="#FFA223"/>
<stop offset="1" stop-color="#FFB445"/>
</linearGradient>
<linearGradient id="paint31_linear_20981_299824" x1="331.977" y1="-40.5178" x2="337.691" y2="-38.2148" gradientUnits="userSpaceOnUse">
<stop stop-color="#FFA223"/>
<stop offset="1" stop-color="#FFB445"/>
</linearGradient>
<linearGradient id="paint32_linear_20981_299824" x1="332.435" y1="-34.9926" x2="338.646" y2="-32.4895" gradientUnits="userSpaceOnUse">
<stop stop-color="#FF4428"/>
<stop offset="1" stop-color="#FF7E3B"/>
</linearGradient>
<linearGradient id="paint33_linear_20981_299824" x1="303.815" y1="-135.103" x2="353.836" y2="-114.944" gradientUnits="userSpaceOnUse">
<stop stop-color="#007D90"/>
<stop offset="1" stop-color="#00BDD2"/>
</linearGradient>
<linearGradient id="paint34_linear_20981_299824" x1="324.974" y1="-109.229" x2="350.686" y2="-98.8669" gradientUnits="userSpaceOnUse">
<stop stop-color="#FFA223"/>
<stop offset="1" stop-color="#FFB445"/>
</linearGradient>
<linearGradient id="paint35_linear_20981_299824" x1="323.504" y1="-105.905" x2="331.827" y2="-102.551" gradientUnits="userSpaceOnUse">
<stop stop-color="#FFA223"/>
<stop offset="1" stop-color="#FFB445"/>
</linearGradient>
<linearGradient id="paint36_linear_20981_299824" x1="322.369" y1="-101.413" x2="347.314" y2="-91.3599" gradientUnits="userSpaceOnUse">
<stop stop-color="#FFA223"/>
<stop offset="1" stop-color="#FFB445"/>
</linearGradient>
<linearGradient id="paint37_linear_20981_299824" x1="341.229" y1="-98.836" x2="349.477" y2="-95.5121" gradientUnits="userSpaceOnUse">
<stop stop-color="#FFA223"/>
<stop offset="1" stop-color="#FFB445"/>
</linearGradient>
<linearGradient id="paint38_linear_20981_299824" x1="341.897" y1="-90.8509" x2="350.861" y2="-87.2381" gradientUnits="userSpaceOnUse">
<stop stop-color="#FF4428"/>
<stop offset="1" stop-color="#FF7E3B"/>
</linearGradient>
<clipPath id="clip0_20981_299824">
<rect width="305" height="265" fill="white" transform="translate(0.5)"/>
</clipPath>
<clipPath id="clip1_20981_299824">
<rect width="305" height="305" fill="white"/>
</clipPath>
</defs>
</svg>
