<svg width="307" height="301" viewBox="0 0 307 301" fill="none" xmlns="http://www.w3.org/2000/svg">
<path d="M54.412 5.537C54.37 5.607 54.3233 5.66067 54.272 5.698C54.2253 5.73067 54.167 5.747 54.097 5.747C54.0177 5.747 53.9243 5.70733 53.817 5.628C53.7097 5.54867 53.5743 5.46233 53.411 5.369C53.2523 5.271 53.0587 5.18233 52.83 5.103C52.606 5.02367 52.333 4.984 52.011 4.984C51.7077 4.984 51.4393 5.026 51.206 5.11C50.9773 5.18933 50.7837 5.299 50.625 5.439C50.471 5.579 50.3543 5.74467 50.275 5.936C50.1957 6.12267 50.156 6.32567 50.156 6.545C50.156 6.825 50.2237 7.05833 50.359 7.245C50.499 7.427 50.681 7.58333 50.905 7.714C51.1337 7.84467 51.3903 7.959 51.675 8.057C51.9643 8.15033 52.2583 8.24833 52.557 8.351C52.8603 8.45367 53.1543 8.57033 53.439 8.701C53.7283 8.827 53.985 8.988 54.209 9.184C54.4377 9.38 54.6197 9.62033 54.755 9.905C54.895 10.1897 54.965 10.5397 54.965 10.955C54.965 11.3937 54.8903 11.8067 54.741 12.194C54.5917 12.5767 54.3723 12.9103 54.083 13.195C53.7983 13.4797 53.446 13.7037 53.026 13.867C52.6107 14.0303 52.137 14.112 51.605 14.112C50.9517 14.112 50.359 13.9953 49.827 13.762C49.295 13.524 48.84 13.2043 48.462 12.803L48.854 12.159C48.8913 12.1077 48.9357 12.0657 48.987 12.033C49.043 11.9957 49.1037 11.977 49.169 11.977C49.2297 11.977 49.2973 12.0027 49.372 12.054C49.4513 12.1007 49.54 12.1613 49.638 12.236C49.736 12.3107 49.848 12.3923 49.974 12.481C50.1 12.5697 50.2423 12.6513 50.401 12.726C50.5643 12.8007 50.7487 12.8637 50.954 12.915C51.1593 12.9617 51.3903 12.985 51.647 12.985C51.969 12.985 52.256 12.9407 52.508 12.852C52.76 12.7633 52.9723 12.6397 53.145 12.481C53.3223 12.3177 53.4577 12.124 53.551 11.9C53.6443 11.676 53.691 11.4263 53.691 11.151C53.691 10.8477 53.621 10.6003 53.481 10.409C53.3457 10.213 53.166 10.0497 52.942 9.919C52.718 9.78833 52.4613 9.67867 52.172 9.59C51.8827 9.49667 51.5887 9.40333 51.29 9.31C50.9913 9.212 50.6973 9.1 50.408 8.974C50.1187 8.848 49.862 8.68467 49.638 8.484C49.414 8.28333 49.232 8.03367 49.092 7.735C48.9567 7.43167 48.889 7.05833 48.889 6.615C48.889 6.26033 48.9567 5.91733 49.092 5.586C49.232 5.25467 49.4327 4.96067 49.694 4.704C49.96 4.44733 50.2843 4.242 50.667 4.088C51.0543 3.934 51.4977 3.857 51.997 3.857C52.557 3.857 53.0657 3.94567 53.523 4.123C53.985 4.30033 54.391 4.557 54.741 4.893L54.412 5.537ZM61.2935 9.681C61.2935 9.39167 61.2515 9.128 61.1675 8.89C61.0882 8.64733 60.9692 8.43967 60.8105 8.267C60.6565 8.08967 60.4675 7.95433 60.2435 7.861C60.0195 7.763 59.7652 7.714 59.4805 7.714C58.8832 7.714 58.4095 7.889 58.0595 8.239C57.7142 8.58433 57.4995 9.065 57.4155 9.681H61.2935ZM62.3015 13.006C62.1475 13.1927 61.9632 13.356 61.7485 13.496C61.5339 13.6313 61.3029 13.7433 61.0555 13.832C60.8129 13.9207 60.5609 13.986 60.2995 14.028C60.0382 14.0747 59.7792 14.098 59.5225 14.098C59.0325 14.098 58.5799 14.0163 58.1645 13.853C57.7539 13.685 57.3969 13.4423 57.0935 13.125C56.7949 12.803 56.5615 12.4063 56.3935 11.935C56.2255 11.4637 56.1415 10.9223 56.1415 10.311C56.1415 9.81633 56.2162 9.35433 56.3655 8.925C56.5195 8.49567 56.7389 8.12467 57.0235 7.812C57.3082 7.49467 57.6559 7.24733 58.0665 7.07C58.4772 6.888 58.9392 6.797 59.4525 6.797C59.8772 6.797 60.2692 6.86933 60.6285 7.014C60.9925 7.154 61.3052 7.35933 61.5665 7.63C61.8325 7.896 62.0402 8.22733 62.1895 8.624C62.3389 9.016 62.4135 9.464 62.4135 9.968C62.4135 10.164 62.3925 10.2947 62.3505 10.36C62.3085 10.4253 62.2292 10.458 62.1125 10.458H57.3735C57.3875 10.906 57.4482 11.2957 57.5555 11.627C57.6675 11.9583 57.8215 12.236 58.0175 12.46C58.2135 12.6793 58.4469 12.845 58.7175 12.957C58.9882 13.0643 59.2915 13.118 59.6275 13.118C59.9402 13.118 60.2085 13.083 60.4325 13.013C60.6612 12.9383 60.8572 12.859 61.0205 12.775C61.1839 12.691 61.3192 12.614 61.4265 12.544C61.5385 12.4693 61.6342 12.432 61.7135 12.432C61.8162 12.432 61.8955 12.4717 61.9515 12.551L62.3015 13.006ZM65.232 3.689V14H63.986V3.689H65.232ZM71.9986 9.681C71.9986 9.39167 71.9566 9.128 71.8726 8.89C71.7933 8.64733 71.6743 8.43967 71.5156 8.267C71.3616 8.08967 71.1726 7.95433 70.9486 7.861C70.7246 7.763 70.4703 7.714 70.1856 7.714C69.5883 7.714 69.1146 7.889 68.7646 8.239C68.4193 8.58433 68.2046 9.065 68.1206 9.681H71.9986ZM73.0066 13.006C72.8526 13.1927 72.6683 13.356 72.4536 13.496C72.239 13.6313 72.008 13.7433 71.7606 13.832C71.518 13.9207 71.266 13.986 71.0046 14.028C70.7433 14.0747 70.4843 14.098 70.2276 14.098C69.7376 14.098 69.285 14.0163 68.8696 13.853C68.459 13.685 68.102 13.4423 67.7986 13.125C67.5 12.803 67.2666 12.4063 67.0986 11.935C66.9306 11.4637 66.8466 10.9223 66.8466 10.311C66.8466 9.81633 66.9213 9.35433 67.0706 8.925C67.2246 8.49567 67.444 8.12467 67.7286 7.812C68.0133 7.49467 68.361 7.24733 68.7716 7.07C69.1823 6.888 69.6443 6.797 70.1576 6.797C70.5823 6.797 70.9743 6.86933 71.3336 7.014C71.6976 7.154 72.0103 7.35933 72.2716 7.63C72.5376 7.896 72.7453 8.22733 72.8946 8.624C73.044 9.016 73.1186 9.464 73.1186 9.968C73.1186 10.164 73.0976 10.2947 73.0556 10.36C73.0136 10.4253 72.9343 10.458 72.8176 10.458H68.0786C68.0926 10.906 68.1533 11.2957 68.2606 11.627C68.3726 11.9583 68.5266 12.236 68.7226 12.46C68.9186 12.6793 69.152 12.845 69.4226 12.957C69.6933 13.0643 69.9966 13.118 70.3326 13.118C70.6453 13.118 70.9136 13.083 71.1376 13.013C71.3663 12.9383 71.5623 12.859 71.7256 12.775C71.889 12.691 72.0243 12.614 72.1316 12.544C72.2436 12.4693 72.3393 12.432 72.4186 12.432C72.5213 12.432 72.6006 12.4717 72.6566 12.551L73.0066 13.006ZM79.5841 8.169C79.5468 8.22033 79.5094 8.26 79.4721 8.288C79.4348 8.316 79.3834 8.33 79.3181 8.33C79.2481 8.33 79.1711 8.302 79.0871 8.246C79.0031 8.18533 78.8981 8.12 78.7721 8.05C78.6508 7.98 78.4991 7.917 78.3171 7.861C78.1398 7.80033 77.9204 7.77 77.6591 7.77C77.3091 7.77 77.0011 7.833 76.7351 7.959C76.4691 8.08033 76.2451 8.25767 76.0631 8.491C75.8858 8.72433 75.7504 9.00667 75.6571 9.338C75.5684 9.66933 75.5241 10.0403 75.5241 10.451C75.5241 10.8803 75.5731 11.263 75.6711 11.599C75.7691 11.9303 75.9068 12.2103 76.0841 12.439C76.2661 12.663 76.4831 12.8357 76.7351 12.957C76.9918 13.0737 77.2788 13.132 77.5961 13.132C77.8994 13.132 78.1491 13.097 78.3451 13.027C78.5411 12.9523 78.7021 12.8707 78.8281 12.782C78.9588 12.6933 79.0661 12.614 79.1501 12.544C79.2388 12.4693 79.3251 12.432 79.4091 12.432C79.5118 12.432 79.5911 12.4717 79.6471 12.551L79.9971 13.006C79.8431 13.1973 79.6681 13.3607 79.4721 13.496C79.2761 13.6313 79.0638 13.7457 78.8351 13.839C78.6111 13.9277 78.3754 13.993 78.1281 14.035C77.8808 14.077 77.6288 14.098 77.3721 14.098C76.9288 14.098 76.5158 14.0163 76.1331 13.853C75.7551 13.6897 75.4261 13.454 75.1461 13.146C74.8661 12.8333 74.6468 12.4507 74.4881 11.998C74.3294 11.5453 74.2501 11.0297 74.2501 10.451C74.2501 9.92367 74.3224 9.436 74.4671 8.988C74.6164 8.54 74.8311 8.155 75.1111 7.833C75.3958 7.50633 75.7434 7.252 76.1541 7.07C76.5694 6.888 77.0454 6.797 77.5821 6.797C78.0814 6.797 78.5201 6.87867 78.8981 7.042C79.2808 7.20067 79.6191 7.427 79.9131 7.721L79.5841 8.169ZM83.5117 14.112C82.9517 14.112 82.52 13.9557 82.2167 13.643C81.918 13.3303 81.7687 12.88 81.7687 12.292V7.952H80.9147C80.84 7.952 80.777 7.931 80.7257 7.889C80.6743 7.84233 80.6487 7.77233 80.6487 7.679V7.182L81.8107 7.035L82.0977 4.844C82.1117 4.774 82.142 4.718 82.1887 4.676C82.24 4.62933 82.3053 4.606 82.3847 4.606H83.0147V7.049H85.0657V7.952H83.0147V12.208C83.0147 12.5067 83.087 12.7283 83.2317 12.873C83.3763 13.0177 83.563 13.09 83.7917 13.09C83.9223 13.09 84.0343 13.0737 84.1277 13.041C84.2257 13.0037 84.3097 12.964 84.3797 12.922C84.4497 12.88 84.508 12.8427 84.5547 12.81C84.606 12.7727 84.6503 12.754 84.6877 12.754C84.753 12.754 84.8113 12.7937 84.8627 12.873L85.2267 13.468C85.012 13.6687 84.753 13.8273 84.4497 13.944C84.1463 14.056 83.8337 14.112 83.5117 14.112ZM91.1873 12.292C91.4159 12.6 91.6656 12.817 91.9363 12.943C92.2069 13.069 92.5103 13.132 92.8463 13.132C93.5089 13.132 94.0176 12.8963 94.3723 12.425C94.7269 11.9537 94.9043 11.2817 94.9043 10.409C94.9043 9.947 94.8623 9.55033 94.7783 9.219C94.6989 8.88767 94.5823 8.617 94.4283 8.407C94.2743 8.19233 94.0853 8.036 93.8613 7.938C93.6373 7.84 93.3829 7.791 93.0983 7.791C92.6923 7.791 92.3353 7.88433 92.0273 8.071C91.7239 8.25767 91.4439 8.52133 91.1873 8.862V12.292ZM91.1243 8.008C91.4229 7.63933 91.7683 7.343 92.1603 7.119C92.5523 6.895 93.0003 6.783 93.5043 6.783C93.9149 6.783 94.2859 6.86233 94.6173 7.021C94.9486 7.175 95.2309 7.406 95.4643 7.714C95.6976 8.01733 95.8773 8.39533 96.0033 8.848C96.1293 9.30067 96.1923 9.821 96.1923 10.409C96.1923 10.9317 96.1223 11.4193 95.9823 11.872C95.8423 12.32 95.6393 12.7097 95.3733 13.041C95.1119 13.3677 94.7899 13.6267 94.4073 13.818C94.0293 14.0047 93.6023 14.098 93.1263 14.098C92.6923 14.098 92.3189 14.0257 92.0063 13.881C91.6983 13.7317 91.4253 13.5263 91.1873 13.265V16.401H89.9343V6.909H90.6833C90.8606 6.909 90.9703 6.99533 91.0123 7.168L91.1243 8.008ZM102.528 9.681C102.528 9.39167 102.486 9.128 102.402 8.89C102.323 8.64733 102.204 8.43967 102.045 8.267C101.891 8.08967 101.702 7.95433 101.478 7.861C101.254 7.763 101 7.714 100.715 7.714C100.118 7.714 99.6439 7.889 99.2939 8.239C98.9486 8.58433 98.7339 9.065 98.6499 9.681H102.528ZM103.536 13.006C103.382 13.1927 103.198 13.356 102.983 13.496C102.768 13.6313 102.537 13.7433 102.29 13.832C102.047 13.9207 101.795 13.986 101.534 14.028C101.273 14.0747 101.014 14.098 100.757 14.098C100.267 14.098 99.8143 14.0163 99.3989 13.853C98.9883 13.685 98.6313 13.4423 98.3279 13.125C98.0293 12.803 97.7959 12.4063 97.6279 11.935C97.4599 11.4637 97.3759 10.9223 97.3759 10.311C97.3759 9.81633 97.4506 9.35433 97.5999 8.925C97.7539 8.49567 97.9733 8.12467 98.2579 7.812C98.5426 7.49467 98.8903 7.24733 99.3009 7.07C99.7116 6.888 100.174 6.797 100.687 6.797C101.112 6.797 101.504 6.86933 101.863 7.014C102.227 7.154 102.54 7.35933 102.801 7.63C103.067 7.896 103.275 8.22733 103.424 8.624C103.573 9.016 103.648 9.464 103.648 9.968C103.648 10.164 103.627 10.2947 103.585 10.36C103.543 10.4253 103.464 10.458 103.347 10.458H98.6079C98.6219 10.906 98.6826 11.2957 98.7899 11.627C98.9019 11.9583 99.0559 12.236 99.2519 12.46C99.4479 12.6793 99.6813 12.845 99.9519 12.957C100.223 13.0643 100.526 13.118 100.862 13.118C101.175 13.118 101.443 13.083 101.667 13.013C101.896 12.9383 102.092 12.859 102.255 12.775C102.418 12.691 102.554 12.614 102.661 12.544C102.773 12.4693 102.869 12.432 102.948 12.432C103.051 12.432 103.13 12.4717 103.186 12.551L103.536 13.006ZM108.167 6.797C108.685 6.797 109.152 6.88333 109.567 7.056C109.983 7.22867 110.337 7.47367 110.631 7.791C110.925 8.10833 111.149 8.49333 111.303 8.946C111.462 9.394 111.541 9.89567 111.541 10.451C111.541 11.011 111.462 11.515 111.303 11.963C111.149 12.411 110.925 12.7937 110.631 13.111C110.337 13.4283 109.983 13.6733 109.567 13.846C109.152 14.014 108.685 14.098 108.167 14.098C107.645 14.098 107.173 14.014 106.753 13.846C106.338 13.6733 105.983 13.4283 105.689 13.111C105.395 12.7937 105.169 12.411 105.01 11.963C104.856 11.515 104.779 11.011 104.779 10.451C104.779 9.89567 104.856 9.394 105.01 8.946C105.169 8.49333 105.395 8.10833 105.689 7.791C105.983 7.47367 106.338 7.22867 106.753 7.056C107.173 6.88333 107.645 6.797 108.167 6.797ZM108.167 13.125C108.867 13.125 109.39 12.8917 109.735 12.425C110.081 11.9537 110.253 11.298 110.253 10.458C110.253 9.61333 110.081 8.95533 109.735 8.484C109.39 8.01267 108.867 7.777 108.167 7.777C107.813 7.777 107.502 7.83767 107.236 7.959C106.975 8.08033 106.756 8.25533 106.578 8.484C106.406 8.71267 106.275 8.995 106.186 9.331C106.102 9.66233 106.06 10.038 106.06 10.458C106.06 11.298 106.233 11.9537 106.578 12.425C106.928 12.8917 107.458 13.125 108.167 13.125ZM114.375 12.292C114.603 12.6 114.853 12.817 115.124 12.943C115.394 13.069 115.698 13.132 116.034 13.132C116.696 13.132 117.205 12.8963 117.56 12.425C117.914 11.9537 118.092 11.2817 118.092 10.409C118.092 9.947 118.05 9.55033 117.966 9.219C117.886 8.88767 117.77 8.617 117.616 8.407C117.462 8.19233 117.273 8.036 117.049 7.938C116.825 7.84 116.57 7.791 116.286 7.791C115.88 7.791 115.523 7.88433 115.215 8.071C114.911 8.25767 114.631 8.52133 114.375 8.862V12.292ZM114.312 8.008C114.61 7.63933 114.956 7.343 115.348 7.119C115.74 6.895 116.188 6.783 116.692 6.783C117.102 6.783 117.473 6.86233 117.805 7.021C118.136 7.175 118.418 7.406 118.652 7.714C118.885 8.01733 119.065 8.39533 119.191 8.848C119.317 9.30067 119.38 9.821 119.38 10.409C119.38 10.9317 119.31 11.4193 119.17 11.872C119.03 12.32 118.827 12.7097 118.561 13.041C118.299 13.3677 117.977 13.6267 117.595 13.818C117.217 14.0047 116.79 14.098 116.314 14.098C115.88 14.098 115.506 14.0257 115.194 13.881C114.886 13.7317 114.613 13.5263 114.375 13.265V16.401H113.122V6.909H113.871C114.048 6.909 114.158 6.99533 114.2 7.168L114.312 8.008ZM122.257 3.689V14H121.011V3.689H122.257ZM129.024 9.681C129.024 9.39167 128.982 9.128 128.898 8.89C128.819 8.64733 128.7 8.43967 128.541 8.267C128.387 8.08967 128.198 7.95433 127.974 7.861C127.75 7.763 127.496 7.714 127.211 7.714C126.614 7.714 126.14 7.889 125.79 8.239C125.445 8.58433 125.23 9.065 125.146 9.681H129.024ZM130.032 13.006C129.878 13.1927 129.694 13.356 129.479 13.496C129.264 13.6313 129.033 13.7433 128.786 13.832C128.543 13.9207 128.291 13.986 128.03 14.028C127.769 14.0747 127.51 14.098 127.253 14.098C126.763 14.098 126.31 14.0163 125.895 13.853C125.484 13.685 125.127 13.4423 124.824 13.125C124.525 12.803 124.292 12.4063 124.124 11.935C123.956 11.4637 123.872 10.9223 123.872 10.311C123.872 9.81633 123.947 9.35433 124.096 8.925C124.25 8.49567 124.469 8.12467 124.754 7.812C125.039 7.49467 125.386 7.24733 125.797 7.07C126.208 6.888 126.67 6.797 127.183 6.797C127.608 6.797 128 6.86933 128.359 7.014C128.723 7.154 129.036 7.35933 129.297 7.63C129.563 7.896 129.771 8.22733 129.92 8.624C130.069 9.016 130.144 9.464 130.144 9.968C130.144 10.164 130.123 10.2947 130.081 10.36C130.039 10.4253 129.96 10.458 129.843 10.458H125.104C125.118 10.906 125.179 11.2957 125.286 11.627C125.398 11.9583 125.552 12.236 125.748 12.46C125.944 12.6793 126.177 12.845 126.448 12.957C126.719 13.0643 127.022 13.118 127.358 13.118C127.671 13.118 127.939 13.083 128.163 13.013C128.392 12.9383 128.588 12.859 128.751 12.775C128.914 12.691 129.05 12.614 129.157 12.544C129.269 12.4693 129.365 12.432 129.444 12.432C129.547 12.432 129.626 12.4717 129.682 12.551L130.032 13.006ZM137.434 14.112C136.874 14.112 136.442 13.9557 136.139 13.643C135.84 13.3303 135.691 12.88 135.691 12.292V7.952H134.837C134.762 7.952 134.699 7.931 134.648 7.889C134.596 7.84233 134.571 7.77233 134.571 7.679V7.182L135.733 7.035L136.02 4.844C136.034 4.774 136.064 4.718 136.111 4.676C136.162 4.62933 136.227 4.606 136.307 4.606H136.937V7.049H138.988V7.952H136.937V12.208C136.937 12.5067 137.009 12.7283 137.154 12.873C137.298 13.0177 137.485 13.09 137.714 13.09C137.844 13.09 137.956 13.0737 138.05 13.041C138.148 13.0037 138.232 12.964 138.302 12.922C138.372 12.88 138.43 12.8427 138.477 12.81C138.528 12.7727 138.572 12.754 138.61 12.754C138.675 12.754 138.733 12.7937 138.785 12.873L139.149 13.468C138.934 13.6687 138.675 13.8273 138.372 13.944C138.068 14.056 137.756 14.112 137.434 14.112ZM143.222 6.797C143.74 6.797 144.207 6.88333 144.622 7.056C145.037 7.22867 145.392 7.47367 145.686 7.791C145.98 8.10833 146.204 8.49333 146.358 8.946C146.517 9.394 146.596 9.89567 146.596 10.451C146.596 11.011 146.517 11.515 146.358 11.963C146.204 12.411 145.98 12.7937 145.686 13.111C145.392 13.4283 145.037 13.6733 144.622 13.846C144.207 14.014 143.74 14.098 143.222 14.098C142.699 14.098 142.228 14.014 141.808 13.846C141.393 13.6733 141.038 13.4283 140.744 13.111C140.45 12.7937 140.224 12.411 140.065 11.963C139.911 11.515 139.834 11.011 139.834 10.451C139.834 9.89567 139.911 9.394 140.065 8.946C140.224 8.49333 140.45 8.10833 140.744 7.791C141.038 7.47367 141.393 7.22867 141.808 7.056C142.228 6.88333 142.699 6.797 143.222 6.797ZM143.222 13.125C143.922 13.125 144.445 12.8917 144.79 12.425C145.135 11.9537 145.308 11.298 145.308 10.458C145.308 9.61333 145.135 8.95533 144.79 8.484C144.445 8.01267 143.922 7.777 143.222 7.777C142.867 7.777 142.557 7.83767 142.291 7.959C142.03 8.08033 141.81 8.25533 141.633 8.484C141.46 8.71267 141.33 8.995 141.241 9.331C141.157 9.66233 141.115 10.038 141.115 10.458C141.115 11.298 141.288 11.9537 141.633 12.425C141.983 12.8917 142.513 13.125 143.222 13.125ZM155.601 10.808C155.027 10.8267 154.537 10.8733 154.131 10.948C153.73 11.018 153.401 11.1113 153.144 11.228C152.892 11.3447 152.708 11.4823 152.591 11.641C152.479 11.7997 152.423 11.977 152.423 12.173C152.423 12.3597 152.454 12.5207 152.514 12.656C152.575 12.7913 152.657 12.9033 152.759 12.992C152.867 13.076 152.99 13.139 153.13 13.181C153.275 13.2183 153.429 13.237 153.592 13.237C153.812 13.237 154.012 13.216 154.194 13.174C154.376 13.1273 154.547 13.062 154.705 12.978C154.869 12.894 155.023 12.7937 155.167 12.677C155.317 12.5603 155.461 12.4273 155.601 12.278V10.808ZM151.576 7.91C151.968 7.532 152.391 7.24967 152.843 7.063C153.296 6.87633 153.798 6.783 154.348 6.783C154.745 6.783 155.097 6.84833 155.405 6.979C155.713 7.10967 155.972 7.29167 156.182 7.525C156.392 7.75833 156.551 8.04067 156.658 8.372C156.766 8.70333 156.819 9.06733 156.819 9.464V14H156.266C156.145 14 156.052 13.9813 155.986 13.944C155.921 13.902 155.87 13.8227 155.832 13.706L155.692 13.034C155.506 13.2067 155.324 13.3607 155.146 13.496C154.969 13.6267 154.782 13.7387 154.586 13.832C154.39 13.9207 154.18 13.9883 153.956 14.035C153.737 14.0863 153.492 14.112 153.221 14.112C152.946 14.112 152.687 14.0747 152.444 14C152.202 13.9207 151.989 13.804 151.807 13.65C151.63 13.496 151.488 13.3023 151.38 13.069C151.278 12.831 151.226 12.551 151.226 12.229C151.226 11.949 151.303 11.6807 151.457 11.424C151.611 11.1627 151.861 10.9317 152.206 10.731C152.552 10.5303 153.002 10.367 153.557 10.241C154.113 10.1103 154.794 10.0357 155.601 10.017V9.464C155.601 8.91333 155.482 8.498 155.244 8.218C155.006 7.93333 154.659 7.791 154.201 7.791C153.893 7.791 153.634 7.83067 153.424 7.91C153.219 7.98467 153.039 8.071 152.885 8.169C152.736 8.26233 152.605 8.34867 152.493 8.428C152.386 8.50267 152.279 8.54 152.171 8.54C152.087 8.54 152.015 8.519 151.954 8.477C151.894 8.43033 151.842 8.37433 151.8 8.309L151.576 7.91ZM163.337 8.596C163.104 8.28333 162.852 8.06633 162.581 7.945C162.311 7.819 162.007 7.756 161.671 7.756C161.013 7.756 160.507 7.99167 160.152 8.463C159.798 8.93433 159.62 9.60633 159.62 10.479C159.62 10.941 159.66 11.3377 159.739 11.669C159.819 11.9957 159.935 12.2663 160.089 12.481C160.243 12.691 160.432 12.845 160.656 12.943C160.88 13.041 161.135 13.09 161.419 13.09C161.83 13.09 162.187 12.9967 162.49 12.81C162.798 12.6233 163.081 12.3597 163.337 12.019V8.596ZM164.583 3.689V14H163.841C163.664 14 163.552 13.9137 163.505 13.741L163.393 12.88C163.09 13.244 162.745 13.538 162.357 13.762C161.97 13.986 161.522 14.098 161.013 14.098C160.607 14.098 160.239 14.021 159.907 13.867C159.576 13.7083 159.294 13.4773 159.06 13.174C158.827 12.8707 158.647 12.4927 158.521 12.04C158.395 11.5873 158.332 11.067 158.332 10.479C158.332 9.95633 158.402 9.471 158.542 9.023C158.682 8.57033 158.883 8.17833 159.144 7.847C159.406 7.51567 159.725 7.25667 160.103 7.07C160.486 6.87867 160.915 6.783 161.391 6.783C161.825 6.783 162.196 6.85767 162.504 7.007C162.817 7.15167 163.095 7.35467 163.337 7.616V3.689H164.583ZM171.171 8.596C170.938 8.28333 170.686 8.06633 170.415 7.945C170.145 7.819 169.841 7.756 169.505 7.756C168.847 7.756 168.341 7.99167 167.986 8.463C167.632 8.93433 167.454 9.60633 167.454 10.479C167.454 10.941 167.494 11.3377 167.573 11.669C167.653 11.9957 167.769 12.2663 167.923 12.481C168.077 12.691 168.266 12.845 168.49 12.943C168.714 13.041 168.969 13.09 169.253 13.09C169.664 13.09 170.021 12.9967 170.324 12.81C170.632 12.6233 170.915 12.3597 171.171 12.019V8.596ZM172.417 3.689V14H171.675C171.498 14 171.386 13.9137 171.339 13.741L171.227 12.88C170.924 13.244 170.579 13.538 170.191 13.762C169.804 13.986 169.356 14.098 168.847 14.098C168.441 14.098 168.073 14.021 167.741 13.867C167.41 13.7083 167.128 13.4773 166.894 13.174C166.661 12.8707 166.481 12.4927 166.355 12.04C166.229 11.5873 166.166 11.067 166.166 10.479C166.166 9.95633 166.236 9.471 166.376 9.023C166.516 8.57033 166.717 8.17833 166.978 7.847C167.24 7.51567 167.559 7.25667 167.937 7.07C168.32 6.87867 168.749 6.783 169.225 6.783C169.659 6.783 170.03 6.85767 170.338 7.007C170.651 7.15167 170.929 7.35467 171.171 7.616V3.689H172.417ZM179.283 6.909V14H178.037V6.909H179.283ZM179.549 4.683C179.549 4.80433 179.524 4.91867 179.472 5.026C179.426 5.12867 179.36 5.222 179.276 5.306C179.197 5.38533 179.101 5.44833 178.989 5.495C178.882 5.54167 178.768 5.565 178.646 5.565C178.525 5.565 178.411 5.54167 178.303 5.495C178.201 5.44833 178.11 5.38533 178.03 5.306C177.951 5.222 177.888 5.12867 177.841 5.026C177.795 4.91867 177.771 4.80433 177.771 4.683C177.771 4.56167 177.795 4.44733 177.841 4.34C177.888 4.228 177.951 4.13233 178.03 4.053C178.11 3.969 178.201 3.90367 178.303 3.857C178.411 3.81033 178.525 3.787 178.646 3.787C178.768 3.787 178.882 3.81033 178.989 3.857C179.101 3.90367 179.197 3.969 179.276 4.053C179.36 4.13233 179.426 4.228 179.472 4.34C179.524 4.44733 179.549 4.56167 179.549 4.683ZM182.507 7.938C182.661 7.76533 182.824 7.609 182.997 7.469C183.169 7.329 183.351 7.21 183.543 7.112C183.739 7.00933 183.944 6.93233 184.159 6.881C184.378 6.825 184.614 6.797 184.866 6.797C185.253 6.797 185.594 6.86233 185.888 6.993C186.186 7.119 186.434 7.301 186.63 7.539C186.83 7.77233 186.982 8.05467 187.085 8.386C187.187 8.71733 187.239 9.08367 187.239 9.485V14H185.986V9.485C185.986 8.94833 185.862 8.533 185.615 8.239C185.372 7.94033 185.001 7.791 184.502 7.791C184.133 7.791 183.788 7.87967 183.466 8.057C183.148 8.23433 182.854 8.47467 182.584 8.778V14H181.331V6.909H182.08C182.257 6.909 182.367 6.99533 182.409 7.168L182.507 7.938ZM194.896 14.112C194.336 14.112 193.905 13.9557 193.601 13.643C193.303 13.3303 193.153 12.88 193.153 12.292V7.952H192.299C192.225 7.952 192.162 7.931 192.11 7.889C192.059 7.84233 192.033 7.77233 192.033 7.679V7.182L193.195 7.035L193.482 4.844C193.496 4.774 193.527 4.718 193.573 4.676C193.625 4.62933 193.69 4.606 193.769 4.606H194.399V7.049H196.45V7.952H194.399V12.208C194.399 12.5067 194.472 12.7283 194.616 12.873C194.761 13.0177 194.948 13.09 195.176 13.09C195.307 13.09 195.419 13.0737 195.512 13.041C195.61 13.0037 195.694 12.964 195.764 12.922C195.834 12.88 195.893 12.8427 195.939 12.81C195.991 12.7727 196.035 12.754 196.072 12.754C196.138 12.754 196.196 12.7937 196.247 12.873L196.611 13.468C196.397 13.6687 196.138 13.8273 195.834 13.944C195.531 14.056 195.218 14.112 194.896 14.112ZM198.99 7.854C199.293 7.532 199.629 7.27533 199.998 7.084C200.367 6.89267 200.791 6.797 201.272 6.797C201.659 6.797 202 6.86233 202.294 6.993C202.593 7.119 202.84 7.301 203.036 7.539C203.237 7.77233 203.388 8.05467 203.491 8.386C203.594 8.71733 203.645 9.08367 203.645 9.485V14H202.392V9.485C202.392 8.94833 202.268 8.533 202.021 8.239C201.778 7.94033 201.407 7.791 200.908 7.791C200.539 7.791 200.194 7.87967 199.872 8.057C199.555 8.23433 199.261 8.47467 198.99 8.778V14H197.737V3.689H198.99V7.854ZM210.29 9.681C210.29 9.39167 210.248 9.128 210.164 8.89C210.084 8.64733 209.965 8.43967 209.807 8.267C209.653 8.08967 209.464 7.95433 209.24 7.861C209.016 7.763 208.761 7.714 208.477 7.714C207.879 7.714 207.406 7.889 207.056 8.239C206.71 8.58433 206.496 9.065 206.412 9.681H210.29ZM211.298 13.006C211.144 13.1927 210.959 13.356 210.745 13.496C210.53 13.6313 210.299 13.7433 210.052 13.832C209.809 13.9207 209.557 13.986 209.296 14.028C209.034 14.0747 208.775 14.098 208.519 14.098C208.029 14.098 207.576 14.0163 207.161 13.853C206.75 13.685 206.393 13.4423 206.09 13.125C205.791 12.803 205.558 12.4063 205.39 11.935C205.222 11.4637 205.138 10.9223 205.138 10.311C205.138 9.81633 205.212 9.35433 205.362 8.925C205.516 8.49567 205.735 8.12467 206.02 7.812C206.304 7.49467 206.652 7.24733 207.063 7.07C207.473 6.888 207.935 6.797 208.449 6.797C208.873 6.797 209.265 6.86933 209.625 7.014C209.989 7.154 210.301 7.35933 210.563 7.63C210.829 7.896 211.036 8.22733 211.186 8.624C211.335 9.016 211.41 9.464 211.41 9.968C211.41 10.164 211.389 10.2947 211.347 10.36C211.305 10.4253 211.225 10.458 211.109 10.458H206.37C206.384 10.906 206.444 11.2957 206.552 11.627C206.664 11.9583 206.818 12.236 207.014 12.46C207.21 12.6793 207.443 12.845 207.714 12.957C207.984 13.0643 208.288 13.118 208.624 13.118C208.936 13.118 209.205 13.083 209.429 13.013C209.657 12.9383 209.853 12.859 210.017 12.775C210.18 12.691 210.315 12.614 210.423 12.544C210.535 12.4693 210.63 12.432 210.71 12.432C210.812 12.432 210.892 12.4717 210.948 12.551L211.298 13.006ZM217.705 8.33C217.929 7.84467 218.204 7.46667 218.531 7.196C218.858 6.92067 219.257 6.783 219.728 6.783C219.877 6.783 220.02 6.79933 220.155 6.832C220.295 6.86467 220.419 6.916 220.526 6.986L220.435 7.917C220.407 8.03367 220.337 8.092 220.225 8.092C220.16 8.092 220.064 8.078 219.938 8.05C219.812 8.022 219.67 8.008 219.511 8.008C219.287 8.008 219.086 8.04067 218.909 8.106C218.736 8.17133 218.58 8.26933 218.44 8.4C218.305 8.526 218.181 8.68467 218.069 8.876C217.962 9.06267 217.864 9.27733 217.775 9.52V14H216.522V6.909H217.236C217.371 6.909 217.465 6.93467 217.516 6.986C217.567 7.03733 217.602 7.126 217.621 7.252L217.705 8.33ZM224.324 6.797C224.842 6.797 225.308 6.88333 225.724 7.056C226.139 7.22867 226.494 7.47367 226.788 7.791C227.082 8.10833 227.306 8.49333 227.46 8.946C227.618 9.394 227.698 9.89567 227.698 10.451C227.698 11.011 227.618 11.515 227.46 11.963C227.306 12.411 227.082 12.7937 226.788 13.111C226.494 13.4283 226.139 13.6733 225.724 13.846C225.308 14.014 224.842 14.098 224.324 14.098C223.801 14.098 223.33 14.014 222.91 13.846C222.494 13.6733 222.14 13.4283 221.846 13.111C221.552 12.7937 221.325 12.411 221.167 11.963C221.013 11.515 220.936 11.011 220.936 10.451C220.936 9.89567 221.013 9.394 221.167 8.946C221.325 8.49333 221.552 8.10833 221.846 7.791C222.14 7.47367 222.494 7.22867 222.91 7.056C223.33 6.88333 223.801 6.797 224.324 6.797ZM224.324 13.125C225.024 13.125 225.546 12.8917 225.892 12.425C226.237 11.9537 226.41 11.298 226.41 10.458C226.41 9.61333 226.237 8.95533 225.892 8.484C225.546 8.01267 225.024 7.777 224.324 7.777C223.969 7.777 223.659 7.83767 223.393 7.959C223.131 8.08033 222.912 8.25533 222.735 8.484C222.562 8.71267 222.431 8.995 222.343 9.331C222.259 9.66233 222.217 10.038 222.217 10.458C222.217 11.298 222.389 11.9537 222.735 12.425C223.085 12.8917 223.614 13.125 224.324 13.125ZM233.121 10.808C232.547 10.8267 232.057 10.8733 231.651 10.948C231.25 11.018 230.921 11.1113 230.664 11.228C230.412 11.3447 230.228 11.4823 230.111 11.641C229.999 11.7997 229.943 11.977 229.943 12.173C229.943 12.3597 229.973 12.5207 230.034 12.656C230.095 12.7913 230.176 12.9033 230.279 12.992C230.386 13.076 230.51 13.139 230.65 13.181C230.795 13.2183 230.949 13.237 231.112 13.237C231.331 13.237 231.532 13.216 231.714 13.174C231.896 13.1273 232.066 13.062 232.225 12.978C232.388 12.894 232.542 12.7937 232.687 12.677C232.836 12.5603 232.981 12.4273 233.121 12.278V10.808ZM229.096 7.91C229.488 7.532 229.91 7.24967 230.363 7.063C230.816 6.87633 231.317 6.783 231.868 6.783C232.265 6.783 232.617 6.84833 232.925 6.979C233.233 7.10967 233.492 7.29167 233.702 7.525C233.912 7.75833 234.071 8.04067 234.178 8.372C234.285 8.70333 234.339 9.06733 234.339 9.464V14H233.786C233.665 14 233.571 13.9813 233.506 13.944C233.441 13.902 233.389 13.8227 233.352 13.706L233.212 13.034C233.025 13.2067 232.843 13.3607 232.666 13.496C232.489 13.6267 232.302 13.7387 232.106 13.832C231.91 13.9207 231.7 13.9883 231.476 14.035C231.257 14.0863 231.012 14.112 230.741 14.112C230.466 14.112 230.207 14.0747 229.964 14C229.721 13.9207 229.509 13.804 229.327 13.65C229.15 13.496 229.007 13.3023 228.9 13.069C228.797 12.831 228.746 12.551 228.746 12.229C228.746 11.949 228.823 11.6807 228.977 11.424C229.131 11.1627 229.381 10.9317 229.726 10.731C230.071 10.5303 230.522 10.367 231.077 10.241C231.632 10.1103 232.314 10.0357 233.121 10.017V9.464C233.121 8.91333 233.002 8.498 232.764 8.218C232.526 7.93333 232.178 7.791 231.721 7.791C231.413 7.791 231.154 7.83067 230.944 7.91C230.739 7.98467 230.559 8.071 230.405 8.169C230.256 8.26233 230.125 8.34867 230.013 8.428C229.906 8.50267 229.798 8.54 229.691 8.54C229.607 8.54 229.535 8.519 229.474 8.477C229.413 8.43033 229.362 8.37433 229.32 8.309L229.096 7.91ZM240.367 8.078C240.311 8.18067 240.225 8.232 240.108 8.232C240.038 8.232 239.959 8.20633 239.87 8.155C239.781 8.10367 239.672 8.04767 239.541 7.987C239.415 7.92167 239.263 7.86333 239.086 7.812C238.909 7.756 238.699 7.728 238.456 7.728C238.246 7.728 238.057 7.756 237.889 7.812C237.721 7.86333 237.576 7.93567 237.455 8.029C237.338 8.12233 237.247 8.232 237.182 8.358C237.121 8.47933 237.091 8.61233 237.091 8.757C237.091 8.939 237.142 9.09067 237.245 9.212C237.352 9.33333 237.492 9.43833 237.665 9.527C237.838 9.61567 238.034 9.695 238.253 9.765C238.472 9.83033 238.696 9.90267 238.925 9.982C239.158 10.0567 239.385 10.1407 239.604 10.234C239.823 10.3273 240.019 10.444 240.192 10.584C240.365 10.724 240.502 10.8967 240.605 11.102C240.712 11.3027 240.766 11.5453 240.766 11.83C240.766 12.1567 240.708 12.46 240.591 12.74C240.474 13.0153 240.302 13.2557 240.073 13.461C239.844 13.6617 239.564 13.8203 239.233 13.937C238.902 14.0537 238.519 14.112 238.085 14.112C237.59 14.112 237.142 14.0327 236.741 13.874C236.34 13.7107 235.999 13.503 235.719 13.251L236.013 12.775C236.05 12.7143 236.095 12.6677 236.146 12.635C236.197 12.6023 236.263 12.586 236.342 12.586C236.426 12.586 236.515 12.6187 236.608 12.684C236.701 12.7493 236.813 12.8217 236.944 12.901C237.079 12.9803 237.243 13.0527 237.434 13.118C237.625 13.1833 237.863 13.216 238.148 13.216C238.391 13.216 238.603 13.1857 238.785 13.125C238.967 13.0597 239.119 12.9733 239.24 12.866C239.361 12.7587 239.45 12.635 239.506 12.495C239.567 12.355 239.597 12.2057 239.597 12.047C239.597 11.851 239.543 11.69 239.436 11.564C239.333 11.4333 239.196 11.3237 239.023 11.235C238.85 11.1417 238.652 11.0623 238.428 10.997C238.209 10.927 237.982 10.8547 237.749 10.78C237.52 10.7053 237.294 10.6213 237.07 10.528C236.851 10.43 236.655 10.3087 236.482 10.164C236.309 10.0193 236.169 9.842 236.062 9.632C235.959 9.41733 235.908 9.15833 235.908 8.855C235.908 8.58433 235.964 8.32533 236.076 8.078C236.188 7.826 236.351 7.60667 236.566 7.42C236.781 7.22867 237.044 7.077 237.357 6.965C237.67 6.853 238.027 6.797 238.428 6.797C238.895 6.797 239.312 6.87167 239.681 7.021C240.054 7.16567 240.376 7.36633 240.647 7.623L240.367 8.078ZM244.471 14.112C243.911 14.112 243.479 13.9557 243.176 13.643C242.877 13.3303 242.728 12.88 242.728 12.292V7.952H241.874C241.799 7.952 241.736 7.931 241.685 7.889C241.633 7.84233 241.608 7.77233 241.608 7.679V7.182L242.77 7.035L243.057 4.844C243.071 4.774 243.101 4.718 243.148 4.676C243.199 4.62933 243.264 4.606 243.344 4.606H243.974V7.049H246.025V7.952H243.974V12.208C243.974 12.5067 244.046 12.7283 244.191 12.873C244.335 13.0177 244.522 13.09 244.751 13.09C244.881 13.09 244.993 13.0737 245.087 13.041C245.185 13.0037 245.269 12.964 245.339 12.922C245.409 12.88 245.467 12.8427 245.514 12.81C245.565 12.7727 245.609 12.754 245.647 12.754C245.712 12.754 245.77 12.7937 245.822 12.873L246.186 13.468C245.971 13.6687 245.712 13.8273 245.409 13.944C245.105 14.056 244.793 14.112 244.471 14.112ZM252.016 9.681C252.016 9.39167 251.974 9.128 251.89 8.89C251.811 8.64733 251.692 8.43967 251.533 8.267C251.379 8.08967 251.19 7.95433 250.966 7.861C250.742 7.763 250.488 7.714 250.203 7.714C249.606 7.714 249.132 7.889 248.782 8.239C248.437 8.58433 248.222 9.065 248.138 9.681H252.016ZM253.024 13.006C252.87 13.1927 252.686 13.356 252.471 13.496C252.257 13.6313 252.026 13.7433 251.778 13.832C251.536 13.9207 251.284 13.986 251.022 14.028C250.761 14.0747 250.502 14.098 250.245 14.098C249.755 14.098 249.303 14.0163 248.887 13.853C248.477 13.685 248.12 13.4423 247.816 13.125C247.518 12.803 247.284 12.4063 247.116 11.935C246.948 11.4637 246.864 10.9223 246.864 10.311C246.864 9.81633 246.939 9.35433 247.088 8.925C247.242 8.49567 247.462 8.12467 247.746 7.812C248.031 7.49467 248.379 7.24733 248.789 7.07C249.2 6.888 249.662 6.797 250.175 6.797C250.6 6.797 250.992 6.86933 251.351 7.014C251.715 7.154 252.028 7.35933 252.289 7.63C252.555 7.896 252.763 8.22733 252.912 8.624C253.062 9.016 253.136 9.464 253.136 9.968C253.136 10.164 253.115 10.2947 253.073 10.36C253.031 10.4253 252.952 10.458 252.835 10.458H248.096C248.11 10.906 248.171 11.2957 248.278 11.627C248.39 11.9583 248.544 12.236 248.74 12.46C248.936 12.6793 249.17 12.845 249.44 12.957C249.711 13.0643 250.014 13.118 250.35 13.118C250.663 13.118 250.931 13.083 251.155 13.013C251.384 12.9383 251.58 12.859 251.743 12.775C251.907 12.691 252.042 12.614 252.149 12.544C252.261 12.4693 252.357 12.432 252.436 12.432C252.539 12.432 252.618 12.4717 252.674 12.551L253.024 13.006ZM255.85 8.33C256.074 7.84467 256.349 7.46667 256.676 7.196C257.002 6.92067 257.401 6.783 257.873 6.783C258.022 6.783 258.164 6.79933 258.3 6.832C258.44 6.86467 258.563 6.916 258.671 6.986L258.58 7.917C258.552 8.03367 258.482 8.092 258.37 8.092C258.304 8.092 258.209 8.078 258.083 8.05C257.957 8.022 257.814 8.008 257.656 8.008C257.432 8.008 257.231 8.04067 257.054 8.106C256.881 8.17133 256.725 8.26933 256.585 8.4C256.449 8.526 256.326 8.68467 256.214 8.876C256.106 9.06267 256.008 9.27733 255.92 9.52V14H254.667V6.909H255.381C255.516 6.909 255.609 6.93467 255.661 6.986C255.712 7.03733 255.747 7.126 255.766 7.252L255.85 8.33Z" fill="#395174"/>
<g clip-path="url(#clip0_452_67205)">
<path d="M288.37 277.857C285.522 277.857 282.791 278.988 280.778 281.002C278.764 283.015 277.633 285.746 277.633 288.594C277.633 291.442 278.764 294.173 280.778 296.186C282.791 298.2 285.522 299.331 288.37 299.331C291.218 299.331 293.949 298.2 295.962 296.186C297.976 294.173 299.107 291.442 299.107 288.594C299.107 285.746 297.976 283.015 295.962 281.002C293.949 278.988 291.218 277.857 288.37 277.857Z" fill="#CCCCCC"/>
<path d="M287.351 293.053C287.068 293.054 286.793 292.962 286.567 292.793L286.553 292.782L283.6 290.523C283.463 290.419 283.349 290.288 283.262 290.139C283.176 289.989 283.12 289.825 283.097 289.654C283.075 289.483 283.086 289.309 283.13 289.143C283.175 288.976 283.252 288.82 283.357 288.683C283.462 288.547 283.592 288.432 283.742 288.346C283.891 288.259 284.056 288.203 284.227 288.181C284.397 288.158 284.571 288.17 284.738 288.214C284.904 288.259 285.06 288.336 285.197 288.441L287.109 289.907L291.629 284.011C291.734 283.874 291.864 283.76 292.013 283.674C292.163 283.587 292.327 283.531 292.498 283.509C292.669 283.486 292.842 283.498 293.009 283.542C293.175 283.587 293.331 283.663 293.468 283.768L293.468 283.769L293.44 283.807L293.469 283.769C293.745 283.98 293.925 284.293 293.971 284.638C294.016 284.983 293.923 285.332 293.712 285.608L288.396 292.54C288.273 292.7 288.115 292.829 287.934 292.918C287.753 293.006 287.554 293.052 287.352 293.052L287.351 293.053Z" fill="white"/>
<path d="M264.993 295.037L259.909 295.036L257.492 275.428L264.995 275.429L264.993 295.037Z" fill="#FFB8B8"/>
<path d="M256.275 293.584H266.079V299.757H250.102C250.102 298.946 250.261 298.144 250.571 297.395C250.882 296.646 251.336 295.965 251.91 295.392C252.483 294.819 253.163 294.364 253.912 294.054C254.661 293.744 255.464 293.584 256.275 293.584Z" fill="#2F2E41"/>
<path d="M244.759 295.037L239.675 295.036L237.258 275.428L244.76 275.429L244.759 295.037Z" fill="#FFB8B8"/>
<path d="M236.04 293.584H245.845V299.757H229.867C229.867 298.946 230.027 298.144 230.337 297.395C230.647 296.646 231.102 295.965 231.675 295.392C232.248 294.819 232.929 294.364 233.678 294.054C234.427 293.744 235.23 293.584 236.04 293.584Z" fill="#2F2E41"/>
<path d="M268.907 227.245C268.498 226.793 268.193 226.257 268.013 225.675C267.834 225.092 267.784 224.477 267.868 223.873C267.951 223.27 268.167 222.691 268.498 222.18C268.829 221.668 269.269 221.235 269.786 220.912L268.211 211.514L273.689 209.165L275.726 222.467C276.212 223.371 276.349 224.422 276.112 225.421C275.874 226.419 275.279 227.296 274.439 227.885C273.598 228.474 272.571 228.734 271.551 228.616C270.532 228.498 269.591 228.01 268.907 227.245Z" fill="#FFB8B8"/>
<path d="M226.025 222.805C226.503 222.427 226.892 221.948 227.166 221.403C227.439 220.859 227.59 220.26 227.607 219.651C227.624 219.042 227.507 218.436 227.265 217.877C227.022 217.317 226.661 216.818 226.204 216.413L229.31 207.405L224.296 204.183L220.089 216.966C219.46 217.777 219.151 218.791 219.22 219.815C219.289 220.839 219.732 221.802 220.463 222.522C221.195 223.241 222.165 223.668 223.19 223.72C224.215 223.772 225.224 223.446 226.025 222.805Z" fill="#FFB8B8"/>
<path d="M252.055 156.44C258.087 156.44 262.977 151.551 262.977 145.519C262.977 139.487 258.087 134.597 252.055 134.597C246.023 134.597 241.133 139.487 241.133 145.519C241.133 151.551 246.023 156.44 252.055 156.44Z" fill="#FFB8B8"/>
<path d="M225.685 216.065C225.498 216.065 225.311 216.039 225.131 215.987L221.948 215.073C221.44 214.926 221.01 214.584 220.753 214.122C220.496 213.659 220.432 213.114 220.575 212.604L227.145 189.409L236.306 166.919C237.217 164.683 239.12 163.217 241.273 163.092C242.256 163.044 243.232 163.283 244.083 163.778C244.934 164.273 245.622 165.005 246.066 165.884C246.559 166.824 246.829 167.865 246.857 168.927C246.884 169.989 246.668 171.042 246.224 172.007L235.811 194.78L227.533 214.827C227.382 215.194 227.126 215.507 226.797 215.727C226.468 215.947 226.081 216.065 225.685 216.065Z" fill="#112D57"/>
<path d="M258.219 154.678L252.151 154.786C251.519 154.798 250.893 154.662 250.323 154.388C249.753 154.114 249.256 153.71 248.871 153.209C248.486 152.707 248.224 152.122 248.107 151.501C247.989 150.88 248.02 150.24 248.195 149.632C248.325 149.193 248.422 148.746 248.487 148.293C248.555 147.798 248.568 147.298 248.526 146.801C248.488 146.304 248.282 145.834 247.941 145.469C247.6 145.104 247.146 144.865 246.652 144.792C246.158 144.72 245.654 144.817 245.223 145.068C244.791 145.319 244.458 145.71 244.278 146.175C243.257 146.19 241.084 145.857 240.063 145.871C237.897 140.317 242.618 133.05 247.7 130.32C252.881 127.537 259.607 130.368 261.593 136.168C264.349 136.218 266.589 138.936 266.944 141.997C267.299 145.057 266.04 148.252 264.114 150.597C262.188 152.943 259.659 154.652 258.219 154.678Z" fill="#2F2E41"/>
<path d="M238.275 293.206C237.783 293.204 237.309 293.021 236.944 292.692C236.578 292.363 236.346 291.912 236.291 291.423L234.039 215.723L262.404 217.742L262.426 217.924C268.836 271.581 266.645 290.155 266.622 290.336C266.606 290.61 266.534 290.879 266.41 291.124C266.286 291.37 266.112 291.587 265.901 291.762C265.689 291.937 265.443 292.067 265.179 292.143C264.915 292.22 264.638 292.241 264.365 292.205L258.096 292.355C257.621 292.301 257.181 292.079 256.856 291.729C256.53 291.378 256.341 290.923 256.323 290.445L250.465 235.615C250.429 235.473 250.344 235.348 250.225 235.262C250.106 235.176 249.96 235.135 249.814 235.146C249.663 235.145 249.516 235.197 249.4 235.293C249.283 235.388 249.203 235.521 249.174 235.669L246.911 290.678C246.935 291.189 246.762 291.689 246.427 292.076C246.093 292.462 245.622 292.705 245.114 292.755L238.474 293.196C238.407 293.203 238.341 293.206 238.275 293.206Z" fill="#2F2E41"/>
<path d="M250.047 224.768C249.877 224.768 249.707 224.765 249.537 224.76C241.381 224.515 235 218.344 233.239 216.458C233.014 216.218 232.853 215.926 232.769 215.608C232.685 215.29 232.681 214.956 232.758 214.636L237.463 194.731L236.215 177.425C236.019 175.023 236.334 172.607 237.139 170.336C237.944 168.064 239.221 165.989 240.886 164.247C242.274 162.782 243.96 161.631 245.831 160.874C247.702 160.117 249.714 159.772 251.731 159.86C259.67 160.239 265.934 167.336 265.991 176.017C266.079 189.462 265.683 190.385 265.553 190.689C261.59 199.937 263.755 212.918 264.512 216.677C264.58 217.012 264.561 217.359 264.457 217.685C264.353 218.011 264.167 218.305 263.918 218.539C259.56 222.674 254.895 224.768 250.047 224.768Z" fill="#112D57"/>
<path d="M270.527 219.708C270.074 219.708 269.635 219.554 269.281 219.271C268.928 218.989 268.68 218.595 268.579 218.154L263.725 197.006L257.219 172.834C256.941 171.81 256.902 170.735 257.104 169.692C257.307 168.65 257.745 167.668 258.387 166.821C258.97 166.028 259.77 165.421 260.69 165.073C261.611 164.725 262.613 164.651 263.575 164.86C265.677 165.339 267.312 167.099 267.841 169.455L273.158 193.125L275.809 217.111C275.866 217.637 275.713 218.165 275.383 218.578C275.053 218.992 274.572 219.258 274.047 219.319L270.756 219.695C270.68 219.703 270.604 219.708 270.527 219.708Z" fill="#112D57"/>
<path d="M130.792 96.1235H12.0617C8.99538 96.1235 6.05459 94.9054 3.88635 92.7371C1.7181 90.5689 0.5 87.6281 0.5 84.5617C0.5 81.4954 1.7181 78.5546 3.88635 76.3864C6.05459 74.2181 8.99538 73 12.0617 73H130.792C133.858 73 136.799 74.2181 138.967 76.3864C141.136 78.5546 142.354 81.4954 142.354 84.5617C142.354 87.6281 141.136 90.5689 138.967 92.7371C136.799 94.9054 133.858 96.1235 130.792 96.1235Z" fill="#E6E6E6"/>
<path d="M12.0632 76.7798C9.99929 76.7798 8.01993 77.5997 6.56053 79.0591C5.10114 80.5185 4.28125 82.4978 4.28125 84.5617C4.28125 86.6256 5.10114 88.605 6.56053 90.0644C8.01993 91.5238 9.99929 92.3437 12.0632 92.3437H130.793C132.857 92.3437 134.837 91.5238 136.296 90.0644C137.755 88.605 138.575 86.6256 138.575 84.5617C138.575 82.4978 137.755 80.5185 136.296 79.0591C134.837 77.5997 132.857 76.7798 130.793 76.7798H12.0632Z" fill="white"/>
<path d="M172.753 73.748C169.905 73.748 167.174 74.8793 165.16 76.8929C163.147 78.9065 162.016 81.6375 162.016 84.4852C162.016 87.3328 163.147 90.0639 165.16 92.0775C167.174 94.0911 169.905 95.2223 172.753 95.2224C175.6 95.2224 178.332 94.0911 180.345 92.0775C182.359 90.0639 183.49 87.3329 183.49 84.4852C183.49 81.6375 182.359 78.9065 180.345 76.8929C178.332 74.8793 175.6 73.748 172.753 73.748Z" fill="#112D57"/>
<path d="M171.734 88.9438C171.451 88.9443 171.176 88.8528 170.95 88.6832L170.936 88.6727L167.983 86.414C167.846 86.3092 167.731 86.1784 167.645 86.0292C167.559 85.88 167.503 85.7153 167.48 85.5444C167.457 85.3735 167.469 85.1999 167.513 85.0334C167.558 84.8668 167.635 84.7107 167.74 84.5739C167.844 84.4371 167.975 84.3224 168.124 84.2361C168.274 84.1499 168.438 84.0939 168.609 84.0714C168.78 84.0488 168.954 84.0602 169.12 84.1048C169.287 84.1494 169.443 84.2263 169.58 84.3313L171.492 85.7979L176.012 79.9018C176.116 79.7651 176.247 79.6504 176.396 79.5642C176.545 79.478 176.71 79.422 176.881 79.3995C177.052 79.3769 177.225 79.3882 177.392 79.4327C177.558 79.4772 177.714 79.5541 177.851 79.6589L177.851 79.6592L177.823 79.6981L177.852 79.6592C178.128 79.8711 178.308 80.1838 178.353 80.5287C178.399 80.8735 178.306 81.2223 178.094 81.4985L172.779 88.4305C172.656 88.5902 172.497 88.7195 172.316 88.8082C172.135 88.897 171.936 88.9428 171.735 88.9422L171.734 88.9438Z" fill="white"/>
<path d="M130.792 135.256H12.0617C8.99538 135.256 6.05459 134.038 3.88635 131.869C1.7181 129.701 0.5 126.76 0.5 123.694C0.5 120.628 1.7181 117.687 3.88635 115.519C6.05459 113.35 8.99538 112.132 12.0617 112.132H130.792C133.858 112.132 136.799 113.35 138.967 115.519C141.136 117.687 142.354 120.628 142.354 123.694C142.354 126.76 141.136 129.701 138.967 131.869C136.799 134.038 133.858 135.256 130.792 135.256Z" fill="#E6E6E6"/>
<path d="M12.0632 115.912C9.99929 115.912 8.01993 116.732 6.56053 118.191C5.10114 119.651 4.28125 121.63 4.28125 123.694C4.28125 125.758 5.10114 127.737 6.56053 129.197C8.01993 130.656 9.99929 131.476 12.0632 131.476H130.793C132.857 131.476 134.837 130.656 136.296 129.197C137.755 127.737 138.575 125.758 138.575 123.694C138.575 121.63 137.755 119.651 136.296 118.191C134.837 116.732 132.857 115.912 130.793 115.912H12.0632Z" fill="white"/>
<path d="M172.753 112.88C169.905 112.88 167.174 114.011 165.16 116.025C163.147 118.038 162.016 120.769 162.016 123.617C162.016 126.465 163.147 129.196 165.16 131.209C167.174 133.223 169.905 134.354 172.753 134.354C175.6 134.354 178.332 133.223 180.345 131.209C182.359 129.196 183.49 126.465 183.49 123.617C183.49 120.769 182.359 118.038 180.345 116.025C178.332 114.011 175.6 112.88 172.753 112.88Z" fill="#112D57"/>
<path d="M171.734 128.076C171.451 128.077 171.176 127.985 170.95 127.816L170.936 127.805L167.983 125.546C167.846 125.441 167.731 125.311 167.645 125.162C167.559 125.012 167.503 124.848 167.48 124.677C167.457 124.506 167.469 124.332 167.513 124.166C167.558 123.999 167.635 123.843 167.74 123.706C167.844 123.569 167.975 123.455 168.124 123.368C168.274 123.282 168.438 123.226 168.609 123.204C168.78 123.181 168.954 123.193 169.12 123.237C169.287 123.282 169.443 123.359 169.58 123.464L171.492 124.93L176.012 119.034C176.116 118.897 176.247 118.783 176.396 118.697C176.545 118.61 176.71 118.554 176.881 118.532C177.052 118.509 177.225 118.521 177.392 118.565C177.558 118.61 177.714 118.686 177.851 118.791L177.851 118.792L177.823 118.83L177.852 118.792C178.128 119.003 178.308 119.316 178.353 119.661C178.399 120.006 178.306 120.355 178.094 120.631L172.779 127.563C172.656 127.723 172.497 127.852 172.316 127.941C172.135 128.029 171.936 128.075 171.735 128.075L171.734 128.076Z" fill="white"/>
<path d="M130.792 174.388H12.0617C8.99538 174.388 6.05459 173.17 3.88635 171.001C1.7181 168.833 0.5 165.892 0.5 162.826C0.5 159.76 1.7181 156.819 3.88635 154.651C6.05459 152.482 8.99538 151.264 12.0617 151.264H130.792C133.858 151.264 136.799 152.482 138.967 154.651C141.136 156.819 142.354 159.76 142.354 162.826C142.354 165.892 141.136 168.833 138.967 171.001C136.799 173.17 133.858 174.388 130.792 174.388Z" fill="#E6E6E6"/>
<path d="M12.0632 155.044C9.99929 155.044 8.01993 155.864 6.56053 157.324C5.10114 158.783 4.28125 160.762 4.28125 162.826C4.28125 164.89 5.10114 166.87 6.56053 168.329C8.01993 169.788 9.99929 170.608 12.0632 170.608H130.793C132.857 170.608 134.837 169.788 136.296 168.329C137.755 166.87 138.575 164.89 138.575 162.826C138.575 160.762 137.755 158.783 136.296 157.324C134.837 155.864 132.857 155.044 130.793 155.044H12.0632Z" fill="white"/>
<path d="M172.753 152.012C169.905 152.012 167.174 153.143 165.16 155.157C163.147 157.17 162.016 159.901 162.016 162.749C162.016 165.597 163.147 168.328 165.16 170.341C167.174 172.355 169.905 173.486 172.753 173.486C175.6 173.486 178.332 172.355 180.345 170.341C182.359 168.328 183.49 165.597 183.49 162.749C183.49 159.901 182.359 157.17 180.345 155.157C178.332 153.143 175.6 152.012 172.753 152.012Z" fill="#E6E6E6"/>
<path d="M306.055 300.01H213.117C212.999 300.01 212.885 299.964 212.802 299.88C212.719 299.797 212.672 299.684 212.672 299.566C212.672 299.448 212.719 299.335 212.802 299.251C212.885 299.168 212.999 299.121 213.117 299.121H306.055C306.173 299.121 306.286 299.168 306.37 299.251C306.453 299.335 306.5 299.448 306.5 299.566C306.5 299.684 306.453 299.797 306.37 299.88C306.286 299.964 306.173 300.01 306.055 300.01Z" fill="#CCCCCC"/>
</g>
<defs>
<clipPath id="clip0_452_67205">
<rect width="306.001" height="227.01" fill="white" transform="translate(0.5 73)"/>
</clipPath>
</defs>
</svg>
