<svg width="602" height="455" viewBox="0 0 602 455" fill="none" xmlns="http://www.w3.org/2000/svg">
<path fill-rule="evenodd" clip-rule="evenodd" d="M302.36 59.8636C346.949 65.2265 386.637 29.0282 430.988 35.6387C493.229 44.9157 573.398 54.6693 597.199 103.809C620.663 152.255 551.448 197.133 533.456 247.2C514.85 298.972 534.969 362.274 490.306 401.256C443.811 441.836 365.746 467.336 302.36 448.899C239.017 430.474 242.491 348.949 190.037 313.917C141.772 281.682 55.5747 303.744 20.9099 260.928C-14.0542 217.743 0.487505 156.676 23.4433 108.15C45.5565 61.4064 85.1266 11.2633 143.826 1.10104C201.825 -8.93983 243.739 52.8131 302.36 59.8636Z" fill="#E7EAEE"/>
<g clip-path="url(#clip0_828_184780)">
<path d="M149.797 110.894C151.109 110.894 152.173 109.831 152.173 108.519C152.173 107.208 151.109 106.145 149.797 106.145C148.485 106.145 147.422 107.208 147.422 108.519C147.422 109.831 148.485 110.894 149.797 110.894Z" fill="white"/>
<path d="M158.813 110.894C160.125 110.894 161.188 109.831 161.188 108.519C161.188 107.208 160.125 106.145 158.813 106.145C157.501 106.145 156.438 107.208 156.438 108.519C156.438 109.831 157.501 110.894 158.813 110.894Z" fill="white"/>
<path d="M167.828 110.894C169.14 110.894 170.204 109.831 170.204 108.519C170.204 107.208 169.14 106.145 167.828 106.145C166.517 106.145 165.453 107.208 165.453 108.519C165.453 109.831 166.517 110.894 167.828 110.894Z" fill="white"/>
<path d="M445.66 114.098H144.023V115.773H445.66V114.098Z" fill="white"/>
<path d="M445.92 78.1963H99.1484V300.198H445.92V78.1963Z" fill="#E6E6E6"/>
<path d="M445.772 78H99V92.7264H445.772V78Z" fill="#112D57"/>
<path d="M436.292 104.604H109.352V189.233H436.292V104.604Z" fill="white"/>
<path d="M436.495 203.14H109.555V287.769H436.495V203.14Z" fill="white"/>
<path d="M396.69 123.326H219.75V131.209H396.69V123.326Z" fill="#E6E6E6"/>
<path d="M282.837 143.033H219.75V150.916H282.837V143.033Z" fill="#E6E6E6"/>
<path d="M345.432 162.74H219.75V170.623H345.432V162.74Z" fill="#E6E6E6"/>
<path d="M206.443 245.021C206.452 250.761 204.781 256.377 201.635 261.178C200.976 262.191 200.253 263.161 199.472 264.082C197.639 266.252 195.505 268.148 193.134 269.711C192.489 270.138 191.826 270.538 191.145 270.911C187.602 272.87 183.69 274.074 179.658 274.447C178.741 274.537 177.809 274.579 176.869 274.579C174.293 274.582 171.727 274.247 169.238 273.582C167.827 273.211 166.447 272.732 165.11 272.149C164.427 271.854 163.759 271.533 163.106 271.187C161.537 270.363 160.046 269.397 158.652 268.303C158.003 267.798 157.378 267.266 156.776 266.707C153.175 263.371 150.461 259.191 148.88 254.544C147.299 249.897 146.9 244.93 147.72 240.091C148.54 235.252 150.552 230.693 153.576 226.825C156.599 222.958 160.539 219.904 165.038 217.94C169.538 215.975 174.456 215.162 179.349 215.572C184.242 215.983 188.955 217.606 193.064 220.293C197.173 222.981 200.547 226.648 202.883 230.966C205.219 235.283 206.442 240.114 206.443 245.022V245.021Z" fill="#112D57"/>
<path d="M178.68 231.223H175.055V258.813H178.68V231.223Z" fill="white"/>
<path d="M190.671 243.206H163.07V246.83H190.671V243.206Z" fill="white"/>
<path d="M392.261 221.862H215.32V229.745H392.261V221.862Z" fill="#E6E6E6"/>
<path d="M278.408 241.569H215.32V249.452H278.408V241.569Z" fill="#E6E6E6"/>
<path d="M341.003 261.276H215.32V269.159H341.003V261.276Z" fill="#E6E6E6"/>
<path d="M121.937 87.7617C123.283 87.7617 124.374 86.6711 124.374 85.3257C124.374 83.9803 123.283 82.8896 121.937 82.8896C120.591 82.8896 119.5 83.9803 119.5 85.3257C119.5 86.6711 120.591 87.7617 121.937 87.7617Z" fill="white"/>
<path d="M131.187 87.7617C132.533 87.7617 133.624 86.6711 133.624 85.3257C133.624 83.9803 132.533 82.8896 131.187 82.8896C129.841 82.8896 128.75 83.9803 128.75 85.3257C128.75 86.6711 129.841 87.7617 131.187 87.7617Z" fill="white"/>
<path d="M112.664 87.7617C114.009 87.7617 115.101 86.6711 115.101 85.3257C115.101 83.9803 114.009 82.8896 112.664 82.8896C111.318 82.8896 110.227 83.9803 110.227 85.3257C110.227 86.6711 111.318 87.7617 112.664 87.7617Z" fill="white"/>
<path d="M194.605 170.692C192.021 169.331 189.323 168.196 186.542 167.3L186.187 163.379L171.807 161.831L169.979 166.842L164.818 168.778C164.633 168.848 164.457 168.94 164.294 169.051H164.289C164.001 169.245 163.755 169.497 163.568 169.789C163.38 170.082 163.254 170.41 163.198 170.752C163.142 171.093 163.155 171.442 163.236 171.778L163.509 172.896C163.901 173.13 164.305 173.354 164.709 173.566L164.965 173.697C165.555 174.003 166.155 174.292 166.771 174.559C166.897 174.613 167.033 174.668 167.158 174.722C167.169 174.728 167.175 174.728 167.186 174.733C167.475 174.853 167.764 174.968 168.059 175.077C169.026 175.446 170.013 175.763 171.015 176.026C173.573 176.707 176.208 177.052 178.855 177.051C179.821 177.051 180.775 177.007 181.719 176.915C183.876 176.716 186.005 176.286 188.07 175.633C188.075 175.633 188.08 175.628 188.086 175.628C189.39 175.212 190.664 174.708 191.899 174.117C191.905 174.112 191.916 174.112 191.921 174.106C192.199 173.975 192.467 173.834 192.74 173.697L192.87 173.632C193.089 173.517 193.307 173.403 193.525 173.283C194.071 172.983 194.605 172.667 195.134 172.328C195.282 172.241 195.424 172.148 195.571 172.05C195.778 171.914 195.985 171.772 196.187 171.625C195.68 171.298 195.151 170.987 194.605 170.692Z" fill="#3F3D56"/>
<path d="M167.61 173.108L166.709 169.045H164.358C164.334 169.046 164.311 169.048 164.287 169.051H164.282C163.437 169.122 162.623 169.404 161.914 169.869C161.433 170.176 161.006 170.559 160.648 171.003C161.347 171.532 162.072 172.023 162.82 172.492L162.853 172.508C163.065 172.639 163.283 172.77 163.502 172.896C163.894 173.13 164.298 173.354 164.702 173.566L164.958 173.697C165.548 174.003 166.148 174.292 166.764 174.559C166.89 174.613 167.026 174.668 167.151 174.722C167.162 174.728 167.168 174.728 167.179 174.733C167.468 174.853 167.757 174.968 168.052 175.077L167.61 173.108Z" fill="#3F3D56"/>
<path d="M178.427 159.352C184.148 159.352 188.785 154.716 188.785 148.999C188.785 143.281 184.148 138.646 178.427 138.646C172.707 138.646 168.07 143.281 168.07 148.999C168.07 154.716 172.707 159.352 178.427 159.352Z" fill="#FFB8B8"/>
<path d="M171.473 143.956C172.545 145.224 174.359 145.582 176.033 145.729C179.946 145.945 183.87 145.625 187.697 144.777C187.934 147.074 187.287 149.551 188.641 151.44C189.275 149.153 189.644 146.8 189.74 144.428C189.841 143.41 189.709 142.383 189.352 141.424C189.161 140.944 188.839 140.527 188.423 140.22C188.007 139.913 187.513 139.73 186.998 139.689C187.769 139.104 188.673 138.718 189.63 138.565L186.341 136.913L187.185 136.046L181.232 135.682L182.956 134.587C180.361 134.23 177.735 134.147 175.122 134.34C173.909 134.429 172.64 134.6 171.657 135.302C170.674 136.005 170.106 137.402 170.716 138.433C169.952 138.559 169.233 138.877 168.626 139.358C168.02 139.839 167.546 140.467 167.25 141.182C166.876 142.319 166.786 143.53 166.987 144.71C167.212 146.603 167.652 148.464 168.299 150.257L171.473 143.956Z" fill="#2F2E41"/>
<path d="M207.557 137.776C206.103 133.602 203.757 129.797 200.681 126.623C197.605 123.45 193.874 120.985 189.747 119.401C185.621 117.817 181.198 117.152 176.788 117.453C172.378 117.753 168.086 119.011 164.213 121.14C160.339 123.268 156.977 126.216 154.36 129.777C151.743 133.338 149.934 137.427 149.061 141.758C148.187 146.09 148.269 150.56 149.301 154.856C150.333 159.153 152.29 163.172 155.036 166.635C155.309 166.979 155.593 167.322 155.882 167.655C155.904 167.677 155.92 167.698 155.942 167.72C156.653 168.539 157.409 169.319 158.206 170.054C158.413 170.245 158.631 170.442 158.85 170.627C159.264 170.998 159.69 171.352 160.132 171.69C160.306 171.827 160.475 171.963 160.655 172.094C161.354 172.623 162.079 173.114 162.827 173.583L162.86 173.599C163.072 173.73 163.29 173.861 163.509 173.986C163.901 174.221 164.305 174.444 164.709 174.657L164.965 174.788C165.555 175.093 166.155 175.382 166.771 175.65C166.897 175.704 167.033 175.759 167.158 175.813C167.169 175.819 167.175 175.819 167.186 175.824C167.475 175.944 167.764 176.059 168.059 176.168C169.026 176.537 170.013 176.854 171.015 177.117C173.573 177.798 176.208 178.143 178.855 178.142C179.821 178.142 180.775 178.098 181.719 178.005C183.876 177.806 186.005 177.377 188.07 176.724C188.075 176.724 188.081 176.718 188.086 176.718C189.39 176.303 190.664 175.798 191.899 175.208C191.905 175.202 191.916 175.202 191.921 175.197C192.199 175.066 192.467 174.924 192.74 174.788L192.87 174.722C193.089 174.608 193.307 174.493 193.525 174.373C194.071 174.074 194.605 173.757 195.134 173.419C195.282 173.332 195.424 173.239 195.571 173.141C195.778 173.005 195.985 172.863 196.187 172.716C196.455 172.53 196.722 172.339 196.984 172.143C197.066 172.083 197.153 172.023 197.235 171.958C202.346 168.08 206.098 162.684 207.952 156.543C209.806 150.402 209.668 143.833 207.557 137.776ZM196.231 170.632C196.051 170.774 195.866 170.911 195.68 171.036C195.5 171.172 195.32 171.303 195.134 171.423C194.976 171.538 194.818 171.647 194.654 171.75L194.605 171.783C194.485 171.865 194.365 171.941 194.245 172.018C193.792 172.301 193.334 172.574 192.87 172.836C192.821 172.863 192.772 172.89 192.723 172.917C192.516 173.032 192.309 173.141 192.101 173.25C192.074 173.266 192.041 173.277 192.014 173.294L191.981 173.31C191.719 173.446 191.452 173.577 191.185 173.703C190.153 174.199 189.091 174.629 188.004 174.99C187.862 175.039 187.72 175.088 187.579 175.132C185.624 175.753 183.609 176.162 181.567 176.353C180.672 176.435 179.766 176.479 178.855 176.479C176.352 176.484 173.859 176.157 171.441 175.508C170.2 175.184 168.984 174.772 167.802 174.275C167.742 174.248 167.676 174.226 167.617 174.199C167.551 174.172 167.491 174.15 167.431 174.123C167.366 174.095 167.306 174.068 167.24 174.035C166.727 173.812 166.22 173.566 165.724 173.31L165.484 173.185C164.878 172.868 164.283 172.53 163.705 172.17C163.536 172.067 163.361 171.958 163.198 171.843C163.154 171.816 163.116 171.789 163.072 171.761C162.685 171.505 162.297 171.238 161.921 170.96C161.665 170.769 161.408 170.578 161.157 170.382C160.737 170.065 160.333 169.727 159.941 169.378C159.733 169.204 159.531 169.013 159.335 168.833C158.562 168.119 157.829 167.361 157.142 166.564C156.913 166.302 156.689 166.041 156.476 165.768C156.428 165.714 156.382 165.658 156.34 165.599C152.795 161.128 150.663 155.703 150.216 150.015C149.768 144.328 151.025 138.636 153.827 133.666C156.628 128.696 160.848 124.672 165.946 122.109C171.044 119.545 176.791 118.557 182.453 119.272C188.116 119.986 193.437 122.37 197.738 126.12C202.039 129.87 205.126 134.815 206.604 140.325C208.082 145.836 207.885 151.661 206.037 157.059C204.19 162.457 200.776 167.182 196.231 170.632Z" fill="#3F3D56"/>
<path d="M466.197 283.578C464.744 279.405 462.398 275.599 459.322 272.426C456.246 269.252 452.515 266.788 448.388 265.204C444.261 263.62 439.839 262.955 435.429 263.255C431.019 263.556 426.727 264.814 422.853 266.942C418.98 269.071 415.617 272.019 413 275.58C410.383 279.141 408.575 283.229 407.701 287.561C406.827 291.892 406.909 296.362 407.942 300.659C408.974 304.955 410.931 308.975 413.677 312.438C413.949 312.781 414.233 313.125 414.522 313.458C414.544 313.479 414.56 313.501 414.582 313.523C415.293 314.342 416.049 315.121 416.846 315.857C417.054 316.048 417.272 316.244 417.49 316.43C417.905 316.8 418.33 317.155 418.772 317.493C419.635 318.173 420.535 318.805 421.467 319.385L421.5 319.402C422.105 319.778 422.722 320.127 423.349 320.46L423.606 320.591C424.195 320.896 424.795 321.185 425.411 321.452C425.537 321.507 425.673 321.561 425.799 321.616C425.81 321.621 425.815 321.621 425.826 321.627C427.072 322.145 428.351 322.576 429.656 322.919C432.213 323.601 434.849 323.945 437.495 323.944C438.461 323.944 439.416 323.901 440.36 323.808C442.516 323.609 444.645 323.18 446.71 322.527C446.716 322.527 446.721 322.521 446.726 322.521C448.031 322.106 449.305 321.601 450.54 321.011C450.545 321.005 450.556 321.005 450.562 321C450.84 320.869 451.107 320.727 451.38 320.591L451.511 320.525C451.729 320.411 451.947 320.296 452.165 320.176C452.711 319.876 453.246 319.56 453.775 319.222C453.922 319.135 454.064 319.042 454.211 318.944C454.691 318.627 455.166 318.289 455.624 317.946C455.706 317.886 455.793 317.826 455.875 317.76C460.986 313.882 464.738 308.486 466.592 302.346C468.446 296.205 468.308 289.635 466.197 283.578Z" fill="white"/>
<path d="M447.524 306.087C450.039 306.087 452.078 304.049 452.078 301.534C452.078 299.019 450.039 296.981 447.524 296.981C445.008 296.981 442.969 299.019 442.969 301.534C442.969 304.049 445.008 306.087 447.524 306.087Z" fill="#2F2E41"/>
<path d="M448.79 297.106C449.579 297.106 450.354 297.311 451.039 297.7C451.725 298.089 452.298 298.649 452.702 299.326C453.106 300.003 453.327 300.772 453.345 301.56C453.362 302.348 453.174 303.127 452.8 303.821C453.195 303.327 453.482 302.756 453.644 302.145C453.806 301.534 453.839 300.896 453.741 300.271C453.643 299.647 453.415 299.05 453.073 298.518C452.731 297.986 452.282 297.531 451.755 297.182C451.227 296.834 450.633 296.599 450.009 296.492C449.386 296.386 448.747 296.41 448.134 296.564C447.52 296.718 446.946 296.998 446.447 297.386C445.947 297.775 445.535 298.262 445.234 298.819C445.66 298.284 446.201 297.853 446.817 297.556C447.433 297.26 448.107 297.106 448.791 297.106H448.79Z" fill="#2F2E41"/>
<path d="M439.013 301.524C446.403 301.524 452.393 295.536 452.393 288.149C452.393 280.762 446.403 274.774 439.013 274.774C431.623 274.774 425.633 280.762 425.633 288.149C425.633 295.536 431.623 301.524 439.013 301.524Z" fill="#2F2E41"/>
<path d="M428.51 279.851C430.816 277.259 434.038 275.664 437.498 275.402C440.958 275.141 444.384 276.233 447.054 278.448C446.944 278.344 446.835 278.239 446.722 278.139C444.079 275.772 440.604 274.551 437.06 274.746C433.517 274.94 430.196 276.534 427.828 279.176C425.46 281.818 424.24 285.292 424.434 288.834C424.629 292.376 426.223 295.696 428.866 298.063C428.892 298.086 428.917 298.108 428.943 298.131C429.056 298.232 429.173 298.327 429.289 298.424C426.775 296.033 425.289 292.76 425.144 289.295C424.999 285.829 426.205 282.443 428.51 279.851Z" fill="#2F2E41"/>
<path d="M438.899 301.411C443.658 301.411 447.516 297.554 447.516 292.796C447.516 288.039 443.658 284.182 438.899 284.182C434.139 284.182 430.281 288.039 430.281 292.796C430.281 297.554 434.139 301.411 438.899 301.411Z" fill="#A0616A"/>
<path d="M454.318 315.241V318.131C453.789 318.47 453.254 318.786 452.708 319.086C452.49 319.206 452.272 319.32 452.054 319.435L451.923 319.5C451.65 319.637 451.383 319.778 451.104 319.909C451.099 319.915 451.088 319.915 451.083 319.92C449.848 320.511 448.573 321.015 447.269 321.431C447.264 321.431 447.258 321.436 447.253 321.436C445.188 322.089 443.059 322.519 440.903 322.718C439.959 322.81 439.004 322.854 438.038 322.854C435.392 322.855 432.756 322.51 430.199 321.829C428.894 321.486 427.615 321.054 426.369 320.536C426.358 320.531 426.353 320.531 426.342 320.525C426.216 320.471 426.08 320.416 425.954 320.362C425.338 320.095 424.738 319.806 424.149 319.5L423.892 319.369C423.265 319.037 422.648 318.688 422.043 318.311L422.01 318.295C421.078 317.714 420.178 317.083 419.315 316.403C418.873 316.065 418.448 315.71 418.033 315.339C417.815 315.154 417.597 314.958 417.389 314.767C416.592 314.031 415.836 313.252 415.125 312.433C415.219 311.865 415.358 311.305 415.54 310.758L415.545 310.753C415.578 310.66 415.616 310.569 415.66 310.48C415.69 310.402 415.724 310.326 415.763 310.251C416.74 308.424 418.508 307.972 420.701 307.874C421.939 307.819 423.308 307.879 424.754 307.863C425.518 307.857 426.309 307.83 427.1 307.759C432.092 307.306 431.186 304.362 431.41 302.775C431.634 301.237 433.019 302.567 433.112 302.655L433.117 302.66C435.942 303.982 439.068 304.529 442.174 304.247C442.708 304.182 443.243 304.143 443.778 304.127C445.185 304.111 444.88 304.514 444.394 304.847C444.159 305.002 443.913 305.14 443.658 305.261C443.658 305.261 443.434 306.625 443.205 308.664C442.987 310.617 446.729 311.533 447.04 311.604C447.046 311.608 447.054 311.61 447.062 311.609C448.429 311.255 449.867 311.293 451.214 311.718H451.219C451.988 312.001 452.675 312.471 453.216 313.087C453.757 313.702 454.136 314.442 454.318 315.241Z" fill="#112D57"/>
<path d="M426.428 318.747C426.428 319.151 426.418 319.538 426.401 319.904C426.396 320.122 426.385 320.334 426.374 320.536C426.363 320.531 426.358 320.531 426.347 320.525C426.221 320.471 426.085 320.416 425.959 320.362C425.343 320.094 424.743 319.805 424.154 319.5L423.897 319.369C423.27 319.036 422.653 318.687 422.048 318.311C422.064 318.12 422.091 317.929 422.119 317.738C422.179 317.319 422.228 316.893 422.261 316.473C422.475 313.523 421.94 310.567 420.706 307.879V307.873C420.597 307.655 420.531 307.535 420.531 307.535C420.531 307.535 422.119 306.172 424.383 307.535C424.527 307.62 424.655 307.731 424.759 307.862C426.123 309.471 426.494 314.881 426.428 318.747Z" fill="#2F2E41"/>
<path d="M451.199 318.006C451.177 318.617 451.144 319.255 451.106 319.904V319.909C451.101 319.914 451.089 319.914 451.084 319.92C449.849 320.51 448.575 321.015 447.271 321.43C447.265 321.43 447.26 321.436 447.254 321.436L447.194 319.904L447.189 319.702L446.9 312.241C446.892 312.073 446.919 311.904 446.978 311.746C447.037 311.587 447.128 311.443 447.245 311.32C447.361 311.198 447.502 311.101 447.657 311.034C447.813 310.967 447.98 310.933 448.149 310.933H450.915C451.051 310.933 451.15 311.211 451.215 311.712V311.718C451.349 313.812 451.344 315.912 451.199 318.006Z" fill="#2F2E41"/>
<path d="M431.531 282.029V290.645H433.527L436.066 287.925L435.727 290.645H444.548L444.003 287.925L445.094 290.645H446.5V282.029H431.531Z" fill="#2F2E41"/>
<path d="M430.165 292.23C430.54 292.23 430.845 291.672 430.845 290.983C430.845 290.295 430.54 289.737 430.165 289.737C429.789 289.737 429.484 290.295 429.484 290.983C429.484 291.672 429.789 292.23 430.165 292.23Z" fill="#A0616A"/>
<path d="M447.633 292.23C448.009 292.23 448.314 291.672 448.314 290.983C448.314 290.295 448.009 289.737 447.633 289.737C447.258 289.737 446.953 290.295 446.953 290.983C446.953 291.672 447.258 292.23 447.633 292.23Z" fill="#A0616A"/>
<path d="M456.168 316.855C455.71 317.199 455.235 317.537 454.755 317.853C454.608 317.951 454.466 318.044 454.319 318.131C453.789 318.469 453.255 318.786 452.709 319.085C452.491 319.205 452.273 319.32 452.055 319.434V313.425C452.055 313.425 452.927 314.123 454.319 315.284C454.493 315.432 454.673 315.584 454.864 315.748C455.268 316.086 455.704 316.457 456.168 316.855Z" fill="#112D57"/>
<path d="M466.197 283.578C464.744 279.405 462.398 275.599 459.322 272.426C456.246 269.252 452.515 266.788 448.388 265.204C444.261 263.62 439.839 262.955 435.429 263.255C431.019 263.556 426.727 264.814 422.853 266.942C418.98 269.071 415.617 272.019 413 275.58C410.383 279.141 408.575 283.229 407.701 287.561C406.827 291.892 406.909 296.362 407.942 300.659C408.974 304.955 410.931 308.975 413.677 312.438C413.949 312.781 414.233 313.125 414.522 313.458C414.544 313.479 414.56 313.501 414.582 313.523C415.293 314.342 416.049 315.121 416.846 315.857C417.054 316.048 417.272 316.244 417.49 316.43C417.905 316.8 418.33 317.155 418.772 317.493C419.635 318.173 420.535 318.805 421.467 319.385L421.5 319.402C422.105 319.778 422.722 320.127 423.349 320.46L423.606 320.591C424.195 320.896 424.795 321.185 425.411 321.452C425.537 321.507 425.673 321.561 425.799 321.616C425.81 321.621 425.815 321.621 425.826 321.627C427.072 322.145 428.351 322.576 429.656 322.919C432.213 323.601 434.849 323.945 437.495 323.944C438.461 323.944 439.416 323.901 440.36 323.808C442.516 323.609 444.645 323.18 446.71 322.527C446.716 322.527 446.721 322.521 446.726 322.521C448.031 322.106 449.305 321.601 450.54 321.011C450.545 321.005 450.556 321.005 450.562 321C450.84 320.869 451.107 320.727 451.38 320.591L451.511 320.525C451.729 320.411 451.947 320.296 452.165 320.176C452.711 319.876 453.246 319.56 453.775 319.222C453.922 319.135 454.064 319.042 454.211 318.944C454.691 318.627 455.166 318.289 455.624 317.946C455.706 317.886 455.793 317.826 455.875 317.76C460.986 313.882 464.738 308.486 466.592 302.346C468.446 296.205 468.308 289.635 466.197 283.578ZM454.871 316.435C454.691 316.577 454.506 316.713 454.32 316.839C454.14 316.975 453.96 317.106 453.775 317.226C453.617 317.34 453.458 317.449 453.295 317.553C453.158 317.646 453.022 317.733 452.885 317.82C452.433 318.104 451.975 318.377 451.511 318.638C451.462 318.666 451.413 318.693 451.363 318.72C451.156 318.835 450.949 318.944 450.742 319.053C450.714 319.069 450.681 319.08 450.654 319.096L450.621 319.113C450.36 319.249 450.092 319.38 449.825 319.505C448.793 320.002 447.731 320.432 446.644 320.792C446.503 320.841 446.361 320.891 446.219 320.934C444.264 321.556 442.249 321.965 440.207 322.156C439.312 322.238 438.406 322.281 437.495 322.281C434.992 322.286 432.499 321.96 430.081 321.31C428.841 320.987 427.625 320.575 426.443 320.078C426.317 320.029 426.192 319.974 426.071 319.925C426.006 319.898 425.946 319.871 425.88 319.838C425.368 319.614 424.861 319.369 424.364 319.113L424.124 318.987C423.518 318.671 422.924 318.333 422.345 317.973C422.133 317.842 421.92 317.706 421.713 317.564C421.058 317.133 420.42 316.67 419.798 316.184C419.378 315.868 418.974 315.53 418.581 315.181C418.374 315.006 418.172 314.815 417.976 314.635C417.202 313.921 416.47 313.164 415.782 312.367C415.553 312.105 415.33 311.843 415.117 311.571C415.068 311.517 415.023 311.46 414.98 311.402C411.436 306.93 409.304 301.505 408.856 295.818C408.408 290.131 409.666 284.439 412.467 279.469C415.269 274.498 419.488 270.475 424.586 267.911C429.685 265.348 435.432 264.36 441.094 265.075C446.756 265.789 452.077 268.173 456.378 271.923C460.679 275.672 463.766 280.618 465.244 286.128C466.722 291.638 466.525 297.464 464.678 302.862C462.83 308.259 459.416 312.985 454.871 316.435Z" fill="#3F3D56"/>
<path d="M464.484 281.196C465.238 280.923 465.923 280.488 466.49 279.921C467.058 279.355 467.494 278.671 467.769 277.918C468.043 277.164 468.149 276.36 468.079 275.561C468.009 274.763 467.764 273.989 467.363 273.295L480.106 258.547L470.06 257.24L459.499 271.445C458.378 272.197 457.571 273.334 457.232 274.64C456.892 275.947 457.044 277.332 457.659 278.534C458.273 279.736 459.307 280.671 460.565 281.162C461.823 281.652 463.218 281.665 464.484 281.196Z" fill="#FFB8B8"/>
<path d="M536.311 284.313C536.84 283.71 537.23 282.999 537.454 282.229C537.678 281.459 537.731 280.65 537.608 279.857C537.485 279.065 537.19 278.309 536.743 277.644C536.296 276.978 535.709 276.418 535.023 276.003L539.073 256.941L529.642 260.638L527.241 278.173C526.621 279.372 526.462 280.757 526.795 282.065C527.128 283.373 527.93 284.513 529.048 285.27C530.166 286.027 531.523 286.348 532.862 286.171C534.2 285.995 535.428 285.333 536.311 284.313Z" fill="#FFB8B8"/>
<path d="M490.667 383.659L483.979 383.658L480.797 357.87L490.668 357.871L490.667 383.659Z" fill="#FFB8B8"/>
<path d="M492.379 390.14L470.813 390.139V389.866C470.812 388.764 471.03 387.673 471.451 386.655C471.873 385.637 472.492 384.712 473.271 383.933C474.051 383.154 474.976 382.536 475.994 382.114C477.013 381.693 478.104 381.476 479.207 381.476L492.379 381.476L492.379 390.14Z" fill="#2F2E41"/>
<path d="M523.401 383.659L516.713 383.658L513.531 357.87L523.403 357.871L523.401 383.659Z" fill="#FFB8B8"/>
<path d="M525.113 390.14L503.547 390.139V389.866C503.547 388.764 503.764 387.673 504.186 386.655C504.608 385.637 505.226 384.712 506.005 383.933C506.785 383.154 507.71 382.536 508.729 382.114C509.747 381.693 510.839 381.476 511.941 381.476L525.113 381.476L525.113 390.14Z" fill="#2F2E41"/>
<path d="M491.371 370.193L481.903 369.815C481.258 369.787 480.649 369.506 480.208 369.034C479.767 368.561 479.53 367.934 479.548 367.288L482.215 279.826L482.389 279.764C498.983 273.763 512.711 274.217 524.357 281.149L524.487 281.226L526.085 366.41C526.091 366.736 526.032 367.06 525.912 367.363C525.791 367.667 525.611 367.943 525.383 368.175C525.154 368.408 524.882 368.593 524.581 368.719C524.28 368.846 523.957 368.911 523.63 368.911H515.647C515.078 368.91 514.527 368.712 514.088 368.351C513.649 367.989 513.348 367.487 513.238 366.93L502.362 311.627C502.324 311.436 502.22 311.265 502.067 311.144C501.915 311.023 501.724 310.96 501.529 310.967C501.334 310.975 501.148 311.051 501.005 311.183C500.862 311.315 500.77 311.493 500.747 311.687L493.907 368.037C493.831 368.631 493.542 369.178 493.094 369.575C492.645 369.972 492.068 370.192 491.468 370.195C491.436 370.195 491.404 370.195 491.371 370.193Z" fill="#2F2E41"/>
<path d="M500.579 203.125C507.979 203.125 513.978 197.128 513.978 189.731C513.978 182.334 507.979 176.337 500.579 176.337C493.179 176.337 487.18 182.334 487.18 189.731C487.18 197.128 493.179 203.125 500.579 203.125Z" fill="#FFB8B8"/>
<path d="M469.009 270.55C468.544 270.367 468.146 270.046 467.868 269.631L465.279 265.758C465 265.338 464.856 264.843 464.868 264.339C464.879 263.834 465.046 263.346 465.344 262.939L475.782 248.778L482.321 217.415C482.697 216.446 483.26 215.562 483.979 214.811C484.697 214.061 485.556 213.459 486.508 213.041C487.459 212.622 488.483 212.395 489.522 212.373C490.561 212.351 491.594 212.533 492.562 212.91C493.531 213.287 494.415 213.851 495.165 214.57C495.916 215.288 496.517 216.148 496.934 217.099C497.352 218.05 497.578 219.074 497.6 220.113C497.621 221.151 497.438 222.184 497.06 223.152L493.969 243.112C493.032 249.17 489.926 254.682 485.227 258.622L471.488 270.147C471.223 270.369 470.915 270.532 470.584 270.627C470.252 270.722 469.904 270.746 469.563 270.697C469.373 270.67 469.187 270.621 469.009 270.55Z" fill="#3F3D56"/>
<path d="M535.746 271.971C535.276 272.141 534.765 272.163 534.282 272.035L529.779 270.838C529.292 270.707 528.856 270.43 528.532 270.044C528.207 269.657 528.009 269.181 527.964 268.679L526.439 251.155L510.617 223.294C510.259 222.319 510.097 221.283 510.14 220.244C510.183 219.206 510.43 218.187 510.867 217.245C511.305 216.302 511.924 215.455 512.689 214.752C513.454 214.049 514.35 213.503 515.326 213.147C516.302 212.79 517.339 212.629 518.378 212.673C519.416 212.717 520.436 212.966 521.378 213.404C522.32 213.842 523.167 214.462 523.869 215.227C524.572 215.993 525.117 216.89 525.472 217.866L536.346 234.89C539.647 240.056 540.958 246.245 540.036 252.306L537.34 270.032C537.288 270.373 537.165 270.699 536.979 270.989C536.793 271.279 536.547 271.526 536.259 271.716C536.099 271.821 535.926 271.907 535.746 271.971Z" fill="#3F3D56"/>
<path d="M485.923 213.518C488.224 210.995 491.063 209.02 494.23 207.741C497.396 206.461 500.81 205.908 504.219 206.123C504.443 206.137 504.666 206.152 504.888 206.17C508.119 206.425 511.259 207.367 514.096 208.933C516.934 210.498 519.404 212.651 521.342 215.248C523.313 217.881 524.699 220.904 525.407 224.115C526.114 227.326 526.128 230.651 525.448 233.868C522.85 246.162 523.507 258.922 527.355 270.884L530.95 282.041C531.065 282.399 531.097 282.778 531.042 283.149C530.988 283.521 530.849 283.875 530.636 284.185C530.422 284.494 530.141 284.75 529.813 284.934C529.486 285.118 529.12 285.223 528.745 285.243L510.368 286.231L505.665 278.111V286.484L483.329 287.684C483.285 287.687 483.241 287.688 483.197 287.688C482.858 287.688 482.523 287.617 482.212 287.481C481.902 287.345 481.623 287.147 481.393 286.898C481.163 286.649 480.987 286.355 480.877 286.034C480.766 285.714 480.723 285.374 480.751 285.037L483.275 253.744L480.109 232.491C479.596 229.095 479.852 225.627 480.859 222.344C481.865 219.06 483.595 216.044 485.923 213.518Z" fill="#3F3D56"/>
<path d="M509.892 202.517C508.651 203.231 503.748 203.704 503.398 202.317L503.391 202.286C503.148 201.269 503.35 200.208 503.419 199.165C503.489 198.122 503.387 196.976 502.677 196.21C501.352 194.78 498.995 195.538 497.08 195.177C495.958 194.926 494.966 194.276 494.289 193.347C493.612 192.418 493.297 191.275 493.403 190.131C493.43 189.914 493.473 189.697 493.521 189.48C493.641 188.93 493.631 188.361 493.494 187.815C493.356 187.27 493.094 186.764 492.728 186.337C492.362 185.91 491.902 185.573 491.384 185.354C490.865 185.135 490.304 185.038 489.742 185.073C487.806 185.183 485.717 185.77 484.115 184.336C482.877 183.228 482.575 180.343 483.119 178.773C484.033 176.135 489.891 174.753 492.449 173.994C495.612 173.08 498.939 172.883 502.188 173.416C505.438 173.949 508.527 175.199 511.233 177.075C512.848 178.213 514.357 179.643 515.045 181.495C515.734 183.347 515.402 185.684 513.849 186.906C515.053 188.18 515.9 189.748 516.307 191.452C516.713 193.156 516.665 194.937 516.166 196.617C515.399 199.087 511.739 201.455 509.892 202.517Z" fill="#2F2E41"/>
<path d="M549.452 391H433.249C433.104 391 432.965 390.942 432.863 390.84C432.761 390.738 432.703 390.599 432.703 390.455C432.703 390.31 432.761 390.171 432.863 390.069C432.965 389.967 433.104 389.909 433.249 389.909H549.452C549.597 389.909 549.735 389.967 549.838 390.069C549.94 390.171 549.997 390.31 549.997 390.455C549.997 390.599 549.94 390.738 549.838 390.84C549.735 390.942 549.597 391 549.452 391Z" fill="#CCCCCC"/>
</g>
<defs>
<clipPath id="clip0_828_184780">
<rect width="451" height="313" fill="white" transform="translate(99 78)"/>
</clipPath>
</defs>
</svg>
