<svg xmlns="http://www.w3.org/2000/svg" width="406" height="334" viewBox="0 0 406 334" fill="none">
<g clip-path="url(#clip0_21254_464210)">
<path d="M166.589 269.86C119.339 258.925 49.679 230.44 71.954 179.005C82.619 154.435 95.849 144.175 104.894 135.4C118.934 121.63 124.739 83.8296 161.594 80.3196C192.239 77.3496 212.084 96.5196 231.929 98.8146C249.344 100.84 296.729 98.0046 311.444 113.53C334.529 137.83 317.519 155.92 321.434 173.335C322.919 179.815 335.339 188.725 337.229 204.655C340.334 230.575 264.464 292.405 166.589 269.86Z" fill="#E6EDF9"/>
<path d="M202.501 324.943C287.349 324.943 356.131 315.695 356.131 304.288C356.131 292.88 287.349 283.633 202.501 283.633C117.654 283.633 48.8711 292.88 48.8711 304.288C48.8711 315.695 117.654 324.943 202.501 324.943Z" fill="#E6EDF9"/>
<path d="M291.598 101.656L267.163 119.071L265.273 111.376L291.598 101.656Z" fill="#E5A300"/>
<path d="M258.93 103.141L291.6 101.656L263.925 117.181L264.195 110.161L258.93 103.141Z" fill="#FFBA00"/>
<path d="M291.601 101.656L263.656 109.351L264.196 110.161V111.106L291.601 101.656Z" fill="#E5A300"/>
<path d="M57.1055 241.789L74.9255 254.479L76.2755 248.944L57.1055 241.789Z" fill="#0054D4"/>
<path d="M80.8655 243.004L57.1055 241.789L77.3555 253.264L77.0855 247.999L80.8655 243.004Z" fill="#007FFA"/>
<path d="M57.1055 241.789L77.4905 247.594L77.0855 247.999V248.809L57.1055 241.789Z" fill="#0054D4"/>
<path d="M178.067 308.068C178.067 308.878 177.392 309.688 176.447 309.688H162.272C161.462 309.688 160.652 309.013 160.652 308.068V293.893C160.652 293.083 161.327 292.273 162.272 292.273H176.447C177.257 292.273 178.067 292.948 178.067 293.893V308.068Z" fill="#007FFA"/>
<path d="M164.297 296.055L174.152 305.91" stroke="white" stroke-width="0.39285" stroke-miterlimit="10" stroke-linecap="round"/>
<path d="M174.152 296.055L164.297 305.91" stroke="white" stroke-width="0.39285" stroke-miterlimit="10" stroke-linecap="round"/>
<path d="M81.0027 190.894C81.0027 191.704 80.3277 192.514 79.3827 192.514H65.3427C64.5327 192.514 63.7227 191.839 63.7227 190.894V176.854C63.7227 176.044 64.3977 175.234 65.3427 175.234H79.5177C80.3277 175.234 81.1377 175.909 81.1377 176.854V190.894H81.0027Z" fill="#FFBA00"/>
<path d="M67.2305 178.875L77.0855 188.865" stroke="white" stroke-width="0.39285" stroke-miterlimit="10" stroke-linecap="round"/>
<path d="M77.0855 178.875L67.2305 188.865" stroke="white" stroke-width="0.39285" stroke-miterlimit="10" stroke-linecap="round"/>
<path d="M343.169 242.865C343.169 243.675 342.494 244.485 341.549 244.485H327.374C326.564 244.485 325.754 243.81 325.754 242.865V228.69C325.754 227.88 326.429 227.07 327.374 227.07H341.549C342.359 227.07 343.169 227.745 343.169 228.69V242.865Z" fill="#07BEB8"/>
<path d="M329.266 230.852L339.256 240.707" stroke="white" stroke-width="0.39285" stroke-miterlimit="10" stroke-linecap="round"/>
<path d="M339.256 230.852L329.266 240.707" stroke="white" stroke-width="0.39285" stroke-miterlimit="10" stroke-linecap="round"/>
<path d="M138.914 114.484L144.044 119.614" stroke="#FFBA00" stroke-width="0.39285" stroke-miterlimit="10" stroke-linecap="round"/>
<path d="M144.044 114.484L138.914 119.614" stroke="#FFBA00" stroke-width="0.39285" stroke-miterlimit="10" stroke-linecap="round"/>
<path d="M148.228 101.519C150.018 101.519 151.468 100.068 151.468 98.2791C151.468 96.4897 150.018 95.0391 148.228 95.0391C146.439 95.0391 144.988 96.4897 144.988 98.2791C144.988 100.068 146.439 101.519 148.228 101.519Z" stroke="#07BEB8" stroke-width="0.39285" stroke-miterlimit="10"/>
<path d="M75.4627 225.722C77.2521 225.722 78.7027 224.272 78.7027 222.482C78.7027 220.693 77.2521 219.242 75.4627 219.242C73.6733 219.242 72.2227 220.693 72.2227 222.482C72.2227 224.272 73.6733 225.722 75.4627 225.722Z" stroke="#07BEB8" stroke-width="0.39285" stroke-miterlimit="10"/>
<path d="M261.09 299.57L266.355 304.7" stroke="#07BEB8" stroke-width="0.39285" stroke-miterlimit="10" stroke-linecap="round"/>
<path d="M266.355 299.57L261.09 304.7" stroke="#07BEB8" stroke-width="0.39285" stroke-miterlimit="10" stroke-linecap="round"/>
<path d="M279.853 296.863C281.643 296.863 283.093 295.412 283.093 293.623C283.093 291.833 281.643 290.383 279.853 290.383C278.064 290.383 276.613 291.833 276.613 293.623C276.613 295.412 278.064 296.863 279.853 296.863Z" stroke="#A03F99" stroke-width="0.39285" stroke-miterlimit="10"/>
<path d="M328.32 171.039L333.45 176.169" stroke="#A03F99" stroke-width="0.39285" stroke-miterlimit="10" stroke-linecap="round"/>
<path d="M333.45 171.039L328.32 176.169" stroke="#A03F99" stroke-width="0.39285" stroke-miterlimit="10" stroke-linecap="round"/>
<path d="M69.7969 274.047L74.9269 279.177" stroke="#A03F99" stroke-width="0.39285" stroke-miterlimit="10" stroke-linecap="round"/>
<path d="M74.9269 274.047L69.7969 279.177" stroke="#A03F99" stroke-width="0.39285" stroke-miterlimit="10" stroke-linecap="round"/>
<path d="M326.162 155.793C327.951 155.793 329.402 154.342 329.402 152.553C329.402 150.763 327.951 149.312 326.162 149.312C324.372 149.312 322.922 150.763 322.922 152.553C322.922 154.342 324.372 155.793 326.162 155.793Z" stroke="#FFBA00" stroke-width="0.39285" stroke-miterlimit="10" stroke-linecap="round"/>
<path d="M166.996 115.832V110.432L178.336 93.4216H185.491V110.027H189.406V115.967H185.491V120.692H179.551V115.967H166.996V115.832ZM180.091 100.577L173.341 110.027H180.091V100.577ZM194.266 96.2566C195.886 93.8266 198.586 92.4766 202.366 92.4766C206.011 92.4766 208.711 93.6916 210.466 96.2566C212.086 98.6866 212.896 102.062 212.896 106.382C212.896 110.702 212.086 114.212 210.466 116.642C208.846 119.072 206.146 120.422 202.366 120.422C198.721 120.422 196.021 119.207 194.266 116.642C192.646 114.212 191.836 110.702 191.836 106.382C191.701 102.197 192.646 98.8216 194.266 96.2566ZM205.741 100.577C205.201 99.2266 203.986 98.5516 202.366 98.5516C200.611 98.5516 199.531 99.2266 198.991 100.577C198.451 101.927 198.181 103.952 198.181 106.382C198.181 108.137 198.316 109.487 198.451 110.567C198.586 111.647 198.991 112.592 199.666 113.267C200.341 113.942 201.151 114.347 202.366 114.347C203.581 114.347 204.526 113.942 205.066 113.267C205.741 112.592 206.146 111.647 206.281 110.567C206.416 109.487 206.551 108.002 206.551 106.382C206.551 103.952 206.281 102.062 205.741 100.577ZM216.136 115.832V110.432L228.151 93.4216H235.306V110.027H238.411V115.967H235.306V120.692H228.961V115.967H216.136V115.832ZM229.906 100.577L223.156 110.027H229.906V100.577Z" fill="#3376DD"/>
<path d="M88.9688 142.688V282.682C88.9688 284.977 90.8587 286.868 93.1537 286.868H311.989C314.284 286.868 316.174 284.977 316.174 282.682V142.688H88.9688Z" fill="#07BEB8"/>
<path d="M311.987 127.57H93.017C90.722 127.57 88.832 129.46 88.832 131.755V142.69H316.037V131.755C316.172 129.46 314.282 127.57 311.987 127.57Z" fill="#007FFA"/>
<path d="M101.386 135.256C101.386 136.876 100.036 138.226 98.4158 138.226H98.1458C96.5258 138.226 95.1758 136.876 95.1758 135.256V134.986C95.1758 133.366 96.5258 132.016 98.1458 132.016H98.4158C100.036 132.016 101.386 133.366 101.386 134.986V135.256ZM112.861 135.256C112.861 136.876 111.511 138.226 109.891 138.226H109.621C108.001 138.226 106.651 136.876 106.651 135.256V134.986C106.651 133.366 108.001 132.016 109.621 132.016H109.891C111.511 132.016 112.861 133.366 112.861 134.986V135.256ZM124.201 135.256C124.201 136.876 122.851 138.226 121.231 138.226H120.961C119.341 138.226 117.991 136.876 117.991 135.256V134.986C117.991 133.366 119.341 132.016 120.961 132.016H121.231C122.851 132.016 124.201 133.366 124.201 134.986V135.256Z" fill="white"/>
<path d="M256.77 138.507H148.23C146.475 138.507 145.125 137.157 145.125 135.402C145.125 133.647 146.475 132.297 148.23 132.297H256.77C258.525 132.297 259.875 133.647 259.875 135.402C260.01 137.157 258.525 138.507 256.77 138.507Z" fill="white"/>
<path d="M219.777 152.953V173.608H240.837L219.777 152.953Z" fill="#E9ECEF"/>
<path d="M241.378 173.609H219.778V152.414H164.293V249.884H223.018L221.128 244.214L222.748 237.329L219.643 226.124L226.258 236.249L226.393 244.349L230.848 249.479H241.378V173.609Z" fill="white"/>
<path d="M182.652 187.789L191.697 196.699" stroke="black" stroke-width="0.39285" stroke-miterlimit="10" stroke-linecap="round"/>
<path d="M191.697 187.789L182.652 196.699" stroke="black" stroke-width="0.39285" stroke-miterlimit="10" stroke-linecap="round"/>
<path d="M212.078 187.789L220.988 196.699" stroke="black" stroke-width="0.39285" stroke-miterlimit="10" stroke-linecap="round"/>
<path d="M220.988 187.789L212.078 196.699" stroke="black" stroke-width="0.39285" stroke-miterlimit="10" stroke-linecap="round"/>
<path d="M192.102 215.597C192.102 210.197 196.557 205.742 201.957 205.742C207.357 205.742 211.812 210.197 211.812 215.597" stroke="black" stroke-width="0.39285" stroke-miterlimit="10" stroke-linecap="round"/>
<path d="M110.298 260.42C109.488 256.1 103.278 256.1 102.333 260.42L95.9883 293.495H116.508L110.298 260.42Z" fill="#FFBA00"/>
<path d="M122.312 295.255C122.312 294.31 121.502 293.5 120.557 293.5H91.8019C90.8569 293.5 90.0469 294.31 90.0469 295.255V295.39C90.0469 296.335 90.8569 297.145 91.8019 297.145H120.557C121.502 297.01 122.312 296.335 122.312 295.255Z" fill="#FFBA00"/>
<path d="M111.24 265.281H101.25L100.035 272.706H112.59L111.24 265.281Z" fill="white"/>
<path d="M113.941 279.32H98.6859L97.3359 285.665H115.156L113.941 279.32Z" fill="white"/>
<path d="M248.532 292.672H241.512V298.072H248.532V292.672Z" fill="#3376DD"/>
<path d="M246.239 248.938H243.809V294.433H246.239V248.938Z" fill="#3376DD"/>
<path d="M245.024 249.744C247.187 249.744 248.939 247.991 248.939 245.829C248.939 243.667 247.187 241.914 245.024 241.914C242.862 241.914 241.109 243.667 241.109 245.829C241.109 247.991 242.862 249.744 245.024 249.744Z" fill="#FFBA00"/>
<path d="M308.743 292.672H301.723V298.072H308.743V292.672Z" fill="#3376DD"/>
<path d="M306.446 248.93H304.016V294.425H306.446V248.93Z" fill="#3376DD"/>
<path d="M305.231 249.744C307.394 249.744 309.146 247.991 309.146 245.829C309.146 243.667 307.394 241.914 305.231 241.914C303.069 241.914 301.316 243.667 301.316 245.829C301.316 247.991 303.069 249.744 305.231 249.744Z" fill="#FFBA00"/>
<path d="M312.388 252.859H237.733C236.923 252.859 236.113 253.534 236.113 254.479V264.064C236.113 264.874 236.788 265.684 237.733 265.684H312.388C313.198 265.684 314.008 265.009 314.008 264.064V254.479C314.008 253.669 313.333 252.859 312.388 252.859Z" fill="white"/>
<path d="M244.753 265.684H238.273L245.698 252.859H252.043L244.753 265.684Z" fill="#FFBA00"/>
<path d="M259.738 265.684H253.258L260.683 252.859H267.028L259.738 265.684Z" fill="#FFBA00"/>
<path d="M274.722 265.684H268.242L275.667 252.859H282.012L274.722 265.684Z" fill="#FFBA00"/>
<path d="M289.71 265.684H283.23L290.52 252.859H297L289.71 265.684Z" fill="#FFBA00"/>
<path d="M304.691 265.684H298.211L305.501 252.859H311.981L304.691 265.684Z" fill="#FFBA00"/>
<path d="M312.388 269.992H237.733C236.923 269.992 236.113 270.667 236.113 271.612V281.197C236.113 282.007 236.788 282.817 237.733 282.817H312.388C313.198 282.817 314.008 282.142 314.008 281.197V271.612C314.008 270.802 313.333 269.992 312.388 269.992Z" fill="white"/>
<path d="M244.753 282.817H238.273L245.698 269.992H252.043L244.753 282.817Z" fill="#FFBA00"/>
<path d="M259.738 282.817H253.258L260.683 269.992H267.028L259.738 282.817Z" fill="#FFBA00"/>
<path d="M274.722 282.817H268.242L275.667 269.992H282.012L274.722 282.817Z" fill="#FFBA00"/>
<path d="M289.71 282.817H283.23L290.52 269.992H297L289.71 282.817Z" fill="#FFBA00"/>
<path d="M304.691 282.817H298.211L305.501 269.992H311.981L304.691 282.817Z" fill="#FFBA00"/>
<path d="M186.435 268.386H175.635C175.77 269.196 176.175 270.411 176.85 271.086C177.66 271.761 178.47 272.031 179.55 272.031C181.17 272.031 182.25 271.086 182.925 270.006H186.03C185.625 271.221 184.815 272.436 183.735 273.381C182.655 274.191 181.17 274.731 179.55 274.731C178.2 274.731 176.985 274.461 175.905 273.921C174.825 273.381 174.015 272.436 173.34 271.356C172.8 270.276 172.395 268.926 172.395 267.576C172.395 266.091 172.665 264.876 173.34 263.796C173.88 262.716 174.69 261.906 175.77 261.231C176.85 260.691 178.065 260.286 179.415 260.286C180.765 260.286 181.98 260.556 182.925 261.096C184.005 261.636 184.815 262.446 185.355 263.526C185.895 264.606 186.165 265.686 186.165 267.171C186.57 267.441 186.57 267.981 186.435 268.386ZM183.6 265.956C183.6 264.741 183.195 264.066 182.385 263.391C181.575 262.716 180.765 262.446 179.55 262.446C178.605 262.446 177.66 262.716 176.985 263.391C176.31 264.066 175.905 264.741 175.77 265.956H183.6ZM193.995 260.691C194.67 260.286 195.345 260.151 196.56 260.151V262.986H195.885C194.805 262.986 193.725 263.391 193.185 263.931C192.645 264.471 192.24 265.686 192.24 267.036V274.326H189V260.151H192.105V262.446C192.645 261.636 193.185 261.096 193.995 260.691ZM203.715 260.691C204.39 260.286 205.065 260.151 206.28 260.151V262.986H205.605C204.525 262.986 203.58 263.391 202.905 263.931C202.365 264.471 201.96 265.686 201.96 267.036V274.326H198.855V260.151H201.96V262.446C202.365 261.636 203.04 261.096 203.715 260.691ZM211.545 273.651C210.465 273.111 209.655 272.166 208.98 271.086C208.305 270.006 208.035 268.656 208.035 267.306C208.035 265.821 208.305 264.606 208.98 263.526C209.655 262.446 210.465 261.501 211.545 260.961C212.625 260.421 213.84 260.016 215.19 260.016C216.54 260.016 217.755 260.286 218.835 260.961C219.915 261.501 220.725 262.446 221.4 263.526C222.075 264.606 222.345 265.956 222.345 267.306C222.345 268.791 222.075 270.006 221.4 271.086C220.725 272.166 219.915 273.111 218.7 273.651C217.62 274.191 216.405 274.596 215.055 274.596C213.84 274.596 212.625 274.326 211.545 273.651ZM217.35 271.491C218.025 271.086 218.565 270.546 218.97 269.871C219.375 269.196 219.645 268.251 219.645 267.306C219.645 266.226 219.51 265.416 219.105 264.741C218.7 264.066 218.16 263.526 217.485 263.121C216.81 262.716 216.135 262.581 215.325 262.581C214.515 262.581 213.84 262.716 213.3 263.121C212.625 263.526 212.22 264.066 211.815 264.741C211.41 265.416 211.275 266.361 211.275 267.306C211.275 268.791 211.68 270.006 212.49 270.816C213.3 271.626 214.245 272.031 215.46 272.031C216 272.031 216.675 271.896 217.35 271.491ZM229.905 260.691C230.58 260.286 231.12 260.151 232.335 260.151V262.986H231.795C230.715 262.986 229.77 263.391 229.23 263.931C228.69 264.471 228.42 265.686 228.42 267.036V274.326H225.315V260.151H228.42V262.446C228.69 261.636 229.23 261.096 229.905 260.691Z" fill="#3376DD"/>
<path d="M118.67 217.485C118.67 213.435 115.43 210.195 111.38 210.195C107.33 210.195 104.09 213.435 104.09 217.485C104.09 221.535 107.33 224.775 111.38 224.775C115.43 224.775 118.67 221.535 118.67 217.485ZM107.6 217.485C107.6 215.46 109.22 213.705 111.38 213.705C113.54 213.705 115.16 215.325 115.16 217.485C115.16 219.645 113.54 221.265 111.38 221.265C109.22 221.265 107.6 219.51 107.6 217.485Z" fill="white"/>
<path d="M120.289 218.839V216.004L117.184 215.734V219.109L120.289 218.839Z" fill="white"/>
<path d="M101.793 218.839V216.004L105.033 215.734V219.109L101.793 218.839Z" fill="white"/>
<path d="M116.914 224.914L118.804 222.889L116.914 220.594L114.484 223.024L116.914 224.914Z" fill="white"/>
<path d="M103.953 211.955L105.843 209.93L108.138 211.82L105.843 214.25L103.953 211.955Z" fill="white"/>
<path d="M110.026 227.074H112.726L113.131 223.969H109.621L110.026 227.074Z" fill="white"/>
<path d="M110.026 208.172H112.726L113.131 211.007H109.621L110.026 208.172Z" fill="white"/>
<path d="M103.953 222.881L105.843 224.906L108.138 223.016L105.843 220.586L103.953 222.881Z" fill="white"/>
<path d="M116.914 209.922L118.804 211.947L116.914 214.242L114.484 211.812L116.914 209.922Z" fill="white"/>
<path d="M144.05 232.744C144.05 225.994 138.65 220.594 131.9 220.594C125.15 220.594 119.75 225.994 119.75 232.744C119.75 239.494 125.15 244.894 131.9 244.894C138.65 244.894 144.05 239.494 144.05 232.744ZM125.825 232.744C125.825 229.369 128.66 226.534 132.035 226.534C135.41 226.534 138.245 229.369 138.245 232.744C138.245 236.119 135.41 238.954 132.035 238.954C128.525 238.954 125.825 236.254 125.825 232.744Z" fill="#3376DD"/>
<path d="M146.616 235.036V230.446L141.891 229.906V235.576L146.616 235.036Z" fill="#3376DD"/>
<path d="M116.375 235.036V230.446L121.1 229.906V235.576L116.375 235.036Z" fill="#3376DD"/>
<path d="M141.216 245.163L144.456 241.923L141.351 238.008L137.301 242.058L141.216 245.163Z" fill="#3376DD"/>
<path d="M119.613 223.56L122.853 220.32L126.768 223.425L122.718 227.475L119.613 223.56Z" fill="#3376DD"/>
<path d="M129.739 247.863H134.329L134.869 243.273H129.199L129.739 247.863Z" fill="#3376DD"/>
<path d="M129.739 217.625H134.329L134.869 222.35H129.199L129.739 217.625Z" fill="#3376DD"/>
<path d="M119.613 241.931L122.853 245.171L126.768 242.066L122.718 238.016L119.613 241.931Z" fill="#3376DD"/>
<path d="M141.212 220.328L144.452 223.568L141.347 227.483L137.297 223.433L141.212 220.328Z" fill="#3376DD"/>
<path d="M261.36 203.452L292.68 149.317C293.49 147.832 295.65 147.832 296.46 149.317L327.78 203.452C328.59 204.937 327.51 206.692 325.89 206.692H263.25C261.495 206.692 260.55 204.937 261.36 203.452Z" fill="#FFBA00"/>
<path d="M265.409 200.345L292.949 152.825C293.624 151.61 295.514 151.61 296.324 152.825L323.729 200.345C324.404 201.56 323.594 203.18 322.109 203.18H267.164C265.679 203.18 264.734 201.56 265.409 200.345Z" fill="white"/>
<path d="M291.6 197.782C290.79 197.107 290.52 196.162 290.52 195.217C290.52 194.137 290.925 193.192 291.6 192.517C292.41 191.842 293.355 191.437 294.57 191.437C295.785 191.437 296.73 191.842 297.54 192.517C298.35 193.192 298.62 194.137 298.62 195.217C298.62 196.297 298.215 197.107 297.54 197.782C296.73 198.457 295.785 198.862 294.57 198.862C293.355 198.727 292.41 198.457 291.6 197.782ZM298.215 169.297L297.405 188.197H291.6L290.79 169.297H298.215Z" fill="#FFBA00"/>
<path d="M134.866 175.097C134.731 175.097 134.596 175.097 134.461 175.097C133.786 170.372 129.601 166.727 124.606 166.727C121.231 166.727 118.261 168.347 116.506 170.912C115.831 170.642 115.156 170.507 114.481 170.507C111.241 170.507 108.541 173.207 108.541 176.447C108.136 176.312 107.731 176.312 107.326 176.312C104.221 176.312 101.656 178.877 101.656 181.982C101.656 185.087 104.221 187.652 107.326 187.652C107.596 187.652 134.596 187.652 134.866 187.652C138.376 187.652 141.211 184.817 141.211 181.307C141.211 177.932 138.376 175.097 134.866 175.097Z" fill="white"/>
<path d="M126.498 163.484L118.668 191.294" stroke="black" stroke-width="0.39285" stroke-miterlimit="10" stroke-linecap="round"/>
</g>
<defs>
<clipPath id="clip0_21254_464210">
<rect width="405" height="334" fill="white" transform="translate(0.5)"/>
</clipPath>
</defs>
</svg>