<svg width="144" height="145" viewBox="0 0 144 145" fill="none" xmlns="http://www.w3.org/2000/svg">
<g clip-path="url(#clip0_4674_445987)">
<path d="M120 12.3672H48C41.4 12.3672 36 17.7672 36 24.3672V96.3672C36 102.967 41.4 108.367 48 108.367H120C126.6 108.367 132 102.967 132 96.3672V24.3672C132 17.7672 126.6 12.3672 120 12.3672ZM120 96.3672H48V24.3672H120V96.3672ZM24 36.3672H12V120.367C12 126.967 17.4 132.367 24 132.367H108V120.367H24V36.3672ZM96 72.3672V54.3672C96 51.0672 93.3 48.3672 90 48.3672H78V78.3672H90C93.3 78.3672 96 75.6672 96 72.3672ZM84 54.3672H90V72.3672H84V54.3672ZM108 66.3672H114V60.3672H108V54.3672H114V48.3672H102V78.3672H108V66.3672ZM60 66.3672H66C69.3 66.3672 72 63.6672 72 60.3672V54.3672C72 51.0672 69.3 48.3672 66 48.3672H54V78.3672H60V66.3672ZM60 54.3672H66V60.3672H60V54.3672Z" fill="#EA7979"/>
</g>
<defs>
<clipPath id="clip0_4674_445987">
<rect width="144" height="144" fill="white" transform="translate(0 0.367188)"/>
</clipPath>
</defs>
</svg>
