<svg width="239" height="270" viewBox="0 0 239 270" fill="none" xmlns="http://www.w3.org/2000/svg">
<path d="M49.564 5.11H46.316V14H44.965V5.11H41.71V3.969H49.564V5.11ZM51.8884 7.854C52.1918 7.532 52.5278 7.27533 52.8964 7.084C53.2651 6.89267 53.6898 6.797 54.1704 6.797C54.5578 6.797 54.8984 6.86233 55.1924 6.993C55.4911 7.119 55.7384 7.301 55.9344 7.539C56.1351 7.77233 56.2868 8.05467 56.3894 8.386C56.4921 8.71733 56.5434 9.08367 56.5434 9.485V14H55.2904V9.485C55.2904 8.94833 55.1668 8.533 54.9194 8.239C54.6768 7.94033 54.3058 7.791 53.8064 7.791C53.4378 7.791 53.0924 7.87967 52.7704 8.057C52.4531 8.23433 52.1591 8.47467 51.8884 8.778V14H50.6354V3.689H51.8884V7.854ZM63.1881 9.681C63.1881 9.39167 63.1461 9.128 63.0621 8.89C62.9827 8.64733 62.8637 8.43967 62.7051 8.267C62.5511 8.08967 62.3621 7.95433 62.1381 7.861C61.9141 7.763 61.6597 7.714 61.3751 7.714C60.7777 7.714 60.3041 7.889 59.9541 8.239C59.6087 8.58433 59.3941 9.065 59.3101 9.681H63.1881ZM64.1961 13.006C64.0421 13.1927 63.8577 13.356 63.6431 13.496C63.4284 13.6313 63.1974 13.7433 62.9501 13.832C62.7074 13.9207 62.4554 13.986 62.1941 14.028C61.9327 14.0747 61.6737 14.098 61.4171 14.098C60.9271 14.098 60.4744 14.0163 60.0591 13.853C59.6484 13.685 59.2914 13.4423 58.9881 13.125C58.6894 12.803 58.4561 12.4063 58.2881 11.935C58.1201 11.4637 58.0361 10.9223 58.0361 10.311C58.0361 9.81633 58.1107 9.35433 58.2601 8.925C58.4141 8.49567 58.6334 8.12467 58.9181 7.812C59.2027 7.49467 59.5504 7.24733 59.9611 7.07C60.3717 6.888 60.8337 6.797 61.3471 6.797C61.7717 6.797 62.1637 6.86933 62.5231 7.014C62.8871 7.154 63.1997 7.35933 63.4611 7.63C63.7271 7.896 63.9347 8.22733 64.0841 8.624C64.2334 9.016 64.3081 9.464 64.3081 9.968C64.3081 10.164 64.2871 10.2947 64.2451 10.36C64.2031 10.4253 64.1237 10.458 64.0071 10.458H59.2681C59.2821 10.906 59.3427 11.2957 59.4501 11.627C59.5621 11.9583 59.7161 12.236 59.9121 12.46C60.1081 12.6793 60.3414 12.845 60.6121 12.957C60.8827 13.0643 61.1861 13.118 61.5221 13.118C61.8347 13.118 62.1031 13.083 62.3271 13.013C62.5557 12.9383 62.7517 12.859 62.9151 12.775C63.0784 12.691 63.2137 12.614 63.3211 12.544C63.4331 12.4693 63.5287 12.432 63.6081 12.432C63.7107 12.432 63.7901 12.4717 63.8461 12.551L64.1961 13.006ZM67.0216 8.33C67.2456 7.84467 67.5209 7.46667 67.8476 7.196C68.1742 6.92067 68.5732 6.783 69.0446 6.783C69.1939 6.783 69.3362 6.79933 69.4716 6.832C69.6116 6.86467 69.7352 6.916 69.8426 6.986L69.7516 7.917C69.7236 8.03367 69.6536 8.092 69.5416 8.092C69.4762 8.092 69.3806 8.078 69.2546 8.05C69.1286 8.022 68.9862 8.008 68.8276 8.008C68.6036 8.008 68.4029 8.04067 68.2256 8.106C68.0529 8.17133 67.8966 8.26933 67.7566 8.4C67.6212 8.526 67.4976 8.68467 67.3856 8.876C67.2782 9.06267 67.1802 9.27733 67.0916 9.52V14H65.8386V6.909H66.5526C66.6879 6.909 66.7812 6.93467 66.8326 6.986C66.8839 7.03733 66.9189 7.126 66.9376 7.252L67.0216 8.33ZM75.3971 9.681C75.3971 9.39167 75.3551 9.128 75.2711 8.89C75.1917 8.64733 75.0727 8.43967 74.9141 8.267C74.7601 8.08967 74.5711 7.95433 74.3471 7.861C74.1231 7.763 73.8687 7.714 73.5841 7.714C72.9867 7.714 72.5131 7.889 72.1631 8.239C71.8177 8.58433 71.6031 9.065 71.5191 9.681H75.3971ZM76.4051 13.006C76.2511 13.1927 76.0667 13.356 75.8521 13.496C75.6374 13.6313 75.4064 13.7433 75.1591 13.832C74.9164 13.9207 74.6644 13.986 74.4031 14.028C74.1417 14.0747 73.8827 14.098 73.6261 14.098C73.1361 14.098 72.6834 14.0163 72.2681 13.853C71.8574 13.685 71.5004 13.4423 71.1971 13.125C70.8984 12.803 70.6651 12.4063 70.4971 11.935C70.3291 11.4637 70.2451 10.9223 70.2451 10.311C70.2451 9.81633 70.3197 9.35433 70.4691 8.925C70.6231 8.49567 70.8424 8.12467 71.1271 7.812C71.4117 7.49467 71.7594 7.24733 72.1701 7.07C72.5807 6.888 73.0427 6.797 73.5561 6.797C73.9807 6.797 74.3727 6.86933 74.7321 7.014C75.0961 7.154 75.4087 7.35933 75.6701 7.63C75.9361 7.896 76.1437 8.22733 76.2931 8.624C76.4424 9.016 76.5171 9.464 76.5171 9.968C76.5171 10.164 76.4961 10.2947 76.4541 10.36C76.4121 10.4253 76.3327 10.458 76.2161 10.458H71.4771C71.4911 10.906 71.5517 11.2957 71.6591 11.627C71.7711 11.9583 71.9251 12.236 72.1211 12.46C72.3171 12.6793 72.5504 12.845 72.8211 12.957C73.0917 13.0643 73.3951 13.118 73.7311 13.118C74.0437 13.118 74.3121 13.083 74.5361 13.013C74.7647 12.9383 74.9607 12.859 75.1241 12.775C75.2874 12.691 75.4227 12.614 75.5301 12.544C75.6421 12.4693 75.7377 12.432 75.8171 12.432C75.9197 12.432 75.9991 12.4717 76.0551 12.551L76.4051 13.006ZM82.9456 6.909V14H81.6996V6.909H82.9456ZM83.2116 4.683C83.2116 4.80433 83.1859 4.91867 83.1346 5.026C83.0879 5.12867 83.0226 5.222 82.9386 5.306C82.8592 5.38533 82.7636 5.44833 82.6516 5.495C82.5442 5.54167 82.4299 5.565 82.3086 5.565C82.1872 5.565 82.0729 5.54167 81.9656 5.495C81.8629 5.44833 81.7719 5.38533 81.6926 5.306C81.6132 5.222 81.5502 5.12867 81.5036 5.026C81.4569 4.91867 81.4336 4.80433 81.4336 4.683C81.4336 4.56167 81.4569 4.44733 81.5036 4.34C81.5502 4.228 81.6132 4.13233 81.6926 4.053C81.7719 3.969 81.8629 3.90367 81.9656 3.857C82.0729 3.81033 82.1872 3.787 82.3086 3.787C82.4299 3.787 82.5442 3.81033 82.6516 3.857C82.7636 3.90367 82.8592 3.969 82.9386 4.053C83.0226 4.13233 83.0879 4.228 83.1346 4.34C83.1859 4.44733 83.2116 4.56167 83.2116 4.683ZM89.1229 8.078C89.0669 8.18067 88.9805 8.232 88.8639 8.232C88.7939 8.232 88.7145 8.20633 88.6259 8.155C88.5372 8.10367 88.4275 8.04767 88.2969 7.987C88.1709 7.92167 88.0192 7.86333 87.8419 7.812C87.6645 7.756 87.4545 7.728 87.2119 7.728C87.0019 7.728 86.8129 7.756 86.6449 7.812C86.4769 7.86333 86.3322 7.93567 86.2109 8.029C86.0942 8.12233 86.0032 8.232 85.9379 8.358C85.8772 8.47933 85.8469 8.61233 85.8469 8.757C85.8469 8.939 85.8982 9.09067 86.0009 9.212C86.1082 9.33333 86.2482 9.43833 86.4209 9.527C86.5935 9.61567 86.7895 9.695 87.0089 9.765C87.2282 9.83033 87.4522 9.90267 87.6809 9.982C87.9142 10.0567 88.1405 10.1407 88.3599 10.234C88.5792 10.3273 88.7752 10.444 88.9479 10.584C89.1205 10.724 89.2582 10.8967 89.3609 11.102C89.4682 11.3027 89.5219 11.5453 89.5219 11.83C89.5219 12.1567 89.4635 12.46 89.3469 12.74C89.2302 13.0153 89.0575 13.2557 88.8289 13.461C88.6002 13.6617 88.3202 13.8203 87.9889 13.937C87.6575 14.0537 87.2749 14.112 86.8409 14.112C86.3462 14.112 85.8982 14.0327 85.4969 13.874C85.0955 13.7107 84.7549 13.503 84.4749 13.251L84.7689 12.775C84.8062 12.7143 84.8505 12.6677 84.9019 12.635C84.9532 12.6023 85.0185 12.586 85.0979 12.586C85.1819 12.586 85.2705 12.6187 85.3639 12.684C85.4572 12.7493 85.5692 12.8217 85.6999 12.901C85.8352 12.9803 85.9985 13.0527 86.1899 13.118C86.3812 13.1833 86.6192 13.216 86.9039 13.216C87.1465 13.216 87.3589 13.1857 87.5409 13.125C87.7229 13.0597 87.8745 12.9733 87.9959 12.866C88.1172 12.7587 88.2059 12.635 88.2619 12.495C88.3225 12.355 88.3529 12.2057 88.3529 12.047C88.3529 11.851 88.2992 11.69 88.1919 11.564C88.0892 11.4333 87.9515 11.3237 87.7789 11.235C87.6062 11.1417 87.4079 11.0623 87.1839 10.997C86.9645 10.927 86.7382 10.8547 86.5049 10.78C86.2762 10.7053 86.0499 10.6213 85.8259 10.528C85.6065 10.43 85.4105 10.3087 85.2379 10.164C85.0652 10.0193 84.9252 9.842 84.8179 9.632C84.7152 9.41733 84.6639 9.15833 84.6639 8.855C84.6639 8.58433 84.7199 8.32533 84.8319 8.078C84.9439 7.826 85.1072 7.60667 85.3219 7.42C85.5365 7.22867 85.8002 7.077 86.1129 6.965C86.4255 6.853 86.7825 6.797 87.1839 6.797C87.6505 6.797 88.0682 6.87167 88.4369 7.021C88.8102 7.16567 89.1322 7.36633 89.4029 7.623L89.1229 8.078ZM95.8075 7.938C95.9615 7.76533 96.1249 7.609 96.2975 7.469C96.4702 7.329 96.6522 7.21 96.8435 7.112C97.0395 7.00933 97.2449 6.93233 97.4595 6.881C97.6789 6.825 97.9145 6.797 98.1665 6.797C98.5539 6.797 98.8945 6.86233 99.1885 6.993C99.4872 7.119 99.7345 7.301 99.9305 7.539C100.131 7.77233 100.283 8.05467 100.386 8.386C100.488 8.71733 100.54 9.08367 100.54 9.485V14H99.2865V9.485C99.2865 8.94833 99.1629 8.533 98.9155 8.239C98.6729 7.94033 98.3019 7.791 97.8025 7.791C97.4339 7.791 97.0885 7.87967 96.7665 8.057C96.4492 8.23433 96.1552 8.47467 95.8845 8.778V14H94.6315V6.909H95.3805C95.5579 6.909 95.6675 6.99533 95.7095 7.168L95.8075 7.938ZM105.427 6.797C105.945 6.797 106.412 6.88333 106.827 7.056C107.243 7.22867 107.597 7.47367 107.891 7.791C108.185 8.10833 108.409 8.49333 108.563 8.946C108.722 9.394 108.801 9.89567 108.801 10.451C108.801 11.011 108.722 11.515 108.563 11.963C108.409 12.411 108.185 12.7937 107.891 13.111C107.597 13.4283 107.243 13.6733 106.827 13.846C106.412 14.014 105.945 14.098 105.427 14.098C104.905 14.098 104.433 14.014 104.013 13.846C103.598 13.6733 103.243 13.4283 102.949 13.111C102.655 12.7937 102.429 12.411 102.27 11.963C102.116 11.515 102.039 11.011 102.039 10.451C102.039 9.89567 102.116 9.394 102.27 8.946C102.429 8.49333 102.655 8.10833 102.949 7.791C103.243 7.47367 103.598 7.22867 104.013 7.056C104.433 6.88333 104.905 6.797 105.427 6.797ZM105.427 13.125C106.127 13.125 106.65 12.8917 106.995 12.425C107.341 11.9537 107.513 11.298 107.513 10.458C107.513 9.61333 107.341 8.95533 106.995 8.484C106.65 8.01267 106.127 7.777 105.427 7.777C105.073 7.777 104.762 7.83767 104.496 7.959C104.235 8.08033 104.016 8.25533 103.838 8.484C103.666 8.71267 103.535 8.995 103.446 9.331C103.362 9.66233 103.32 10.038 103.32 10.458C103.32 11.298 103.493 11.9537 103.838 12.425C104.188 12.8917 104.718 13.125 105.427 13.125ZM127.065 3.969L123.936 14H122.718L120.177 6.349C120.154 6.27433 120.13 6.195 120.107 6.111C120.088 6.027 120.067 5.93833 120.044 5.845C120.021 5.93833 119.997 6.027 119.974 6.111C119.951 6.195 119.927 6.27433 119.904 6.349L117.349 14H116.131L113.002 3.969H114.129C114.25 3.969 114.351 3.99933 114.43 4.06C114.514 4.12067 114.568 4.19767 114.591 4.291L116.663 11.263C116.696 11.389 116.726 11.5243 116.754 11.669C116.787 11.8137 116.817 11.9677 116.845 12.131C116.878 11.9677 116.91 11.8137 116.943 11.669C116.98 11.5197 117.02 11.3843 117.062 11.263L119.421 4.291C119.449 4.21167 119.503 4.13933 119.582 4.074C119.666 4.004 119.766 3.969 119.883 3.969H120.275C120.396 3.969 120.494 3.99933 120.569 4.06C120.644 4.12067 120.7 4.19767 120.737 4.291L123.089 11.263C123.131 11.3843 123.168 11.515 123.201 11.655C123.238 11.795 123.273 11.942 123.306 12.096C123.329 11.942 123.355 11.795 123.383 11.655C123.411 11.515 123.441 11.3843 123.474 11.263L125.553 4.291C125.576 4.207 125.628 4.13233 125.707 4.067C125.791 4.00167 125.891 3.969 126.008 3.969H127.065ZM132.079 12.922C132.467 12.922 132.8 12.8777 133.08 12.789C133.36 12.7003 133.589 12.5767 133.766 12.418C133.948 12.2547 134.081 12.0633 134.165 11.844C134.249 11.62 134.291 11.375 134.291 11.109C134.291 10.591 134.107 10.1827 133.738 9.884C133.37 9.58067 132.817 9.429 132.079 9.429H129.909V12.922H132.079ZM129.909 5.04V8.463H131.701C132.084 8.463 132.415 8.421 132.695 8.337C132.98 8.253 133.213 8.13633 133.395 7.987C133.582 7.83767 133.72 7.658 133.808 7.448C133.897 7.23333 133.941 7 133.941 6.748C133.941 6.15533 133.764 5.72367 133.409 5.453C133.055 5.17767 132.504 5.04 131.757 5.04H129.909ZM131.757 3.969C132.373 3.969 132.903 4.02967 133.346 4.151C133.794 4.27233 134.161 4.445 134.445 4.669C134.735 4.893 134.947 5.16833 135.082 5.495C135.218 5.817 135.285 6.181 135.285 6.587C135.285 6.83433 135.246 7.07233 135.166 7.301C135.092 7.525 134.977 7.735 134.823 7.931C134.669 8.127 134.473 8.30433 134.235 8.463C134.002 8.617 133.727 8.743 133.409 8.841C134.147 8.981 134.7 9.24467 135.068 9.632C135.442 10.0147 135.628 10.5187 135.628 11.144C135.628 11.5687 135.549 11.956 135.39 12.306C135.236 12.656 135.008 12.957 134.704 13.209C134.406 13.461 134.037 13.657 133.598 13.797C133.16 13.9323 132.66 14 132.1 14H128.558V3.969H131.757ZM142.74 5.537C142.698 5.607 142.651 5.66067 142.6 5.698C142.553 5.73067 142.495 5.747 142.425 5.747C142.346 5.747 142.252 5.70733 142.145 5.628C142.038 5.54867 141.902 5.46233 141.739 5.369C141.58 5.271 141.387 5.18233 141.158 5.103C140.934 5.02367 140.661 4.984 140.339 4.984C140.036 4.984 139.767 5.026 139.534 5.11C139.305 5.18933 139.112 5.299 138.953 5.439C138.799 5.579 138.682 5.74467 138.603 5.936C138.524 6.12267 138.484 6.32567 138.484 6.545C138.484 6.825 138.552 7.05833 138.687 7.245C138.827 7.427 139.009 7.58333 139.233 7.714C139.462 7.84467 139.718 7.959 140.003 8.057C140.292 8.15033 140.586 8.24833 140.885 8.351C141.188 8.45367 141.482 8.57033 141.767 8.701C142.056 8.827 142.313 8.988 142.537 9.184C142.766 9.38 142.948 9.62033 143.083 9.905C143.223 10.1897 143.293 10.5397 143.293 10.955C143.293 11.3937 143.218 11.8067 143.069 12.194C142.92 12.5767 142.7 12.9103 142.411 13.195C142.126 13.4797 141.774 13.7037 141.354 13.867C140.939 14.0303 140.465 14.112 139.933 14.112C139.28 14.112 138.687 13.9953 138.155 13.762C137.623 13.524 137.168 13.2043 136.79 12.803L137.182 12.159C137.219 12.1077 137.264 12.0657 137.315 12.033C137.371 11.9957 137.432 11.977 137.497 11.977C137.558 11.977 137.625 12.0027 137.7 12.054C137.779 12.1007 137.868 12.1613 137.966 12.236C138.064 12.3107 138.176 12.3923 138.302 12.481C138.428 12.5697 138.57 12.6513 138.729 12.726C138.892 12.8007 139.077 12.8637 139.282 12.915C139.487 12.9617 139.718 12.985 139.975 12.985C140.297 12.985 140.584 12.9407 140.836 12.852C141.088 12.7633 141.3 12.6397 141.473 12.481C141.65 12.3177 141.786 12.124 141.879 11.9C141.972 11.676 142.019 11.4263 142.019 11.151C142.019 10.8477 141.949 10.6003 141.809 10.409C141.674 10.213 141.494 10.0497 141.27 9.919C141.046 9.78833 140.789 9.67867 140.5 9.59C140.211 9.49667 139.917 9.40333 139.618 9.31C139.319 9.212 139.025 9.1 138.736 8.974C138.447 8.848 138.19 8.68467 137.966 8.484C137.742 8.28333 137.56 8.03367 137.42 7.735C137.285 7.43167 137.217 7.05833 137.217 6.615C137.217 6.26033 137.285 5.91733 137.42 5.586C137.56 5.25467 137.761 4.96067 138.022 4.704C138.288 4.44733 138.612 4.242 138.995 4.088C139.382 3.934 139.826 3.857 140.325 3.857C140.885 3.857 141.394 3.94567 141.851 4.123C142.313 4.30033 142.719 4.557 143.069 4.893L142.74 5.537ZM148.499 14V6.909H149.248C149.425 6.909 149.535 6.99533 149.577 7.168L149.668 7.896C149.929 7.574 150.223 7.31033 150.55 7.105C150.876 6.89967 151.254 6.797 151.684 6.797C152.16 6.797 152.545 6.93 152.839 7.196C153.137 7.462 153.352 7.82133 153.483 8.274C153.585 8.01733 153.716 7.79567 153.875 7.609C154.038 7.42233 154.22 7.26833 154.421 7.147C154.621 7.02567 154.834 6.937 155.058 6.881C155.286 6.825 155.517 6.797 155.751 6.797C156.124 6.797 156.455 6.85767 156.745 6.979C157.039 7.09567 157.286 7.26833 157.487 7.497C157.692 7.72567 157.848 8.008 157.956 8.344C158.063 8.67533 158.117 9.05567 158.117 9.485V14H156.864V9.485C156.864 8.92967 156.742 8.50967 156.5 8.225C156.257 7.93567 155.907 7.791 155.45 7.791C155.244 7.791 155.048 7.82833 154.862 7.903C154.68 7.973 154.519 8.078 154.379 8.218C154.239 8.358 154.127 8.53533 154.043 8.75C153.963 8.96 153.924 9.205 153.924 9.485V14H152.671V9.485C152.671 8.91567 152.556 8.491 152.328 8.211C152.099 7.931 151.765 7.791 151.327 7.791C151.019 7.791 150.734 7.875 150.473 8.043C150.211 8.20633 149.971 8.43033 149.752 8.715V14H148.499ZM163.853 10.808C163.279 10.8267 162.789 10.8733 162.383 10.948C161.982 11.018 161.653 11.1113 161.396 11.228C161.144 11.3447 160.96 11.4823 160.843 11.641C160.731 11.7997 160.675 11.977 160.675 12.173C160.675 12.3597 160.706 12.5207 160.766 12.656C160.827 12.7913 160.909 12.9033 161.011 12.992C161.119 13.076 161.242 13.139 161.382 13.181C161.527 13.2183 161.681 13.237 161.844 13.237C162.064 13.237 162.264 13.216 162.446 13.174C162.628 13.1273 162.799 13.062 162.957 12.978C163.121 12.894 163.275 12.7937 163.419 12.677C163.569 12.5603 163.713 12.4273 163.853 12.278V10.808ZM159.828 7.91C160.22 7.532 160.643 7.24967 161.095 7.063C161.548 6.87633 162.05 6.783 162.6 6.783C162.997 6.783 163.349 6.84833 163.657 6.979C163.965 7.10967 164.224 7.29167 164.434 7.525C164.644 7.75833 164.803 8.04067 164.91 8.372C165.018 8.70333 165.071 9.06733 165.071 9.464V14H164.518C164.397 14 164.304 13.9813 164.238 13.944C164.173 13.902 164.122 13.8227 164.084 13.706L163.944 13.034C163.758 13.2067 163.576 13.3607 163.398 13.496C163.221 13.6267 163.034 13.7387 162.838 13.832C162.642 13.9207 162.432 13.9883 162.208 14.035C161.989 14.0863 161.744 14.112 161.473 14.112C161.198 14.112 160.939 14.0747 160.696 14C160.454 13.9207 160.241 13.804 160.059 13.65C159.882 13.496 159.74 13.3023 159.632 13.069C159.53 12.831 159.478 12.551 159.478 12.229C159.478 11.949 159.555 11.6807 159.709 11.424C159.863 11.1627 160.113 10.9317 160.458 10.731C160.804 10.5303 161.254 10.367 161.809 10.241C162.365 10.1103 163.046 10.0357 163.853 10.017V9.464C163.853 8.91333 163.734 8.498 163.496 8.218C163.258 7.93333 162.911 7.791 162.453 7.791C162.145 7.791 161.886 7.83067 161.676 7.91C161.471 7.98467 161.291 8.071 161.137 8.169C160.988 8.26233 160.857 8.34867 160.745 8.428C160.638 8.50267 160.531 8.54 160.423 8.54C160.339 8.54 160.267 8.519 160.206 8.477C160.146 8.43033 160.094 8.37433 160.052 8.309L159.828 7.91ZM168.222 12.292C168.451 12.6 168.701 12.817 168.971 12.943C169.242 13.069 169.545 13.132 169.881 13.132C170.544 13.132 171.053 12.8963 171.407 12.425C171.762 11.9537 171.939 11.2817 171.939 10.409C171.939 9.947 171.897 9.55033 171.813 9.219C171.734 8.88767 171.617 8.617 171.463 8.407C171.309 8.19233 171.12 8.036 170.896 7.938C170.672 7.84 170.418 7.791 170.133 7.791C169.727 7.791 169.37 7.88433 169.062 8.071C168.759 8.25767 168.479 8.52133 168.222 8.862V12.292ZM168.159 8.008C168.458 7.63933 168.803 7.343 169.195 7.119C169.587 6.895 170.035 6.783 170.539 6.783C170.95 6.783 171.321 6.86233 171.652 7.021C171.984 7.175 172.266 7.406 172.499 7.714C172.733 8.01733 172.912 8.39533 173.038 8.848C173.164 9.30067 173.227 9.821 173.227 10.409C173.227 10.9317 173.157 11.4193 173.017 11.872C172.877 12.32 172.674 12.7097 172.408 13.041C172.147 13.3677 171.825 13.6267 171.442 13.818C171.064 14.0047 170.637 14.098 170.161 14.098C169.727 14.098 169.354 14.0257 169.041 13.881C168.733 13.7317 168.46 13.5263 168.222 13.265V16.401H166.969V6.909H167.718C167.896 6.909 168.005 6.99533 168.047 7.168L168.159 8.008ZM176.07 12.292C176.299 12.6 176.548 12.817 176.819 12.943C177.09 13.069 177.393 13.132 177.729 13.132C178.392 13.132 178.9 12.8963 179.255 12.425C179.61 11.9537 179.787 11.2817 179.787 10.409C179.787 9.947 179.745 9.55033 179.661 9.219C179.582 8.88767 179.465 8.617 179.311 8.407C179.157 8.19233 178.968 8.036 178.744 7.938C178.52 7.84 178.266 7.791 177.981 7.791C177.575 7.791 177.218 7.88433 176.91 8.071C176.607 8.25767 176.327 8.52133 176.07 8.862V12.292ZM176.007 8.008C176.306 7.63933 176.651 7.343 177.043 7.119C177.435 6.895 177.883 6.783 178.387 6.783C178.798 6.783 179.169 6.86233 179.5 7.021C179.831 7.175 180.114 7.406 180.347 7.714C180.58 8.01733 180.76 8.39533 180.886 8.848C181.012 9.30067 181.075 9.821 181.075 10.409C181.075 10.9317 181.005 11.4193 180.865 11.872C180.725 12.32 180.522 12.7097 180.256 13.041C179.995 13.3677 179.673 13.6267 179.29 13.818C178.912 14.0047 178.485 14.098 178.009 14.098C177.575 14.098 177.202 14.0257 176.889 13.881C176.581 13.7317 176.308 13.5263 176.07 13.265V16.401H174.817V6.909H175.566C175.743 6.909 175.853 6.99533 175.895 7.168L176.007 8.008ZM187.411 9.681C187.411 9.39167 187.369 9.128 187.285 8.89C187.205 8.64733 187.086 8.43967 186.928 8.267C186.774 8.08967 186.585 7.95433 186.361 7.861C186.137 7.763 185.882 7.714 185.598 7.714C185 7.714 184.527 7.889 184.177 8.239C183.831 8.58433 183.617 9.065 183.533 9.681H187.411ZM188.419 13.006C188.265 13.1927 188.08 13.356 187.866 13.496C187.651 13.6313 187.42 13.7433 187.173 13.832C186.93 13.9207 186.678 13.986 186.417 14.028C186.155 14.0747 185.896 14.098 185.64 14.098C185.15 14.098 184.697 14.0163 184.282 13.853C183.871 13.685 183.514 13.4423 183.211 13.125C182.912 12.803 182.679 12.4063 182.511 11.935C182.343 11.4637 182.259 10.9223 182.259 10.311C182.259 9.81633 182.333 9.35433 182.483 8.925C182.637 8.49567 182.856 8.12467 183.141 7.812C183.425 7.49467 183.773 7.24733 184.184 7.07C184.594 6.888 185.056 6.797 185.57 6.797C185.994 6.797 186.386 6.86933 186.746 7.014C187.11 7.154 187.422 7.35933 187.684 7.63C187.95 7.896 188.157 8.22733 188.307 8.624C188.456 9.016 188.531 9.464 188.531 9.968C188.531 10.164 188.51 10.2947 188.468 10.36C188.426 10.4253 188.346 10.458 188.23 10.458H183.491C183.505 10.906 183.565 11.2957 183.673 11.627C183.785 11.9583 183.939 12.236 184.135 12.46C184.331 12.6793 184.564 12.845 184.835 12.957C185.105 13.0643 185.409 13.118 185.745 13.118C186.057 13.118 186.326 13.083 186.55 13.013C186.778 12.9383 186.974 12.859 187.138 12.775C187.301 12.691 187.436 12.614 187.544 12.544C187.656 12.4693 187.751 12.432 187.831 12.432C187.933 12.432 188.013 12.4717 188.069 12.551L188.419 13.006ZM194.681 8.596C194.448 8.28333 194.196 8.06633 193.925 7.945C193.655 7.819 193.351 7.756 193.015 7.756C192.357 7.756 191.851 7.99167 191.496 8.463C191.142 8.93433 190.964 9.60633 190.964 10.479C190.964 10.941 191.004 11.3377 191.083 11.669C191.163 11.9957 191.279 12.2663 191.433 12.481C191.587 12.691 191.776 12.845 192 12.943C192.224 13.041 192.479 13.09 192.763 13.09C193.174 13.09 193.531 12.9967 193.834 12.81C194.142 12.6233 194.425 12.3597 194.681 12.019V8.596ZM195.927 3.689V14H195.185C195.008 14 194.896 13.9137 194.849 13.741L194.737 12.88C194.434 13.244 194.089 13.538 193.701 13.762C193.314 13.986 192.866 14.098 192.357 14.098C191.951 14.098 191.583 14.021 191.251 13.867C190.92 13.7083 190.638 13.4773 190.404 13.174C190.171 12.8707 189.991 12.4927 189.865 12.04C189.739 11.5873 189.676 11.067 189.676 10.479C189.676 9.95633 189.746 9.471 189.886 9.023C190.026 8.57033 190.227 8.17833 190.488 7.847C190.75 7.51567 191.069 7.25667 191.447 7.07C191.83 6.87867 192.259 6.783 192.735 6.783C193.169 6.783 193.54 6.85767 193.848 7.007C194.161 7.15167 194.439 7.35467 194.681 7.616V3.689H195.927Z" fill="#395174"/>
<g clip-path="url(#clip0_452_70683)">
<path d="M151.726 92.5013H87.3256C85.858 92.5031 84.4511 93.0761 83.4134 94.0947C82.3756 95.1134 81.7919 96.4944 81.7901 97.935V238.431L81.052 238.652L65.2536 243.401C64.5049 243.625 63.6962 243.548 63.005 243.187C62.3138 242.827 61.7967 242.212 61.5671 241.477L14.5741 90.8024C14.3454 90.0675 14.4234 89.2734 14.7908 88.5949C15.1583 87.9163 15.7852 87.4087 16.5337 87.1836L40.879 79.8663L111.457 58.6607L135.802 51.3434C136.172 51.2314 136.562 51.1923 136.948 51.2283C137.334 51.2642 137.708 51.3745 138.051 51.5528C138.393 51.7312 138.697 51.974 138.943 52.2675C139.19 52.561 139.375 52.8994 139.489 53.2633L151.501 91.7768L151.726 92.5013Z" fill="#F2F2F2"/>
<path d="M165.778 91.7769L151.301 45.3591C151.06 44.5857 150.666 43.8665 150.142 43.2425C149.618 42.6186 148.973 42.1021 148.246 41.7226C147.518 41.3432 146.722 41.1081 145.901 41.031C145.081 40.9539 144.254 41.0361 143.466 41.2731L109.238 51.5571L38.664 72.7664L4.43603 83.0541C2.84598 83.5333 1.51461 84.6123 0.734151 86.0541C-0.0463051 87.4959 -0.212085 89.1828 0.273207 90.7445L49.7534 249.381C50.1476 250.642 50.9431 251.745 52.023 252.529C53.103 253.314 54.4106 253.738 55.754 253.739C56.3757 253.739 56.994 253.648 57.588 253.467L81.0512 246.418L81.7893 246.193V245.436L81.0512 245.657L57.3703 252.775C55.9668 253.195 54.4509 253.052 53.1551 252.376C51.8593 251.7 50.8895 250.548 50.4583 249.171L0.981905 90.5307C0.768267 89.8486 0.693808 89.1318 0.76279 88.4214C0.831772 87.711 1.04283 87.0209 1.3839 86.3907C1.72497 85.7604 2.18935 85.2024 2.75043 84.7486C3.31151 84.2948 3.95827 83.9541 4.65369 83.7459L38.8816 73.4583L109.456 52.2526L143.684 41.9649C144.211 41.8069 144.76 41.7264 145.311 41.7259C146.495 41.7285 147.646 42.103 148.597 42.7946C149.548 43.4862 150.249 44.4586 150.596 45.5692L165.007 91.7769L165.235 92.5013H166.003L165.778 91.7769Z" fill="#3F3D56"/>
<path d="M45.2721 87.302C44.5608 87.3015 43.8684 87.0773 43.2965 86.6622C42.7245 86.2471 42.3032 85.6631 42.0942 84.9957L37.3409 69.7555C37.2132 69.3462 37.1688 68.9161 37.2105 68.4899C37.2521 68.0637 37.3788 67.6497 37.5835 67.2716C37.7881 66.8935 38.0666 66.5587 38.4031 66.2863C38.7395 66.0138 39.1274 65.8091 39.5445 65.6838L104.472 46.1721C105.314 45.9198 106.224 46.0059 107.002 46.4114C107.78 46.8169 108.362 47.5087 108.62 48.335L113.374 63.5753C113.63 64.4021 113.543 65.2951 113.13 66.0585C112.716 66.8218 112.012 67.3932 111.17 67.6472L46.2424 87.1589C45.928 87.2536 45.601 87.3018 45.2721 87.302Z" fill="#112D57"/>
<path d="M70.1697 57.2844C74.246 57.2844 77.5504 54.0407 77.5504 50.0395C77.5504 46.0383 74.246 42.7947 70.1697 42.7947C66.0935 42.7947 62.7891 46.0383 62.7891 50.0395C62.7891 54.0407 66.0935 57.2844 70.1697 57.2844Z" fill="#112D57"/>
<path d="M70.1737 54.6272C72.7549 54.6272 74.8474 52.5733 74.8474 50.0396C74.8474 47.5059 72.7549 45.4519 70.1737 45.4519C67.5925 45.4519 65.5 47.5059 65.5 50.0396C65.5 52.5733 67.5925 54.6272 70.1737 54.6272Z" fill="white"/>
<path d="M222.394 251.888H97.6602C96.8286 251.887 96.0313 251.562 95.4432 250.985C94.8552 250.408 94.5244 249.625 94.5234 248.809V102.101C94.5244 101.284 94.8551 100.502 95.4432 99.9246C96.0313 99.3473 96.8286 99.0226 97.6602 99.0217H222.394C223.225 99.0227 224.023 99.3474 224.611 99.9246C225.199 100.502 225.53 101.284 225.531 102.101V248.809C225.53 249.625 225.199 250.408 224.611 250.985C224.023 251.562 223.225 251.887 222.394 251.888Z" fill="#E6E6E6"/>
<path d="M165.01 91.7769H87.3283C85.6651 91.7792 84.0708 92.4287 82.8948 93.5831C81.7188 94.7375 81.057 96.3024 81.0547 97.935V245.657L81.7928 245.436V97.935C81.7945 96.4944 82.3783 95.1134 83.416 94.0947C84.4538 93.0761 85.8607 92.5031 87.3283 92.5013H165.239L165.01 91.7769ZM232.728 91.7769H87.3283C85.6651 91.7792 84.0708 92.4287 82.8948 93.5831C81.7188 94.7375 81.057 96.3024 81.0547 97.935V263.842C81.057 265.474 81.7188 267.039 82.8948 268.194C84.0708 269.348 85.6651 269.998 87.3283 270H232.728C234.391 269.998 235.985 269.348 237.161 268.194C238.337 267.039 238.999 265.474 239.001 263.842V97.935C238.999 96.3024 238.337 94.7375 237.161 93.5831C235.985 92.4287 234.391 91.7792 232.728 91.7769ZM238.263 263.842C238.262 265.282 237.678 266.663 236.64 267.682C235.602 268.701 234.195 269.274 232.728 269.275H87.3283C85.8607 269.274 84.4538 268.701 83.416 267.682C82.3783 266.663 81.7945 265.282 81.7928 263.842V97.935C81.7945 96.4944 82.3783 95.1134 83.416 94.0947C84.4538 93.0761 85.8607 92.5031 87.3283 92.5013H232.728C234.195 92.5031 235.602 93.0761 236.64 94.0947C237.678 95.1134 238.262 96.4944 238.263 97.935V263.842Z" fill="#3F3D56"/>
<path d="M193.981 107.716H126.079C125.199 107.715 124.354 107.371 123.732 106.76C123.109 106.148 122.759 105.32 122.758 104.455V88.5168C122.759 87.6524 123.109 86.8237 123.732 86.2126C124.354 85.6014 125.199 85.2576 126.079 85.2566H193.981C194.862 85.2576 195.706 85.6014 196.329 86.2126C196.952 86.8237 197.302 87.6524 197.303 88.5168V104.455C197.302 105.32 196.952 106.148 196.329 106.76C195.706 107.371 194.862 107.715 193.981 107.716Z" fill="#112D57"/>
<path d="M160.029 86.3432C164.105 86.3432 167.41 83.0996 167.41 79.0984C167.41 75.0971 164.105 71.8535 160.029 71.8535C155.953 71.8535 152.648 75.0971 152.648 79.0984C152.648 83.0996 155.953 86.3432 160.029 86.3432Z" fill="#112D57"/>
<path d="M160.027 83.5111C162.51 83.5111 164.522 81.5354 164.522 79.0983C164.522 76.6612 162.51 74.6855 160.027 74.6855C157.544 74.6855 155.531 76.6612 155.531 79.0983C155.531 81.5354 157.544 83.5111 160.027 83.5111Z" fill="white"/>
</g>
<defs>
<clipPath id="clip0_452_70683">
<rect width="239" height="229" fill="white" transform="translate(0 41)"/>
</clipPath>
</defs>
</svg>
