<svg width="36" height="48" viewBox="0 0 36 48" fill="none" xmlns="http://www.w3.org/2000/svg">
<path d="M36 48H0V0H22.7588C23.5533 0.000368253 24.3153 0.315953 24.8775 0.8775L35.1225 11.4975C35.684 12.0597 35.9996 12.8217 36 13.6163V48Z" fill="#D4E2E8"/>
<path d="M24.8775 0.8775C24.3153 0.315953 23.5533 0.000368253 22.7588 0L19.5 0C20.2956 0 21.0587 0.316071 21.6213 0.87868C22.1839 1.44129 22.5 2.20435 22.5 3V12C22.5 12.7956 22.8161 13.5587 23.3787 14.1213C23.9413 14.6839 24.7044 15 25.5 15H33C33.7956 15 34.5587 15.3161 35.1213 15.8787C35.6839 16.4413 36 17.2044 36 18V15.1163C36 14.3213 35.685 12.06 35.1225 11.4975L24.8775 0.8775Z" fill="#B0C5CC"/>
<path d="M24.8775 0.8775C24.3153 0.315953 23.5533 0.000368253 22.7588 0L21 0C21.7956 0 22.5587 0.316071 23.1213 0.87868C23.6839 1.44129 24 2.20435 24 3V9C24 9.79565 24.3161 10.5587 24.8787 11.1213C25.4413 11.6839 26.2044 12 27 12H33C33.7956 12 34.5587 12.3161 35.1213 12.8787C35.6839 13.4413 36 14.2044 36 15V13.6163C35.9996 12.8217 35.684 12.0597 35.1225 11.4975L24.8775 0.8775Z" fill="#0062FF"/>
</svg>
