<svg width="48" height="48" viewBox="0 0 48 48" fill="none" xmlns="http://www.w3.org/2000/svg">
<path d="M17.5312 8.18125C17.5312 7.24375 16.7719 6.48438 15.8344 6.48438H1.88437C0.946875 6.49375 0.1875 7.25313 0.1875 8.18125V39.8031C0.1875 40.7406 0.946875 41.5 1.88437 41.5H39.45C40.3875 41.5 41.1469 40.7406 41.1469 39.8031V11.575C41.1469 10.6375 40.3875 9.87813 39.45 9.87813H19.2281C18.2906 9.87813 17.5312 9.11875 17.5312 8.18125Z" fill="#FDC77C"/>
<path d="M39.45 9.87656H19.2281C18.2906 9.87656 17.5312 9.11719 17.5312 8.17969C17.5312 7.24219 16.7812 6.49219 15.8438 6.49219H1.88438C0.946875 6.49219 0.1875 7.25156 0.1875 8.17969V9.04219C0.1875 8.10469 0.946875 7.34531 1.88438 7.34531H15.8438C16.7812 7.34531 17.5406 8.10469 17.5406 9.04219C17.5406 9.97969 18.3 10.7391 19.2375 10.7391H39.4594C40.3969 10.7391 41.1562 11.4984 41.1562 12.4359V11.5734C41.1469 10.6359 40.3875 9.87656 39.45 9.87656Z" fill="#FBD984"/>
<path d="M30.6177 15.9L30.6271 15.8719C30.8427 15.1125 31.5458 14.5781 32.324 14.5781H46.1802C47.2771 14.5781 48.0458 15.6094 47.7458 16.6781L41.0521 40.2094C40.8365 40.9687 40.1333 41.5031 39.3552 41.5031H1.89271C0.79584 41.5031 0.0270901 40.4719 0.32709 39.4031L6.28021 18.4781C6.49584 17.7187 7.19896 17.1844 7.97709 17.1844H28.9302C29.699 17.1937 30.4021 16.6594 30.6177 15.9Z" fill="#FBD984"/>
<path d="M0.319752 40.1437L6.27288 19.2187C6.4885 18.4594 7.19163 17.925 7.96976 17.925H28.9229C29.701 17.925 30.4041 17.3906 30.6198 16.6312L30.6291 16.6031C30.8448 15.8438 31.5479 15.3094 32.326 15.3094H46.1823C46.9791 15.3094 47.5979 15.8531 47.7666 16.5656C47.9916 15.5344 47.2416 14.5781 46.1823 14.5781H32.326C31.5479 14.5781 30.8448 15.1125 30.6291 15.8719L30.6198 15.9C30.4041 16.6594 29.701 17.1937 28.9229 17.1937H7.96976C7.19163 17.1937 6.4885 17.7281 6.27288 18.4875L0.319752 39.4125C0.235377 39.7031 0.235377 39.9937 0.301002 40.2562C0.310377 40.2187 0.310377 40.1812 0.319752 40.1437Z" fill="#FFE4A9"/>
</svg>
