<svg width="102" height="98" viewBox="0 0 102 98" fill="none" xmlns="http://www.w3.org/2000/svg">
<path d="M27.1218 38.5382C25.0982 37.2938 22.7836 36.8767 20.6156 37.3602C18.1703 37.9034 16.1147 39.5396 14.6755 42.0835C5.37569 56.7757 1.88312 68.7315 1.88312 68.7315C0.0130776 73.386 0.966432 76.8901 1.87624 78.3797C3.1871 80.527 5.5957 81.7783 8.167 81.6477C8.4718 81.6316 8.77201 81.5995 9.06765 81.5468C11.7742 81.0725 14.1323 79.0947 15.4982 76.1063L30.3898 51.1953L30.4127 51.1541C33.2292 45.6058 30.6808 40.7245 27.1218 38.5382Z" fill="#364549"/>
<path d="M47.9284 38.5382C49.952 37.2938 52.2666 36.8767 54.4346 37.3602C56.8799 37.9034 58.9355 39.5396 60.3747 42.0834C69.6745 56.7757 73.1671 68.7315 73.1671 68.7315C75.0371 73.386 79.3501 74.7198 79.3501 74.7198C79.3501 74.7198 71.517 80.3666 70.3758 80.9304C69.3193 81.4529 68.1184 81.7095 66.8832 81.6477C66.5784 81.6316 66.2782 81.5995 65.9826 81.5468C63.276 81.0724 60.9179 79.0947 59.552 76.1063L44.6604 51.1953L44.6375 51.1541C41.821 45.6058 44.3694 40.7245 47.9284 38.5382Z" fill="#6C78B8"/>
<path d="M43.2803 39.7967C43.2803 44.6277 34.5144 43.9631 31.4688 39.0061V23.2734H43.2803V39.7967Z" fill="#D9935C"/>
<path d="M31.4047 24.4927C28.7303 19.2263 27.9877 6.19105 33.442 5.96875L49.7934 6.61502C49.7934 6.61502 51.9751 7.49045 49.7544 17.1615L31.4047 24.4927Z" fill="#070908"/>
<path d="M31.4688 24.5117C32.1036 25.9417 32.9698 27.3076 33.9392 28.5222C35.862 30.9377 38.2293 32.1912 41.3048 32.3356C43.5782 32.441 45.7049 31.8773 47.2518 30.0966C50.341 26.5467 50.0294 21.9289 50.0546 17.4921C50.0706 14.5817 50.05 11.6689 49.9927 8.75841L37.0055 5.6875L33.8865 7.46817L32.0669 10.892L31.5008 14.5771L31.4688 24.5117Z" fill="#D9935C"/>
<path d="M32.2907 19.0232C34.2844 18.6015 34.674 13.4956 34.9513 9.64093C34.9513 9.64093 42.8325 12.4781 49.8658 9.69822C51.9146 9.7326 46.0891 -0.793261 30.9523 7.34692L30.8125 17.018L32.2907 19.0232Z" fill="#070908"/>
<path d="M32.5733 17.7295C32.5527 17.6974 32.5321 17.6653 32.5114 17.6355C32.2823 17.2986 31.9981 16.9755 31.6452 16.7715C30.8981 16.3453 30.0662 16.4851 29.3649 16.9434C26.5484 19.022 29.2274 25.1294 32.2914 24.4763C33.5244 23.9675 33.8384 22.6727 33.7238 21.4329C33.6161 20.232 33.2379 18.7539 32.5733 17.7295Z" fill="#D9935C"/>
<path d="M36.6091 30.941C38.4997 32.0525 40.6402 32.6117 43.2803 32.2427V34.2824C38.5524 34.0165 36.6091 30.941 36.6091 30.941ZM46.4795 16.6614C46.7178 16.4849 46.9837 16.3474 47.2678 16.242C47.5497 16.1366 47.8522 16.0724 48.1616 16.0586C48.7781 16.022 49.4312 16.242 49.846 16.6866C49.8781 16.7209 49.8758 16.7759 49.8414 16.808C49.8162 16.8309 49.7819 16.8355 49.7521 16.8264C49.4816 16.7278 49.2273 16.6384 48.9637 16.588C48.7048 16.533 48.4412 16.5124 48.1754 16.517C47.9095 16.5238 47.6414 16.5605 47.371 16.6155C47.1005 16.6705 46.8301 16.7439 46.5505 16.8149C46.5047 16.8264 46.4589 16.7989 46.4451 16.753C46.4382 16.7164 46.452 16.682 46.4795 16.6614ZM33.1715 23.8253C33.0248 24.9551 32.4473 25.5028 31.4688 25.5028V24.4921" fill="#070908"/>
<path d="M28.1758 15.3743H37.872L43.0169 17.0724C45.1574 17.6522 54.3082 17.3291 54.8491 16.7516C55.2455 16.2795 53.9026 15.2574 52.8919 14.7647V12.4409H52.2503C52.2503 12.4409 50.9119 0.890625 40.0812 0.890625C30.1948 0.890625 28.8175 12.2117 28.8175 12.2117H28.1758V15.3743Z" fill="#EC8117"/>
<path d="M31.5928 34.2812C31.5928 34.2812 18.8692 35.5486 15.3972 41.0051C14.5562 45.1257 15.3972 97.2485 15.3972 97.2485H56.8613C56.8613 97.2485 61.722 45.8407 59.9367 41.0051C58.1515 36.1696 43.2828 34.6823 43.2828 34.6823C41.328 40.0403 37.0173 38.6309 31.5928 34.2812Z" fill="#364549"/>
<path d="M40.2011 39.9023C40.4201 39.9023 40.5976 39.7248 40.5976 39.5058C40.5976 39.2869 40.4201 39.1094 40.2011 39.1094C39.9822 39.1094 39.8047 39.2869 39.8047 39.5058C39.8047 39.7248 39.9822 39.9023 40.2011 39.9023Z" fill="#171D1E"/>
<path d="M40.2011 51.0664C40.4201 51.0664 40.5976 50.8889 40.5976 50.6699C40.5976 50.4509 40.4201 50.2734 40.2011 50.2734C39.9822 50.2734 39.8047 50.4509 39.8047 50.6699C39.8047 50.8889 39.9822 51.0664 40.2011 51.0664Z" fill="#171D1E"/>
<path d="M40.2011 62.2226C40.4201 62.2226 40.5976 62.0451 40.5976 61.8262C40.5976 61.6072 40.4201 61.4297 40.2011 61.4297C39.9822 61.4297 39.8047 61.6072 39.8047 61.8262C39.8047 62.0451 39.9822 62.2226 40.2011 62.2226Z" fill="white"/>
<path d="M40.2011 73.3945C40.4201 73.3945 40.5976 73.217 40.5976 72.998C40.5976 72.7791 40.4201 72.6016 40.2011 72.6016C39.9822 72.6016 39.8047 72.7791 39.8047 72.998C39.8047 73.217 39.9822 73.3945 40.2011 73.3945Z" fill="white"/>
<path d="M40.2011 84.5508C40.4201 84.5508 40.5976 84.3733 40.5976 84.1543C40.5976 83.9353 40.4201 83.7578 40.2011 83.7578C39.9822 83.7578 39.8047 83.9353 39.8047 84.1543C39.8047 84.3733 39.9822 84.5508 40.2011 84.5508Z" fill="#171D1E"/>
<path d="M40.2011 95.707C40.4201 95.707 40.5976 95.5295 40.5976 95.3105C40.5976 95.0916 40.4201 94.9141 40.2011 94.9141C39.9822 94.9141 39.8047 95.0916 39.8047 95.3105C39.8047 95.5295 39.9822 95.707 40.2011 95.707Z" fill="#171D1E"/>
<path d="M35.0449 48.9389L28.5044 34.5469C23.5176 35.184 16.7891 37.1663 14.5547 41.4106C14.5547 41.4106 19.5323 48.2055 14.8664 68.0243C15.0634 82.6019 15.3935 97.2414 15.3935 97.2414H36.8508V57.2876C36.8531 54.4069 36.2366 51.5606 35.0449 48.9389ZM59.9352 40.6726C58.15 35.8371 45.6808 34.815 45.6808 34.815C45.227 38.6353 43.4349 52.2343 43.4349 52.2343V97.2437H58.2004C58.2004 97.2414 61.7205 45.5059 59.9352 40.6726Z" fill="#055EC9"/>
<path d="M34.3667 90.389C28.0278 90.4051 21.6522 90.1713 15.2377 89.7038C15.2652 91.0742 15.2904 92.2636 15.3088 93.2285C21.5514 93.6753 27.9063 93.8931 34.3667 93.9022V90.389ZM45.8298 90.3569V93.8747C50.1956 93.8128 54.4215 93.6112 58.4641 93.2285C58.5259 92.2636 58.5993 91.0765 58.6841 89.7038C54.3115 90.0842 50.026 90.3042 45.8298 90.3569ZM34.3667 83.5185C27.778 83.4978 21.3566 83.2801 15.1094 82.8516L15.1713 86.2502C21.5949 86.6719 27.9957 86.8987 34.3667 86.9194V83.5185ZM45.8298 83.468V86.9033C50.2162 86.8506 54.5727 86.6352 58.8949 86.2502C58.943 85.5306 59.0393 83.8576 59.0943 82.8516C54.5498 83.1518 50.1268 83.358 45.8298 83.468Z" fill="#00398C"/>
<path d="M31.4701 31.1406L29.6367 34.5461C29.6367 34.5461 33.1958 40.6971 36.9083 42.4411L40.1053 38.0662C35.6525 35.6736 32.3295 33.3819 31.4701 31.1406Z" fill="#171D1E"/>
<path d="M41.2695 39.4609H41.4414V97.2443H41.2695" fill="#171D1E"/>
<path d="M39.1351 39.5078H38.9609V97.2453H39.1351V39.5078Z" fill="#171D1E"/>
<path d="M40.1055 38.0706C41.5882 37.3808 42.6791 36.3358 43.2818 34.6812V32.8203L44.5354 34.8531C44.7095 37.5 44.0014 39.4709 42.7226 41.0017C41.8793 39.9109 41.0199 38.875 40.1055 38.0706Z" fill="#171D1E"/>
<path d="M88.0913 77.5706H34.7539L48.4125 32.8203H101.75L88.0913 77.5706Z" fill="#CCC8C6"/>
<path d="M57.7625 72.6647H42.6211L44.0649 67.9323H59.2062L57.7625 72.6647ZM84.9514 72.6647H72.8145L73.4126 70.7053H85.5518L84.9514 72.6647ZM61.388 46.75L56.8504 61.6164H83.2166L87.7542 46.75" fill="#E8E8E8"/>
<path d="M88.1552 77.6569H75.5508V77.4827H88.0269L90.7517 68.5312L90.9167 68.5817L88.1552 77.6569Z" fill="#070908"/>
<path d="M95.5702 37.4375H70.4141V37.6117H95.5702V37.4375Z" fill="#E8E8E8"/>
<path d="M94.6697 40.3438V40.5179H76.8516V40.3438" fill="#E8E8E8"/>
<path d="M95.2352 54.1797L94.7379 55.8274C94.4629 55.6556 94.1398 55.5135 93.6333 55.3255C93.6333 55.3255 90.8855 54.1568 89.8588 55.6762C88.8321 57.1956 88.3051 61.3184 88.784 63.0463C89.263 64.7743 92.0039 65.7941 92.0039 65.7941C95.1619 67.0477 98.2901 55.4401 95.2352 54.1797Z" fill="#D9935C"/>
<path d="M31.6367 57.8285C32.9911 56.2013 37.1322 52.3604 42.465 52.2344L41.6813 54.8171C41.6813 54.8171 48.3662 54.8286 48.5977 56.5932C48.8291 58.3601 47.4541 62.1231 46.2532 63.3836C45.0524 64.644 35.3218 67.1397 35.3218 67.1397C30.2662 67.9326 27.1816 63.1704 31.6367 57.8285Z" fill="#D9935C"/>
<path d="M12.8572 80.6227C20.931 77.1416 28.9015 72.6086 36.7873 67.207L31.4683 57.0547C21.7331 59.6077 13.162 62.6579 5.8973 66.2674C-4.28021 70.97 2.2466 85.6599 12.8572 80.6227Z" fill="#364549"/>
<path d="M35.1523 66.7715C35.1523 66.9915 34.9736 67.1679 34.7558 67.1679C34.5358 67.1679 34.3594 66.9892 34.3594 66.7715C34.3594 66.5515 34.5381 66.375 34.7558 66.375C34.9758 66.375 35.1523 66.5515 35.1523 66.7715Z" fill="#171D1E"/>
</svg>
