<svg xmlns="http://www.w3.org/2000/svg" width="148" height="14" viewBox="0 0 148 14" fill="none">
<path d="M10.549 5.988C10.549 6.73933 10.43 7.43 10.192 8.06C9.954 8.68533 9.618 9.22433 9.184 9.677C8.75 10.1297 8.22733 10.482 7.616 10.734C7.00933 10.9813 6.33733 11.105 5.6 11.105C4.86267 11.105 4.19067 10.9813 3.584 10.734C2.97733 10.482 2.457 10.1297 2.023 9.677C1.589 9.22433 1.253 8.68533 1.015 8.06C0.777 7.43 0.658 6.73933 0.658 5.988C0.658 5.23667 0.777 4.54833 1.015 3.923C1.253 3.293 1.589 2.75167 2.023 2.299C2.457 1.84167 2.97733 1.487 3.584 1.235C4.19067 0.982999 4.86267 0.856999 5.6 0.856999C6.33733 0.856999 7.00933 0.982999 7.616 1.235C8.22733 1.487 8.75 1.84167 9.184 2.299C9.618 2.75167 9.954 3.293 10.192 3.923C10.43 4.54833 10.549 5.23667 10.549 5.988ZM9.156 5.988C9.156 5.372 9.072 4.819 8.904 4.329C8.736 3.839 8.498 3.426 8.19 3.09C7.882 2.74933 7.50867 2.488 7.07 2.306C6.63133 2.124 6.14133 2.033 5.6 2.033C5.06333 2.033 4.57567 2.124 4.137 2.306C3.69833 2.488 3.32267 2.74933 3.01 3.09C2.702 3.426 2.464 3.839 2.296 4.329C2.128 4.819 2.044 5.372 2.044 5.988C2.044 6.604 2.128 7.157 2.296 7.647C2.464 8.13233 2.702 8.54533 3.01 8.886C3.32267 9.222 3.69833 9.481 4.137 9.663C4.57567 9.84033 5.06333 9.929 5.6 9.929C6.14133 9.929 6.63133 9.84033 7.07 9.663C7.50867 9.481 7.882 9.222 8.19 8.886C8.498 8.54533 8.736 8.13233 8.904 7.647C9.072 7.157 9.156 6.604 9.156 5.988ZM15.0912 3.797C15.6092 3.797 16.0759 3.88333 16.4912 4.056C16.9066 4.22867 17.2612 4.47367 17.5552 4.791C17.8492 5.10833 18.0732 5.49333 18.2272 5.946C18.3859 6.394 18.4652 6.89567 18.4652 7.451C18.4652 8.011 18.3859 8.515 18.2272 8.963C18.0732 9.411 17.8492 9.79367 17.5552 10.111C17.2612 10.4283 16.9066 10.6733 16.4912 10.846C16.0759 11.014 15.6092 11.098 15.0912 11.098C14.5686 11.098 14.0972 11.014 13.6772 10.846C13.2619 10.6733 12.9072 10.4283 12.6132 10.111C12.3192 9.79367 12.0929 9.411 11.9342 8.963C11.7802 8.515 11.7032 8.011 11.7032 7.451C11.7032 6.89567 11.7802 6.394 11.9342 5.946C12.0929 5.49333 12.3192 5.10833 12.6132 4.791C12.9072 4.47367 13.2619 4.22867 13.6772 4.056C14.0972 3.88333 14.5686 3.797 15.0912 3.797ZM15.0912 10.125C15.7912 10.125 16.3139 9.89167 16.6592 9.425C17.0046 8.95367 17.1772 8.298 17.1772 7.458C17.1772 6.61333 17.0046 5.95533 16.6592 5.484C16.3139 5.01267 15.7912 4.777 15.0912 4.777C14.7366 4.777 14.4262 4.83767 14.1602 4.959C13.8989 5.08033 13.6796 5.25533 13.5022 5.484C13.3296 5.71267 13.1989 5.995 13.1102 6.331C13.0262 6.66233 12.9842 7.038 12.9842 7.458C12.9842 8.298 13.1569 8.95367 13.5022 9.425C13.8522 9.89167 14.3819 10.125 15.0912 10.125ZM21.2986 9.292C21.5273 9.6 21.7769 9.817 22.0476 9.943C22.3183 10.069 22.6216 10.132 22.9576 10.132C23.6203 10.132 24.1289 9.89633 24.4836 9.425C24.8383 8.95367 25.0156 8.28167 25.0156 7.409C25.0156 6.947 24.9736 6.55033 24.8896 6.219C24.8103 5.88767 24.6936 5.617 24.5396 5.407C24.3856 5.19233 24.1966 5.036 23.9726 4.938C23.7486 4.84 23.4943 4.791 23.2096 4.791C22.8036 4.791 22.4466 4.88433 22.1386 5.071C21.8353 5.25767 21.5553 5.52133 21.2986 5.862V9.292ZM21.2356 5.008C21.5343 4.63933 21.8796 4.343 22.2716 4.119C22.6636 3.895 23.1116 3.783 23.6156 3.783C24.0263 3.783 24.3973 3.86233 24.7286 4.021C25.0599 4.175 25.3423 4.406 25.5756 4.714C25.8089 5.01733 25.9886 5.39533 26.1146 5.848C26.2406 6.30067 26.3036 6.821 26.3036 7.409C26.3036 7.93167 26.2336 8.41933 26.0936 8.872C25.9536 9.32 25.7506 9.70967 25.4846 10.041C25.2233 10.3677 24.9013 10.6267 24.5186 10.818C24.1406 11.0047 23.7136 11.098 23.2376 11.098C22.8036 11.098 22.4303 11.0257 22.1176 10.881C21.8096 10.7317 21.5366 10.5263 21.2986 10.265V13.401H20.0456V3.909H20.7946C20.9719 3.909 21.0816 3.99533 21.1236 4.168L21.2356 5.008ZM32.0233 5.078C31.9673 5.18067 31.8809 5.232 31.7643 5.232C31.6943 5.232 31.6149 5.20633 31.5263 5.155C31.4376 5.10367 31.3279 5.04767 31.1973 4.987C31.0713 4.92167 30.9196 4.86333 30.7423 4.812C30.5649 4.756 30.3549 4.728 30.1123 4.728C29.9023 4.728 29.7133 4.756 29.5453 4.812C29.3773 4.86333 29.2326 4.93567 29.1113 5.029C28.9946 5.12233 28.9036 5.232 28.8383 5.358C28.7776 5.47933 28.7473 5.61233 28.7473 5.757C28.7473 5.939 28.7986 6.09067 28.9013 6.212C29.0086 6.33333 29.1486 6.43833 29.3213 6.527C29.4939 6.61567 29.6899 6.695 29.9093 6.765C30.1286 6.83033 30.3526 6.90267 30.5813 6.982C30.8146 7.05667 31.0409 7.14067 31.2603 7.234C31.4796 7.32733 31.6756 7.444 31.8483 7.584C32.0209 7.724 32.1586 7.89667 32.2613 8.102C32.3686 8.30267 32.4223 8.54533 32.4223 8.83C32.4223 9.15667 32.3639 9.46 32.2473 9.74C32.1306 10.0153 31.9579 10.2557 31.7293 10.461C31.5006 10.6617 31.2206 10.8203 30.8893 10.937C30.5579 11.0537 30.1753 11.112 29.7413 11.112C29.2466 11.112 28.7986 11.0327 28.3973 10.874C27.9959 10.7107 27.6553 10.503 27.3753 10.251L27.6693 9.775C27.7066 9.71433 27.7509 9.66767 27.8023 9.635C27.8536 9.60233 27.9189 9.586 27.9983 9.586C28.0823 9.586 28.1709 9.61867 28.2643 9.684C28.3576 9.74933 28.4696 9.82167 28.6003 9.901C28.7356 9.98033 28.8989 10.0527 29.0903 10.118C29.2816 10.1833 29.5196 10.216 29.8043 10.216C30.0469 10.216 30.2593 10.1857 30.4412 10.125C30.6233 10.0597 30.7749 9.97333 30.8963 9.866C31.0176 9.75867 31.1063 9.635 31.1623 9.495C31.2229 9.355 31.2533 9.20567 31.2533 9.047C31.2533 8.851 31.1996 8.69 31.0923 8.564C30.9896 8.43333 30.8519 8.32367 30.6793 8.235C30.5066 8.14167 30.3083 8.06233 30.0843 7.997C29.8649 7.927 29.6386 7.85467 29.4053 7.78C29.1766 7.70533 28.9503 7.62133 28.7263 7.528C28.5069 7.43 28.3109 7.30867 28.1383 7.164C27.9656 7.01933 27.8256 6.842 27.7183 6.632C27.6156 6.41733 27.5643 6.15833 27.5643 5.855C27.5643 5.58433 27.6203 5.32533 27.7323 5.078C27.8443 4.826 28.0076 4.60667 28.2223 4.42C28.4369 4.22867 28.7006 4.077 29.0133 3.965C29.3259 3.853 29.6829 3.797 30.0843 3.797C30.5509 3.797 30.9686 3.87167 31.3373 4.021C31.7106 4.16567 32.0326 4.36633 32.3033 4.623L32.0233 5.078ZM35.4479 0.968999V4.973C35.4479 5.183 35.4432 5.38833 35.4339 5.589C35.4246 5.78967 35.4129 5.99267 35.3989 6.198C35.3849 6.39867 35.3662 6.60633 35.3429 6.821C35.3242 7.031 35.3009 7.25733 35.2729 7.5H34.4329C34.4049 7.25733 34.3792 7.031 34.3559 6.821C34.3372 6.60633 34.3209 6.39867 34.3069 6.198C34.2929 5.99267 34.2812 5.78967 34.2719 5.589C34.2626 5.38833 34.2579 5.183 34.2579 4.973V0.968999H35.4479ZM33.9569 10.23C33.9569 10.1087 33.9779 9.99433 34.0199 9.887C34.0666 9.77967 34.1296 9.68633 34.2089 9.607C34.2882 9.52767 34.3792 9.46467 34.4819 9.418C34.5892 9.37133 34.7059 9.348 34.8319 9.348C34.9532 9.348 35.0652 9.37133 35.1679 9.418C35.2752 9.46467 35.3686 9.52767 35.4479 9.607C35.5272 9.68633 35.5902 9.77967 35.6369 9.887C35.6836 9.99433 35.7069 10.1087 35.7069 10.23C35.7069 10.356 35.6836 10.4727 35.6369 10.58C35.5902 10.6827 35.5272 10.7737 35.4479 10.853C35.3686 10.9323 35.2752 10.993 35.1679 11.035C35.0652 11.0817 34.9532 11.105 34.8319 11.105C34.7059 11.105 34.5892 11.0817 34.4819 11.035C34.3792 10.993 34.2882 10.9323 34.2089 10.853C34.1296 10.7737 34.0666 10.6827 34.0199 10.58C33.9779 10.4727 33.9569 10.356 33.9569 10.23ZM49.7127 0.968999V11H49.0337C48.9264 11 48.8354 10.9813 48.7607 10.944C48.6907 10.9067 48.6207 10.8437 48.5507 10.755L42.7477 3.195C42.757 3.31167 42.764 3.426 42.7687 3.538C42.7734 3.65 42.7757 3.755 42.7757 3.853V11H41.5857V0.968999H42.2857C42.3464 0.968999 42.3977 0.973666 42.4397 0.982999C42.4817 0.987666 42.519 0.999333 42.5517 1.018C42.5844 1.032 42.617 1.05533 42.6497 1.088C42.6824 1.116 42.7174 1.15333 42.7547 1.2L48.5577 8.753C48.5484 8.63167 48.539 8.515 48.5297 8.403C48.525 8.28633 48.5227 8.17667 48.5227 8.074V0.968999H49.7127ZM54.7533 3.797C55.2713 3.797 55.738 3.88333 56.1533 4.056C56.5687 4.22867 56.9233 4.47367 57.2173 4.791C57.5113 5.10833 57.7353 5.49333 57.8893 5.946C58.048 6.394 58.1273 6.89567 58.1273 7.451C58.1273 8.011 58.048 8.515 57.8893 8.963C57.7353 9.411 57.5113 9.79367 57.2173 10.111C56.9233 10.4283 56.5687 10.6733 56.1533 10.846C55.738 11.014 55.2713 11.098 54.7533 11.098C54.2307 11.098 53.7593 11.014 53.3393 10.846C52.924 10.6733 52.5693 10.4283 52.2753 10.111C51.9813 9.79367 51.755 9.411 51.5963 8.963C51.4423 8.515 51.3653 8.011 51.3653 7.451C51.3653 6.89567 51.4423 6.394 51.5963 5.946C51.755 5.49333 51.9813 5.10833 52.2753 4.791C52.5693 4.47367 52.924 4.22867 53.3393 4.056C53.7593 3.88333 54.2307 3.797 54.7533 3.797ZM54.7533 10.125C55.4533 10.125 55.976 9.89167 56.3213 9.425C56.6667 8.95367 56.8393 8.298 56.8393 7.458C56.8393 6.61333 56.6667 5.95533 56.3213 5.484C55.976 5.01267 55.4533 4.777 54.7533 4.777C54.3987 4.777 54.0883 4.83767 53.8223 4.959C53.561 5.08033 53.3417 5.25533 53.1643 5.484C52.9917 5.71267 52.861 5.995 52.7723 6.331C52.6883 6.66233 52.6463 7.038 52.6463 7.458C52.6463 8.298 52.819 8.95367 53.1643 9.425C53.5143 9.89167 54.044 10.125 54.7533 10.125ZM66.3627 5.827C66.7547 5.827 67.1001 5.78033 67.3987 5.687C67.7021 5.589 67.9541 5.45367 68.1547 5.281C68.3601 5.10367 68.5141 4.89367 68.6167 4.651C68.7194 4.40833 68.7707 4.14 68.7707 3.846C68.7707 3.24867 68.5747 2.79833 68.1827 2.495C67.7907 2.19167 67.2027 2.04 66.4187 2.04H64.9347V5.827H66.3627ZM70.9967 11H69.7927C69.5454 11 69.3634 10.9043 69.2467 10.713L66.6427 7.129C66.5634 7.017 66.4771 6.93767 66.3837 6.891C66.2951 6.83967 66.1551 6.814 65.9637 6.814H64.9347V11H63.5837V0.968999H66.4187C67.0534 0.968999 67.6017 1.03433 68.0637 1.165C68.5257 1.291 68.9061 1.47533 69.2047 1.718C69.5081 1.96067 69.7321 2.25467 69.8767 2.6C70.0214 2.94067 70.0937 3.32333 70.0937 3.748C70.0937 4.10267 70.0377 4.434 69.9257 4.742C69.8137 5.05 69.6504 5.32767 69.4357 5.575C69.2257 5.81767 68.9667 6.02533 68.6587 6.198C68.3554 6.37067 68.0101 6.50133 67.6227 6.59C67.7954 6.688 67.9447 6.83033 68.0707 7.017L70.9967 11ZM76.3619 6.681C76.3619 6.39167 76.3199 6.128 76.2359 5.89C76.1566 5.64733 76.0376 5.43967 75.8789 5.267C75.7249 5.08967 75.5359 4.95433 75.3119 4.861C75.0879 4.763 74.8336 4.714 74.5489 4.714C73.9516 4.714 73.4779 4.889 73.1279 5.239C72.7826 5.58433 72.5679 6.065 72.4839 6.681H76.3619ZM77.3699 10.006C77.2159 10.1927 77.0316 10.356 76.8169 10.496C76.6022 10.6313 76.3712 10.7433 76.1239 10.832C75.8812 10.9207 75.6292 10.986 75.3679 11.028C75.1066 11.0747 74.8476 11.098 74.5909 11.098C74.1009 11.098 73.6482 11.0163 73.2329 10.853C72.8222 10.685 72.4652 10.4423 72.1619 10.125C71.8632 9.803 71.6299 9.40633 71.4619 8.935C71.2939 8.46367 71.2099 7.92233 71.2099 7.311C71.2099 6.81633 71.2846 6.35433 71.4339 5.925C71.5879 5.49567 71.8072 5.12467 72.0919 4.812C72.3766 4.49467 72.7242 4.24733 73.1349 4.07C73.5456 3.888 74.0076 3.797 74.5209 3.797C74.9456 3.797 75.3376 3.86933 75.6969 4.014C76.0609 4.154 76.3736 4.35933 76.6349 4.63C76.9009 4.896 77.1086 5.22733 77.2579 5.624C77.4072 6.016 77.4819 6.464 77.4819 6.968C77.4819 7.164 77.4609 7.29467 77.4189 7.36C77.3769 7.42533 77.2976 7.458 77.1809 7.458H72.4419C72.4559 7.906 72.5166 8.29567 72.6239 8.627C72.7359 8.95833 72.8899 9.236 73.0859 9.46C73.2819 9.67933 73.5152 9.845 73.7859 9.957C74.0566 10.0643 74.3599 10.118 74.6959 10.118C75.0086 10.118 75.2769 10.083 75.5009 10.013C75.7296 9.93833 75.9256 9.859 76.0889 9.775C76.2522 9.691 76.3876 9.614 76.4949 9.544C76.6069 9.46933 76.7026 9.432 76.7819 9.432C76.8846 9.432 76.9639 9.47167 77.0199 9.551L77.3699 10.006ZM83.1424 5.078C83.0864 5.18067 83.0001 5.232 82.8834 5.232C82.8134 5.232 82.7341 5.20633 82.6454 5.155C82.5567 5.10367 82.4471 5.04767 82.3164 4.987C82.1904 4.92167 82.0387 4.86333 81.8614 4.812C81.6841 4.756 81.4741 4.728 81.2314 4.728C81.0214 4.728 80.8324 4.756 80.6644 4.812C80.4964 4.86333 80.3517 4.93567 80.2304 5.029C80.1137 5.12233 80.0227 5.232 79.9574 5.358C79.8967 5.47933 79.8664 5.61233 79.8664 5.757C79.8664 5.939 79.9177 6.09067 80.0204 6.212C80.1277 6.33333 80.2677 6.43833 80.4404 6.527C80.6131 6.61567 80.8091 6.695 81.0284 6.765C81.2477 6.83033 81.4717 6.90267 81.7004 6.982C81.9337 7.05667 82.1601 7.14067 82.3794 7.234C82.5987 7.32733 82.7947 7.444 82.9674 7.584C83.1401 7.724 83.2777 7.89667 83.3804 8.102C83.4877 8.30267 83.5414 8.54533 83.5414 8.83C83.5414 9.15667 83.4831 9.46 83.3664 9.74C83.2497 10.0153 83.0771 10.2557 82.8484 10.461C82.6197 10.6617 82.3397 10.8203 82.0084 10.937C81.6771 11.0537 81.2944 11.112 80.8604 11.112C80.3657 11.112 79.9177 11.0327 79.5164 10.874C79.1151 10.7107 78.7744 10.503 78.4944 10.251L78.7884 9.775C78.8257 9.71433 78.8701 9.66767 78.9214 9.635C78.9727 9.60233 79.0381 9.586 79.1174 9.586C79.2014 9.586 79.2901 9.61867 79.3834 9.684C79.4767 9.74933 79.5887 9.82167 79.7194 9.901C79.8547 9.98033 80.0181 10.0527 80.2094 10.118C80.4007 10.1833 80.6387 10.216 80.9234 10.216C81.1661 10.216 81.3784 10.1857 81.5604 10.125C81.7424 10.0597 81.8941 9.97333 82.0154 9.866C82.1367 9.75867 82.2254 9.635 82.2814 9.495C82.3421 9.355 82.3724 9.20567 82.3724 9.047C82.3724 8.851 82.3187 8.69 82.2114 8.564C82.1087 8.43333 81.9711 8.32367 81.7984 8.235C81.6257 8.14167 81.4274 8.06233 81.2034 7.997C80.9841 7.927 80.7577 7.85467 80.5244 7.78C80.2957 7.70533 80.0694 7.62133 79.8454 7.528C79.6261 7.43 79.4301 7.30867 79.2574 7.164C79.0847 7.01933 78.9447 6.842 78.8374 6.632C78.7347 6.41733 78.6834 6.15833 78.6834 5.855C78.6834 5.58433 78.7394 5.32533 78.8514 5.078C78.9634 4.826 79.1267 4.60667 79.3414 4.42C79.5561 4.22867 79.8197 4.077 80.1324 3.965C80.4451 3.853 80.8021 3.797 81.2034 3.797C81.6701 3.797 82.0877 3.87167 82.4564 4.021C82.8297 4.16567 83.1517 4.36633 83.4224 4.623L83.1424 5.078ZM90.9 3.909V11H90.158C89.9807 11 89.8687 10.9137 89.822 10.741L89.724 9.978C89.416 10.3187 89.0707 10.594 88.688 10.804C88.3054 11.0093 87.8667 11.112 87.372 11.112C86.9847 11.112 86.6417 11.049 86.343 10.923C86.049 10.7923 85.8017 10.6103 85.601 10.377C85.4004 10.1437 85.2487 9.86133 85.146 9.53C85.048 9.19867 84.999 8.83233 84.999 8.431V3.909H86.245V8.431C86.245 8.96767 86.3664 9.383 86.609 9.677C86.8564 9.971 87.232 10.118 87.736 10.118C88.1047 10.118 88.4477 10.0317 88.765 9.859C89.087 9.68167 89.3834 9.439 89.654 9.131V3.909H90.9ZM94.1637 0.689V11H92.9177V0.689H94.1637ZM98.3613 11.112C97.8013 11.112 97.3696 10.9557 97.0663 10.643C96.7676 10.3303 96.6183 9.88 96.6183 9.292V4.952H95.7643C95.6896 4.952 95.6266 4.931 95.5753 4.889C95.5239 4.84233 95.4983 4.77233 95.4983 4.679V4.182L96.6603 4.035L96.9473 1.844C96.9613 1.774 96.9916 1.718 97.0383 1.676C97.0896 1.62933 97.1549 1.606 97.2343 1.606H97.8643V4.049H99.9153V4.952H97.8643V9.208C97.8643 9.50667 97.9366 9.72833 98.0813 9.873C98.2259 10.0177 98.4126 10.09 98.6413 10.09C98.7719 10.09 98.8839 10.0737 98.9773 10.041C99.0753 10.0037 99.1593 9.964 99.2293 9.922C99.2993 9.88 99.3576 9.84267 99.4043 9.81C99.4556 9.77267 99.4999 9.754 99.5373 9.754C99.6026 9.754 99.6609 9.79367 99.7123 9.873L100.076 10.468C99.8616 10.6687 99.6026 10.8273 99.2993 10.944C98.9959 11.056 98.6833 11.112 98.3613 11.112ZM105.332 5.078C105.276 5.18067 105.19 5.232 105.073 5.232C105.003 5.232 104.924 5.20633 104.835 5.155C104.746 5.10367 104.637 5.04767 104.506 4.987C104.38 4.92167 104.228 4.86333 104.051 4.812C103.874 4.756 103.664 4.728 103.421 4.728C103.211 4.728 103.022 4.756 102.854 4.812C102.686 4.86333 102.541 4.93567 102.42 5.029C102.303 5.12233 102.212 5.232 102.147 5.358C102.086 5.47933 102.056 5.61233 102.056 5.757C102.056 5.939 102.107 6.09067 102.21 6.212C102.317 6.33333 102.457 6.43833 102.63 6.527C102.803 6.61567 102.999 6.695 103.218 6.765C103.437 6.83033 103.661 6.90267 103.89 6.982C104.123 7.05667 104.35 7.14067 104.569 7.234C104.788 7.32733 104.984 7.444 105.157 7.584C105.33 7.724 105.467 7.89667 105.57 8.102C105.677 8.30267 105.731 8.54533 105.731 8.83C105.731 9.15667 105.673 9.46 105.556 9.74C105.439 10.0153 105.267 10.2557 105.038 10.461C104.809 10.6617 104.529 10.8203 104.198 10.937C103.867 11.0537 103.484 11.112 103.05 11.112C102.555 11.112 102.107 11.0327 101.706 10.874C101.305 10.7107 100.964 10.503 100.684 10.251L100.978 9.775C101.015 9.71433 101.06 9.66767 101.111 9.635C101.162 9.60233 101.228 9.586 101.307 9.586C101.391 9.586 101.48 9.61867 101.573 9.684C101.666 9.74933 101.778 9.82167 101.909 9.901C102.044 9.98033 102.208 10.0527 102.399 10.118C102.59 10.1833 102.828 10.216 103.113 10.216C103.356 10.216 103.568 10.1857 103.75 10.125C103.932 10.0597 104.084 9.97333 104.205 9.866C104.326 9.75867 104.415 9.635 104.471 9.495C104.532 9.355 104.562 9.20567 104.562 9.047C104.562 8.851 104.508 8.69 104.401 8.564C104.298 8.43333 104.161 8.32367 103.988 8.235C103.815 8.14167 103.617 8.06233 103.393 7.997C103.174 7.927 102.947 7.85467 102.714 7.78C102.485 7.70533 102.259 7.62133 102.035 7.528C101.816 7.43 101.62 7.30867 101.447 7.164C101.274 7.01933 101.134 6.842 101.027 6.632C100.924 6.41733 100.873 6.15833 100.873 5.855C100.873 5.58433 100.929 5.32533 101.041 5.078C101.153 4.826 101.316 4.60667 101.531 4.42C101.746 4.22867 102.009 4.077 102.322 3.965C102.635 3.853 102.992 3.797 103.393 3.797C103.86 3.797 104.277 3.87167 104.646 4.021C105.019 4.16567 105.341 4.36633 105.612 4.623L105.332 5.078ZM112.493 2.075V5.582H116.616V6.688H112.493V11H111.135V0.968999H117.316V2.075H112.493ZM121.13 3.797C121.648 3.797 122.115 3.88333 122.53 4.056C122.946 4.22867 123.3 4.47367 123.594 4.791C123.888 5.10833 124.112 5.49333 124.266 5.946C124.425 6.394 124.504 6.89567 124.504 7.451C124.504 8.011 124.425 8.515 124.266 8.963C124.112 9.411 123.888 9.79367 123.594 10.111C123.3 10.4283 122.946 10.6733 122.53 10.846C122.115 11.014 121.648 11.098 121.13 11.098C120.608 11.098 120.136 11.014 119.716 10.846C119.301 10.6733 118.946 10.4283 118.652 10.111C118.358 9.79367 118.132 9.411 117.973 8.963C117.819 8.515 117.742 8.011 117.742 7.451C117.742 6.89567 117.819 6.394 117.973 5.946C118.132 5.49333 118.358 5.10833 118.652 4.791C118.946 4.47367 119.301 4.22867 119.716 4.056C120.136 3.88333 120.608 3.797 121.13 3.797ZM121.13 10.125C121.83 10.125 122.353 9.89167 122.698 9.425C123.044 8.95367 123.216 8.298 123.216 7.458C123.216 6.61333 123.044 5.95533 122.698 5.484C122.353 5.01267 121.83 4.777 121.13 4.777C120.776 4.777 120.465 4.83767 120.199 4.959C119.938 5.08033 119.719 5.25533 119.541 5.484C119.369 5.71267 119.238 5.995 119.149 6.331C119.065 6.66233 119.023 7.038 119.023 7.458C119.023 8.298 119.196 8.95367 119.541 9.425C119.891 9.89167 120.421 10.125 121.13 10.125ZM131.916 3.909V11H131.174C130.996 11 130.884 10.9137 130.838 10.741L130.74 9.978C130.432 10.3187 130.086 10.594 129.704 10.804C129.321 11.0093 128.882 11.112 128.388 11.112C128 11.112 127.657 11.049 127.359 10.923C127.065 10.7923 126.817 10.6103 126.617 10.377C126.416 10.1437 126.264 9.86133 126.162 9.53C126.064 9.19867 126.015 8.83233 126.015 8.431V3.909H127.261V8.431C127.261 8.96767 127.382 9.383 127.625 9.677C127.872 9.971 128.248 10.118 128.752 10.118C129.12 10.118 129.463 10.0317 129.781 9.859C130.103 9.68167 130.399 9.439 130.67 9.131V3.909H131.916ZM135.067 4.938C135.221 4.76533 135.385 4.609 135.557 4.469C135.73 4.329 135.912 4.21 136.103 4.112C136.299 4.00933 136.505 3.93233 136.719 3.881C136.939 3.825 137.174 3.797 137.426 3.797C137.814 3.797 138.154 3.86233 138.448 3.993C138.747 4.119 138.994 4.301 139.19 4.539C139.391 4.77233 139.543 5.05467 139.645 5.386C139.748 5.71733 139.799 6.08367 139.799 6.485V11H138.546V6.485C138.546 5.94833 138.423 5.533 138.175 5.239C137.933 4.94033 137.562 4.791 137.062 4.791C136.694 4.791 136.348 4.87967 136.026 5.057C135.709 5.23433 135.415 5.47467 135.144 5.778V11H133.891V3.909H134.64C134.818 3.909 134.927 3.99533 134.969 4.168L135.067 4.938ZM146.318 5.596C146.085 5.28333 145.833 5.06633 145.562 4.945C145.291 4.819 144.988 4.756 144.652 4.756C143.994 4.756 143.488 4.99167 143.133 5.463C142.778 5.93433 142.601 6.60633 142.601 7.479C142.601 7.941 142.641 8.33767 142.72 8.669C142.799 8.99567 142.916 9.26633 143.07 9.481C143.224 9.691 143.413 9.845 143.637 9.943C143.861 10.041 144.115 10.09 144.4 10.09C144.811 10.09 145.168 9.99667 145.471 9.81C145.779 9.62333 146.061 9.35967 146.318 9.019V5.596ZM147.564 0.689V11H146.822C146.645 11 146.533 10.9137 146.486 10.741L146.374 9.88C146.071 10.244 145.725 10.538 145.338 10.762C144.951 10.986 144.503 11.098 143.994 11.098C143.588 11.098 143.219 11.021 142.888 10.867C142.557 10.7083 142.274 10.4773 142.041 10.174C141.808 9.87067 141.628 9.49267 141.502 9.04C141.376 8.58733 141.313 8.067 141.313 7.479C141.313 6.95633 141.383 6.471 141.523 6.023C141.663 5.57033 141.864 5.17833 142.125 4.847C142.386 4.51567 142.706 4.25667 143.084 4.07C143.467 3.87867 143.896 3.783 144.372 3.783C144.806 3.783 145.177 3.85767 145.485 4.007C145.798 4.15167 146.075 4.35467 146.318 4.616V0.689H147.564Z" fill="#395174"/>
</svg>