<svg width="733" height="527" viewBox="0 0 733 527" fill="none" xmlns="http://www.w3.org/2000/svg">
<path fill-rule="evenodd" clip-rule="evenodd" d="M368.581 82.899C422.936 88.0201 522.374 20.5094 576.438 26.8218C652.31 35.6803 698.98 77.939 727.993 124.863C756.596 171.123 654.278 189.735 632.345 237.544C609.665 286.981 652.134 371.67 597.689 408.894C541.012 447.644 445.85 542.449 368.581 524.843C291.365 507.25 295.6 358.946 231.658 325.494C172.822 294.713 67.7464 315.78 25.4895 274.895C-17.1323 233.658 0.594274 175.345 28.5777 129.008C55.534 84.3723 79.8814 10.4571 151.437 0.753125C222.138 -8.83488 297.121 76.1666 368.581 82.899Z" fill="#FAFAFA"/>
<g clip-path="url(#clip0_981_214324)">
<path d="M133.064 352.498C138.113 360.501 144.265 367.753 151.337 374.039C151.499 374.187 151.665 374.328 151.831 374.473L166.931 365.5C166.819 365.348 166.696 365.177 166.564 364.991C158.68 354.013 123.072 280.981 122.855 264.809C122.827 266.147 110.04 316.412 133.064 352.498Z" fill="#E6E6E6"/>
<path d="M148.425 375.769C148.659 375.874 148.897 375.976 149.137 376.073L160.465 369.342C160.288 369.239 160.082 369.119 159.845 368.983C155.967 366.718 144.428 359.91 133.066 352.496C120.859 344.527 108.85 335.863 106.766 331.383C107.199 332.414 120.64 363.746 148.425 375.769Z" fill="#E6E6E6"/>
<path d="M626.988 381.939C626.735 391.399 625.15 400.776 622.281 409.793C622.217 410.003 622.147 410.209 622.078 410.418H604.513C604.532 410.23 604.551 410.021 604.569 409.793C605.74 396.328 599.05 315.353 590.977 301.338C591.684 302.475 628.35 339.154 626.988 381.939Z" fill="#E6E6E6"/>
<path d="M625.673 409.793C625.526 410.002 625.373 410.212 625.216 410.418H612.039C612.139 410.24 612.255 410.03 612.389 409.793C614.566 405.864 621.009 394.117 626.989 381.938C633.414 368.851 639.313 355.268 638.816 350.352C638.97 351.46 643.418 385.262 625.673 409.793Z" fill="#E6E6E6"/>
<path d="M368.017 409.929H164.893C160.079 409.924 155.463 408.009 152.059 404.604C148.655 401.199 146.74 396.583 146.734 391.768V97.1611C146.74 92.3461 148.655 87.73 152.059 84.3253C155.463 80.9206 160.079 79.0054 164.893 79H368.017C372.832 79.0054 377.447 80.9206 380.852 84.3253C384.256 87.7299 386.171 92.3461 386.176 97.1611V391.768C386.171 396.583 384.256 401.199 380.852 404.604C377.447 408.009 372.832 409.924 368.017 409.929Z" fill="#CACACA"/>
<path d="M368.374 398.343H164.535C163.051 398.341 161.628 397.751 160.579 396.701C159.53 395.652 158.939 394.229 158.938 392.745V96.1862C158.939 94.702 159.53 93.279 160.579 92.2295C161.628 91.18 163.051 90.5896 164.535 90.5879H368.374C369.858 90.5896 371.281 91.18 372.33 92.2295C373.38 93.279 373.97 94.702 373.972 96.1862V392.745C373.97 394.229 373.38 395.652 372.33 396.701C371.281 397.751 369.858 398.341 368.374 398.343Z" fill="white"/>
<path d="M265.678 86.1075C266.531 86.1075 267.222 85.4158 267.222 84.5625C267.222 83.7093 266.531 83.0176 265.678 83.0176C264.824 83.0176 264.133 83.7093 264.133 84.5625C264.133 85.4158 264.824 86.1075 265.678 86.1075Z" fill="white"/>
<path d="M674.243 410.999H83.7574C83.5565 410.999 83.3639 410.919 83.2218 410.777C83.0798 410.635 83 410.443 83 410.242C83 410.041 83.0798 409.848 83.2218 409.706C83.3639 409.564 83.5565 409.484 83.7574 409.484H674.243C674.443 409.484 674.636 409.564 674.778 409.706C674.92 409.848 675 410.041 675 410.242C675 410.443 674.92 410.635 674.778 410.777C674.636 410.919 674.443 410.999 674.243 410.999Z" fill="#CACACA"/>
<path d="M266.453 324.78C277.344 324.78 286.172 315.951 286.172 305.059C286.172 294.167 277.344 285.338 266.453 285.338C255.563 285.338 246.734 294.167 246.734 305.059C246.734 315.951 255.563 324.78 266.453 324.78Z" fill="#E4E4E4"/>
<path d="M278.797 267.207H254.106L239.2 194.283C238.817 190.475 239.236 186.629 240.43 182.993C241.625 179.357 243.567 176.012 246.133 173.173C248.699 170.333 251.832 168.063 255.329 166.509C258.826 164.955 262.61 164.151 266.436 164.148C270.263 164.146 274.048 164.946 277.546 166.496C281.045 168.046 284.18 170.312 286.75 173.148C289.319 175.985 291.266 179.328 292.465 182.962C293.663 186.597 294.087 190.442 293.708 194.251L278.797 267.207Z" fill="#E4E4E4"/>
<path d="M363.464 169.188H453.71C458.064 169.188 462.29 170.67 465.691 173.39C469.092 176.11 471.467 179.906 472.424 184.155L518.024 386.435C518.521 388.642 518.53 390.93 518.049 393.14C517.569 395.35 516.611 397.428 515.242 399.229C513.874 401.03 512.128 402.509 510.128 403.564C508.127 404.618 505.92 405.222 503.661 405.334L410.888 409.905C405.92 410.15 401.033 408.579 397.139 405.485C393.244 402.391 390.609 397.985 389.723 393.09L363.856 250.076L358.964 223.024L351.743 183.103C351.434 181.393 351.506 179.636 351.953 177.957C352.401 176.278 353.213 174.719 354.333 173.39C355.452 172.061 356.851 170.995 358.429 170.269C360.008 169.543 361.727 169.174 363.464 169.188Z" fill="#3F3D56"/>
<path d="M441.829 173.547H452.363C455.389 173.547 458.323 174.582 460.679 176.479C463.035 178.377 464.672 181.024 465.317 183.98L509.086 384.61C509.338 385.765 509.337 386.961 509.085 388.116C508.832 389.271 508.334 390.358 507.623 391.302C506.912 392.247 506.005 393.027 504.965 393.589C503.925 394.151 502.776 394.482 501.597 394.56L409.124 400.621C406.515 400.792 403.934 399.996 401.875 398.386C399.815 396.775 398.42 394.463 397.957 391.889L360.609 184.519C360.367 183.176 360.423 181.798 360.772 180.479C361.121 179.161 361.755 177.935 362.63 176.889C363.505 175.843 364.598 175.001 365.834 174.424C367.069 173.846 368.416 173.547 369.78 173.547H379.773C380.74 173.547 381.681 173.866 382.448 174.454C383.216 175.043 383.768 175.868 384.02 176.802C384.242 177.626 384.729 178.355 385.407 178.874C386.085 179.394 386.915 179.675 387.769 179.675H435.212C436.884 179.675 438.494 179.044 439.721 177.908C440.948 176.772 441.701 175.214 441.829 173.547Z" fill="white"/>
<path d="M488.501 237.86C488.796 238.051 489.076 238.266 489.338 238.501L519.907 230.707L521.992 223.332L533.533 225.025L531.11 238.44C530.914 239.524 530.372 240.515 529.565 241.264C528.759 242.014 527.73 242.481 526.635 242.597L490.943 246.356C490.361 247.581 489.42 248.6 488.246 249.277C487.071 249.954 485.718 250.257 484.366 250.147C483.015 250.036 481.729 249.516 480.68 248.657C479.631 247.798 478.869 246.639 478.494 245.336C478.12 244.033 478.151 242.646 478.583 241.361C479.016 240.076 479.829 238.953 480.915 238.141C482.002 237.329 483.309 236.868 484.664 236.818C486.019 236.768 487.358 237.131 488.501 237.86Z" fill="#FFB6B6"/>
<path d="M466.688 265.52C477.578 265.52 486.407 256.691 486.407 245.799C486.407 234.908 477.578 226.078 466.688 226.078C455.797 226.078 446.969 234.908 446.969 245.799C446.969 256.691 455.797 265.52 466.688 265.52Z" fill="#112D57"/>
<path d="M479.032 207.947H454.341L439.434 135.023C439.051 131.215 439.471 127.369 440.665 123.733C441.859 120.097 443.802 116.752 446.368 113.913C448.934 111.074 452.066 108.804 455.563 107.249C459.06 105.695 462.844 104.891 466.671 104.889C470.497 104.886 474.282 105.686 477.781 107.236C481.28 108.786 484.415 111.053 486.984 113.889C489.554 116.725 491.5 120.068 492.699 123.702C493.897 127.337 494.321 131.182 493.943 134.991L479.032 207.947Z" fill="#112D57"/>
<path d="M535.598 231.718L527.723 238.513L516.705 248.011L511.839 223.111L511.33 220.522L510.93 218.467L522.093 199.02L531.399 199.554L532.035 199.592L532.048 199.732L532.194 201.036L534.103 218.2L534.147 218.613L535.598 231.718Z" fill="#3F3D56"/>
<path d="M484.126 402.006L476.328 402.005L472.617 371.922L484.127 371.923L484.126 402.006Z" fill="#FFB6B6"/>
<path d="M486.114 409.564L460.969 409.563V409.245C460.969 406.649 462 404.16 463.836 402.324C465.671 400.488 468.16 399.457 470.756 399.457H470.757L486.115 399.458L486.114 409.564Z" fill="#2F2E41"/>
<path d="M565.548 402.64L557.749 402.64L554.039 372.557L565.549 372.557L565.548 402.64Z" fill="#FFB6B6"/>
<path d="M567.536 410.201L542.391 410.2V409.882C542.391 407.286 543.422 404.796 545.257 402.961C547.093 401.125 549.582 400.094 552.178 400.094H552.179L567.536 400.094L567.536 410.201Z" fill="#2F2E41"/>
<path d="M571.782 389.393L550.79 392.574L520.252 289.21L487.817 393.21L464.281 390.03L494.814 269.158V259.616L498.949 245.302L498.516 241.428L495.507 214.333L494.203 202.583L494.119 201.824C494.048 201.187 494.217 200.547 494.592 200.027C494.967 199.508 495.523 199.147 496.15 199.014L505.946 196.953H521.956L531.402 199.555L532.051 199.733L532.344 199.816L532.197 201.037L529.984 219.601L529.863 220.619L527.726 238.514L527.255 242.439C545.702 255.799 546.338 269.158 546.338 269.158L571.782 389.393Z" fill="#2F2E41"/>
<path d="M512.014 188.904C520.642 188.904 527.637 181.909 527.637 173.279C527.637 164.65 520.642 157.654 512.014 157.654C503.385 157.654 496.391 164.65 496.391 173.279C496.391 181.909 503.385 188.904 512.014 188.904Z" fill="#FFB6B6"/>
<path d="M528.421 238.849L497.516 242.891L498.093 247.306L528.999 243.264L528.421 238.849Z" fill="#3F3D56"/>
<path d="M456.063 244.221C456.359 244.413 456.639 244.627 456.901 244.862L487.469 237.069L489.555 229.693L501.095 231.386L498.672 244.801C498.477 245.885 497.935 246.876 497.128 247.626C496.321 248.375 495.293 248.843 494.198 248.958L458.505 252.717C457.924 253.942 456.983 254.961 455.808 255.638C454.633 256.315 453.28 256.619 451.929 256.508C450.577 256.397 449.292 255.878 448.243 255.018C447.194 254.159 446.431 253.001 446.057 251.697C445.682 250.394 445.713 249.008 446.146 247.722C446.578 246.437 447.392 245.314 448.478 244.502C449.564 243.691 450.872 243.229 452.227 243.179C453.582 243.129 454.92 243.492 456.063 244.221Z" fill="#FFB6B6"/>
<path d="M503.083 202.997L497.676 198.862C496.214 198.307 494.211 199.883 493.86 201.406L486.227 232.579L502.129 244.03L504.355 240.531L503.083 202.997Z" fill="#3F3D56"/>
<g opacity="0.2">
<path d="M534.104 218.201C532.755 218.737 531.379 219.204 529.982 219.601C529.537 219.734 529.079 219.861 528.627 219.982C525.65 220.808 522.591 221.303 519.505 221.458C518.177 221.514 516.847 221.478 515.524 221.35C514.103 221.209 512.7 220.932 511.332 220.523C511.287 220.51 511.236 220.498 511.192 220.485C508.348 219.677 505.74 218.195 503.59 216.165C503.11 215.698 502.662 215.198 502.248 214.67C501.06 213.215 500.189 211.529 499.69 209.718C499.19 207.908 499.074 206.013 499.348 204.154C499.401 203.818 499.473 203.484 499.564 203.156C499.804 202.26 500.121 201.388 500.512 200.547C500.683 200.153 500.874 199.765 501.078 199.383L508.266 196.953H521.955L531.401 199.555L532.037 199.593L532.049 199.733L532.342 199.816L532.196 201.037L534.104 218.201Z" fill="black"/>
</g>
<path d="M500.041 160.343C497.119 159.985 493.913 160.238 491.635 162.103C489.358 163.969 488.623 167.847 490.779 169.851C492.688 171.625 495.673 171.208 498.23 171.712C500.432 172.206 502.405 173.425 503.834 175.173C505.262 176.921 506.062 179.098 506.107 181.354C506.069 187.827 499.858 192.728 498.742 199.104C497.981 203.455 499.816 208.035 502.988 211.108C506.16 214.182 510.521 215.843 514.915 216.293C519.309 216.743 523.752 216.056 528.023 214.927C532.311 213.793 536.532 212.184 540.13 209.591C543.728 206.997 546.678 203.34 547.833 199.057C548.988 194.774 548.159 189.864 545.182 186.576C541.773 182.81 536.102 181.515 533.153 177.379C529.848 172.743 531.071 166.141 528.396 161.114C526.61 157.758 523.228 155.47 519.623 154.264C516.018 153.058 512.168 152.82 508.369 152.703C506.372 152.642 504.314 152.621 502.453 153.349C500.592 154.078 498.957 155.737 498.86 157.733C498.764 159.729 500.041 160.343 500.041 160.343Z" fill="#2F2E41"/>
</g>
<defs>
<clipPath id="clip0_981_214324">
<rect width="592" height="332" fill="white" transform="translate(83 79)"/>
</clipPath>
</defs>
</svg>
