<svg width="265" height="205" viewBox="0 0 265 205" fill="none" xmlns="http://www.w3.org/2000/svg">
<g clip-path="url(#clip0_20981_299538)">
<g opacity="0.5">
<path opacity="0.5" d="M228.808 190.253C234.141 194.767 25.0331 194.767 30.3659 190.253C25.0331 185.739 234.128 185.739 228.808 190.253Z" fill="#5BCAF4"/>
<g opacity="0.3">
<path opacity="0.8" d="M220.849 99.5266C218.813 218.416 40.3856 218.396 38.3594 99.5266C40.4021 -19.3625 218.833 -19.3427 220.849 99.5266Z" fill="#5BCAF4"/>
<path opacity="0.6" d="M111.678 136.835C110.483 206.491 5.93921 206.481 4.75781 136.835C5.94911 67.1751 110.493 67.185 111.678 136.835ZM147.506 136.835C148.697 206.491 253.241 206.481 254.426 136.835C253.231 67.1751 148.687 67.185 147.506 136.835Z" fill="#5BCAF4"/>
<path opacity="0.5" d="M181.168 82.8682C181.986 130.593 253.613 130.586 254.428 82.8682C253.6 35.1536 181.99 35.1635 181.168 82.8682ZM78.01 82.8682C77.1916 130.593 5.5651 130.586 4.75 82.8682C5.5717 35.1536 77.1982 35.1635 78.01 82.8682Z" fill="#5BCAF4"/>
</g>
</g>
<g opacity="0.9">
<g opacity="0.8">
<path d="M204.759 163.61C205.838 156.175 211.709 150.74 218.81 148.829C232.089 144.988 233.33 135.158 235.099 140.075C236.868 144.992 233.152 150.305 236.34 154.136C239.528 157.967 237 165.171 231.885 166.752C226.77 168.332 208.494 180.351 208.494 189.961H194.723C194.021 189.961 194.021 184.707 194.047 184.314C194.324 175.959 202.779 171.316 204.759 163.61Z" fill="#56C0A3"/>
<path opacity="0.8" d="M214.693 169.846C214.406 165.117 216.614 160.378 220.171 157.273C222.2 155.494 224.461 154.197 226.424 152.471C227.972 151.201 229.724 149.98 230.589 148.125C229.883 150.412 227.834 151.917 226.177 153.507C220.428 157.86 215.191 162.051 214.693 169.846Z" fill="white"/>
</g>
<path d="M253.619 172.215C251.709 178.155 246.508 181.455 240.581 182.751C223.751 186.451 215.848 188.784 213.231 189.619C212.01 190.299 198.971 189.843 197.391 189.965C201.955 179.405 201.314 161.229 224.54 162.786C240.119 165.704 246.019 154.375 249.798 151.144C250.6 150.461 253.646 147.56 254.121 149.87C252.517 157.325 255.784 164.773 253.619 172.215Z" fill="#3EC5E5"/>
<path d="M247.841 162.898C244.831 174.234 230.813 174.448 221.233 175.32C215.355 176.016 209.307 179.517 207.828 185.596C208.6 179.171 214.857 175.085 220.863 174.224C230.364 172.993 243.732 173.564 247.841 162.898Z" fill="#3EC5E5"/>
<path opacity="0.8" d="M247.841 162.898C244.831 174.234 230.813 174.448 221.233 175.32C215.355 176.016 209.307 179.517 207.828 185.596C208.6 179.171 214.857 175.085 220.863 174.224C230.364 172.993 243.732 173.564 247.841 162.898Z" fill="white"/>
<g opacity="0.8">
<path d="M54.4251 163.61C53.3493 156.175 47.4753 150.74 40.3737 148.829C27.0945 144.988 25.8537 135.158 24.0849 140.075C22.3161 144.992 26.0319 150.305 22.8441 154.136C19.6563 157.967 22.1841 165.171 27.2991 166.752C32.4141 168.332 50.6895 180.351 50.6895 189.961H64.4538C65.1567 189.961 65.16 184.707 65.1138 184.314C64.8399 175.959 56.4018 171.316 54.4251 163.61Z" fill="#56C0A3"/>
<path opacity="0.8" d="M44.482 169.846C44.7691 165.117 42.5614 160.378 39.004 157.273C36.9778 155.494 34.714 154.197 32.7505 152.471C31.2028 151.201 29.4505 149.98 28.5859 148.125C29.2921 150.412 31.3414 151.917 32.998 153.507C38.7466 157.86 43.9837 162.051 44.482 169.846Z" fill="white"/>
</g>
<path d="M5.55711 172.215C7.46781 178.155 12.6719 181.455 18.5954 182.751C35.4419 186.451 43.3289 188.784 45.9491 189.619C47.1701 190.299 60.2051 189.843 61.7891 189.965C57.2252 179.405 57.8654 161.229 34.64 162.786C19.0673 165.704 13.1669 154.375 9.39831 151.144C8.59971 150.461 5.55051 147.56 5.07531 149.87C6.65931 157.325 3.39231 164.773 5.55711 172.215Z" fill="#3EC5E5"/>
<path d="M11.3359 162.898C14.3455 174.234 28.3639 174.448 37.9438 175.32C43.8244 176.016 49.87 179.517 51.3517 185.596C50.5762 179.171 44.3194 175.085 38.3134 174.224C28.816 172.993 15.4444 173.564 11.3359 162.898Z" fill="#3EC5E5"/>
<path opacity="0.8" d="M11.3359 162.898C14.3455 174.234 28.3639 174.448 37.9438 175.32C43.8244 176.016 49.87 179.517 51.3517 185.596C50.5762 179.171 44.3194 175.085 38.3134 174.224C28.816 172.993 15.4444 173.564 11.3359 162.898Z" fill="white"/>
</g>
<g opacity="0.5">
<g style="mix-blend-mode:multiply" opacity="0.8">
<path d="M44.5369 129.162C43.5469 128.869 44.6656 128.024 45.0649 127.46C49.2526 122.51 54.9121 116.091 59.4892 110.798C57.8227 112.478 55.9846 114.339 54.229 116.118C42.1609 128.344 42.052 128.344 41.7286 128.344C41.2006 128.308 41.26 127.737 41.5735 127.46C46.8535 121.249 54.1135 113.303 59.6905 106.901C54.8032 111.824 48.0547 118.758 43.4149 123.401C38.6794 127.932 39.2371 127.918 38.3494 127.661C38.0194 127.351 38.2636 127.077 39.2239 125.935C44.5039 119.771 52.0939 111.55 57.8194 105.069C53.1598 109.65 35.023 128.337 36.4387 126.282C36.3307 126.282 36.2268 126.24 36.1483 126.166C35.8381 125.856 36.0295 125.628 37.0921 124.374C42.2929 118.362 49.5265 110.514 55.1794 104.168C53.3281 106.033 51.2755 108.128 49.3153 110.108C35.6203 124.005 34.8415 124.668 34.4653 124.671C33.6634 124.387 33.9769 124.137 35.1253 122.734C40.4416 116.599 47.8501 108.544 53.6053 102.086C50.8663 104.825 47.596 108.118 44.6557 111.082C32.8879 122.935 32.8483 122.935 32.5612 122.935C32.5083 122.938 32.4554 122.93 32.4063 122.91C32.3572 122.89 32.3131 122.859 32.2774 122.82C31.8616 122.048 33.1321 121.285 33.6964 120.394C38.0392 115.302 43.7944 108.966 48.7708 103.422C44.8108 107.25 33.307 119.474 31.0333 120.817C30.9238 120.816 30.8186 120.774 30.7396 120.698C30.3634 120.074 31.1752 119.708 31.5613 119.091C36.9007 112.943 44.5435 104.61 50.2294 98.2018C47.992 100.452 45.3454 103.152 42.844 105.693C30.634 118.101 29.9971 118.652 29.6176 118.655C28.8256 118.388 29.1424 118.104 30.2149 116.804C35.0329 111.194 41.6989 103.875 46.9624 97.918C44.8966 99.9871 42.547 102.35 40.3162 104.601C28.5946 116.398 28.5484 116.398 28.258 116.401C27.598 116.2 27.7267 115.939 28.4956 115.081C33.4852 109.313 40.3228 101.706 45.4345 95.7862C42.9166 98.1787 27.4528 114.154 28.027 113.068C27.9738 113.07 27.9209 113.06 27.8715 113.04C27.8221 113.02 27.7773 112.991 27.7399 112.953C27.3538 112.349 28.2151 111.907 28.5979 111.273C32.2279 106.881 37.0558 101.314 41.1379 96.5221C39.8179 97.8586 38.4088 99.2908 37.1086 100.617C27.697 109.947 28.4098 109.927 27.4165 109.673C26.9248 109.013 28.9312 107.363 29.6572 106.201C31.8715 103.455 35.1319 99.4954 37.6168 96.4495C24.8194 109.828 26.4265 106.689 32.8582 97.5352C31.6207 98.7793 31.591 98.7793 31.4227 98.7793C31.3377 98.7791 31.2551 98.7515 31.187 98.7007C31.1189 98.6499 31.0689 98.5785 31.0445 98.4971C31.0201 98.4157 31.0225 98.3286 31.0514 98.2487C31.0803 98.1688 31.1341 98.1003 31.2049 98.0533C31.3963 97.885 32.4424 96.829 33.2146 96.0535C35.0692 94.1824 35.0692 94.1824 35.2606 94.1791C36.3067 94.5091 34.9702 95.6047 34.6006 96.3802C33.4258 98.1358 31.6306 100.73 30.3403 102.65C32.1883 100.914 42.613 89.9782 41.9992 91.1002C42.6592 91.2982 42.5041 91.582 41.7682 92.5126C38.7982 96.2878 34.7755 101.093 31.5118 105.125C33.0463 103.574 34.8349 101.753 36.5278 100.03C45.9988 90.3874 46.0978 90.3874 46.4278 90.3874C46.9393 90.4171 46.9063 90.9748 46.5961 91.2454C42.778 95.8654 37.7488 101.631 33.5578 106.584C62.2678 77.1247 47.0878 95.5948 35.2342 108.564C36.7027 107.092 38.2537 105.528 39.7519 104.02C52.4536 91.2322 52.5229 91.2322 52.8199 91.2322C53.6086 91.5061 53.2819 91.7866 52.1962 93.1099C47.266 98.8651 40.3987 106.389 35.0362 112.455C37.2406 110.234 39.8245 107.604 42.2698 105.119C54.4369 92.7403 55.087 92.1859 55.4698 92.1859C56.2816 92.4928 55.9945 92.6743 54.6613 94.3078C49.5001 100.314 42.3853 108.079 36.6895 114.468C39.8212 111.432 58.9183 91.7734 57.5323 93.7237C57.6383 93.724 57.74 93.7654 57.8161 93.8392C58.1857 94.3903 57.5125 94.6708 57.199 95.1592C51.5065 101.621 43.9264 109.907 37.9996 116.636C39.8443 114.798 41.9794 112.662 44.0881 110.521C59.4892 95.2648 58.7731 95.2813 59.7895 95.5387C60.103 95.8489 59.905 96.0832 58.7995 97.3801C53.404 103.614 45.8404 111.834 40.0126 118.375C42.6724 115.708 45.8701 112.464 48.7411 109.551C60.8653 97.2514 60.9511 97.2514 61.2811 97.2514C61.3881 97.2515 61.4909 97.2929 61.5682 97.3669C61.8982 97.6969 61.6606 97.9477 60.5782 99.2248C55.4764 105.138 48.4837 112.735 42.8572 119.025C44.593 117.276 46.4872 115.362 48.2956 113.53C61.7299 99.9376 62.4328 99.3403 62.7925 99.3403C63.6043 99.6208 63.2512 99.931 62.1028 101.347C56.8723 107.475 49.51 115.458 43.8076 121.889C48.817 116.939 65.4457 99.6142 64.4656 101.36C64.5739 101.358 64.6783 101.4 64.756 101.475C65.0629 101.779 64.9177 101.994 63.6307 103.538C59.1361 108.854 53.206 115.418 48.091 121.203C53.9749 115.359 65.6602 103.168 65.1718 104.304C65.7262 104.37 65.6503 104.881 65.284 105.241C60.9544 110.428 55.3411 116.745 50.5561 122.292C51.6121 121.226 52.7077 120.114 53.767 119.038C65.251 107.31 66.3499 106.313 65.7361 108.386C61.9444 113.068 56.8789 118.923 52.7308 123.896C54.9979 121.711 66.7657 109.481 65.9308 110.808C66.0367 110.808 66.1383 110.85 66.2146 110.923C66.5809 111.461 65.9044 111.804 65.6074 112.329C63.1291 115.504 59.905 119.474 57.0835 122.995C64.9177 115.075 65.6239 114.243 65.3995 115.893C64.6966 116.395 60.6772 120.513 57.5026 123.698C52.8232 128.417 52.8298 128.417 52.6021 128.417C51.985 128.232 52.0609 128.007 52.744 127.163C55.384 123.793 58.9183 119.464 61.819 115.834L59.6179 118.065C48.817 129.011 48.6982 129.011 48.3781 129.011C48.27 129.011 48.166 128.97 48.0877 128.895C47.7775 128.585 47.7775 128.585 50.9026 124.843C53.734 121.45 57.8722 116.57 60.9973 112.854C58.9447 114.913 56.5192 117.372 54.3346 119.586C44.8801 129.156 44.8273 129.156 44.5303 129.156L44.5369 129.162ZM64.8451 115.887C64.8917 115.931 64.9483 115.964 65.0101 115.982C64.9492 115.967 64.8927 115.937 64.8451 115.896V115.887ZM31.4194 97.9906C31.4715 97.9905 31.523 98.0006 31.5712 98.0204C31.6193 98.0402 31.663 98.0694 31.6999 98.1061C31.6411 98.0468 31.5649 98.0078 31.4824 97.9947C31.4 97.9817 31.3154 97.9953 31.2412 98.0335C31.2963 98.005 31.3574 97.9903 31.4194 97.9906ZM141.382 49.342C140.653 49.1275 141.478 48.5071 141.768 48.0913C144.844 44.4613 148.995 39.7522 152.354 35.8648C151.13 37.099 149.784 38.4652 148.493 39.7687C139.636 48.7414 139.557 48.7414 139.329 48.7414C138.94 48.715 138.999 48.2959 139.214 48.0814C143.088 43.5241 148.427 37.693 152.51 32.9938C148.517 36.8251 140.507 45.6394 137.059 48.3091C136.475 48.1144 136.729 47.8768 137.488 46.9528C141.372 42.4285 146.933 36.3928 151.133 31.6408C147.715 35.0035 134.406 48.7183 135.442 47.2069C135.403 47.2076 135.364 47.2003 135.328 47.1856C135.291 47.1709 135.258 47.1489 135.231 47.1211C134.841 46.5205 137.109 44.6461 137.94 43.4911C141.092 39.9436 145.804 34.7593 149.196 30.9676C123.608 57.2224 134.584 43.996 148.045 29.4364C146.032 31.4461 143.633 33.8617 141.474 36.0364C132.842 44.7352 132.812 44.7352 132.601 44.7352C132.565 44.7405 132.529 44.7386 132.495 44.7295C132.46 44.7204 132.428 44.7044 132.399 44.6824C132.112 44.0818 133.013 43.5802 133.442 42.9004C136.627 39.1714 140.851 34.5217 144.501 30.4495C141.606 33.2578 133.158 42.2305 131.485 43.2139C130.746 42.9895 131.571 42.3658 131.871 41.9467C135.792 37.4389 141.399 31.3273 145.563 26.6215C123.374 49.5367 127.591 43.4515 143.164 26.4136C120.028 49.9789 130.093 38.2276 142.042 24.8395C140.194 26.5951 128.842 38.32 129.268 37.5247C129.19 37.5245 129.115 37.4937 129.06 37.4389C128.776 36.9934 129.406 36.67 129.687 36.2047C132.36 32.9839 135.894 28.8952 138.891 25.3807C124.806 40.0294 126.898 36.5149 136.307 25.3279C126.925 35.1322 128.109 32.8024 132.812 26.1265C131.904 27.0406 131.885 27.0406 131.759 27.0406C131.696 27.0409 131.635 27.0208 131.585 26.9833C131.534 26.9458 131.497 26.893 131.48 26.8327C131.462 26.7725 131.464 26.7081 131.486 26.6491C131.508 26.5902 131.548 26.54 131.601 26.506C131.898 26.3014 134.571 23.3842 134.571 23.6647C135.818 23.6251 131.294 29.0338 130.941 29.8885C132.297 28.6147 139.946 20.5891 139.494 21.4207C139.993 21.5692 139.867 21.7771 139.326 22.4569C137.141 25.2289 134.195 28.7566 131.799 31.6969C132.924 30.5584 134.237 29.2219 135.482 27.958C142.431 20.8828 142.501 20.8828 142.742 20.8828C143.118 20.9059 143.091 21.3151 142.867 21.5131C140.062 24.9088 136.373 29.1328 133.297 32.7661C154.259 11.2567 143.237 24.7174 134.528 34.2247C158.311 9.97301 144.543 25.9747 134.389 37.0792C136.006 35.4457 137.904 33.5185 139.696 31.6936C148.625 22.6087 149.101 22.2061 149.378 22.2028C149.418 22.2027 149.457 22.2105 149.494 22.2258C149.531 22.2411 149.564 22.2636 149.592 22.2919C149.82 22.5163 149.711 22.6648 148.787 23.7604C144.999 28.1692 139.778 33.865 135.587 38.5543C137.897 36.3268 151.902 21.9025 150.883 23.3347C150.922 23.3344 150.961 23.3418 150.997 23.3565C151.033 23.3713 151.066 23.393 151.094 23.4205C151.407 24.0013 149.876 25.0705 149.302 25.9021C145.583 30.07 140.392 35.8021 136.551 40.1482C162.855 13.3027 151.869 26.3872 138.042 41.4022C139.993 39.4453 142.332 37.066 144.448 34.9276C153.358 25.9021 153.407 25.9021 153.648 25.9021C153.687 25.9018 153.726 25.9092 153.762 25.9239C153.799 25.9387 153.831 25.9604 153.859 25.9879C154.226 26.6479 151.902 28.5619 151.025 29.7664C147.979 33.1984 143.468 38.1616 140.135 41.8873C165.571 15.8173 153.275 30.4924 140.831 43.9795C160.439 23.6416 161.175 24.4699 143.973 43.4779C163.773 23.1202 157.44 31.1755 145.784 44.2765C164.363 25.153 156.232 35.2081 147.378 45.4579C149.045 43.8508 157.674 34.8814 157.067 35.8516C158.037 36.0958 155.978 37.8316 155.539 38.6071C154.16 40.3396 152.17 42.808 150.573 44.7946C156.512 38.9734 155.984 38.9866 156.678 39.1846C157.008 39.739 153.031 42.874 150.883 45.3193C147.451 48.7843 147.451 48.7843 147.286 48.7843C147.247 48.7844 147.209 48.7768 147.173 48.7621C147.138 48.7474 147.105 48.7258 147.078 48.6985C146.886 48.5104 146.962 48.4114 147.388 47.8636C149.338 45.3919 151.922 42.214 154.047 39.5509C148.131 45.4909 144.233 49.6159 144.187 49.2199C144.147 49.2207 144.108 49.2135 144.071 49.1987C144.034 49.184 144.001 49.162 143.973 49.1341C143.745 48.9064 143.745 48.9064 146.038 46.1641C148.114 43.6759 151.153 40.0954 153.447 37.3663C151.939 38.8777 150.147 40.6663 148.556 42.3163C141.626 49.3486 141.58 49.3486 141.362 49.3486L141.382 49.342ZM156.285 39.6004C156.319 39.6342 156.361 39.6592 156.407 39.673C156.361 39.6586 156.319 39.6337 156.285 39.6004ZM131.756 26.4631C131.833 26.4625 131.908 26.4921 131.964 26.5456C131.92 26.5047 131.866 26.4778 131.807 26.4684C131.748 26.459 131.688 26.4675 131.634 26.4928C131.672 26.4752 131.714 26.4651 131.756 26.4631ZM247.52 120.767C247.031 120.625 247.583 120.213 247.777 119.936C249.82 117.527 252.579 114.392 254.81 111.808C238.97 128.001 248.117 117.401 254.909 109.907C252.269 112.455 246.932 118.312 244.642 120.087C244.253 119.959 244.418 119.804 244.926 119.187C247.507 116.18 251.196 112.174 253.994 109.009C238.405 125.014 241.949 120.266 252.707 108.57C235.848 125.882 243.012 117.193 251.942 107.554C250.622 108.874 249.012 110.494 247.576 111.94C241.837 117.721 241.818 117.721 241.679 117.721C241.365 117.672 241.468 117.391 241.679 117.147C243.989 114.355 246.926 111.181 249.572 108.204C247.649 110.072 242.032 116.032 240.923 116.688C240.431 116.54 240.979 116.124 241.181 115.847C243.784 112.851 247.51 108.788 250.279 105.663C235.65 120.784 238.399 116.778 248.685 105.525C233.389 121.107 240.002 113.359 247.939 104.478C246.708 105.643 239.168 113.435 239.448 112.907C238.953 112.758 239.531 112.323 239.729 112.029C241.504 109.887 243.854 107.175 245.844 104.835C236.541 114.527 237.9 112.191 244.128 104.802C237.923 111.306 238.696 109.752 241.817 105.336C241.088 105.996 241.293 105.996 240.979 105.888C240.795 105.498 241.56 105.181 241.989 104.614C242.893 103.7 242.893 103.7 242.979 103.7C243.738 103.838 240.844 107.168 240.577 107.838C250.147 97.9213 246.23 102.977 241.144 109.049C252.727 97.0699 248.817 102.159 242.134 109.762C255.994 95.5453 248.734 104.422 242.953 110.729C258.598 94.7632 249.619 105.261 242.86 112.626C258.991 95.9842 253.061 103.432 243.662 113.616C245.19 112.138 254.506 102.551 253.829 103.502C254.272 103.617 253.849 103.98 253.668 104.201C250.889 107.353 247.193 111.395 244.302 114.675C261.654 96.9577 254.466 105.561 245.292 115.51C260.558 99.7825 257.502 104.099 246.682 115.84C263.442 98.6572 255.41 108.29 247.144 117.233C260.116 103.766 260.611 104.343 249.233 116.903C262.274 103.475 258.143 108.772 250.437 117.434C262.703 104.799 257.367 111.422 251.496 118.22C252.602 117.15 258.341 111.187 257.935 111.834C258.852 111.9 254.1 116.919 253.622 117.774C257.582 113.907 257.219 113.916 257.677 114.039C257.793 114.527 255.318 116.415 253.826 118.117C251.546 120.427 251.546 120.427 251.437 120.427C250.5 120.408 255.499 115.101 255.932 114.289C244.128 126.43 250.533 118.579 255.529 112.837C254.539 113.827 253.344 115.038 252.279 116.121C247.658 120.794 247.658 120.794 247.5 120.794L247.52 120.767ZM257.42 114.293C257.442 114.314 257.469 114.33 257.499 114.339C257.471 114.329 257.445 114.313 257.423 114.293H257.42ZM241.118 105.558C241.169 105.558 241.219 105.578 241.256 105.614C241.227 105.585 241.189 105.567 241.148 105.561C241.107 105.555 241.065 105.562 241.029 105.581C241.058 105.566 241.089 105.559 241.121 105.558H241.118Z" fill="#5BCAF4"/>
</g>
</g>
<g style="mix-blend-mode:multiply" opacity="0.5">
<path d="M11.3125 86.4686C25.2921 78.2975 39.9994 71.4404 55.2454 65.9855C41.2655 74.156 26.5583 81.0131 11.3125 86.4686ZM75.052 40.4864C89.2602 32.759 103.933 25.9172 118.985 20C104.776 27.7262 90.1038 34.568 75.052 40.4864ZM229.726 128.468C238.927 123.408 248.455 118.965 258.245 115.169C249.044 120.229 239.517 124.672 229.726 128.468Z" fill="#5BCAF4"/>
</g>
<path d="M170.9 40.5391H92.9899C90.8796 40.5321 88.8525 41.3616 87.3526 42.8461C85.8527 44.3305 85.0022 46.3489 84.9874 48.4591V53.4982C84.7465 55.2835 85.1623 179.377 84.9874 181.146C85.0022 183.256 85.8527 185.274 87.3526 186.759C88.8525 188.243 90.8796 189.073 92.9899 189.066H170.9C173.01 189.073 175.036 188.243 176.536 186.758C178.035 185.274 178.885 183.255 178.899 181.146C178.757 179.166 179.004 55.4155 178.899 53.5048V48.4723C178.888 46.3601 178.04 44.3383 176.54 42.8509C175.041 41.3635 173.012 40.5321 170.9 40.5391ZM177.447 181.155C177.437 182.883 176.742 184.537 175.515 185.753C174.287 186.97 172.628 187.649 170.9 187.643H92.9899C91.2619 187.649 89.602 186.97 88.3745 185.753C87.1471 184.537 86.4523 182.883 86.4427 181.155V54.9535H177.447V181.155Z" fill="#197B7A"/>
<path d="M86.4453 181.147C86.4549 182.875 87.1497 184.529 88.3771 185.745C89.6046 186.962 91.2645 187.641 92.9925 187.635H170.902C172.63 187.641 174.29 186.962 175.518 185.745C176.745 184.529 177.44 182.875 177.449 181.147V54.9453H86.4453V181.147Z" fill="#E3F3F6"/>
<path d="M169.816 48.0103C169.859 50.9407 165.216 50.9407 165.262 48.0103C165.216 45.0799 169.859 45.0799 169.816 48.0103Z" fill="#87C540"/>
<path d="M161.855 48.0103C161.898 50.9407 157.255 50.9407 157.301 48.0103C157.258 45.0799 161.898 45.0799 161.855 48.0103Z" fill="#FCB316"/>
<path d="M153.898 48.0103C153.941 50.9407 149.298 50.9407 149.344 48.0103C149.301 45.0799 153.941 45.0799 153.898 48.0103Z" fill="#F26767"/>
<path d="M103.631 92.5547C93.0508 92.7428 93.0706 108.322 103.631 108.51C114.207 108.319 114.204 92.7395 103.631 92.5547ZM103.631 106.23C96.0736 106.095 96.0769 94.967 103.631 94.8317C111.184 94.967 111.184 106.095 103.631 106.23ZM116.388 95.6204H148.913V99.3692H116.388V95.6204ZM116.388 101.692H168.311V105.441H116.388V101.692ZM103.631 129.888C93.0706 129.699 93.0706 114.12 103.631 113.932C114.207 114.12 114.204 129.699 103.631 129.888ZM103.631 116.212C96.0736 116.348 96.0769 127.475 103.631 127.607C111.184 127.472 111.184 116.344 103.631 116.212ZM116.388 116.998H148.913V120.747H116.388V116.998ZM116.388 123.073H168.311V126.822H116.388V123.073ZM103.631 151.275C93.0706 151.083 93.0706 135.507 103.631 135.319C114.207 135.501 114.204 151.08 103.631 151.275ZM103.631 137.596C96.0736 137.732 96.0769 148.859 103.631 148.995C111.184 148.853 111.184 137.725 103.631 137.59V137.596ZM116.388 138.378H148.913V142.127H116.388V138.378ZM116.388 144.45H168.311V148.199H116.388V144.45ZM103.631 172.646C93.0706 172.458 93.0706 156.878 103.631 156.69C114.207 156.885 114.204 172.458 103.631 172.646ZM103.631 158.97C96.0736 159.106 96.0769 170.233 103.631 170.369C111.184 170.233 111.184 159.106 103.631 158.97ZM116.388 159.756H148.913V163.505H116.388V159.756ZM116.388 165.831H168.311V169.58H116.388V165.831Z" fill="#7BB5B8"/>
<path d="M111.679 100.907C111.498 111.392 95.7602 111.392 95.582 100.907C95.7701 90.4267 111.501 90.4267 111.679 100.907Z" fill="#197B7A"/>
<path opacity="0.8" d="M102.193 105.129C101.748 105.31 98.9957 102.423 98.6459 102.215C97.8242 101.489 98.9759 100.235 99.7877 100.977L102.098 103.076L107.378 96.7366C108.058 95.8918 109.394 96.9709 108.698 97.8058C108.434 97.9378 102.54 105.66 102.193 105.129Z" fill="white"/>
<path d="M111.679 121.907C111.498 132.392 95.7602 132.392 95.582 121.907C95.7701 111.427 111.501 111.427 111.679 121.907Z" fill="#197B7A"/>
<path opacity="0.8" d="M102.193 126.524C101.748 126.706 98.9957 123.818 98.6459 123.61C97.8242 122.884 98.9759 121.63 99.7877 122.373L102.098 124.472L107.378 118.136C108.058 117.291 109.394 118.367 108.698 119.201C108.434 119.32 102.54 127.042 102.193 126.524Z" fill="white"/>
<path d="M111.679 143.285C111.498 153.772 95.7602 153.769 95.582 143.285C95.7701 132.791 111.501 132.791 111.679 143.285Z" fill="#197B7A"/>
<path opacity="0.8" d="M102.193 147.885C101.748 148.066 98.9957 145.179 98.6459 144.971C97.8242 144.245 98.9759 142.991 99.7877 143.734L102.098 145.832L107.378 139.493C108.058 138.652 109.394 139.727 108.698 140.562C108.434 140.711 102.54 148.416 102.193 147.885Z" fill="white"/>
<path d="M111.679 164.67C111.498 175.158 95.7602 175.154 95.582 164.67C95.7701 154.183 111.501 154.183 111.679 164.67Z" fill="#197B7A"/>
<path opacity="0.8" d="M102.193 169.266C101.748 169.448 98.9957 166.564 98.6459 166.356C97.8242 165.626 98.9759 164.376 99.7877 165.115L102.098 167.217L107.378 160.878C108.058 160.033 109.394 161.109 108.698 161.947C108.434 162.079 102.54 169.801 102.193 169.266Z" fill="white"/>
<path d="M121.891 72.3394V73.7094H120.031V79.3594H118.321V73.7094H116.461V72.3394H121.891ZM127.119 78.1194H124.499L124.079 79.3594H122.289L124.829 72.3394H126.809L129.349 79.3594H127.539L127.119 78.1194ZM126.679 76.7994L125.809 74.2294L124.949 76.7994H126.679ZM132.662 79.4294C132.149 79.4294 131.689 79.346 131.282 79.1794C130.875 79.0127 130.549 78.766 130.302 78.4394C130.062 78.1127 129.935 77.7194 129.922 77.2594H131.742C131.769 77.5194 131.859 77.7194 132.012 77.8594C132.165 77.9927 132.365 78.0594 132.612 78.0594C132.865 78.0594 133.065 78.0027 133.212 77.8894C133.359 77.7694 133.432 77.606 133.432 77.3994C133.432 77.226 133.372 77.0827 133.252 76.9694C133.139 76.856 132.995 76.7627 132.822 76.6894C132.655 76.616 132.415 76.5327 132.102 76.4394C131.649 76.2994 131.279 76.1594 130.992 76.0194C130.705 75.8794 130.459 75.6727 130.252 75.3994C130.045 75.126 129.942 74.7694 129.942 74.3294C129.942 73.676 130.179 73.166 130.652 72.7994C131.125 72.426 131.742 72.2394 132.502 72.2394C133.275 72.2394 133.899 72.426 134.372 72.7994C134.845 73.166 135.099 73.6794 135.132 74.3394H133.282C133.269 74.1127 133.185 73.936 133.032 73.8094C132.879 73.676 132.682 73.6094 132.442 73.6094C132.235 73.6094 132.069 73.666 131.942 73.7794C131.815 73.886 131.752 74.0427 131.752 74.2494C131.752 74.476 131.859 74.6527 132.072 74.7794C132.285 74.906 132.619 75.0427 133.072 75.1894C133.525 75.3427 133.892 75.4894 134.172 75.6294C134.459 75.7694 134.705 75.9727 134.912 76.2394C135.119 76.506 135.222 76.8494 135.222 77.2694C135.222 77.6694 135.119 78.0327 134.912 78.3594C134.712 78.686 134.419 78.946 134.032 79.1394C133.645 79.3327 133.189 79.4294 132.662 79.4294ZM140.344 79.3594L137.984 76.2594V79.3594H136.274V72.3394H137.984V75.4194L140.324 72.3394H142.334L139.614 75.7794L142.434 79.3594H140.344ZM145.787 79.4294C145.274 79.4294 144.814 79.346 144.407 79.1794C144 79.0127 143.674 78.766 143.427 78.4394C143.187 78.1127 143.06 77.7194 143.047 77.2594H144.867C144.894 77.5194 144.984 77.7194 145.137 77.8594C145.29 77.9927 145.49 78.0594 145.737 78.0594C145.99 78.0594 146.19 78.0027 146.337 77.8894C146.484 77.7694 146.557 77.606 146.557 77.3994C146.557 77.226 146.497 77.0827 146.377 76.9694C146.264 76.856 146.12 76.7627 145.947 76.6894C145.78 76.616 145.54 76.5327 145.227 76.4394C144.774 76.2994 144.404 76.1594 144.117 76.0194C143.83 75.8794 143.584 75.6727 143.377 75.3994C143.17 75.126 143.067 74.7694 143.067 74.3294C143.067 73.676 143.304 73.166 143.777 72.7994C144.25 72.426 144.867 72.2394 145.627 72.2394C146.4 72.2394 147.024 72.426 147.497 72.7994C147.97 73.166 148.224 73.6794 148.257 74.3394H146.407C146.394 74.1127 146.31 73.936 146.157 73.8094C146.004 73.676 145.807 73.6094 145.567 73.6094C145.36 73.6094 145.194 73.666 145.067 73.7794C144.94 73.886 144.877 74.0427 144.877 74.2494C144.877 74.476 144.984 74.6527 145.197 74.7794C145.41 74.906 145.744 75.0427 146.197 75.1894C146.65 75.3427 147.017 75.4894 147.297 75.6294C147.584 75.7694 147.83 75.9727 148.037 76.2394C148.244 76.506 148.347 76.8494 148.347 77.2694C148.347 77.6694 148.244 78.0327 148.037 78.3594C147.837 78.686 147.544 78.946 147.157 79.1394C146.77 79.3327 146.314 79.4294 145.787 79.4294Z" fill="#7BB5B8"/>
<path d="M121.891 71.98V73.35H120.031V79H118.321V73.35H116.461V71.98H121.891ZM127.119 77.76H124.499L124.079 79H122.289L124.829 71.98H126.809L129.349 79H127.539L127.119 77.76ZM126.679 76.44L125.809 73.87L124.949 76.44H126.679ZM132.662 79.07C132.149 79.07 131.689 78.9867 131.282 78.82C130.875 78.6533 130.549 78.4067 130.302 78.08C130.062 77.7533 129.935 77.36 129.922 76.9H131.742C131.769 77.16 131.859 77.36 132.012 77.5C132.165 77.6333 132.365 77.7 132.612 77.7C132.865 77.7 133.065 77.6433 133.212 77.53C133.359 77.41 133.432 77.2467 133.432 77.04C133.432 76.8667 133.372 76.7233 133.252 76.61C133.139 76.4967 132.995 76.4033 132.822 76.33C132.655 76.2567 132.415 76.1733 132.102 76.08C131.649 75.94 131.279 75.8 130.992 75.66C130.705 75.52 130.459 75.3133 130.252 75.04C130.045 74.7667 129.942 74.41 129.942 73.97C129.942 73.3167 130.179 72.8067 130.652 72.44C131.125 72.0667 131.742 71.88 132.502 71.88C133.275 71.88 133.899 72.0667 134.372 72.44C134.845 72.8067 135.099 73.32 135.132 73.98H133.282C133.269 73.7533 133.185 73.5767 133.032 73.45C132.879 73.3167 132.682 73.25 132.442 73.25C132.235 73.25 132.069 73.3067 131.942 73.42C131.815 73.5267 131.752 73.6833 131.752 73.89C131.752 74.1167 131.859 74.2933 132.072 74.42C132.285 74.5467 132.619 74.6833 133.072 74.83C133.525 74.9833 133.892 75.13 134.172 75.27C134.459 75.41 134.705 75.6133 134.912 75.88C135.119 76.1467 135.222 76.49 135.222 76.91C135.222 77.31 135.119 77.6733 134.912 78C134.712 78.3267 134.419 78.5867 134.032 78.78C133.645 78.9733 133.189 79.07 132.662 79.07ZM140.344 79L137.984 75.9V79H136.274V71.98H137.984V75.06L140.324 71.98H142.334L139.614 75.42L142.434 79H140.344ZM145.787 79.07C145.274 79.07 144.814 78.9867 144.407 78.82C144 78.6533 143.674 78.4067 143.427 78.08C143.187 77.7533 143.06 77.36 143.047 76.9H144.867C144.894 77.16 144.984 77.36 145.137 77.5C145.29 77.6333 145.49 77.7 145.737 77.7C145.99 77.7 146.19 77.6433 146.337 77.53C146.484 77.41 146.557 77.2467 146.557 77.04C146.557 76.8667 146.497 76.7233 146.377 76.61C146.264 76.4967 146.12 76.4033 145.947 76.33C145.78 76.2567 145.54 76.1733 145.227 76.08C144.774 75.94 144.404 75.8 144.117 75.66C143.83 75.52 143.584 75.3133 143.377 75.04C143.17 74.7667 143.067 74.41 143.067 73.97C143.067 73.3167 143.304 72.8067 143.777 72.44C144.25 72.0667 144.867 71.88 145.627 71.88C146.4 71.88 147.024 72.0667 147.497 72.44C147.97 72.8067 148.224 73.32 148.257 73.98H146.407C146.394 73.7533 146.31 73.5767 146.157 73.45C146.004 73.3167 145.807 73.25 145.567 73.25C145.36 73.25 145.194 73.3067 145.067 73.42C144.94 73.5267 144.877 73.6833 144.877 73.89C144.877 74.1167 144.984 74.2933 145.197 74.42C145.41 74.5467 145.744 74.6833 146.197 74.83C146.65 74.9833 147.017 75.13 147.297 75.27C147.584 75.41 147.83 75.6133 148.037 75.88C148.244 76.1467 148.347 76.49 148.347 76.91C148.347 77.31 148.244 77.6733 148.037 78C147.837 78.3267 147.544 78.5867 147.157 78.78C146.77 78.9733 146.314 79.07 145.787 79.07Z" fill="#197B7A"/>
</g>
<defs>
<clipPath id="clip0_20981_299538">
<rect width="264" height="205" fill="white" transform="translate(0.5)"/>
</clipPath>
</defs>
</svg>
