<svg xmlns="http://www.w3.org/2000/svg" width="722" height="525" viewBox="0 0 722 525" fill="none">
<path fill-rule="evenodd" clip-rule="evenodd" d="M386.148 115.32C436.219 120.035 527.819 57.8819 577.621 63.6933C647.513 71.8489 690.504 110.754 717.23 153.954C743.578 196.544 649.325 213.679 629.121 257.693C608.229 303.207 647.35 381.176 597.197 415.446C544.987 451.121 457.326 538.402 386.148 522.193C315.019 505.996 318.92 369.461 260.019 338.664C205.821 310.326 50.0475 420.64 11.1216 383C-28.1405 345.035 47.1688 200.43 72.9464 157.77C97.7779 116.677 120.206 48.6273 186.121 39.6934C251.249 30.8662 320.322 109.122 386.148 115.32Z" fill="#FAFAFA"/>
<g clip-path="url(#clip0_1213_373464)">
<path d="M570.504 416.796H118.42C106.4 416.796 96.6211 407.012 96.6211 394.985V99.8116C96.6211 87.7848 106.4 78 118.42 78H570.504C582.524 78 592.303 87.7848 592.303 99.8116V394.985C592.303 407.012 582.524 416.796 570.504 416.796Z" fill="white"/>
<path d="M570.504 416.796H118.42C106.4 416.796 96.6211 407.012 96.6211 394.985V99.8116C96.6211 87.7848 106.4 78 118.42 78H570.504C582.524 78 592.303 87.7848 592.303 99.8116V394.985C592.303 407.012 582.524 416.796 570.504 416.796ZM118.42 79.8967C107.428 79.8967 98.5166 88.8129 98.5166 99.8116V394.985C98.5166 405.983 107.428 414.9 118.42 414.9H570.504C581.496 414.9 590.407 405.983 590.407 394.985V206.739C590.407 136.686 533.652 79.8967 463.64 79.8967H118.42Z" fill="#F2F2F2"/>
<path d="M238.4 123.828H205.685C203.416 123.828 201.57 121.981 201.57 119.711C201.57 117.44 203.416 115.593 205.685 115.593H238.4C240.669 115.593 242.515 117.44 242.515 119.711C242.515 121.981 240.669 123.828 238.4 123.828Z" fill="#E6E6E6"/>
<path d="M412.697 116.005H379.983C377.937 116.005 376.279 117.664 376.279 119.711C376.279 121.757 377.937 123.416 379.983 123.416H412.697C414.743 123.416 416.401 121.757 416.401 119.711C416.401 117.664 414.743 116.005 412.697 116.005Z" fill="#112D57"/>
<path d="M365.787 123.828H333.072C330.803 123.828 328.957 121.981 328.957 119.711C328.957 117.44 330.803 115.593 333.072 115.593H365.787C368.055 115.593 369.902 117.44 369.902 119.711C369.902 121.981 368.055 123.828 365.787 123.828Z" fill="#E6E6E6"/>
<path d="M445.401 377.301H156.272C144.253 377.301 134.474 367.516 134.474 355.489V183.841C134.474 171.814 144.253 162.029 156.272 162.029H445.401C457.421 162.029 467.2 171.814 467.2 183.841V355.489C467.2 367.516 457.421 377.301 445.401 377.301Z" fill="#F2F2F2"/>
<path d="M540.77 257.409L529.011 244.131L513.399 260.991L479.687 246.182C479.08 243.001 476.43 240.478 473.047 240.189C468.971 239.841 465.385 242.865 465.037 246.943C464.689 251.021 467.711 254.61 471.787 254.958C472.829 255.047 473.838 254.913 474.77 254.6L516.47 277.9L540.77 257.409Z" fill="#FFB6B6"/>
<path d="M550.83 239.331C549.918 238.042 549.606 236.209 549.299 234.696C549.033 233.386 548.105 232.277 546.771 231.955C546.213 231.821 545.854 231.474 545.306 231.314C544.73 231.147 544.143 231.008 543.564 230.852C542.131 230.467 540.548 230.058 539.074 230.474C537.177 231.01 535.699 232.408 534.285 233.681C533.765 234.149 533.498 234.796 533.021 235.283C532.806 235.503 532.556 235.605 532.364 235.861C532.079 236.241 532.019 236.732 531.728 237.1C531.481 237.413 531.136 237.583 530.934 237.936C530.725 238.301 530.576 238.623 530.308 238.962C529.788 239.62 529.138 240.059 528.557 240.644C527.955 241.249 527.374 241.906 526.783 242.525C526.109 243.232 525.703 244.124 525.053 244.822C524.086 245.859 523.259 247.074 522.319 248.16C521.714 248.857 521.169 249.478 520.412 250.014C520.048 250.272 519.839 250.69 519.477 250.919C519.104 251.155 518.479 251.365 518.058 251.557C517.583 251.775 516.68 251.787 516.417 252.312C516.171 252.803 516.549 253.207 516.889 253.485C517.122 253.675 517.749 253.933 517.531 254.312C517.399 254.543 516.387 254.677 516.127 254.769C515.157 255.111 514.492 256.009 513.701 256.656C512.819 257.377 513.231 257.555 513.888 258.225C514.121 258.463 514.17 258.673 514.484 258.828C514.776 258.972 515.203 259.004 515.52 259.088C516.22 259.275 516.918 259.464 517.617 259.652L522.21 260.886L526.889 262.143C527.954 262.43 529.02 262.713 530.084 263.002C530.615 263.145 531.143 263.327 531.687 263.412C532.159 263.485 532.935 263.676 533.406 263.611C534.107 263.513 535.256 262.664 535.716 262.174C536.225 261.63 536.582 261.03 537.128 260.504C538.296 259.38 539.092 258.007 539.822 256.56C540.252 255.706 540.818 254.94 541.263 254.098C541.642 253.379 541.903 252.606 542.292 251.892C542.99 250.611 543.619 249.304 544.281 248.004C544.662 247.257 545.054 246.52 545.443 245.78C545.874 244.961 546.432 244.258 546.935 243.483C547.357 242.833 547.844 242.094 548.412 241.582C549.134 240.929 549.913 240.231 550.545 239.496" fill="#112D57"/>
<path d="M537.746 484.221L530.732 486.358L519.154 460.304L529.507 457.15L537.746 484.221Z" fill="#FFB6B6"/>
<path d="M540.221 491.467L518.652 498.04L518.569 497.767C517.157 493.128 519.77 488.222 524.407 486.808L527.437 482.616L535.698 483.367L537.581 482.793L540.221 491.467Z" fill="#2F2E41"/>
<path d="M568.961 490.386L561.629 490.386L558.141 462.087L568.962 462.088L568.961 490.386Z" fill="#FFB6B6"/>
<path d="M569.219 498.04L546.671 498.039V497.754C546.671 492.904 550.6 488.973 555.447 488.973L559.566 485.846L567.251 488.973L569.219 488.973L569.219 498.04Z" fill="#2F2E41"/>
<path d="M586.465 317.951L585.065 319.352C577.627 319.352 569.734 320.133 562.374 319.193C558.523 318.702 554.659 317.928 550.791 317.951C547.88 317.969 544.968 317.951 542.057 317.951C540.181 317.951 538.298 317.908 536.422 317.945C533.001 318.014 531.072 320.623 529.813 323.515C528.437 326.677 525.815 329.023 524.334 332.13C522.855 335.232 521.36 338.137 519.626 341.129C514.087 350.687 509.495 360.588 505.104 370.649C503.881 373.452 502.475 376.14 501.102 378.858C500.266 380.512 499.704 381.353 499.668 383.218C499.627 385.385 499.749 387.24 500.373 389.327C501.091 391.733 502.17 394.031 502.848 396.418C503.3 398.006 503.256 399.437 503.879 400.968C504.284 401.965 504.874 403.028 505.123 404.074C505.655 406.306 506.009 408.771 505.979 411.091C505.946 413.655 506.863 415.611 507.57 418.06C508.42 421.001 507.897 423.689 509.302 426.516C509.886 427.689 510.053 428.513 510.336 429.791C510.749 431.656 511.718 433.268 512.304 435.048C514.384 441.366 514.196 448.147 514.361 454.687C514.431 457.458 515.075 460.095 515.077 462.929C515.079 465.215 514.752 467.702 515.394 469.898C516.058 472.17 516.9 475.745 519.596 475.549C522.93 475.305 526.471 474.549 529.793 473.962C531.04 473.741 533.472 473.322 534.543 472.63C536.556 471.328 535.481 470.214 535.676 468.341C535.742 467.713 536.569 466.565 536.518 465.888C536.451 464.99 535.674 464.434 535.491 463.615C535.215 462.385 535.385 462.354 535.545 461.32C535.858 459.306 536.245 460.022 534.846 458.203C533.367 456.281 533.974 453.269 533.974 450.888V442.664C533.974 440.639 533.975 438.615 533.974 436.591C533.971 433.578 533.242 430.744 533.276 427.764C533.315 424.444 533.418 421.067 533.307 417.752C533.241 415.768 532.196 414.362 531.838 412.475C531.53 410.851 531.254 409.261 530.823 407.609C530.371 405.874 529.939 404.354 529.25 402.723C528.373 400.647 528.521 398.462 527.677 396.387C526.934 394.559 527.018 393.025 526.983 391.106C526.956 389.597 526.214 388.214 526.209 386.732C526.197 383.305 530.901 378.5 533.188 376.136C536.184 373.04 539.479 370.188 542.37 366.994C543.634 365.598 544.914 364.45 546.248 363.14C547.487 361.922 548.288 360.355 549.527 359.113C551.199 357.436 552.644 355.527 554.115 353.666C555.268 352.207 556.018 350.181 557.312 348.876C557.749 350.218 557.129 351.75 557.066 353.135C556.965 355.363 556.764 357.395 556.377 359.599C555.739 363.23 555.106 366.819 554.62 370.465C553.84 376.323 552.876 382.148 552.87 388.02C552.861 398.159 552.87 408.298 552.87 418.437C552.87 427.244 552.687 436.076 552.854 444.881C552.903 447.453 553.673 449.827 553.598 452.458C553.822 453.209 553.722 453.898 553.295 454.527C552.973 454.736 552.651 454.944 552.329 455.153C551.454 456.502 551.226 457.333 551.581 458.903C551.974 460.633 553.863 462.435 553.623 464.313C553.498 465.287 552.885 465.81 552.913 466.798C552.953 468.185 553.447 469.229 553.252 470.716C554.677 472.048 556.43 471.076 557.959 470.769C559.192 470.522 560.403 470.76 561.627 470.557C563.058 470.32 563.995 469.89 565.475 469.909C566.64 469.924 567.806 469.926 568.97 469.913C572.35 469.876 573.396 468.259 573.864 464.959C574.121 463.152 575.378 462.55 575.863 460.864C576.399 459.004 576.004 456.38 575.617 454.563C575.098 452.129 575.565 449.8 575.303 447.35C575.004 444.56 573.913 441.924 573.851 439.103C573.745 434.335 573.245 428.906 573.831 424.188C573.96 423.147 574.474 422.267 574.594 421.238C574.695 420.372 574.495 419.65 574.722 418.792C575.52 415.774 575.784 412.498 576.579 409.394C577.275 406.677 577.377 404.071 577.894 401.32C578.276 399.288 578.677 396.982 578.802 394.915C578.883 393.584 578.612 392.297 578.905 390.974C579.228 389.52 580.02 388.273 580.2 386.772C580.359 385.44 580.067 384.045 580.14 382.702C580.212 381.356 580.793 380.238 580.885 378.909C581.037 376.718 581.215 374.723 581.741 372.554C583.525 365.206 585.019 357.725 587.173 350.482C588.905 344.656 589.964 338.74 589.964 332.657C589.964 329.861 591.302 316.91 586.465 317.951Z" fill="#2F2E41"/>
<path d="M502.564 209.241H213.434C201.418 209.241 191.641 219.024 191.641 231.047V402.697C191.641 414.728 201.418 424.511 213.434 424.511H502.564C514.588 424.511 524.365 414.728 524.365 402.697V231.047C524.365 219.024 514.588 209.241 502.564 209.241Z" fill="white"/>
<path d="M502.564 424.51H213.435C201.416 424.51 191.637 414.726 191.637 402.699V231.051C191.637 219.024 201.416 209.239 213.435 209.239H502.564C514.584 209.239 524.363 219.024 524.363 231.051V402.699C524.363 414.726 514.584 424.51 502.564 424.51ZM213.435 211.136C202.443 211.136 193.532 220.052 193.532 231.051V402.699C193.532 413.698 202.443 422.614 213.435 422.614H502.564C513.557 422.614 522.467 413.698 522.467 402.699V337.978C522.467 267.925 465.712 211.136 395.701 211.136H213.435Z" fill="#3F3D56"/>
<path d="M572.17 215.708C570.193 215.708 567.687 216.057 565.741 215.604C563.897 215.174 561.973 214.758 560.038 214.774C558.604 214.786 556.5 214.366 555.157 214.771C553.573 215.25 552.792 217.504 552.212 218.881C551.593 220.349 550.699 221.412 549.763 222.712C548.165 224.929 547.815 228.946 544.652 229.654C542.585 230.116 548.117 229.714 545.976 229.714C544.027 229.714 541.514 229.397 539.773 230.497C537.65 231.839 537.54 235.121 536.927 237.262C536.543 238.606 535.75 240.074 535.154 241.361C534.404 242.982 533.988 244.55 533.028 246.054C532.127 247.466 531.717 249.206 530.941 250.723C530.628 251.336 530.253 251.967 529.973 252.601C529.499 253.676 529.616 254.793 529.215 255.882C529.018 256.419 528.783 256.564 528.596 257.001C528.212 257.901 528.095 258.635 528.007 259.631C527.873 261.127 528.545 261.911 528.961 263.319C529.45 264.974 530.293 266.398 530.847 268.021C531.464 269.83 531.158 271.571 531.619 273.37C532.273 275.917 534.072 278.417 534.232 281.07C534.325 282.631 534.707 284.171 534.685 285.737C534.659 287.608 534.676 289.479 534.674 291.349C534.673 292.61 534.8 293.78 534.335 294.971C533.804 296.335 533.793 297.214 533.752 298.692C533.693 300.789 532.547 302.67 532.317 304.775C532.231 305.566 532.396 306.407 532.352 307.204C532.28 308.49 531.846 309.628 531.864 310.948C531.908 314.153 531.792 315.886 534.687 317.734C536.483 318.881 538.407 319.262 540.379 319.947C542.797 320.786 545.779 320.285 548.335 320.285C551.573 320.285 554.824 320.191 558.06 320.25C563.372 320.348 568.542 321.684 573.866 321.686C574.675 321.686 575.484 321.678 576.293 321.684C577.5 321.693 578.34 321.407 579.477 321.195C580.32 321.038 581.405 321.22 582.266 321.219C583.537 321.218 584.319 321.028 585.51 320.739C586.613 320.471 587.939 320.745 588.819 319.77C589.916 318.556 589.899 316.927 590.172 315.489C590.464 313.955 591.171 313.023 591.14 311.38C591.12 310.269 590.936 308.889 591.107 307.784C591.25 306.859 590.189 306.034 590.378 305.13C590.576 304.175 590.418 303.064 590.418 302.079C590.419 300.244 590.781 297.87 590.324 296.097C589.997 294.831 590.924 262.383 591.336 261.46C591.769 260.491 591.789 259.445 592.003 258.426C592.647 255.368 591.502 251.791 592.699 248.866C593.609 246.644 593.166 243.794 593.166 241.385C593.166 239.6 593.456 237.568 593.199 235.809C592.891 233.692 591.275 233.727 589.513 233.087C588.168 232.599 587.208 232.49 585.803 232.513C584.348 232.537 583.038 232.049 581.57 232.037C580.627 232.029 579.515 232.238 578.596 231.976C577.1 231.549 575.637 229.546 574.936 228.209C574.182 226.773 574.271 225.253 573.934 223.75C573.704 222.729 573.701 221.919 573.592 220.878C573.437 219.409 572.628 216.848 571.703 215.708" fill="#112D57"/>
<path d="M583.252 263.856L571.925 250.207L555.78 266.557L522.56 250.675C522.056 247.476 519.488 244.869 516.116 244.472C512.053 243.993 508.372 246.901 507.893 250.966C507.415 255.031 510.321 258.715 514.383 259.193C515.422 259.315 516.434 259.214 517.376 258.931L558.308 283.556L583.252 263.856Z" fill="#FFB6B6"/>
<path d="M585.621 232.158C587.095 232.724 588.946 232.574 590.487 232.497C591.822 232.431 593.125 233.056 593.767 234.27C594.035 234.777 594.46 235.039 594.75 235.532C595.054 236.049 595.334 236.583 595.628 237.106C596.355 238.4 597.143 239.833 597.105 241.365C597.055 243.337 596.067 245.116 595.184 246.802C594.86 247.421 594.299 247.841 593.945 248.423C593.785 248.686 593.749 248.954 593.548 249.203C593.25 249.574 592.79 249.753 592.505 250.127C592.264 250.444 592.184 250.82 591.892 251.103C591.59 251.396 591.316 251.62 591.054 251.964C590.546 252.63 590.281 253.37 589.858 254.078C589.421 254.811 588.928 255.536 588.475 256.262C587.958 257.091 587.194 257.705 586.68 258.508C585.914 259.702 584.942 260.805 584.124 261.985C583.598 262.743 583.551 263.812 583.219 264.679C583.059 265.095 582.287 265.015 582.155 265.422C582.018 265.843 581.97 266.5 581.887 266.955C581.794 267.47 582.006 268.348 581.562 268.733C581.147 269.093 580.663 268.826 580.31 268.565C580.068 268.387 579.664 267.843 579.35 268.148C579.159 268.333 579.28 269.347 579.255 269.622C579.163 270.648 578.458 271.514 578.028 272.441C577.548 273.474 577.274 273.119 576.462 272.648C576.174 272.481 575.958 272.486 575.731 272.219C575.52 271.972 575.383 271.566 575.222 271.279C574.869 270.647 574.513 270.017 574.158 269.385L571.827 265.238L569.452 261.012C568.911 260.051 568.373 259.088 567.831 258.127C567.56 257.648 567.254 257.181 567.037 256.675C566.849 256.235 566.472 255.53 566.419 255.057C566.34 254.353 566.878 253.029 567.239 252.463C567.64 251.835 568.132 251.34 568.506 250.68C569.306 249.27 570.438 248.158 571.66 247.093C572.38 246.464 572.982 245.726 573.687 245.087C574.289 244.541 574.974 244.097 575.569 243.543C576.637 242.55 577.747 241.616 578.842 240.653C579.471 240.1 580.087 239.537 580.708 238.976C581.394 238.357 581.937 237.641 582.563 236.962C583.088 236.392 583.683 235.737 584.039 235.06C584.493 234.198 584.975 233.27 585.532 232.476" fill="#112D57"/>
<path d="M565.152 212.691C574.524 212.691 582.121 205.088 582.121 195.71C582.121 186.333 574.524 178.73 565.152 178.73C555.779 178.73 548.182 186.333 548.182 195.71C548.182 205.088 555.779 212.691 565.152 212.691Z" fill="#FFB6B6"/>
<path d="M582.046 207.311C580.195 209.627 578.614 210.985 576.064 211.955C576.023 211.602 576 211.244 576.006 210.885C575.653 211.367 575.306 211.849 574.948 212.331C573.362 212.819 571.423 213.201 568.914 213.589L567.68 209.821C567.486 208.116 568.614 206.546 569.872 205.376C571.129 204.212 572.598 203.213 573.462 201.731C574.325 200.25 574.313 198.039 572.874 197.11C571.458 196.187 569.513 196.946 567.915 196.399C566.07 195.77 565.206 193.512 565.512 191.584C565.817 189.656 566.987 187.992 568.121 186.41C565.477 187.563 561.475 187.71 557.58 187.022C557.721 185.805 557.427 184.529 556.693 183.547C556.622 184.67 556.099 185.752 555.277 186.51C551.534 185.505 548.185 183.718 546.657 181.307C547.333 181.131 548.009 180.949 548.684 180.772C548.49 179.385 548.296 178.003 548.103 176.622C548.925 177.027 549.754 177.439 550.582 177.845C550.741 177.374 550.982 176.963 551.287 176.598C551.986 176.375 552.709 176.24 553.444 176.187C553.679 176.175 553.919 176.163 554.16 176.163C554.513 176.163 554.877 176.175 555.23 176.216C554.789 175.816 554.342 175.422 553.902 175.017C553.849 174.97 553.802 174.923 553.749 174.876C554.554 174.529 555.424 174.264 556.246 174.035C559.842 173.036 563.567 172.03 567.257 172.6C569.614 172.965 571.959 174.158 573.489 175.937C574.854 177.525 576.782 178.466 578.834 178.882C579.82 179.081 580.776 179.523 581.57 180.137C581.07 180.461 580.542 180.743 579.989 180.966C581.035 181.219 582.075 181.472 583.121 181.731C584.096 183.018 584.76 184.553 585.266 186.093C587.604 193.189 586.711 201.479 582.046 207.311Z" fill="#2F2E41"/>
<path d="M610.834 483.611C612.534 483.718 613.474 481.604 612.187 480.372L612.059 479.863C612.076 479.822 612.093 479.781 612.11 479.741C613.83 475.638 619.657 475.666 621.362 479.775C622.875 483.422 624.802 487.074 625.276 490.93C625.489 492.632 625.393 494.366 625.016 496.036C628.561 488.287 630.427 479.824 630.427 471.314C630.427 469.176 630.31 467.038 630.071 464.905C629.874 463.16 629.603 461.426 629.252 459.708C627.354 450.422 623.245 441.576 617.318 434.188C614.469 432.63 612.093 430.194 610.658 427.274C610.142 426.221 609.738 425.088 609.547 423.934C609.871 423.976 610.77 419.035 610.525 418.732C610.977 418.046 611.786 417.705 612.279 417.035C614.734 413.705 618.115 414.287 619.881 418.812C623.652 420.716 623.688 423.875 621.374 426.912C619.902 428.845 619.7 431.46 618.408 433.529C618.541 433.699 618.679 433.864 618.812 434.034C621.249 437.162 623.357 440.523 625.134 444.055C624.631 440.13 625.373 435.401 626.637 432.353C628.076 428.88 630.772 425.956 633.147 422.953C636 419.347 641.849 420.921 642.352 425.492C642.357 425.537 642.361 425.581 642.366 425.625C642.013 425.824 641.668 426.036 641.33 426.259C639.405 427.533 640.07 430.52 642.351 430.872L642.403 430.88C642.276 432.151 642.058 433.412 641.739 434.651C644.785 446.44 638.208 450.734 628.816 450.927C628.609 451.033 628.407 451.14 628.2 451.241C629.151 453.921 629.911 456.671 630.475 459.458C630.98 461.921 631.331 464.41 631.527 466.91C631.772 470.064 631.75 473.234 631.485 476.383L631.501 476.271C632.176 472.803 634.057 469.564 636.79 467.32C640.86 463.974 646.611 462.742 651.002 460.053C653.115 458.758 655.824 460.431 655.455 462.883L655.437 463.001C654.783 463.267 654.145 463.575 653.529 463.921C653.176 464.12 652.831 464.331 652.493 464.555C650.568 465.829 651.233 468.816 653.514 469.168L653.566 469.176C653.603 469.181 653.635 469.187 653.672 469.192C652.551 471.857 650.988 474.33 649.032 476.463C647.127 486.754 638.945 487.73 630.193 484.734H630.188C629.231 488.904 627.833 492.978 626.036 496.861H611.205C611.152 496.696 611.104 496.525 611.057 496.361C612.428 496.446 613.81 496.366 615.16 496.116C614.06 494.765 612.96 493.403 611.859 492.052C611.833 492.026 611.811 491.999 611.79 491.973C611.232 491.281 610.668 490.595 610.11 489.904L610.11 489.903C610.075 487.78 610.33 485.664 610.834 483.611Z" fill="#F2F2F2"/>
<path d="M225.47 498.02C225.47 498.564 225.906 499 226.449 499H668.642C669.185 499 669.621 498.564 669.621 498.02C669.621 497.477 669.185 497.04 668.642 497.04H226.449C225.906 497.04 225.47 497.477 225.47 498.02Z" fill="#CCCCCC"/>
<path d="M377.022 364.281C376.339 364.281 375.788 364.745 375.788 365.319V378.51C373.154 382.197 373.105 385.856 375.788 389.474H375.928V400.895H375.788V414.819C375.788 415.393 376.339 415.857 377.022 415.857C377.705 415.857 378.257 415.393 378.257 414.819V365.319C378.257 364.745 377.705 364.281 377.022 364.281Z" fill="#F2F2F2"/>
<path d="M323.527 364.281C322.844 364.281 322.293 364.745 322.293 365.319V378.51C319.659 382.197 319.61 385.856 322.293 389.474H322.433V400.895H322.293V414.819C322.293 415.393 322.844 415.857 323.527 415.857C324.21 415.857 324.762 415.393 324.762 414.819V365.319C324.762 364.745 324.21 364.281 323.527 364.281Z" fill="#F2F2F2"/>
<path d="M422.839 383.815V393.532C377.979 411.559 314.591 408.963 279.636 393.532V383.79C280.257 383.823 299.798 396.2 300.42 396.233H300.429C302.432 396.324 304.426 396.414 306.42 396.496C307.793 396.554 309.156 396.62 310.51 396.669C312.179 396.744 313.849 396.809 315.509 396.875H315.518C316.26 396.908 316.983 396.933 317.725 396.966C324.755 397.238 331.683 397.468 338.499 397.649C344.342 397.814 350.092 397.938 355.749 398.012C358.819 398.061 361.87 398.086 364.884 398.111C367.732 398.119 370.556 397.955 373.343 398.119C398.23 399.582 422.632 385.775 422.839 383.815Z" fill="#F2F2F2"/>
<path d="M355.712 365.594C355.31 365.977 354.92 366.452 354.53 367.057V416.162H343.242L343.29 415.863L344.844 406.371L345.57 401.942L346.601 395.652L347.3 391.37L351.038 368.546C350.608 366.663 350.202 365.196 349.819 364.068L355.712 365.594Z" fill="#F2F2F2"/>
<path d="M381.034 339.7C380.53 340.221 379.867 340.731 379.071 341.231L379.059 341.238C379.111 340.674 379.116 340.102 379.071 339.527C378.545 332.563 371.212 325.285 363.946 328.237C359.903 328.933 356.091 333.948 354.795 329.412C351.823 323.148 348.704 329.652 344.432 329.56C335.314 330.658 329.06 332.415 325.168 334.932C322.542 336.627 320.988 338.672 320.354 341.097C319.371 344.903 320.642 349.639 323.584 355.435C324.089 355.055 324.752 354.683 325.543 354.322C325.965 354.13 326.428 353.941 326.921 353.755C325.797 356.08 325.388 358.776 325.543 361.511C326.07 371.058 333.406 381.029 340.668 376.983C344.712 376.028 348.523 369.158 349.82 375.376C349.923 375.669 350.022 375.947 350.129 376.2C350.129 376.205 350.133 376.205 350.133 376.21C351.65 379.973 353.215 379.448 354.961 378.119C354.961 378.119 354.964 378.119 354.964 378.114C356.529 376.932 358.235 375.119 360.183 375.174C369.301 373.669 375.554 371.26 379.447 367.81C382.073 365.481 383.627 362.678 384.26 359.354C385.243 354.142 383.973 347.646 381.034 339.7Z" fill="#F2F2F2"/>
<path d="M309.166 302.782C308.269 303.638 307.396 304.701 306.524 306.051V415.79H281.299L281.406 415.123L284.879 393.91L286.5 384.012L288.805 369.955L290.368 360.386L298.722 309.378C297.759 305.17 296.854 301.892 295.998 299.373L309.166 302.782Z" fill="#3F3D56"/>
<path d="M237.367 280.079C238.972 283.265 240.816 286.592 242.857 290.068C233.746 286.988 232.874 283.43 237.367 280.079Z" fill="#112D57"/>
<path d="M365.756 244.915C364.628 246.078 363.147 247.218 361.369 248.335L361.342 248.352C361.458 247.091 361.469 245.812 361.369 244.528C360.192 228.964 343.806 212.7 327.568 219.296C318.532 220.853 310.014 232.06 307.117 221.923C300.475 207.924 293.504 222.458 283.957 222.252C263.58 224.707 249.605 228.635 240.906 234.259C235.038 238.047 231.565 242.618 230.149 248.036C227.952 256.543 230.791 267.125 237.367 280.079C238.494 279.23 233.85 283.307 235.619 282.5C236.561 282.07 237.517 284.414 238.619 284C236.108 289.195 241.398 287.545 241.745 293.658C242.922 314.992 259.316 337.275 275.546 328.234C284.583 326.1 293.101 310.748 295.998 324.644C296.228 325.299 296.45 325.919 296.689 326.484C296.689 326.495 296.697 326.495 296.697 326.506C300.088 334.916 303.586 333.742 307.487 330.773C307.487 330.773 307.495 330.773 307.495 330.762C310.993 328.121 314.803 324.068 319.157 324.192C339.535 320.828 353.509 315.444 362.209 307.734C368.077 302.53 371.55 296.265 372.965 288.838C375.163 277.188 372.323 262.671 365.756 244.915Z" fill="#112D57"/>
<path d="M381.427 409.2C382.541 408.628 383.531 406.312 382.109 407.569C382.036 407.633 382.068 407.407 382.044 407.313L382.07 407.251C382.936 405.186 385.87 405.2 386.728 407.269C387.49 409.105 388.46 410.944 388.699 412.885C388.806 413.742 388.758 414.615 388.568 415.456C390.353 411.554 391.292 407.293 391.292 403.009C391.292 401.932 391.233 400.855 391.113 399.782C391.014 398.903 390.877 398.03 390.701 397.165C389.745 392.489 387.676 388.036 384.692 384.316C383.258 383.531 382.061 382.305 381.339 380.835C381.079 380.304 380.876 379.734 380.779 379.153C380.943 379.174 381.395 376.686 381.272 376.534C381.499 376.188 381.906 376.017 382.155 375.679C383.391 374.003 385.093 374.296 385.982 376.574C387.881 377.533 387.899 379.123 386.734 380.653C385.993 381.626 385.891 382.942 385.241 383.984C385.308 384.07 385.377 384.153 385.444 384.238C386.671 385.813 387.732 387.506 388.627 389.284C388.374 387.308 388.748 384.927 389.384 383.392C390.108 381.644 391.466 380.171 392.662 378.659C394.098 376.843 397.043 377.636 397.296 379.938L397.303 380.004C397.126 380.105 396.952 380.211 396.782 380.324C395.812 380.965 396.147 382.469 397.296 382.646L397.322 382.65C397.258 383.29 397.148 383.925 396.988 384.549C398.522 390.485 395.21 392.647 390.481 392.744C390.377 392.797 390.275 392.851 390.171 392.902C390.65 394.251 391.033 395.636 391.316 397.039C391.571 398.279 391.747 399.532 391.846 400.791C391.969 402.379 391.959 403.975 391.825 405.561L391.833 405.504C392.173 403.758 393.12 402.127 394.496 400.997C396.545 399.313 399.441 398.693 401.651 397.339C402.716 396.687 404.079 397.529 403.894 398.764L403.885 398.823C403.555 398.957 403.234 399.112 402.924 399.286C402.746 399.386 402.572 399.493 402.402 399.605C401.433 400.247 401.768 401.751 402.917 401.928L402.943 401.932L402.996 401.94C402.431 403.282 401.645 404.527 400.66 405.601C399.701 410.782 395.581 411.274 391.174 409.765H391.172C390.69 411.865 389.986 413.916 389.081 415.871H381.614C381.588 415.788 381.563 415.702 381.539 415.619C382.23 415.662 382.926 415.622 383.606 415.496C383.052 414.816 382.498 414.13 381.944 413.45C381.93 413.437 381.919 413.423 381.909 413.41C381.628 413.062 381.344 412.716 381.063 412.368C381.045 411.299 381.174 410.234 381.427 409.2Z" fill="#3F3D56"/>
<path d="M420.559 384.465C419.333 384.391 418.107 384.308 416.88 384.242C415.029 384.127 413.185 384.02 411.35 383.913C409.901 383.831 408.461 383.756 407.029 383.674V354.917C407.029 354.234 406.478 353.682 405.795 353.682C405.111 353.682 404.56 354.234 404.56 354.917V370.622C401.926 375.011 401.877 379.367 404.56 383.674C392.05 385.156 377.936 385.889 362.661 386.095H362.554C360.356 386.12 358.126 386.136 355.879 386.145C353.402 386.153 350.9 386.145 348.373 386.136C345.699 386.112 342.991 386.087 340.267 386.038C335.246 385.963 330.144 385.84 324.959 385.675C318.91 385.494 312.762 385.263 306.524 384.992C305.865 384.959 305.223 384.934 304.565 384.901H304.557C303.083 384.835 301.602 384.769 300.121 384.695C298.919 384.646 297.709 384.58 296.491 384.522C294.722 384.44 292.952 384.349 291.175 384.259H291.166C289.611 384.176 288.064 384.094 286.508 384.012H286.5C284.483 383.905 282.459 383.789 280.426 383.674C281.907 379.804 281.636 375.365 280.426 370.622V354.917C280.426 354.234 279.883 353.682 279.192 353.682C278.517 353.682 277.957 354.234 277.957 354.917V360.641C275.916 361.316 274.435 363.235 274.435 365.508C274.435 367.781 275.916 369.699 277.957 370.366V383.929C275.916 384.605 274.435 386.523 274.435 388.796C274.435 391.069 275.916 392.988 277.957 393.655V413.847C277.957 414.531 278.517 415.082 279.192 415.082C279.883 415.082 280.426 414.531 280.426 413.847V393.91H404.56V413.847C404.56 414.531 405.111 415.082 405.795 415.082C406.478 415.082 407.029 414.531 407.029 413.847V393.91H422.518V384.588C421.86 384.547 421.209 384.506 420.559 384.465Z" fill="#E6E6E6"/>
<path d="M422.514 415.124V415.963H264.451C264.218 415.963 264.031 415.776 264.031 415.544C264.031 415.311 264.218 415.124 264.451 415.124H422.514Z" fill="#CCCCCC"/>
</g>
<path d="M316.323 11.928C316.398 11.928 316.463 11.9583 316.519 12.019L317.058 12.6C316.647 13.076 316.148 13.447 315.56 13.713C314.977 13.979 314.27 14.112 313.439 14.112C312.72 14.112 312.067 13.9883 311.479 13.741C310.891 13.489 310.389 13.139 309.974 12.691C309.559 12.2383 309.237 11.697 309.008 11.067C308.779 10.437 308.665 9.744 308.665 8.988C308.665 8.232 308.784 7.539 309.022 6.909C309.26 6.279 309.594 5.73767 310.023 5.285C310.457 4.83233 310.975 4.48233 311.577 4.235C312.179 3.983 312.844 3.857 313.572 3.857C314.286 3.857 314.916 3.97133 315.462 4.2C316.008 4.42867 316.489 4.739 316.904 5.131L316.456 5.754C316.428 5.80067 316.391 5.84033 316.344 5.873C316.302 5.901 316.244 5.915 316.169 5.915C316.085 5.915 315.982 5.87067 315.861 5.782C315.74 5.68867 315.581 5.586 315.385 5.474C315.189 5.362 314.944 5.26167 314.65 5.173C314.356 5.07967 313.994 5.033 313.565 5.033C313.047 5.033 312.573 5.124 312.144 5.306C311.715 5.48333 311.344 5.74233 311.031 6.083C310.723 6.42367 310.483 6.839 310.31 7.329C310.137 7.819 310.051 8.372 310.051 8.988C310.051 9.61333 310.14 10.171 310.317 10.661C310.499 11.151 310.744 11.5663 311.052 11.907C311.365 12.243 311.731 12.4997 312.151 12.677C312.576 12.8543 313.033 12.943 313.523 12.943C313.822 12.943 314.09 12.9267 314.328 12.894C314.571 12.8567 314.792 12.8007 314.993 12.726C315.198 12.6513 315.387 12.558 315.56 12.446C315.737 12.3293 315.912 12.1917 316.085 12.033C316.164 11.963 316.244 11.928 316.323 11.928ZM319.481 8.33C319.705 7.84467 319.98 7.46667 320.307 7.196C320.633 6.92067 321.032 6.783 321.504 6.783C321.653 6.783 321.795 6.79933 321.931 6.832C322.071 6.86467 322.194 6.916 322.302 6.986L322.211 7.917C322.183 8.03367 322.113 8.092 322.001 8.092C321.935 8.092 321.84 8.078 321.714 8.05C321.588 8.022 321.445 8.008 321.287 8.008C321.063 8.008 320.862 8.04067 320.685 8.106C320.512 8.17133 320.356 8.26933 320.216 8.4C320.08 8.526 319.957 8.68467 319.845 8.876C319.737 9.06267 319.639 9.27733 319.551 9.52V14H318.298V6.909H319.012C319.147 6.909 319.24 6.93467 319.292 6.986C319.343 7.03733 319.378 7.126 319.397 7.252L319.481 8.33ZM327.856 9.681C327.856 9.39167 327.814 9.128 327.73 8.89C327.651 8.64733 327.532 8.43967 327.373 8.267C327.219 8.08967 327.03 7.95433 326.806 7.861C326.582 7.763 326.328 7.714 326.043 7.714C325.446 7.714 324.972 7.889 324.622 8.239C324.277 8.58433 324.062 9.065 323.978 9.681H327.856ZM328.864 13.006C328.71 13.1927 328.526 13.356 328.311 13.496C328.096 13.6313 327.865 13.7433 327.618 13.832C327.375 13.9207 327.123 13.986 326.862 14.028C326.601 14.0747 326.342 14.098 326.085 14.098C325.595 14.098 325.142 14.0163 324.727 13.853C324.316 13.685 323.959 13.4423 323.656 13.125C323.357 12.803 323.124 12.4063 322.956 11.935C322.788 11.4637 322.704 10.9223 322.704 10.311C322.704 9.81633 322.779 9.35433 322.928 8.925C323.082 8.49567 323.301 8.12467 323.586 7.812C323.871 7.49467 324.218 7.24733 324.629 7.07C325.04 6.888 325.502 6.797 326.015 6.797C326.44 6.797 326.832 6.86933 327.191 7.014C327.555 7.154 327.868 7.35933 328.129 7.63C328.395 7.896 328.603 8.22733 328.752 8.624C328.901 9.016 328.976 9.464 328.976 9.968C328.976 10.164 328.955 10.2947 328.913 10.36C328.871 10.4253 328.792 10.458 328.675 10.458H323.936C323.95 10.906 324.011 11.2957 324.118 11.627C324.23 11.9583 324.384 12.236 324.58 12.46C324.776 12.6793 325.009 12.845 325.28 12.957C325.551 13.0643 325.854 13.118 326.19 13.118C326.503 13.118 326.771 13.083 326.995 13.013C327.224 12.9383 327.42 12.859 327.583 12.775C327.746 12.691 327.882 12.614 327.989 12.544C328.101 12.4693 328.197 12.432 328.276 12.432C328.379 12.432 328.458 12.4717 328.514 12.551L328.864 13.006ZM334.35 10.808C333.776 10.8267 333.286 10.8733 332.88 10.948C332.478 11.018 332.149 11.1113 331.893 11.228C331.641 11.3447 331.456 11.4823 331.34 11.641C331.228 11.7997 331.172 11.977 331.172 12.173C331.172 12.3597 331.202 12.5207 331.263 12.656C331.323 12.7913 331.405 12.9033 331.508 12.992C331.615 13.076 331.739 13.139 331.879 13.181C332.023 13.2183 332.177 13.237 332.341 13.237C332.56 13.237 332.761 13.216 332.943 13.174C333.125 13.1273 333.295 13.062 333.454 12.978C333.617 12.894 333.771 12.7937 333.916 12.677C334.065 12.5603 334.21 12.4273 334.35 12.278V10.808ZM330.325 7.91C330.717 7.532 331.139 7.24967 331.592 7.063C332.044 6.87633 332.546 6.783 333.097 6.783C333.493 6.783 333.846 6.84833 334.154 6.979C334.462 7.10967 334.721 7.29167 334.931 7.525C335.141 7.75833 335.299 8.04067 335.407 8.372C335.514 8.70333 335.568 9.06733 335.568 9.464V14H335.015C334.893 14 334.8 13.9813 334.735 13.944C334.669 13.902 334.618 13.8227 334.581 13.706L334.441 13.034C334.254 13.2067 334.072 13.3607 333.895 13.496C333.717 13.6267 333.531 13.7387 333.335 13.832C333.139 13.9207 332.929 13.9883 332.705 14.035C332.485 14.0863 332.24 14.112 331.97 14.112C331.694 14.112 331.435 14.0747 331.193 14C330.95 13.9207 330.738 13.804 330.556 13.65C330.378 13.496 330.236 13.3023 330.129 13.069C330.026 12.831 329.975 12.551 329.975 12.229C329.975 11.949 330.052 11.6807 330.206 11.424C330.36 11.1627 330.609 10.9317 330.955 10.731C331.3 10.5303 331.75 10.367 332.306 10.241C332.861 10.1103 333.542 10.0357 334.35 10.017V9.464C334.35 8.91333 334.231 8.498 333.993 8.218C333.755 7.93333 333.407 7.791 332.95 7.791C332.642 7.791 332.383 7.83067 332.173 7.91C331.967 7.98467 331.788 8.071 331.634 8.169C331.484 8.26233 331.354 8.34867 331.242 8.428C331.134 8.50267 331.027 8.54 330.92 8.54C330.836 8.54 330.763 8.519 330.703 8.477C330.642 8.43033 330.591 8.37433 330.549 8.309L330.325 7.91ZM339.547 14.112C338.987 14.112 338.555 13.9557 338.252 13.643C337.953 13.3303 337.804 12.88 337.804 12.292V7.952H336.95C336.875 7.952 336.812 7.931 336.761 7.889C336.709 7.84233 336.684 7.77233 336.684 7.679V7.182L337.846 7.035L338.133 4.844C338.147 4.774 338.177 4.718 338.224 4.676C338.275 4.62933 338.34 4.606 338.42 4.606H339.05V7.049H341.101V7.952H339.05V12.208C339.05 12.5067 339.122 12.7283 339.267 12.873C339.411 13.0177 339.598 13.09 339.827 13.09C339.957 13.09 340.069 13.0737 340.163 13.041C340.261 13.0037 340.345 12.964 340.415 12.922C340.485 12.88 340.543 12.8427 340.59 12.81C340.641 12.7727 340.685 12.754 340.723 12.754C340.788 12.754 340.846 12.7937 340.898 12.873L341.262 13.468C341.047 13.6687 340.788 13.8273 340.485 13.944C340.181 14.056 339.869 14.112 339.547 14.112ZM347.092 9.681C347.092 9.39167 347.05 9.128 346.966 8.89C346.887 8.64733 346.768 8.43967 346.609 8.267C346.455 8.08967 346.266 7.95433 346.042 7.861C345.818 7.763 345.564 7.714 345.279 7.714C344.682 7.714 344.208 7.889 343.858 8.239C343.513 8.58433 343.298 9.065 343.214 9.681H347.092ZM348.1 13.006C347.946 13.1927 347.762 13.356 347.547 13.496C347.333 13.6313 347.102 13.7433 346.854 13.832C346.612 13.9207 346.36 13.986 346.098 14.028C345.837 14.0747 345.578 14.098 345.321 14.098C344.831 14.098 344.379 14.0163 343.963 13.853C343.553 13.685 343.196 13.4423 342.892 13.125C342.594 12.803 342.36 12.4063 342.192 11.935C342.024 11.4637 341.94 10.9223 341.94 10.311C341.94 9.81633 342.015 9.35433 342.164 8.925C342.318 8.49567 342.538 8.12467 342.822 7.812C343.107 7.49467 343.455 7.24733 343.865 7.07C344.276 6.888 344.738 6.797 345.251 6.797C345.676 6.797 346.068 6.86933 346.427 7.014C346.791 7.154 347.104 7.35933 347.365 7.63C347.631 7.896 347.839 8.22733 347.988 8.624C348.138 9.016 348.212 9.464 348.212 9.968C348.212 10.164 348.191 10.2947 348.149 10.36C348.107 10.4253 348.028 10.458 347.911 10.458H343.172C343.186 10.906 343.247 11.2957 343.354 11.627C343.466 11.9583 343.62 12.236 343.816 12.46C344.012 12.6793 344.246 12.845 344.516 12.957C344.787 13.0643 345.09 13.118 345.426 13.118C345.739 13.118 346.007 13.083 346.231 13.013C346.46 12.9383 346.656 12.859 346.819 12.775C346.983 12.691 347.118 12.614 347.225 12.544C347.337 12.4693 347.433 12.432 347.512 12.432C347.615 12.432 347.694 12.4717 347.75 12.551L348.1 13.006ZM359.978 5.11H356.73V14H355.379V5.11H352.124V3.969H359.978V5.11ZM360.811 8.33C361.035 7.84467 361.31 7.46667 361.637 7.196C361.963 6.92067 362.362 6.783 362.834 6.783C362.983 6.783 363.125 6.79933 363.261 6.832C363.401 6.86467 363.524 6.916 363.632 6.986L363.541 7.917C363.513 8.03367 363.443 8.092 363.331 8.092C363.265 8.092 363.17 8.078 363.044 8.05C362.918 8.022 362.775 8.008 362.617 8.008C362.393 8.008 362.192 8.04067 362.015 8.106C361.842 8.17133 361.686 8.26933 361.546 8.4C361.41 8.526 361.287 8.68467 361.175 8.876C361.067 9.06267 360.969 9.27733 360.881 9.52V14H359.628V6.909H360.342C360.477 6.909 360.57 6.93467 360.622 6.986C360.673 7.03733 360.708 7.126 360.727 7.252L360.811 8.33ZM368.461 10.808C367.887 10.8267 367.397 10.8733 366.991 10.948C366.59 11.018 366.261 11.1113 366.004 11.228C365.752 11.3447 365.568 11.4823 365.451 11.641C365.339 11.7997 365.283 11.977 365.283 12.173C365.283 12.3597 365.313 12.5207 365.374 12.656C365.435 12.7913 365.516 12.9033 365.619 12.992C365.726 13.076 365.85 13.139 365.99 13.181C366.135 13.2183 366.289 13.237 366.452 13.237C366.671 13.237 366.872 13.216 367.054 13.174C367.236 13.1273 367.406 13.062 367.565 12.978C367.728 12.894 367.882 12.7937 368.027 12.677C368.176 12.5603 368.321 12.4273 368.461 12.278V10.808ZM364.436 7.91C364.828 7.532 365.25 7.24967 365.703 7.063C366.156 6.87633 366.657 6.783 367.208 6.783C367.605 6.783 367.957 6.84833 368.265 6.979C368.573 7.10967 368.832 7.29167 369.042 7.525C369.252 7.75833 369.411 8.04067 369.518 8.372C369.625 8.70333 369.679 9.06733 369.679 9.464V14H369.126C369.005 14 368.911 13.9813 368.846 13.944C368.781 13.902 368.729 13.8227 368.692 13.706L368.552 13.034C368.365 13.2067 368.183 13.3607 368.006 13.496C367.829 13.6267 367.642 13.7387 367.446 13.832C367.25 13.9207 367.04 13.9883 366.816 14.035C366.597 14.0863 366.352 14.112 366.081 14.112C365.806 14.112 365.547 14.0747 365.304 14C365.061 13.9207 364.849 13.804 364.667 13.65C364.49 13.496 364.347 13.3023 364.24 13.069C364.137 12.831 364.086 12.551 364.086 12.229C364.086 11.949 364.163 11.6807 364.317 11.424C364.471 11.1627 364.721 10.9317 365.066 10.731C365.411 10.5303 365.862 10.367 366.417 10.241C366.972 10.1103 367.654 10.0357 368.461 10.017V9.464C368.461 8.91333 368.342 8.498 368.104 8.218C367.866 7.93333 367.518 7.791 367.061 7.791C366.753 7.791 366.494 7.83067 366.284 7.91C366.079 7.98467 365.899 8.071 365.745 8.169C365.596 8.26233 365.465 8.34867 365.353 8.428C365.246 8.50267 365.138 8.54 365.031 8.54C364.947 8.54 364.875 8.519 364.814 8.477C364.753 8.43033 364.702 8.37433 364.66 8.309L364.436 7.91ZM372.893 6.909V14H371.647V6.909H372.893ZM373.159 4.683C373.159 4.80433 373.133 4.91867 373.082 5.026C373.035 5.12867 372.97 5.222 372.886 5.306C372.807 5.38533 372.711 5.44833 372.599 5.495C372.492 5.54167 372.377 5.565 372.256 5.565C372.135 5.565 372.02 5.54167 371.913 5.495C371.81 5.44833 371.719 5.38533 371.64 5.306C371.561 5.222 371.498 5.12867 371.451 5.026C371.404 4.91867 371.381 4.80433 371.381 4.683C371.381 4.56167 371.404 4.44733 371.451 4.34C371.498 4.228 371.561 4.13233 371.64 4.053C371.719 3.969 371.81 3.90367 371.913 3.857C372.02 3.81033 372.135 3.787 372.256 3.787C372.377 3.787 372.492 3.81033 372.599 3.857C372.711 3.90367 372.807 3.969 372.886 4.053C372.97 4.13233 373.035 4.228 373.082 4.34C373.133 4.44733 373.159 4.56167 373.159 4.683ZM376.116 7.938C376.27 7.76533 376.433 7.609 376.606 7.469C376.779 7.329 376.961 7.21 377.152 7.112C377.348 7.00933 377.553 6.93233 377.768 6.881C377.987 6.825 378.223 6.797 378.475 6.797C378.862 6.797 379.203 6.86233 379.497 6.993C379.796 7.119 380.043 7.301 380.239 7.539C380.44 7.77233 380.591 8.05467 380.694 8.386C380.797 8.71733 380.848 9.08367 380.848 9.485V14H379.595V9.485C379.595 8.94833 379.471 8.533 379.224 8.239C378.981 7.94033 378.61 7.791 378.111 7.791C377.742 7.791 377.397 7.87967 377.075 8.057C376.758 8.23433 376.464 8.47467 376.193 8.778V14H374.94V6.909H375.689C375.866 6.909 375.976 6.99533 376.018 7.168L376.116 7.938ZM384.063 6.909V14H382.817V6.909H384.063ZM384.329 4.683C384.329 4.80433 384.303 4.91867 384.252 5.026C384.205 5.12867 384.14 5.222 384.056 5.306C383.976 5.38533 383.881 5.44833 383.769 5.495C383.661 5.54167 383.547 5.565 383.426 5.565C383.304 5.565 383.19 5.54167 383.083 5.495C382.98 5.44833 382.889 5.38533 382.81 5.306C382.73 5.222 382.667 5.12867 382.621 5.026C382.574 4.91867 382.551 4.80433 382.551 4.683C382.551 4.56167 382.574 4.44733 382.621 4.34C382.667 4.228 382.73 4.13233 382.81 4.053C382.889 3.969 382.98 3.90367 383.083 3.857C383.19 3.81033 383.304 3.787 383.426 3.787C383.547 3.787 383.661 3.81033 383.769 3.857C383.881 3.90367 383.976 3.969 384.056 4.053C384.14 4.13233 384.205 4.228 384.252 4.34C384.303 4.44733 384.329 4.56167 384.329 4.683ZM387.286 7.938C387.44 7.76533 387.603 7.609 387.776 7.469C387.949 7.329 388.131 7.21 388.322 7.112C388.518 7.00933 388.723 6.93233 388.938 6.881C389.157 6.825 389.393 6.797 389.645 6.797C390.032 6.797 390.373 6.86233 390.667 6.993C390.966 7.119 391.213 7.301 391.409 7.539C391.61 7.77233 391.761 8.05467 391.864 8.386C391.967 8.71733 392.018 9.08367 392.018 9.485V14H390.765V9.485C390.765 8.94833 390.641 8.533 390.394 8.239C390.151 7.94033 389.78 7.791 389.281 7.791C388.912 7.791 388.567 7.87967 388.245 8.057C387.928 8.23433 387.634 8.47467 387.363 8.778V14H386.11V6.909H386.859C387.036 6.909 387.146 6.99533 387.188 7.168L387.286 7.938ZM396.388 10.535C396.64 10.535 396.861 10.5 397.053 10.43C397.244 10.36 397.405 10.262 397.536 10.136C397.666 10.01 397.764 9.86067 397.83 9.688C397.895 9.51067 397.928 9.317 397.928 9.107C397.928 8.673 397.795 8.32767 397.529 8.071C397.267 7.81433 396.887 7.686 396.388 7.686C395.884 7.686 395.499 7.81433 395.233 8.071C394.971 8.32767 394.841 8.673 394.841 9.107C394.841 9.317 394.873 9.51067 394.939 9.688C395.009 9.86067 395.109 10.01 395.24 10.136C395.37 10.262 395.531 10.36 395.723 10.43C395.914 10.5 396.136 10.535 396.388 10.535ZM398.635 14.385C398.635 14.2123 398.586 14.0723 398.488 13.965C398.39 13.8577 398.257 13.7737 398.089 13.713C397.925 13.6523 397.734 13.6103 397.515 13.587C397.295 13.559 397.062 13.538 396.815 13.524C396.572 13.51 396.325 13.496 396.073 13.482C395.821 13.468 395.578 13.4447 395.345 13.412C395.083 13.5333 394.869 13.6873 394.701 13.874C394.537 14.056 394.456 14.2707 394.456 14.518C394.456 14.6767 394.495 14.8237 394.575 14.959C394.659 15.099 394.785 15.218 394.953 15.316C395.121 15.4187 395.331 15.498 395.583 15.554C395.839 15.6147 396.14 15.645 396.486 15.645C396.822 15.645 397.123 15.6147 397.389 15.554C397.655 15.4933 397.879 15.407 398.061 15.295C398.247 15.183 398.39 15.05 398.488 14.896C398.586 14.742 398.635 14.5717 398.635 14.385ZM399.902 7.189V7.651C399.902 7.805 399.804 7.903 399.608 7.945L398.803 8.05C398.961 8.358 399.041 8.69867 399.041 9.072C399.041 9.41733 398.973 9.73233 398.838 10.017C398.707 10.297 398.525 10.5373 398.292 10.738C398.058 10.9387 397.778 11.0927 397.452 11.2C397.125 11.3073 396.77 11.361 396.388 11.361C396.056 11.361 395.744 11.3213 395.45 11.242C395.3 11.3353 395.186 11.4357 395.107 11.543C395.027 11.6457 394.988 11.7507 394.988 11.858C394.988 12.026 395.055 12.1543 395.191 12.243C395.331 12.327 395.513 12.3877 395.737 12.425C395.961 12.4623 396.215 12.4857 396.5 12.495C396.789 12.5043 397.083 12.5207 397.382 12.544C397.685 12.5627 397.979 12.5977 398.264 12.649C398.553 12.7003 398.81 12.7843 399.034 12.901C399.258 13.0177 399.437 13.1787 399.573 13.384C399.713 13.5893 399.783 13.8553 399.783 14.182C399.783 14.4853 399.706 14.7793 399.552 15.064C399.402 15.3487 399.185 15.6007 398.901 15.82C398.616 16.044 398.266 16.2213 397.851 16.352C397.44 16.4873 396.976 16.555 396.458 16.555C395.94 16.555 395.487 16.5037 395.1 16.401C394.712 16.2983 394.39 16.1607 394.134 15.988C393.877 15.8153 393.683 15.6147 393.553 15.386C393.427 15.162 393.364 14.9263 393.364 14.679C393.364 14.329 393.473 14.0327 393.693 13.79C393.912 13.5473 394.213 13.3537 394.596 13.209C394.386 13.1157 394.218 12.992 394.092 12.838C393.97 12.6793 393.91 12.467 393.91 12.201C393.91 12.0983 393.928 11.9933 393.966 11.886C394.003 11.774 394.059 11.6643 394.134 11.557C394.213 11.445 394.309 11.34 394.421 11.242C394.533 11.144 394.663 11.0577 394.813 10.983C394.463 10.787 394.19 10.528 393.994 10.206C393.798 9.87933 393.7 9.50133 393.7 9.072C393.7 8.72667 393.765 8.414 393.896 8.134C394.031 7.84933 394.218 7.609 394.456 7.413C394.694 7.21233 394.976 7.05833 395.303 6.951C395.634 6.84367 395.996 6.79 396.388 6.79C396.696 6.79 396.983 6.825 397.249 6.895C397.515 6.96033 397.757 7.05833 397.977 7.189H399.902ZM411.425 5.11H408.177V14H406.826V5.11H403.571V3.969H411.425V5.11ZM415.657 9.681C415.657 9.39167 415.615 9.128 415.531 8.89C415.451 8.64733 415.332 8.43967 415.174 8.267C415.02 8.08967 414.831 7.95433 414.607 7.861C414.383 7.763 414.128 7.714 413.844 7.714C413.246 7.714 412.773 7.889 412.423 8.239C412.077 8.58433 411.863 9.065 411.779 9.681H415.657ZM416.665 13.006C416.511 13.1927 416.326 13.356 416.112 13.496C415.897 13.6313 415.666 13.7433 415.419 13.832C415.176 13.9207 414.924 13.986 414.663 14.028C414.401 14.0747 414.142 14.098 413.886 14.098C413.396 14.098 412.943 14.0163 412.528 13.853C412.117 13.685 411.76 13.4423 411.457 13.125C411.158 12.803 410.925 12.4063 410.757 11.935C410.589 11.4637 410.505 10.9223 410.505 10.311C410.505 9.81633 410.579 9.35433 410.729 8.925C410.883 8.49567 411.102 8.12467 411.387 7.812C411.671 7.49467 412.019 7.24733 412.43 7.07C412.84 6.888 413.302 6.797 413.816 6.797C414.24 6.797 414.632 6.86933 414.992 7.014C415.356 7.154 415.668 7.35933 415.93 7.63C416.196 7.896 416.403 8.22733 416.553 8.624C416.702 9.016 416.777 9.464 416.777 9.968C416.777 10.164 416.756 10.2947 416.714 10.36C416.672 10.4253 416.592 10.458 416.476 10.458H411.737C411.751 10.906 411.811 11.2957 411.919 11.627C412.031 11.9583 412.185 12.236 412.381 12.46C412.577 12.6793 412.81 12.845 413.081 12.957C413.351 13.0643 413.655 13.118 413.991 13.118C414.303 13.118 414.572 13.083 414.796 13.013C415.024 12.9383 415.22 12.859 415.384 12.775C415.547 12.691 415.682 12.614 415.79 12.544C415.902 12.4693 415.997 12.432 416.077 12.432C416.179 12.432 416.259 12.4717 416.315 12.551L416.665 13.006ZM418.307 14V6.909H419.056C419.234 6.909 419.343 6.99533 419.385 7.168L419.476 7.896C419.738 7.574 420.032 7.31033 420.358 7.105C420.685 6.89967 421.063 6.797 421.492 6.797C421.968 6.797 422.353 6.93 422.647 7.196C422.946 7.462 423.161 7.82133 423.291 8.274C423.394 8.01733 423.525 7.79567 423.683 7.609C423.847 7.42233 424.029 7.26833 424.229 7.147C424.43 7.02567 424.642 6.937 424.866 6.881C425.095 6.825 425.326 6.797 425.559 6.797C425.933 6.797 426.264 6.85767 426.553 6.979C426.847 7.09567 427.095 7.26833 427.295 7.497C427.501 7.72567 427.657 8.008 427.764 8.344C427.872 8.67533 427.925 9.05567 427.925 9.485V14H426.672V9.485C426.672 8.92967 426.551 8.50967 426.308 8.225C426.066 7.93567 425.716 7.791 425.258 7.791C425.053 7.791 424.857 7.82833 424.67 7.903C424.488 7.973 424.327 8.078 424.187 8.218C424.047 8.358 423.935 8.53533 423.851 8.75C423.772 8.96 423.732 9.205 423.732 9.485V14H422.479V9.485C422.479 8.91567 422.365 8.491 422.136 8.211C421.908 7.931 421.574 7.791 421.135 7.791C420.827 7.791 420.543 7.875 420.281 8.043C420.02 8.20633 419.78 8.43033 419.56 8.715V14H418.307ZM431.072 12.292C431.301 12.6 431.55 12.817 431.821 12.943C432.092 13.069 432.395 13.132 432.731 13.132C433.394 13.132 433.902 12.8963 434.257 12.425C434.612 11.9537 434.789 11.2817 434.789 10.409C434.789 9.947 434.747 9.55033 434.663 9.219C434.584 8.88767 434.467 8.617 434.313 8.407C434.159 8.19233 433.97 8.036 433.746 7.938C433.522 7.84 433.268 7.791 432.983 7.791C432.577 7.791 432.22 7.88433 431.912 8.071C431.609 8.25767 431.329 8.52133 431.072 8.862V12.292ZM431.009 8.008C431.308 7.63933 431.653 7.343 432.045 7.119C432.437 6.895 432.885 6.783 433.389 6.783C433.8 6.783 434.171 6.86233 434.502 7.021C434.833 7.175 435.116 7.406 435.349 7.714C435.582 8.01733 435.762 8.39533 435.888 8.848C436.014 9.30067 436.077 9.821 436.077 10.409C436.077 10.9317 436.007 11.4193 435.867 11.872C435.727 12.32 435.524 12.7097 435.258 13.041C434.997 13.3677 434.675 13.6267 434.292 13.818C433.914 14.0047 433.487 14.098 433.011 14.098C432.577 14.098 432.204 14.0257 431.891 13.881C431.583 13.7317 431.31 13.5263 431.072 13.265V16.401H429.819V6.909H430.568C430.745 6.909 430.855 6.99533 430.897 7.168L431.009 8.008ZM438.955 3.689V14H437.709V3.689H438.955ZM444.818 10.808C444.244 10.8267 443.754 10.8733 443.348 10.948C442.947 11.018 442.618 11.1113 442.361 11.228C442.109 11.3447 441.925 11.4823 441.808 11.641C441.696 11.7997 441.64 11.977 441.64 12.173C441.64 12.3597 441.671 12.5207 441.731 12.656C441.792 12.7913 441.874 12.9033 441.976 12.992C442.084 13.076 442.207 13.139 442.347 13.181C442.492 13.2183 442.646 13.237 442.809 13.237C443.029 13.237 443.229 13.216 443.411 13.174C443.593 13.1273 443.764 13.062 443.922 12.978C444.086 12.894 444.24 12.7937 444.384 12.677C444.534 12.5603 444.678 12.4273 444.818 12.278V10.808ZM440.793 7.91C441.185 7.532 441.608 7.24967 442.06 7.063C442.513 6.87633 443.015 6.783 443.565 6.783C443.962 6.783 444.314 6.84833 444.622 6.979C444.93 7.10967 445.189 7.29167 445.399 7.525C445.609 7.75833 445.768 8.04067 445.875 8.372C445.983 8.70333 446.036 9.06733 446.036 9.464V14H445.483C445.362 14 445.269 13.9813 445.203 13.944C445.138 13.902 445.087 13.8227 445.049 13.706L444.909 13.034C444.723 13.2067 444.541 13.3607 444.363 13.496C444.186 13.6267 443.999 13.7387 443.803 13.832C443.607 13.9207 443.397 13.9883 443.173 14.035C442.954 14.0863 442.709 14.112 442.438 14.112C442.163 14.112 441.904 14.0747 441.661 14C441.419 13.9207 441.206 13.804 441.024 13.65C440.847 13.496 440.705 13.3023 440.597 13.069C440.495 12.831 440.443 12.551 440.443 12.229C440.443 11.949 440.52 11.6807 440.674 11.424C440.828 11.1627 441.078 10.9317 441.423 10.731C441.769 10.5303 442.219 10.367 442.774 10.241C443.33 10.1103 444.011 10.0357 444.818 10.017V9.464C444.818 8.91333 444.699 8.498 444.461 8.218C444.223 7.93333 443.876 7.791 443.418 7.791C443.11 7.791 442.851 7.83067 442.641 7.91C442.436 7.98467 442.256 8.071 442.102 8.169C441.953 8.26233 441.822 8.34867 441.71 8.428C441.603 8.50267 441.496 8.54 441.388 8.54C441.304 8.54 441.232 8.519 441.171 8.477C441.111 8.43033 441.059 8.37433 441.017 8.309L440.793 7.91ZM450.016 14.112C449.456 14.112 449.024 13.9557 448.721 13.643C448.422 13.3303 448.273 12.88 448.273 12.292V7.952H447.419C447.344 7.952 447.281 7.931 447.23 7.889C447.178 7.84233 447.153 7.77233 447.153 7.679V7.182L448.315 7.035L448.602 4.844C448.616 4.774 448.646 4.718 448.693 4.676C448.744 4.62933 448.809 4.606 448.889 4.606H449.519V7.049H451.57V7.952H449.519V12.208C449.519 12.5067 449.591 12.7283 449.736 12.873C449.88 13.0177 450.067 13.09 450.296 13.09C450.426 13.09 450.538 13.0737 450.632 13.041C450.73 13.0037 450.814 12.964 450.884 12.922C450.954 12.88 451.012 12.8427 451.059 12.81C451.11 12.7727 451.154 12.754 451.192 12.754C451.257 12.754 451.315 12.7937 451.367 12.873L451.731 13.468C451.516 13.6687 451.257 13.8273 450.954 13.944C450.65 14.056 450.338 14.112 450.016 14.112ZM457.561 9.681C457.561 9.39167 457.519 9.128 457.435 8.89C457.356 8.64733 457.237 8.43967 457.078 8.267C456.924 8.08967 456.735 7.95433 456.511 7.861C456.287 7.763 456.033 7.714 455.748 7.714C455.151 7.714 454.677 7.889 454.327 8.239C453.982 8.58433 453.767 9.065 453.683 9.681H457.561ZM458.569 13.006C458.415 13.1927 458.231 13.356 458.016 13.496C457.801 13.6313 457.57 13.7433 457.323 13.832C457.08 13.9207 456.828 13.986 456.567 14.028C456.306 14.0747 456.047 14.098 455.79 14.098C455.3 14.098 454.847 14.0163 454.432 13.853C454.021 13.685 453.664 13.4423 453.361 13.125C453.062 12.803 452.829 12.4063 452.661 11.935C452.493 11.4637 452.409 10.9223 452.409 10.311C452.409 9.81633 452.484 9.35433 452.633 8.925C452.787 8.49567 453.006 8.12467 453.291 7.812C453.576 7.49467 453.923 7.24733 454.334 7.07C454.745 6.888 455.207 6.797 455.72 6.797C456.145 6.797 456.537 6.86933 456.896 7.014C457.26 7.154 457.573 7.35933 457.834 7.63C458.1 7.896 458.308 8.22733 458.457 8.624C458.606 9.016 458.681 9.464 458.681 9.968C458.681 10.164 458.66 10.2947 458.618 10.36C458.576 10.4253 458.497 10.458 458.38 10.458H453.641C453.655 10.906 453.716 11.2957 453.823 11.627C453.935 11.9583 454.089 12.236 454.285 12.46C454.481 12.6793 454.714 12.845 454.985 12.957C455.256 13.0643 455.559 13.118 455.895 13.118C456.208 13.118 456.476 13.083 456.7 13.013C456.929 12.9383 457.125 12.859 457.288 12.775C457.451 12.691 457.587 12.614 457.694 12.544C457.806 12.4693 457.902 12.432 457.981 12.432C458.084 12.432 458.163 12.4717 458.219 12.551L458.569 13.006Z" fill="#395174"/>
<defs>
<clipPath id="clip0_1213_373464">
<rect width="573" height="421" fill="white" transform="translate(96.6211 78)"/>
</clipPath>
</defs>
</svg>