<svg width="213" height="115" viewBox="0 0 213 115" fill="none" xmlns="http://www.w3.org/2000/svg">
<g clip-path="url(#clip0_1160_393550)">
<path d="M82.4355 57.793L108.754 12.2783L135.247 57.793H119.79L116.914 52.9084H126.555L108.842 21.5585L89.7819 52.9112H103.099L110.101 41.3304L113.069 46.415L106.05 57.793H82.4355Z" fill="#FAB133"/>
<path d="M108.84 82.0826C86.212 82.0826 67.7988 63.6722 67.7988 41.0413C67.7988 18.4104 86.212 0 108.84 0C131.468 0 149.884 18.4104 149.884 41.0413C149.884 63.6722 131.471 82.0826 108.84 82.0826ZM108.84 4.11219C88.4792 4.11219 71.9082 20.6804 71.9082 41.0413C71.9082 61.4022 88.4737 77.9704 108.835 77.9704C129.195 77.9704 145.769 61.405 145.769 41.0413C145.769 20.6776 129.204 4.11219 108.84 4.11219Z" fill="#FAB133"/>
<path d="M2.40039 108.764H5.628V90.8826H2.40039V108.764ZM16.6 94.995C14.8301 94.995 13.2683 95.8541 12.4354 97.1034V95.3073H9.25984V108.764H12.4354V100.253C12.6436 98.8213 14.0232 97.7021 15.689 97.7021C17.3549 97.7021 18.5262 99.0036 18.5262 100.826V108.764H21.5976V100.201C21.5976 97.1556 19.5413 94.995 16.6 94.995ZM32.3853 94.995C30.6154 94.995 29.0536 95.8541 28.2206 97.1034V95.3073H25.045V108.764H28.2206V100.253C28.4287 98.8213 29.8082 97.7021 31.4742 97.7021C33.1402 97.7021 34.3114 99.0036 34.3114 100.826V108.764H37.3827V100.201C37.3827 97.1556 35.3266 94.995 32.3853 94.995ZM47.3114 109.077C49.4459 109.077 51.2419 108.192 52.5434 106.812L50.4089 104.964C49.654 105.823 48.5087 106.37 47.3375 106.37C45.125 106.37 43.277 104.392 43.277 102.023C43.277 99.6804 45.125 97.7021 47.3375 97.7021C48.4828 97.7021 49.602 98.2487 50.3308 99.0555L52.4653 97.1814C51.1897 95.8541 49.3939 94.995 47.3637 94.995C43.4332 94.995 40.1273 98.1967 40.1273 102.023C40.1273 105.849 43.4332 109.077 47.3114 109.077ZM56.6533 93.2771C57.6425 93.2771 58.4493 92.4182 58.4493 91.4552C58.4493 90.4922 57.6425 89.6592 56.6533 89.6592C55.6381 89.6592 54.8312 90.4922 54.8312 91.4552C54.8312 92.4182 55.6381 93.2771 56.6533 93.2771ZM55.0396 108.764H58.2151V95.3073H55.0396V108.764ZM64.9783 97.9102V95.3073H61.8027V108.764H64.9783V101.971C64.9783 99.4201 66.9043 97.7021 69.7937 97.7021V94.995C67.5812 94.995 65.8371 96.1145 64.9783 97.9102ZM78.6277 109.077C80.7621 109.077 82.5582 108.192 83.8596 106.812L81.7252 104.964C80.9702 105.823 79.8249 106.37 78.6538 106.37C76.4413 106.37 74.5933 104.392 74.5933 102.023C74.5933 99.6804 76.4413 97.7021 78.6538 97.7021C79.7991 97.7021 80.9183 98.2487 81.6471 99.0555L83.7815 97.1814C82.5059 95.8541 80.7099 94.995 78.6796 94.995C74.7495 94.995 71.4436 98.1967 71.4436 102.023C71.4436 105.849 74.7495 109.077 78.6277 109.077ZM86.3555 108.764H89.5311V90.5702H86.3555V108.764ZM99.3139 106.266C97.3876 106.266 95.9822 104.964 95.5916 103.116H105.743C105.743 98.1447 103.322 94.995 99.1578 94.995C95.3315 94.995 92.3121 97.9625 92.3121 101.997C92.3121 106.135 95.4877 109.077 99.3398 109.077C101.292 109.077 103.635 108.244 104.806 106.995L102.802 104.912C102.047 105.693 100.563 106.266 99.3139 106.266ZM99.2878 97.8063C101.188 97.8063 102.333 99.0036 102.698 100.695H95.6177C96.0862 98.9255 97.5179 97.8063 99.2878 97.8063ZM113.467 109.077C116.617 109.077 118.751 107.411 118.751 104.834C118.751 102.023 116.304 101.242 114.04 100.617C111.983 100.019 111.281 99.7585 111.281 98.8994C111.281 98.1447 112.14 97.7021 113.259 97.7021C114.43 97.7021 115.81 98.1186 117.085 98.9255L118.413 96.6088C116.955 95.6457 115.107 94.995 113.259 94.995C110.265 94.995 108.183 96.713 108.183 99.2378C108.209 101.633 110.057 102.465 112.973 103.22C114.508 103.637 115.68 103.975 115.68 105.016C115.68 105.849 114.795 106.396 113.519 106.396C111.827 106.396 110.318 105.771 109.016 104.834L107.584 107.047C109.198 108.348 111.411 109.077 113.467 109.077Z" fill="#112D57"/>
<path d="M142.6 108.765H146.192L138.721 90.8828H135.103L127.633 108.765H131.251L132.604 105.537H141.246L142.6 108.765ZM133.776 102.726L136.925 95.2037L140.075 102.726H133.776ZM151.709 97.9105V95.3076H148.533V108.765H151.709V101.971C151.709 99.4203 153.635 97.7024 156.524 97.7024V94.9953C154.311 94.9953 152.567 96.1147 151.709 97.9105ZM165.15 106.266C163.224 106.266 161.818 104.965 161.428 103.116H171.579C171.579 98.145 169.158 94.9953 164.993 94.9953C161.167 94.9953 158.148 97.9627 158.148 101.997C158.148 106.136 161.323 109.077 165.176 109.077C167.128 109.077 169.47 108.244 170.642 106.995L168.637 104.912C167.883 105.693 166.399 106.266 165.15 106.266ZM165.124 97.8066C167.024 97.8066 168.169 99.0038 168.534 100.696H161.454C161.922 98.9257 163.354 97.8066 165.124 97.8066ZM181.672 94.9953C179.902 94.9953 178.34 95.8544 177.507 97.1036V95.3076H174.331V108.765H177.507V100.253C177.715 98.8216 179.095 97.7024 180.761 97.7024C182.426 97.7024 183.598 99.0038 183.598 100.826V108.765H186.669V100.201C186.669 97.1558 184.613 94.9953 181.672 94.9953ZM195.973 94.9953C194.281 94.9953 192.511 95.464 190.611 96.4009L191.704 98.6134C192.85 98.0408 194.073 97.5982 195.348 97.5982C197.795 97.5982 198.654 99.108 198.654 100.67V101.034C197.431 100.566 196.103 100.305 194.88 100.305C191.86 100.305 189.388 102.127 189.388 104.782C189.388 107.385 191.548 109.077 194.411 109.077C195.973 109.077 197.665 108.4 198.654 107.151V108.765H201.752V100.67C201.752 97.2598 199.539 94.9953 195.973 94.9953ZM195.114 106.761C193.605 106.761 192.485 105.954 192.485 104.678C192.485 103.403 193.761 102.518 195.348 102.518C196.546 102.518 197.665 102.7 198.654 103.038V104.548C198.29 105.98 196.65 106.761 195.114 106.761Z" fill="#FAB133"/>
<path d="M208.143 100.204C210.34 100.204 212.122 98.4224 212.122 96.2249C212.122 94.0274 210.34 92.2461 208.143 92.2461C205.945 92.2461 204.164 94.0274 204.164 96.2249C204.164 98.4224 205.945 100.204 208.143 100.204Z" stroke="#FAB133" stroke-width="0.277851" stroke-miterlimit="10"/>
<path d="M206.395 97.5251H206.711V95.0417H207.646V94.7422H205.459V95.0417H206.395V97.5251ZM208.209 97.5251H208.525V95.4226L209.558 97.3631L210.591 95.4226V97.5251H210.907V94.7422H210.591L209.558 96.6824L208.525 94.7422H208.209V97.5251Z" fill="#FAB133"/>
</g>
<defs>
<clipPath id="clip0_1160_393550">
<rect width="212" height="114.197" fill="white" transform="translate(0.5)"/>
</clipPath>
</defs>
</svg>
