<svg width="733" height="527" viewBox="0 0 733 527" fill="none" xmlns="http://www.w3.org/2000/svg">
<path fill-rule="evenodd" clip-rule="evenodd" d="M368.581 82.899C422.936 88.0201 522.374 20.5094 576.438 26.8218C652.31 35.6803 698.98 77.939 727.993 124.863C756.596 171.123 654.278 189.735 632.345 237.544C609.665 286.981 652.134 371.67 597.689 408.894C541.012 447.644 445.85 542.449 368.581 524.843C291.365 507.25 295.6 358.946 231.658 325.494C172.822 294.713 67.7464 315.78 25.4895 274.895C-17.1323 233.658 0.594274 175.345 28.5777 129.008C55.534 84.3723 79.8814 10.4571 151.437 0.753125C222.138 -8.83488 297.121 76.1666 368.581 82.899Z" fill="#FAFAFA"/>
<path d="M496.051 151.048L488.521 121.413L477.93 79.747L477.33 77.395V77.3892L473.143 60.9133C472.455 58.216 470.725 55.9023 468.333 54.4798C465.942 53.0573 463.084 52.6422 460.388 53.3255L432.566 60.4048L258.731 104.654C256.036 105.344 253.724 107.075 252.303 109.468C250.881 111.862 250.467 114.721 251.149 117.42L257.149 141.033L272.394 201.013L278.128 223.58L278.422 224.736H279.693L279.398 223.58L273.918 202.001V201.996L258.015 139.432L252.345 117.12C251.742 114.737 252.109 112.213 253.363 110.1C254.618 107.988 256.659 106.46 259.038 105.851L432.508 61.6935L460.688 54.5218C463.069 53.9189 465.591 54.2854 467.702 55.541C469.813 56.7966 471.34 58.8388 471.948 61.2196L476.394 78.7068L476.995 81.082L487.285 121.575L494.775 151.048L495.086 152.285H496.368L496.051 151.048Z" fill="#CCCCCC"/>
<path d="M308.967 192.208C325.41 192.208 338.739 178.868 338.739 162.413C338.739 145.958 325.41 132.618 308.967 132.618C292.525 132.618 279.195 145.958 279.195 162.413C279.195 178.868 292.525 192.208 308.967 192.208Z" fill="#F2F2F2"/>
<path d="M376.504 151.048L377.93 152.285H355.259C352.804 152.288 350.449 153.265 348.713 155.003C346.976 156.741 346 159.097 345.997 161.554V232.266L345.668 249.008L331.18 236.04L329.823 236.386L319.082 226.903C317.501 225.505 315.464 224.734 313.354 224.736H285.094L285.527 223.58L291.174 208.48L323.194 122.806L326.485 114.005C326.688 113.464 327.018 112.98 327.447 112.594C327.877 112.209 328.394 111.933 328.953 111.79C329.513 111.648 330.098 111.643 330.66 111.776C331.222 111.909 331.743 112.176 332.179 112.554L353.723 131.261L366.404 142.276L376.504 151.048Z" fill="#E6E6E6"/>
<path d="M470.771 151.048L472.203 152.285H402.828L403.296 151.048L418.073 112.011C418.276 111.472 418.605 110.989 419.034 110.605C419.463 110.221 419.978 109.946 420.536 109.803C421.094 109.661 421.678 109.656 422.238 109.787C422.799 109.919 423.319 110.184 423.755 110.56L453.13 135.861L454.822 137.311L470.771 151.048Z" fill="#E6E6E6"/>
<path d="M497.659 163.178C494.953 163.176 492.284 163.802 489.861 165.008C487.438 166.214 485.328 167.966 483.697 170.126C481.945 169.372 480.035 169.065 478.135 169.232C476.236 169.4 474.409 170.036 472.816 171.085C471.224 172.134 469.917 173.562 469.012 175.242C468.107 176.921 467.633 178.799 467.633 180.707H515.175C515.175 178.405 514.722 176.125 513.841 173.999C512.961 171.872 511.671 169.94 510.045 168.312C508.418 166.684 506.487 165.393 504.362 164.512C502.237 163.631 499.959 163.178 497.659 163.178Z" fill="#E6E6E6"/>
<path d="M563.335 151.048H355.263C352.922 151.052 350.649 151.837 348.804 153.28C346.96 154.722 345.648 156.739 345.077 159.011V159.017C344.87 159.847 344.766 160.699 344.766 161.554V249.568L345.441 250.163L346.001 250.66V161.554C346.004 159.096 346.981 156.74 348.717 155.002C350.453 153.265 352.808 152.287 355.263 152.285H563.335C565.791 152.286 568.146 153.263 569.883 155.001C571.619 156.739 572.596 159.096 572.597 161.554V268.656H573.186C573.402 268.654 573.618 268.663 573.833 268.685V161.554C573.829 158.769 572.722 156.099 570.754 154.129C568.786 152.16 566.118 151.052 563.335 151.048Z" fill="#3F3D56"/>
<path d="M393.511 231.791C409.089 231.791 421.718 219.153 421.718 203.562C421.718 187.972 409.089 175.334 393.511 175.334C377.933 175.334 365.305 187.972 365.305 203.562C365.305 219.153 377.933 231.791 393.511 231.791Z" fill="#112D57"/>
<path d="M563.567 268.656H370.104C367.714 268.649 365.406 267.776 363.608 266.2L359.266 262.368L359.93 261.409L361.131 259.675L413.274 184.543L418.627 176.828C418.957 176.353 419.396 175.965 419.908 175.697C420.42 175.429 420.989 175.289 421.566 175.289C422.144 175.289 422.713 175.429 423.225 175.697C423.737 175.965 424.176 176.353 424.506 176.828L440.778 200.273V200.279L450.352 214.073L473.208 247.002L507.872 197.482C508.202 197.009 508.641 196.624 509.151 196.357C509.662 196.091 510.229 195.952 510.805 195.952C511.381 195.952 511.948 196.091 512.459 196.357C512.97 196.624 513.409 197.009 513.739 197.482L535.976 229.243L537.252 231.069L562.758 267.5L563.567 268.656Z" fill="#3F3D56"/>
<path d="M460.225 192.447C456.887 192.445 453.593 193.218 450.604 194.705C447.615 196.193 445.011 198.354 442.999 201.02C440.838 200.089 438.481 199.71 436.138 199.917C433.795 200.124 431.54 200.909 429.575 202.203C427.61 203.497 425.997 205.259 424.881 207.331C423.765 209.403 423.18 211.72 423.18 214.074H481.835C481.835 211.234 481.276 208.422 480.19 205.798C479.104 203.174 477.513 200.79 475.506 198.782C473.499 196.773 471.117 195.18 468.495 194.094C465.873 193.007 463.063 192.447 460.225 192.447Z" fill="#CCCCCC"/>
<path d="M359.226 260.785L352.043 254.451L352.025 254.44L352.002 254.423L351.985 254.405C351.76 254.243 351.535 254.076 351.315 253.902C351.257 253.862 351.206 253.822 351.154 253.781C351.125 253.758 351.102 253.741 351.073 253.717C351.061 253.712 351.055 253.7 351.044 253.694C350.882 253.567 350.715 253.434 350.553 253.301C350.472 253.244 350.397 253.18 350.316 253.116C350.097 252.937 349.878 252.752 349.658 252.567C349.427 252.371 349.196 252.174 348.965 251.972C348.959 251.966 348.948 251.961 348.942 251.955C348.896 251.914 348.855 251.874 348.809 251.839C348.59 251.643 348.37 251.446 348.151 251.238C347.966 251.071 347.781 250.897 347.602 250.73C347.435 250.574 347.267 250.418 347.106 250.25L347.071 250.215C346.95 250.1 346.828 249.978 346.702 249.851C346.58 249.736 346.465 249.614 346.349 249.493C346.228 249.377 346.112 249.256 346.003 249.135L345.91 249.042L345.881 249.013L344.767 248.025V249.568L345.443 250.163L346.003 250.66L357.869 261.132L358.984 262.12L359.267 262.369L359.532 261.981L359.931 261.409L359.226 260.785ZM531.687 267.5C531.704 267.882 531.733 268.269 531.762 268.656H572.599V267.5H531.687ZM359.226 260.785L352.043 254.451L352.025 254.44L352.002 254.423L351.985 254.405C351.76 254.243 351.535 254.076 351.315 253.902C351.257 253.862 351.206 253.822 351.154 253.781C351.125 253.758 351.102 253.741 351.073 253.717C351.061 253.712 351.055 253.7 351.044 253.694C350.882 253.567 350.715 253.434 350.553 253.301C350.472 253.244 350.397 253.18 350.316 253.116C350.097 252.937 349.878 252.752 349.658 252.567C349.427 252.371 349.196 252.174 348.965 251.972C348.959 251.966 348.948 251.961 348.942 251.955C348.896 251.914 348.855 251.874 348.809 251.839C348.59 251.643 348.37 251.446 348.151 251.238C347.966 251.071 347.781 250.897 347.602 250.73C347.435 250.574 347.267 250.418 347.106 250.25L347.071 250.215C346.95 250.1 346.828 249.978 346.702 249.851C346.58 249.736 346.465 249.614 346.349 249.493C346.228 249.377 346.112 249.256 346.003 249.135L345.91 249.042L345.881 249.013L344.767 248.025V249.568L345.443 250.163L346.003 250.66L357.869 261.132L358.984 262.12L359.267 262.369L359.532 261.981L359.931 261.409L359.226 260.785ZM562.759 267.5H531.687C531.704 267.882 531.733 268.269 531.762 268.656H563.568L562.759 267.5ZM359.226 260.785L352.043 254.451L352.025 254.44L352.002 254.423L351.985 254.405C351.76 254.243 351.535 254.076 351.315 253.902C351.257 253.862 351.206 253.822 351.154 253.781C351.125 253.758 351.102 253.741 351.073 253.717C351.061 253.712 351.055 253.7 351.044 253.694C350.882 253.567 350.715 253.434 350.553 253.301C350.472 253.244 350.397 253.18 350.316 253.116C350.097 252.937 349.878 252.752 349.658 252.567C349.427 252.371 349.196 252.174 348.965 251.972C348.959 251.966 348.948 251.961 348.942 251.955C348.896 251.914 348.855 251.874 348.809 251.839C348.59 251.643 348.37 251.446 348.151 251.238C347.966 251.071 347.781 250.897 347.602 250.73C347.435 250.574 347.267 250.418 347.106 250.25L347.071 250.215C346.95 250.1 346.828 249.978 346.702 249.851C346.58 249.736 346.465 249.614 346.349 249.493C346.228 249.377 346.112 249.256 346.003 249.135L345.91 249.042L345.881 249.013L344.767 248.025V249.568L345.443 250.163L346.003 250.66L357.869 261.132L358.984 262.12L359.267 262.369L359.532 261.981L359.931 261.409L359.226 260.785ZM331.185 236.04L319.85 226.036C318.058 224.453 315.75 223.579 313.36 223.58H279.4L279.694 224.736H313.36C315.469 224.734 317.507 225.505 319.088 226.903L329.828 236.386L344.767 249.568V248.025L331.185 236.04ZM573.835 267.523C573.621 267.506 573.407 267.5 573.188 267.5H370.105C368.153 267.503 366.258 266.843 364.729 265.628C364.608 265.535 364.492 265.437 364.377 265.333L360.347 261.773L359.931 261.409L359.226 260.785L352.043 254.451L352.025 254.44L352.002 254.423L351.985 254.405L347.187 250.163L346.003 249.117L345.91 249.042L345.881 249.013L344.767 248.025L331.185 236.04L319.85 226.036C318.058 224.453 315.75 223.579 313.36 223.58L263.676 223.58C261.074 223.584 258.579 224.62 256.739 226.462C254.898 228.303 253.863 230.8 253.859 233.404V417.176C253.863 419.78 254.898 422.277 256.739 424.119C258.579 425.96 261.074 426.997 263.676 427H573.188C575.79 426.997 578.285 425.96 580.125 424.119C581.965 422.277 583.001 419.78 583.005 417.176V277.325C583 274.833 582.051 272.435 580.349 270.616C578.647 268.797 576.319 267.691 573.835 267.523ZM581.85 417.176C581.847 419.474 580.933 421.677 579.31 423.302C577.686 424.927 575.484 425.842 573.188 425.844H263.676C261.38 425.842 259.178 424.927 257.554 423.302C255.931 421.677 255.017 419.474 255.014 417.176V233.404C255.017 231.106 255.931 228.903 257.554 227.278C259.178 225.653 261.38 224.739 263.676 224.736H313.36C315.469 224.734 317.507 225.505 319.088 226.903L329.828 236.386L344.767 249.568L345.443 250.163L346.003 250.66L357.869 261.132L358.984 262.12L359.267 262.369L363.609 266.2C365.407 267.777 367.715 268.649 370.105 268.656H573.188C573.404 268.654 573.62 268.664 573.835 268.685C576.013 268.85 578.048 269.831 579.534 271.433C581.02 273.035 581.847 275.139 581.85 277.325L581.85 417.176ZM359.226 260.785L352.043 254.451L352.025 254.44L352.002 254.423L351.985 254.405C351.76 254.243 351.535 254.076 351.315 253.902C351.257 253.862 351.206 253.822 351.154 253.781C351.125 253.758 351.102 253.741 351.073 253.717C351.061 253.712 351.055 253.7 351.044 253.694C350.882 253.567 350.715 253.434 350.553 253.301C350.472 253.244 350.397 253.18 350.316 253.116C350.097 252.937 349.878 252.752 349.658 252.567C349.427 252.371 349.196 252.174 348.965 251.972C348.959 251.966 348.948 251.961 348.942 251.955C348.896 251.914 348.855 251.874 348.809 251.839C348.59 251.643 348.37 251.446 348.151 251.238C347.966 251.071 347.781 250.897 347.602 250.73C347.435 250.574 347.267 250.418 347.106 250.25L347.071 250.215C346.95 250.1 346.828 249.978 346.702 249.851C346.58 249.736 346.465 249.614 346.349 249.493C346.228 249.377 346.112 249.256 346.003 249.135L345.91 249.042L345.881 249.013L344.767 248.025V249.568L345.443 250.163L346.003 250.66L357.869 261.132L358.984 262.12L359.267 262.369L359.532 261.981L359.931 261.409L359.226 260.785ZM531.687 267.5C531.704 267.882 531.733 268.269 531.762 268.656H572.599V267.5H531.687ZM359.226 260.785L352.043 254.451L352.025 254.44L352.002 254.423L351.985 254.405C351.76 254.243 351.535 254.076 351.315 253.902C351.257 253.862 351.206 253.822 351.154 253.781C351.125 253.758 351.102 253.741 351.073 253.717C351.061 253.712 351.055 253.7 351.044 253.694C350.882 253.567 350.715 253.434 350.553 253.301C350.472 253.244 350.397 253.18 350.316 253.116C350.097 252.937 349.878 252.752 349.658 252.567C349.427 252.371 349.196 252.174 348.965 251.972C348.959 251.966 348.948 251.961 348.942 251.955C348.896 251.914 348.855 251.874 348.809 251.839C348.59 251.643 348.37 251.446 348.151 251.238C347.966 251.071 347.781 250.897 347.602 250.73C347.435 250.574 347.267 250.418 347.106 250.25L347.071 250.215C346.95 250.1 346.828 249.978 346.702 249.851C346.58 249.736 346.465 249.614 346.349 249.493C346.228 249.377 346.112 249.256 346.003 249.135L345.91 249.042L345.881 249.013L344.767 248.025V249.568L345.443 250.163L346.003 250.66L357.869 261.132L358.984 262.12L359.267 262.369L359.532 261.981L359.931 261.409L359.226 260.785ZM359.226 260.785L352.043 254.451L352.025 254.44L352.002 254.423L351.985 254.405C351.76 254.243 351.535 254.076 351.315 253.902C351.257 253.862 351.206 253.822 351.154 253.781C351.125 253.758 351.102 253.741 351.073 253.717C351.061 253.712 351.055 253.7 351.044 253.694C350.882 253.567 350.715 253.434 350.553 253.301C350.472 253.244 350.397 253.18 350.316 253.116C350.097 252.937 349.878 252.752 349.658 252.567C349.427 252.371 349.196 252.174 348.965 251.972C348.959 251.966 348.948 251.961 348.942 251.955C348.896 251.914 348.855 251.874 348.809 251.839C348.59 251.643 348.37 251.446 348.151 251.238C347.966 251.071 347.781 250.897 347.602 250.73C347.435 250.574 347.267 250.418 347.106 250.25L347.071 250.215C346.95 250.1 346.828 249.978 346.702 249.851C346.58 249.736 346.465 249.614 346.349 249.493C346.228 249.377 346.112 249.256 346.003 249.135L345.91 249.042L345.881 249.013L344.767 248.025V249.568L345.443 250.163L346.003 250.66L357.869 261.132L358.984 262.12L359.267 262.369L359.532 261.981L359.931 261.409L359.226 260.785ZM562.759 267.5H531.687C531.704 267.882 531.733 268.269 531.762 268.656H563.568L562.759 267.5Z" fill="#3F3D56"/>
<path d="M171.57 233.75V220.112C171.57 214.671 173.73 209.453 177.574 205.605C181.419 201.758 186.633 199.597 192.07 199.597C197.506 199.597 202.721 201.758 206.565 205.605C210.409 209.453 212.569 214.671 212.569 220.112V233.75C212.569 234.041 212.453 234.321 212.247 234.526C212.042 234.732 211.763 234.848 211.472 234.848H210.24C210.027 234.848 209.82 234.787 209.642 234.671C209.464 234.555 209.323 234.39 209.237 234.196L208.945 233.539C208.896 233.43 208.812 233.341 208.706 233.287C208.6 233.232 208.478 233.216 208.361 233.241C208.245 233.266 208.14 233.33 208.065 233.423C207.99 233.515 207.95 233.631 207.95 233.75C207.949 234.041 207.833 234.321 207.628 234.526C207.422 234.732 207.143 234.848 206.852 234.848H172.668C172.377 234.848 172.098 234.732 171.892 234.526C171.686 234.321 171.571 234.041 171.57 233.75Z" fill="#2F2E41"/>
<path d="M214.618 419.091H221.698L225.066 391.764L214.617 391.764L214.618 419.091Z" fill="#FFB8B8"/>
<path d="M235.352 425.669L213.102 425.67L213.102 417.067L226.755 417.066C229.035 417.066 231.221 417.972 232.833 419.586C234.446 421.199 235.351 423.387 235.352 425.669Z" fill="#2F2E41"/>
<path d="M162.071 419.091H169.151L172.519 391.764L162.07 391.764L162.071 419.091Z" fill="#FFB8B8"/>
<path d="M182.805 425.669L160.555 425.67L160.555 417.067L174.208 417.066C176.488 417.066 178.674 417.972 180.287 419.586C181.899 421.199 182.805 423.387 182.805 425.669Z" fill="#2F2E41"/>
<path d="M203.099 394.589L189.41 338.909C189.294 338.438 189.014 338.025 188.619 337.744C188.225 337.463 187.742 337.333 187.26 337.378C186.778 337.423 186.328 337.64 185.992 337.989C185.656 338.338 185.457 338.796 185.43 339.279L182.383 393.735C182.363 394.081 182.275 394.42 182.123 394.731C181.97 395.043 181.758 395.32 181.496 395.548C181.235 395.776 180.932 395.95 180.603 396.058C180.274 396.167 179.926 396.209 179.581 396.181L155.243 394.233C154.58 394.18 153.963 393.875 153.518 393.38C153.073 392.886 152.835 392.239 152.852 391.574C153.173 379.593 159.301 296.005 176.779 277.734C177.087 277.419 177.469 277.188 177.891 277.063C178.313 276.937 178.76 276.921 179.189 277.016L202.53 283.374C203.012 283.48 203.453 283.721 203.804 284.068C204.154 284.415 204.399 284.855 204.509 285.336L230.226 389.075C230.302 389.414 230.31 389.765 230.249 390.107C230.187 390.45 230.058 390.776 229.868 391.068C229.678 391.359 229.432 391.609 229.143 391.804C228.855 391.998 228.531 392.133 228.19 392.199L206.121 396.52C205.466 396.649 204.786 396.521 204.223 396.161C203.66 395.802 203.257 395.239 203.099 394.589Z" fill="#2F2E41"/>
<path d="M194.87 234.548C202.703 234.548 209.053 228.193 209.053 220.354C209.053 212.515 202.703 206.16 194.87 206.16C187.037 206.16 180.688 212.515 180.688 220.354C180.688 228.193 187.037 234.548 194.87 234.548Z" fill="#FFB8B8"/>
<path d="M202.24 284.918L177.753 279.416C177.22 279.297 176.739 279.013 176.377 278.604C176.015 278.196 175.791 277.683 175.736 277.14L174.033 260.25C173.573 255.742 174.782 251.221 177.432 247.546C180.081 243.871 183.986 241.296 188.406 240.312C188.603 240.268 188.799 240.226 188.995 240.185C192.038 239.546 195.194 239.7 198.161 240.63C201.128 241.561 203.806 243.238 205.94 245.501C208.131 247.783 209.701 250.589 210.498 253.651C211.296 256.713 211.296 259.929 210.497 262.99L205.325 283.03C205.184 283.588 204.86 284.083 204.406 284.437C203.953 284.79 203.394 284.982 202.819 284.982C202.624 284.982 202.43 284.96 202.24 284.918Z" fill="#112D57"/>
<path d="M141.527 310.527C141.19 309.838 141.008 309.084 140.993 308.317C140.979 307.55 141.132 306.79 141.443 306.089C141.754 305.388 142.215 304.763 142.793 304.26C143.371 303.757 144.053 303.386 144.789 303.175L162.513 266.926L171.656 273.74L151.426 307.12C151.698 308.382 151.499 309.701 150.866 310.826C150.232 311.95 149.208 312.804 147.988 313.224C146.768 313.643 145.436 313.601 144.246 313.104C143.055 312.607 142.088 311.69 141.527 310.527Z" fill="#FFB8B8"/>
<path d="M262.093 291.016C262.093 290.25 261.925 289.492 261.601 288.797C261.277 288.102 260.804 287.487 260.217 286.995C259.629 286.502 258.941 286.145 258.2 285.947C257.46 285.75 256.685 285.718 255.931 285.852L224.072 261.113L218.859 271.259L251.707 292.319C252.018 293.572 252.776 294.668 253.84 295.399C254.904 296.13 256.198 296.445 257.479 296.285C258.759 296.124 259.936 295.499 260.786 294.528C261.637 293.557 262.102 292.308 262.093 291.016Z" fill="#FFB8B8"/>
<path d="M170.868 276.639C170.508 276.639 170.153 276.548 169.837 276.374L160.239 271.094C159.757 270.829 159.395 270.389 159.227 269.865C159.06 269.341 159.099 268.772 159.338 268.276L169.005 248.17C169.883 246.283 171.421 244.782 173.329 243.952C174.701 243.372 176.203 243.172 177.679 243.375C179.154 243.577 180.548 244.174 181.713 245.103C182.616 245.811 183.354 246.707 183.877 247.73C184.515 248.944 184.841 250.298 184.824 251.67C184.808 253.043 184.45 254.389 183.783 255.588L172.754 275.53C172.567 275.867 172.294 276.147 171.962 276.342C171.63 276.537 171.253 276.64 170.868 276.639Z" fill="#112D57"/>
<path d="M219.18 273.097L200.505 260.05C199.379 259.268 198.465 258.216 197.847 256.992C197.229 255.767 196.925 254.407 196.964 253.036C196.983 251.888 197.252 250.758 197.752 249.724C198.389 248.377 199.378 247.227 200.614 246.395C201.849 245.563 203.286 245.08 204.773 244.997C206.851 244.902 208.892 245.572 210.511 246.88L228.035 260.673C228.468 261.013 228.753 261.507 228.833 262.051C228.913 262.596 228.782 263.15 228.466 263.601L222.17 272.57C221.843 273.035 221.344 273.352 220.784 273.451C220.224 273.55 219.647 273.423 219.18 273.097Z" fill="#112D57"/>
<path d="M178.5 215.489C178.5 211.581 180.051 207.833 182.813 205.069C185.574 202.306 189.32 200.753 193.225 200.753C197.13 200.753 200.876 202.306 203.637 205.069C206.398 207.833 207.95 211.581 207.95 215.489V216.356H204.137C203.982 216.356 203.829 216.319 203.691 216.248C203.553 216.177 203.434 216.074 203.344 215.948L202.651 214.978C202.6 214.906 202.526 214.853 202.441 214.828C202.356 214.802 202.265 214.806 202.183 214.838C202.1 214.87 202.031 214.929 201.985 215.005C201.94 215.081 201.921 215.171 201.932 215.259C201.949 215.396 201.937 215.535 201.896 215.668C201.856 215.8 201.787 215.922 201.696 216.026C201.604 216.13 201.491 216.213 201.365 216.27C201.239 216.327 201.102 216.356 200.964 216.356H178.5V215.489Z" fill="#2F2E41"/>
<path d="M557.355 419.777H276.622C274.185 419.774 271.849 418.804 270.125 417.079C268.402 415.354 267.432 413.016 267.43 410.577V243.893C267.432 241.454 268.402 239.116 270.125 237.391C271.849 235.666 274.185 234.696 276.622 234.693C278.778 234.696 280.845 235.554 282.369 237.079C283.893 238.605 284.751 240.673 284.753 242.83V399.597C284.756 401.883 285.664 404.074 287.279 405.691C288.894 407.307 291.084 408.216 293.368 408.219H556.407C557.714 408.204 558.988 408.628 560.025 409.423C561.063 410.218 561.805 411.337 562.132 412.604C562.499 413.804 562.454 415.093 562.003 416.265C561.552 417.436 560.722 418.423 559.645 419.067C558.963 419.512 558.17 419.758 557.355 419.777Z" fill="#F2F2F2"/>
<path d="M419.018 367.071C435.597 367.071 449.037 353.623 449.037 337.035C449.037 320.447 435.597 307 419.018 307C402.44 307 389 320.447 389 337.035C389 353.623 402.44 367.071 419.018 367.071Z" fill="#112D57"/>
<path d="M431.484 334.513H421.278V324.301C421.278 323.664 421.025 323.053 420.575 322.602C420.124 322.152 419.514 321.898 418.877 321.898C418.24 321.898 417.629 322.152 417.178 322.602C416.728 323.053 416.475 323.664 416.475 324.301V334.513H406.269C405.632 334.513 405.021 334.767 404.571 335.217C404.12 335.668 403.867 336.279 403.867 336.916C403.867 337.554 404.12 338.165 404.571 338.616C405.021 339.066 405.632 339.319 406.269 339.319H416.475V349.531C416.475 350.169 416.728 350.78 417.178 351.23C417.629 351.681 418.24 351.934 418.877 351.934C419.514 351.934 420.124 351.681 420.575 351.23C421.025 350.78 421.278 350.169 421.278 349.531V339.319H431.484C432.121 339.319 432.732 339.066 433.183 338.616C433.633 338.165 433.886 337.554 433.886 336.916C433.886 336.279 433.633 335.668 433.183 335.217C432.732 334.767 432.121 334.513 431.484 334.513Z" fill="white"/>
<path d="M335.152 12.922C335.567 12.922 335.938 12.852 336.265 12.712C336.592 12.572 336.867 12.376 337.091 12.124C337.32 11.872 337.492 11.571 337.609 11.221C337.73 10.871 337.791 10.486 337.791 10.066V3.969H339.142V10.066C339.142 10.6447 339.049 11.1813 338.862 11.676C338.68 12.1707 338.416 12.6 338.071 12.964C337.73 13.3233 337.313 13.6057 336.818 13.811C336.323 14.0163 335.768 14.119 335.152 14.119C334.536 14.119 333.981 14.0163 333.486 13.811C332.991 13.6057 332.571 13.3233 332.226 12.964C331.881 12.6 331.615 12.1707 331.428 11.676C331.246 11.1813 331.155 10.6447 331.155 10.066V3.969H332.506V10.059C332.506 10.479 332.564 10.864 332.681 11.214C332.802 11.564 332.975 11.865 333.199 12.117C333.428 12.369 333.705 12.5673 334.032 12.712C334.363 12.852 334.737 12.922 335.152 12.922ZM342.33 12.292C342.559 12.6 342.808 12.817 343.079 12.943C343.35 13.069 343.653 13.132 343.989 13.132C344.652 13.132 345.16 12.8963 345.515 12.425C345.87 11.9537 346.047 11.2817 346.047 10.409C346.047 9.947 346.005 9.55033 345.921 9.219C345.842 8.88767 345.725 8.617 345.571 8.407C345.417 8.19233 345.228 8.036 345.004 7.938C344.78 7.84 344.526 7.791 344.241 7.791C343.835 7.791 343.478 7.88433 343.17 8.071C342.867 8.25767 342.587 8.52133 342.33 8.862V12.292ZM342.267 8.008C342.566 7.63933 342.911 7.343 343.303 7.119C343.695 6.895 344.143 6.783 344.647 6.783C345.058 6.783 345.429 6.86233 345.76 7.021C346.091 7.175 346.374 7.406 346.607 7.714C346.84 8.01733 347.02 8.39533 347.146 8.848C347.272 9.30067 347.335 9.821 347.335 10.409C347.335 10.9317 347.265 11.4193 347.125 11.872C346.985 12.32 346.782 12.7097 346.516 13.041C346.255 13.3677 345.933 13.6267 345.55 13.818C345.172 14.0047 344.745 14.098 344.269 14.098C343.835 14.098 343.462 14.0257 343.149 13.881C342.841 13.7317 342.568 13.5263 342.33 13.265V16.401H341.077V6.909H341.826C342.003 6.909 342.113 6.99533 342.155 7.168L342.267 8.008ZM350.213 3.689V14H348.966V3.689H350.213ZM355.222 6.797C355.74 6.797 356.207 6.88333 356.622 7.056C357.037 7.22867 357.392 7.47367 357.686 7.791C357.98 8.10833 358.204 8.49333 358.358 8.946C358.517 9.394 358.596 9.89567 358.596 10.451C358.596 11.011 358.517 11.515 358.358 11.963C358.204 12.411 357.98 12.7937 357.686 13.111C357.392 13.4283 357.037 13.6733 356.622 13.846C356.207 14.014 355.74 14.098 355.222 14.098C354.699 14.098 354.228 14.014 353.808 13.846C353.393 13.6733 353.038 13.4283 352.744 13.111C352.45 12.7937 352.224 12.411 352.065 11.963C351.911 11.515 351.834 11.011 351.834 10.451C351.834 9.89567 351.911 9.394 352.065 8.946C352.224 8.49333 352.45 8.10833 352.744 7.791C353.038 7.47367 353.393 7.22867 353.808 7.056C354.228 6.88333 354.699 6.797 355.222 6.797ZM355.222 13.125C355.922 13.125 356.445 12.8917 356.79 12.425C357.135 11.9537 357.308 11.298 357.308 10.458C357.308 9.61333 357.135 8.95533 356.79 8.484C356.445 8.01267 355.922 7.777 355.222 7.777C354.867 7.777 354.557 7.83767 354.291 7.959C354.03 8.08033 353.81 8.25533 353.633 8.484C353.46 8.71267 353.33 8.995 353.241 9.331C353.157 9.66233 353.115 10.038 353.115 10.458C353.115 11.298 353.288 11.9537 353.633 12.425C353.983 12.8917 354.513 13.125 355.222 13.125ZM364.019 10.808C363.445 10.8267 362.955 10.8733 362.549 10.948C362.148 11.018 361.819 11.1113 361.562 11.228C361.31 11.3447 361.126 11.4823 361.009 11.641C360.897 11.7997 360.841 11.977 360.841 12.173C360.841 12.3597 360.872 12.5207 360.932 12.656C360.993 12.7913 361.075 12.9033 361.177 12.992C361.285 13.076 361.408 13.139 361.548 13.181C361.693 13.2183 361.847 13.237 362.01 13.237C362.23 13.237 362.43 13.216 362.612 13.174C362.794 13.1273 362.965 13.062 363.123 12.978C363.287 12.894 363.441 12.7937 363.585 12.677C363.735 12.5603 363.879 12.4273 364.019 12.278V10.808ZM359.994 7.91C360.386 7.532 360.809 7.24967 361.261 7.063C361.714 6.87633 362.216 6.783 362.766 6.783C363.163 6.783 363.515 6.84833 363.823 6.979C364.131 7.10967 364.39 7.29167 364.6 7.525C364.81 7.75833 364.969 8.04067 365.076 8.372C365.184 8.70333 365.237 9.06733 365.237 9.464V14H364.684C364.563 14 364.47 13.9813 364.404 13.944C364.339 13.902 364.288 13.8227 364.25 13.706L364.11 13.034C363.924 13.2067 363.742 13.3607 363.564 13.496C363.387 13.6267 363.2 13.7387 363.004 13.832C362.808 13.9207 362.598 13.9883 362.374 14.035C362.155 14.0863 361.91 14.112 361.639 14.112C361.364 14.112 361.105 14.0747 360.862 14C360.62 13.9207 360.407 13.804 360.225 13.65C360.048 13.496 359.906 13.3023 359.798 13.069C359.696 12.831 359.644 12.551 359.644 12.229C359.644 11.949 359.721 11.6807 359.875 11.424C360.029 11.1627 360.279 10.9317 360.624 10.731C360.97 10.5303 361.42 10.367 361.975 10.241C362.531 10.1103 363.212 10.0357 364.019 10.017V9.464C364.019 8.91333 363.9 8.498 363.662 8.218C363.424 7.93333 363.077 7.791 362.619 7.791C362.311 7.791 362.052 7.83067 361.842 7.91C361.637 7.98467 361.457 8.071 361.303 8.169C361.154 8.26233 361.023 8.34867 360.911 8.428C360.804 8.50267 360.697 8.54 360.589 8.54C360.505 8.54 360.433 8.519 360.372 8.477C360.312 8.43033 360.26 8.37433 360.218 8.309L359.994 7.91ZM371.755 8.596C371.522 8.28333 371.27 8.06633 370.999 7.945C370.729 7.819 370.425 7.756 370.089 7.756C369.431 7.756 368.925 7.99167 368.57 8.463C368.216 8.93433 368.038 9.60633 368.038 10.479C368.038 10.941 368.078 11.3377 368.157 11.669C368.237 11.9957 368.353 12.2663 368.507 12.481C368.661 12.691 368.85 12.845 369.074 12.943C369.298 13.041 369.553 13.09 369.837 13.09C370.248 13.09 370.605 12.9967 370.908 12.81C371.216 12.6233 371.499 12.3597 371.755 12.019V8.596ZM373.001 3.689V14H372.259C372.082 14 371.97 13.9137 371.923 13.741L371.811 12.88C371.508 13.244 371.163 13.538 370.775 13.762C370.388 13.986 369.94 14.098 369.431 14.098C369.025 14.098 368.657 14.021 368.325 13.867C367.994 13.7083 367.712 13.4773 367.478 13.174C367.245 12.8707 367.065 12.4927 366.939 12.04C366.813 11.5873 366.75 11.067 366.75 10.479C366.75 9.95633 366.82 9.471 366.96 9.023C367.1 8.57033 367.301 8.17833 367.562 7.847C367.824 7.51567 368.143 7.25667 368.521 7.07C368.904 6.87867 369.333 6.783 369.809 6.783C370.243 6.783 370.614 6.85767 370.922 7.007C371.235 7.15167 371.513 7.35467 371.755 7.616V3.689H373.001ZM383.171 8.596C382.938 8.28333 382.686 8.06633 382.415 7.945C382.145 7.819 381.841 7.756 381.505 7.756C380.847 7.756 380.341 7.99167 379.986 8.463C379.632 8.93433 379.454 9.60633 379.454 10.479C379.454 10.941 379.494 11.3377 379.573 11.669C379.653 11.9957 379.769 12.2663 379.923 12.481C380.077 12.691 380.266 12.845 380.49 12.943C380.714 13.041 380.969 13.09 381.253 13.09C381.664 13.09 382.021 12.9967 382.324 12.81C382.632 12.6233 382.915 12.3597 383.171 12.019V8.596ZM384.417 3.689V14H383.675C383.498 14 383.386 13.9137 383.339 13.741L383.227 12.88C382.924 13.244 382.579 13.538 382.191 13.762C381.804 13.986 381.356 14.098 380.847 14.098C380.441 14.098 380.073 14.021 379.741 13.867C379.41 13.7083 379.128 13.4773 378.894 13.174C378.661 12.8707 378.481 12.4927 378.355 12.04C378.229 11.5873 378.166 11.067 378.166 10.479C378.166 9.95633 378.236 9.471 378.376 9.023C378.516 8.57033 378.717 8.17833 378.978 7.847C379.24 7.51567 379.559 7.25667 379.937 7.07C380.32 6.87867 380.749 6.783 381.225 6.783C381.659 6.783 382.03 6.85767 382.338 7.007C382.651 7.15167 382.929 7.35467 383.171 7.616V3.689H384.417ZM387.568 8.33C387.792 7.84467 388.068 7.46667 388.394 7.196C388.721 6.92067 389.12 6.783 389.591 6.783C389.741 6.783 389.883 6.79933 390.018 6.832C390.158 6.86467 390.282 6.916 390.389 6.986L390.298 7.917C390.27 8.03367 390.2 8.092 390.088 8.092C390.023 8.092 389.927 8.078 389.801 8.05C389.675 8.022 389.533 8.008 389.374 8.008C389.15 8.008 388.95 8.04067 388.772 8.106C388.6 8.17133 388.443 8.26933 388.303 8.4C388.168 8.526 388.044 8.68467 387.932 8.876C387.825 9.06267 387.727 9.27733 387.638 9.52V14H386.385V6.909H387.099C387.235 6.909 387.328 6.93467 387.379 6.986C387.431 7.03733 387.466 7.126 387.484 7.252L387.568 8.33ZM395.219 10.808C394.645 10.8267 394.155 10.8733 393.749 10.948C393.347 11.018 393.018 11.1113 392.762 11.228C392.51 11.3447 392.325 11.4823 392.209 11.641C392.097 11.7997 392.041 11.977 392.041 12.173C392.041 12.3597 392.071 12.5207 392.132 12.656C392.192 12.7913 392.274 12.9033 392.377 12.992C392.484 13.076 392.608 13.139 392.748 13.181C392.892 13.2183 393.046 13.237 393.21 13.237C393.429 13.237 393.63 13.216 393.812 13.174C393.994 13.1273 394.164 13.062 394.323 12.978C394.486 12.894 394.64 12.7937 394.785 12.677C394.934 12.5603 395.079 12.4273 395.219 12.278V10.808ZM391.194 7.91C391.586 7.532 392.008 7.24967 392.461 7.063C392.913 6.87633 393.415 6.783 393.966 6.783C394.362 6.783 394.715 6.84833 395.023 6.979C395.331 7.10967 395.59 7.29167 395.8 7.525C396.01 7.75833 396.168 8.04067 396.276 8.372C396.383 8.70333 396.437 9.06733 396.437 9.464V14H395.884C395.762 14 395.669 13.9813 395.604 13.944C395.538 13.902 395.487 13.8227 395.45 13.706L395.31 13.034C395.123 13.2067 394.941 13.3607 394.764 13.496C394.586 13.6267 394.4 13.7387 394.204 13.832C394.008 13.9207 393.798 13.9883 393.574 14.035C393.354 14.0863 393.109 14.112 392.839 14.112C392.563 14.112 392.304 14.0747 392.062 14C391.819 13.9207 391.607 13.804 391.425 13.65C391.247 13.496 391.105 13.3023 390.998 13.069C390.895 12.831 390.844 12.551 390.844 12.229C390.844 11.949 390.921 11.6807 391.075 11.424C391.229 11.1627 391.478 10.9317 391.824 10.731C392.169 10.5303 392.619 10.367 393.175 10.241C393.73 10.1103 394.411 10.0357 395.219 10.017V9.464C395.219 8.91333 395.1 8.498 394.862 8.218C394.624 7.93333 394.276 7.791 393.819 7.791C393.511 7.791 393.252 7.83067 393.042 7.91C392.836 7.98467 392.657 8.071 392.503 8.169C392.353 8.26233 392.223 8.34867 392.111 8.428C392.003 8.50267 391.896 8.54 391.789 8.54C391.705 8.54 391.632 8.519 391.572 8.477C391.511 8.43033 391.46 8.37433 391.418 8.309L391.194 7.91ZM408.073 6.909L405.777 14H404.79C404.668 14 404.584 13.9207 404.538 13.762L402.97 8.953C402.932 8.84567 402.902 8.73833 402.879 8.631C402.855 8.519 402.832 8.40933 402.809 8.302C402.785 8.40933 402.762 8.519 402.739 8.631C402.715 8.73833 402.685 8.848 402.648 8.96L401.052 13.762C401.01 13.9207 400.916 14 400.772 14H399.834L397.538 6.909H398.518C398.616 6.909 398.697 6.93467 398.763 6.986C398.833 7.03733 398.879 7.098 398.903 7.168L400.261 11.732C400.34 12.068 400.403 12.3853 400.45 12.684C400.492 12.53 400.534 12.3737 400.576 12.215C400.622 12.0563 400.671 11.8953 400.723 11.732L402.221 7.14C402.244 7.07 402.284 7.01167 402.34 6.965C402.4 6.91833 402.473 6.895 402.557 6.895H403.103C403.196 6.895 403.273 6.91833 403.334 6.965C403.394 7.01167 403.436 7.07 403.46 7.14L404.923 11.732C404.974 11.8953 405.021 12.0563 405.063 12.215C405.105 12.3737 405.144 12.53 405.182 12.684C405.205 12.53 405.233 12.376 405.266 12.222C405.303 12.0633 405.343 11.9 405.385 11.732L406.771 7.168C406.794 7.09333 406.838 7.03267 406.904 6.986C406.969 6.93467 407.046 6.909 407.135 6.909H408.073ZM410.602 6.909V14H409.356V6.909H410.602ZM410.868 4.683C410.868 4.80433 410.842 4.91867 410.791 5.026C410.744 5.12867 410.679 5.222 410.595 5.306C410.515 5.38533 410.42 5.44833 410.308 5.495C410.2 5.54167 410.086 5.565 409.965 5.565C409.843 5.565 409.729 5.54167 409.622 5.495C409.519 5.44833 409.428 5.38533 409.349 5.306C409.269 5.222 409.206 5.12867 409.16 5.026C409.113 4.91867 409.09 4.80433 409.09 4.683C409.09 4.56167 409.113 4.44733 409.16 4.34C409.206 4.228 409.269 4.13233 409.349 4.053C409.428 3.969 409.519 3.90367 409.622 3.857C409.729 3.81033 409.843 3.787 409.965 3.787C410.086 3.787 410.2 3.81033 410.308 3.857C410.42 3.90367 410.515 3.969 410.595 4.053C410.679 4.13233 410.744 4.228 410.791 4.34C410.842 4.44733 410.868 4.56167 410.868 4.683ZM413.825 7.938C413.979 7.76533 414.142 7.609 414.315 7.469C414.488 7.329 414.67 7.21 414.861 7.112C415.057 7.00933 415.262 6.93233 415.477 6.881C415.696 6.825 415.932 6.797 416.184 6.797C416.571 6.797 416.912 6.86233 417.206 6.993C417.505 7.119 417.752 7.301 417.948 7.539C418.149 7.77233 418.3 8.05467 418.403 8.386C418.506 8.71733 418.557 9.08367 418.557 9.485V14H417.304V9.485C417.304 8.94833 417.18 8.533 416.933 8.239C416.69 7.94033 416.319 7.791 415.82 7.791C415.451 7.791 415.106 7.87967 414.784 8.057C414.467 8.23433 414.173 8.47467 413.902 8.778V14H412.649V6.909H413.398C413.575 6.909 413.685 6.99533 413.727 7.168L413.825 7.938ZM422.927 10.535C423.179 10.535 423.4 10.5 423.592 10.43C423.783 10.36 423.944 10.262 424.075 10.136C424.205 10.01 424.303 9.86067 424.369 9.688C424.434 9.51067 424.467 9.317 424.467 9.107C424.467 8.673 424.334 8.32767 424.068 8.071C423.806 7.81433 423.426 7.686 422.927 7.686C422.423 7.686 422.038 7.81433 421.772 8.071C421.51 8.32767 421.38 8.673 421.38 9.107C421.38 9.317 421.412 9.51067 421.478 9.688C421.548 9.86067 421.648 10.01 421.779 10.136C421.909 10.262 422.07 10.36 422.262 10.43C422.453 10.5 422.675 10.535 422.927 10.535ZM425.174 14.385C425.174 14.2123 425.125 14.0723 425.027 13.965C424.929 13.8577 424.796 13.7737 424.628 13.713C424.464 13.6523 424.273 13.6103 424.054 13.587C423.834 13.559 423.601 13.538 423.354 13.524C423.111 13.51 422.864 13.496 422.612 13.482C422.36 13.468 422.117 13.4447 421.884 13.412C421.622 13.5333 421.408 13.6873 421.24 13.874C421.076 14.056 420.995 14.2707 420.995 14.518C420.995 14.6767 421.034 14.8237 421.114 14.959C421.198 15.099 421.324 15.218 421.492 15.316C421.66 15.4187 421.87 15.498 422.122 15.554C422.378 15.6147 422.679 15.645 423.025 15.645C423.361 15.645 423.662 15.6147 423.928 15.554C424.194 15.4933 424.418 15.407 424.6 15.295C424.786 15.183 424.929 15.05 425.027 14.896C425.125 14.742 425.174 14.5717 425.174 14.385ZM426.441 7.189V7.651C426.441 7.805 426.343 7.903 426.147 7.945L425.342 8.05C425.5 8.358 425.58 8.69867 425.58 9.072C425.58 9.41733 425.512 9.73233 425.377 10.017C425.246 10.297 425.064 10.5373 424.831 10.738C424.597 10.9387 424.317 11.0927 423.991 11.2C423.664 11.3073 423.309 11.361 422.927 11.361C422.595 11.361 422.283 11.3213 421.989 11.242C421.839 11.3353 421.725 11.4357 421.646 11.543C421.566 11.6457 421.527 11.7507 421.527 11.858C421.527 12.026 421.594 12.1543 421.73 12.243C421.87 12.327 422.052 12.3877 422.276 12.425C422.5 12.4623 422.754 12.4857 423.039 12.495C423.328 12.5043 423.622 12.5207 423.921 12.544C424.224 12.5627 424.518 12.5977 424.803 12.649C425.092 12.7003 425.349 12.7843 425.573 12.901C425.797 13.0177 425.976 13.1787 426.112 13.384C426.252 13.5893 426.322 13.8553 426.322 14.182C426.322 14.4853 426.245 14.7793 426.091 15.064C425.941 15.3487 425.724 15.6007 425.44 15.82C425.155 16.044 424.805 16.2213 424.39 16.352C423.979 16.4873 423.515 16.555 422.997 16.555C422.479 16.555 422.026 16.5037 421.639 16.401C421.251 16.2983 420.929 16.1607 420.673 15.988C420.416 15.8153 420.222 15.6147 420.092 15.386C419.966 15.162 419.903 14.9263 419.903 14.679C419.903 14.329 420.012 14.0327 420.232 13.79C420.451 13.5473 420.752 13.3537 421.135 13.209C420.925 13.1157 420.757 12.992 420.631 12.838C420.509 12.6793 420.449 12.467 420.449 12.201C420.449 12.0983 420.467 11.9933 420.505 11.886C420.542 11.774 420.598 11.6643 420.673 11.557C420.752 11.445 420.848 11.34 420.96 11.242C421.072 11.144 421.202 11.0577 421.352 10.983C421.002 10.787 420.729 10.528 420.533 10.206C420.337 9.87933 420.239 9.50133 420.239 9.072C420.239 8.72667 420.304 8.414 420.435 8.134C420.57 7.84933 420.757 7.609 420.995 7.413C421.233 7.21233 421.515 7.05833 421.842 6.951C422.173 6.84367 422.535 6.79 422.927 6.79C423.235 6.79 423.522 6.825 423.788 6.895C424.054 6.96033 424.296 7.05833 424.516 7.189H426.441ZM431.859 8.078C431.803 8.18067 431.717 8.232 431.6 8.232C431.53 8.232 431.451 8.20633 431.362 8.155C431.274 8.10367 431.164 8.04767 431.033 7.987C430.907 7.92167 430.756 7.86333 430.578 7.812C430.401 7.756 430.191 7.728 429.948 7.728C429.738 7.728 429.549 7.756 429.381 7.812C429.213 7.86333 429.069 7.93567 428.947 8.029C428.831 8.12233 428.74 8.232 428.674 8.358C428.614 8.47933 428.583 8.61233 428.583 8.757C428.583 8.939 428.635 9.09067 428.737 9.212C428.845 9.33333 428.985 9.43833 429.157 9.527C429.33 9.61567 429.526 9.695 429.745 9.765C429.965 9.83033 430.189 9.90267 430.417 9.982C430.651 10.0567 430.877 10.1407 431.096 10.234C431.316 10.3273 431.512 10.444 431.684 10.584C431.857 10.724 431.995 10.8967 432.097 11.102C432.205 11.3027 432.258 11.5453 432.258 11.83C432.258 12.1567 432.2 12.46 432.083 12.74C431.967 13.0153 431.794 13.2557 431.565 13.461C431.337 13.6617 431.057 13.8203 430.725 13.937C430.394 14.0537 430.011 14.112 429.577 14.112C429.083 14.112 428.635 14.0327 428.233 13.874C427.832 13.7107 427.491 13.503 427.211 13.251L427.505 12.775C427.543 12.7143 427.587 12.6677 427.638 12.635C427.69 12.6023 427.755 12.586 427.834 12.586C427.918 12.586 428.007 12.6187 428.1 12.684C428.194 12.7493 428.306 12.8217 428.436 12.901C428.572 12.9803 428.735 13.0527 428.926 13.118C429.118 13.1833 429.356 13.216 429.64 13.216C429.883 13.216 430.095 13.1857 430.277 13.125C430.459 13.0597 430.611 12.9733 430.732 12.866C430.854 12.7587 430.942 12.635 430.998 12.495C431.059 12.355 431.089 12.2057 431.089 12.047C431.089 11.851 431.036 11.69 430.928 11.564C430.826 11.4333 430.688 11.3237 430.515 11.235C430.343 11.1417 430.144 11.0623 429.92 10.997C429.701 10.927 429.475 10.8547 429.241 10.78C429.013 10.7053 428.786 10.6213 428.562 10.528C428.343 10.43 428.147 10.3087 427.974 10.164C427.802 10.0193 427.662 9.842 427.554 9.632C427.452 9.41733 427.4 9.15833 427.4 8.855C427.4 8.58433 427.456 8.32533 427.568 8.078C427.68 7.826 427.844 7.60667 428.058 7.42C428.273 7.22867 428.537 7.077 428.849 6.965C429.162 6.853 429.519 6.797 429.92 6.797C430.387 6.797 430.805 6.87167 431.173 7.021C431.547 7.16567 431.869 7.36633 432.139 7.623L431.859 8.078Z" fill="#395174"/>
</svg>
