<svg xmlns="http://www.w3.org/2000/svg" width="580" height="456" viewBox="0 0 580 456" fill="none">
<g clip-path="url(#clip0_2198_375298)">
<path d="M525.832 0.298096H0.224609V336.92H525.832V0.298096Z" fill="#E6E6E6"/>
<path d="M510.801 42.5189H15.2529V317.006H510.801V42.5189Z" fill="white"/>
<path d="M525.607 0H0V22.3297H525.607V0Z" fill="#FAB133"/>
<path d="M16.5927 15.5549C18.8785 15.5549 20.7314 13.7019 20.7314 11.4162C20.7314 9.13052 18.8785 7.27759 16.5927 7.27759C14.307 7.27759 12.4541 9.13052 12.4541 11.4162C12.4541 13.7019 14.307 15.5549 16.5927 15.5549Z" fill="white"/>
<path d="M32.3037 15.5549C34.5894 15.5549 36.4423 13.7019 36.4423 11.4162C36.4423 9.13052 34.5894 7.27759 32.3037 7.27759C30.018 7.27759 28.165 9.13052 28.165 11.4162C28.165 13.7019 30.018 15.5549 32.3037 15.5549Z" fill="white"/>
<path d="M48.0117 15.5549C50.2974 15.5549 52.1503 13.7019 52.1503 11.4162C52.1503 9.13052 50.2974 7.27759 48.0117 7.27759C45.726 7.27759 43.873 9.13052 43.873 11.4162C43.873 13.7019 45.726 15.5549 48.0117 15.5549Z" fill="white"/>
<path d="M187.614 70.9991H60.2812V288.525H187.614V70.9991Z" fill="#E6E6E6"/>
<path d="M315.705 70.9991H209.595V130.876H315.705V70.9991Z" fill="#FAB133"/>
<path d="M315.705 147.55H209.595V211.974H315.705V147.55Z" fill="#E6E6E6"/>
<path d="M315.705 228.649H209.595V288.525H315.705V228.649Z" fill="#E6E6E6"/>
<path d="M465.775 70.9991H338.442V165.796H465.775V70.9991Z" fill="#E6E6E6"/>
<path d="M465.775 193.729H338.442V288.525H465.775V193.729Z" fill="#E6E6E6"/>
<path d="M416.722 172.606V152.198C416.722 144.945 419.603 137.989 424.732 132.86C429.86 127.732 436.816 124.85 444.069 124.85C451.322 124.85 458.278 127.732 463.406 132.86C468.535 137.989 471.416 144.945 471.416 152.198V172.606C471.415 173.58 471.028 174.514 470.339 175.202C469.65 175.891 468.717 176.279 467.743 176.28H420.395C419.421 176.279 418.488 175.891 417.799 175.202C417.11 174.514 416.723 173.58 416.722 172.606Z" fill="#112D57"/>
<path d="M484.506 438.198L474.86 440.867L459.974 404.934L474.21 400.994L484.506 438.198Z" fill="#FFB8B8"/>
<path d="M467.208 440.018L485.811 434.87L489.052 446.582L458.738 454.972C458.312 453.434 458.193 451.827 458.389 450.243C458.584 448.659 459.089 447.129 459.876 445.741C460.663 444.352 461.715 443.132 462.973 442.15C464.231 441.168 465.67 440.444 467.208 440.018Z" fill="#112D57"/>
<path d="M383.945 445.617H373.936L369.175 407.014H383.946L383.945 445.617Z" fill="#FFB8B8"/>
<path d="M366.788 442.757H386.09V454.91H354.636C354.636 453.314 354.95 451.734 355.561 450.259C356.172 448.785 357.067 447.445 358.195 446.317C359.324 445.188 360.663 444.293 362.138 443.682C363.612 443.072 365.192 442.757 366.788 442.757Z" fill="#112D57"/>
<path d="M371.878 229.878C372.592 230.843 373.51 231.639 374.565 232.21C375.62 232.782 376.788 233.115 377.986 233.186C379.184 233.258 380.383 233.066 381.498 232.623C382.614 232.181 383.619 231.5 384.443 230.627L411.048 242.593L408.628 227.629L383.735 218.56C382.177 217.273 380.201 216.602 378.182 216.675C376.163 216.747 374.24 217.558 372.779 218.953C371.317 220.348 370.419 222.231 370.253 224.244C370.087 226.258 370.665 228.263 371.878 229.878Z" fill="#FFB8B8"/>
<path d="M427.155 319.87C418.796 319.87 410.143 318.625 402.87 314.922C399.009 312.994 395.587 310.291 392.818 306.981C390.05 303.671 387.995 299.825 386.781 295.684C382.991 283.685 387.769 271.896 392.39 260.496C395.253 253.432 397.958 246.759 398.66 240.183L398.905 237.848C399.998 227.36 400.942 218.302 406.168 214.904C408.877 213.143 412.519 213.043 417.303 214.597L462.238 229.194L460.586 314.493L460.313 314.584C460.078 314.663 444.237 319.87 427.155 319.87Z" fill="#112D57"/>
<path d="M416.518 188.042C416.518 188.042 438.559 181.511 455.702 183.96C455.702 183.96 445.906 237.838 449.171 255.797C452.437 273.757 392.436 262.736 404.681 245.593L408.763 225.185C408.763 225.185 400.599 217.021 407.946 207.225L416.518 188.042Z" fill="#FAB133"/>
<path d="M405.677 318.253L378.513 313.159L387.997 240.174C388.634 238.136 403.326 191.893 409.998 189.391C414.843 187.685 419.797 186.308 424.828 185.271L425.794 185.078L420.347 193.248L398.662 245.211L405.677 318.253Z" fill="#112D57"/>
<path d="M391.522 436.673L356.424 430.824L376.12 350.395L405.43 240.404L405.719 242.357C405.742 242.503 408.48 256.872 449.108 250.496L449.465 250.44L449.564 250.788L498.668 424.29L458.675 430.956L422.199 304.369L391.522 436.673Z" fill="#112D57"/>
<path d="M440.17 331.911L440.192 331.294C440.216 330.608 442.631 262.417 441.824 234.993C441.015 207.475 449.924 183.645 450.014 183.407L450.087 183.216L450.284 183.159C461.81 179.866 471.809 189.694 471.909 189.794L472.05 189.934L468.767 217.017L482.821 315.501L440.17 331.911Z" fill="#112D57"/>
<path d="M438.449 175.804C449.523 175.804 458.5 166.828 458.5 155.754C458.5 144.681 449.523 135.704 438.449 135.704C427.376 135.704 418.399 144.681 418.399 155.754C418.399 166.828 427.376 175.804 438.449 175.804Z" fill="#FFB8B8"/>
<path d="M410.253 153.83C410.259 148.095 412.541 142.596 416.596 138.541C420.652 134.485 426.15 132.204 431.886 132.198H435.968C441.703 132.204 447.202 134.485 451.257 138.541C455.313 142.596 457.594 148.095 457.6 153.83V154.239H448.974L446.032 146L445.444 154.239H440.986L439.502 150.082L439.205 154.239H410.253V153.83Z" fill="#112D57"/>
<path d="M436.476 178.575C436.071 178.026 435.83 177.375 435.779 176.695C435.728 176.015 435.87 175.335 436.189 174.732C440.514 166.505 446.57 151.303 438.532 141.928L437.954 141.254H461.291V176.291L440.091 180.032C439.876 180.07 439.659 180.089 439.441 180.089C438.862 180.089 438.292 179.952 437.776 179.689C437.261 179.425 436.815 179.044 436.476 178.575Z" fill="#112D57"/>
<path d="M342.518 33.9159C326.188 20.1364 306.205 11.4004 285.001 8.77089C263.796 6.14139 242.285 9.73177 223.083 19.1051C203.882 28.4785 187.82 43.2307 176.85 61.5666C165.88 79.9026 160.476 101.032 161.296 122.383C162.116 143.734 169.124 164.386 181.467 181.827C193.81 199.268 210.956 212.746 230.82 220.619C250.683 228.493 272.406 230.424 293.347 226.176C314.287 221.929 333.542 211.686 348.767 196.695L483.967 310.777C486.024 312.516 488.688 313.366 491.372 313.142C494.057 312.917 496.542 311.635 498.281 309.578C500.02 307.521 500.871 304.857 500.646 302.172C500.421 299.488 499.139 297.003 497.082 295.264L497.067 295.251L361.867 181.17C377.573 158.629 384.295 131.034 380.716 103.795C377.137 76.5556 363.514 51.6346 342.518 33.9159ZM333.802 170.185C323.27 182.667 309.272 191.746 293.579 196.273C277.887 200.801 261.204 200.573 245.641 195.619C230.078 190.665 216.334 181.207 206.146 168.441C195.958 155.676 189.784 140.176 188.406 123.902C187.027 107.628 190.505 91.31 198.4 77.0125C206.295 62.715 218.253 51.0797 232.76 43.5781C247.268 36.0764 263.675 33.0453 279.905 34.8679C296.136 36.6906 311.461 43.2853 323.944 53.818C332.232 60.8114 339.061 69.3688 344.042 79.0016C349.023 88.6344 352.058 99.154 352.973 109.96C353.889 120.765 352.667 131.645 349.378 141.979C346.088 152.312 340.796 161.897 333.802 170.185Z" fill="#3F3D56"/>
<path opacity="0.3" d="M217.436 180.043C201.594 166.675 191.359 147.837 188.763 127.272C186.167 106.706 191.4 85.9165 203.423 69.0306C201.844 70.6207 200.318 72.286 198.844 74.0265C191.85 82.3146 186.558 91.899 183.268 102.232C179.979 112.566 178.757 123.446 179.673 134.252C180.588 145.057 183.623 155.577 188.604 165.21C193.585 174.843 200.414 183.4 208.702 190.393C216.99 197.387 226.575 202.679 236.908 205.969C247.242 209.258 258.122 210.48 268.928 209.565C279.733 208.649 290.253 205.614 299.886 200.633C309.518 195.653 318.076 188.823 325.069 180.535C326.54 178.792 327.925 177.007 329.224 175.181C314.601 189.873 294.988 198.529 274.279 199.43C253.57 200.331 233.279 193.41 217.436 180.043Z" fill="black"/>
<path d="M444.886 264.93C446.052 265.215 447.266 265.241 448.443 265.006C449.62 264.771 450.731 264.281 451.698 263.57C452.665 262.86 453.464 261.945 454.04 260.892C454.615 259.839 454.953 258.673 455.028 257.475L483.137 249.673L471.711 239.711L446.77 248.647C444.75 248.653 442.802 249.4 441.295 250.746C439.788 252.093 438.828 253.945 438.596 255.952C438.364 257.959 438.876 259.982 440.035 261.636C441.194 263.291 442.921 264.463 444.886 264.93Z" fill="#FFB8B8"/>
<path d="M456.57 260.801L454.859 244.551L478.339 231.596L463.031 213.065L465.529 192.249L471.749 189.583L471.943 189.832C474.876 193.603 500.6 226.796 500.6 230.899C500.6 235.114 495.679 247.49 488.946 250.856C482.451 254.104 458.063 260.415 457.028 260.683L456.57 260.801Z" fill="#112D57"/>
<path d="M578.4 456H267.376C267.159 456 266.952 455.914 266.799 455.761C266.646 455.608 266.56 455.4 266.56 455.184C266.56 454.967 266.646 454.76 266.799 454.606C266.952 454.453 267.159 454.367 267.376 454.367H578.4C578.616 454.367 578.824 454.453 578.977 454.606C579.13 454.76 579.216 454.967 579.216 455.184C579.216 455.4 579.13 455.608 578.977 455.761C578.824 455.914 578.616 456 578.4 456Z" fill="#CCCCCC"/>
</g>
<defs>
<clipPath id="clip0_2198_375298">
<rect width="579.217" height="456" fill="white"/>
</clipPath>
</defs>
</svg>