<svg width="187" height="24" viewBox="0 0 187 24" fill="none" xmlns="http://www.w3.org/2000/svg">
<path d="M4.053 1.048C1.909 3.352 0.981 5.016 0.981 6.744C0.981 8.76 2.037 10.232 3.669 10.232C5.045 10.232 6.165 9.08 6.165 7.736C6.165 6.36 5.077 5.208 3.733 5.208C3.989 4.184 4.629 3.16 5.589 2.2L4.053 1.048ZM11.733 1.048C9.589 3.352 8.661 5.016 8.661 6.744C8.661 8.76 9.717 10.232 11.349 10.232C12.725 10.232 13.845 9.08 13.845 7.736C13.845 6.36 12.757 5.208 11.413 5.208C11.669 4.184 12.309 3.16 13.269 2.2L11.733 1.048ZM23.651 23H27.619L33.155 6.68L38.659 23H42.659L49.603 1.016H45.219L40.515 16.76L35.331 1.016H30.979L25.763 16.76L21.059 1.016H16.675L23.651 23ZM58.5748 19.928C56.2068 19.928 54.4788 18.328 53.9988 16.056H66.4788C66.4788 9.944 63.5028 6.072 58.3828 6.072C53.6788 6.072 49.9668 9.72 49.9668 14.68C49.9668 19.768 53.8708 23.384 58.6068 23.384C61.0068 23.384 63.8868 22.36 65.3268 20.824L62.8628 18.264C61.9348 19.224 60.1108 19.928 58.5748 19.928ZM58.5428 9.528C60.8788 9.528 62.2868 11 62.7348 13.08H54.0308C54.6068 10.904 56.3668 9.528 58.5428 9.528ZM69.8628 23H73.7668V0.631998H69.8628V23ZM86.0495 23.384C88.6735 23.384 90.8815 22.296 92.4815 20.6L89.8575 18.328C88.9295 19.384 87.5215 20.056 86.0815 20.056C83.3615 20.056 81.0895 17.624 81.0895 14.712C81.0895 11.832 83.3615 9.4 86.0815 9.4C87.4895 9.4 88.8655 10.072 89.7615 11.064L92.3855 8.76C90.8175 7.128 88.6095 6.072 86.1135 6.072C81.2815 6.072 77.2175 10.008 77.2175 14.712C77.2175 19.416 81.2815 23.384 86.0495 23.384ZM103.207 23.384C108.007 23.384 112.071 19.416 112.071 14.712C112.071 10.008 108.007 6.072 103.207 6.072C98.4065 6.072 94.3425 10.008 94.3425 14.712C94.3425 19.416 98.4065 23.384 103.207 23.384ZM103.207 20.056C100.455 20.056 98.1505 17.624 98.1505 14.712C98.1505 11.832 100.455 9.4 103.207 9.4C105.927 9.4 108.231 11.832 108.231 14.712C108.231 17.624 105.927 20.056 103.207 20.056ZM134.561 6.072C132.097 6.072 130.017 7.288 129.217 9.208C128.193 7.256 126.273 6.072 123.937 6.072C121.857 6.072 120.161 7.096 119.329 8.696V6.456H115.424V23H119.329V12.856C119.329 10.84 120.833 9.4 122.945 9.4C124.865 9.4 126.177 10.936 126.177 13.112V23H129.985V12.856C129.985 10.84 131.457 9.4 133.601 9.4C135.489 9.4 136.801 10.936 136.801 13.112V23H140.609V12.472C140.609 8.728 138.017 6.072 134.561 6.072ZM152.544 19.928C150.176 19.928 148.448 18.328 147.968 16.056H160.448C160.448 9.944 157.472 6.072 152.352 6.072C147.648 6.072 143.936 9.72 143.936 14.68C143.936 19.768 147.84 23.384 152.576 23.384C154.976 23.384 157.856 22.36 159.296 20.824L156.832 18.264C155.904 19.224 154.08 19.928 152.544 19.928ZM152.512 9.528C154.848 9.528 156.256 11 156.704 13.08H148C148.576 10.904 150.336 9.528 152.512 9.528ZM165.144 15.8H167.832L168.76 1.016H164.216L165.144 15.8ZM166.488 23.384C167.832 23.384 168.952 22.232 168.952 20.824C168.952 19.512 167.832 18.36 166.488 18.36C165.016 18.36 163.928 19.512 163.928 20.824C163.928 22.232 165.016 23.384 166.488 23.384ZM175.253 10.2C177.397 7.896 178.325 6.232 178.325 4.504C178.325 2.488 177.269 1.016 175.637 1.016C174.261 1.016 173.141 2.168 173.141 3.512C173.141 4.888 174.229 6.04 175.573 6.04C175.317 7.064 174.677 8.088 173.717 9.048L175.253 10.2ZM182.933 10.2C185.077 7.896 186.005 6.232 186.005 4.504C186.005 2.488 184.949 1.016 183.317 1.016C181.941 1.016 180.821 2.168 180.821 3.512C180.821 4.888 181.909 6.04 183.253 6.04C182.997 7.064 182.357 8.088 181.397 9.048L182.933 10.2Z" fill="#112D57"/>
</svg>
