<svg xmlns="http://www.w3.org/2000/svg" width="676" height="486" viewBox="0 0 676 486" fill="none">
<path fill-rule="evenodd" clip-rule="evenodd" d="M339.527 76.3205C389.597 81.0351 481.197 18.8818 531 24.6933C600.891 32.8489 643.882 71.754 670.608 114.954C696.957 157.544 602.704 174.679 582.5 218.693C561.608 264.207 600.729 342.176 550.576 376.446C498.366 412.121 410.705 499.402 339.527 483.193C268.398 466.996 272.299 330.461 213.398 299.664C159.199 271.326 62.4062 290.721 23.4803 253.081C-15.7818 215.115 0.54743 161.43 26.325 118.77C51.1565 77.6768 73.5847 9.62724 139.5 0.693359C204.628 -8.13378 273.7 70.1223 339.527 76.3205Z" fill="#E7EAEE"/>
<path d="M495.023 340.194C497.05 323.89 507.148 307.825 522.689 302.52C516.56 319.301 516.561 337.71 522.693 354.491C525.081 360.954 528.409 367.894 526.163 374.407C524.765 378.46 521.346 381.561 517.525 383.5C513.703 385.439 509.461 386.363 505.273 387.269L504.449 387.951C497.8 372.929 492.997 356.498 495.023 340.194Z" fill="#F0F0F0"/>
<path d="M522.843 302.828C513.793 312.974 508.168 325.715 506.767 339.242C506.414 342.148 506.521 345.092 507.084 347.966C507.723 350.747 509.095 353.306 511.057 355.378C512.847 357.346 514.906 359.152 516.187 361.521C516.825 362.744 517.197 364.087 517.279 365.464C517.362 366.841 517.152 368.219 516.665 369.509C515.534 372.755 513.305 375.401 511.035 377.912C508.515 380.7 505.853 383.557 504.782 387.253C504.652 387.701 503.965 387.474 504.094 387.026C505.958 380.595 512.198 376.941 515.174 371.149C516.562 368.445 517.145 365.307 515.843 362.454C514.705 359.959 512.583 358.095 510.753 356.118C508.81 354.125 507.384 351.686 506.599 349.015C505.892 346.18 505.672 343.245 505.949 340.335C506.467 333.776 508.013 327.339 510.53 321.26C513.365 314.306 517.367 307.888 522.364 302.285C522.674 301.938 523.15 302.483 522.843 302.828Z" fill="white"/>
<path d="M506.96 334.859C504.723 334.316 502.753 332.995 501.4 331.132C500.047 329.27 499.4 326.986 499.575 324.69C499.612 324.226 500.335 324.261 500.298 324.727C500.131 326.864 500.734 328.991 501.998 330.723C503.261 332.455 505.101 333.678 507.187 334.171C507.64 334.279 507.41 334.966 506.96 334.859Z" fill="white"/>
<path d="M510.018 354.499C514.057 352.086 517.039 348.238 518.369 343.723C518.5 343.276 519.187 343.503 519.056 343.95C517.663 348.646 514.552 352.644 510.344 355.145C509.942 355.384 509.619 354.736 510.018 354.499Z" fill="white"/>
<path d="M514.035 314.992C514.856 315.382 515.762 315.563 516.67 315.517C517.579 315.47 518.461 315.199 519.239 314.727C519.637 314.484 519.96 315.133 519.565 315.374C518.703 315.892 517.728 316.19 516.724 316.243C515.721 316.296 514.719 316.103 513.808 315.679C513.719 315.647 513.645 315.581 513.602 315.496C513.56 315.411 513.551 315.313 513.578 315.222C513.608 315.131 513.673 315.056 513.759 315.013C513.845 314.97 513.944 314.962 514.035 314.992Z" fill="white"/>
<path d="M570.059 331.64C569.815 331.799 569.571 331.958 569.326 332.123C566.053 334.276 562.961 336.692 560.079 339.346C559.853 339.548 559.627 339.756 559.407 339.963C552.532 346.433 546.918 354.123 542.849 362.643C541.233 366.035 539.877 369.545 538.793 373.142C537.296 378.111 536.069 383.617 533.106 387.681C532.802 388.109 532.472 388.517 532.117 388.903H505.346C505.285 388.873 505.224 388.848 505.163 388.818L504.094 388.867C504.137 388.677 504.185 388.482 504.228 388.292C504.253 388.182 504.283 388.072 504.308 387.962C504.326 387.889 504.344 387.816 504.356 387.748C504.362 387.724 504.369 387.7 504.375 387.681C504.387 387.614 504.405 387.553 504.418 387.492C504.686 386.398 504.963 385.304 505.248 384.21C505.248 384.204 505.248 384.204 505.254 384.198C507.447 375.868 510.354 367.648 514.416 360.131C514.538 359.905 514.66 359.673 514.795 359.447C516.644 356.068 518.767 352.847 521.141 349.815C522.446 348.159 523.835 346.57 525.301 345.054C529.096 341.145 533.482 337.858 538.298 335.313C547.9 330.24 559.016 328.297 569.278 331.395C569.54 331.475 569.797 331.554 570.059 331.64Z" fill="#F0F0F0"/>
<path d="M570 331.98C556.669 334.629 544.511 341.414 535.253 351.37C533.222 353.478 531.536 355.893 530.257 358.527C529.093 361.132 528.648 364.002 528.968 366.838C529.213 369.488 529.771 372.17 529.368 374.834C529.142 376.194 528.63 377.491 527.868 378.64C527.105 379.789 526.108 380.763 524.943 381.499C522.087 383.41 518.715 384.179 515.391 384.817C511.701 385.525 507.857 386.202 504.777 388.509C504.404 388.788 503.993 388.192 504.365 387.913C509.724 383.901 516.904 384.743 522.766 381.91C525.501 380.588 527.855 378.434 528.532 375.371C529.125 372.693 528.552 369.927 528.281 367.246C527.928 364.484 528.257 361.678 529.238 359.072C530.379 356.382 531.97 353.906 533.941 351.75C538.302 346.825 543.41 342.617 549.078 339.279C555.525 335.435 562.583 332.722 569.944 331.258C570.4 331.167 570.452 331.89 570 331.98Z" fill="white"/>
<path d="M538.042 347.989C536.583 346.208 535.805 343.967 535.845 341.664C535.886 339.362 536.743 337.15 538.264 335.421C538.573 335.073 539.129 335.537 538.82 335.886C537.4 337.492 536.602 339.554 536.569 341.698C536.535 343.841 537.268 345.927 538.637 347.577C538.933 347.936 538.337 348.346 538.042 347.989Z" fill="white"/>
<path d="M528.668 365.511C533.345 366.017 538.041 364.741 541.82 361.937C542.194 361.659 542.605 362.255 542.232 362.533C538.294 365.443 533.405 366.761 528.539 366.223C528.075 366.172 528.207 365.459 528.668 365.511Z" fill="white"/>
<path d="M555.647 336.388C556.068 337.194 556.682 337.884 557.435 338.394C558.189 338.905 559.056 339.22 559.961 339.312C560.425 339.357 560.293 340.07 559.832 340.024C558.833 339.918 557.875 339.569 557.041 339.007C556.208 338.445 555.525 337.687 555.052 336.8C555 336.72 554.981 336.624 554.998 336.53C555.015 336.436 555.067 336.353 555.144 336.296C555.223 336.242 555.32 336.221 555.414 336.238C555.508 336.255 555.592 336.309 555.647 336.388Z" fill="white"/>
<path d="M408.563 257.881C409.117 257.309 409.538 256.622 409.798 255.868C410.058 255.115 410.149 254.314 410.066 253.521C409.983 252.729 409.727 251.964 409.317 251.281C408.906 250.598 408.351 250.014 407.69 249.569L412.64 230.842L403.104 234.051L399.866 251.342C399.193 252.502 398.968 253.869 399.234 255.184C399.501 256.499 400.24 257.671 401.312 258.477C402.384 259.283 403.714 259.667 405.05 259.558C406.387 259.448 407.636 258.851 408.563 257.881Z" fill="#9E616A"/>
<path d="M452.676 383.668L446.035 383.667L442.875 358.034L452.678 358.035L452.676 383.668Z" fill="#9E616A"/>
<path d="M454.369 390.11L432.953 390.109V389.838C432.953 387.626 433.832 385.505 435.395 383.941C436.958 382.377 439.078 381.498 441.289 381.498L454.37 381.499L454.369 390.11Z" fill="#2F2E41"/>
<path d="M421.255 383.668L414.613 383.667L411.453 358.034L421.256 358.035L421.255 383.668Z" fill="#9E616A"/>
<path d="M422.947 390.11L401.531 390.109V389.838C401.531 387.626 402.41 385.505 403.973 383.941C405.536 382.377 407.656 381.498 409.867 381.498L422.948 381.499L422.947 390.11Z" fill="#2F2E41"/>
<path d="M417.557 229.223L415.008 229.927C415.008 229.927 408.347 273.13 407.806 295.897C407.264 318.663 409.431 376.122 409.431 376.122H423.517L434.894 278.55L440.311 376.122H455.48C455.48 376.122 466.316 248.195 461.44 237.896C456.564 227.596 417.557 229.223 417.557 229.223Z" fill="#2F2E41"/>
<path d="M437.884 152.991C444.913 152.991 450.611 147.289 450.611 140.256C450.611 133.223 444.913 127.521 437.884 127.521C430.855 127.521 425.156 133.223 425.156 140.256C425.156 147.289 430.855 152.991 437.884 152.991Z" fill="#9E616A"/>
<path d="M470.112 169.595L450.357 156.678L429.886 157.484L409.977 168.511L417.561 210.792L414.311 235.185C414.311 235.185 443.566 231.933 450.067 236.811C453.863 239.706 458.341 241.573 463.069 242.232L461.985 200.493L470.112 169.595Z" fill="#3F3D56"/>
<path d="M413.768 167.97L411.721 167.545L409.976 168.512C409.976 168.512 405.1 175.017 405.1 180.979C405.1 186.942 399.141 244.401 399.141 244.401L409.976 249.28L418.644 204.288L413.768 167.97Z" fill="#3F3D56"/>
<path d="M449.025 130.919C449.025 130.919 452.354 124.552 445.03 123.973C445.03 123.973 438.787 118.306 432.423 122.937C432.423 122.937 428.952 122.937 427.054 126.867C427.054 126.867 424.324 125.831 423.724 128.604C423.724 128.604 421.726 134.393 423.724 139.602C425.721 144.812 426.385 145.391 426.385 145.391C426.385 145.391 423.102 134.468 431.092 133.889C439.082 133.311 448.023 128.315 448.689 134.682C449.355 141.049 450.357 142.618 450.357 142.618C450.357 142.618 456.682 133.524 449.025 130.919Z" fill="#2F2E41"/>
<path d="M284.558 205.835H126.906V87.665H284.558V205.835Z" fill="white"/>
<path d="M284.558 205.835H126.906V87.665H284.558V205.835ZM128.532 89.2912V204.209H282.933V89.2912H128.532Z" fill="#E6E6E6"/>
<path d="M205.682 177.007C222.261 177.007 235.701 163.56 235.701 146.972C235.701 130.384 222.261 116.937 205.682 116.937C189.104 116.937 175.664 130.384 175.664 146.972C175.664 163.56 189.104 177.007 205.682 177.007Z" fill="#112D57"/>
<path d="M218.148 144.45H207.941V134.238C207.941 133.601 207.688 132.989 207.238 132.539C206.788 132.088 206.177 131.835 205.54 131.835C204.903 131.835 204.292 132.088 203.841 132.539C203.391 132.989 203.138 133.601 203.138 134.238V144.45H192.932C192.295 144.45 191.684 144.703 191.234 145.154C190.783 145.604 190.53 146.216 190.53 146.853C190.53 147.49 190.783 148.101 191.234 148.552C191.684 149.003 192.295 149.256 192.932 149.256H203.138V159.468C203.138 160.105 203.391 160.716 203.841 161.167C204.292 161.618 204.903 161.871 205.54 161.871C206.177 161.871 206.788 161.618 207.238 161.167C207.688 160.716 207.941 160.105 207.941 159.468V149.256H218.148C218.784 149.256 219.395 149.003 219.846 148.552C220.296 148.101 220.549 147.49 220.549 146.853C220.549 146.216 220.296 145.604 219.846 145.154C219.395 144.703 218.784 144.45 218.148 144.45Z" fill="white"/>
<path d="M139.91 87.1721H81V42.6934H139.91V87.1721Z" fill="white"/>
<path d="M139.91 87.1721H81V42.6934H139.91V87.1721ZM82.0835 86.0879H138.827V43.7775H82.0835V86.0879Z" fill="#E6E6E6"/>
<path d="M132.143 54.8076H88.7734V57.7006H132.143V54.8076Z" fill="#E4E4E4"/>
<path d="M132.143 63.4863H88.7734V66.3793H132.143V63.4863Z" fill="#E4E4E4"/>
<path d="M132.143 72.165H88.7734V75.058H132.143V72.165Z" fill="#E4E4E4"/>
<path d="M531.598 390.187H472.688V345.708H531.598V390.187Z" fill="white"/>
<path d="M531.598 390.187H472.688V345.708H531.598V390.187ZM473.771 389.103H530.514V346.792H473.771V389.103Z" fill="#E6E6E6"/>
<path d="M523.831 357.822H480.461V360.715H523.831V357.822Z" fill="#E4E4E4"/>
<path d="M523.831 366.5H480.461V369.393H523.831V366.5Z" fill="#E4E4E4"/>
<path d="M523.831 375.18H480.461V378.073H523.831V375.18Z" fill="#E4E4E4"/>
<path d="M495.823 310.377L451.82 271.186L481.377 237.963L525.38 277.154L495.823 310.377Z" fill="white"/>
<path d="M495.823 310.377L451.82 271.186L481.377 237.963L525.38 277.154L495.823 310.377ZM453.35 271.097L495.734 308.846L523.85 277.243L481.466 239.493L453.35 271.097Z" fill="#E6E6E6"/>
<path d="M479.133 252.181L477.211 254.342L509.606 283.195L511.528 281.034L479.133 252.181Z" fill="#E4E4E4"/>
<path d="M473.368 258.662L471.445 260.823L503.84 289.676L505.762 287.515L473.368 258.662Z" fill="#E4E4E4"/>
<path d="M467.602 265.146L465.68 267.307L498.074 296.159L499.997 293.999L467.602 265.146Z" fill="#E4E4E4"/>
<path d="M173.266 113.192H107.547V63.5723H173.266V113.192Z" fill="white"/>
<path d="M173.266 113.192H107.547V63.5723H173.266V113.192ZM108.756 111.982H172.057V64.7817H108.756V111.982Z" fill="#E6E6E6"/>
<path d="M164.593 77.0859H116.211V80.3133H164.593V77.0859Z" fill="#112D57"/>
<path d="M164.593 86.7676H116.211V89.9949H164.593V86.7676Z" fill="#112D57"/>
<path d="M164.593 96.4492H116.211V99.6766H164.593V96.4492Z" fill="#112D57"/>
<path d="M343.82 243.088H243.531V167.368H343.82V243.088Z" fill="white"/>
<path d="M343.82 243.088H243.531V167.368H343.82V243.088ZM245.376 241.243H341.975V169.214H245.376V241.243Z" fill="#E6E6E6"/>
<path d="M330.59 187.991H256.758V192.916H330.59V187.991Z" fill="#112D57"/>
<path d="M330.59 202.766H256.758V207.691H330.59V202.766Z" fill="#112D57"/>
<path d="M330.59 217.541H256.758V222.466H330.59V217.541Z" fill="#112D57"/>
<path d="M581.354 390.693H321.151C320.98 390.693 320.817 390.624 320.696 390.503C320.576 390.382 320.508 390.219 320.508 390.048C320.508 389.877 320.576 389.713 320.696 389.592C320.817 389.471 320.98 389.403 321.151 389.402H581.354C581.525 389.402 581.69 389.47 581.811 389.591C581.932 389.712 581.999 389.877 581.999 390.048C581.999 390.219 581.932 390.383 581.811 390.504C581.69 390.625 581.525 390.693 581.354 390.693Z" fill="#CACACA"/>
<path d="M463.378 257.473C462.99 256.777 462.759 256.004 462.702 255.209C462.644 254.415 462.762 253.617 463.046 252.872C463.33 252.128 463.774 251.455 464.346 250.901C464.919 250.346 465.605 249.924 466.358 249.665L466.391 230.294L474.78 235.85L473.463 253.393C473.815 254.687 473.681 256.066 473.086 257.268C472.49 258.47 471.475 259.412 470.231 259.915C468.988 260.418 467.604 260.447 466.341 259.997C465.078 259.547 464.023 258.649 463.378 257.473Z" fill="#9E616A"/>
<path d="M464.152 171.764L467.9 168.149L470.653 170.138C470.653 170.138 473.362 173.39 475.529 183.147C477.696 192.904 475.529 246.569 475.529 246.569L463.61 244.943L465.235 216.755L460.359 192.904L464.152 171.764Z" fill="#3F3D56"/>
</svg>