<svg width="24" height="24" viewBox="0 0 24 24" fill="none" xmlns="http://www.w3.org/2000/svg">
<path d="M18.8513 5.11875H13.9763L11.25 2.93625C11.1512 2.85658 11.0282 2.81294 10.9013 2.8125H2.97001C2.43096 2.8125 1.91398 3.02664 1.53281 3.40781C1.15165 3.78897 0.937509 4.30595 0.937509 4.845V20.6287C0.936714 20.7681 0.987672 20.9028 1.08051 21.0067C1.17335 21.1106 1.30145 21.1764 1.44001 21.1912H1.50001C1.62898 21.1908 1.75391 21.1463 1.85415 21.0651C1.95439 20.984 2.02393 20.871 2.05126 20.745L4.35001 9.87C4.39598 9.66747 4.51086 9.48718 4.67501 9.35996C4.83917 9.23274 5.04241 9.16648 5.25001 9.1725H20.3175C20.4667 9.1725 20.6098 9.11324 20.7153 9.00775C20.8207 8.90226 20.88 8.75918 20.88 8.61V7.15125C20.88 6.61285 20.6664 6.09644 20.286 5.71538C19.9057 5.33432 19.3897 5.11974 18.8513 5.11875Z" fill="#6AB7DC"/>
<path d="M22.6249 8.81563C22.4346 8.57544 22.1923 8.38149 21.9163 8.24834C21.6403 8.1152 21.3377 8.04632 21.0312 8.04688H5.2512C4.79086 8.04579 4.3439 8.20158 3.98397 8.48857C3.62404 8.77556 3.37264 9.17661 3.2712 9.62563L0.968696 20.5006C0.949108 20.5821 0.947986 20.667 0.965413 20.749C0.982839 20.831 1.01837 20.9081 1.06942 20.9746C1.12046 21.0411 1.18572 21.0953 1.26043 21.1333C1.33513 21.1714 1.41739 21.1922 1.5012 21.1944H19.1562C19.6169 21.1946 20.0639 21.038 20.4238 20.7504C20.7836 20.4628 21.0349 20.0613 21.1362 19.6119L23.0112 10.5444C23.0823 10.2458 23.0845 9.93497 23.0175 9.63544C22.9506 9.33591 22.8164 9.05555 22.6249 8.81563Z" fill="#A9DAEB"/>
<path d="M12.7734 18.037L15.9796 12.4922L19.2071 18.037H17.3241L16.9738 17.4419H18.1483L15.9904 13.6227L13.6684 17.4423H15.2908L16.1438 16.0314L16.5053 16.6509L15.6503 18.037H12.7734Z" fill="#E4A12E"/>
<path d="M15.9998 20.9997C13.2432 20.9997 11 18.7568 11 15.9998C11 13.2428 13.2432 11 15.9998 11C18.7565 11 21 13.2428 21 15.9998C21 18.7568 18.7568 20.9997 15.9998 20.9997ZM15.9998 11.501C13.5194 11.501 11.5006 13.5194 11.5006 15.9998C11.5006 18.4803 13.5187 20.4987 15.9992 20.4987C18.4796 20.4987 20.4987 18.4806 20.4987 15.9998C20.4987 13.519 18.4806 11.501 15.9998 11.501Z" fill="#E4A12E"/>
</svg>
