<svg width="30" height="32" viewBox="0 0 30 32" fill="none" xmlns="http://www.w3.org/2000/svg">
<path d="M24.1014 8.21938H29.4936L21.5323 0.509172L21.532 5.72534C21.5345 6.38598 21.8059 7.01905 22.2874 7.48612C22.7686 7.9535 23.4208 8.21693 24.1014 8.21938ZM30 27.767L30 9.97569H24.1014C22.9403 9.97477 21.8274 9.52669 21.0064 8.72973C20.1854 7.9328 19.7237 6.85228 19.7228 5.7255V0L4.36065 1.30231e-06C3.20425 0.000307657 2.09543 0.446552 1.27757 1.24008C0.460024 2.03364 0.000323006 3.11024 0 4.23271L2.12175e-06 27.7673C0.000317737 28.8898 0.460051 29.9664 1.27757 30.7599C2.09543 31.5535 3.20425 31.9997 4.36065 32H25.6389C26.7953 31.9997 27.9041 31.5534 28.722 30.7599C29.5395 29.9664 29.9997 28.8894 30 27.767Z" fill="#3B86DF"/>
<path d="M4.1304 15.6404V20.3612C4.1304 20.4054 4.15568 20.4338 4.20624 20.4465C4.40846 20.4781 4.59805 20.4939 4.775 20.4939C5.5144 20.4939 6.05789 20.2948 6.40547 19.8967C6.75305 19.4922 6.92684 18.8287 6.92684 17.906C6.92684 17.0781 6.74989 16.4714 6.39599 16.0859C6.04209 15.7004 5.50176 15.5077 4.775 15.5077C4.59805 15.5077 4.40846 15.5235 4.20624 15.5551C4.15568 15.5677 4.1304 15.5962 4.1304 15.6404ZM3.35308 21.4892C3.19509 21.4703 3.06554 21.4039 2.96443 21.2902C2.86331 21.1701 2.81275 21.031 2.81275 20.8731V15.1285C2.81275 14.9705 2.86331 14.8346 2.96443 14.7209C3.06554 14.6008 3.19509 14.5313 3.35308 14.5123C3.75754 14.4681 4.2094 14.446 4.70865 14.446C5.83354 14.446 6.69301 14.7398 7.28706 15.3276C7.88743 15.9153 8.18761 16.7748 8.18761 17.906C8.18761 19.1194 7.88743 20.0325 7.28706 20.6455C6.69301 21.2522 5.83354 21.5556 4.70865 21.5556C4.2094 21.5556 3.75754 21.5335 3.35308 21.4892Z" fill="white"/>
<path d="M13.8796 18.0008C13.8796 16.3577 13.2792 15.5361 12.0785 15.5361C10.8778 15.5361 10.2774 16.3577 10.2774 18.0008C10.2774 19.6439 10.8778 20.4654 12.0785 20.4654C13.2792 20.4654 13.8796 19.6439 13.8796 18.0008ZM14.382 20.6171C13.8195 21.2428 13.0517 21.5556 12.0785 21.5556C11.1053 21.5556 10.3343 21.2428 9.7655 20.6171C9.20305 19.9915 8.92182 19.1194 8.92182 18.0008C8.92182 16.8822 9.20305 16.0101 9.7655 15.3844C10.3343 14.7588 11.1053 14.446 12.0785 14.446C13.0517 14.446 13.8195 14.7588 14.382 15.3844C14.9508 16.0101 15.2351 16.8822 15.2351 18.0008C15.2351 19.1194 14.9508 19.9915 14.382 20.6171Z" fill="white"/>
<path d="M19.2273 21.5556C18.2288 21.5556 17.4357 21.2491 16.848 20.6361C16.2666 20.0167 15.9759 19.1383 15.9759 18.0008C15.9759 16.8759 16.2571 16.0038 16.8196 15.3844C17.3883 14.7588 18.1814 14.446 19.1989 14.446C19.6665 14.446 20.0584 14.4744 20.3743 14.5313C20.526 14.5566 20.6524 14.6324 20.7535 14.7588C20.8546 14.8852 20.9052 15.0274 20.9052 15.1854V15.2612C20.9052 15.3939 20.8483 15.4982 20.7346 15.574C20.6271 15.6499 20.5102 15.672 20.3838 15.6404C20.0742 15.5582 19.7266 15.5172 19.3411 15.5172C18.7154 15.5172 18.2225 15.732 17.8623 16.1618C17.5084 16.5915 17.3314 17.2045 17.3314 18.0008C17.3314 18.7907 17.5147 19.4037 17.8813 19.8398C18.2541 20.2695 18.7502 20.4844 19.3695 20.4844C19.7866 20.4844 20.1437 20.4465 20.4407 20.3706C20.5671 20.339 20.684 20.3612 20.7914 20.437C20.9052 20.5128 20.9621 20.6171 20.9621 20.7498V20.8162C20.9621 20.9742 20.9115 21.1164 20.8104 21.2428C20.7156 21.3628 20.5892 21.4355 20.4312 21.4608C20.071 21.524 19.6697 21.5556 19.2273 21.5556Z" fill="white"/>
<path d="M22.4411 21.4608C22.321 21.4608 22.2294 21.4102 22.1662 21.3091C22.103 21.2017 22.0998 21.0942 22.1567 20.9868L23.7398 18.0292C23.7651 17.9913 23.7651 17.9439 23.7398 17.887L22.2041 15.0147C22.1472 14.9073 22.1504 14.803 22.2136 14.7019C22.2768 14.5945 22.3684 14.5408 22.4885 14.5408H22.8961C23.0604 14.5408 23.2121 14.585 23.3511 14.6735C23.4902 14.762 23.5944 14.8789 23.6639 15.0242L24.6593 17.1192C24.6593 17.1255 24.6624 17.1287 24.6688 17.1287C24.6751 17.1287 24.6782 17.1255 24.6782 17.1192L25.6736 15.0242C25.7431 14.8789 25.8474 14.762 25.9864 14.6735C26.1254 14.585 26.2771 14.5408 26.4414 14.5408H26.8111C26.9375 14.5408 27.0292 14.5945 27.086 14.7019C27.1492 14.803 27.1524 14.9073 27.0955 15.0147L25.5598 17.887C25.5409 17.9313 25.5409 17.9787 25.5598 18.0292L27.1429 20.9868C27.1998 21.0942 27.1966 21.2017 27.1334 21.3091C27.0766 21.4102 26.9849 21.4608 26.8585 21.4608H26.4225C26.2582 21.4608 26.1033 21.4165 25.958 21.3281C25.8189 21.2396 25.7178 21.1227 25.6546 20.9773L24.6403 18.7876C24.6403 18.7813 24.6372 18.7781 24.6308 18.7781C24.6245 18.7781 24.6214 18.7813 24.6214 18.7876L23.6071 20.9773C23.5439 21.1227 23.4396 21.2396 23.2942 21.3281C23.1552 21.4165 23.0035 21.4608 22.8392 21.4608H22.4411Z" fill="white"/>
<path fill-rule="evenodd" clip-rule="evenodd" d="M3.33629 21.6606L3.3345 21.6604C3.13679 21.6366 2.968 21.5514 2.83756 21.4047L2.83449 21.4012C2.70702 21.2498 2.64235 21.0714 2.64235 20.8731V15.1285C2.64235 14.9308 2.70674 14.7544 2.83602 14.6081C2.96551 14.4552 3.13455 14.3652 3.3345 14.3412L3.33629 14.341C3.74818 14.2959 4.20643 14.2736 4.7106 14.2736C5.86454 14.2736 6.7737 14.5755 7.4099 15.2047C8.05339 15.8349 8.36191 16.7452 8.36191 17.906C8.36191 19.1456 8.05516 20.1096 7.41216 20.7661C6.77618 21.4156 5.86619 21.7279 4.7106 21.7279C4.20643 21.7279 3.74818 21.7056 3.33629 21.6606ZM7.28901 20.6456C7.88938 20.0325 8.18956 19.1194 8.18956 17.906C8.18956 16.7748 7.88938 15.9153 7.28901 15.3276C6.69496 14.7398 5.83549 14.446 4.7106 14.446C4.21134 14.446 3.75949 14.4681 3.35503 14.5123C3.19704 14.5313 3.06749 14.6008 2.96637 14.7209C2.86526 14.8346 2.8147 14.9705 2.8147 15.1285V20.8731C2.8147 21.031 2.86526 21.1701 2.96637 21.2902C3.06749 21.4039 3.19704 21.4703 3.35503 21.4892C3.75949 21.5335 4.21134 21.5556 4.7106 21.5556C5.83549 21.5556 6.69496 21.2522 7.28901 20.6456ZM4.3047 20.2865C4.47295 20.31 4.6303 20.3215 4.77695 20.3215C5.48681 20.3215 5.97369 20.131 6.2771 19.7839C6.58391 19.4265 6.75644 18.8144 6.75644 17.906C6.75644 17.0973 6.58274 16.5421 6.27098 16.2025C5.96084 15.8647 5.47481 15.68 4.77695 15.68C4.6303 15.68 4.47295 15.6916 4.3047 15.715V20.2865ZM6.40742 19.8967C6.05984 20.2948 5.51635 20.4939 4.77695 20.4939C4.6 20.4939 4.41041 20.4781 4.20818 20.4465C4.15763 20.4338 4.13235 20.4054 4.13235 20.3612V15.6404C4.13235 15.5962 4.15763 15.5677 4.20818 15.5551C4.41041 15.5235 4.6 15.5077 4.77695 15.5077C5.50371 15.5077 6.04404 15.7004 6.39794 16.0859C6.75184 16.4714 6.92879 17.0781 6.92879 17.906C6.92879 18.8287 6.755 19.4922 6.40742 19.8967ZM9.63927 20.7323C9.0401 20.0658 8.75142 19.1476 8.75142 18.0008C8.75142 16.8539 9.0401 15.9357 9.63927 15.2692C10.2458 14.6021 11.0667 14.2736 12.0804 14.2736C13.0939 14.2736 13.9114 14.6013 14.5118 15.2689C15.1175 15.9353 15.4094 16.8537 15.4094 18.0008C15.4094 19.1479 15.1175 20.0662 14.5118 20.7327C13.9114 21.4003 13.0939 21.7279 12.0804 21.7279C11.0667 21.7279 10.2458 21.3995 9.63927 20.7323ZM14.3839 20.6171C14.9527 19.9915 15.2371 19.1194 15.2371 18.0008C15.2371 16.8822 14.9527 16.0101 14.3839 15.3844C13.8215 14.7588 13.0537 14.446 12.0804 14.446C11.1072 14.446 10.3362 14.7588 9.76744 15.3844C9.205 16.0101 8.92377 16.8822 8.92377 18.0008C8.92377 19.1194 9.205 19.9915 9.76744 20.6171C10.3362 21.2428 11.1072 21.5556 12.0804 21.5556C13.0537 21.5556 13.8215 21.2428 14.3839 20.6171ZM13.2921 16.254C13.0305 15.896 12.637 15.7085 12.0804 15.7085C11.5238 15.7085 11.1304 15.896 10.8688 16.254C10.5998 16.6221 10.4517 17.1951 10.4517 18.0008C10.4517 18.8064 10.5998 19.3795 10.8688 19.7476C11.1304 20.1056 11.5238 20.2931 12.0804 20.2931C12.637 20.2931 13.0305 20.1056 13.2921 19.7476C13.5611 19.3795 13.7092 18.8064 13.7092 18.0008C13.7092 17.1951 13.5611 16.6221 13.2921 16.254ZM16.7255 20.7554L16.7243 20.754C16.1039 20.0932 15.8055 19.167 15.8055 18.0008C15.8055 16.848 16.094 15.9292 16.6939 15.2686C17.3019 14.5998 18.1455 14.2736 19.2008 14.2736C19.6741 14.2736 20.0765 14.3023 20.4058 14.3615C20.6012 14.3943 20.7642 14.4938 20.8901 14.6511C21.015 14.8073 21.0795 14.9872 21.0795 15.1854V15.2612C21.0795 15.4528 20.9928 15.6096 20.834 15.7162C20.6865 15.8196 20.5188 15.8513 20.344 15.8076L20.3416 15.807C20.0489 15.7294 19.7165 15.6895 19.343 15.6895C18.762 15.6895 18.3202 15.8864 17.9968 16.2719C17.6776 16.6599 17.5057 17.228 17.5057 18.0008C17.5057 18.7651 17.6829 19.3331 18.0143 19.7279C18.3512 20.1156 18.7976 20.312 19.3715 20.312C19.779 20.312 20.1209 20.2749 20.4 20.2036C20.5749 20.1599 20.7434 20.1915 20.8909 20.2949C21.0497 20.4015 21.1364 20.5582 21.1364 20.7498V20.8162C21.1364 21.0141 21.072 21.1939 20.9473 21.35C20.8247 21.5051 20.6595 21.5988 20.4617 21.6308C20.0902 21.6959 19.6791 21.7279 19.2293 21.7279C18.1928 21.7279 17.3515 21.4082 16.7255 20.7554ZM20.4332 21.4608C20.5912 21.4355 20.7176 21.3628 20.8124 21.2428C20.9135 21.1164 20.964 20.9742 20.964 20.8162V20.7498C20.964 20.6171 20.9071 20.5128 20.7934 20.437C20.686 20.3612 20.569 20.339 20.4427 20.3706C20.1456 20.4465 19.7886 20.4844 19.3715 20.4844C18.7521 20.4844 18.2561 20.2695 17.8832 19.8398C17.5167 19.4037 17.3334 18.7907 17.3334 18.0008C17.3334 17.2045 17.5103 16.5915 17.8642 16.1618C18.2245 15.732 18.7174 15.5172 19.343 15.5172C19.7285 15.5172 20.0761 15.5582 20.3858 15.6404C20.5122 15.672 20.6291 15.6499 20.7365 15.574C20.8503 15.4982 20.9071 15.3939 20.9071 15.2612V15.1854C20.9071 15.0274 20.8566 14.8852 20.7555 14.7588C20.6544 14.6324 20.528 14.5566 20.3763 14.5313C20.0603 14.4744 19.6685 14.446 19.2008 14.446C18.1834 14.446 17.3903 14.7588 16.8215 15.3844C16.259 16.0038 15.9778 16.8759 15.9778 18.0008C15.9778 19.1383 16.2685 20.0167 16.8499 20.6361C17.4377 21.2491 18.2308 21.5556 19.2293 21.5556C19.6717 21.5556 20.073 21.524 20.4332 21.4608ZM22.0196 21.3965C21.927 21.2391 21.9206 21.0681 22.0063 20.9062L23.5843 17.9581L22.0541 15.096C21.9695 14.9362 21.9728 14.7665 22.0682 14.6125C22.1609 14.4562 22.3073 14.3684 22.4904 14.3684H22.8981C23.0952 14.3684 23.279 14.4221 23.4456 14.5281C23.6112 14.6335 23.7376 14.7747 23.8214 14.9499L24.6707 16.7375L25.5199 14.9503C25.6036 14.7751 25.7302 14.6335 25.8958 14.5281C26.0624 14.4221 26.2462 14.3684 26.4434 14.3684H26.8131C26.9011 14.3684 26.9869 14.3873 27.0638 14.4324C27.1392 14.4766 27.1964 14.5404 27.2374 14.6158C27.3308 14.7689 27.3338 14.9368 27.2498 15.0954L25.72 17.9567C25.72 17.9567 25.7202 17.9589 25.7207 17.9609L27.2968 20.9055C27.3823 21.0669 27.3766 21.2381 27.2848 21.3951C27.1941 21.5552 27.0418 21.6331 26.8605 21.6331H26.4244C26.2273 21.6331 26.0417 21.5796 25.8703 21.4753L25.8674 21.4735C25.7012 21.3678 25.5769 21.2253 25.4994 21.0481L24.6328 19.1772L23.7662 21.048C23.6879 21.227 23.5593 21.3694 23.3873 21.4744C23.2211 21.5798 23.0378 21.6331 22.8412 21.6331H22.443C22.2641 21.6331 22.1169 21.5524 22.022 21.4005L22.0196 21.3965ZM23.2962 21.3281C23.4415 21.2396 23.5458 21.1227 23.609 20.9773L24.6233 18.7876C24.6233 18.7813 24.6265 18.7781 24.6328 18.7781C24.6391 18.7781 24.6423 18.7813 24.6423 18.7876L25.6566 20.9773C25.7198 21.1227 25.8209 21.2396 25.9599 21.3281C26.1053 21.4165 26.2601 21.4608 26.4244 21.4608H26.8605C26.9869 21.4608 27.0785 21.4102 27.1354 21.3091C27.1986 21.2017 27.2017 21.0942 27.1449 20.9868L25.5618 18.0292C25.5428 17.9787 25.5428 17.9313 25.5618 17.887L27.0975 15.0148C27.1543 14.9073 27.1512 14.803 27.088 14.7019C27.0311 14.5945 26.9395 14.5408 26.8131 14.5408H26.4434C26.2791 14.5408 26.1274 14.585 25.9884 14.6735C25.8493 14.762 25.7451 14.8789 25.6755 15.0242L24.6802 17.1192C24.6802 17.1255 24.677 17.1287 24.6707 17.1287C24.6644 17.1287 24.6612 17.1255 24.6612 17.1192L23.6659 15.0242C23.5964 14.8789 23.4921 14.762 23.3531 14.6735C23.214 14.585 23.0624 14.5408 22.8981 14.5408H22.4904C22.3704 14.5408 22.2787 14.5945 22.2155 14.7019C22.1523 14.803 22.1492 14.9073 22.2061 15.0148L23.7417 17.887C23.767 17.9439 23.767 17.9913 23.7417 18.0292L22.1587 20.9868C22.1018 21.0942 22.1049 21.2017 22.1681 21.3091C22.2313 21.4102 22.323 21.4608 22.443 21.4608H22.8412C23.0055 21.4608 23.1572 21.4165 23.2962 21.3281ZM12.0804 15.5361C13.2812 15.5361 13.8815 16.3577 13.8815 18.0008C13.8815 19.6439 13.2812 20.4654 12.0804 20.4654C10.8797 20.4654 10.2793 19.6439 10.2793 18.0008C10.2793 16.3577 10.8797 15.5361 12.0804 15.5361Z" fill="white"/>
</svg>
