<svg width="10" height="10" viewBox="0 0 10 10" fill="none" xmlns="http://www.w3.org/2000/svg">
<path d="M5 1.2505C5.74168 1.2505 6.4667 1.47044 7.08338 1.88249C7.70007 2.29455 8.18071 2.88022 8.46454 3.56544C8.74837 4.25066 8.82263 5.00466 8.67794 5.73209C8.53325 6.45952 8.17609 7.1277 7.65165 7.65215C7.1272 8.1766 6.45901 8.53375 5.73159 8.67844C5.00416 8.82314 4.25016 8.74888 3.56493 8.46505C2.87971 8.18122 2.29404 7.70057 1.88199 7.08389C1.46993 6.4672 1.25 5.74218 1.25 5.0005C1.25 4.83474 1.18415 4.67577 1.06694 4.55856C0.949731 4.44135 0.79076 4.3755 0.625 4.3755C0.459239 4.3755 0.300268 4.44135 0.183058 4.55856C0.0658479 4.67577 3.49313e-09 4.83474 0 5.0005C0.000112714 6.1224 0.377531 7.21166 1.07156 8.09312C1.76559 8.97458 2.73591 9.59701 3.82646 9.86033C4.91702 10.1236 6.06445 10.0125 7.08422 9.54488C8.104 9.07723 8.93687 8.28019 9.44889 7.28195C9.96091 6.28371 10.1223 5.14228 9.9072 4.0412C9.69207 2.94013 9.11288 1.9434 8.26277 1.2113C7.41267 0.479198 6.34105 0.0542734 5.22024 0.00485548C4.09943 -0.0445624 2.99457 0.284398 2.08333 0.938837V0.625504C2.08333 0.459744 2.01748 0.300773 1.90027 0.183563C1.78306 0.0663526 1.62409 0.000504737 1.45833 0.000504737C1.29257 0.000504737 1.1336 0.0663526 1.01639 0.183563C0.899181 0.300773 0.833333 0.459744 0.833333 0.625504V2.70884C0.833333 3.05384 1.11333 3.33384 1.45833 3.33384H2.70833C2.87409 3.33384 3.03306 3.26799 3.15027 3.15078C3.26748 3.03357 3.33333 2.8746 3.33333 2.70884C3.33333 2.54308 3.26748 2.3841 3.15027 2.26689C3.03306 2.14968 2.87409 2.08384 2.70833 2.08384H2.6425C3.30918 1.54333 4.14174 1.24904 5 1.2505ZM5.41666 3.1255C5.41666 2.95974 5.35081 2.80077 5.2336 2.68356C5.11639 2.56635 4.95742 2.5005 4.79166 2.5005C4.6259 2.5005 4.46693 2.56635 4.34972 2.68356C4.23251 2.80077 4.16666 2.95974 4.16666 3.1255V5.20883C4.16666 5.55383 4.44666 5.83383 4.79166 5.83383H6.04166C6.20742 5.83383 6.36639 5.76799 6.4836 5.65078C6.60081 5.53357 6.66666 5.37459 6.66666 5.20883C6.66666 5.04307 6.60081 4.8841 6.4836 4.76689C6.36639 4.64968 6.20742 4.58384 6.04166 4.58384H5.41666V3.1255Z" fill="#FAB133"/>
</svg>
