<svg width="17" height="19" viewBox="0 0 17 19" fill="none" xmlns="http://www.w3.org/2000/svg">
<path d="M13.6102 5.1234H16.6552L12.1594 0.786409L12.1593 3.7205C12.1607 4.09211 12.3139 4.44822 12.5858 4.71094C12.8576 4.97384 13.2259 5.12202 13.6102 5.1234ZM16.9412 16.1189L16.9412 6.11133H13.6102C12.9545 6.11081 12.3261 5.85876 11.8624 5.41047C11.3988 4.9622 11.1381 4.35441 11.1376 3.72059V0.5L2.46249 0.500001C1.80946 0.500173 1.1833 0.751185 0.721449 1.19755C0.259778 1.64392 0.000182403 2.24951 0 2.8809L1.19817e-06 16.1191C0.000179428 16.7505 0.259793 17.3561 0.72145 17.8025C1.1833 18.2488 1.80946 18.4998 2.46249 18.5H14.4784C15.1314 18.4998 15.7576 18.2488 16.2195 17.8025C16.6811 17.3561 16.941 16.7503 16.9412 16.1189Z" fill="#DF3B3B"/>
<path d="M14.208 8.41744C14.3036 8.51013 14.3576 8.63572 14.3576 8.76666C14.3533 9.03782 14.1269 9.25648 13.8466 9.26079H12.0585V10.0412H13.2438C13.5258 10.0412 13.7546 10.2622 13.7546 10.5351C13.7546 10.808 13.5259 11.029 13.2438 11.029H12.0585V12.3036C12.0585 12.5763 11.8298 12.7975 11.5477 12.7975C11.2654 12.7975 11.0367 12.5763 11.0367 12.3036V8.76665C11.0367 8.49394 11.2654 8.27273 11.5477 8.27273H13.8466C13.9822 8.27273 14.1121 8.32475 14.208 8.41744Z" fill="white"/>
<path fill-rule="evenodd" clip-rule="evenodd" d="M6.27518 9.65582C6.27767 9.28834 6.12782 8.93516 5.85894 8.67521C5.59006 8.41542 5.2248 8.27035 4.84473 8.27277H3.47555C3.19331 8.27277 2.96471 8.49397 2.96471 8.76668V12.3036C2.96471 12.4345 3.01852 12.5601 3.11438 12.6528C3.21007 12.7455 3.34014 12.7975 3.47556 12.7975C3.75584 12.7932 3.98212 12.5746 3.9864 12.3036V11.0291H4.8447C5.22227 11.0291 5.58471 10.8847 5.8527 10.6275C6.12069 10.3703 6.2725 10.021 6.27518 9.65582ZM3.98651 9.26064L4.84499 9.26046C4.9544 9.25736 5.05987 9.29818 5.1372 9.37295C5.21454 9.44772 5.25659 9.55005 5.25356 9.65566C5.24804 9.87015 5.06665 10.0411 4.84481 10.0411H3.98651V9.26064Z" fill="white"/>
<path fill-rule="evenodd" clip-rule="evenodd" d="M10.3011 9.646C10.3018 9.28163 10.1525 8.93191 9.8859 8.67417C9.61934 8.41643 9.25765 8.27207 8.88078 8.27276H7.50129C7.21922 8.27276 6.99044 8.49396 6.99044 8.76667V12.3036C6.99044 12.4345 7.04425 12.5601 7.14011 12.6528C7.23598 12.7455 7.36587 12.7975 7.50129 12.7975H8.88079C9.25764 12.7982 9.61934 12.6538 9.88591 12.3961C10.1525 12.1384 10.3018 11.7886 10.3011 11.4243L10.3011 9.646ZM8.88099 9.2607H8.01252V11.8096H8.88099C9.09873 11.8044 9.27389 11.6349 9.27923 11.4244V9.6461C9.27389 9.43558 9.09873 9.26587 8.88099 9.2607Z" fill="white"/>
</svg>
