<svg width="14" height="14" viewBox="0 0 14 14" fill="none" xmlns="http://www.w3.org/2000/svg">
<path d="M8.06576 14H5.51776C5.35812 14 5.20326 13.9455 5.07887 13.8454C4.95448 13.7453 4.86803 13.6057 4.83386 13.4498L4.54896 12.131C4.16891 11.9645 3.80853 11.7562 3.47446 11.5101L2.18856 11.9196C2.03636 11.9681 1.87213 11.9632 1.72315 11.9055C1.57417 11.8478 1.4494 11.7409 1.36956 11.6025L0.0927648 9.3968C0.0137665 9.25829 -0.0158875 9.09708 0.0086544 8.93953C0.0331963 8.78197 0.110481 8.63742 0.227865 8.5295L1.22536 7.6195C1.18 7.20728 1.18 6.79132 1.22536 6.3791L0.227865 5.4712C0.110315 5.36324 0.0329249 5.21855 0.00837902 5.06085C-0.0161669 4.90314 0.0135873 4.74178 0.0927648 4.6032L1.36676 2.3961C1.4466 2.25772 1.57137 2.15081 1.72035 2.09313C1.86933 2.03545 2.03356 2.03046 2.18576 2.079L3.47166 2.4885C3.64246 2.3625 3.82026 2.2449 4.00366 2.1385C4.18076 2.0391 4.36276 1.9488 4.54896 1.8683L4.83456 0.5509C4.86856 0.394938 4.95485 0.255281 5.07911 0.155084C5.20337 0.0548869 5.35814 0.000167976 5.51776 0H8.06576C8.22539 0.000167976 8.38016 0.0548869 8.50442 0.155084C8.62868 0.255281 8.71496 0.394938 8.74896 0.5509L9.03736 1.869C9.23336 1.9558 9.42517 2.0531 9.61067 2.1616C9.78357 2.2617 9.95086 2.3716 10.1119 2.4899L11.3985 2.0804C11.5506 2.03204 11.7146 2.03712 11.8635 2.09479C12.0123 2.15247 12.137 2.25927 12.2168 2.3975L13.4908 4.6046C13.6532 4.8895 13.5972 5.25 13.3557 5.4719L12.3582 6.3819C12.4035 6.79412 12.4035 7.21008 12.3582 7.6223L13.3557 8.5323C13.5972 8.7549 13.6532 9.1147 13.4908 9.3996L12.2168 11.6067C12.1369 11.7451 12.0122 11.852 11.8632 11.9097C11.7142 11.9674 11.55 11.9723 11.3978 11.9238L10.1119 11.5143C9.77806 11.7602 9.41791 11.9683 9.03806 12.1345L8.74896 13.4498C8.71483 13.6056 8.62848 13.7451 8.50424 13.8452C8.37999 13.9452 8.22529 13.9999 8.06576 14V14ZM6.78897 4.2C6.04636 4.2 5.33417 4.495 4.80907 5.0201C4.28396 5.5452 3.98896 6.25739 3.98896 7C3.98896 7.74261 4.28396 8.4548 4.80907 8.9799C5.33417 9.505 6.04636 9.8 6.78897 9.8C7.53157 9.8 8.24376 9.505 8.76886 8.9799C9.29397 8.4548 9.58896 7.74261 9.58896 7C9.58896 6.25739 9.29397 5.5452 8.76886 5.0201C8.24376 4.495 7.53157 4.2 6.78897 4.2V4.2Z" fill="white"/>
</svg>