<svg width="24" height="24" viewBox="0 0 24 24" fill="none" xmlns="http://www.w3.org/2000/svg">
<path d="M18.8513 5.11875H13.9763L11.25 2.93625C11.1512 2.85658 11.0282 2.81294 10.9013 2.8125H2.97001C2.43096 2.8125 1.91398 3.02664 1.53281 3.40781C1.15165 3.78897 0.937509 4.30595 0.937509 4.845V20.6287C0.936714 20.7681 0.987672 20.9028 1.08051 21.0067C1.17335 21.1106 1.30145 21.1764 1.44001 21.1912H1.50001C1.62898 21.1908 1.75391 21.1463 1.85415 21.0651C1.95439 20.984 2.02393 20.871 2.05126 20.745L4.35001 9.87C4.39598 9.66747 4.51086 9.48718 4.67501 9.35996C4.83917 9.23274 5.04241 9.16648 5.25001 9.1725H20.3175C20.4667 9.1725 20.6098 9.11324 20.7153 9.00775C20.8207 8.90226 20.88 8.75918 20.88 8.61V7.15125C20.88 6.61285 20.6664 6.09644 20.286 5.71538C19.9057 5.33432 19.3897 5.11974 18.8513 5.11875Z" fill="#6AB7DC"/>
<path d="M22.6249 8.81563C22.4346 8.57544 22.1923 8.38149 21.9163 8.24834C21.6403 8.1152 21.3377 8.04632 21.0312 8.04688H5.2512C4.79086 8.04579 4.3439 8.20158 3.98397 8.48857C3.62404 8.77556 3.37264 9.17661 3.2712 9.62563L0.968696 20.5006C0.949108 20.5821 0.947986 20.667 0.965413 20.749C0.982839 20.831 1.01837 20.9081 1.06942 20.9746C1.12046 21.0411 1.18572 21.0953 1.26043 21.1333C1.33513 21.1714 1.41739 21.1922 1.5012 21.1944H19.1562C19.6169 21.1946 20.0639 21.038 20.4238 20.7504C20.7836 20.4628 21.0349 20.0613 21.1362 19.6119L23.0112 10.5444C23.0823 10.2458 23.0845 9.93497 23.0175 9.63544C22.9506 9.33591 22.8164 9.05555 22.6249 8.81563Z" fill="#A9DAEB"/>
<path d="M11.9637 13.1635C12.3491 12.7686 12.7346 12.4127 12.9053 12.485C13.1806 12.5962 12.9053 13.0578 12.7401 13.3304C12.6024 13.564 11.1652 15.4939 11.1652 16.8398C11.1652 17.5517 11.4295 18.1413 11.9031 18.4972C12.3161 18.8087 12.8612 18.9032 13.3568 18.7531C13.946 18.5806 14.4306 17.9744 15.0419 17.2125C15.7081 16.3838 16.6002 15.2992 17.2885 15.2992C18.1861 15.2992 18.1971 15.861 18.2577 16.2948C16.1762 16.6507 15.2952 18.3359 15.2952 19.2814C15.2952 20.2269 16.0881 21 17.0628 21C17.9604 21 19.4251 20.2603 19.6454 17.6073H21V16.2169H19.6399C19.5573 15.2992 19.0396 13.881 17.4207 13.881C16.1817 13.881 15.1189 14.9433 14.7004 15.4605C14.3811 15.8665 13.5661 16.8398 13.4394 16.9733C13.3018 17.1402 13.065 17.4405 12.8282 17.4405C12.5804 17.4405 12.4317 16.9789 12.63 16.3726C12.8227 15.7664 13.4009 14.782 13.6487 14.4149C14.0782 13.7809 14.3645 13.3471 14.3645 12.5907C14.3645 11.3838 13.4615 11 12.9824 11C12.2555 11 11.6222 11.5562 11.4846 11.6952C11.2863 11.8954 11.1211 12.0623 11 12.2125L11.9637 13.1635ZM17.0793 19.6485C16.9086 19.6485 16.6718 19.5039 16.6718 19.2481C16.6718 18.9143 17.0738 18.0245 18.2522 17.713C18.087 19.2091 17.4648 19.6485 17.0793 19.6485Z" fill="#E65E5E"/>
</svg>
