<svg width="28" height="28" viewBox="0 0 28 28" fill="none" xmlns="http://www.w3.org/2000/svg">
<rect width="28" height="28" rx="4" fill="#0086F4" fill-opacity="0.2"/>
<g clip-path="url(#clip0_13293_318996)">
<path d="M18.6667 7.99935H18V6.66602H16.6667V7.99935H11.3333V6.66602H10V7.99935H9.33333C8.6 7.99935 8 8.59935 8 9.33268V18.666C8 19.3993 8.6 19.9993 9.33333 19.9993H18.6667C19.4 19.9993 20 19.3993 20 18.666V9.33268C20 8.59935 19.4 7.99935 18.6667 7.99935ZM18.6667 18.666H9.33333V11.9993H18.6667V18.666ZM9.33333 10.666V9.33268H18.6667V10.666H9.33333ZM10.6667 13.3327H17.3333V14.666H10.6667V13.3327ZM10.6667 15.9993H15.3333V17.3327H10.6667V15.9993Z" fill="#2E6FA5"/>
</g>
<defs>
<clipPath id="clip0_13293_318996">
<rect width="16" height="16" fill="white" transform="translate(6 6)"/>
</clipPath>
</defs>
</svg>
