<svg width="10" height="10" viewBox="0 0 10 10" fill="none" xmlns="http://www.w3.org/2000/svg">
<path fill-rule="evenodd" clip-rule="evenodd" d="M0 1.09375C0 0.49 0.49 0 1.09375 0H3.28125C3.885 0 4.375 0.49 4.375 1.09375V3.28125C4.375 3.57133 4.25977 3.84953 4.05465 4.05465C3.84953 4.25977 3.57133 4.375 3.28125 4.375H2.5V6.875C2.5 7.04076 2.56585 7.19973 2.68306 7.31694C2.80027 7.43415 2.95924 7.5 3.125 7.5H5.625V6.71875C5.625 6.115 6.115 5.625 6.71875 5.625H8.90625C9.51 5.625 10 6.115 10 6.71875V8.90625C10 9.19633 9.88477 9.47453 9.67965 9.67965C9.47453 9.88477 9.19633 10 8.90625 10H6.71875C6.42867 10 6.15047 9.88477 5.94535 9.67965C5.74023 9.47453 5.625 9.19633 5.625 8.90625V8.4375H3.125C2.7106 8.4375 2.31317 8.27288 2.02015 7.97985C1.72712 7.68683 1.5625 7.2894 1.5625 6.875V4.375H1.09375C0.803669 4.375 0.52547 4.25977 0.320352 4.05465C0.115234 3.84953 0 3.57133 0 3.28125L0 1.09375ZM1.09375 0.9375C1.05231 0.9375 1.01257 0.953962 0.983265 0.983265C0.953962 1.01257 0.9375 1.05231 0.9375 1.09375V3.28125C0.9375 3.3675 1.0075 3.4375 1.09375 3.4375H3.28125C3.32269 3.4375 3.36243 3.42104 3.39174 3.39174C3.42104 3.36243 3.4375 3.32269 3.4375 3.28125V1.09375C3.4375 1.05231 3.42104 1.01257 3.39174 0.983265C3.36243 0.953962 3.32269 0.9375 3.28125 0.9375H1.09375ZM6.71875 6.5625C6.67731 6.5625 6.63757 6.57896 6.60826 6.60826C6.57896 6.63757 6.5625 6.67731 6.5625 6.71875V8.90625C6.5625 8.9925 6.6325 9.0625 6.71875 9.0625H8.90625C8.94769 9.0625 8.98743 9.04604 9.01674 9.01674C9.04604 8.98743 9.0625 8.94769 9.0625 8.90625V6.71875C9.0625 6.67731 9.04604 6.63757 9.01674 6.60826C8.98743 6.57896 8.94769 6.5625 8.90625 6.5625H6.71875Z" fill="#FAB133"/>
</svg>
