<svg width="30" height="32" viewBox="0 0 30 32" fill="none" xmlns="http://www.w3.org/2000/svg">
<path d="M24.1014 8.21938H29.4936L21.5323 0.509172L21.532 5.72534C21.5345 6.38598 21.8059 7.01905 22.2874 7.48612C22.7686 7.9535 23.4208 8.21693 24.1014 8.21938ZM30 27.767L30 9.97569H24.1014C22.9403 9.97478 21.8274 9.52669 21.0064 8.72973C20.1854 7.9328 19.7237 6.85228 19.7228 5.7255V0L4.36065 1.30231e-06C3.20425 0.000307657 2.09543 0.446552 1.27757 1.24008C0.460024 2.03364 0.000323006 3.11024 0 4.23271L2.12175e-06 27.7673C0.000317737 28.8898 0.460051 29.9664 1.27757 30.7599C2.09543 31.5535 3.20426 31.9997 4.36065 32H25.6389C26.7953 31.9997 27.9041 31.5534 28.722 30.7599C29.5395 29.9664 29.9997 28.8894 30 27.767Z" fill="#32B52F"/>
<path d="M3.26888 21.8425C3.13554 21.8425 3.03378 21.7863 2.96361 21.6741C2.89343 21.5548 2.88992 21.4355 2.95308 21.3161L4.71104 18.0318C4.73911 17.9897 4.73911 17.9371 4.71104 17.8739L3.00571 14.6843C2.94255 14.565 2.94606 14.4492 3.01624 14.337C3.08642 14.2177 3.18818 14.158 3.32151 14.158H3.77416C3.95662 14.158 4.12505 14.2071 4.27944 14.3054C4.43383 14.4036 4.54963 14.5335 4.62682 14.6949L5.73213 17.0213C5.73213 17.0283 5.73563 17.0318 5.74265 17.0318C5.74967 17.0318 5.75318 17.0283 5.75318 17.0213L6.85848 14.6949C6.93568 14.5335 7.05147 14.4036 7.20586 14.3054C7.36025 14.2071 7.52868 14.158 7.71114 14.158H8.12169C8.26204 14.158 8.3638 14.2177 8.42696 14.337C8.49714 14.4492 8.50064 14.565 8.43748 14.6843L6.73216 17.8739C6.71111 17.923 6.71111 17.9757 6.73216 18.0318L8.49012 21.3161C8.55328 21.4355 8.54977 21.5548 8.47959 21.6741C8.41643 21.7863 8.31467 21.8425 8.17432 21.8425H7.69009C7.50763 21.8425 7.33569 21.7934 7.17428 21.6951C7.01989 21.5969 6.90761 21.467 6.83743 21.3056L5.71107 18.874C5.71107 18.8669 5.70756 18.8634 5.70055 18.8634C5.69353 18.8634 5.69002 18.8669 5.69002 18.874L4.56366 21.3056C4.49349 21.467 4.37769 21.5969 4.21628 21.6951C4.06189 21.7934 3.89346 21.8425 3.711 21.8425H3.26888Z" fill="white"/>
<path d="M10.3727 21.8425C10.2113 21.8425 10.0709 21.7828 9.9516 21.6635C9.83932 21.5442 9.78317 21.4039 9.78317 21.2425V14.758C9.78317 14.5966 9.83932 14.4563 9.9516 14.337C10.0709 14.2177 10.2113 14.158 10.3727 14.158H10.7095C10.8709 14.158 11.0113 14.2177 11.1306 14.337C11.2499 14.4563 11.3095 14.5966 11.3095 14.758V20.5266C11.3095 20.5898 11.3376 20.6214 11.3938 20.6214H14.0991C14.2605 20.6214 14.3974 20.681 14.5097 20.8003C14.629 20.9126 14.6886 21.0495 14.6886 21.2109V21.2425C14.6886 21.4039 14.629 21.5442 14.5097 21.6635C14.3974 21.7828 14.2605 21.8425 14.0991 21.8425H10.3727Z" fill="white"/>
<path d="M18.0056 18.6003C17.1635 18.3196 16.5529 17.9792 16.1739 17.5792C15.802 17.1792 15.616 16.6949 15.616 16.1265C15.616 15.4879 15.8301 14.9826 16.2582 14.6106C16.6862 14.2387 17.2863 14.0527 18.0582 14.0527C18.7109 14.0527 19.2793 14.1264 19.7635 14.2738C19.932 14.3229 20.0653 14.4247 20.1636 14.5791C20.2688 14.7264 20.3215 14.8914 20.3215 15.0738V15.1686C20.3215 15.3019 20.2618 15.4072 20.1425 15.4844C20.0232 15.5545 19.9004 15.5651 19.7741 15.5159C19.2477 15.3124 18.7109 15.2107 18.1635 15.2107C17.8126 15.2107 17.5459 15.2914 17.3635 15.4528C17.181 15.6142 17.0898 15.8388 17.0898 16.1265C17.0898 16.6318 17.4196 16.9932 18.0793 17.2107C19.0267 17.5125 19.6828 17.8564 20.0478 18.2424C20.4197 18.6283 20.6057 19.1266 20.6057 19.7371C20.6057 21.2109 19.6969 21.9478 17.8793 21.9478C17.3108 21.9478 16.795 21.86 16.3318 21.6846C16.1634 21.6214 16.0301 21.5126 15.9318 21.3583C15.8406 21.2039 15.795 21.0319 15.795 20.8424V20.7161C15.795 20.5828 15.8511 20.488 15.9634 20.4319C16.0757 20.3687 16.1915 20.3652 16.3108 20.4214C16.774 20.653 17.2617 20.7688 17.774 20.7688C18.6653 20.7688 19.1109 20.4319 19.1109 19.7582C19.1109 19.4845 19.0267 19.2599 18.8582 19.0845C18.6898 18.902 18.4056 18.7406 18.0056 18.6003Z" fill="white"/>
<path d="M21.8242 21.8425C21.6909 21.8425 21.5891 21.7863 21.519 21.6741C21.4488 21.5548 21.4453 21.4355 21.5084 21.3161L23.2664 18.0318C23.2945 17.9897 23.2945 17.9371 23.2664 17.8739L21.5611 14.6843C21.4979 14.565 21.5014 14.4492 21.5716 14.337C21.6418 14.2177 21.7435 14.158 21.8769 14.158H22.3295C22.512 14.158 22.6804 14.2071 22.8348 14.3054C22.9892 14.4036 23.105 14.5335 23.1822 14.6949L24.2875 17.0213C24.2875 17.0283 24.291 17.0318 24.298 17.0318C24.305 17.0318 24.3085 17.0283 24.3085 17.0213L25.4138 14.6949C25.491 14.5335 25.6068 14.4036 25.7612 14.3054C25.9156 14.2071 26.084 14.158 26.2665 14.158H26.677C26.8174 14.158 26.9191 14.2177 26.9823 14.337C27.0525 14.4492 27.056 14.565 26.9928 14.6843L25.2875 17.8739C25.2665 17.923 25.2665 17.9757 25.2875 18.0318L27.0455 21.3161C27.1086 21.4355 27.1051 21.5548 27.0349 21.6741C26.9718 21.7863 26.87 21.8425 26.7297 21.8425H26.2454C26.063 21.8425 25.891 21.7934 25.7296 21.6951C25.5752 21.5969 25.463 21.467 25.3928 21.3056L24.2664 18.874C24.2664 18.8669 24.2629 18.8634 24.2559 18.8634C24.2489 18.8634 24.2454 18.8669 24.2454 18.874L23.119 21.3056C23.0488 21.467 22.933 21.5969 22.7716 21.6951C22.6172 21.7934 22.4488 21.8425 22.2663 21.8425H21.8242Z" fill="white"/>
<path fill-rule="evenodd" clip-rule="evenodd" d="M2.79961 21.7711C2.69679 21.5963 2.6897 21.4064 2.7849 21.2266L4.53718 17.9529L2.8379 14.7746C2.74397 14.5971 2.74765 14.4087 2.85354 14.2377C2.95657 14.064 3.11907 13.9666 3.32248 13.9666H3.77513C3.99411 13.9666 4.19816 14.0262 4.38317 14.1439C4.56706 14.2609 4.70743 14.4178 4.80046 14.6123L5.74362 16.5974L6.68657 14.6127C6.7796 14.4182 6.92018 14.2609 7.10408 14.1439C7.28908 14.0262 7.49313 13.9666 7.71211 13.9666H8.12265C8.22036 13.9666 8.31566 13.9876 8.40103 14.0376C8.4848 14.0867 8.54828 14.1575 8.59383 14.2413C8.69754 14.4113 8.70087 14.5977 8.6076 14.7739L6.90879 17.9513C6.90879 17.9513 6.90909 17.9538 6.90963 17.956L8.65983 21.2258C8.75473 21.4051 8.74839 21.5951 8.64647 21.7695C8.54574 21.9473 8.37662 22.0339 8.17529 22.0339H7.69106C7.4722 22.0339 7.26601 21.9744 7.07574 21.8586L7.07247 21.8566C6.88791 21.7392 6.74991 21.5809 6.66382 21.3841L5.70151 19.3066L4.7392 21.3841C4.65226 21.5828 4.50938 21.7409 4.31839 21.8576C4.13381 21.9746 3.93031 22.0339 3.71197 22.0339H3.26985C3.07108 22.0339 2.90772 21.9442 2.80227 21.7755L2.79961 21.7711ZM4.21628 21.6951C4.37769 21.5969 4.49349 21.467 4.56366 21.3056L5.69002 18.874C5.69002 18.8669 5.69353 18.8634 5.70055 18.8634C5.70756 18.8634 5.71107 18.8669 5.71107 18.874L6.83743 21.3056C6.90761 21.467 7.01989 21.5969 7.17428 21.6951C7.33569 21.7934 7.50763 21.8425 7.69009 21.8425H8.17432C8.31467 21.8425 8.41643 21.7863 8.47959 21.6741C8.54977 21.5548 8.55328 21.4355 8.49012 21.3161L6.73216 18.0318C6.71111 17.9757 6.71111 17.923 6.73216 17.8739L8.43748 14.6843C8.50064 14.565 8.49714 14.4492 8.42696 14.337C8.3638 14.2177 8.26204 14.158 8.12169 14.158H7.71114C7.52868 14.158 7.36025 14.2071 7.20586 14.3054C7.05147 14.4036 6.93568 14.5335 6.85848 14.6949L5.75318 17.0213C5.75318 17.0283 5.74967 17.0318 5.74265 17.0318C5.73563 17.0318 5.73213 17.0283 5.73213 17.0213L4.62682 14.6949C4.54963 14.5335 4.43383 14.4036 4.27944 14.3054C4.12505 14.2071 3.95662 14.158 3.77416 14.158H3.32151C3.18818 14.158 3.08642 14.2177 3.01624 14.337C2.94606 14.4492 2.94255 14.565 3.00571 14.6843L4.71104 17.8739C4.73911 17.9371 4.73911 17.9897 4.71104 18.0318L2.95308 21.3161C2.88992 21.4355 2.89343 21.5548 2.96361 21.6741C3.03378 21.7863 3.13554 21.8425 3.26888 21.8425H3.711C3.89346 21.8425 4.06189 21.7934 4.21628 21.6951ZM9.8132 21.7947C9.66805 21.6405 9.59275 21.4534 9.59275 21.2425V14.758C9.59275 14.547 9.66805 14.36 9.8132 14.2058L9.81717 14.2015C9.97056 14.0482 10.159 13.9666 10.3736 13.9666H10.7105C10.9252 13.9666 11.1135 14.0482 11.2669 14.2016C11.4203 14.355 11.5019 14.5433 11.5019 14.758V20.43H14.1001C14.3132 20.43 14.4988 20.5106 14.646 20.6649C14.8003 20.8122 14.881 20.9977 14.881 21.2109V21.2425C14.881 21.4562 14.8001 21.6438 14.648 21.7968C14.5005 21.9525 14.3142 22.0339 14.1001 22.0339H10.3736C10.159 22.0339 9.97062 21.9522 9.81723 21.7989L9.8132 21.7947ZM14.5097 21.6635C14.629 21.5442 14.6886 21.4039 14.6886 21.2425V21.2109C14.6886 21.0495 14.629 20.9126 14.5097 20.8003C14.3974 20.681 14.2605 20.6214 14.0991 20.6214H11.3938C11.3376 20.6214 11.3095 20.5898 11.3095 20.5266V14.758C11.3095 14.5966 11.2499 14.4563 11.1306 14.337C11.0113 14.2177 10.8709 14.158 10.7095 14.158H10.3727C10.2113 14.158 10.0709 14.2177 9.9516 14.337C9.83932 14.4563 9.78317 14.5966 9.78317 14.758V21.2425C9.78317 21.4039 9.83932 21.5442 9.9516 21.6635C10.0709 21.7828 10.2113 21.8425 10.3727 21.8425H14.0991C14.2605 21.8425 14.3974 21.7828 14.5097 21.6635ZM16.0347 17.7095C15.6284 17.2725 15.4256 16.7411 15.4256 16.1265C15.4256 15.4402 15.6581 14.8793 16.1336 14.4662C16.6073 14.0545 17.2578 13.8613 18.0592 13.8613C18.7251 13.8613 19.3128 13.9364 19.8192 14.0904C20.0322 14.1528 20.2016 14.2829 20.3232 14.472C20.4499 14.651 20.5138 14.8535 20.5138 15.0738V15.1686C20.5138 15.3718 20.417 15.5353 20.2474 15.645L20.2406 15.6495C20.0721 15.7486 19.888 15.7652 19.7058 15.6944C19.2009 15.4992 18.6874 15.4021 18.1645 15.4021C17.84 15.4021 17.626 15.4769 17.4912 15.5961C17.3574 15.7146 17.2821 15.8827 17.2821 16.1265C17.2821 16.3331 17.3479 16.5033 17.4795 16.6475C17.6147 16.7957 17.8288 16.9262 18.1393 17.0287C19.094 17.3328 19.788 17.6884 20.1872 18.1102C20.5979 18.5368 20.798 19.0848 20.798 19.7371C20.798 20.5154 20.5561 21.1298 20.0456 21.5438C19.5427 21.9515 18.8099 22.1391 17.8802 22.1391C17.292 22.1391 16.7528 22.0483 16.265 21.8636C16.0573 21.7855 15.8913 21.6496 15.7713 21.461L15.7679 21.4557C15.6583 21.2701 15.6046 21.0642 15.6046 20.8424V20.7161C15.6046 20.6224 15.6245 20.5301 15.6734 20.4475C15.7219 20.3656 15.7921 20.3049 15.8746 20.2628C16.0412 20.1707 16.2209 20.1671 16.3933 20.2482L16.3974 20.2501C16.8343 20.4686 17.2927 20.5774 17.775 20.5774C18.202 20.5774 18.4872 20.4957 18.6622 20.3634C18.8271 20.2388 18.9205 20.0489 18.9205 19.7582C18.9205 19.5272 18.851 19.3523 18.7211 19.217L18.7185 19.2143C18.5816 19.0659 18.3325 18.9176 17.9446 18.7813C17.0896 18.4962 16.4457 18.1433 16.036 17.7108L16.0347 17.7095ZM18.0056 18.6003C17.1635 18.3196 16.5529 17.9792 16.1739 17.5792C15.802 17.1792 15.616 16.6949 15.616 16.1265C15.616 15.4879 15.8301 14.9826 16.2582 14.6106C16.6862 14.2387 17.2863 14.0527 18.0582 14.0527C18.7109 14.0527 19.2793 14.1264 19.7635 14.2738C19.932 14.3229 20.0653 14.4247 20.1636 14.5791C20.2688 14.7264 20.3215 14.8914 20.3215 15.0738V15.1686C20.3215 15.3019 20.2618 15.4072 20.1425 15.4844C20.0232 15.5545 19.9004 15.5651 19.7741 15.5159C19.2477 15.3124 18.7109 15.2107 18.1635 15.2107C17.8126 15.2107 17.5459 15.2914 17.3635 15.4528C17.181 15.6142 17.0898 15.8388 17.0898 16.1265C17.0898 16.6318 17.4196 16.9932 18.0793 17.2107C19.0267 17.5125 19.6828 17.8564 20.0478 18.2424C20.4197 18.6283 20.6057 19.1266 20.6057 19.7371C20.6057 21.2109 19.6969 21.9478 17.8793 21.9478C17.3108 21.9478 16.795 21.86 16.3318 21.6846C16.1634 21.6214 16.0301 21.5126 15.9318 21.3583C15.8406 21.2039 15.795 21.0319 15.795 20.8424V20.7161C15.795 20.5828 15.8511 20.488 15.9634 20.4319C16.0757 20.3687 16.1915 20.3652 16.3108 20.4214C16.774 20.653 17.2617 20.7688 17.774 20.7688C18.6653 20.7688 19.1109 20.4319 19.1109 19.7582C19.1109 19.4845 19.0267 19.2599 18.8582 19.0845C18.6898 18.902 18.4056 18.7406 18.0056 18.6003ZM21.3549 21.7711C21.2521 21.5963 21.245 21.4064 21.3402 21.2266L23.0925 17.9529L21.3932 14.7746C21.2993 14.5971 21.303 14.4087 21.4089 14.2377C21.5119 14.064 21.6744 13.9666 21.8778 13.9666H22.3305C22.5494 13.9666 22.7535 14.0262 22.9385 14.1439C23.1224 14.2609 23.2628 14.4178 23.3558 14.6123L24.299 16.5974L25.2419 14.6127C25.3349 14.4182 25.4755 14.2609 25.6594 14.1439C25.8444 14.0262 26.0485 13.9666 26.2675 13.9666H26.678C26.7757 13.9666 26.871 13.9876 26.9564 14.0376C27.0401 14.0867 27.1036 14.1575 27.1492 14.2413C27.2529 14.4113 27.2562 14.5977 27.1629 14.7739L25.4641 17.9513C25.4641 17.9513 25.4644 17.9538 25.465 17.956L27.2152 21.2258C27.3101 21.4051 27.3037 21.5951 27.2018 21.7695C27.1011 21.9473 26.932 22.0339 26.7306 22.0339H26.2464C26.0275 22.0339 25.8214 21.9744 25.6311 21.8586L25.6278 21.8566C25.4433 21.7392 25.3053 21.581 25.2192 21.3841L24.2569 19.3066L23.2946 21.3841C23.2076 21.5828 23.0647 21.7409 22.8737 21.8576C22.6891 21.9746 22.4856 22.0339 22.2673 22.0339H21.8252C21.6264 22.0339 21.4631 21.9442 21.3576 21.7755L21.3549 21.7711ZM22.7716 21.6951C22.933 21.5969 23.0488 21.467 23.119 21.3056L24.2454 18.874C24.2454 18.8669 24.2489 18.8634 24.2559 18.8634C24.2629 18.8634 24.2664 18.8669 24.2664 18.874L25.3928 21.3056C25.463 21.467 25.5752 21.5969 25.7296 21.6951C25.891 21.7934 26.063 21.8425 26.2454 21.8425H26.7297C26.87 21.8425 26.9718 21.7863 27.0349 21.6741C27.1051 21.5548 27.1086 21.4355 27.0455 21.3161L25.2875 18.0318C25.2665 17.9757 25.2665 17.923 25.2875 17.8739L26.9928 14.6843C27.056 14.565 27.0525 14.4492 26.9823 14.337C26.9191 14.2177 26.8174 14.158 26.677 14.158H26.2665C26.084 14.158 25.9156 14.2071 25.7612 14.3054C25.6068 14.4036 25.491 14.5335 25.4138 14.6949L24.3085 17.0213C24.3085 17.0283 24.305 17.0318 24.298 17.0318C24.291 17.0318 24.2875 17.0283 24.2875 17.0213L23.1822 14.6949C23.105 14.5335 22.9892 14.4036 22.8348 14.3054C22.6804 14.2071 22.512 14.158 22.3295 14.158H21.8769C21.7435 14.158 21.6418 14.2177 21.5716 14.337C21.5014 14.4492 21.4979 14.565 21.5611 14.6843L23.2664 17.8739C23.2945 17.9371 23.2945 17.9897 23.2664 18.0318L21.5084 21.3161C21.4453 21.4355 21.4488 21.5548 21.519 21.6741C21.5891 21.7863 21.6909 21.8425 21.8242 21.8425H22.2663C22.4488 21.8425 22.6172 21.7934 22.7716 21.6951Z" fill="white"/>
</svg>
