<svg width="18" height="18" viewBox="0 0 18 18" fill="none" xmlns="http://www.w3.org/2000/svg">
<path d="M9.73348 0.879726C9.56083 0.86467 9.38693 0.885681 9.22283 0.941426C9.05873 0.99717 8.90801 1.08643 8.78025 1.20354C8.65249 1.32064 8.55048 1.46304 8.4807 1.62167C8.41091 1.78031 8.37488 1.95173 8.37489 2.12504V5.30238C8.37273 5.59721 8.47577 5.88315 8.6655 6.10882C8.85524 6.3345 9.11922 6.48512 9.41004 6.53363C9.8747 6.61159 10.3079 6.81926 10.6596 7.13272C11.0114 7.44617 11.2674 7.85264 11.3982 8.30529C11.5289 8.75793 11.5291 9.23831 11.3987 9.69106C11.2684 10.1438 11.0127 10.5505 10.6612 10.8642C10.3097 11.178 9.87669 11.386 9.4121 11.4644C8.94751 11.5427 8.47023 11.4882 8.03529 11.307C7.60035 11.1259 7.22544 10.8256 6.95378 10.4406C6.68213 10.0557 6.52478 9.60178 6.49989 9.13129C6.46785 8.4891 6.5991 7.95941 6.89051 7.54848C7.06178 7.30957 7.14253 7.01756 7.11834 6.72461C7.09416 6.43165 6.96661 6.15684 6.75848 5.94926L4.60067 3.74066C4.47767 3.61766 4.33036 3.52168 4.16814 3.45887C4.00593 3.39606 3.8324 3.36779 3.65864 3.37588C3.48488 3.38397 3.31472 3.42823 3.15905 3.50585C3.00337 3.58346 2.86561 3.6927 2.75457 3.8266C1.45221 5.38753 0.784928 7.38139 0.885384 9.41179C0.98584 11.4422 1.84668 13.3604 3.29676 14.7852C4.81301 16.2895 6.86402 17.131 8.99989 17.125H9.11629C11.2292 17.0891 13.2455 16.2337 14.7397 14.7393C16.2339 13.245 17.0891 11.2286 17.1249 9.11566C17.1835 4.87348 13.9366 1.25629 9.73348 0.879726ZM3.71239 4.62035L5.86942 6.82269V6.82738C5.54923 7.28686 5.34817 7.81866 5.28426 8.37504H2.15301C2.27818 6.99385 2.82224 5.68384 3.71239 4.62035ZM2.15379 9.62504H5.30223C5.43184 10.393 5.79733 11.1015 6.34794 11.6522C6.89856 12.203 7.60699 12.5687 8.37489 12.6985V15.8469C6.77414 15.7007 5.27524 14.9982 4.1387 13.8615C3.00215 12.7248 2.29983 11.2258 2.15379 9.62504ZM13.8546 13.8547C12.7225 14.9947 11.2249 15.6992 9.62489 15.8446V12.6985C10.3492 12.5779 11.0215 12.2454 11.5569 11.743C12.0688 11.2661 12.4371 10.6555 12.6201 9.98027C12.8031 9.30502 12.7936 8.59204 12.5926 7.92193C12.3916 7.25181 12.0071 6.65128 11.4827 6.18823C10.9583 5.72517 10.3147 5.41806 9.62489 5.3016V2.12504C13.1811 2.44379 15.9272 5.50629 15.8749 9.0977C15.8503 10.8867 15.1249 12.5948 13.8546 13.8547Z" fill="black"/>
</svg>
