<svg width="18" height="18" viewBox="0 0 18 18" fill="none" xmlns="http://www.w3.org/2000/svg">
<path d="M17.3845 4.73184L13.2681 0.616217C13.152 0.500114 13.0142 0.408014 12.8625 0.345178C12.7108 0.282342 12.5483 0.25 12.3841 0.25C12.2199 0.25 12.0573 0.282342 11.9057 0.345178C11.754 0.408014 11.6162 0.500114 11.5001 0.616217L0.615729 11.4998C0.499626 11.6159 0.407526 11.7537 0.34469 11.9054C0.281853 12.0571 0.249512 12.2196 0.249512 12.3838C0.249512 12.548 0.281853 12.7105 0.34469 12.8622C0.407526 13.0139 0.499626 13.1517 0.615729 13.2678L4.73214 17.3834C4.84821 17.4995 4.98602 17.5916 5.1377 17.6544C5.28937 17.7173 5.45194 17.7496 5.61612 17.7496C5.7803 17.7496 5.94286 17.7173 6.09454 17.6544C6.24622 17.5916 6.38403 17.4995 6.5001 17.3834L17.3845 6.49981C17.5006 6.38373 17.5927 6.24592 17.6555 6.09425C17.7184 5.94257 17.7507 5.78 17.7507 5.61583C17.7507 5.45165 17.7184 5.28908 17.6555 5.13741C17.5927 4.98573 17.5006 4.84792 17.3845 4.73184ZM5.61573 16.4998L1.5001 12.3834L4.0001 9.8834L6.05792 11.942C6.11599 12.0001 6.18492 12.0461 6.26079 12.0776C6.33666 12.109 6.41798 12.1252 6.5001 12.1252C6.58223 12.1252 6.66354 12.109 6.73941 12.0776C6.81529 12.0461 6.88422 12.0001 6.94229 11.942C7.00036 11.8839 7.04642 11.815 7.07785 11.7391C7.10928 11.6632 7.12545 11.5819 7.12545 11.4998C7.12545 11.4177 7.10928 11.3364 7.07785 11.2605C7.04642 11.1846 7.00036 11.1157 6.94229 11.0576L4.8837 8.99981L6.5001 7.3834L8.55792 9.442C8.67519 9.55927 8.83425 9.62516 9.0001 9.62516C9.16596 9.62516 9.32502 9.55927 9.44229 9.442C9.55957 9.32472 9.62545 9.16566 9.62545 8.99981C9.62545 8.83396 9.55957 8.6749 9.44229 8.55762L7.3837 6.49981L9.0001 4.8834L11.0579 6.942C11.116 7.00007 11.1849 7.04613 11.2608 7.07756C11.3367 7.10898 11.418 7.12516 11.5001 7.12516C11.5822 7.12516 11.6635 7.10898 11.7394 7.07756C11.8153 7.04613 11.8842 7.00007 11.9423 6.942C12.0004 6.88393 12.0464 6.81499 12.0778 6.73912C12.1093 6.66325 12.1255 6.58193 12.1255 6.49981C12.1255 6.41769 12.1093 6.33637 12.0778 6.2605C12.0464 6.18463 12.0004 6.11569 11.9423 6.05762L9.8837 3.99981L12.3837 1.49981L16.5001 5.61622L5.61573 16.4998Z" fill="black"/>
</svg>
