<svg width="14" height="14" viewBox="0 0 14 14" fill="none" xmlns="http://www.w3.org/2000/svg">
<path d="M3.25 0.125001C2.63193 0.125001 2.02775 0.308279 1.51384 0.651659C0.999941 0.995038 0.599402 1.4831 0.362878 2.05412C0.126354 2.62513 0.0644686 3.25347 0.185047 3.85966C0.305626 4.46585 0.603254 5.02267 1.04029 5.45971C1.47733 5.89675 2.03415 6.19438 2.64034 6.31496C3.24654 6.43553 3.87487 6.37365 4.44589 6.13713C5.01691 5.9006 5.50496 5.50006 5.84834 4.98616C6.19172 4.47225 6.375 3.86807 6.375 3.25C6.375 2.4212 6.04576 1.62634 5.45971 1.04029C4.87366 0.454242 4.0788 0.125001 3.25 0.125001ZM3.25 5.125C2.87916 5.125 2.51665 5.01503 2.20831 4.80901C1.89996 4.60298 1.65964 4.31014 1.51773 3.96753C1.37581 3.62492 1.33868 3.24792 1.41103 2.88421C1.48338 2.52049 1.66195 2.1864 1.92418 1.92418C2.1864 1.66195 2.52049 1.48338 2.88421 1.41103C3.24792 1.33868 3.62492 1.37581 3.96753 1.51773C4.31014 1.65964 4.60298 1.89996 4.80901 2.20831C5.01503 2.51665 5.125 2.87916 5.125 3.25C5.125 3.74728 4.92746 4.2242 4.57583 4.57583C4.2242 4.92746 3.74728 5.125 3.25 5.125ZM10.75 6.375C11.3681 6.375 11.9723 6.19172 12.4862 5.84834C13.0001 5.50496 13.4006 5.01691 13.6371 4.44589C13.8736 3.87487 13.9355 3.24654 13.815 2.64034C13.6944 2.03415 13.3967 1.47733 12.9597 1.04029C12.5227 0.603254 11.9658 0.305626 11.3597 0.185047C10.7535 0.0644686 10.1251 0.126354 9.55412 0.362878C8.9831 0.599402 8.49504 0.999941 8.15166 1.51384C7.80828 2.02775 7.625 2.63193 7.625 3.25C7.625 4.0788 7.95424 4.87366 8.54029 5.45971C9.12634 6.04576 9.9212 6.375 10.75 6.375ZM10.75 1.375C11.1208 1.375 11.4834 1.48497 11.7917 1.691C12.1 1.89702 12.3404 2.18986 12.4823 2.53247C12.6242 2.87508 12.6613 3.25208 12.589 3.6158C12.5166 3.97951 12.338 4.3136 12.0758 4.57583C11.8136 4.83805 11.4795 5.01663 11.1158 5.08897C10.7521 5.16132 10.3751 5.12419 10.0325 4.98228C9.68986 4.84036 9.39702 4.60004 9.191 4.2917C8.98497 3.98335 8.875 3.62084 8.875 3.25C8.875 2.75272 9.07255 2.27581 9.42418 1.92418C9.77581 1.57255 10.2527 1.375 10.75 1.375ZM3.25 7.625C2.63193 7.625 2.02775 7.80828 1.51384 8.15166C0.999941 8.49504 0.599402 8.9831 0.362878 9.55412C0.126354 10.1251 0.0644686 10.7535 0.185047 11.3597C0.305626 11.9658 0.603254 12.5227 1.04029 12.9597C1.47733 13.3967 2.03415 13.6944 2.64034 13.815C3.24654 13.9355 3.87487 13.8736 4.44589 13.6371C5.01691 13.4006 5.50496 13.0001 5.84834 12.4862C6.19172 11.9723 6.375 11.3681 6.375 10.75C6.375 9.9212 6.04576 9.12634 5.45971 8.54029C4.87366 7.95424 4.0788 7.625 3.25 7.625ZM3.25 12.625C2.87916 12.625 2.51665 12.515 2.20831 12.309C1.89996 12.103 1.65964 11.8101 1.51773 11.4675C1.37581 11.1249 1.33868 10.7479 1.41103 10.3842C1.48338 10.0205 1.66195 9.6864 1.92418 9.42418C2.1864 9.16195 2.52049 8.98338 2.88421 8.91103C3.24792 8.83868 3.62492 8.87581 3.96753 9.01773C4.31014 9.15964 4.60298 9.39997 4.80901 9.70831C5.01503 10.0166 5.125 10.3792 5.125 10.75C5.125 11.2473 4.92746 11.7242 4.57583 12.0758C4.2242 12.4275 3.74728 12.625 3.25 12.625ZM13.875 10.75C13.875 10.9158 13.8092 11.0747 13.6919 11.1919C13.5747 11.3092 13.4158 11.375 13.25 11.375H11.375V13.25C11.375 13.4158 11.3092 13.5747 11.1919 13.6919C11.0747 13.8092 10.9158 13.875 10.75 13.875C10.5842 13.875 10.4253 13.8092 10.3081 13.6919C10.1908 13.5747 10.125 13.4158 10.125 13.25V11.375H8.25C8.08424 11.375 7.92527 11.3092 7.80806 11.1919C7.69085 11.0747 7.625 10.9158 7.625 10.75C7.625 10.5842 7.69085 10.4253 7.80806 10.3081C7.92527 10.1908 8.08424 10.125 8.25 10.125H10.125V8.25C10.125 8.08424 10.1908 7.92527 10.3081 7.80806C10.4253 7.69085 10.5842 7.625 10.75 7.625C10.9158 7.625 11.0747 7.69085 11.1919 7.80806C11.3092 7.92527 11.375 8.08424 11.375 8.25V10.125H13.25C13.4158 10.125 13.5747 10.1908 13.6919 10.3081C13.8092 10.4253 13.875 10.5842 13.875 10.75Z" fill="black"/>
</svg>
