<svg width="20" height="14" viewBox="0 0 20 14" fill="none" xmlns="http://www.w3.org/2000/svg">
<path d="M9.16026 9.3394C9.99791 8.78174 10.6339 7.96931 10.9741 7.02225C11.3143 6.0752 11.3407 5.0438 11.0494 4.08058C10.7581 3.11735 10.1646 2.27344 9.35653 1.67364C8.54851 1.07384 7.56891 0.75 6.5626 0.75C5.55629 0.75 4.57669 1.07384 3.76867 1.67364C2.96065 2.27344 2.3671 3.11735 2.0758 4.08058C1.78449 5.0438 1.8109 6.0752 2.15111 7.02225C2.49133 7.96931 3.12729 8.78174 3.96494 9.3394C2.4497 9.89787 1.15565 10.9313 0.275881 12.2855C0.229643 12.3542 0.197527 12.4314 0.181398 12.5127C0.165269 12.5939 0.165449 12.6776 0.181929 12.7587C0.198409 12.8399 0.230858 12.917 0.277392 12.9855C0.323926 13.054 0.383616 13.1126 0.452992 13.1579C0.522368 13.2031 0.600047 13.2341 0.681512 13.2491C0.762978 13.2641 0.846606 13.2627 0.927534 13.2451C1.00846 13.2274 1.08508 13.1939 1.15293 13.1464C1.22078 13.0988 1.2785 13.0383 1.32276 12.9683C1.89025 12.0955 2.66678 11.3782 3.58185 10.8817C4.49691 10.3852 5.52151 10.1251 6.5626 10.1251C7.60369 10.1251 8.62829 10.3852 9.54335 10.8817C10.4584 11.3782 11.235 12.0955 11.8024 12.9683C11.8941 13.1046 12.0357 13.1992 12.1966 13.2319C12.3576 13.2646 12.5249 13.2326 12.6624 13.1429C12.8 13.0532 12.8967 12.913 12.9317 12.7525C12.9666 12.5921 12.9371 12.4243 12.8493 12.2855C11.9695 10.9313 10.6755 9.89787 9.16026 9.3394ZM3.1251 5.4394C3.1251 4.75953 3.32671 4.09492 3.70442 3.52963C4.08214 2.96434 4.619 2.52374 5.24713 2.26357C5.87525 2.00339 6.56641 1.93532 7.23322 2.06795C7.90003 2.20059 8.51254 2.52798 8.99328 3.00872C9.47402 3.48947 9.80141 4.10197 9.93405 4.76878C10.0667 5.43559 9.99861 6.12676 9.73844 6.75488C9.47826 7.383 9.03767 7.91986 8.47237 8.29758C7.90708 8.6753 7.24247 8.8769 6.5626 8.8769C5.65124 8.87587 4.77749 8.51337 4.13306 7.86894C3.48863 7.22451 3.12613 6.35077 3.1251 5.4394ZM19.5423 13.1503C19.4035 13.2409 19.2344 13.2725 19.0722 13.2384C18.91 13.2043 18.768 13.1071 18.6774 12.9683C18.1106 12.095 17.3342 11.3774 16.4189 10.8811C15.5037 10.3848 14.4788 10.1255 13.4376 10.1269C13.2718 10.1269 13.1129 10.0611 12.9957 9.94384C12.8784 9.82663 12.8126 9.66766 12.8126 9.5019C12.8126 9.33614 12.8784 9.17717 12.9957 9.05996C13.1129 8.94275 13.2718 8.8769 13.4376 8.8769C13.9438 8.87642 14.4437 8.76414 14.9015 8.54808C15.3593 8.33202 15.7637 8.01752 16.0859 7.62704C16.4081 7.23656 16.64 6.77974 16.7652 6.28923C16.8903 5.79871 16.9056 5.28661 16.8099 4.78952C16.7142 4.29242 16.5098 3.8226 16.2115 3.41362C15.9132 3.00464 15.5282 2.6666 15.0841 2.42365C14.64 2.1807 14.1477 2.03884 13.6424 2.0082C13.1371 1.97757 12.6313 2.05892 12.161 2.24643C12.0844 2.27958 12.0018 2.29702 11.9183 2.29772C11.8348 2.29843 11.752 2.28238 11.6748 2.25054C11.5975 2.2187 11.5275 2.1717 11.4688 2.11233C11.41 2.05296 11.3638 1.98241 11.3327 1.90486C11.3017 1.82731 11.2866 1.74433 11.2881 1.66082C11.2897 1.57731 11.3081 1.49497 11.342 1.41866C11.376 1.34235 11.4249 1.27362 11.4858 1.21653C11.5468 1.15944 11.6186 1.11515 11.697 1.08628C12.7731 0.657098 13.9701 0.641654 15.0569 1.04292C16.1438 1.44419 17.0435 2.23374 17.5826 3.25926C18.1217 4.28477 18.2619 5.47359 17.9761 6.59637C17.6904 7.71915 16.999 8.69633 16.0353 9.3394C17.5505 9.89787 18.8445 10.9313 19.7243 12.2855C19.8148 12.4243 19.8465 12.5934 19.8124 12.7556C19.7783 12.9178 19.6811 13.0598 19.5423 13.1503Z" fill="black"/>
</svg>
