<svg width="18" height="18" viewBox="0 0 18 18" fill="none" xmlns="http://www.w3.org/2000/svg">
<path d="M8.9999 5.25161C8.25822 5.25161 7.5332 5.47155 6.91652 5.8836C6.29983 6.29566 5.81918 6.88133 5.53536 7.56655C5.25153 8.25177 5.17727 9.00577 5.32196 9.7332C5.46665 10.4606 5.82381 11.1288 6.34825 11.6533C6.8727 12.1777 7.54089 12.5349 8.26832 12.6796C8.99574 12.8243 9.74974 12.75 10.435 12.4662C11.1202 12.1823 11.7059 11.7017 12.1179 11.085C12.53 10.4683 12.7499 9.74329 12.7499 9.00161C12.7489 8.00737 12.3535 7.05414 11.6504 6.3511C10.9474 5.64807 9.99415 5.25265 8.9999 5.25161ZM8.9999 11.5016C8.50545 11.5016 8.0221 11.355 7.61098 11.0803C7.19986 10.8056 6.87942 10.4151 6.69021 9.95832C6.50099 9.50151 6.45148 8.99884 6.54794 8.51389C6.6444 8.02893 6.88251 7.58348 7.23214 7.23385C7.58177 6.88421 8.02723 6.64611 8.51218 6.54965C8.99713 6.45319 9.4998 6.50269 9.95661 6.69191C10.4134 6.88113 10.8039 7.20156 11.0786 7.61269C11.3533 8.02381 11.4999 8.50716 11.4999 9.00161C11.4999 9.66465 11.2365 10.3005 10.7677 10.7694C10.2988 11.2382 9.66295 11.5016 8.9999 11.5016ZM17.589 7.37739C17.5716 7.28938 17.5354 7.20615 17.483 7.13335C17.4305 7.06056 17.363 6.99991 17.2851 6.95552L14.9546 5.62739L14.9452 3.00083C14.9449 2.91037 14.925 2.82106 14.8868 2.73905C14.8487 2.65704 14.7932 2.58429 14.7241 2.52583C13.8788 1.81075 12.9053 1.26276 11.8554 0.910988C11.7727 0.883003 11.6851 0.872647 11.5981 0.880586C11.5112 0.888525 11.4269 0.914583 11.3507 0.957081L8.9999 2.27114L6.64678 0.954738C6.57049 0.912 6.48609 0.885745 6.39902 0.87767C6.31195 0.869596 6.22416 0.879882 6.14131 0.907863C5.09221 1.2622 4.11982 1.81229 3.27569 2.52896C3.20675 2.58733 3.15129 2.65995 3.11313 2.74182C3.07496 2.82368 3.05499 2.91285 3.05459 3.00318L3.04287 5.63208L0.712405 6.96021C0.634437 7.00459 0.566939 7.06525 0.5145 7.13804C0.46206 7.21084 0.425907 7.29407 0.408498 7.38208C0.195214 8.45387 0.195214 9.55717 0.408498 10.629C0.425907 10.717 0.46206 10.8002 0.5145 10.873C0.566939 10.9458 0.634437 11.0064 0.712405 11.0508L3.04287 12.379L3.05225 15.0055C3.05253 15.096 3.07245 15.1853 3.11062 15.2673C3.14879 15.3493 3.20431 15.4221 3.27334 15.4805C4.11871 16.1956 5.09221 16.7436 6.14209 17.0954C6.22477 17.1233 6.31239 17.1337 6.39932 17.1258C6.48624 17.1178 6.57054 17.0918 6.64678 17.0493L8.9999 15.7321L11.353 17.0485C11.4462 17.1004 11.5511 17.1273 11.6577 17.1266C11.726 17.1266 11.7938 17.1155 11.8585 17.0938C12.9075 16.7399 13.8799 16.1904 14.7241 15.4743C14.7931 15.4159 14.8485 15.3433 14.8867 15.2614C14.9249 15.1795 14.9448 15.0904 14.9452 15.0001L14.9569 12.3711L17.2874 11.043C17.3654 10.9986 17.4329 10.938 17.4853 10.8652C17.5378 10.7924 17.5739 10.7092 17.5913 10.6211C17.8034 9.55022 17.8026 8.44801 17.589 7.37739ZM16.4171 10.1047L14.1851 11.3743C14.0873 11.4299 14.0063 11.5108 13.9507 11.6086C13.9054 11.6868 13.8577 11.7696 13.8093 11.8477C13.7473 11.9462 13.7142 12.0602 13.714 12.1766L13.7022 14.6961C13.1023 15.1673 12.4339 15.544 11.7202 15.8133L9.46865 14.5586C9.37518 14.5069 9.27001 14.48 9.16319 14.4805H9.14834C9.05381 14.4805 8.9585 14.4805 8.86397 14.4805C8.75216 14.4777 8.64162 14.5047 8.54365 14.5586L6.29053 15.8165C5.5753 15.5492 4.90508 15.1743 4.30303 14.7047L4.29444 12.1891C4.29405 12.0725 4.26103 11.9583 4.19912 11.8594C4.15069 11.7813 4.10303 11.7032 4.0585 11.6204C4.00328 11.5211 3.92232 11.4385 3.82412 11.3813L1.58975 10.1086C1.47412 9.37725 1.47412 8.63223 1.58975 7.90083L3.81787 6.62896C3.91567 6.57335 3.99664 6.49238 4.05225 6.39458C4.09756 6.31646 4.14522 6.23364 4.19365 6.15552C4.25566 6.057 4.28869 5.94302 4.28897 5.82661L4.30069 3.30708C4.90063 2.83595 5.56901 2.45921 6.28272 2.18989L8.53115 3.44458C8.62901 3.49882 8.73963 3.5258 8.85147 3.52271C8.946 3.52271 9.04131 3.52271 9.13584 3.52271C9.24765 3.5255 9.35819 3.49854 9.45615 3.44458L11.7093 2.18677C12.4245 2.45401 13.0947 2.82891 13.6968 3.29849L13.7054 5.81411C13.7058 5.93075 13.7388 6.04495 13.8007 6.1438C13.8491 6.22193 13.8968 6.30005 13.9413 6.38286C13.9965 6.48217 14.0775 6.56475 14.1757 6.62193L16.4101 7.89458C16.5272 8.62654 16.5285 9.37237 16.414 10.1047H16.4171Z" fill="black"/>
</svg>
