<svg width="18" height="18" viewBox="0 0 18 18" fill="none" xmlns="http://www.w3.org/2000/svg">
<path d="M16.7157 4.39174C16.6778 4.29803 16.6177 4.21492 16.5406 4.14953C16.4636 4.08414 16.3718 4.03843 16.2731 4.0163C16.1745 3.99418 16.072 3.99631 15.9743 4.02251C15.8767 4.04871 15.7869 4.0982 15.7126 4.16674L12.5642 7.07221L11.2181 6.78314L10.929 5.43705L13.8345 2.28861C13.903 2.21431 13.9525 2.12449 13.9787 2.02686C14.0049 1.92923 14.007 1.82671 13.9849 1.72807C13.9628 1.62944 13.9171 1.53765 13.8517 1.46056C13.7863 1.38347 13.7032 1.3234 13.6095 1.28549C12.7555 0.940044 11.8298 0.809615 10.9136 0.905658C9.99746 1.0017 9.11891 1.32128 8.35516 1.83631C7.59141 2.35134 6.96583 3.04606 6.5334 3.85943C6.10097 4.6728 5.87491 5.57993 5.87509 6.50111C5.87408 7.27899 6.03366 8.04869 6.34384 8.76205L1.63993 12.8292C1.62822 12.8386 1.61728 12.8495 1.60634 12.8597C1.13745 13.3286 0.874023 13.9646 0.874023 14.6277C0.874023 14.956 0.938695 15.2811 1.06435 15.5845C1.19 15.8878 1.37417 16.1635 1.60634 16.3956C1.83851 16.6278 2.11414 16.812 2.41749 16.9376C2.72084 17.0633 3.04597 17.128 3.37431 17.128C4.03743 17.128 4.67338 16.8645 5.14228 16.3956C5.15243 16.3855 5.16337 16.3738 5.17275 16.3628L9.23915 11.6574C10.0957 12.0334 11.0326 12.1898 11.9649 12.1125C12.8971 12.0352 13.7954 11.7266 14.5784 11.2147C15.3614 10.7027 16.0043 10.0036 16.449 9.18057C16.8936 8.35754 17.126 7.43659 17.1251 6.50111C17.1263 5.77813 16.9873 5.06178 16.7157 4.39174ZM11.5001 10.8761C10.7603 10.8751 10.0328 10.687 9.38525 10.3292C9.25979 10.2599 9.11433 10.2358 8.97324 10.261C8.83214 10.2862 8.70399 10.3591 8.61025 10.4675L4.24306 15.5253C4.00673 15.7499 3.69204 15.8732 3.36609 15.869C3.04014 15.8648 2.72871 15.7335 2.49821 15.503C2.26771 15.2725 2.13637 14.9611 2.1322 14.6351C2.12802 14.3092 2.25135 13.9945 2.47587 13.7581L7.52978 9.39174C7.63838 9.29795 7.7114 9.16965 7.73658 9.02839C7.76176 8.88712 7.73757 8.74149 7.66806 8.61596C7.26964 7.89536 7.08267 7.07696 7.12863 6.25485C7.17459 5.43273 7.45162 4.64027 7.92787 3.96857C8.40412 3.29688 9.06026 2.77322 9.82084 2.45779C10.5814 2.14236 11.4156 2.04798 12.2274 2.18549L9.78993 4.82689C9.72211 4.90047 9.67295 4.98925 9.64657 5.08577C9.6202 5.1823 9.61739 5.28374 9.63837 5.38158L10.0806 7.43861C10.1059 7.55626 10.1646 7.66411 10.2497 7.7492C10.3348 7.83429 10.4426 7.89301 10.5602 7.9183L12.6188 8.36049C12.7167 8.38147 12.8181 8.37866 12.9146 8.35228C13.0112 8.32591 13.1 8.27675 13.1735 8.20892L15.8149 5.77142C15.9202 6.39877 15.8876 7.04153 15.7193 7.655C15.5511 8.26846 15.2512 8.83791 14.8405 9.32373C14.4299 9.80955 13.9183 10.2001 13.3414 10.4682C12.7646 10.7363 12.1362 10.8755 11.5001 10.8761Z" fill="black"/>
</svg>
