<svg width="20" height="15" viewBox="0 0 20 15" fill="none" xmlns="http://www.w3.org/2000/svg">
<path d="M13.75 6.12502C13.75 6.29078 13.6842 6.44975 13.5669 6.56696C13.4497 6.68417 13.2908 6.75002 13.125 6.75002H6.875C6.70924 6.75002 6.55027 6.68417 6.43306 6.56696C6.31585 6.44975 6.25 6.29078 6.25 6.12502C6.25 5.95926 6.31585 5.80029 6.43306 5.68308C6.55027 5.56587 6.70924 5.50002 6.875 5.50002H13.125C13.2908 5.50002 13.4497 5.56587 13.5669 5.68308C13.6842 5.80029 13.75 5.95926 13.75 6.12502ZM13.125 8.00002H6.875C6.70924 8.00002 6.55027 8.06587 6.43306 8.18308C6.31585 8.30029 6.25 8.45926 6.25 8.62502C6.25 8.79078 6.31585 8.94975 6.43306 9.06696C6.55027 9.18417 6.70924 9.25002 6.875 9.25002H13.125C13.2908 9.25002 13.4497 9.18417 13.5669 9.06696C13.6842 8.94975 13.75 8.79078 13.75 8.62502C13.75 8.45926 13.6842 8.30029 13.5669 8.18308C13.4497 8.06587 13.2908 8.00002 13.125 8.00002ZM20 6.12502V8.00002C20 8.66306 19.7366 9.29894 19.2678 9.76778C18.7989 10.2366 18.163 10.5 17.5 10.5H17.0992C16.5883 11.6281 15.5945 12.6188 14.1539 13.4188C12.5133 14.3313 10.7539 14.7469 10.2539 14.8485C10.0865 14.8839 9.91351 14.8839 9.74609 14.8485C9.24609 14.7438 7.48828 14.3313 5.84609 13.4188C4.40547 12.6188 3.41172 11.6281 2.90078 10.5H2.5C1.83696 10.5 1.20107 10.2366 0.732233 9.76778C0.263392 9.29894 0 8.66306 0 8.00002V6.12502C0 5.46198 0.263392 4.82609 0.732233 4.35725C1.20107 3.88841 1.83696 3.62502 2.5 3.62502H2.56641C2.62549 3.44625 2.72418 3.28314 2.85514 3.14786C2.98609 3.01258 3.1459 2.90863 3.32266 2.84377L9.57266 0.571113C9.84877 0.471087 10.1512 0.471087 10.4273 0.571113L16.6773 2.84377C16.8541 2.90863 17.0139 3.01258 17.1449 3.14786C17.2758 3.28314 17.3745 3.44625 17.4336 3.62502H17.5C18.163 3.62502 18.7989 3.88841 19.2678 4.35725C19.7366 4.82609 20 5.46198 20 6.12502ZM2.54141 9.25002C2.51419 9.04672 2.50036 8.84185 2.5 8.63674V4.87502C2.16848 4.87502 1.85054 5.00671 1.61612 5.24114C1.3817 5.47556 1.25 5.7935 1.25 6.12502V8.00002C1.25 8.33154 1.3817 8.64948 1.61612 8.8839C1.85054 9.11832 2.16848 9.25002 2.5 9.25002H2.54141ZM16.25 8.63674V4.02267L10 1.75002L3.75 4.02267V8.63674C3.75 12.2117 9.3625 13.4906 10 13.625C10.6375 13.4906 16.25 12.2117 16.25 8.63674ZM18.75 6.12502C18.75 5.7935 18.6183 5.47556 18.3839 5.24114C18.1495 5.00671 17.8315 4.87502 17.5 4.87502V8.63674C17.4996 8.84185 17.4858 9.04672 17.4586 9.25002H17.5C17.8315 9.25002 18.1495 9.11832 18.3839 8.8839C18.6183 8.64948 18.75 8.33154 18.75 8.00002V6.12502Z" fill="black"/>
</svg>
