<svg width="22" height="15" viewBox="0 0 22 15" fill="none" xmlns="http://www.w3.org/2000/svg">
<path d="M18.4797 3.56285C17.5076 2.58846 16.3521 1.81617 15.08 1.29049C13.8079 0.764822 12.4443 0.496174 11.0679 0.500041H11.0304C5.26193 0.519729 0.567871 5.28129 0.567871 11.106V13.25C0.567871 13.6479 0.725906 14.0294 1.00721 14.3107C1.28852 14.592 1.67005 14.75 2.06787 14.75H20.0679C20.4657 14.75 20.8472 14.592 21.1285 14.3107C21.4098 14.0294 21.5679 13.6479 21.5679 13.25V11C21.5717 9.61758 21.3007 8.24815 20.7705 6.97138C20.2404 5.69461 19.4617 4.53598 18.4797 3.56285ZM20.0679 13.25H10.2907L15.4244 6.19067C15.5415 6.0298 15.59 5.82899 15.559 5.63243C15.5281 5.43587 15.4203 5.25965 15.2594 5.14254C15.0986 5.02543 14.8978 4.97702 14.7012 5.00797C14.5046 5.03891 14.3284 5.14667 14.2113 5.30754L8.43537 13.25H2.06787V11.106C2.06787 10.8172 2.08193 10.5322 2.10818 10.25H4.31787C4.51678 10.25 4.70755 10.171 4.8482 10.0304C4.98885 9.88972 5.06787 9.69895 5.06787 9.50004C5.06787 9.30113 4.98885 9.11036 4.8482 8.96971C4.70755 8.82906 4.51678 8.75004 4.31787 8.75004H2.37443C3.34193 5.10692 6.49943 2.35254 10.3179 2.03192V4.25004C10.3179 4.44895 10.3969 4.63972 10.5375 4.78037C10.6782 4.92102 10.869 5.00004 11.0679 5.00004C11.2668 5.00004 11.4575 4.92102 11.5982 4.78037C11.7389 4.63972 11.8179 4.44895 11.8179 4.25004V2.03098C13.6785 2.18756 15.4445 2.91813 16.872 4.12175C18.2995 5.32537 19.318 6.94262 19.7866 8.75004H17.8179C17.619 8.75004 17.4282 8.82906 17.2875 8.96971C17.1469 9.11036 17.0679 9.30113 17.0679 9.50004C17.0679 9.69895 17.1469 9.88972 17.2875 10.0304C17.4282 10.171 17.619 10.25 17.8179 10.25H20.0369C20.0566 10.4985 20.0679 10.7479 20.0679 11V13.25Z" fill="#010101"/>
</svg>
