<svg width="20" height="20" viewBox="0 0 20 20" fill="none" xmlns="http://www.w3.org/2000/svg">
<path d="M10.0679 0.25C8.13951 0.25 6.25444 0.821828 4.65107 1.89317C3.04769 2.96452 1.798 4.48726 1.06005 6.26884C0.322096 8.05042 0.129013 10.0108 0.505219 11.9021C0.881425 13.7934 1.81002 15.5307 3.17358 16.8943C4.53715 18.2579 6.27443 19.1865 8.16575 19.5627C10.0571 19.9389 12.0175 19.7458 13.799 19.0078C15.5806 18.2699 17.1034 17.0202 18.1747 15.4168C19.246 13.8134 19.8179 11.9284 19.8179 10C19.8151 7.41498 18.787 4.93661 16.9592 3.10872C15.1313 1.28084 12.6529 0.25273 10.0679 0.25ZM7.59569 13.75H12.5401C12.0366 15.4694 11.1929 17.0191 10.0679 18.2397C8.94288 17.0191 8.09913 15.4694 7.59569 13.75ZM7.25538 12.25C7.00663 10.7603 7.00663 9.23969 7.25538 7.75H12.8804C13.1291 9.23969 13.1291 10.7603 12.8804 12.25H7.25538ZM1.81788 10C1.81722 9.23916 1.92229 8.48192 2.13006 7.75H5.73569C5.51194 9.24166 5.51194 10.7583 5.73569 12.25H2.13006C1.92229 11.5181 1.81722 10.7608 1.81788 10ZM12.5401 6.25H7.59569C8.09913 4.53062 8.94288 2.98094 10.0679 1.76031C11.1929 2.98094 12.0366 4.53062 12.5401 6.25ZM14.4001 7.75H18.0057C18.4219 9.22112 18.4219 10.7789 18.0057 12.25H14.4001C14.6238 10.7583 14.6238 9.24166 14.4001 7.75ZM17.4151 6.25H14.0935C13.7108 4.74392 13.068 3.31623 12.1941 2.03125C13.3105 2.33127 14.3518 2.86162 15.251 3.58818C16.1502 4.31475 16.8873 5.22146 17.4151 6.25ZM7.94163 2.03125C7.06778 3.31623 6.425 4.74392 6.04225 6.25H2.72069C3.24843 5.22146 3.98559 4.31475 4.88476 3.58818C5.78393 2.86162 6.8252 2.33127 7.94163 2.03125ZM2.72069 13.75H6.04225C6.425 15.2561 7.06778 16.6838 7.94163 17.9688C6.8252 17.6687 5.78393 17.1384 4.88476 16.4118C3.98559 15.6852 3.24843 14.7785 2.72069 13.75ZM12.1941 17.9688C13.068 16.6838 13.7108 15.2561 14.0935 13.75H17.4151C16.8873 14.7785 16.1502 15.6852 15.251 16.4118C14.3518 17.1384 13.3105 17.6687 12.1941 17.9688Z" fill="#010101"/>
</svg>
