<svg width="13" height="13" viewBox="0 0 13 13" fill="none" xmlns="http://www.w3.org/2000/svg">
<path d="M12.1598 5.18439L7.15979 0.277768C7.15734 0.27555 7.15504 0.273161 7.15291 0.270618C6.96882 0.0964893 6.72893 0 6.4801 0C6.23127 0 5.99137 0.0964893 5.80728 0.270618L5.80041 0.277768L0.806035 5.18439C0.704159 5.28182 0.622838 5.40019 0.567217 5.532C0.511597 5.66382 0.482889 5.8062 0.48291 5.95015V11.9599C0.48291 12.2358 0.588267 12.5003 0.775803 12.6954C0.96334 12.8904 1.21769 13 1.48291 13H4.48291C4.74813 13 5.00248 12.8904 5.19002 12.6954C5.37755 12.5003 5.48291 12.2358 5.48291 11.9599V8.83965H7.48291V11.9599C7.48291 12.2358 7.58827 12.5003 7.7758 12.6954C7.96334 12.8904 8.21769 13 8.48291 13H11.4829C11.7481 13 12.0025 12.8904 12.19 12.6954C12.3776 12.5003 12.4829 12.2358 12.4829 11.9599V5.95015C12.4829 5.8062 12.4542 5.66382 12.3986 5.532C12.343 5.40019 12.2617 5.28182 12.1598 5.18439ZM11.4829 11.9599H8.48291V8.83965C8.48291 8.5638 8.37755 8.29925 8.19002 8.10419C8.00248 7.90914 7.74813 7.79956 7.48291 7.79956H5.48291C5.21769 7.79956 4.96334 7.90914 4.7758 8.10419C4.58827 8.29925 4.48291 8.5638 4.48291 8.83965V11.9599H1.48291V5.95015L1.48979 5.94365L6.48291 1.03898L11.4767 5.94235L11.4835 5.94885L11.4829 11.9599Z" fill="#1C1C1C"/>
</svg>
