<svg width="20" height="19" viewBox="0 0 20 19" fill="none" xmlns="http://www.w3.org/2000/svg">
<path d="M18.3179 0.5H1.8179C1.42007 0.5 1.03854 0.658035 0.757237 0.93934C0.475932 1.22064 0.317897 1.60218 0.317897 2V17C0.316202 17.2859 0.397028 17.5662 0.550679 17.8074C0.70433 18.0485 0.924281 18.2401 1.18415 18.3594C1.38273 18.4516 1.59896 18.4996 1.8179 18.5C2.17003 18.4992 2.51047 18.3736 2.77883 18.1456C2.78331 18.1427 2.7874 18.1392 2.79102 18.1353L5.80227 15.5H18.3179C18.7157 15.5 19.0973 15.342 19.3786 15.0607C19.6599 14.7794 19.8179 14.3978 19.8179 14V2C19.8179 1.60218 19.6599 1.22064 19.3786 0.93934C19.0973 0.658035 18.7157 0.5 18.3179 0.5ZM18.3179 14H5.80227C5.44904 13.9998 5.10709 14.1243 4.83665 14.3516L4.8254 14.3619L1.8179 17V2H18.3179V14ZM8.9429 8C8.9429 7.7775 9.00888 7.55999 9.13249 7.37498C9.25611 7.18998 9.43181 7.04578 9.63738 6.96064C9.84295 6.87549 10.0691 6.85321 10.2874 6.89662C10.5056 6.94002 10.7061 7.04717 10.8634 7.2045C11.0207 7.36184 11.1279 7.56229 11.1713 7.78052C11.2147 7.99875 11.1924 8.22495 11.1073 8.43052C11.0221 8.63608 10.8779 8.81179 10.6929 8.9354C10.5079 9.05902 10.2904 9.125 10.0679 9.125C9.76953 9.125 9.48338 9.00647 9.2724 8.79549C9.06142 8.58452 8.9429 8.29837 8.9429 8ZM4.8179 8C4.8179 7.7775 4.88388 7.55999 5.00749 7.37498C5.13111 7.18998 5.30681 7.04578 5.51238 6.96064C5.71795 6.87549 5.94415 6.85321 6.16237 6.89662C6.3806 6.94002 6.58106 7.04717 6.73839 7.2045C6.89573 7.36184 7.00287 7.56229 7.04628 7.78052C7.08969 7.99875 7.06741 8.22495 6.98226 8.43052C6.89711 8.63608 6.75292 8.81179 6.56791 8.9354C6.38291 9.05902 6.1654 9.125 5.9429 9.125C5.64453 9.125 5.35838 9.00647 5.1474 8.79549C4.93642 8.58452 4.8179 8.29837 4.8179 8ZM13.0679 8C13.0679 7.7775 13.1339 7.55999 13.2575 7.37498C13.3811 7.18998 13.5568 7.04578 13.7624 6.96064C13.9679 6.87549 14.1941 6.85321 14.4124 6.89662C14.6306 6.94002 14.8311 7.04717 14.9884 7.2045C15.1457 7.36184 15.2529 7.56229 15.2963 7.78052C15.3397 7.99875 15.3174 8.22495 15.2323 8.43052C15.1471 8.63608 15.0029 8.81179 14.8179 8.9354C14.6329 9.05902 14.4154 9.125 14.1929 9.125C13.8945 9.125 13.6084 9.00647 13.3974 8.79549C13.1864 8.58452 13.0679 8.29837 13.0679 8Z" fill="#1D1D1D"/>
</svg>
