<svg width="12" height="13" viewBox="0 0 12 13" fill="none" xmlns="http://www.w3.org/2000/svg">
<path d="M11.8623 9.49625C11.5154 8.89875 10.9998 7.20813 10.9998 5C10.9998 3.67392 10.473 2.40215 9.5353 1.46447C8.59762 0.526784 7.32585 0 5.99976 0C4.67368 0 3.40191 0.526784 2.46423 1.46447C1.52655 2.40215 0.999764 3.67392 0.999764 5C0.999764 7.20875 0.483514 8.89875 0.136639 9.49625C0.0480579 9.64815 0.00109784 9.82073 0.000494176 9.99657C-0.000109489 10.1724 0.0456647 10.3453 0.133201 10.4978C0.220736 10.6503 0.346939 10.777 0.49908 10.8652C0.651221 10.9534 0.823921 10.9999 0.999764 11H3.55039C3.66575 11.5645 3.97253 12.0718 4.41885 12.4361C4.86517 12.8004 5.42362 12.9994 5.99976 12.9994C6.5759 12.9994 7.13436 12.8004 7.58068 12.4361C8.027 12.0718 8.33378 11.5645 8.44914 11H10.9998C11.1756 10.9998 11.3482 10.9532 11.5002 10.865C11.6523 10.7768 11.7784 10.65 11.8659 10.4975C11.9533 10.345 11.999 10.1722 11.9984 9.99641C11.9978 9.82062 11.9508 9.64811 11.8623 9.49625ZM5.99976 12C5.68965 11.9999 5.38719 11.9037 5.13401 11.7246C4.88083 11.5455 4.68938 11.2924 4.58601 11H7.41351C7.31014 11.2924 7.11869 11.5455 6.86552 11.7246C6.61234 11.9037 6.30988 11.9999 5.99976 12ZM0.999764 10C1.48101 9.1725 1.99976 7.255 1.99976 5C1.99976 3.93913 2.42119 2.92172 3.17134 2.17157C3.92148 1.42143 4.9389 1 5.99976 1C7.06063 1 8.07804 1.42143 8.82819 2.17157C9.57834 2.92172 9.99976 3.93913 9.99976 5C9.99976 7.25313 10.5173 9.17062 10.9998 10H0.999764Z" fill="black"/>
</svg>
