<svg width="18" height="18" viewBox="0 0 18 18" fill="none" xmlns="http://www.w3.org/2000/svg">
<path d="M15.8179 0.75H2.31787C1.92005 0.75 1.53852 0.908035 1.25721 1.18934C0.975906 1.47064 0.817871 1.85218 0.817871 2.25V15.75C0.817871 16.1478 0.975906 16.5294 1.25721 16.8107C1.53852 17.092 1.92005 17.25 2.31787 17.25H15.8179C16.2157 17.25 16.5972 17.092 16.8785 16.8107C17.1598 16.5294 17.3179 16.1478 17.3179 15.75V2.25C17.3179 1.85218 17.1598 1.47064 16.8785 1.18934C16.5972 0.908035 16.2157 0.75 15.8179 0.75ZM15.8179 8.25H9.81787V2.25H15.8179V8.25ZM8.31787 2.25V8.25H2.31787V2.25H8.31787ZM2.31787 9.75H8.31787V15.75H2.31787V9.75ZM15.8179 15.75H9.81787V9.75H15.8179V15.75Z" fill="#010101"/>
</svg>
